%TF.GenerationSoftware,KiCad,Pcbnew,(7.0.0-0)*%
%TF.CreationDate,2023-04-02T12:17:20+09:00*%
%TF.ProjectId,11111_pcb,31313131-315f-4706-9362-2e6b69636164,rev?*%
%TF.SameCoordinates,Original*%
%TF.FileFunction,Soldermask,Top*%
%TF.FilePolarity,Negative*%
%FSLAX46Y46*%
G04 Gerber Fmt 4.6, Leading zero omitted, Abs format (unit mm)*
G04 Created by KiCad (PCBNEW (7.0.0-0)) date 2023-04-02 12:17:20*
%MOMM*%
%LPD*%
G01*
G04 APERTURE LIST*
G04 Aperture macros list*
%AMRoundRect*
0 Rectangle with rounded corners*
0 $1 Rounding radius*
0 $2 $3 $4 $5 $6 $7 $8 $9 X,Y pos of 4 corners*
0 Add a 4 corners polygon primitive as box body*
4,1,4,$2,$3,$4,$5,$6,$7,$8,$9,$2,$3,0*
0 Add four circle primitives for the rounded corners*
1,1,$1+$1,$2,$3*
1,1,$1+$1,$4,$5*
1,1,$1+$1,$6,$7*
1,1,$1+$1,$8,$9*
0 Add four rect primitives between the rounded corners*
20,1,$1+$1,$2,$3,$4,$5,0*
20,1,$1+$1,$4,$5,$6,$7,0*
20,1,$1+$1,$6,$7,$8,$9,0*
20,1,$1+$1,$8,$9,$2,$3,0*%
G04 Aperture macros list end*
%ADD10C,1.900000*%
%ADD11C,4.000000*%
%ADD12C,1.210000*%
%ADD13O,1.300000X2.200000*%
%ADD14RoundRect,0.756000X0.000000X-0.006000X0.000000X-0.006000X0.000000X0.006000X0.000000X0.006000X0*%
%ADD15RoundRect,0.756000X0.006000X0.000000X0.006000X0.000000X-0.006000X0.000000X-0.006000X0.000000X0*%
%ADD16RoundRect,0.756000X0.000000X0.006000X0.000000X0.006000X0.000000X-0.006000X0.000000X-0.006000X0*%
G04 APERTURE END LIST*
D10*
%TO.C,SW13*%
X287835987Y-38062000D03*
D11*
X292915987Y-38062000D03*
D10*
X297995987Y-38062000D03*
%TD*%
%TO.C,SW8*%
X192635987Y-38062000D03*
D11*
X197715987Y-38062000D03*
D10*
X202795987Y-38062000D03*
%TD*%
%TO.C,SW54*%
X268835987Y-95212000D03*
D11*
X273915987Y-95212000D03*
D10*
X278995987Y-95212000D03*
%TD*%
%TO.C,SW61*%
X192635987Y-114262000D03*
D11*
X197715987Y-114262000D03*
D10*
X202795987Y-114262000D03*
%TD*%
%TO.C,SW26*%
X268835987Y-57112000D03*
D11*
X273915987Y-57112000D03*
D10*
X278995987Y-57112000D03*
%TD*%
%TO.C,SW22*%
X192635987Y-57112000D03*
D11*
X197715987Y-57112000D03*
D10*
X202795987Y-57112000D03*
%TD*%
%TO.C,SW62*%
X211635987Y-114262000D03*
D11*
X216715987Y-114262000D03*
D10*
X221795987Y-114262000D03*
%TD*%
%TO.C,SW23*%
X211635987Y-57112000D03*
D11*
X216715987Y-57112000D03*
D10*
X221795987Y-57112000D03*
%TD*%
%TO.C,SW12*%
X268835987Y-38062000D03*
D11*
X273915987Y-38062000D03*
D10*
X278995987Y-38062000D03*
%TD*%
%TO.C,SW40*%
X268835987Y-76162000D03*
D11*
X273915987Y-76162000D03*
D10*
X278995987Y-76162000D03*
%TD*%
%TO.C,SW53*%
X249835987Y-95212000D03*
D11*
X254915987Y-95212000D03*
D10*
X259995987Y-95212000D03*
%TD*%
%TO.C,SW28*%
X306935987Y-57112000D03*
D11*
X312015987Y-57112000D03*
D10*
X317095987Y-57112000D03*
%TD*%
%TO.C,SW51*%
X211635987Y-95212000D03*
D11*
X216715987Y-95212000D03*
D10*
X221795987Y-95212000D03*
%TD*%
%TO.C,SW37*%
X211635987Y-76162000D03*
D11*
X216715987Y-76162000D03*
D10*
X221795987Y-76162000D03*
%TD*%
%TO.C,SW56*%
X306935987Y-95212000D03*
D11*
X312015987Y-95212000D03*
D10*
X317095987Y-95212000D03*
%TD*%
%TO.C,SW9*%
X211635987Y-38062000D03*
D11*
X216715987Y-38062000D03*
D10*
X221795987Y-38062000D03*
%TD*%
%TO.C,SW27*%
X287835987Y-57112000D03*
D11*
X292915987Y-57112000D03*
D10*
X297995987Y-57112000D03*
%TD*%
%TO.C,SW14*%
X306935987Y-38062000D03*
D11*
X312015987Y-38062000D03*
D10*
X317095987Y-38062000D03*
%TD*%
%TO.C,SW50*%
X192635987Y-95212000D03*
D11*
X197715987Y-95212000D03*
D10*
X202795987Y-95212000D03*
%TD*%
%TO.C,SW38*%
X230735987Y-76162000D03*
D11*
X235815987Y-76162000D03*
D10*
X240895987Y-76162000D03*
%TD*%
%TO.C,SW11*%
X249835987Y-38062000D03*
D11*
X254915987Y-38062000D03*
D10*
X259995987Y-38062000D03*
%TD*%
%TO.C,SW52*%
X230735987Y-95212000D03*
D11*
X235815987Y-95212000D03*
D10*
X240895987Y-95212000D03*
%TD*%
%TO.C,SW39*%
X249835987Y-76162000D03*
D11*
X254915987Y-76162000D03*
D10*
X259995987Y-76162000D03*
%TD*%
%TO.C,SW55*%
X287835987Y-95212000D03*
D11*
X292915987Y-95212000D03*
D10*
X297995987Y-95212000D03*
%TD*%
%TO.C,SW24*%
X230735987Y-57112000D03*
D11*
X235815987Y-57112000D03*
D10*
X240895987Y-57112000D03*
%TD*%
%TO.C,SW25*%
X249835987Y-57112000D03*
D11*
X254915987Y-57112000D03*
D10*
X259995987Y-57112000D03*
%TD*%
D12*
%TO.C,J2*%
X206068800Y-22120000D03*
X206068800Y-29120000D03*
D13*
X208068799Y-32419999D03*
X204068799Y-23919999D03*
X204068799Y-26919999D03*
X204068799Y-30919999D03*
%TD*%
D10*
%TO.C,SW10*%
X230735987Y-38062000D03*
D11*
X235815987Y-38062000D03*
D10*
X240895987Y-38062000D03*
%TD*%
%TO.C,SW64*%
X249835987Y-114262000D03*
D11*
X254915987Y-114262000D03*
D10*
X259995987Y-114262000D03*
%TD*%
%TO.C,SW41*%
X287835987Y-76162000D03*
D11*
X292915987Y-76162000D03*
D10*
X297995987Y-76162000D03*
%TD*%
%TO.C,SW42*%
X306935987Y-76162000D03*
D11*
X312015987Y-76162000D03*
D10*
X317095987Y-76162000D03*
%TD*%
%TO.C,SW36*%
X192635987Y-76162000D03*
D11*
X197715987Y-76162000D03*
D10*
X202795987Y-76162000D03*
%TD*%
%TO.C,SW63*%
X230735987Y-114262000D03*
D11*
X235815987Y-114262000D03*
D10*
X240895987Y-114262000D03*
%TD*%
D14*
%TO.C,A2*%
X210560000Y-22555200D03*
X210560000Y-25095200D03*
X210560000Y-27635200D03*
X210560000Y-30175200D03*
X210560000Y-40335200D03*
X210560000Y-42875200D03*
D15*
X213106000Y-42881200D03*
X215646000Y-42881200D03*
X218186000Y-42881200D03*
X220726000Y-42881200D03*
X223266000Y-42881200D03*
D16*
X225812000Y-42875200D03*
X225812000Y-40335200D03*
X225812000Y-30175200D03*
X225812000Y-27635200D03*
X225812000Y-22555200D03*
X225812000Y-25095200D03*
%TD*%
M02*
