%TF.GenerationSoftware,KiCad,Pcbnew,(7.0.0-0)*%
%TF.CreationDate,2023-03-06T00:10:08+09:00*%
%TF.ProjectId,11111_pcb,31313131-315f-4706-9362-2e6b69636164,rev?*%
%TF.SameCoordinates,Original*%
%TF.FileFunction,Soldermask,Bot*%
%TF.FilePolarity,Negative*%
%FSLAX46Y46*%
G04 Gerber Fmt 4.6, Leading zero omitted, Abs format (unit mm)*
G04 Created by KiCad (PCBNEW (7.0.0-0)) date 2023-03-06 00:10:08*
%MOMM*%
%LPD*%
G01*
G04 APERTURE LIST*
%ADD10R,1.300000X0.950000*%
%ADD11C,1.900000*%
%ADD12C,4.000000*%
%ADD13O,2.500000X2.000000*%
%ADD14C,1.210000*%
%ADD15O,2.200000X1.300000*%
%ADD16O,1.800000X1.800000*%
%ADD17O,1.500000X1.500000*%
%ADD18R,1.700000X3.500000*%
G04 APERTURE END LIST*
D10*
%TO.C,D27*%
X304424999Y-64999999D03*
X307974999Y-64999999D03*
%TD*%
D11*
%TO.C,SW13*%
X300355000Y-40580000D03*
D12*
X305435000Y-40580000D03*
D11*
X310515000Y-40580000D03*
D13*
X301624999Y-38039999D03*
X307974999Y-35499999D03*
%TD*%
D10*
%TO.C,D39*%
X266444999Y-84129999D03*
X269994999Y-84129999D03*
%TD*%
%TO.C,D22*%
X209194999Y-64999999D03*
X212744999Y-64999999D03*
%TD*%
%TO.C,D52*%
X247329999Y-102809999D03*
X250879999Y-102809999D03*
%TD*%
%TO.C,D28*%
X323509999Y-64999999D03*
X327059999Y-64999999D03*
%TD*%
D11*
%TO.C,SW8*%
X205155000Y-40580000D03*
D12*
X210235000Y-40580000D03*
D11*
X215315000Y-40580000D03*
D13*
X206424999Y-38039999D03*
X212774999Y-35499999D03*
%TD*%
D10*
%TO.C,D42*%
X323509999Y-84129999D03*
X327059999Y-84129999D03*
%TD*%
%TO.C,D26*%
X285469999Y-64999999D03*
X289019999Y-64999999D03*
%TD*%
%TO.C,D14*%
X323509999Y-45679999D03*
X327059999Y-45679999D03*
%TD*%
D11*
%TO.C,SW54*%
X281355000Y-97730000D03*
D12*
X286435000Y-97730000D03*
D11*
X291515000Y-97730000D03*
D13*
X282624999Y-95189999D03*
X288974999Y-92649999D03*
%TD*%
D11*
%TO.C,SW61*%
X205155000Y-116780000D03*
D12*
X210235000Y-116780000D03*
D11*
X215315000Y-116780000D03*
D13*
X206424999Y-114239999D03*
X212774999Y-111699999D03*
%TD*%
D11*
%TO.C,SW26*%
X281355000Y-59630000D03*
D12*
X286435000Y-59630000D03*
D11*
X291515000Y-59630000D03*
D13*
X282624999Y-57089999D03*
X288974999Y-54549999D03*
%TD*%
D11*
%TO.C,SW22*%
X205155000Y-59630000D03*
D12*
X210235000Y-59630000D03*
D11*
X215315000Y-59630000D03*
D13*
X206424999Y-57089999D03*
X212774999Y-54549999D03*
%TD*%
D10*
%TO.C,D41*%
X304424999Y-84129999D03*
X307974999Y-84129999D03*
%TD*%
%TO.C,D40*%
X285469999Y-84129999D03*
X289019999Y-84129999D03*
%TD*%
%TO.C,D56*%
X323509999Y-102809999D03*
X327059999Y-102809999D03*
%TD*%
%TO.C,D38*%
X247329999Y-84129999D03*
X250879999Y-84129999D03*
%TD*%
D11*
%TO.C,SW62*%
X224155000Y-116780000D03*
D12*
X229235000Y-116780000D03*
D11*
X234315000Y-116780000D03*
D13*
X225424999Y-114239999D03*
X231774999Y-111699999D03*
%TD*%
D11*
%TO.C,SW23*%
X224155000Y-59630000D03*
D12*
X229235000Y-59630000D03*
D11*
X234315000Y-59630000D03*
D13*
X225424999Y-57089999D03*
X231774999Y-54549999D03*
%TD*%
D10*
%TO.C,D53*%
X266444999Y-102809999D03*
X269994999Y-102809999D03*
%TD*%
%TO.C,D9*%
X228244999Y-45679999D03*
X231794999Y-45679999D03*
%TD*%
D11*
%TO.C,SW12*%
X281355000Y-40580000D03*
D12*
X286435000Y-40580000D03*
D11*
X291515000Y-40580000D03*
D13*
X282624999Y-38039999D03*
X288974999Y-35499999D03*
%TD*%
D11*
%TO.C,SW40*%
X281355000Y-78680000D03*
D12*
X286435000Y-78680000D03*
D11*
X291515000Y-78680000D03*
D13*
X282624999Y-76139999D03*
X288974999Y-73599999D03*
%TD*%
D10*
%TO.C,D55*%
X304424999Y-102809999D03*
X307974999Y-102809999D03*
%TD*%
%TO.C,D36*%
X209194999Y-84129999D03*
X212744999Y-84129999D03*
%TD*%
%TO.C,D62*%
X228244999Y-121879999D03*
X231794999Y-121879999D03*
%TD*%
%TO.C,D13*%
X304424999Y-45679999D03*
X307974999Y-45679999D03*
%TD*%
D11*
%TO.C,SW53*%
X262355000Y-97730000D03*
D12*
X267435000Y-97730000D03*
D11*
X272515000Y-97730000D03*
D13*
X263624999Y-95189999D03*
X269974999Y-92649999D03*
%TD*%
D10*
%TO.C,D54*%
X285469999Y-102809999D03*
X289019999Y-102809999D03*
%TD*%
%TO.C,D64*%
X266444999Y-121879999D03*
X269994999Y-121879999D03*
%TD*%
D11*
%TO.C,SW28*%
X319455000Y-59630000D03*
D12*
X324535000Y-59630000D03*
D11*
X329615000Y-59630000D03*
D13*
X320724999Y-57089999D03*
X327074999Y-54549999D03*
%TD*%
D11*
%TO.C,SW51*%
X224155000Y-97730000D03*
D12*
X229235000Y-97730000D03*
D11*
X234315000Y-97730000D03*
D13*
X225424999Y-95189999D03*
X231774999Y-92649999D03*
%TD*%
D10*
%TO.C,D23*%
X228244999Y-64999999D03*
X231794999Y-64999999D03*
%TD*%
D11*
%TO.C,SW37*%
X224155000Y-78680000D03*
D12*
X229235000Y-78680000D03*
D11*
X234315000Y-78680000D03*
D13*
X225424999Y-76139999D03*
X231774999Y-73599999D03*
%TD*%
D11*
%TO.C,SW56*%
X319455000Y-97730000D03*
D12*
X324535000Y-97730000D03*
D11*
X329615000Y-97730000D03*
D13*
X320724999Y-95189999D03*
X327074999Y-92649999D03*
%TD*%
D10*
%TO.C,D63*%
X247329999Y-121879999D03*
X250879999Y-121879999D03*
%TD*%
D11*
%TO.C,SW9*%
X224155000Y-40580000D03*
D12*
X229235000Y-40580000D03*
D11*
X234315000Y-40580000D03*
D13*
X225424999Y-38039999D03*
X231774999Y-35499999D03*
%TD*%
D11*
%TO.C,SW27*%
X300355000Y-59630000D03*
D12*
X305435000Y-59630000D03*
D11*
X310515000Y-59630000D03*
D13*
X301624999Y-57089999D03*
X307974999Y-54549999D03*
%TD*%
D11*
%TO.C,SW14*%
X319455000Y-40580000D03*
D12*
X324535000Y-40580000D03*
D11*
X329615000Y-40580000D03*
D13*
X320724999Y-38039999D03*
X327074999Y-35499999D03*
%TD*%
D11*
%TO.C,SW50*%
X205155000Y-97730000D03*
D12*
X210235000Y-97730000D03*
D11*
X215315000Y-97730000D03*
D13*
X206424999Y-95189999D03*
X212774999Y-92649999D03*
%TD*%
D11*
%TO.C,SW38*%
X243255000Y-78680000D03*
D12*
X248335000Y-78680000D03*
D11*
X253415000Y-78680000D03*
D13*
X244524999Y-76139999D03*
X250874999Y-73599999D03*
%TD*%
D11*
%TO.C,SW11*%
X262355000Y-40580000D03*
D12*
X267435000Y-40580000D03*
D11*
X272515000Y-40580000D03*
D13*
X263624999Y-38039999D03*
X269974999Y-35499999D03*
%TD*%
D10*
%TO.C,D50*%
X209194999Y-102809999D03*
X212744999Y-102809999D03*
%TD*%
D11*
%TO.C,SW52*%
X243255000Y-97730000D03*
D12*
X248335000Y-97730000D03*
D11*
X253415000Y-97730000D03*
D13*
X244524999Y-95189999D03*
X250874999Y-92649999D03*
%TD*%
D10*
%TO.C,D10*%
X247329999Y-45679999D03*
X250879999Y-45679999D03*
%TD*%
D11*
%TO.C,SW39*%
X262355000Y-78680000D03*
D12*
X267435000Y-78680000D03*
D11*
X272515000Y-78680000D03*
D13*
X263624999Y-76139999D03*
X269974999Y-73599999D03*
%TD*%
D10*
%TO.C,D61*%
X209194999Y-121879999D03*
X212744999Y-121879999D03*
%TD*%
D11*
%TO.C,SW55*%
X300355000Y-97730000D03*
D12*
X305435000Y-97730000D03*
D11*
X310515000Y-97730000D03*
D13*
X301624999Y-95189999D03*
X307974999Y-92649999D03*
%TD*%
D11*
%TO.C,SW24*%
X243255000Y-59630000D03*
D12*
X248335000Y-59630000D03*
D11*
X253415000Y-59630000D03*
D13*
X244524999Y-57089999D03*
X250874999Y-54549999D03*
%TD*%
D10*
%TO.C,D51*%
X228244999Y-102809999D03*
X231794999Y-102809999D03*
%TD*%
D11*
%TO.C,SW25*%
X262355000Y-59630000D03*
D12*
X267435000Y-59630000D03*
D11*
X272515000Y-59630000D03*
D13*
X263624999Y-57089999D03*
X269974999Y-54549999D03*
%TD*%
D14*
%TO.C,J2*%
X205345000Y-70580000D03*
X198345000Y-70580000D03*
D15*
X195044999Y-72579999D03*
X203544999Y-68579999D03*
X200544999Y-68579999D03*
X196544999Y-68579999D03*
%TD*%
D10*
%TO.C,D24*%
X247329999Y-64999999D03*
X250879999Y-64999999D03*
%TD*%
%TO.C,D25*%
X266444999Y-64999999D03*
X269994999Y-64999999D03*
%TD*%
D11*
%TO.C,SW10*%
X243255000Y-40580000D03*
D12*
X248335000Y-40580000D03*
D11*
X253415000Y-40580000D03*
D13*
X244524999Y-38039999D03*
X250874999Y-35499999D03*
%TD*%
D10*
%TO.C,D8*%
X209194999Y-45679999D03*
X212744999Y-45679999D03*
%TD*%
D11*
%TO.C,SW64*%
X262355000Y-116780000D03*
D12*
X267435000Y-116780000D03*
D11*
X272515000Y-116780000D03*
D13*
X263624999Y-114239999D03*
X269974999Y-111699999D03*
%TD*%
D10*
%TO.C,D37*%
X228244999Y-84129999D03*
X231794999Y-84129999D03*
%TD*%
%TO.C,D12*%
X285469999Y-45679999D03*
X289019999Y-45679999D03*
%TD*%
D11*
%TO.C,SW41*%
X300355000Y-78680000D03*
D12*
X305435000Y-78680000D03*
D11*
X310515000Y-78680000D03*
D13*
X301624999Y-76139999D03*
X307974999Y-73599999D03*
%TD*%
D11*
%TO.C,SW42*%
X319455000Y-78680000D03*
D12*
X324535000Y-78680000D03*
D11*
X329615000Y-78680000D03*
D13*
X320724999Y-76139999D03*
X327074999Y-73599999D03*
%TD*%
D10*
%TO.C,D11*%
X266444999Y-45679999D03*
X269994999Y-45679999D03*
%TD*%
D11*
%TO.C,SW36*%
X205155000Y-78680000D03*
D12*
X210235000Y-78680000D03*
D11*
X215315000Y-78680000D03*
D13*
X206424999Y-76139999D03*
X212774999Y-73599999D03*
%TD*%
D11*
%TO.C,SW63*%
X243255000Y-116780000D03*
D12*
X248335000Y-116780000D03*
D11*
X253415000Y-116780000D03*
D13*
X244524999Y-114239999D03*
X250874999Y-111699999D03*
%TD*%
D16*
%TO.C,U2*%
X332034999Y-119339999D03*
D17*
X329004999Y-119039999D03*
X329004999Y-114189999D03*
D16*
X332034999Y-113889999D03*
D18*
X332164999Y-126404999D03*
X329624999Y-126404999D03*
X327084999Y-126404999D03*
X324544999Y-126404999D03*
X322004999Y-126404999D03*
X319464999Y-126404999D03*
X316924999Y-126404999D03*
X314384999Y-126404999D03*
X311844999Y-126404999D03*
X309304999Y-126404999D03*
X306764999Y-126404999D03*
X304224999Y-126404999D03*
X301684999Y-126404999D03*
X299144999Y-126404999D03*
X296604999Y-126404999D03*
X294064999Y-126404999D03*
X291524999Y-126404999D03*
X288984999Y-126404999D03*
X286444999Y-126404999D03*
X283904999Y-126404999D03*
X283904999Y-106824999D03*
X286444999Y-106824999D03*
X288984999Y-106824999D03*
X291524999Y-106824999D03*
X294064999Y-106824999D03*
X296604999Y-106824999D03*
X299144999Y-106824999D03*
X301684999Y-106824999D03*
X304224999Y-106824999D03*
X306764999Y-106824999D03*
X309304999Y-106824999D03*
X311844999Y-106824999D03*
X314384999Y-106824999D03*
X316924999Y-106824999D03*
X319464999Y-106824999D03*
X322004999Y-106824999D03*
X324544999Y-106824999D03*
X327084999Y-106824999D03*
X329624999Y-106824999D03*
X332164999Y-106824999D03*
%TD*%
M02*
