%TF.GenerationSoftware,KiCad,Pcbnew,(7.0.0-0)*%
%TF.CreationDate,2023-03-06T01:52:27+09:00*%
%TF.ProjectId,11111_pcb,31313131-315f-4706-9362-2e6b69636164,rev?*%
%TF.SameCoordinates,Original*%
%TF.FileFunction,Soldermask,Top*%
%TF.FilePolarity,Negative*%
%FSLAX46Y46*%
G04 Gerber Fmt 4.6, Leading zero omitted, Abs format (unit mm)*
G04 Created by KiCad (PCBNEW (7.0.0-0)) date 2023-03-06 01:52:27*
%MOMM*%
%LPD*%
G01*
G04 APERTURE LIST*
%ADD10C,1.900000*%
%ADD11C,4.000000*%
%ADD12O,1.800000X1.800000*%
%ADD13O,1.500000X1.500000*%
%ADD14C,1.210000*%
%ADD15O,2.200000X1.300000*%
G04 APERTURE END LIST*
D10*
%TO.C,SW64*%
X249835987Y-114242000D03*
D11*
X254915987Y-114242000D03*
D10*
X259995987Y-114242000D03*
%TD*%
%TO.C,SW41*%
X287835987Y-76142000D03*
D11*
X292915987Y-76142000D03*
D10*
X297995987Y-76142000D03*
%TD*%
%TO.C,SW42*%
X306935987Y-76142000D03*
D11*
X312015987Y-76142000D03*
D10*
X317095987Y-76142000D03*
%TD*%
%TO.C,SW36*%
X192635987Y-76142000D03*
D11*
X197715987Y-76142000D03*
D10*
X202795987Y-76142000D03*
%TD*%
%TO.C,SW63*%
X230735987Y-114242000D03*
D11*
X235815987Y-114242000D03*
D10*
X240895987Y-114242000D03*
%TD*%
D12*
%TO.C,U2*%
X319515986Y-116801999D03*
D13*
X316485986Y-116501999D03*
X316485986Y-111651999D03*
D12*
X319515986Y-111351999D03*
%TD*%
D14*
%TO.C,J2*%
X192825987Y-68042000D03*
X185825987Y-68042000D03*
D15*
X182525986Y-70041999D03*
X191025986Y-66041999D03*
X188025986Y-66041999D03*
X184025986Y-66041999D03*
%TD*%
D10*
%TO.C,SW10*%
X230735987Y-38042000D03*
D11*
X235815987Y-38042000D03*
D10*
X240895987Y-38042000D03*
%TD*%
%TO.C,SW9*%
X211635987Y-38042000D03*
D11*
X216715987Y-38042000D03*
D10*
X221795987Y-38042000D03*
%TD*%
%TO.C,SW27*%
X287835987Y-57092000D03*
D11*
X292915987Y-57092000D03*
D10*
X297995987Y-57092000D03*
%TD*%
%TO.C,SW14*%
X306935987Y-38042000D03*
D11*
X312015987Y-38042000D03*
D10*
X317095987Y-38042000D03*
%TD*%
%TO.C,SW50*%
X192635987Y-95192000D03*
D11*
X197715987Y-95192000D03*
D10*
X202795987Y-95192000D03*
%TD*%
%TO.C,SW38*%
X230735987Y-76142000D03*
D11*
X235815987Y-76142000D03*
D10*
X240895987Y-76142000D03*
%TD*%
%TO.C,SW11*%
X249835987Y-38042000D03*
D11*
X254915987Y-38042000D03*
D10*
X259995987Y-38042000D03*
%TD*%
%TO.C,SW52*%
X230735987Y-95192000D03*
D11*
X235815987Y-95192000D03*
D10*
X240895987Y-95192000D03*
%TD*%
%TO.C,SW39*%
X249835987Y-76142000D03*
D11*
X254915987Y-76142000D03*
D10*
X259995987Y-76142000D03*
%TD*%
%TO.C,SW55*%
X287835987Y-95192000D03*
D11*
X292915987Y-95192000D03*
D10*
X297995987Y-95192000D03*
%TD*%
%TO.C,SW24*%
X230735987Y-57092000D03*
D11*
X235815987Y-57092000D03*
D10*
X240895987Y-57092000D03*
%TD*%
%TO.C,SW25*%
X249835987Y-57092000D03*
D11*
X254915987Y-57092000D03*
D10*
X259995987Y-57092000D03*
%TD*%
%TO.C,SW40*%
X268835987Y-76142000D03*
D11*
X273915987Y-76142000D03*
D10*
X278995987Y-76142000D03*
%TD*%
%TO.C,SW53*%
X249835987Y-95192000D03*
D11*
X254915987Y-95192000D03*
D10*
X259995987Y-95192000D03*
%TD*%
%TO.C,SW28*%
X306935987Y-57092000D03*
D11*
X312015987Y-57092000D03*
D10*
X317095987Y-57092000D03*
%TD*%
%TO.C,SW51*%
X211635987Y-95192000D03*
D11*
X216715987Y-95192000D03*
D10*
X221795987Y-95192000D03*
%TD*%
%TO.C,SW37*%
X211635987Y-76142000D03*
D11*
X216715987Y-76142000D03*
D10*
X221795987Y-76142000D03*
%TD*%
%TO.C,SW56*%
X306935987Y-95192000D03*
D11*
X312015987Y-95192000D03*
D10*
X317095987Y-95192000D03*
%TD*%
%TO.C,SW13*%
X287835987Y-38042000D03*
D11*
X292915987Y-38042000D03*
D10*
X297995987Y-38042000D03*
%TD*%
%TO.C,SW62*%
X211635987Y-114242000D03*
D11*
X216715987Y-114242000D03*
D10*
X221795987Y-114242000D03*
%TD*%
%TO.C,SW23*%
X211635987Y-57092000D03*
D11*
X216715987Y-57092000D03*
D10*
X221795987Y-57092000D03*
%TD*%
%TO.C,SW12*%
X268835987Y-38042000D03*
D11*
X273915987Y-38042000D03*
D10*
X278995987Y-38042000D03*
%TD*%
%TO.C,SW8*%
X192635987Y-38042000D03*
D11*
X197715987Y-38042000D03*
D10*
X202795987Y-38042000D03*
%TD*%
%TO.C,SW54*%
X268835987Y-95192000D03*
D11*
X273915987Y-95192000D03*
D10*
X278995987Y-95192000D03*
%TD*%
%TO.C,SW61*%
X192635987Y-114242000D03*
D11*
X197715987Y-114242000D03*
D10*
X202795987Y-114242000D03*
%TD*%
%TO.C,SW26*%
X268835987Y-57092000D03*
D11*
X273915987Y-57092000D03*
D10*
X278995987Y-57092000D03*
%TD*%
%TO.C,SW22*%
X192635987Y-57092000D03*
D11*
X197715987Y-57092000D03*
D10*
X202795987Y-57092000D03*
%TD*%
M02*
