M48
; DRILL file {KiCad (7.0.0-0)} date Sunday, March 05, 2023 23:11:51
; FORMAT={-:-/ absolute / inch / decimal}
; #@! TF.CreationDate,2023-03-05T23:11:51+09:00
; #@! TF.GenerationSoftware,Kicad,Pcbnew,(7.0.0-0)
; #@! TF.FileFunction,NonPlated,1,2,NPTH
FMAT,2
INCH
; #@! TA.AperFunction,NonPlated,NPTH,ComponentDrill
T1C0.0472
; #@! TA.AperFunction,NonPlated,NPTH,ComponentDrill
T2C0.0591
; #@! TA.AperFunction,NonPlated,NPTH,ComponentDrill
T3C0.0709
; #@! TA.AperFunction,NonPlated,NPTH,ComponentDrill
T4C0.0748
; #@! TA.AperFunction,NonPlated,NPTH,ComponentDrill
T5C0.1575
%
G90
G05
T1
X7.8089Y-2.7787
X8.0844Y-2.7787
T2
X12.953Y-4.4957
X12.953Y-4.6866
T3
X13.0722Y-4.4839
X13.0722Y-4.6984
T4
X8.077Y-1.5976
X8.077Y-2.3476
X8.077Y-3.0976
X8.077Y-3.8476
X8.077Y-4.5976
X8.477Y-1.5976
X8.477Y-2.3476
X8.477Y-3.0976
X8.477Y-3.8476
X8.477Y-4.5976
X8.825Y-1.5976
X8.825Y-2.3476
X8.825Y-3.0976
X8.825Y-3.8476
X8.825Y-4.5976
X9.225Y-1.5976
X9.225Y-2.3476
X9.225Y-3.0976
X9.225Y-3.8476
X9.225Y-4.5976
X9.577Y-1.5976
X9.577Y-2.3476
X9.577Y-3.0976
X9.577Y-3.8476
X9.577Y-4.5976
X9.977Y-1.5976
X9.977Y-2.3476
X9.977Y-3.0976
X9.977Y-3.8476
X9.977Y-4.5976
X10.3289Y-1.5976
X10.3289Y-2.3476
X10.3289Y-3.0976
X10.3289Y-3.8476
X10.3289Y-4.5976
X10.7289Y-1.5976
X10.7289Y-2.3476
X10.7289Y-3.0976
X10.7289Y-3.8476
X10.7289Y-4.5976
X11.077Y-1.5976
X11.077Y-2.3476
X11.077Y-3.0976
X11.077Y-3.8476
X11.477Y-1.5976
X11.477Y-2.3476
X11.477Y-3.0976
X11.477Y-3.8476
X11.825Y-1.5976
X11.825Y-2.3476
X11.825Y-3.0976
X11.825Y-3.8476
X12.225Y-1.5976
X12.225Y-2.3476
X12.225Y-3.0976
X12.225Y-3.8476
X12.577Y-1.5976
X12.577Y-2.3476
X12.577Y-3.0976
X12.577Y-3.8476
X12.977Y-1.5976
X12.977Y-2.3476
X12.977Y-3.0976
X12.977Y-3.8476
T5
X8.277Y-1.5976
X8.277Y-2.3476
X8.277Y-3.0976
X8.277Y-3.8476
X8.277Y-4.5976
X9.025Y-1.5976
X9.025Y-2.3476
X9.025Y-3.0976
X9.025Y-3.8476
X9.025Y-4.5976
X9.777Y-1.5976
X9.777Y-2.3476
X9.777Y-3.0976
X9.777Y-3.8476
X9.777Y-4.5976
X10.5289Y-1.5976
X10.5289Y-2.3476
X10.5289Y-3.0976
X10.5289Y-3.8476
X10.5289Y-4.5976
X11.277Y-1.5976
X11.277Y-2.3476
X11.277Y-3.0976
X11.277Y-3.8476
X12.025Y-1.5976
X12.025Y-2.3476
X12.025Y-3.0976
X12.025Y-3.8476
X12.777Y-1.5976
X12.777Y-2.3476
X12.777Y-3.0976
X12.777Y-3.8476
T0
M30
