M48
; DRILL file {KiCad (7.0.0-0)} date Monday, March 06, 2023 00:10:10
; FORMAT={-:-/ absolute / inch / decimal}
; #@! TF.CreationDate,2023-03-06T00:10:10+09:00
; #@! TF.GenerationSoftware,Kicad,Pcbnew,(7.0.0-0)
; #@! TF.FileFunction,Plated,1,2,PTH
FMAT,2
INCH
; #@! TA.AperFunction,Plated,PTH,ViaDrill
T1C0.0157
; #@! TA.AperFunction,Plated,PTH,ComponentDrill
T2C0.0236
; #@! TA.AperFunction,Plated,PTH,ComponentDrill
T3C0.0315
%
G90
G05
T1
X7.8Y-2.6
X7.9288Y-3.4
X8.0Y-3.9378
X8.3758Y-3.3122
X8.3758Y-4.0476
X8.3868Y-4.2378
X9.1258Y-3.3122
X9.1258Y-4.0476
X9.8772Y-3.3122
X9.8772Y-4.0476
X9.8772Y-4.7984
X10.0177Y-4.2663
X10.2Y-4.7
X10.4409Y-4.3285
X10.49Y-4.0476
X10.6Y-4.2378
X10.6297Y-3.3122
X10.6297Y-4.0476
X10.6297Y-4.7984
X10.8Y-2.7
X10.8Y-3.3378
X10.8Y-4.7378
X10.9378Y-4.7378
X11.0Y-1.9378
X11.0575Y-4.2
X11.0712Y-3.6
X11.1Y-4.7093
X11.1298Y-4.3702
X11.2Y-4.85
X11.2774Y-4.2411
X11.3787Y-3.3122
X11.3787Y-4.0476
X11.4Y-4.1
X11.4516Y-4.3807
X11.5Y-3.7378
X11.5Y-4.1
X11.5Y-4.6378
X11.5774Y-4.2411
X11.5778Y-4.4778
X11.6Y-4.0
X11.6774Y-4.2411
X11.7774Y-4.2411
X11.9108Y-4.4167
X12.0Y-4.3275
X12.1Y-3.4
X12.125Y-3.3122
X12.125Y-4.0476
X12.4Y-4.7715
X12.5Y-3.5
X12.8764Y-3.3122
X12.9Y-4.4
X12.9Y-4.8
X12.9335Y-2.7335
X12.9774Y-4.0
T2
G00X7.6967Y-2.8575
M15
G01X7.6612Y-2.8575
M16
G05
G00X7.7557Y-2.7
M15
G01X7.7203Y-2.7
M16
G05
G00X7.9132Y-2.7
M15
G01X7.8778Y-2.7
M16
G05
G00X8.0313Y-2.7
M15
G01X7.9959Y-2.7
M16
G05
T3
G00X8.1191Y-1.4976
M15
G01X8.1348Y-1.4976
M16
G05
G00X8.1191Y-2.2476
M15
G01X8.1348Y-2.2476
M16
G05
G00X8.1191Y-2.9976
M15
G01X8.1348Y-2.9976
M16
G05
G00X8.1191Y-3.7476
M15
G01X8.1348Y-3.7476
M16
G05
G00X8.1191Y-4.4976
M15
G01X8.1348Y-4.4976
M16
G05
G00X8.3691Y-1.3976
M15
G01X8.3848Y-1.3976
M16
G05
G00X8.3691Y-2.1476
M15
G01X8.3848Y-2.1476
M16
G05
G00X8.3691Y-2.8976
M15
G01X8.3848Y-2.8976
M16
G05
G00X8.3691Y-3.6476
M15
G01X8.3848Y-3.6476
M16
G05
G00X8.3691Y-4.3976
M15
G01X8.3848Y-4.3976
M16
G05
G00X8.8671Y-1.4976
M15
G01X8.8829Y-1.4976
M16
G05
G00X8.8671Y-2.2476
M15
G01X8.8829Y-2.2476
M16
G05
G00X8.8671Y-2.9976
M15
G01X8.8829Y-2.9976
M16
G05
G00X8.8671Y-3.7476
M15
G01X8.8829Y-3.7476
M16
G05
G00X8.8671Y-4.4976
M15
G01X8.8829Y-4.4976
M16
G05
G00X9.1171Y-1.3976
M15
G01X9.1329Y-1.3976
M16
G05
G00X9.1171Y-2.1476
M15
G01X9.1329Y-2.1476
M16
G05
G00X9.1171Y-2.8976
M15
G01X9.1329Y-2.8976
M16
G05
G00X9.1171Y-3.6476
M15
G01X9.1329Y-3.6476
M16
G05
G00X9.1171Y-4.3976
M15
G01X9.1329Y-4.3976
M16
G05
G00X9.6191Y-1.4976
M15
G01X9.6348Y-1.4976
M16
G05
G00X9.6191Y-2.2476
M15
G01X9.6348Y-2.2476
M16
G05
G00X9.6191Y-2.9976
M15
G01X9.6348Y-2.9976
M16
G05
G00X9.6191Y-3.7476
M15
G01X9.6348Y-3.7476
M16
G05
G00X9.6191Y-4.4976
M15
G01X9.6348Y-4.4976
M16
G05
G00X9.8691Y-1.3976
M15
G01X9.8848Y-1.3976
M16
G05
G00X9.8691Y-2.1476
M15
G01X9.8848Y-2.1476
M16
G05
G00X9.8691Y-2.8976
M15
G01X9.8848Y-2.8976
M16
G05
G00X9.8691Y-3.6476
M15
G01X9.8848Y-3.6476
M16
G05
G00X9.8691Y-4.3976
M15
G01X9.8848Y-4.3976
M16
G05
G00X10.3711Y-1.4976
M15
G01X10.3868Y-1.4976
M16
G05
G00X10.3711Y-2.2476
M15
G01X10.3868Y-2.2476
M16
G05
G00X10.3711Y-2.9976
M15
G01X10.3868Y-2.9976
M16
G05
G00X10.3711Y-3.7476
M15
G01X10.3868Y-3.7476
M16
G05
G00X10.3711Y-4.4976
M15
G01X10.3868Y-4.4976
M16
G05
G00X10.6211Y-1.3976
M15
G01X10.6368Y-1.3976
M16
G05
G00X10.6211Y-2.1476
M15
G01X10.6368Y-2.1476
M16
G05
G00X10.6211Y-2.8976
M15
G01X10.6368Y-2.8976
M16
G05
G00X10.6211Y-3.6476
M15
G01X10.6368Y-3.6476
M16
G05
G00X10.6211Y-4.3976
M15
G01X10.6368Y-4.3976
M16
G05
G00X11.1191Y-1.4976
M15
G01X11.1348Y-1.4976
M16
G05
G00X11.1191Y-2.2476
M15
G01X11.1348Y-2.2476
M16
G05
G00X11.1191Y-2.9976
M15
G01X11.1348Y-2.9976
M16
G05
G00X11.1191Y-3.7476
M15
G01X11.1348Y-3.7476
M16
G05
G00X11.3691Y-1.3976
M15
G01X11.3848Y-1.3976
M16
G05
G00X11.3691Y-2.1476
M15
G01X11.3848Y-2.1476
M16
G05
G00X11.3691Y-2.8976
M15
G01X11.3848Y-2.8976
M16
G05
G00X11.3691Y-3.6476
M15
G01X11.3848Y-3.6476
M16
G05
G00X11.8671Y-1.4976
M15
G01X11.8829Y-1.4976
M16
G05
G00X11.8671Y-2.2476
M15
G01X11.8829Y-2.2476
M16
G05
G00X11.8671Y-2.9976
M15
G01X11.8829Y-2.9976
M16
G05
G00X11.8671Y-3.7476
M15
G01X11.8829Y-3.7476
M16
G05
G00X12.1171Y-1.3976
M15
G01X12.1329Y-1.3976
M16
G05
G00X12.1171Y-2.1476
M15
G01X12.1329Y-2.1476
M16
G05
G00X12.1171Y-2.8976
M15
G01X12.1329Y-2.8976
M16
G05
G00X12.1171Y-3.6476
M15
G01X12.1329Y-3.6476
M16
G05
G00X12.6191Y-1.4976
M15
G01X12.6348Y-1.4976
M16
G05
G00X12.6191Y-2.2476
M15
G01X12.6348Y-2.2476
M16
G05
G00X12.6191Y-2.9976
M15
G01X12.6348Y-2.9976
M16
G05
G00X12.6191Y-3.7476
M15
G01X12.6348Y-3.7476
M16
G05
G00X12.8691Y-1.3976
M15
G01X12.8848Y-1.3976
M16
G05
G00X12.8691Y-2.1476
M15
G01X12.8848Y-2.1476
M16
G05
G00X12.8691Y-2.8976
M15
G01X12.8848Y-2.8976
M16
G05
G00X12.8691Y-3.6476
M15
G01X12.8848Y-3.6476
M16
G05
T0
M30
