%TF.GenerationSoftware,KiCad,Pcbnew,(7.0.0-0)*%
%TF.CreationDate,2023-03-05T23:11:48+09:00*%
%TF.ProjectId,11111_pcb,31313131-315f-4706-9362-2e6b69636164,rev?*%
%TF.SameCoordinates,Original*%
%TF.FileFunction,Legend,Top*%
%TF.FilePolarity,Positive*%
%FSLAX46Y46*%
G04 Gerber Fmt 4.6, Leading zero omitted, Abs format (unit mm)*
G04 Created by KiCad (PCBNEW (7.0.0-0)) date 2023-03-05 23:11:48*
%MOMM*%
%LPD*%
G01*
G04 APERTURE LIST*
%ADD10O,2.500000X2.000000*%
%ADD11C,1.210000*%
%ADD12O,2.200000X1.300000*%
G04 APERTURE END LIST*
D10*
%TO.C,SW13*%
X301624999Y-38039999D03*
X307974999Y-35499999D03*
%TD*%
%TO.C,SW8*%
X206424999Y-38039999D03*
X212774999Y-35499999D03*
%TD*%
%TO.C,SW54*%
X282624999Y-95189999D03*
X288974999Y-92649999D03*
%TD*%
%TO.C,SW61*%
X206424999Y-114239999D03*
X212774999Y-111699999D03*
%TD*%
%TO.C,SW26*%
X282624999Y-57089999D03*
X288974999Y-54549999D03*
%TD*%
%TO.C,SW22*%
X206424999Y-57089999D03*
X212774999Y-54549999D03*
%TD*%
%TO.C,SW62*%
X225424999Y-114239999D03*
X231774999Y-111699999D03*
%TD*%
%TO.C,SW23*%
X225424999Y-57089999D03*
X231774999Y-54549999D03*
%TD*%
%TO.C,SW12*%
X282624999Y-38039999D03*
X288974999Y-35499999D03*
%TD*%
%TO.C,SW40*%
X282624999Y-76139999D03*
X288974999Y-73599999D03*
%TD*%
%TO.C,SW53*%
X263624999Y-95189999D03*
X269974999Y-92649999D03*
%TD*%
%TO.C,SW28*%
X320724999Y-57089999D03*
X327074999Y-54549999D03*
%TD*%
%TO.C,SW51*%
X225424999Y-95189999D03*
X231774999Y-92649999D03*
%TD*%
%TO.C,SW37*%
X225424999Y-76139999D03*
X231774999Y-73599999D03*
%TD*%
%TO.C,SW56*%
X320724999Y-95189999D03*
X327074999Y-92649999D03*
%TD*%
%TO.C,SW9*%
X225424999Y-38039999D03*
X231774999Y-35499999D03*
%TD*%
%TO.C,SW27*%
X301624999Y-57089999D03*
X307974999Y-54549999D03*
%TD*%
%TO.C,SW14*%
X320724999Y-38039999D03*
X327074999Y-35499999D03*
%TD*%
%TO.C,SW50*%
X206424999Y-95189999D03*
X212774999Y-92649999D03*
%TD*%
%TO.C,SW38*%
X244524999Y-76139999D03*
X250874999Y-73599999D03*
%TD*%
%TO.C,SW11*%
X263624999Y-38039999D03*
X269974999Y-35499999D03*
%TD*%
%TO.C,SW52*%
X244524999Y-95189999D03*
X250874999Y-92649999D03*
%TD*%
%TO.C,SW39*%
X263624999Y-76139999D03*
X269974999Y-73599999D03*
%TD*%
%TO.C,SW55*%
X301624999Y-95189999D03*
X307974999Y-92649999D03*
%TD*%
%TO.C,SW24*%
X244524999Y-57089999D03*
X250874999Y-54549999D03*
%TD*%
%TO.C,SW25*%
X263624999Y-57089999D03*
X269974999Y-54549999D03*
%TD*%
D11*
%TO.C,J2*%
X205345000Y-70580000D03*
X198345000Y-70580000D03*
D12*
X195044999Y-72579999D03*
X203544999Y-68579999D03*
X200544999Y-68579999D03*
X196544999Y-68579999D03*
%TD*%
D10*
%TO.C,SW10*%
X244524999Y-38039999D03*
X250874999Y-35499999D03*
%TD*%
%TO.C,SW64*%
X263624999Y-114239999D03*
X269974999Y-111699999D03*
%TD*%
%TO.C,SW41*%
X301624999Y-76139999D03*
X307974999Y-73599999D03*
%TD*%
%TO.C,SW42*%
X320724999Y-76139999D03*
X327074999Y-73599999D03*
%TD*%
%TO.C,SW36*%
X206424999Y-76139999D03*
X212774999Y-73599999D03*
%TD*%
%TO.C,SW63*%
X244524999Y-114239999D03*
X250874999Y-111699999D03*
%TD*%
M02*
