%TF.GenerationSoftware,KiCad,Pcbnew,(7.0.0-0)*%
%TF.CreationDate,2023-03-06T00:10:08+09:00*%
%TF.ProjectId,11111_pcb,31313131-315f-4706-9362-2e6b69636164,rev?*%
%TF.SameCoordinates,Original*%
%TF.FileFunction,Legend,Bot*%
%TF.FilePolarity,Positive*%
%FSLAX46Y46*%
G04 Gerber Fmt 4.6, Leading zero omitted, Abs format (unit mm)*
G04 Created by KiCad (PCBNEW (7.0.0-0)) date 2023-03-06 00:10:08*
%MOMM*%
%LPD*%
G01*
G04 APERTURE LIST*
%ADD10C,0.300000*%
%ADD11C,0.125000*%
%ADD12C,0.150000*%
%ADD13C,0.120000*%
G04 APERTURE END LIST*
D10*
X334137142Y-27123571D02*
X334994285Y-27123571D01*
X334565714Y-27123571D02*
X334565714Y-25623571D01*
X334565714Y-25623571D02*
X334708571Y-25837857D01*
X334708571Y-25837857D02*
X334851428Y-25980714D01*
X334851428Y-25980714D02*
X334994285Y-26052142D01*
X332708571Y-27123571D02*
X333565714Y-27123571D01*
X333137143Y-27123571D02*
X333137143Y-25623571D01*
X333137143Y-25623571D02*
X333280000Y-25837857D01*
X333280000Y-25837857D02*
X333422857Y-25980714D01*
X333422857Y-25980714D02*
X333565714Y-26052142D01*
X331280000Y-27123571D02*
X332137143Y-27123571D01*
X331708572Y-27123571D02*
X331708572Y-25623571D01*
X331708572Y-25623571D02*
X331851429Y-25837857D01*
X331851429Y-25837857D02*
X331994286Y-25980714D01*
X331994286Y-25980714D02*
X332137143Y-26052142D01*
X329851429Y-27123571D02*
X330708572Y-27123571D01*
X330280001Y-27123571D02*
X330280001Y-25623571D01*
X330280001Y-25623571D02*
X330422858Y-25837857D01*
X330422858Y-25837857D02*
X330565715Y-25980714D01*
X330565715Y-25980714D02*
X330708572Y-26052142D01*
X328422858Y-27123571D02*
X329280001Y-27123571D01*
X328851430Y-27123571D02*
X328851430Y-25623571D01*
X328851430Y-25623571D02*
X328994287Y-25837857D01*
X328994287Y-25837857D02*
X329137144Y-25980714D01*
X329137144Y-25980714D02*
X329280001Y-26052142D01*
X327022859Y-26123571D02*
X326665716Y-27123571D01*
X326665716Y-27123571D02*
X326308573Y-26123571D01*
X325165716Y-27052142D02*
X325308573Y-27123571D01*
X325308573Y-27123571D02*
X325594288Y-27123571D01*
X325594288Y-27123571D02*
X325737145Y-27052142D01*
X325737145Y-27052142D02*
X325808573Y-26909285D01*
X325808573Y-26909285D02*
X325808573Y-26337857D01*
X325808573Y-26337857D02*
X325737145Y-26195000D01*
X325737145Y-26195000D02*
X325594288Y-26123571D01*
X325594288Y-26123571D02*
X325308573Y-26123571D01*
X325308573Y-26123571D02*
X325165716Y-26195000D01*
X325165716Y-26195000D02*
X325094288Y-26337857D01*
X325094288Y-26337857D02*
X325094288Y-26480714D01*
X325094288Y-26480714D02*
X325808573Y-26623571D01*
X324451431Y-27123571D02*
X324451431Y-26123571D01*
X324451431Y-26409285D02*
X324380002Y-26266428D01*
X324380002Y-26266428D02*
X324308574Y-26195000D01*
X324308574Y-26195000D02*
X324165716Y-26123571D01*
X324165716Y-26123571D02*
X324022859Y-26123571D01*
X323522860Y-26980714D02*
X323451431Y-27052142D01*
X323451431Y-27052142D02*
X323522860Y-27123571D01*
X323522860Y-27123571D02*
X323594288Y-27052142D01*
X323594288Y-27052142D02*
X323522860Y-26980714D01*
X323522860Y-26980714D02*
X323522860Y-27123571D01*
X322022859Y-27123571D02*
X322880002Y-27123571D01*
X322451431Y-27123571D02*
X322451431Y-25623571D01*
X322451431Y-25623571D02*
X322594288Y-25837857D01*
X322594288Y-25837857D02*
X322737145Y-25980714D01*
X322737145Y-25980714D02*
X322880002Y-26052142D01*
X334922857Y-29553571D02*
X334922857Y-28553571D01*
X334922857Y-28839285D02*
X334851428Y-28696428D01*
X334851428Y-28696428D02*
X334780000Y-28625000D01*
X334780000Y-28625000D02*
X334637142Y-28553571D01*
X334637142Y-28553571D02*
X334494285Y-28553571D01*
X333994286Y-29553571D02*
X333994286Y-28553571D01*
X333994286Y-28053571D02*
X334065714Y-28125000D01*
X334065714Y-28125000D02*
X333994286Y-28196428D01*
X333994286Y-28196428D02*
X333922857Y-28125000D01*
X333922857Y-28125000D02*
X333994286Y-28053571D01*
X333994286Y-28053571D02*
X333994286Y-28196428D01*
X332637143Y-28553571D02*
X332637143Y-29767857D01*
X332637143Y-29767857D02*
X332708571Y-29910714D01*
X332708571Y-29910714D02*
X332780000Y-29982142D01*
X332780000Y-29982142D02*
X332922857Y-30053571D01*
X332922857Y-30053571D02*
X333137143Y-30053571D01*
X333137143Y-30053571D02*
X333280000Y-29982142D01*
X332637143Y-29482142D02*
X332780000Y-29553571D01*
X332780000Y-29553571D02*
X333065714Y-29553571D01*
X333065714Y-29553571D02*
X333208571Y-29482142D01*
X333208571Y-29482142D02*
X333280000Y-29410714D01*
X333280000Y-29410714D02*
X333351428Y-29267857D01*
X333351428Y-29267857D02*
X333351428Y-28839285D01*
X333351428Y-28839285D02*
X333280000Y-28696428D01*
X333280000Y-28696428D02*
X333208571Y-28625000D01*
X333208571Y-28625000D02*
X333065714Y-28553571D01*
X333065714Y-28553571D02*
X332780000Y-28553571D01*
X332780000Y-28553571D02*
X332637143Y-28625000D01*
X331922857Y-29553571D02*
X331922857Y-28053571D01*
X331280000Y-29553571D02*
X331280000Y-28767857D01*
X331280000Y-28767857D02*
X331351428Y-28625000D01*
X331351428Y-28625000D02*
X331494285Y-28553571D01*
X331494285Y-28553571D02*
X331708571Y-28553571D01*
X331708571Y-28553571D02*
X331851428Y-28625000D01*
X331851428Y-28625000D02*
X331922857Y-28696428D01*
X330779999Y-28553571D02*
X330208571Y-28553571D01*
X330565714Y-28053571D02*
X330565714Y-29339285D01*
X330565714Y-29339285D02*
X330494285Y-29482142D01*
X330494285Y-29482142D02*
X330351428Y-29553571D01*
X330351428Y-29553571D02*
X330208571Y-29553571D01*
X328808571Y-29553571D02*
X328808571Y-28053571D01*
X328165714Y-29553571D02*
X328165714Y-28767857D01*
X328165714Y-28767857D02*
X328237142Y-28625000D01*
X328237142Y-28625000D02*
X328379999Y-28553571D01*
X328379999Y-28553571D02*
X328594285Y-28553571D01*
X328594285Y-28553571D02*
X328737142Y-28625000D01*
X328737142Y-28625000D02*
X328808571Y-28696428D01*
X326808571Y-29553571D02*
X326808571Y-28767857D01*
X326808571Y-28767857D02*
X326879999Y-28625000D01*
X326879999Y-28625000D02*
X327022856Y-28553571D01*
X327022856Y-28553571D02*
X327308571Y-28553571D01*
X327308571Y-28553571D02*
X327451428Y-28625000D01*
X326808571Y-29482142D02*
X326951428Y-29553571D01*
X326951428Y-29553571D02*
X327308571Y-29553571D01*
X327308571Y-29553571D02*
X327451428Y-29482142D01*
X327451428Y-29482142D02*
X327522856Y-29339285D01*
X327522856Y-29339285D02*
X327522856Y-29196428D01*
X327522856Y-29196428D02*
X327451428Y-29053571D01*
X327451428Y-29053571D02*
X327308571Y-28982142D01*
X327308571Y-28982142D02*
X326951428Y-28982142D01*
X326951428Y-28982142D02*
X326808571Y-28910714D01*
X326094285Y-28553571D02*
X326094285Y-29553571D01*
X326094285Y-28696428D02*
X326022856Y-28625000D01*
X326022856Y-28625000D02*
X325879999Y-28553571D01*
X325879999Y-28553571D02*
X325665713Y-28553571D01*
X325665713Y-28553571D02*
X325522856Y-28625000D01*
X325522856Y-28625000D02*
X325451428Y-28767857D01*
X325451428Y-28767857D02*
X325451428Y-29553571D01*
X324094285Y-29553571D02*
X324094285Y-28053571D01*
X324094285Y-29482142D02*
X324237142Y-29553571D01*
X324237142Y-29553571D02*
X324522856Y-29553571D01*
X324522856Y-29553571D02*
X324665713Y-29482142D01*
X324665713Y-29482142D02*
X324737142Y-29410714D01*
X324737142Y-29410714D02*
X324808570Y-29267857D01*
X324808570Y-29267857D02*
X324808570Y-28839285D01*
X324808570Y-28839285D02*
X324737142Y-28696428D01*
X324737142Y-28696428D02*
X324665713Y-28625000D01*
X324665713Y-28625000D02*
X324522856Y-28553571D01*
X324522856Y-28553571D02*
X324237142Y-28553571D01*
X324237142Y-28553571D02*
X324094285Y-28625000D01*
D11*
%TO.C,D27*%
X307171428Y-66693904D02*
X307171428Y-65893904D01*
X307171428Y-65893904D02*
X306980952Y-65893904D01*
X306980952Y-65893904D02*
X306866666Y-65932000D01*
X306866666Y-65932000D02*
X306790476Y-66008190D01*
X306790476Y-66008190D02*
X306752381Y-66084380D01*
X306752381Y-66084380D02*
X306714285Y-66236761D01*
X306714285Y-66236761D02*
X306714285Y-66351047D01*
X306714285Y-66351047D02*
X306752381Y-66503428D01*
X306752381Y-66503428D02*
X306790476Y-66579619D01*
X306790476Y-66579619D02*
X306866666Y-66655809D01*
X306866666Y-66655809D02*
X306980952Y-66693904D01*
X306980952Y-66693904D02*
X307171428Y-66693904D01*
X306409524Y-65970095D02*
X306371428Y-65932000D01*
X306371428Y-65932000D02*
X306295238Y-65893904D01*
X306295238Y-65893904D02*
X306104762Y-65893904D01*
X306104762Y-65893904D02*
X306028571Y-65932000D01*
X306028571Y-65932000D02*
X305990476Y-65970095D01*
X305990476Y-65970095D02*
X305952381Y-66046285D01*
X305952381Y-66046285D02*
X305952381Y-66122476D01*
X305952381Y-66122476D02*
X305990476Y-66236761D01*
X305990476Y-66236761D02*
X306447619Y-66693904D01*
X306447619Y-66693904D02*
X305952381Y-66693904D01*
X305685714Y-65893904D02*
X305152380Y-65893904D01*
X305152380Y-65893904D02*
X305495238Y-66693904D01*
D12*
%TO.C,SW13*%
X305974523Y-35819761D02*
X305831666Y-35867380D01*
X305831666Y-35867380D02*
X305593571Y-35867380D01*
X305593571Y-35867380D02*
X305498333Y-35819761D01*
X305498333Y-35819761D02*
X305450714Y-35772142D01*
X305450714Y-35772142D02*
X305403095Y-35676904D01*
X305403095Y-35676904D02*
X305403095Y-35581666D01*
X305403095Y-35581666D02*
X305450714Y-35486428D01*
X305450714Y-35486428D02*
X305498333Y-35438809D01*
X305498333Y-35438809D02*
X305593571Y-35391190D01*
X305593571Y-35391190D02*
X305784047Y-35343571D01*
X305784047Y-35343571D02*
X305879285Y-35295952D01*
X305879285Y-35295952D02*
X305926904Y-35248333D01*
X305926904Y-35248333D02*
X305974523Y-35153095D01*
X305974523Y-35153095D02*
X305974523Y-35057857D01*
X305974523Y-35057857D02*
X305926904Y-34962619D01*
X305926904Y-34962619D02*
X305879285Y-34915000D01*
X305879285Y-34915000D02*
X305784047Y-34867380D01*
X305784047Y-34867380D02*
X305545952Y-34867380D01*
X305545952Y-34867380D02*
X305403095Y-34915000D01*
X305069761Y-34867380D02*
X304831666Y-35867380D01*
X304831666Y-35867380D02*
X304641190Y-35153095D01*
X304641190Y-35153095D02*
X304450714Y-35867380D01*
X304450714Y-35867380D02*
X304212619Y-34867380D01*
X303307857Y-35867380D02*
X303879285Y-35867380D01*
X303593571Y-35867380D02*
X303593571Y-34867380D01*
X303593571Y-34867380D02*
X303688809Y-35010238D01*
X303688809Y-35010238D02*
X303784047Y-35105476D01*
X303784047Y-35105476D02*
X303879285Y-35153095D01*
X302974523Y-34867380D02*
X302355476Y-34867380D01*
X302355476Y-34867380D02*
X302688809Y-35248333D01*
X302688809Y-35248333D02*
X302545952Y-35248333D01*
X302545952Y-35248333D02*
X302450714Y-35295952D01*
X302450714Y-35295952D02*
X302403095Y-35343571D01*
X302403095Y-35343571D02*
X302355476Y-35438809D01*
X302355476Y-35438809D02*
X302355476Y-35676904D01*
X302355476Y-35676904D02*
X302403095Y-35772142D01*
X302403095Y-35772142D02*
X302450714Y-35819761D01*
X302450714Y-35819761D02*
X302545952Y-35867380D01*
X302545952Y-35867380D02*
X302831666Y-35867380D01*
X302831666Y-35867380D02*
X302926904Y-35819761D01*
X302926904Y-35819761D02*
X302974523Y-35772142D01*
D11*
%TO.C,D39*%
X269191428Y-85823904D02*
X269191428Y-85023904D01*
X269191428Y-85023904D02*
X269000952Y-85023904D01*
X269000952Y-85023904D02*
X268886666Y-85062000D01*
X268886666Y-85062000D02*
X268810476Y-85138190D01*
X268810476Y-85138190D02*
X268772381Y-85214380D01*
X268772381Y-85214380D02*
X268734285Y-85366761D01*
X268734285Y-85366761D02*
X268734285Y-85481047D01*
X268734285Y-85481047D02*
X268772381Y-85633428D01*
X268772381Y-85633428D02*
X268810476Y-85709619D01*
X268810476Y-85709619D02*
X268886666Y-85785809D01*
X268886666Y-85785809D02*
X269000952Y-85823904D01*
X269000952Y-85823904D02*
X269191428Y-85823904D01*
X268467619Y-85023904D02*
X267972381Y-85023904D01*
X267972381Y-85023904D02*
X268239047Y-85328666D01*
X268239047Y-85328666D02*
X268124762Y-85328666D01*
X268124762Y-85328666D02*
X268048571Y-85366761D01*
X268048571Y-85366761D02*
X268010476Y-85404857D01*
X268010476Y-85404857D02*
X267972381Y-85481047D01*
X267972381Y-85481047D02*
X267972381Y-85671523D01*
X267972381Y-85671523D02*
X268010476Y-85747714D01*
X268010476Y-85747714D02*
X268048571Y-85785809D01*
X268048571Y-85785809D02*
X268124762Y-85823904D01*
X268124762Y-85823904D02*
X268353333Y-85823904D01*
X268353333Y-85823904D02*
X268429524Y-85785809D01*
X268429524Y-85785809D02*
X268467619Y-85747714D01*
X267591428Y-85823904D02*
X267439047Y-85823904D01*
X267439047Y-85823904D02*
X267362857Y-85785809D01*
X267362857Y-85785809D02*
X267324761Y-85747714D01*
X267324761Y-85747714D02*
X267248571Y-85633428D01*
X267248571Y-85633428D02*
X267210476Y-85481047D01*
X267210476Y-85481047D02*
X267210476Y-85176285D01*
X267210476Y-85176285D02*
X267248571Y-85100095D01*
X267248571Y-85100095D02*
X267286666Y-85062000D01*
X267286666Y-85062000D02*
X267362857Y-85023904D01*
X267362857Y-85023904D02*
X267515238Y-85023904D01*
X267515238Y-85023904D02*
X267591428Y-85062000D01*
X267591428Y-85062000D02*
X267629523Y-85100095D01*
X267629523Y-85100095D02*
X267667619Y-85176285D01*
X267667619Y-85176285D02*
X267667619Y-85366761D01*
X267667619Y-85366761D02*
X267629523Y-85442952D01*
X267629523Y-85442952D02*
X267591428Y-85481047D01*
X267591428Y-85481047D02*
X267515238Y-85519142D01*
X267515238Y-85519142D02*
X267362857Y-85519142D01*
X267362857Y-85519142D02*
X267286666Y-85481047D01*
X267286666Y-85481047D02*
X267248571Y-85442952D01*
X267248571Y-85442952D02*
X267210476Y-85366761D01*
%TO.C,D22*%
X211941428Y-66693904D02*
X211941428Y-65893904D01*
X211941428Y-65893904D02*
X211750952Y-65893904D01*
X211750952Y-65893904D02*
X211636666Y-65932000D01*
X211636666Y-65932000D02*
X211560476Y-66008190D01*
X211560476Y-66008190D02*
X211522381Y-66084380D01*
X211522381Y-66084380D02*
X211484285Y-66236761D01*
X211484285Y-66236761D02*
X211484285Y-66351047D01*
X211484285Y-66351047D02*
X211522381Y-66503428D01*
X211522381Y-66503428D02*
X211560476Y-66579619D01*
X211560476Y-66579619D02*
X211636666Y-66655809D01*
X211636666Y-66655809D02*
X211750952Y-66693904D01*
X211750952Y-66693904D02*
X211941428Y-66693904D01*
X211179524Y-65970095D02*
X211141428Y-65932000D01*
X211141428Y-65932000D02*
X211065238Y-65893904D01*
X211065238Y-65893904D02*
X210874762Y-65893904D01*
X210874762Y-65893904D02*
X210798571Y-65932000D01*
X210798571Y-65932000D02*
X210760476Y-65970095D01*
X210760476Y-65970095D02*
X210722381Y-66046285D01*
X210722381Y-66046285D02*
X210722381Y-66122476D01*
X210722381Y-66122476D02*
X210760476Y-66236761D01*
X210760476Y-66236761D02*
X211217619Y-66693904D01*
X211217619Y-66693904D02*
X210722381Y-66693904D01*
X210417619Y-65970095D02*
X210379523Y-65932000D01*
X210379523Y-65932000D02*
X210303333Y-65893904D01*
X210303333Y-65893904D02*
X210112857Y-65893904D01*
X210112857Y-65893904D02*
X210036666Y-65932000D01*
X210036666Y-65932000D02*
X209998571Y-65970095D01*
X209998571Y-65970095D02*
X209960476Y-66046285D01*
X209960476Y-66046285D02*
X209960476Y-66122476D01*
X209960476Y-66122476D02*
X209998571Y-66236761D01*
X209998571Y-66236761D02*
X210455714Y-66693904D01*
X210455714Y-66693904D02*
X209960476Y-66693904D01*
%TO.C,D52*%
X250076428Y-104503904D02*
X250076428Y-103703904D01*
X250076428Y-103703904D02*
X249885952Y-103703904D01*
X249885952Y-103703904D02*
X249771666Y-103742000D01*
X249771666Y-103742000D02*
X249695476Y-103818190D01*
X249695476Y-103818190D02*
X249657381Y-103894380D01*
X249657381Y-103894380D02*
X249619285Y-104046761D01*
X249619285Y-104046761D02*
X249619285Y-104161047D01*
X249619285Y-104161047D02*
X249657381Y-104313428D01*
X249657381Y-104313428D02*
X249695476Y-104389619D01*
X249695476Y-104389619D02*
X249771666Y-104465809D01*
X249771666Y-104465809D02*
X249885952Y-104503904D01*
X249885952Y-104503904D02*
X250076428Y-104503904D01*
X248895476Y-103703904D02*
X249276428Y-103703904D01*
X249276428Y-103703904D02*
X249314524Y-104084857D01*
X249314524Y-104084857D02*
X249276428Y-104046761D01*
X249276428Y-104046761D02*
X249200238Y-104008666D01*
X249200238Y-104008666D02*
X249009762Y-104008666D01*
X249009762Y-104008666D02*
X248933571Y-104046761D01*
X248933571Y-104046761D02*
X248895476Y-104084857D01*
X248895476Y-104084857D02*
X248857381Y-104161047D01*
X248857381Y-104161047D02*
X248857381Y-104351523D01*
X248857381Y-104351523D02*
X248895476Y-104427714D01*
X248895476Y-104427714D02*
X248933571Y-104465809D01*
X248933571Y-104465809D02*
X249009762Y-104503904D01*
X249009762Y-104503904D02*
X249200238Y-104503904D01*
X249200238Y-104503904D02*
X249276428Y-104465809D01*
X249276428Y-104465809D02*
X249314524Y-104427714D01*
X248552619Y-103780095D02*
X248514523Y-103742000D01*
X248514523Y-103742000D02*
X248438333Y-103703904D01*
X248438333Y-103703904D02*
X248247857Y-103703904D01*
X248247857Y-103703904D02*
X248171666Y-103742000D01*
X248171666Y-103742000D02*
X248133571Y-103780095D01*
X248133571Y-103780095D02*
X248095476Y-103856285D01*
X248095476Y-103856285D02*
X248095476Y-103932476D01*
X248095476Y-103932476D02*
X248133571Y-104046761D01*
X248133571Y-104046761D02*
X248590714Y-104503904D01*
X248590714Y-104503904D02*
X248095476Y-104503904D01*
%TO.C,D28*%
X326256428Y-66693904D02*
X326256428Y-65893904D01*
X326256428Y-65893904D02*
X326065952Y-65893904D01*
X326065952Y-65893904D02*
X325951666Y-65932000D01*
X325951666Y-65932000D02*
X325875476Y-66008190D01*
X325875476Y-66008190D02*
X325837381Y-66084380D01*
X325837381Y-66084380D02*
X325799285Y-66236761D01*
X325799285Y-66236761D02*
X325799285Y-66351047D01*
X325799285Y-66351047D02*
X325837381Y-66503428D01*
X325837381Y-66503428D02*
X325875476Y-66579619D01*
X325875476Y-66579619D02*
X325951666Y-66655809D01*
X325951666Y-66655809D02*
X326065952Y-66693904D01*
X326065952Y-66693904D02*
X326256428Y-66693904D01*
X325494524Y-65970095D02*
X325456428Y-65932000D01*
X325456428Y-65932000D02*
X325380238Y-65893904D01*
X325380238Y-65893904D02*
X325189762Y-65893904D01*
X325189762Y-65893904D02*
X325113571Y-65932000D01*
X325113571Y-65932000D02*
X325075476Y-65970095D01*
X325075476Y-65970095D02*
X325037381Y-66046285D01*
X325037381Y-66046285D02*
X325037381Y-66122476D01*
X325037381Y-66122476D02*
X325075476Y-66236761D01*
X325075476Y-66236761D02*
X325532619Y-66693904D01*
X325532619Y-66693904D02*
X325037381Y-66693904D01*
X324580238Y-66236761D02*
X324656428Y-66198666D01*
X324656428Y-66198666D02*
X324694523Y-66160571D01*
X324694523Y-66160571D02*
X324732619Y-66084380D01*
X324732619Y-66084380D02*
X324732619Y-66046285D01*
X324732619Y-66046285D02*
X324694523Y-65970095D01*
X324694523Y-65970095D02*
X324656428Y-65932000D01*
X324656428Y-65932000D02*
X324580238Y-65893904D01*
X324580238Y-65893904D02*
X324427857Y-65893904D01*
X324427857Y-65893904D02*
X324351666Y-65932000D01*
X324351666Y-65932000D02*
X324313571Y-65970095D01*
X324313571Y-65970095D02*
X324275476Y-66046285D01*
X324275476Y-66046285D02*
X324275476Y-66084380D01*
X324275476Y-66084380D02*
X324313571Y-66160571D01*
X324313571Y-66160571D02*
X324351666Y-66198666D01*
X324351666Y-66198666D02*
X324427857Y-66236761D01*
X324427857Y-66236761D02*
X324580238Y-66236761D01*
X324580238Y-66236761D02*
X324656428Y-66274857D01*
X324656428Y-66274857D02*
X324694523Y-66312952D01*
X324694523Y-66312952D02*
X324732619Y-66389142D01*
X324732619Y-66389142D02*
X324732619Y-66541523D01*
X324732619Y-66541523D02*
X324694523Y-66617714D01*
X324694523Y-66617714D02*
X324656428Y-66655809D01*
X324656428Y-66655809D02*
X324580238Y-66693904D01*
X324580238Y-66693904D02*
X324427857Y-66693904D01*
X324427857Y-66693904D02*
X324351666Y-66655809D01*
X324351666Y-66655809D02*
X324313571Y-66617714D01*
X324313571Y-66617714D02*
X324275476Y-66541523D01*
X324275476Y-66541523D02*
X324275476Y-66389142D01*
X324275476Y-66389142D02*
X324313571Y-66312952D01*
X324313571Y-66312952D02*
X324351666Y-66274857D01*
X324351666Y-66274857D02*
X324427857Y-66236761D01*
D12*
%TO.C,SW8*%
X210298332Y-35819761D02*
X210155475Y-35867380D01*
X210155475Y-35867380D02*
X209917380Y-35867380D01*
X209917380Y-35867380D02*
X209822142Y-35819761D01*
X209822142Y-35819761D02*
X209774523Y-35772142D01*
X209774523Y-35772142D02*
X209726904Y-35676904D01*
X209726904Y-35676904D02*
X209726904Y-35581666D01*
X209726904Y-35581666D02*
X209774523Y-35486428D01*
X209774523Y-35486428D02*
X209822142Y-35438809D01*
X209822142Y-35438809D02*
X209917380Y-35391190D01*
X209917380Y-35391190D02*
X210107856Y-35343571D01*
X210107856Y-35343571D02*
X210203094Y-35295952D01*
X210203094Y-35295952D02*
X210250713Y-35248333D01*
X210250713Y-35248333D02*
X210298332Y-35153095D01*
X210298332Y-35153095D02*
X210298332Y-35057857D01*
X210298332Y-35057857D02*
X210250713Y-34962619D01*
X210250713Y-34962619D02*
X210203094Y-34915000D01*
X210203094Y-34915000D02*
X210107856Y-34867380D01*
X210107856Y-34867380D02*
X209869761Y-34867380D01*
X209869761Y-34867380D02*
X209726904Y-34915000D01*
X209393570Y-34867380D02*
X209155475Y-35867380D01*
X209155475Y-35867380D02*
X208964999Y-35153095D01*
X208964999Y-35153095D02*
X208774523Y-35867380D01*
X208774523Y-35867380D02*
X208536428Y-34867380D01*
X208012618Y-35295952D02*
X208107856Y-35248333D01*
X208107856Y-35248333D02*
X208155475Y-35200714D01*
X208155475Y-35200714D02*
X208203094Y-35105476D01*
X208203094Y-35105476D02*
X208203094Y-35057857D01*
X208203094Y-35057857D02*
X208155475Y-34962619D01*
X208155475Y-34962619D02*
X208107856Y-34915000D01*
X208107856Y-34915000D02*
X208012618Y-34867380D01*
X208012618Y-34867380D02*
X207822142Y-34867380D01*
X207822142Y-34867380D02*
X207726904Y-34915000D01*
X207726904Y-34915000D02*
X207679285Y-34962619D01*
X207679285Y-34962619D02*
X207631666Y-35057857D01*
X207631666Y-35057857D02*
X207631666Y-35105476D01*
X207631666Y-35105476D02*
X207679285Y-35200714D01*
X207679285Y-35200714D02*
X207726904Y-35248333D01*
X207726904Y-35248333D02*
X207822142Y-35295952D01*
X207822142Y-35295952D02*
X208012618Y-35295952D01*
X208012618Y-35295952D02*
X208107856Y-35343571D01*
X208107856Y-35343571D02*
X208155475Y-35391190D01*
X208155475Y-35391190D02*
X208203094Y-35486428D01*
X208203094Y-35486428D02*
X208203094Y-35676904D01*
X208203094Y-35676904D02*
X208155475Y-35772142D01*
X208155475Y-35772142D02*
X208107856Y-35819761D01*
X208107856Y-35819761D02*
X208012618Y-35867380D01*
X208012618Y-35867380D02*
X207822142Y-35867380D01*
X207822142Y-35867380D02*
X207726904Y-35819761D01*
X207726904Y-35819761D02*
X207679285Y-35772142D01*
X207679285Y-35772142D02*
X207631666Y-35676904D01*
X207631666Y-35676904D02*
X207631666Y-35486428D01*
X207631666Y-35486428D02*
X207679285Y-35391190D01*
X207679285Y-35391190D02*
X207726904Y-35343571D01*
X207726904Y-35343571D02*
X207822142Y-35295952D01*
D11*
%TO.C,D42*%
X326256428Y-85923904D02*
X326256428Y-85123904D01*
X326256428Y-85123904D02*
X326065952Y-85123904D01*
X326065952Y-85123904D02*
X325951666Y-85162000D01*
X325951666Y-85162000D02*
X325875476Y-85238190D01*
X325875476Y-85238190D02*
X325837381Y-85314380D01*
X325837381Y-85314380D02*
X325799285Y-85466761D01*
X325799285Y-85466761D02*
X325799285Y-85581047D01*
X325799285Y-85581047D02*
X325837381Y-85733428D01*
X325837381Y-85733428D02*
X325875476Y-85809619D01*
X325875476Y-85809619D02*
X325951666Y-85885809D01*
X325951666Y-85885809D02*
X326065952Y-85923904D01*
X326065952Y-85923904D02*
X326256428Y-85923904D01*
X325113571Y-85390571D02*
X325113571Y-85923904D01*
X325304047Y-85085809D02*
X325494524Y-85657238D01*
X325494524Y-85657238D02*
X324999285Y-85657238D01*
X324732619Y-85200095D02*
X324694523Y-85162000D01*
X324694523Y-85162000D02*
X324618333Y-85123904D01*
X324618333Y-85123904D02*
X324427857Y-85123904D01*
X324427857Y-85123904D02*
X324351666Y-85162000D01*
X324351666Y-85162000D02*
X324313571Y-85200095D01*
X324313571Y-85200095D02*
X324275476Y-85276285D01*
X324275476Y-85276285D02*
X324275476Y-85352476D01*
X324275476Y-85352476D02*
X324313571Y-85466761D01*
X324313571Y-85466761D02*
X324770714Y-85923904D01*
X324770714Y-85923904D02*
X324275476Y-85923904D01*
%TO.C,D26*%
X288216428Y-66693904D02*
X288216428Y-65893904D01*
X288216428Y-65893904D02*
X288025952Y-65893904D01*
X288025952Y-65893904D02*
X287911666Y-65932000D01*
X287911666Y-65932000D02*
X287835476Y-66008190D01*
X287835476Y-66008190D02*
X287797381Y-66084380D01*
X287797381Y-66084380D02*
X287759285Y-66236761D01*
X287759285Y-66236761D02*
X287759285Y-66351047D01*
X287759285Y-66351047D02*
X287797381Y-66503428D01*
X287797381Y-66503428D02*
X287835476Y-66579619D01*
X287835476Y-66579619D02*
X287911666Y-66655809D01*
X287911666Y-66655809D02*
X288025952Y-66693904D01*
X288025952Y-66693904D02*
X288216428Y-66693904D01*
X287454524Y-65970095D02*
X287416428Y-65932000D01*
X287416428Y-65932000D02*
X287340238Y-65893904D01*
X287340238Y-65893904D02*
X287149762Y-65893904D01*
X287149762Y-65893904D02*
X287073571Y-65932000D01*
X287073571Y-65932000D02*
X287035476Y-65970095D01*
X287035476Y-65970095D02*
X286997381Y-66046285D01*
X286997381Y-66046285D02*
X286997381Y-66122476D01*
X286997381Y-66122476D02*
X287035476Y-66236761D01*
X287035476Y-66236761D02*
X287492619Y-66693904D01*
X287492619Y-66693904D02*
X286997381Y-66693904D01*
X286311666Y-65893904D02*
X286464047Y-65893904D01*
X286464047Y-65893904D02*
X286540238Y-65932000D01*
X286540238Y-65932000D02*
X286578333Y-65970095D01*
X286578333Y-65970095D02*
X286654523Y-66084380D01*
X286654523Y-66084380D02*
X286692619Y-66236761D01*
X286692619Y-66236761D02*
X286692619Y-66541523D01*
X286692619Y-66541523D02*
X286654523Y-66617714D01*
X286654523Y-66617714D02*
X286616428Y-66655809D01*
X286616428Y-66655809D02*
X286540238Y-66693904D01*
X286540238Y-66693904D02*
X286387857Y-66693904D01*
X286387857Y-66693904D02*
X286311666Y-66655809D01*
X286311666Y-66655809D02*
X286273571Y-66617714D01*
X286273571Y-66617714D02*
X286235476Y-66541523D01*
X286235476Y-66541523D02*
X286235476Y-66351047D01*
X286235476Y-66351047D02*
X286273571Y-66274857D01*
X286273571Y-66274857D02*
X286311666Y-66236761D01*
X286311666Y-66236761D02*
X286387857Y-66198666D01*
X286387857Y-66198666D02*
X286540238Y-66198666D01*
X286540238Y-66198666D02*
X286616428Y-66236761D01*
X286616428Y-66236761D02*
X286654523Y-66274857D01*
X286654523Y-66274857D02*
X286692619Y-66351047D01*
%TO.C,D14*%
X326256428Y-47473904D02*
X326256428Y-46673904D01*
X326256428Y-46673904D02*
X326065952Y-46673904D01*
X326065952Y-46673904D02*
X325951666Y-46712000D01*
X325951666Y-46712000D02*
X325875476Y-46788190D01*
X325875476Y-46788190D02*
X325837381Y-46864380D01*
X325837381Y-46864380D02*
X325799285Y-47016761D01*
X325799285Y-47016761D02*
X325799285Y-47131047D01*
X325799285Y-47131047D02*
X325837381Y-47283428D01*
X325837381Y-47283428D02*
X325875476Y-47359619D01*
X325875476Y-47359619D02*
X325951666Y-47435809D01*
X325951666Y-47435809D02*
X326065952Y-47473904D01*
X326065952Y-47473904D02*
X326256428Y-47473904D01*
X325037381Y-47473904D02*
X325494524Y-47473904D01*
X325265952Y-47473904D02*
X325265952Y-46673904D01*
X325265952Y-46673904D02*
X325342143Y-46788190D01*
X325342143Y-46788190D02*
X325418333Y-46864380D01*
X325418333Y-46864380D02*
X325494524Y-46902476D01*
X324351666Y-46940571D02*
X324351666Y-47473904D01*
X324542142Y-46635809D02*
X324732619Y-47207238D01*
X324732619Y-47207238D02*
X324237380Y-47207238D01*
D12*
%TO.C,SW54*%
X286974523Y-92969761D02*
X286831666Y-93017380D01*
X286831666Y-93017380D02*
X286593571Y-93017380D01*
X286593571Y-93017380D02*
X286498333Y-92969761D01*
X286498333Y-92969761D02*
X286450714Y-92922142D01*
X286450714Y-92922142D02*
X286403095Y-92826904D01*
X286403095Y-92826904D02*
X286403095Y-92731666D01*
X286403095Y-92731666D02*
X286450714Y-92636428D01*
X286450714Y-92636428D02*
X286498333Y-92588809D01*
X286498333Y-92588809D02*
X286593571Y-92541190D01*
X286593571Y-92541190D02*
X286784047Y-92493571D01*
X286784047Y-92493571D02*
X286879285Y-92445952D01*
X286879285Y-92445952D02*
X286926904Y-92398333D01*
X286926904Y-92398333D02*
X286974523Y-92303095D01*
X286974523Y-92303095D02*
X286974523Y-92207857D01*
X286974523Y-92207857D02*
X286926904Y-92112619D01*
X286926904Y-92112619D02*
X286879285Y-92065000D01*
X286879285Y-92065000D02*
X286784047Y-92017380D01*
X286784047Y-92017380D02*
X286545952Y-92017380D01*
X286545952Y-92017380D02*
X286403095Y-92065000D01*
X286069761Y-92017380D02*
X285831666Y-93017380D01*
X285831666Y-93017380D02*
X285641190Y-92303095D01*
X285641190Y-92303095D02*
X285450714Y-93017380D01*
X285450714Y-93017380D02*
X285212619Y-92017380D01*
X284355476Y-92017380D02*
X284831666Y-92017380D01*
X284831666Y-92017380D02*
X284879285Y-92493571D01*
X284879285Y-92493571D02*
X284831666Y-92445952D01*
X284831666Y-92445952D02*
X284736428Y-92398333D01*
X284736428Y-92398333D02*
X284498333Y-92398333D01*
X284498333Y-92398333D02*
X284403095Y-92445952D01*
X284403095Y-92445952D02*
X284355476Y-92493571D01*
X284355476Y-92493571D02*
X284307857Y-92588809D01*
X284307857Y-92588809D02*
X284307857Y-92826904D01*
X284307857Y-92826904D02*
X284355476Y-92922142D01*
X284355476Y-92922142D02*
X284403095Y-92969761D01*
X284403095Y-92969761D02*
X284498333Y-93017380D01*
X284498333Y-93017380D02*
X284736428Y-93017380D01*
X284736428Y-93017380D02*
X284831666Y-92969761D01*
X284831666Y-92969761D02*
X284879285Y-92922142D01*
X283450714Y-92350714D02*
X283450714Y-93017380D01*
X283688809Y-91969761D02*
X283926904Y-92684047D01*
X283926904Y-92684047D02*
X283307857Y-92684047D01*
%TO.C,SW61*%
X210774523Y-112019761D02*
X210631666Y-112067380D01*
X210631666Y-112067380D02*
X210393571Y-112067380D01*
X210393571Y-112067380D02*
X210298333Y-112019761D01*
X210298333Y-112019761D02*
X210250714Y-111972142D01*
X210250714Y-111972142D02*
X210203095Y-111876904D01*
X210203095Y-111876904D02*
X210203095Y-111781666D01*
X210203095Y-111781666D02*
X210250714Y-111686428D01*
X210250714Y-111686428D02*
X210298333Y-111638809D01*
X210298333Y-111638809D02*
X210393571Y-111591190D01*
X210393571Y-111591190D02*
X210584047Y-111543571D01*
X210584047Y-111543571D02*
X210679285Y-111495952D01*
X210679285Y-111495952D02*
X210726904Y-111448333D01*
X210726904Y-111448333D02*
X210774523Y-111353095D01*
X210774523Y-111353095D02*
X210774523Y-111257857D01*
X210774523Y-111257857D02*
X210726904Y-111162619D01*
X210726904Y-111162619D02*
X210679285Y-111115000D01*
X210679285Y-111115000D02*
X210584047Y-111067380D01*
X210584047Y-111067380D02*
X210345952Y-111067380D01*
X210345952Y-111067380D02*
X210203095Y-111115000D01*
X209869761Y-111067380D02*
X209631666Y-112067380D01*
X209631666Y-112067380D02*
X209441190Y-111353095D01*
X209441190Y-111353095D02*
X209250714Y-112067380D01*
X209250714Y-112067380D02*
X209012619Y-111067380D01*
X208203095Y-111067380D02*
X208393571Y-111067380D01*
X208393571Y-111067380D02*
X208488809Y-111115000D01*
X208488809Y-111115000D02*
X208536428Y-111162619D01*
X208536428Y-111162619D02*
X208631666Y-111305476D01*
X208631666Y-111305476D02*
X208679285Y-111495952D01*
X208679285Y-111495952D02*
X208679285Y-111876904D01*
X208679285Y-111876904D02*
X208631666Y-111972142D01*
X208631666Y-111972142D02*
X208584047Y-112019761D01*
X208584047Y-112019761D02*
X208488809Y-112067380D01*
X208488809Y-112067380D02*
X208298333Y-112067380D01*
X208298333Y-112067380D02*
X208203095Y-112019761D01*
X208203095Y-112019761D02*
X208155476Y-111972142D01*
X208155476Y-111972142D02*
X208107857Y-111876904D01*
X208107857Y-111876904D02*
X208107857Y-111638809D01*
X208107857Y-111638809D02*
X208155476Y-111543571D01*
X208155476Y-111543571D02*
X208203095Y-111495952D01*
X208203095Y-111495952D02*
X208298333Y-111448333D01*
X208298333Y-111448333D02*
X208488809Y-111448333D01*
X208488809Y-111448333D02*
X208584047Y-111495952D01*
X208584047Y-111495952D02*
X208631666Y-111543571D01*
X208631666Y-111543571D02*
X208679285Y-111638809D01*
X207155476Y-112067380D02*
X207726904Y-112067380D01*
X207441190Y-112067380D02*
X207441190Y-111067380D01*
X207441190Y-111067380D02*
X207536428Y-111210238D01*
X207536428Y-111210238D02*
X207631666Y-111305476D01*
X207631666Y-111305476D02*
X207726904Y-111353095D01*
%TO.C,SW26*%
X286974523Y-54869761D02*
X286831666Y-54917380D01*
X286831666Y-54917380D02*
X286593571Y-54917380D01*
X286593571Y-54917380D02*
X286498333Y-54869761D01*
X286498333Y-54869761D02*
X286450714Y-54822142D01*
X286450714Y-54822142D02*
X286403095Y-54726904D01*
X286403095Y-54726904D02*
X286403095Y-54631666D01*
X286403095Y-54631666D02*
X286450714Y-54536428D01*
X286450714Y-54536428D02*
X286498333Y-54488809D01*
X286498333Y-54488809D02*
X286593571Y-54441190D01*
X286593571Y-54441190D02*
X286784047Y-54393571D01*
X286784047Y-54393571D02*
X286879285Y-54345952D01*
X286879285Y-54345952D02*
X286926904Y-54298333D01*
X286926904Y-54298333D02*
X286974523Y-54203095D01*
X286974523Y-54203095D02*
X286974523Y-54107857D01*
X286974523Y-54107857D02*
X286926904Y-54012619D01*
X286926904Y-54012619D02*
X286879285Y-53965000D01*
X286879285Y-53965000D02*
X286784047Y-53917380D01*
X286784047Y-53917380D02*
X286545952Y-53917380D01*
X286545952Y-53917380D02*
X286403095Y-53965000D01*
X286069761Y-53917380D02*
X285831666Y-54917380D01*
X285831666Y-54917380D02*
X285641190Y-54203095D01*
X285641190Y-54203095D02*
X285450714Y-54917380D01*
X285450714Y-54917380D02*
X285212619Y-53917380D01*
X284879285Y-54012619D02*
X284831666Y-53965000D01*
X284831666Y-53965000D02*
X284736428Y-53917380D01*
X284736428Y-53917380D02*
X284498333Y-53917380D01*
X284498333Y-53917380D02*
X284403095Y-53965000D01*
X284403095Y-53965000D02*
X284355476Y-54012619D01*
X284355476Y-54012619D02*
X284307857Y-54107857D01*
X284307857Y-54107857D02*
X284307857Y-54203095D01*
X284307857Y-54203095D02*
X284355476Y-54345952D01*
X284355476Y-54345952D02*
X284926904Y-54917380D01*
X284926904Y-54917380D02*
X284307857Y-54917380D01*
X283450714Y-53917380D02*
X283641190Y-53917380D01*
X283641190Y-53917380D02*
X283736428Y-53965000D01*
X283736428Y-53965000D02*
X283784047Y-54012619D01*
X283784047Y-54012619D02*
X283879285Y-54155476D01*
X283879285Y-54155476D02*
X283926904Y-54345952D01*
X283926904Y-54345952D02*
X283926904Y-54726904D01*
X283926904Y-54726904D02*
X283879285Y-54822142D01*
X283879285Y-54822142D02*
X283831666Y-54869761D01*
X283831666Y-54869761D02*
X283736428Y-54917380D01*
X283736428Y-54917380D02*
X283545952Y-54917380D01*
X283545952Y-54917380D02*
X283450714Y-54869761D01*
X283450714Y-54869761D02*
X283403095Y-54822142D01*
X283403095Y-54822142D02*
X283355476Y-54726904D01*
X283355476Y-54726904D02*
X283355476Y-54488809D01*
X283355476Y-54488809D02*
X283403095Y-54393571D01*
X283403095Y-54393571D02*
X283450714Y-54345952D01*
X283450714Y-54345952D02*
X283545952Y-54298333D01*
X283545952Y-54298333D02*
X283736428Y-54298333D01*
X283736428Y-54298333D02*
X283831666Y-54345952D01*
X283831666Y-54345952D02*
X283879285Y-54393571D01*
X283879285Y-54393571D02*
X283926904Y-54488809D01*
%TO.C,SW22*%
X210774523Y-54869761D02*
X210631666Y-54917380D01*
X210631666Y-54917380D02*
X210393571Y-54917380D01*
X210393571Y-54917380D02*
X210298333Y-54869761D01*
X210298333Y-54869761D02*
X210250714Y-54822142D01*
X210250714Y-54822142D02*
X210203095Y-54726904D01*
X210203095Y-54726904D02*
X210203095Y-54631666D01*
X210203095Y-54631666D02*
X210250714Y-54536428D01*
X210250714Y-54536428D02*
X210298333Y-54488809D01*
X210298333Y-54488809D02*
X210393571Y-54441190D01*
X210393571Y-54441190D02*
X210584047Y-54393571D01*
X210584047Y-54393571D02*
X210679285Y-54345952D01*
X210679285Y-54345952D02*
X210726904Y-54298333D01*
X210726904Y-54298333D02*
X210774523Y-54203095D01*
X210774523Y-54203095D02*
X210774523Y-54107857D01*
X210774523Y-54107857D02*
X210726904Y-54012619D01*
X210726904Y-54012619D02*
X210679285Y-53965000D01*
X210679285Y-53965000D02*
X210584047Y-53917380D01*
X210584047Y-53917380D02*
X210345952Y-53917380D01*
X210345952Y-53917380D02*
X210203095Y-53965000D01*
X209869761Y-53917380D02*
X209631666Y-54917380D01*
X209631666Y-54917380D02*
X209441190Y-54203095D01*
X209441190Y-54203095D02*
X209250714Y-54917380D01*
X209250714Y-54917380D02*
X209012619Y-53917380D01*
X208679285Y-54012619D02*
X208631666Y-53965000D01*
X208631666Y-53965000D02*
X208536428Y-53917380D01*
X208536428Y-53917380D02*
X208298333Y-53917380D01*
X208298333Y-53917380D02*
X208203095Y-53965000D01*
X208203095Y-53965000D02*
X208155476Y-54012619D01*
X208155476Y-54012619D02*
X208107857Y-54107857D01*
X208107857Y-54107857D02*
X208107857Y-54203095D01*
X208107857Y-54203095D02*
X208155476Y-54345952D01*
X208155476Y-54345952D02*
X208726904Y-54917380D01*
X208726904Y-54917380D02*
X208107857Y-54917380D01*
X207726904Y-54012619D02*
X207679285Y-53965000D01*
X207679285Y-53965000D02*
X207584047Y-53917380D01*
X207584047Y-53917380D02*
X207345952Y-53917380D01*
X207345952Y-53917380D02*
X207250714Y-53965000D01*
X207250714Y-53965000D02*
X207203095Y-54012619D01*
X207203095Y-54012619D02*
X207155476Y-54107857D01*
X207155476Y-54107857D02*
X207155476Y-54203095D01*
X207155476Y-54203095D02*
X207203095Y-54345952D01*
X207203095Y-54345952D02*
X207774523Y-54917380D01*
X207774523Y-54917380D02*
X207155476Y-54917380D01*
D11*
%TO.C,D41*%
X307171428Y-85923904D02*
X307171428Y-85123904D01*
X307171428Y-85123904D02*
X306980952Y-85123904D01*
X306980952Y-85123904D02*
X306866666Y-85162000D01*
X306866666Y-85162000D02*
X306790476Y-85238190D01*
X306790476Y-85238190D02*
X306752381Y-85314380D01*
X306752381Y-85314380D02*
X306714285Y-85466761D01*
X306714285Y-85466761D02*
X306714285Y-85581047D01*
X306714285Y-85581047D02*
X306752381Y-85733428D01*
X306752381Y-85733428D02*
X306790476Y-85809619D01*
X306790476Y-85809619D02*
X306866666Y-85885809D01*
X306866666Y-85885809D02*
X306980952Y-85923904D01*
X306980952Y-85923904D02*
X307171428Y-85923904D01*
X306028571Y-85390571D02*
X306028571Y-85923904D01*
X306219047Y-85085809D02*
X306409524Y-85657238D01*
X306409524Y-85657238D02*
X305914285Y-85657238D01*
X305190476Y-85923904D02*
X305647619Y-85923904D01*
X305419047Y-85923904D02*
X305419047Y-85123904D01*
X305419047Y-85123904D02*
X305495238Y-85238190D01*
X305495238Y-85238190D02*
X305571428Y-85314380D01*
X305571428Y-85314380D02*
X305647619Y-85352476D01*
%TO.C,D40*%
X288216428Y-85923904D02*
X288216428Y-85123904D01*
X288216428Y-85123904D02*
X288025952Y-85123904D01*
X288025952Y-85123904D02*
X287911666Y-85162000D01*
X287911666Y-85162000D02*
X287835476Y-85238190D01*
X287835476Y-85238190D02*
X287797381Y-85314380D01*
X287797381Y-85314380D02*
X287759285Y-85466761D01*
X287759285Y-85466761D02*
X287759285Y-85581047D01*
X287759285Y-85581047D02*
X287797381Y-85733428D01*
X287797381Y-85733428D02*
X287835476Y-85809619D01*
X287835476Y-85809619D02*
X287911666Y-85885809D01*
X287911666Y-85885809D02*
X288025952Y-85923904D01*
X288025952Y-85923904D02*
X288216428Y-85923904D01*
X287073571Y-85390571D02*
X287073571Y-85923904D01*
X287264047Y-85085809D02*
X287454524Y-85657238D01*
X287454524Y-85657238D02*
X286959285Y-85657238D01*
X286502142Y-85123904D02*
X286425952Y-85123904D01*
X286425952Y-85123904D02*
X286349761Y-85162000D01*
X286349761Y-85162000D02*
X286311666Y-85200095D01*
X286311666Y-85200095D02*
X286273571Y-85276285D01*
X286273571Y-85276285D02*
X286235476Y-85428666D01*
X286235476Y-85428666D02*
X286235476Y-85619142D01*
X286235476Y-85619142D02*
X286273571Y-85771523D01*
X286273571Y-85771523D02*
X286311666Y-85847714D01*
X286311666Y-85847714D02*
X286349761Y-85885809D01*
X286349761Y-85885809D02*
X286425952Y-85923904D01*
X286425952Y-85923904D02*
X286502142Y-85923904D01*
X286502142Y-85923904D02*
X286578333Y-85885809D01*
X286578333Y-85885809D02*
X286616428Y-85847714D01*
X286616428Y-85847714D02*
X286654523Y-85771523D01*
X286654523Y-85771523D02*
X286692619Y-85619142D01*
X286692619Y-85619142D02*
X286692619Y-85428666D01*
X286692619Y-85428666D02*
X286654523Y-85276285D01*
X286654523Y-85276285D02*
X286616428Y-85200095D01*
X286616428Y-85200095D02*
X286578333Y-85162000D01*
X286578333Y-85162000D02*
X286502142Y-85123904D01*
%TO.C,D56*%
X326256428Y-104503904D02*
X326256428Y-103703904D01*
X326256428Y-103703904D02*
X326065952Y-103703904D01*
X326065952Y-103703904D02*
X325951666Y-103742000D01*
X325951666Y-103742000D02*
X325875476Y-103818190D01*
X325875476Y-103818190D02*
X325837381Y-103894380D01*
X325837381Y-103894380D02*
X325799285Y-104046761D01*
X325799285Y-104046761D02*
X325799285Y-104161047D01*
X325799285Y-104161047D02*
X325837381Y-104313428D01*
X325837381Y-104313428D02*
X325875476Y-104389619D01*
X325875476Y-104389619D02*
X325951666Y-104465809D01*
X325951666Y-104465809D02*
X326065952Y-104503904D01*
X326065952Y-104503904D02*
X326256428Y-104503904D01*
X325075476Y-103703904D02*
X325456428Y-103703904D01*
X325456428Y-103703904D02*
X325494524Y-104084857D01*
X325494524Y-104084857D02*
X325456428Y-104046761D01*
X325456428Y-104046761D02*
X325380238Y-104008666D01*
X325380238Y-104008666D02*
X325189762Y-104008666D01*
X325189762Y-104008666D02*
X325113571Y-104046761D01*
X325113571Y-104046761D02*
X325075476Y-104084857D01*
X325075476Y-104084857D02*
X325037381Y-104161047D01*
X325037381Y-104161047D02*
X325037381Y-104351523D01*
X325037381Y-104351523D02*
X325075476Y-104427714D01*
X325075476Y-104427714D02*
X325113571Y-104465809D01*
X325113571Y-104465809D02*
X325189762Y-104503904D01*
X325189762Y-104503904D02*
X325380238Y-104503904D01*
X325380238Y-104503904D02*
X325456428Y-104465809D01*
X325456428Y-104465809D02*
X325494524Y-104427714D01*
X324351666Y-103703904D02*
X324504047Y-103703904D01*
X324504047Y-103703904D02*
X324580238Y-103742000D01*
X324580238Y-103742000D02*
X324618333Y-103780095D01*
X324618333Y-103780095D02*
X324694523Y-103894380D01*
X324694523Y-103894380D02*
X324732619Y-104046761D01*
X324732619Y-104046761D02*
X324732619Y-104351523D01*
X324732619Y-104351523D02*
X324694523Y-104427714D01*
X324694523Y-104427714D02*
X324656428Y-104465809D01*
X324656428Y-104465809D02*
X324580238Y-104503904D01*
X324580238Y-104503904D02*
X324427857Y-104503904D01*
X324427857Y-104503904D02*
X324351666Y-104465809D01*
X324351666Y-104465809D02*
X324313571Y-104427714D01*
X324313571Y-104427714D02*
X324275476Y-104351523D01*
X324275476Y-104351523D02*
X324275476Y-104161047D01*
X324275476Y-104161047D02*
X324313571Y-104084857D01*
X324313571Y-104084857D02*
X324351666Y-104046761D01*
X324351666Y-104046761D02*
X324427857Y-104008666D01*
X324427857Y-104008666D02*
X324580238Y-104008666D01*
X324580238Y-104008666D02*
X324656428Y-104046761D01*
X324656428Y-104046761D02*
X324694523Y-104084857D01*
X324694523Y-104084857D02*
X324732619Y-104161047D01*
%TO.C,D38*%
X250076428Y-85823904D02*
X250076428Y-85023904D01*
X250076428Y-85023904D02*
X249885952Y-85023904D01*
X249885952Y-85023904D02*
X249771666Y-85062000D01*
X249771666Y-85062000D02*
X249695476Y-85138190D01*
X249695476Y-85138190D02*
X249657381Y-85214380D01*
X249657381Y-85214380D02*
X249619285Y-85366761D01*
X249619285Y-85366761D02*
X249619285Y-85481047D01*
X249619285Y-85481047D02*
X249657381Y-85633428D01*
X249657381Y-85633428D02*
X249695476Y-85709619D01*
X249695476Y-85709619D02*
X249771666Y-85785809D01*
X249771666Y-85785809D02*
X249885952Y-85823904D01*
X249885952Y-85823904D02*
X250076428Y-85823904D01*
X249352619Y-85023904D02*
X248857381Y-85023904D01*
X248857381Y-85023904D02*
X249124047Y-85328666D01*
X249124047Y-85328666D02*
X249009762Y-85328666D01*
X249009762Y-85328666D02*
X248933571Y-85366761D01*
X248933571Y-85366761D02*
X248895476Y-85404857D01*
X248895476Y-85404857D02*
X248857381Y-85481047D01*
X248857381Y-85481047D02*
X248857381Y-85671523D01*
X248857381Y-85671523D02*
X248895476Y-85747714D01*
X248895476Y-85747714D02*
X248933571Y-85785809D01*
X248933571Y-85785809D02*
X249009762Y-85823904D01*
X249009762Y-85823904D02*
X249238333Y-85823904D01*
X249238333Y-85823904D02*
X249314524Y-85785809D01*
X249314524Y-85785809D02*
X249352619Y-85747714D01*
X248400238Y-85366761D02*
X248476428Y-85328666D01*
X248476428Y-85328666D02*
X248514523Y-85290571D01*
X248514523Y-85290571D02*
X248552619Y-85214380D01*
X248552619Y-85214380D02*
X248552619Y-85176285D01*
X248552619Y-85176285D02*
X248514523Y-85100095D01*
X248514523Y-85100095D02*
X248476428Y-85062000D01*
X248476428Y-85062000D02*
X248400238Y-85023904D01*
X248400238Y-85023904D02*
X248247857Y-85023904D01*
X248247857Y-85023904D02*
X248171666Y-85062000D01*
X248171666Y-85062000D02*
X248133571Y-85100095D01*
X248133571Y-85100095D02*
X248095476Y-85176285D01*
X248095476Y-85176285D02*
X248095476Y-85214380D01*
X248095476Y-85214380D02*
X248133571Y-85290571D01*
X248133571Y-85290571D02*
X248171666Y-85328666D01*
X248171666Y-85328666D02*
X248247857Y-85366761D01*
X248247857Y-85366761D02*
X248400238Y-85366761D01*
X248400238Y-85366761D02*
X248476428Y-85404857D01*
X248476428Y-85404857D02*
X248514523Y-85442952D01*
X248514523Y-85442952D02*
X248552619Y-85519142D01*
X248552619Y-85519142D02*
X248552619Y-85671523D01*
X248552619Y-85671523D02*
X248514523Y-85747714D01*
X248514523Y-85747714D02*
X248476428Y-85785809D01*
X248476428Y-85785809D02*
X248400238Y-85823904D01*
X248400238Y-85823904D02*
X248247857Y-85823904D01*
X248247857Y-85823904D02*
X248171666Y-85785809D01*
X248171666Y-85785809D02*
X248133571Y-85747714D01*
X248133571Y-85747714D02*
X248095476Y-85671523D01*
X248095476Y-85671523D02*
X248095476Y-85519142D01*
X248095476Y-85519142D02*
X248133571Y-85442952D01*
X248133571Y-85442952D02*
X248171666Y-85404857D01*
X248171666Y-85404857D02*
X248247857Y-85366761D01*
D12*
%TO.C,SW62*%
X229774523Y-112019761D02*
X229631666Y-112067380D01*
X229631666Y-112067380D02*
X229393571Y-112067380D01*
X229393571Y-112067380D02*
X229298333Y-112019761D01*
X229298333Y-112019761D02*
X229250714Y-111972142D01*
X229250714Y-111972142D02*
X229203095Y-111876904D01*
X229203095Y-111876904D02*
X229203095Y-111781666D01*
X229203095Y-111781666D02*
X229250714Y-111686428D01*
X229250714Y-111686428D02*
X229298333Y-111638809D01*
X229298333Y-111638809D02*
X229393571Y-111591190D01*
X229393571Y-111591190D02*
X229584047Y-111543571D01*
X229584047Y-111543571D02*
X229679285Y-111495952D01*
X229679285Y-111495952D02*
X229726904Y-111448333D01*
X229726904Y-111448333D02*
X229774523Y-111353095D01*
X229774523Y-111353095D02*
X229774523Y-111257857D01*
X229774523Y-111257857D02*
X229726904Y-111162619D01*
X229726904Y-111162619D02*
X229679285Y-111115000D01*
X229679285Y-111115000D02*
X229584047Y-111067380D01*
X229584047Y-111067380D02*
X229345952Y-111067380D01*
X229345952Y-111067380D02*
X229203095Y-111115000D01*
X228869761Y-111067380D02*
X228631666Y-112067380D01*
X228631666Y-112067380D02*
X228441190Y-111353095D01*
X228441190Y-111353095D02*
X228250714Y-112067380D01*
X228250714Y-112067380D02*
X228012619Y-111067380D01*
X227203095Y-111067380D02*
X227393571Y-111067380D01*
X227393571Y-111067380D02*
X227488809Y-111115000D01*
X227488809Y-111115000D02*
X227536428Y-111162619D01*
X227536428Y-111162619D02*
X227631666Y-111305476D01*
X227631666Y-111305476D02*
X227679285Y-111495952D01*
X227679285Y-111495952D02*
X227679285Y-111876904D01*
X227679285Y-111876904D02*
X227631666Y-111972142D01*
X227631666Y-111972142D02*
X227584047Y-112019761D01*
X227584047Y-112019761D02*
X227488809Y-112067380D01*
X227488809Y-112067380D02*
X227298333Y-112067380D01*
X227298333Y-112067380D02*
X227203095Y-112019761D01*
X227203095Y-112019761D02*
X227155476Y-111972142D01*
X227155476Y-111972142D02*
X227107857Y-111876904D01*
X227107857Y-111876904D02*
X227107857Y-111638809D01*
X227107857Y-111638809D02*
X227155476Y-111543571D01*
X227155476Y-111543571D02*
X227203095Y-111495952D01*
X227203095Y-111495952D02*
X227298333Y-111448333D01*
X227298333Y-111448333D02*
X227488809Y-111448333D01*
X227488809Y-111448333D02*
X227584047Y-111495952D01*
X227584047Y-111495952D02*
X227631666Y-111543571D01*
X227631666Y-111543571D02*
X227679285Y-111638809D01*
X226726904Y-111162619D02*
X226679285Y-111115000D01*
X226679285Y-111115000D02*
X226584047Y-111067380D01*
X226584047Y-111067380D02*
X226345952Y-111067380D01*
X226345952Y-111067380D02*
X226250714Y-111115000D01*
X226250714Y-111115000D02*
X226203095Y-111162619D01*
X226203095Y-111162619D02*
X226155476Y-111257857D01*
X226155476Y-111257857D02*
X226155476Y-111353095D01*
X226155476Y-111353095D02*
X226203095Y-111495952D01*
X226203095Y-111495952D02*
X226774523Y-112067380D01*
X226774523Y-112067380D02*
X226155476Y-112067380D01*
%TO.C,SW23*%
X229774523Y-54869761D02*
X229631666Y-54917380D01*
X229631666Y-54917380D02*
X229393571Y-54917380D01*
X229393571Y-54917380D02*
X229298333Y-54869761D01*
X229298333Y-54869761D02*
X229250714Y-54822142D01*
X229250714Y-54822142D02*
X229203095Y-54726904D01*
X229203095Y-54726904D02*
X229203095Y-54631666D01*
X229203095Y-54631666D02*
X229250714Y-54536428D01*
X229250714Y-54536428D02*
X229298333Y-54488809D01*
X229298333Y-54488809D02*
X229393571Y-54441190D01*
X229393571Y-54441190D02*
X229584047Y-54393571D01*
X229584047Y-54393571D02*
X229679285Y-54345952D01*
X229679285Y-54345952D02*
X229726904Y-54298333D01*
X229726904Y-54298333D02*
X229774523Y-54203095D01*
X229774523Y-54203095D02*
X229774523Y-54107857D01*
X229774523Y-54107857D02*
X229726904Y-54012619D01*
X229726904Y-54012619D02*
X229679285Y-53965000D01*
X229679285Y-53965000D02*
X229584047Y-53917380D01*
X229584047Y-53917380D02*
X229345952Y-53917380D01*
X229345952Y-53917380D02*
X229203095Y-53965000D01*
X228869761Y-53917380D02*
X228631666Y-54917380D01*
X228631666Y-54917380D02*
X228441190Y-54203095D01*
X228441190Y-54203095D02*
X228250714Y-54917380D01*
X228250714Y-54917380D02*
X228012619Y-53917380D01*
X227679285Y-54012619D02*
X227631666Y-53965000D01*
X227631666Y-53965000D02*
X227536428Y-53917380D01*
X227536428Y-53917380D02*
X227298333Y-53917380D01*
X227298333Y-53917380D02*
X227203095Y-53965000D01*
X227203095Y-53965000D02*
X227155476Y-54012619D01*
X227155476Y-54012619D02*
X227107857Y-54107857D01*
X227107857Y-54107857D02*
X227107857Y-54203095D01*
X227107857Y-54203095D02*
X227155476Y-54345952D01*
X227155476Y-54345952D02*
X227726904Y-54917380D01*
X227726904Y-54917380D02*
X227107857Y-54917380D01*
X226774523Y-53917380D02*
X226155476Y-53917380D01*
X226155476Y-53917380D02*
X226488809Y-54298333D01*
X226488809Y-54298333D02*
X226345952Y-54298333D01*
X226345952Y-54298333D02*
X226250714Y-54345952D01*
X226250714Y-54345952D02*
X226203095Y-54393571D01*
X226203095Y-54393571D02*
X226155476Y-54488809D01*
X226155476Y-54488809D02*
X226155476Y-54726904D01*
X226155476Y-54726904D02*
X226203095Y-54822142D01*
X226203095Y-54822142D02*
X226250714Y-54869761D01*
X226250714Y-54869761D02*
X226345952Y-54917380D01*
X226345952Y-54917380D02*
X226631666Y-54917380D01*
X226631666Y-54917380D02*
X226726904Y-54869761D01*
X226726904Y-54869761D02*
X226774523Y-54822142D01*
D11*
%TO.C,D53*%
X269191428Y-104503904D02*
X269191428Y-103703904D01*
X269191428Y-103703904D02*
X269000952Y-103703904D01*
X269000952Y-103703904D02*
X268886666Y-103742000D01*
X268886666Y-103742000D02*
X268810476Y-103818190D01*
X268810476Y-103818190D02*
X268772381Y-103894380D01*
X268772381Y-103894380D02*
X268734285Y-104046761D01*
X268734285Y-104046761D02*
X268734285Y-104161047D01*
X268734285Y-104161047D02*
X268772381Y-104313428D01*
X268772381Y-104313428D02*
X268810476Y-104389619D01*
X268810476Y-104389619D02*
X268886666Y-104465809D01*
X268886666Y-104465809D02*
X269000952Y-104503904D01*
X269000952Y-104503904D02*
X269191428Y-104503904D01*
X268010476Y-103703904D02*
X268391428Y-103703904D01*
X268391428Y-103703904D02*
X268429524Y-104084857D01*
X268429524Y-104084857D02*
X268391428Y-104046761D01*
X268391428Y-104046761D02*
X268315238Y-104008666D01*
X268315238Y-104008666D02*
X268124762Y-104008666D01*
X268124762Y-104008666D02*
X268048571Y-104046761D01*
X268048571Y-104046761D02*
X268010476Y-104084857D01*
X268010476Y-104084857D02*
X267972381Y-104161047D01*
X267972381Y-104161047D02*
X267972381Y-104351523D01*
X267972381Y-104351523D02*
X268010476Y-104427714D01*
X268010476Y-104427714D02*
X268048571Y-104465809D01*
X268048571Y-104465809D02*
X268124762Y-104503904D01*
X268124762Y-104503904D02*
X268315238Y-104503904D01*
X268315238Y-104503904D02*
X268391428Y-104465809D01*
X268391428Y-104465809D02*
X268429524Y-104427714D01*
X267705714Y-103703904D02*
X267210476Y-103703904D01*
X267210476Y-103703904D02*
X267477142Y-104008666D01*
X267477142Y-104008666D02*
X267362857Y-104008666D01*
X267362857Y-104008666D02*
X267286666Y-104046761D01*
X267286666Y-104046761D02*
X267248571Y-104084857D01*
X267248571Y-104084857D02*
X267210476Y-104161047D01*
X267210476Y-104161047D02*
X267210476Y-104351523D01*
X267210476Y-104351523D02*
X267248571Y-104427714D01*
X267248571Y-104427714D02*
X267286666Y-104465809D01*
X267286666Y-104465809D02*
X267362857Y-104503904D01*
X267362857Y-104503904D02*
X267591428Y-104503904D01*
X267591428Y-104503904D02*
X267667619Y-104465809D01*
X267667619Y-104465809D02*
X267705714Y-104427714D01*
%TO.C,D9*%
X230610475Y-47373904D02*
X230610475Y-46573904D01*
X230610475Y-46573904D02*
X230419999Y-46573904D01*
X230419999Y-46573904D02*
X230305713Y-46612000D01*
X230305713Y-46612000D02*
X230229523Y-46688190D01*
X230229523Y-46688190D02*
X230191428Y-46764380D01*
X230191428Y-46764380D02*
X230153332Y-46916761D01*
X230153332Y-46916761D02*
X230153332Y-47031047D01*
X230153332Y-47031047D02*
X230191428Y-47183428D01*
X230191428Y-47183428D02*
X230229523Y-47259619D01*
X230229523Y-47259619D02*
X230305713Y-47335809D01*
X230305713Y-47335809D02*
X230419999Y-47373904D01*
X230419999Y-47373904D02*
X230610475Y-47373904D01*
X229772380Y-47373904D02*
X229619999Y-47373904D01*
X229619999Y-47373904D02*
X229543809Y-47335809D01*
X229543809Y-47335809D02*
X229505713Y-47297714D01*
X229505713Y-47297714D02*
X229429523Y-47183428D01*
X229429523Y-47183428D02*
X229391428Y-47031047D01*
X229391428Y-47031047D02*
X229391428Y-46726285D01*
X229391428Y-46726285D02*
X229429523Y-46650095D01*
X229429523Y-46650095D02*
X229467618Y-46612000D01*
X229467618Y-46612000D02*
X229543809Y-46573904D01*
X229543809Y-46573904D02*
X229696190Y-46573904D01*
X229696190Y-46573904D02*
X229772380Y-46612000D01*
X229772380Y-46612000D02*
X229810475Y-46650095D01*
X229810475Y-46650095D02*
X229848571Y-46726285D01*
X229848571Y-46726285D02*
X229848571Y-46916761D01*
X229848571Y-46916761D02*
X229810475Y-46992952D01*
X229810475Y-46992952D02*
X229772380Y-47031047D01*
X229772380Y-47031047D02*
X229696190Y-47069142D01*
X229696190Y-47069142D02*
X229543809Y-47069142D01*
X229543809Y-47069142D02*
X229467618Y-47031047D01*
X229467618Y-47031047D02*
X229429523Y-46992952D01*
X229429523Y-46992952D02*
X229391428Y-46916761D01*
D12*
%TO.C,SW12*%
X286974523Y-35819761D02*
X286831666Y-35867380D01*
X286831666Y-35867380D02*
X286593571Y-35867380D01*
X286593571Y-35867380D02*
X286498333Y-35819761D01*
X286498333Y-35819761D02*
X286450714Y-35772142D01*
X286450714Y-35772142D02*
X286403095Y-35676904D01*
X286403095Y-35676904D02*
X286403095Y-35581666D01*
X286403095Y-35581666D02*
X286450714Y-35486428D01*
X286450714Y-35486428D02*
X286498333Y-35438809D01*
X286498333Y-35438809D02*
X286593571Y-35391190D01*
X286593571Y-35391190D02*
X286784047Y-35343571D01*
X286784047Y-35343571D02*
X286879285Y-35295952D01*
X286879285Y-35295952D02*
X286926904Y-35248333D01*
X286926904Y-35248333D02*
X286974523Y-35153095D01*
X286974523Y-35153095D02*
X286974523Y-35057857D01*
X286974523Y-35057857D02*
X286926904Y-34962619D01*
X286926904Y-34962619D02*
X286879285Y-34915000D01*
X286879285Y-34915000D02*
X286784047Y-34867380D01*
X286784047Y-34867380D02*
X286545952Y-34867380D01*
X286545952Y-34867380D02*
X286403095Y-34915000D01*
X286069761Y-34867380D02*
X285831666Y-35867380D01*
X285831666Y-35867380D02*
X285641190Y-35153095D01*
X285641190Y-35153095D02*
X285450714Y-35867380D01*
X285450714Y-35867380D02*
X285212619Y-34867380D01*
X284307857Y-35867380D02*
X284879285Y-35867380D01*
X284593571Y-35867380D02*
X284593571Y-34867380D01*
X284593571Y-34867380D02*
X284688809Y-35010238D01*
X284688809Y-35010238D02*
X284784047Y-35105476D01*
X284784047Y-35105476D02*
X284879285Y-35153095D01*
X283926904Y-34962619D02*
X283879285Y-34915000D01*
X283879285Y-34915000D02*
X283784047Y-34867380D01*
X283784047Y-34867380D02*
X283545952Y-34867380D01*
X283545952Y-34867380D02*
X283450714Y-34915000D01*
X283450714Y-34915000D02*
X283403095Y-34962619D01*
X283403095Y-34962619D02*
X283355476Y-35057857D01*
X283355476Y-35057857D02*
X283355476Y-35153095D01*
X283355476Y-35153095D02*
X283403095Y-35295952D01*
X283403095Y-35295952D02*
X283974523Y-35867380D01*
X283974523Y-35867380D02*
X283355476Y-35867380D01*
%TO.C,SW40*%
X286974523Y-73919761D02*
X286831666Y-73967380D01*
X286831666Y-73967380D02*
X286593571Y-73967380D01*
X286593571Y-73967380D02*
X286498333Y-73919761D01*
X286498333Y-73919761D02*
X286450714Y-73872142D01*
X286450714Y-73872142D02*
X286403095Y-73776904D01*
X286403095Y-73776904D02*
X286403095Y-73681666D01*
X286403095Y-73681666D02*
X286450714Y-73586428D01*
X286450714Y-73586428D02*
X286498333Y-73538809D01*
X286498333Y-73538809D02*
X286593571Y-73491190D01*
X286593571Y-73491190D02*
X286784047Y-73443571D01*
X286784047Y-73443571D02*
X286879285Y-73395952D01*
X286879285Y-73395952D02*
X286926904Y-73348333D01*
X286926904Y-73348333D02*
X286974523Y-73253095D01*
X286974523Y-73253095D02*
X286974523Y-73157857D01*
X286974523Y-73157857D02*
X286926904Y-73062619D01*
X286926904Y-73062619D02*
X286879285Y-73015000D01*
X286879285Y-73015000D02*
X286784047Y-72967380D01*
X286784047Y-72967380D02*
X286545952Y-72967380D01*
X286545952Y-72967380D02*
X286403095Y-73015000D01*
X286069761Y-72967380D02*
X285831666Y-73967380D01*
X285831666Y-73967380D02*
X285641190Y-73253095D01*
X285641190Y-73253095D02*
X285450714Y-73967380D01*
X285450714Y-73967380D02*
X285212619Y-72967380D01*
X284403095Y-73300714D02*
X284403095Y-73967380D01*
X284641190Y-72919761D02*
X284879285Y-73634047D01*
X284879285Y-73634047D02*
X284260238Y-73634047D01*
X283688809Y-72967380D02*
X283593571Y-72967380D01*
X283593571Y-72967380D02*
X283498333Y-73015000D01*
X283498333Y-73015000D02*
X283450714Y-73062619D01*
X283450714Y-73062619D02*
X283403095Y-73157857D01*
X283403095Y-73157857D02*
X283355476Y-73348333D01*
X283355476Y-73348333D02*
X283355476Y-73586428D01*
X283355476Y-73586428D02*
X283403095Y-73776904D01*
X283403095Y-73776904D02*
X283450714Y-73872142D01*
X283450714Y-73872142D02*
X283498333Y-73919761D01*
X283498333Y-73919761D02*
X283593571Y-73967380D01*
X283593571Y-73967380D02*
X283688809Y-73967380D01*
X283688809Y-73967380D02*
X283784047Y-73919761D01*
X283784047Y-73919761D02*
X283831666Y-73872142D01*
X283831666Y-73872142D02*
X283879285Y-73776904D01*
X283879285Y-73776904D02*
X283926904Y-73586428D01*
X283926904Y-73586428D02*
X283926904Y-73348333D01*
X283926904Y-73348333D02*
X283879285Y-73157857D01*
X283879285Y-73157857D02*
X283831666Y-73062619D01*
X283831666Y-73062619D02*
X283784047Y-73015000D01*
X283784047Y-73015000D02*
X283688809Y-72967380D01*
D11*
%TO.C,D55*%
X307171428Y-104503904D02*
X307171428Y-103703904D01*
X307171428Y-103703904D02*
X306980952Y-103703904D01*
X306980952Y-103703904D02*
X306866666Y-103742000D01*
X306866666Y-103742000D02*
X306790476Y-103818190D01*
X306790476Y-103818190D02*
X306752381Y-103894380D01*
X306752381Y-103894380D02*
X306714285Y-104046761D01*
X306714285Y-104046761D02*
X306714285Y-104161047D01*
X306714285Y-104161047D02*
X306752381Y-104313428D01*
X306752381Y-104313428D02*
X306790476Y-104389619D01*
X306790476Y-104389619D02*
X306866666Y-104465809D01*
X306866666Y-104465809D02*
X306980952Y-104503904D01*
X306980952Y-104503904D02*
X307171428Y-104503904D01*
X305990476Y-103703904D02*
X306371428Y-103703904D01*
X306371428Y-103703904D02*
X306409524Y-104084857D01*
X306409524Y-104084857D02*
X306371428Y-104046761D01*
X306371428Y-104046761D02*
X306295238Y-104008666D01*
X306295238Y-104008666D02*
X306104762Y-104008666D01*
X306104762Y-104008666D02*
X306028571Y-104046761D01*
X306028571Y-104046761D02*
X305990476Y-104084857D01*
X305990476Y-104084857D02*
X305952381Y-104161047D01*
X305952381Y-104161047D02*
X305952381Y-104351523D01*
X305952381Y-104351523D02*
X305990476Y-104427714D01*
X305990476Y-104427714D02*
X306028571Y-104465809D01*
X306028571Y-104465809D02*
X306104762Y-104503904D01*
X306104762Y-104503904D02*
X306295238Y-104503904D01*
X306295238Y-104503904D02*
X306371428Y-104465809D01*
X306371428Y-104465809D02*
X306409524Y-104427714D01*
X305228571Y-103703904D02*
X305609523Y-103703904D01*
X305609523Y-103703904D02*
X305647619Y-104084857D01*
X305647619Y-104084857D02*
X305609523Y-104046761D01*
X305609523Y-104046761D02*
X305533333Y-104008666D01*
X305533333Y-104008666D02*
X305342857Y-104008666D01*
X305342857Y-104008666D02*
X305266666Y-104046761D01*
X305266666Y-104046761D02*
X305228571Y-104084857D01*
X305228571Y-104084857D02*
X305190476Y-104161047D01*
X305190476Y-104161047D02*
X305190476Y-104351523D01*
X305190476Y-104351523D02*
X305228571Y-104427714D01*
X305228571Y-104427714D02*
X305266666Y-104465809D01*
X305266666Y-104465809D02*
X305342857Y-104503904D01*
X305342857Y-104503904D02*
X305533333Y-104503904D01*
X305533333Y-104503904D02*
X305609523Y-104465809D01*
X305609523Y-104465809D02*
X305647619Y-104427714D01*
%TO.C,D36*%
X211941428Y-85823904D02*
X211941428Y-85023904D01*
X211941428Y-85023904D02*
X211750952Y-85023904D01*
X211750952Y-85023904D02*
X211636666Y-85062000D01*
X211636666Y-85062000D02*
X211560476Y-85138190D01*
X211560476Y-85138190D02*
X211522381Y-85214380D01*
X211522381Y-85214380D02*
X211484285Y-85366761D01*
X211484285Y-85366761D02*
X211484285Y-85481047D01*
X211484285Y-85481047D02*
X211522381Y-85633428D01*
X211522381Y-85633428D02*
X211560476Y-85709619D01*
X211560476Y-85709619D02*
X211636666Y-85785809D01*
X211636666Y-85785809D02*
X211750952Y-85823904D01*
X211750952Y-85823904D02*
X211941428Y-85823904D01*
X211217619Y-85023904D02*
X210722381Y-85023904D01*
X210722381Y-85023904D02*
X210989047Y-85328666D01*
X210989047Y-85328666D02*
X210874762Y-85328666D01*
X210874762Y-85328666D02*
X210798571Y-85366761D01*
X210798571Y-85366761D02*
X210760476Y-85404857D01*
X210760476Y-85404857D02*
X210722381Y-85481047D01*
X210722381Y-85481047D02*
X210722381Y-85671523D01*
X210722381Y-85671523D02*
X210760476Y-85747714D01*
X210760476Y-85747714D02*
X210798571Y-85785809D01*
X210798571Y-85785809D02*
X210874762Y-85823904D01*
X210874762Y-85823904D02*
X211103333Y-85823904D01*
X211103333Y-85823904D02*
X211179524Y-85785809D01*
X211179524Y-85785809D02*
X211217619Y-85747714D01*
X210036666Y-85023904D02*
X210189047Y-85023904D01*
X210189047Y-85023904D02*
X210265238Y-85062000D01*
X210265238Y-85062000D02*
X210303333Y-85100095D01*
X210303333Y-85100095D02*
X210379523Y-85214380D01*
X210379523Y-85214380D02*
X210417619Y-85366761D01*
X210417619Y-85366761D02*
X210417619Y-85671523D01*
X210417619Y-85671523D02*
X210379523Y-85747714D01*
X210379523Y-85747714D02*
X210341428Y-85785809D01*
X210341428Y-85785809D02*
X210265238Y-85823904D01*
X210265238Y-85823904D02*
X210112857Y-85823904D01*
X210112857Y-85823904D02*
X210036666Y-85785809D01*
X210036666Y-85785809D02*
X209998571Y-85747714D01*
X209998571Y-85747714D02*
X209960476Y-85671523D01*
X209960476Y-85671523D02*
X209960476Y-85481047D01*
X209960476Y-85481047D02*
X209998571Y-85404857D01*
X209998571Y-85404857D02*
X210036666Y-85366761D01*
X210036666Y-85366761D02*
X210112857Y-85328666D01*
X210112857Y-85328666D02*
X210265238Y-85328666D01*
X210265238Y-85328666D02*
X210341428Y-85366761D01*
X210341428Y-85366761D02*
X210379523Y-85404857D01*
X210379523Y-85404857D02*
X210417619Y-85481047D01*
%TO.C,D62*%
X230991428Y-123573904D02*
X230991428Y-122773904D01*
X230991428Y-122773904D02*
X230800952Y-122773904D01*
X230800952Y-122773904D02*
X230686666Y-122812000D01*
X230686666Y-122812000D02*
X230610476Y-122888190D01*
X230610476Y-122888190D02*
X230572381Y-122964380D01*
X230572381Y-122964380D02*
X230534285Y-123116761D01*
X230534285Y-123116761D02*
X230534285Y-123231047D01*
X230534285Y-123231047D02*
X230572381Y-123383428D01*
X230572381Y-123383428D02*
X230610476Y-123459619D01*
X230610476Y-123459619D02*
X230686666Y-123535809D01*
X230686666Y-123535809D02*
X230800952Y-123573904D01*
X230800952Y-123573904D02*
X230991428Y-123573904D01*
X229848571Y-122773904D02*
X230000952Y-122773904D01*
X230000952Y-122773904D02*
X230077143Y-122812000D01*
X230077143Y-122812000D02*
X230115238Y-122850095D01*
X230115238Y-122850095D02*
X230191428Y-122964380D01*
X230191428Y-122964380D02*
X230229524Y-123116761D01*
X230229524Y-123116761D02*
X230229524Y-123421523D01*
X230229524Y-123421523D02*
X230191428Y-123497714D01*
X230191428Y-123497714D02*
X230153333Y-123535809D01*
X230153333Y-123535809D02*
X230077143Y-123573904D01*
X230077143Y-123573904D02*
X229924762Y-123573904D01*
X229924762Y-123573904D02*
X229848571Y-123535809D01*
X229848571Y-123535809D02*
X229810476Y-123497714D01*
X229810476Y-123497714D02*
X229772381Y-123421523D01*
X229772381Y-123421523D02*
X229772381Y-123231047D01*
X229772381Y-123231047D02*
X229810476Y-123154857D01*
X229810476Y-123154857D02*
X229848571Y-123116761D01*
X229848571Y-123116761D02*
X229924762Y-123078666D01*
X229924762Y-123078666D02*
X230077143Y-123078666D01*
X230077143Y-123078666D02*
X230153333Y-123116761D01*
X230153333Y-123116761D02*
X230191428Y-123154857D01*
X230191428Y-123154857D02*
X230229524Y-123231047D01*
X229467619Y-122850095D02*
X229429523Y-122812000D01*
X229429523Y-122812000D02*
X229353333Y-122773904D01*
X229353333Y-122773904D02*
X229162857Y-122773904D01*
X229162857Y-122773904D02*
X229086666Y-122812000D01*
X229086666Y-122812000D02*
X229048571Y-122850095D01*
X229048571Y-122850095D02*
X229010476Y-122926285D01*
X229010476Y-122926285D02*
X229010476Y-123002476D01*
X229010476Y-123002476D02*
X229048571Y-123116761D01*
X229048571Y-123116761D02*
X229505714Y-123573904D01*
X229505714Y-123573904D02*
X229010476Y-123573904D01*
%TO.C,D13*%
X307171428Y-47373904D02*
X307171428Y-46573904D01*
X307171428Y-46573904D02*
X306980952Y-46573904D01*
X306980952Y-46573904D02*
X306866666Y-46612000D01*
X306866666Y-46612000D02*
X306790476Y-46688190D01*
X306790476Y-46688190D02*
X306752381Y-46764380D01*
X306752381Y-46764380D02*
X306714285Y-46916761D01*
X306714285Y-46916761D02*
X306714285Y-47031047D01*
X306714285Y-47031047D02*
X306752381Y-47183428D01*
X306752381Y-47183428D02*
X306790476Y-47259619D01*
X306790476Y-47259619D02*
X306866666Y-47335809D01*
X306866666Y-47335809D02*
X306980952Y-47373904D01*
X306980952Y-47373904D02*
X307171428Y-47373904D01*
X305952381Y-47373904D02*
X306409524Y-47373904D01*
X306180952Y-47373904D02*
X306180952Y-46573904D01*
X306180952Y-46573904D02*
X306257143Y-46688190D01*
X306257143Y-46688190D02*
X306333333Y-46764380D01*
X306333333Y-46764380D02*
X306409524Y-46802476D01*
X305685714Y-46573904D02*
X305190476Y-46573904D01*
X305190476Y-46573904D02*
X305457142Y-46878666D01*
X305457142Y-46878666D02*
X305342857Y-46878666D01*
X305342857Y-46878666D02*
X305266666Y-46916761D01*
X305266666Y-46916761D02*
X305228571Y-46954857D01*
X305228571Y-46954857D02*
X305190476Y-47031047D01*
X305190476Y-47031047D02*
X305190476Y-47221523D01*
X305190476Y-47221523D02*
X305228571Y-47297714D01*
X305228571Y-47297714D02*
X305266666Y-47335809D01*
X305266666Y-47335809D02*
X305342857Y-47373904D01*
X305342857Y-47373904D02*
X305571428Y-47373904D01*
X305571428Y-47373904D02*
X305647619Y-47335809D01*
X305647619Y-47335809D02*
X305685714Y-47297714D01*
D12*
%TO.C,SW53*%
X267974523Y-92969761D02*
X267831666Y-93017380D01*
X267831666Y-93017380D02*
X267593571Y-93017380D01*
X267593571Y-93017380D02*
X267498333Y-92969761D01*
X267498333Y-92969761D02*
X267450714Y-92922142D01*
X267450714Y-92922142D02*
X267403095Y-92826904D01*
X267403095Y-92826904D02*
X267403095Y-92731666D01*
X267403095Y-92731666D02*
X267450714Y-92636428D01*
X267450714Y-92636428D02*
X267498333Y-92588809D01*
X267498333Y-92588809D02*
X267593571Y-92541190D01*
X267593571Y-92541190D02*
X267784047Y-92493571D01*
X267784047Y-92493571D02*
X267879285Y-92445952D01*
X267879285Y-92445952D02*
X267926904Y-92398333D01*
X267926904Y-92398333D02*
X267974523Y-92303095D01*
X267974523Y-92303095D02*
X267974523Y-92207857D01*
X267974523Y-92207857D02*
X267926904Y-92112619D01*
X267926904Y-92112619D02*
X267879285Y-92065000D01*
X267879285Y-92065000D02*
X267784047Y-92017380D01*
X267784047Y-92017380D02*
X267545952Y-92017380D01*
X267545952Y-92017380D02*
X267403095Y-92065000D01*
X267069761Y-92017380D02*
X266831666Y-93017380D01*
X266831666Y-93017380D02*
X266641190Y-92303095D01*
X266641190Y-92303095D02*
X266450714Y-93017380D01*
X266450714Y-93017380D02*
X266212619Y-92017380D01*
X265355476Y-92017380D02*
X265831666Y-92017380D01*
X265831666Y-92017380D02*
X265879285Y-92493571D01*
X265879285Y-92493571D02*
X265831666Y-92445952D01*
X265831666Y-92445952D02*
X265736428Y-92398333D01*
X265736428Y-92398333D02*
X265498333Y-92398333D01*
X265498333Y-92398333D02*
X265403095Y-92445952D01*
X265403095Y-92445952D02*
X265355476Y-92493571D01*
X265355476Y-92493571D02*
X265307857Y-92588809D01*
X265307857Y-92588809D02*
X265307857Y-92826904D01*
X265307857Y-92826904D02*
X265355476Y-92922142D01*
X265355476Y-92922142D02*
X265403095Y-92969761D01*
X265403095Y-92969761D02*
X265498333Y-93017380D01*
X265498333Y-93017380D02*
X265736428Y-93017380D01*
X265736428Y-93017380D02*
X265831666Y-92969761D01*
X265831666Y-92969761D02*
X265879285Y-92922142D01*
X264974523Y-92017380D02*
X264355476Y-92017380D01*
X264355476Y-92017380D02*
X264688809Y-92398333D01*
X264688809Y-92398333D02*
X264545952Y-92398333D01*
X264545952Y-92398333D02*
X264450714Y-92445952D01*
X264450714Y-92445952D02*
X264403095Y-92493571D01*
X264403095Y-92493571D02*
X264355476Y-92588809D01*
X264355476Y-92588809D02*
X264355476Y-92826904D01*
X264355476Y-92826904D02*
X264403095Y-92922142D01*
X264403095Y-92922142D02*
X264450714Y-92969761D01*
X264450714Y-92969761D02*
X264545952Y-93017380D01*
X264545952Y-93017380D02*
X264831666Y-93017380D01*
X264831666Y-93017380D02*
X264926904Y-92969761D01*
X264926904Y-92969761D02*
X264974523Y-92922142D01*
D11*
%TO.C,D54*%
X288216428Y-104603904D02*
X288216428Y-103803904D01*
X288216428Y-103803904D02*
X288025952Y-103803904D01*
X288025952Y-103803904D02*
X287911666Y-103842000D01*
X287911666Y-103842000D02*
X287835476Y-103918190D01*
X287835476Y-103918190D02*
X287797381Y-103994380D01*
X287797381Y-103994380D02*
X287759285Y-104146761D01*
X287759285Y-104146761D02*
X287759285Y-104261047D01*
X287759285Y-104261047D02*
X287797381Y-104413428D01*
X287797381Y-104413428D02*
X287835476Y-104489619D01*
X287835476Y-104489619D02*
X287911666Y-104565809D01*
X287911666Y-104565809D02*
X288025952Y-104603904D01*
X288025952Y-104603904D02*
X288216428Y-104603904D01*
X287035476Y-103803904D02*
X287416428Y-103803904D01*
X287416428Y-103803904D02*
X287454524Y-104184857D01*
X287454524Y-104184857D02*
X287416428Y-104146761D01*
X287416428Y-104146761D02*
X287340238Y-104108666D01*
X287340238Y-104108666D02*
X287149762Y-104108666D01*
X287149762Y-104108666D02*
X287073571Y-104146761D01*
X287073571Y-104146761D02*
X287035476Y-104184857D01*
X287035476Y-104184857D02*
X286997381Y-104261047D01*
X286997381Y-104261047D02*
X286997381Y-104451523D01*
X286997381Y-104451523D02*
X287035476Y-104527714D01*
X287035476Y-104527714D02*
X287073571Y-104565809D01*
X287073571Y-104565809D02*
X287149762Y-104603904D01*
X287149762Y-104603904D02*
X287340238Y-104603904D01*
X287340238Y-104603904D02*
X287416428Y-104565809D01*
X287416428Y-104565809D02*
X287454524Y-104527714D01*
X286311666Y-104070571D02*
X286311666Y-104603904D01*
X286502142Y-103765809D02*
X286692619Y-104337238D01*
X286692619Y-104337238D02*
X286197380Y-104337238D01*
%TO.C,D64*%
X269191428Y-123673904D02*
X269191428Y-122873904D01*
X269191428Y-122873904D02*
X269000952Y-122873904D01*
X269000952Y-122873904D02*
X268886666Y-122912000D01*
X268886666Y-122912000D02*
X268810476Y-122988190D01*
X268810476Y-122988190D02*
X268772381Y-123064380D01*
X268772381Y-123064380D02*
X268734285Y-123216761D01*
X268734285Y-123216761D02*
X268734285Y-123331047D01*
X268734285Y-123331047D02*
X268772381Y-123483428D01*
X268772381Y-123483428D02*
X268810476Y-123559619D01*
X268810476Y-123559619D02*
X268886666Y-123635809D01*
X268886666Y-123635809D02*
X269000952Y-123673904D01*
X269000952Y-123673904D02*
X269191428Y-123673904D01*
X268048571Y-122873904D02*
X268200952Y-122873904D01*
X268200952Y-122873904D02*
X268277143Y-122912000D01*
X268277143Y-122912000D02*
X268315238Y-122950095D01*
X268315238Y-122950095D02*
X268391428Y-123064380D01*
X268391428Y-123064380D02*
X268429524Y-123216761D01*
X268429524Y-123216761D02*
X268429524Y-123521523D01*
X268429524Y-123521523D02*
X268391428Y-123597714D01*
X268391428Y-123597714D02*
X268353333Y-123635809D01*
X268353333Y-123635809D02*
X268277143Y-123673904D01*
X268277143Y-123673904D02*
X268124762Y-123673904D01*
X268124762Y-123673904D02*
X268048571Y-123635809D01*
X268048571Y-123635809D02*
X268010476Y-123597714D01*
X268010476Y-123597714D02*
X267972381Y-123521523D01*
X267972381Y-123521523D02*
X267972381Y-123331047D01*
X267972381Y-123331047D02*
X268010476Y-123254857D01*
X268010476Y-123254857D02*
X268048571Y-123216761D01*
X268048571Y-123216761D02*
X268124762Y-123178666D01*
X268124762Y-123178666D02*
X268277143Y-123178666D01*
X268277143Y-123178666D02*
X268353333Y-123216761D01*
X268353333Y-123216761D02*
X268391428Y-123254857D01*
X268391428Y-123254857D02*
X268429524Y-123331047D01*
X267286666Y-123140571D02*
X267286666Y-123673904D01*
X267477142Y-122835809D02*
X267667619Y-123407238D01*
X267667619Y-123407238D02*
X267172380Y-123407238D01*
D12*
%TO.C,SW28*%
X325074523Y-54869761D02*
X324931666Y-54917380D01*
X324931666Y-54917380D02*
X324693571Y-54917380D01*
X324693571Y-54917380D02*
X324598333Y-54869761D01*
X324598333Y-54869761D02*
X324550714Y-54822142D01*
X324550714Y-54822142D02*
X324503095Y-54726904D01*
X324503095Y-54726904D02*
X324503095Y-54631666D01*
X324503095Y-54631666D02*
X324550714Y-54536428D01*
X324550714Y-54536428D02*
X324598333Y-54488809D01*
X324598333Y-54488809D02*
X324693571Y-54441190D01*
X324693571Y-54441190D02*
X324884047Y-54393571D01*
X324884047Y-54393571D02*
X324979285Y-54345952D01*
X324979285Y-54345952D02*
X325026904Y-54298333D01*
X325026904Y-54298333D02*
X325074523Y-54203095D01*
X325074523Y-54203095D02*
X325074523Y-54107857D01*
X325074523Y-54107857D02*
X325026904Y-54012619D01*
X325026904Y-54012619D02*
X324979285Y-53965000D01*
X324979285Y-53965000D02*
X324884047Y-53917380D01*
X324884047Y-53917380D02*
X324645952Y-53917380D01*
X324645952Y-53917380D02*
X324503095Y-53965000D01*
X324169761Y-53917380D02*
X323931666Y-54917380D01*
X323931666Y-54917380D02*
X323741190Y-54203095D01*
X323741190Y-54203095D02*
X323550714Y-54917380D01*
X323550714Y-54917380D02*
X323312619Y-53917380D01*
X322979285Y-54012619D02*
X322931666Y-53965000D01*
X322931666Y-53965000D02*
X322836428Y-53917380D01*
X322836428Y-53917380D02*
X322598333Y-53917380D01*
X322598333Y-53917380D02*
X322503095Y-53965000D01*
X322503095Y-53965000D02*
X322455476Y-54012619D01*
X322455476Y-54012619D02*
X322407857Y-54107857D01*
X322407857Y-54107857D02*
X322407857Y-54203095D01*
X322407857Y-54203095D02*
X322455476Y-54345952D01*
X322455476Y-54345952D02*
X323026904Y-54917380D01*
X323026904Y-54917380D02*
X322407857Y-54917380D01*
X321836428Y-54345952D02*
X321931666Y-54298333D01*
X321931666Y-54298333D02*
X321979285Y-54250714D01*
X321979285Y-54250714D02*
X322026904Y-54155476D01*
X322026904Y-54155476D02*
X322026904Y-54107857D01*
X322026904Y-54107857D02*
X321979285Y-54012619D01*
X321979285Y-54012619D02*
X321931666Y-53965000D01*
X321931666Y-53965000D02*
X321836428Y-53917380D01*
X321836428Y-53917380D02*
X321645952Y-53917380D01*
X321645952Y-53917380D02*
X321550714Y-53965000D01*
X321550714Y-53965000D02*
X321503095Y-54012619D01*
X321503095Y-54012619D02*
X321455476Y-54107857D01*
X321455476Y-54107857D02*
X321455476Y-54155476D01*
X321455476Y-54155476D02*
X321503095Y-54250714D01*
X321503095Y-54250714D02*
X321550714Y-54298333D01*
X321550714Y-54298333D02*
X321645952Y-54345952D01*
X321645952Y-54345952D02*
X321836428Y-54345952D01*
X321836428Y-54345952D02*
X321931666Y-54393571D01*
X321931666Y-54393571D02*
X321979285Y-54441190D01*
X321979285Y-54441190D02*
X322026904Y-54536428D01*
X322026904Y-54536428D02*
X322026904Y-54726904D01*
X322026904Y-54726904D02*
X321979285Y-54822142D01*
X321979285Y-54822142D02*
X321931666Y-54869761D01*
X321931666Y-54869761D02*
X321836428Y-54917380D01*
X321836428Y-54917380D02*
X321645952Y-54917380D01*
X321645952Y-54917380D02*
X321550714Y-54869761D01*
X321550714Y-54869761D02*
X321503095Y-54822142D01*
X321503095Y-54822142D02*
X321455476Y-54726904D01*
X321455476Y-54726904D02*
X321455476Y-54536428D01*
X321455476Y-54536428D02*
X321503095Y-54441190D01*
X321503095Y-54441190D02*
X321550714Y-54393571D01*
X321550714Y-54393571D02*
X321645952Y-54345952D01*
%TO.C,SW51*%
X229774523Y-92969761D02*
X229631666Y-93017380D01*
X229631666Y-93017380D02*
X229393571Y-93017380D01*
X229393571Y-93017380D02*
X229298333Y-92969761D01*
X229298333Y-92969761D02*
X229250714Y-92922142D01*
X229250714Y-92922142D02*
X229203095Y-92826904D01*
X229203095Y-92826904D02*
X229203095Y-92731666D01*
X229203095Y-92731666D02*
X229250714Y-92636428D01*
X229250714Y-92636428D02*
X229298333Y-92588809D01*
X229298333Y-92588809D02*
X229393571Y-92541190D01*
X229393571Y-92541190D02*
X229584047Y-92493571D01*
X229584047Y-92493571D02*
X229679285Y-92445952D01*
X229679285Y-92445952D02*
X229726904Y-92398333D01*
X229726904Y-92398333D02*
X229774523Y-92303095D01*
X229774523Y-92303095D02*
X229774523Y-92207857D01*
X229774523Y-92207857D02*
X229726904Y-92112619D01*
X229726904Y-92112619D02*
X229679285Y-92065000D01*
X229679285Y-92065000D02*
X229584047Y-92017380D01*
X229584047Y-92017380D02*
X229345952Y-92017380D01*
X229345952Y-92017380D02*
X229203095Y-92065000D01*
X228869761Y-92017380D02*
X228631666Y-93017380D01*
X228631666Y-93017380D02*
X228441190Y-92303095D01*
X228441190Y-92303095D02*
X228250714Y-93017380D01*
X228250714Y-93017380D02*
X228012619Y-92017380D01*
X227155476Y-92017380D02*
X227631666Y-92017380D01*
X227631666Y-92017380D02*
X227679285Y-92493571D01*
X227679285Y-92493571D02*
X227631666Y-92445952D01*
X227631666Y-92445952D02*
X227536428Y-92398333D01*
X227536428Y-92398333D02*
X227298333Y-92398333D01*
X227298333Y-92398333D02*
X227203095Y-92445952D01*
X227203095Y-92445952D02*
X227155476Y-92493571D01*
X227155476Y-92493571D02*
X227107857Y-92588809D01*
X227107857Y-92588809D02*
X227107857Y-92826904D01*
X227107857Y-92826904D02*
X227155476Y-92922142D01*
X227155476Y-92922142D02*
X227203095Y-92969761D01*
X227203095Y-92969761D02*
X227298333Y-93017380D01*
X227298333Y-93017380D02*
X227536428Y-93017380D01*
X227536428Y-93017380D02*
X227631666Y-92969761D01*
X227631666Y-92969761D02*
X227679285Y-92922142D01*
X226155476Y-93017380D02*
X226726904Y-93017380D01*
X226441190Y-93017380D02*
X226441190Y-92017380D01*
X226441190Y-92017380D02*
X226536428Y-92160238D01*
X226536428Y-92160238D02*
X226631666Y-92255476D01*
X226631666Y-92255476D02*
X226726904Y-92303095D01*
D11*
%TO.C,D23*%
X230991428Y-66693904D02*
X230991428Y-65893904D01*
X230991428Y-65893904D02*
X230800952Y-65893904D01*
X230800952Y-65893904D02*
X230686666Y-65932000D01*
X230686666Y-65932000D02*
X230610476Y-66008190D01*
X230610476Y-66008190D02*
X230572381Y-66084380D01*
X230572381Y-66084380D02*
X230534285Y-66236761D01*
X230534285Y-66236761D02*
X230534285Y-66351047D01*
X230534285Y-66351047D02*
X230572381Y-66503428D01*
X230572381Y-66503428D02*
X230610476Y-66579619D01*
X230610476Y-66579619D02*
X230686666Y-66655809D01*
X230686666Y-66655809D02*
X230800952Y-66693904D01*
X230800952Y-66693904D02*
X230991428Y-66693904D01*
X230229524Y-65970095D02*
X230191428Y-65932000D01*
X230191428Y-65932000D02*
X230115238Y-65893904D01*
X230115238Y-65893904D02*
X229924762Y-65893904D01*
X229924762Y-65893904D02*
X229848571Y-65932000D01*
X229848571Y-65932000D02*
X229810476Y-65970095D01*
X229810476Y-65970095D02*
X229772381Y-66046285D01*
X229772381Y-66046285D02*
X229772381Y-66122476D01*
X229772381Y-66122476D02*
X229810476Y-66236761D01*
X229810476Y-66236761D02*
X230267619Y-66693904D01*
X230267619Y-66693904D02*
X229772381Y-66693904D01*
X229505714Y-65893904D02*
X229010476Y-65893904D01*
X229010476Y-65893904D02*
X229277142Y-66198666D01*
X229277142Y-66198666D02*
X229162857Y-66198666D01*
X229162857Y-66198666D02*
X229086666Y-66236761D01*
X229086666Y-66236761D02*
X229048571Y-66274857D01*
X229048571Y-66274857D02*
X229010476Y-66351047D01*
X229010476Y-66351047D02*
X229010476Y-66541523D01*
X229010476Y-66541523D02*
X229048571Y-66617714D01*
X229048571Y-66617714D02*
X229086666Y-66655809D01*
X229086666Y-66655809D02*
X229162857Y-66693904D01*
X229162857Y-66693904D02*
X229391428Y-66693904D01*
X229391428Y-66693904D02*
X229467619Y-66655809D01*
X229467619Y-66655809D02*
X229505714Y-66617714D01*
D12*
%TO.C,SW37*%
X229774523Y-73919761D02*
X229631666Y-73967380D01*
X229631666Y-73967380D02*
X229393571Y-73967380D01*
X229393571Y-73967380D02*
X229298333Y-73919761D01*
X229298333Y-73919761D02*
X229250714Y-73872142D01*
X229250714Y-73872142D02*
X229203095Y-73776904D01*
X229203095Y-73776904D02*
X229203095Y-73681666D01*
X229203095Y-73681666D02*
X229250714Y-73586428D01*
X229250714Y-73586428D02*
X229298333Y-73538809D01*
X229298333Y-73538809D02*
X229393571Y-73491190D01*
X229393571Y-73491190D02*
X229584047Y-73443571D01*
X229584047Y-73443571D02*
X229679285Y-73395952D01*
X229679285Y-73395952D02*
X229726904Y-73348333D01*
X229726904Y-73348333D02*
X229774523Y-73253095D01*
X229774523Y-73253095D02*
X229774523Y-73157857D01*
X229774523Y-73157857D02*
X229726904Y-73062619D01*
X229726904Y-73062619D02*
X229679285Y-73015000D01*
X229679285Y-73015000D02*
X229584047Y-72967380D01*
X229584047Y-72967380D02*
X229345952Y-72967380D01*
X229345952Y-72967380D02*
X229203095Y-73015000D01*
X228869761Y-72967380D02*
X228631666Y-73967380D01*
X228631666Y-73967380D02*
X228441190Y-73253095D01*
X228441190Y-73253095D02*
X228250714Y-73967380D01*
X228250714Y-73967380D02*
X228012619Y-72967380D01*
X227726904Y-72967380D02*
X227107857Y-72967380D01*
X227107857Y-72967380D02*
X227441190Y-73348333D01*
X227441190Y-73348333D02*
X227298333Y-73348333D01*
X227298333Y-73348333D02*
X227203095Y-73395952D01*
X227203095Y-73395952D02*
X227155476Y-73443571D01*
X227155476Y-73443571D02*
X227107857Y-73538809D01*
X227107857Y-73538809D02*
X227107857Y-73776904D01*
X227107857Y-73776904D02*
X227155476Y-73872142D01*
X227155476Y-73872142D02*
X227203095Y-73919761D01*
X227203095Y-73919761D02*
X227298333Y-73967380D01*
X227298333Y-73967380D02*
X227584047Y-73967380D01*
X227584047Y-73967380D02*
X227679285Y-73919761D01*
X227679285Y-73919761D02*
X227726904Y-73872142D01*
X226774523Y-72967380D02*
X226107857Y-72967380D01*
X226107857Y-72967380D02*
X226536428Y-73967380D01*
%TO.C,SW56*%
X325074523Y-92969761D02*
X324931666Y-93017380D01*
X324931666Y-93017380D02*
X324693571Y-93017380D01*
X324693571Y-93017380D02*
X324598333Y-92969761D01*
X324598333Y-92969761D02*
X324550714Y-92922142D01*
X324550714Y-92922142D02*
X324503095Y-92826904D01*
X324503095Y-92826904D02*
X324503095Y-92731666D01*
X324503095Y-92731666D02*
X324550714Y-92636428D01*
X324550714Y-92636428D02*
X324598333Y-92588809D01*
X324598333Y-92588809D02*
X324693571Y-92541190D01*
X324693571Y-92541190D02*
X324884047Y-92493571D01*
X324884047Y-92493571D02*
X324979285Y-92445952D01*
X324979285Y-92445952D02*
X325026904Y-92398333D01*
X325026904Y-92398333D02*
X325074523Y-92303095D01*
X325074523Y-92303095D02*
X325074523Y-92207857D01*
X325074523Y-92207857D02*
X325026904Y-92112619D01*
X325026904Y-92112619D02*
X324979285Y-92065000D01*
X324979285Y-92065000D02*
X324884047Y-92017380D01*
X324884047Y-92017380D02*
X324645952Y-92017380D01*
X324645952Y-92017380D02*
X324503095Y-92065000D01*
X324169761Y-92017380D02*
X323931666Y-93017380D01*
X323931666Y-93017380D02*
X323741190Y-92303095D01*
X323741190Y-92303095D02*
X323550714Y-93017380D01*
X323550714Y-93017380D02*
X323312619Y-92017380D01*
X322455476Y-92017380D02*
X322931666Y-92017380D01*
X322931666Y-92017380D02*
X322979285Y-92493571D01*
X322979285Y-92493571D02*
X322931666Y-92445952D01*
X322931666Y-92445952D02*
X322836428Y-92398333D01*
X322836428Y-92398333D02*
X322598333Y-92398333D01*
X322598333Y-92398333D02*
X322503095Y-92445952D01*
X322503095Y-92445952D02*
X322455476Y-92493571D01*
X322455476Y-92493571D02*
X322407857Y-92588809D01*
X322407857Y-92588809D02*
X322407857Y-92826904D01*
X322407857Y-92826904D02*
X322455476Y-92922142D01*
X322455476Y-92922142D02*
X322503095Y-92969761D01*
X322503095Y-92969761D02*
X322598333Y-93017380D01*
X322598333Y-93017380D02*
X322836428Y-93017380D01*
X322836428Y-93017380D02*
X322931666Y-92969761D01*
X322931666Y-92969761D02*
X322979285Y-92922142D01*
X321550714Y-92017380D02*
X321741190Y-92017380D01*
X321741190Y-92017380D02*
X321836428Y-92065000D01*
X321836428Y-92065000D02*
X321884047Y-92112619D01*
X321884047Y-92112619D02*
X321979285Y-92255476D01*
X321979285Y-92255476D02*
X322026904Y-92445952D01*
X322026904Y-92445952D02*
X322026904Y-92826904D01*
X322026904Y-92826904D02*
X321979285Y-92922142D01*
X321979285Y-92922142D02*
X321931666Y-92969761D01*
X321931666Y-92969761D02*
X321836428Y-93017380D01*
X321836428Y-93017380D02*
X321645952Y-93017380D01*
X321645952Y-93017380D02*
X321550714Y-92969761D01*
X321550714Y-92969761D02*
X321503095Y-92922142D01*
X321503095Y-92922142D02*
X321455476Y-92826904D01*
X321455476Y-92826904D02*
X321455476Y-92588809D01*
X321455476Y-92588809D02*
X321503095Y-92493571D01*
X321503095Y-92493571D02*
X321550714Y-92445952D01*
X321550714Y-92445952D02*
X321645952Y-92398333D01*
X321645952Y-92398333D02*
X321836428Y-92398333D01*
X321836428Y-92398333D02*
X321931666Y-92445952D01*
X321931666Y-92445952D02*
X321979285Y-92493571D01*
X321979285Y-92493571D02*
X322026904Y-92588809D01*
D11*
%TO.C,D63*%
X250076428Y-123573904D02*
X250076428Y-122773904D01*
X250076428Y-122773904D02*
X249885952Y-122773904D01*
X249885952Y-122773904D02*
X249771666Y-122812000D01*
X249771666Y-122812000D02*
X249695476Y-122888190D01*
X249695476Y-122888190D02*
X249657381Y-122964380D01*
X249657381Y-122964380D02*
X249619285Y-123116761D01*
X249619285Y-123116761D02*
X249619285Y-123231047D01*
X249619285Y-123231047D02*
X249657381Y-123383428D01*
X249657381Y-123383428D02*
X249695476Y-123459619D01*
X249695476Y-123459619D02*
X249771666Y-123535809D01*
X249771666Y-123535809D02*
X249885952Y-123573904D01*
X249885952Y-123573904D02*
X250076428Y-123573904D01*
X248933571Y-122773904D02*
X249085952Y-122773904D01*
X249085952Y-122773904D02*
X249162143Y-122812000D01*
X249162143Y-122812000D02*
X249200238Y-122850095D01*
X249200238Y-122850095D02*
X249276428Y-122964380D01*
X249276428Y-122964380D02*
X249314524Y-123116761D01*
X249314524Y-123116761D02*
X249314524Y-123421523D01*
X249314524Y-123421523D02*
X249276428Y-123497714D01*
X249276428Y-123497714D02*
X249238333Y-123535809D01*
X249238333Y-123535809D02*
X249162143Y-123573904D01*
X249162143Y-123573904D02*
X249009762Y-123573904D01*
X249009762Y-123573904D02*
X248933571Y-123535809D01*
X248933571Y-123535809D02*
X248895476Y-123497714D01*
X248895476Y-123497714D02*
X248857381Y-123421523D01*
X248857381Y-123421523D02*
X248857381Y-123231047D01*
X248857381Y-123231047D02*
X248895476Y-123154857D01*
X248895476Y-123154857D02*
X248933571Y-123116761D01*
X248933571Y-123116761D02*
X249009762Y-123078666D01*
X249009762Y-123078666D02*
X249162143Y-123078666D01*
X249162143Y-123078666D02*
X249238333Y-123116761D01*
X249238333Y-123116761D02*
X249276428Y-123154857D01*
X249276428Y-123154857D02*
X249314524Y-123231047D01*
X248590714Y-122773904D02*
X248095476Y-122773904D01*
X248095476Y-122773904D02*
X248362142Y-123078666D01*
X248362142Y-123078666D02*
X248247857Y-123078666D01*
X248247857Y-123078666D02*
X248171666Y-123116761D01*
X248171666Y-123116761D02*
X248133571Y-123154857D01*
X248133571Y-123154857D02*
X248095476Y-123231047D01*
X248095476Y-123231047D02*
X248095476Y-123421523D01*
X248095476Y-123421523D02*
X248133571Y-123497714D01*
X248133571Y-123497714D02*
X248171666Y-123535809D01*
X248171666Y-123535809D02*
X248247857Y-123573904D01*
X248247857Y-123573904D02*
X248476428Y-123573904D01*
X248476428Y-123573904D02*
X248552619Y-123535809D01*
X248552619Y-123535809D02*
X248590714Y-123497714D01*
D12*
%TO.C,SW9*%
X229298332Y-35819761D02*
X229155475Y-35867380D01*
X229155475Y-35867380D02*
X228917380Y-35867380D01*
X228917380Y-35867380D02*
X228822142Y-35819761D01*
X228822142Y-35819761D02*
X228774523Y-35772142D01*
X228774523Y-35772142D02*
X228726904Y-35676904D01*
X228726904Y-35676904D02*
X228726904Y-35581666D01*
X228726904Y-35581666D02*
X228774523Y-35486428D01*
X228774523Y-35486428D02*
X228822142Y-35438809D01*
X228822142Y-35438809D02*
X228917380Y-35391190D01*
X228917380Y-35391190D02*
X229107856Y-35343571D01*
X229107856Y-35343571D02*
X229203094Y-35295952D01*
X229203094Y-35295952D02*
X229250713Y-35248333D01*
X229250713Y-35248333D02*
X229298332Y-35153095D01*
X229298332Y-35153095D02*
X229298332Y-35057857D01*
X229298332Y-35057857D02*
X229250713Y-34962619D01*
X229250713Y-34962619D02*
X229203094Y-34915000D01*
X229203094Y-34915000D02*
X229107856Y-34867380D01*
X229107856Y-34867380D02*
X228869761Y-34867380D01*
X228869761Y-34867380D02*
X228726904Y-34915000D01*
X228393570Y-34867380D02*
X228155475Y-35867380D01*
X228155475Y-35867380D02*
X227964999Y-35153095D01*
X227964999Y-35153095D02*
X227774523Y-35867380D01*
X227774523Y-35867380D02*
X227536428Y-34867380D01*
X227107856Y-35867380D02*
X226917380Y-35867380D01*
X226917380Y-35867380D02*
X226822142Y-35819761D01*
X226822142Y-35819761D02*
X226774523Y-35772142D01*
X226774523Y-35772142D02*
X226679285Y-35629285D01*
X226679285Y-35629285D02*
X226631666Y-35438809D01*
X226631666Y-35438809D02*
X226631666Y-35057857D01*
X226631666Y-35057857D02*
X226679285Y-34962619D01*
X226679285Y-34962619D02*
X226726904Y-34915000D01*
X226726904Y-34915000D02*
X226822142Y-34867380D01*
X226822142Y-34867380D02*
X227012618Y-34867380D01*
X227012618Y-34867380D02*
X227107856Y-34915000D01*
X227107856Y-34915000D02*
X227155475Y-34962619D01*
X227155475Y-34962619D02*
X227203094Y-35057857D01*
X227203094Y-35057857D02*
X227203094Y-35295952D01*
X227203094Y-35295952D02*
X227155475Y-35391190D01*
X227155475Y-35391190D02*
X227107856Y-35438809D01*
X227107856Y-35438809D02*
X227012618Y-35486428D01*
X227012618Y-35486428D02*
X226822142Y-35486428D01*
X226822142Y-35486428D02*
X226726904Y-35438809D01*
X226726904Y-35438809D02*
X226679285Y-35391190D01*
X226679285Y-35391190D02*
X226631666Y-35295952D01*
%TO.C,SW27*%
X305974523Y-54869761D02*
X305831666Y-54917380D01*
X305831666Y-54917380D02*
X305593571Y-54917380D01*
X305593571Y-54917380D02*
X305498333Y-54869761D01*
X305498333Y-54869761D02*
X305450714Y-54822142D01*
X305450714Y-54822142D02*
X305403095Y-54726904D01*
X305403095Y-54726904D02*
X305403095Y-54631666D01*
X305403095Y-54631666D02*
X305450714Y-54536428D01*
X305450714Y-54536428D02*
X305498333Y-54488809D01*
X305498333Y-54488809D02*
X305593571Y-54441190D01*
X305593571Y-54441190D02*
X305784047Y-54393571D01*
X305784047Y-54393571D02*
X305879285Y-54345952D01*
X305879285Y-54345952D02*
X305926904Y-54298333D01*
X305926904Y-54298333D02*
X305974523Y-54203095D01*
X305974523Y-54203095D02*
X305974523Y-54107857D01*
X305974523Y-54107857D02*
X305926904Y-54012619D01*
X305926904Y-54012619D02*
X305879285Y-53965000D01*
X305879285Y-53965000D02*
X305784047Y-53917380D01*
X305784047Y-53917380D02*
X305545952Y-53917380D01*
X305545952Y-53917380D02*
X305403095Y-53965000D01*
X305069761Y-53917380D02*
X304831666Y-54917380D01*
X304831666Y-54917380D02*
X304641190Y-54203095D01*
X304641190Y-54203095D02*
X304450714Y-54917380D01*
X304450714Y-54917380D02*
X304212619Y-53917380D01*
X303879285Y-54012619D02*
X303831666Y-53965000D01*
X303831666Y-53965000D02*
X303736428Y-53917380D01*
X303736428Y-53917380D02*
X303498333Y-53917380D01*
X303498333Y-53917380D02*
X303403095Y-53965000D01*
X303403095Y-53965000D02*
X303355476Y-54012619D01*
X303355476Y-54012619D02*
X303307857Y-54107857D01*
X303307857Y-54107857D02*
X303307857Y-54203095D01*
X303307857Y-54203095D02*
X303355476Y-54345952D01*
X303355476Y-54345952D02*
X303926904Y-54917380D01*
X303926904Y-54917380D02*
X303307857Y-54917380D01*
X302974523Y-53917380D02*
X302307857Y-53917380D01*
X302307857Y-53917380D02*
X302736428Y-54917380D01*
%TO.C,SW14*%
X325074523Y-35819761D02*
X324931666Y-35867380D01*
X324931666Y-35867380D02*
X324693571Y-35867380D01*
X324693571Y-35867380D02*
X324598333Y-35819761D01*
X324598333Y-35819761D02*
X324550714Y-35772142D01*
X324550714Y-35772142D02*
X324503095Y-35676904D01*
X324503095Y-35676904D02*
X324503095Y-35581666D01*
X324503095Y-35581666D02*
X324550714Y-35486428D01*
X324550714Y-35486428D02*
X324598333Y-35438809D01*
X324598333Y-35438809D02*
X324693571Y-35391190D01*
X324693571Y-35391190D02*
X324884047Y-35343571D01*
X324884047Y-35343571D02*
X324979285Y-35295952D01*
X324979285Y-35295952D02*
X325026904Y-35248333D01*
X325026904Y-35248333D02*
X325074523Y-35153095D01*
X325074523Y-35153095D02*
X325074523Y-35057857D01*
X325074523Y-35057857D02*
X325026904Y-34962619D01*
X325026904Y-34962619D02*
X324979285Y-34915000D01*
X324979285Y-34915000D02*
X324884047Y-34867380D01*
X324884047Y-34867380D02*
X324645952Y-34867380D01*
X324645952Y-34867380D02*
X324503095Y-34915000D01*
X324169761Y-34867380D02*
X323931666Y-35867380D01*
X323931666Y-35867380D02*
X323741190Y-35153095D01*
X323741190Y-35153095D02*
X323550714Y-35867380D01*
X323550714Y-35867380D02*
X323312619Y-34867380D01*
X322407857Y-35867380D02*
X322979285Y-35867380D01*
X322693571Y-35867380D02*
X322693571Y-34867380D01*
X322693571Y-34867380D02*
X322788809Y-35010238D01*
X322788809Y-35010238D02*
X322884047Y-35105476D01*
X322884047Y-35105476D02*
X322979285Y-35153095D01*
X321550714Y-35200714D02*
X321550714Y-35867380D01*
X321788809Y-34819761D02*
X322026904Y-35534047D01*
X322026904Y-35534047D02*
X321407857Y-35534047D01*
%TO.C,SW50*%
X210774523Y-92969761D02*
X210631666Y-93017380D01*
X210631666Y-93017380D02*
X210393571Y-93017380D01*
X210393571Y-93017380D02*
X210298333Y-92969761D01*
X210298333Y-92969761D02*
X210250714Y-92922142D01*
X210250714Y-92922142D02*
X210203095Y-92826904D01*
X210203095Y-92826904D02*
X210203095Y-92731666D01*
X210203095Y-92731666D02*
X210250714Y-92636428D01*
X210250714Y-92636428D02*
X210298333Y-92588809D01*
X210298333Y-92588809D02*
X210393571Y-92541190D01*
X210393571Y-92541190D02*
X210584047Y-92493571D01*
X210584047Y-92493571D02*
X210679285Y-92445952D01*
X210679285Y-92445952D02*
X210726904Y-92398333D01*
X210726904Y-92398333D02*
X210774523Y-92303095D01*
X210774523Y-92303095D02*
X210774523Y-92207857D01*
X210774523Y-92207857D02*
X210726904Y-92112619D01*
X210726904Y-92112619D02*
X210679285Y-92065000D01*
X210679285Y-92065000D02*
X210584047Y-92017380D01*
X210584047Y-92017380D02*
X210345952Y-92017380D01*
X210345952Y-92017380D02*
X210203095Y-92065000D01*
X209869761Y-92017380D02*
X209631666Y-93017380D01*
X209631666Y-93017380D02*
X209441190Y-92303095D01*
X209441190Y-92303095D02*
X209250714Y-93017380D01*
X209250714Y-93017380D02*
X209012619Y-92017380D01*
X208155476Y-92017380D02*
X208631666Y-92017380D01*
X208631666Y-92017380D02*
X208679285Y-92493571D01*
X208679285Y-92493571D02*
X208631666Y-92445952D01*
X208631666Y-92445952D02*
X208536428Y-92398333D01*
X208536428Y-92398333D02*
X208298333Y-92398333D01*
X208298333Y-92398333D02*
X208203095Y-92445952D01*
X208203095Y-92445952D02*
X208155476Y-92493571D01*
X208155476Y-92493571D02*
X208107857Y-92588809D01*
X208107857Y-92588809D02*
X208107857Y-92826904D01*
X208107857Y-92826904D02*
X208155476Y-92922142D01*
X208155476Y-92922142D02*
X208203095Y-92969761D01*
X208203095Y-92969761D02*
X208298333Y-93017380D01*
X208298333Y-93017380D02*
X208536428Y-93017380D01*
X208536428Y-93017380D02*
X208631666Y-92969761D01*
X208631666Y-92969761D02*
X208679285Y-92922142D01*
X207488809Y-92017380D02*
X207393571Y-92017380D01*
X207393571Y-92017380D02*
X207298333Y-92065000D01*
X207298333Y-92065000D02*
X207250714Y-92112619D01*
X207250714Y-92112619D02*
X207203095Y-92207857D01*
X207203095Y-92207857D02*
X207155476Y-92398333D01*
X207155476Y-92398333D02*
X207155476Y-92636428D01*
X207155476Y-92636428D02*
X207203095Y-92826904D01*
X207203095Y-92826904D02*
X207250714Y-92922142D01*
X207250714Y-92922142D02*
X207298333Y-92969761D01*
X207298333Y-92969761D02*
X207393571Y-93017380D01*
X207393571Y-93017380D02*
X207488809Y-93017380D01*
X207488809Y-93017380D02*
X207584047Y-92969761D01*
X207584047Y-92969761D02*
X207631666Y-92922142D01*
X207631666Y-92922142D02*
X207679285Y-92826904D01*
X207679285Y-92826904D02*
X207726904Y-92636428D01*
X207726904Y-92636428D02*
X207726904Y-92398333D01*
X207726904Y-92398333D02*
X207679285Y-92207857D01*
X207679285Y-92207857D02*
X207631666Y-92112619D01*
X207631666Y-92112619D02*
X207584047Y-92065000D01*
X207584047Y-92065000D02*
X207488809Y-92017380D01*
%TO.C,SW38*%
X248874523Y-73919761D02*
X248731666Y-73967380D01*
X248731666Y-73967380D02*
X248493571Y-73967380D01*
X248493571Y-73967380D02*
X248398333Y-73919761D01*
X248398333Y-73919761D02*
X248350714Y-73872142D01*
X248350714Y-73872142D02*
X248303095Y-73776904D01*
X248303095Y-73776904D02*
X248303095Y-73681666D01*
X248303095Y-73681666D02*
X248350714Y-73586428D01*
X248350714Y-73586428D02*
X248398333Y-73538809D01*
X248398333Y-73538809D02*
X248493571Y-73491190D01*
X248493571Y-73491190D02*
X248684047Y-73443571D01*
X248684047Y-73443571D02*
X248779285Y-73395952D01*
X248779285Y-73395952D02*
X248826904Y-73348333D01*
X248826904Y-73348333D02*
X248874523Y-73253095D01*
X248874523Y-73253095D02*
X248874523Y-73157857D01*
X248874523Y-73157857D02*
X248826904Y-73062619D01*
X248826904Y-73062619D02*
X248779285Y-73015000D01*
X248779285Y-73015000D02*
X248684047Y-72967380D01*
X248684047Y-72967380D02*
X248445952Y-72967380D01*
X248445952Y-72967380D02*
X248303095Y-73015000D01*
X247969761Y-72967380D02*
X247731666Y-73967380D01*
X247731666Y-73967380D02*
X247541190Y-73253095D01*
X247541190Y-73253095D02*
X247350714Y-73967380D01*
X247350714Y-73967380D02*
X247112619Y-72967380D01*
X246826904Y-72967380D02*
X246207857Y-72967380D01*
X246207857Y-72967380D02*
X246541190Y-73348333D01*
X246541190Y-73348333D02*
X246398333Y-73348333D01*
X246398333Y-73348333D02*
X246303095Y-73395952D01*
X246303095Y-73395952D02*
X246255476Y-73443571D01*
X246255476Y-73443571D02*
X246207857Y-73538809D01*
X246207857Y-73538809D02*
X246207857Y-73776904D01*
X246207857Y-73776904D02*
X246255476Y-73872142D01*
X246255476Y-73872142D02*
X246303095Y-73919761D01*
X246303095Y-73919761D02*
X246398333Y-73967380D01*
X246398333Y-73967380D02*
X246684047Y-73967380D01*
X246684047Y-73967380D02*
X246779285Y-73919761D01*
X246779285Y-73919761D02*
X246826904Y-73872142D01*
X245636428Y-73395952D02*
X245731666Y-73348333D01*
X245731666Y-73348333D02*
X245779285Y-73300714D01*
X245779285Y-73300714D02*
X245826904Y-73205476D01*
X245826904Y-73205476D02*
X245826904Y-73157857D01*
X245826904Y-73157857D02*
X245779285Y-73062619D01*
X245779285Y-73062619D02*
X245731666Y-73015000D01*
X245731666Y-73015000D02*
X245636428Y-72967380D01*
X245636428Y-72967380D02*
X245445952Y-72967380D01*
X245445952Y-72967380D02*
X245350714Y-73015000D01*
X245350714Y-73015000D02*
X245303095Y-73062619D01*
X245303095Y-73062619D02*
X245255476Y-73157857D01*
X245255476Y-73157857D02*
X245255476Y-73205476D01*
X245255476Y-73205476D02*
X245303095Y-73300714D01*
X245303095Y-73300714D02*
X245350714Y-73348333D01*
X245350714Y-73348333D02*
X245445952Y-73395952D01*
X245445952Y-73395952D02*
X245636428Y-73395952D01*
X245636428Y-73395952D02*
X245731666Y-73443571D01*
X245731666Y-73443571D02*
X245779285Y-73491190D01*
X245779285Y-73491190D02*
X245826904Y-73586428D01*
X245826904Y-73586428D02*
X245826904Y-73776904D01*
X245826904Y-73776904D02*
X245779285Y-73872142D01*
X245779285Y-73872142D02*
X245731666Y-73919761D01*
X245731666Y-73919761D02*
X245636428Y-73967380D01*
X245636428Y-73967380D02*
X245445952Y-73967380D01*
X245445952Y-73967380D02*
X245350714Y-73919761D01*
X245350714Y-73919761D02*
X245303095Y-73872142D01*
X245303095Y-73872142D02*
X245255476Y-73776904D01*
X245255476Y-73776904D02*
X245255476Y-73586428D01*
X245255476Y-73586428D02*
X245303095Y-73491190D01*
X245303095Y-73491190D02*
X245350714Y-73443571D01*
X245350714Y-73443571D02*
X245445952Y-73395952D01*
%TO.C,SW11*%
X267974523Y-35819761D02*
X267831666Y-35867380D01*
X267831666Y-35867380D02*
X267593571Y-35867380D01*
X267593571Y-35867380D02*
X267498333Y-35819761D01*
X267498333Y-35819761D02*
X267450714Y-35772142D01*
X267450714Y-35772142D02*
X267403095Y-35676904D01*
X267403095Y-35676904D02*
X267403095Y-35581666D01*
X267403095Y-35581666D02*
X267450714Y-35486428D01*
X267450714Y-35486428D02*
X267498333Y-35438809D01*
X267498333Y-35438809D02*
X267593571Y-35391190D01*
X267593571Y-35391190D02*
X267784047Y-35343571D01*
X267784047Y-35343571D02*
X267879285Y-35295952D01*
X267879285Y-35295952D02*
X267926904Y-35248333D01*
X267926904Y-35248333D02*
X267974523Y-35153095D01*
X267974523Y-35153095D02*
X267974523Y-35057857D01*
X267974523Y-35057857D02*
X267926904Y-34962619D01*
X267926904Y-34962619D02*
X267879285Y-34915000D01*
X267879285Y-34915000D02*
X267784047Y-34867380D01*
X267784047Y-34867380D02*
X267545952Y-34867380D01*
X267545952Y-34867380D02*
X267403095Y-34915000D01*
X267069761Y-34867380D02*
X266831666Y-35867380D01*
X266831666Y-35867380D02*
X266641190Y-35153095D01*
X266641190Y-35153095D02*
X266450714Y-35867380D01*
X266450714Y-35867380D02*
X266212619Y-34867380D01*
X265307857Y-35867380D02*
X265879285Y-35867380D01*
X265593571Y-35867380D02*
X265593571Y-34867380D01*
X265593571Y-34867380D02*
X265688809Y-35010238D01*
X265688809Y-35010238D02*
X265784047Y-35105476D01*
X265784047Y-35105476D02*
X265879285Y-35153095D01*
X264355476Y-35867380D02*
X264926904Y-35867380D01*
X264641190Y-35867380D02*
X264641190Y-34867380D01*
X264641190Y-34867380D02*
X264736428Y-35010238D01*
X264736428Y-35010238D02*
X264831666Y-35105476D01*
X264831666Y-35105476D02*
X264926904Y-35153095D01*
D11*
%TO.C,D50*%
X211941428Y-104503904D02*
X211941428Y-103703904D01*
X211941428Y-103703904D02*
X211750952Y-103703904D01*
X211750952Y-103703904D02*
X211636666Y-103742000D01*
X211636666Y-103742000D02*
X211560476Y-103818190D01*
X211560476Y-103818190D02*
X211522381Y-103894380D01*
X211522381Y-103894380D02*
X211484285Y-104046761D01*
X211484285Y-104046761D02*
X211484285Y-104161047D01*
X211484285Y-104161047D02*
X211522381Y-104313428D01*
X211522381Y-104313428D02*
X211560476Y-104389619D01*
X211560476Y-104389619D02*
X211636666Y-104465809D01*
X211636666Y-104465809D02*
X211750952Y-104503904D01*
X211750952Y-104503904D02*
X211941428Y-104503904D01*
X210760476Y-103703904D02*
X211141428Y-103703904D01*
X211141428Y-103703904D02*
X211179524Y-104084857D01*
X211179524Y-104084857D02*
X211141428Y-104046761D01*
X211141428Y-104046761D02*
X211065238Y-104008666D01*
X211065238Y-104008666D02*
X210874762Y-104008666D01*
X210874762Y-104008666D02*
X210798571Y-104046761D01*
X210798571Y-104046761D02*
X210760476Y-104084857D01*
X210760476Y-104084857D02*
X210722381Y-104161047D01*
X210722381Y-104161047D02*
X210722381Y-104351523D01*
X210722381Y-104351523D02*
X210760476Y-104427714D01*
X210760476Y-104427714D02*
X210798571Y-104465809D01*
X210798571Y-104465809D02*
X210874762Y-104503904D01*
X210874762Y-104503904D02*
X211065238Y-104503904D01*
X211065238Y-104503904D02*
X211141428Y-104465809D01*
X211141428Y-104465809D02*
X211179524Y-104427714D01*
X210227142Y-103703904D02*
X210150952Y-103703904D01*
X210150952Y-103703904D02*
X210074761Y-103742000D01*
X210074761Y-103742000D02*
X210036666Y-103780095D01*
X210036666Y-103780095D02*
X209998571Y-103856285D01*
X209998571Y-103856285D02*
X209960476Y-104008666D01*
X209960476Y-104008666D02*
X209960476Y-104199142D01*
X209960476Y-104199142D02*
X209998571Y-104351523D01*
X209998571Y-104351523D02*
X210036666Y-104427714D01*
X210036666Y-104427714D02*
X210074761Y-104465809D01*
X210074761Y-104465809D02*
X210150952Y-104503904D01*
X210150952Y-104503904D02*
X210227142Y-104503904D01*
X210227142Y-104503904D02*
X210303333Y-104465809D01*
X210303333Y-104465809D02*
X210341428Y-104427714D01*
X210341428Y-104427714D02*
X210379523Y-104351523D01*
X210379523Y-104351523D02*
X210417619Y-104199142D01*
X210417619Y-104199142D02*
X210417619Y-104008666D01*
X210417619Y-104008666D02*
X210379523Y-103856285D01*
X210379523Y-103856285D02*
X210341428Y-103780095D01*
X210341428Y-103780095D02*
X210303333Y-103742000D01*
X210303333Y-103742000D02*
X210227142Y-103703904D01*
D12*
%TO.C,SW52*%
X248874523Y-92969761D02*
X248731666Y-93017380D01*
X248731666Y-93017380D02*
X248493571Y-93017380D01*
X248493571Y-93017380D02*
X248398333Y-92969761D01*
X248398333Y-92969761D02*
X248350714Y-92922142D01*
X248350714Y-92922142D02*
X248303095Y-92826904D01*
X248303095Y-92826904D02*
X248303095Y-92731666D01*
X248303095Y-92731666D02*
X248350714Y-92636428D01*
X248350714Y-92636428D02*
X248398333Y-92588809D01*
X248398333Y-92588809D02*
X248493571Y-92541190D01*
X248493571Y-92541190D02*
X248684047Y-92493571D01*
X248684047Y-92493571D02*
X248779285Y-92445952D01*
X248779285Y-92445952D02*
X248826904Y-92398333D01*
X248826904Y-92398333D02*
X248874523Y-92303095D01*
X248874523Y-92303095D02*
X248874523Y-92207857D01*
X248874523Y-92207857D02*
X248826904Y-92112619D01*
X248826904Y-92112619D02*
X248779285Y-92065000D01*
X248779285Y-92065000D02*
X248684047Y-92017380D01*
X248684047Y-92017380D02*
X248445952Y-92017380D01*
X248445952Y-92017380D02*
X248303095Y-92065000D01*
X247969761Y-92017380D02*
X247731666Y-93017380D01*
X247731666Y-93017380D02*
X247541190Y-92303095D01*
X247541190Y-92303095D02*
X247350714Y-93017380D01*
X247350714Y-93017380D02*
X247112619Y-92017380D01*
X246255476Y-92017380D02*
X246731666Y-92017380D01*
X246731666Y-92017380D02*
X246779285Y-92493571D01*
X246779285Y-92493571D02*
X246731666Y-92445952D01*
X246731666Y-92445952D02*
X246636428Y-92398333D01*
X246636428Y-92398333D02*
X246398333Y-92398333D01*
X246398333Y-92398333D02*
X246303095Y-92445952D01*
X246303095Y-92445952D02*
X246255476Y-92493571D01*
X246255476Y-92493571D02*
X246207857Y-92588809D01*
X246207857Y-92588809D02*
X246207857Y-92826904D01*
X246207857Y-92826904D02*
X246255476Y-92922142D01*
X246255476Y-92922142D02*
X246303095Y-92969761D01*
X246303095Y-92969761D02*
X246398333Y-93017380D01*
X246398333Y-93017380D02*
X246636428Y-93017380D01*
X246636428Y-93017380D02*
X246731666Y-92969761D01*
X246731666Y-92969761D02*
X246779285Y-92922142D01*
X245826904Y-92112619D02*
X245779285Y-92065000D01*
X245779285Y-92065000D02*
X245684047Y-92017380D01*
X245684047Y-92017380D02*
X245445952Y-92017380D01*
X245445952Y-92017380D02*
X245350714Y-92065000D01*
X245350714Y-92065000D02*
X245303095Y-92112619D01*
X245303095Y-92112619D02*
X245255476Y-92207857D01*
X245255476Y-92207857D02*
X245255476Y-92303095D01*
X245255476Y-92303095D02*
X245303095Y-92445952D01*
X245303095Y-92445952D02*
X245874523Y-93017380D01*
X245874523Y-93017380D02*
X245255476Y-93017380D01*
D11*
%TO.C,D10*%
X250076428Y-47373904D02*
X250076428Y-46573904D01*
X250076428Y-46573904D02*
X249885952Y-46573904D01*
X249885952Y-46573904D02*
X249771666Y-46612000D01*
X249771666Y-46612000D02*
X249695476Y-46688190D01*
X249695476Y-46688190D02*
X249657381Y-46764380D01*
X249657381Y-46764380D02*
X249619285Y-46916761D01*
X249619285Y-46916761D02*
X249619285Y-47031047D01*
X249619285Y-47031047D02*
X249657381Y-47183428D01*
X249657381Y-47183428D02*
X249695476Y-47259619D01*
X249695476Y-47259619D02*
X249771666Y-47335809D01*
X249771666Y-47335809D02*
X249885952Y-47373904D01*
X249885952Y-47373904D02*
X250076428Y-47373904D01*
X248857381Y-47373904D02*
X249314524Y-47373904D01*
X249085952Y-47373904D02*
X249085952Y-46573904D01*
X249085952Y-46573904D02*
X249162143Y-46688190D01*
X249162143Y-46688190D02*
X249238333Y-46764380D01*
X249238333Y-46764380D02*
X249314524Y-46802476D01*
X248362142Y-46573904D02*
X248285952Y-46573904D01*
X248285952Y-46573904D02*
X248209761Y-46612000D01*
X248209761Y-46612000D02*
X248171666Y-46650095D01*
X248171666Y-46650095D02*
X248133571Y-46726285D01*
X248133571Y-46726285D02*
X248095476Y-46878666D01*
X248095476Y-46878666D02*
X248095476Y-47069142D01*
X248095476Y-47069142D02*
X248133571Y-47221523D01*
X248133571Y-47221523D02*
X248171666Y-47297714D01*
X248171666Y-47297714D02*
X248209761Y-47335809D01*
X248209761Y-47335809D02*
X248285952Y-47373904D01*
X248285952Y-47373904D02*
X248362142Y-47373904D01*
X248362142Y-47373904D02*
X248438333Y-47335809D01*
X248438333Y-47335809D02*
X248476428Y-47297714D01*
X248476428Y-47297714D02*
X248514523Y-47221523D01*
X248514523Y-47221523D02*
X248552619Y-47069142D01*
X248552619Y-47069142D02*
X248552619Y-46878666D01*
X248552619Y-46878666D02*
X248514523Y-46726285D01*
X248514523Y-46726285D02*
X248476428Y-46650095D01*
X248476428Y-46650095D02*
X248438333Y-46612000D01*
X248438333Y-46612000D02*
X248362142Y-46573904D01*
D12*
%TO.C,SW39*%
X267974523Y-73919761D02*
X267831666Y-73967380D01*
X267831666Y-73967380D02*
X267593571Y-73967380D01*
X267593571Y-73967380D02*
X267498333Y-73919761D01*
X267498333Y-73919761D02*
X267450714Y-73872142D01*
X267450714Y-73872142D02*
X267403095Y-73776904D01*
X267403095Y-73776904D02*
X267403095Y-73681666D01*
X267403095Y-73681666D02*
X267450714Y-73586428D01*
X267450714Y-73586428D02*
X267498333Y-73538809D01*
X267498333Y-73538809D02*
X267593571Y-73491190D01*
X267593571Y-73491190D02*
X267784047Y-73443571D01*
X267784047Y-73443571D02*
X267879285Y-73395952D01*
X267879285Y-73395952D02*
X267926904Y-73348333D01*
X267926904Y-73348333D02*
X267974523Y-73253095D01*
X267974523Y-73253095D02*
X267974523Y-73157857D01*
X267974523Y-73157857D02*
X267926904Y-73062619D01*
X267926904Y-73062619D02*
X267879285Y-73015000D01*
X267879285Y-73015000D02*
X267784047Y-72967380D01*
X267784047Y-72967380D02*
X267545952Y-72967380D01*
X267545952Y-72967380D02*
X267403095Y-73015000D01*
X267069761Y-72967380D02*
X266831666Y-73967380D01*
X266831666Y-73967380D02*
X266641190Y-73253095D01*
X266641190Y-73253095D02*
X266450714Y-73967380D01*
X266450714Y-73967380D02*
X266212619Y-72967380D01*
X265926904Y-72967380D02*
X265307857Y-72967380D01*
X265307857Y-72967380D02*
X265641190Y-73348333D01*
X265641190Y-73348333D02*
X265498333Y-73348333D01*
X265498333Y-73348333D02*
X265403095Y-73395952D01*
X265403095Y-73395952D02*
X265355476Y-73443571D01*
X265355476Y-73443571D02*
X265307857Y-73538809D01*
X265307857Y-73538809D02*
X265307857Y-73776904D01*
X265307857Y-73776904D02*
X265355476Y-73872142D01*
X265355476Y-73872142D02*
X265403095Y-73919761D01*
X265403095Y-73919761D02*
X265498333Y-73967380D01*
X265498333Y-73967380D02*
X265784047Y-73967380D01*
X265784047Y-73967380D02*
X265879285Y-73919761D01*
X265879285Y-73919761D02*
X265926904Y-73872142D01*
X264831666Y-73967380D02*
X264641190Y-73967380D01*
X264641190Y-73967380D02*
X264545952Y-73919761D01*
X264545952Y-73919761D02*
X264498333Y-73872142D01*
X264498333Y-73872142D02*
X264403095Y-73729285D01*
X264403095Y-73729285D02*
X264355476Y-73538809D01*
X264355476Y-73538809D02*
X264355476Y-73157857D01*
X264355476Y-73157857D02*
X264403095Y-73062619D01*
X264403095Y-73062619D02*
X264450714Y-73015000D01*
X264450714Y-73015000D02*
X264545952Y-72967380D01*
X264545952Y-72967380D02*
X264736428Y-72967380D01*
X264736428Y-72967380D02*
X264831666Y-73015000D01*
X264831666Y-73015000D02*
X264879285Y-73062619D01*
X264879285Y-73062619D02*
X264926904Y-73157857D01*
X264926904Y-73157857D02*
X264926904Y-73395952D01*
X264926904Y-73395952D02*
X264879285Y-73491190D01*
X264879285Y-73491190D02*
X264831666Y-73538809D01*
X264831666Y-73538809D02*
X264736428Y-73586428D01*
X264736428Y-73586428D02*
X264545952Y-73586428D01*
X264545952Y-73586428D02*
X264450714Y-73538809D01*
X264450714Y-73538809D02*
X264403095Y-73491190D01*
X264403095Y-73491190D02*
X264355476Y-73395952D01*
D11*
%TO.C,D61*%
X211941428Y-123573904D02*
X211941428Y-122773904D01*
X211941428Y-122773904D02*
X211750952Y-122773904D01*
X211750952Y-122773904D02*
X211636666Y-122812000D01*
X211636666Y-122812000D02*
X211560476Y-122888190D01*
X211560476Y-122888190D02*
X211522381Y-122964380D01*
X211522381Y-122964380D02*
X211484285Y-123116761D01*
X211484285Y-123116761D02*
X211484285Y-123231047D01*
X211484285Y-123231047D02*
X211522381Y-123383428D01*
X211522381Y-123383428D02*
X211560476Y-123459619D01*
X211560476Y-123459619D02*
X211636666Y-123535809D01*
X211636666Y-123535809D02*
X211750952Y-123573904D01*
X211750952Y-123573904D02*
X211941428Y-123573904D01*
X210798571Y-122773904D02*
X210950952Y-122773904D01*
X210950952Y-122773904D02*
X211027143Y-122812000D01*
X211027143Y-122812000D02*
X211065238Y-122850095D01*
X211065238Y-122850095D02*
X211141428Y-122964380D01*
X211141428Y-122964380D02*
X211179524Y-123116761D01*
X211179524Y-123116761D02*
X211179524Y-123421523D01*
X211179524Y-123421523D02*
X211141428Y-123497714D01*
X211141428Y-123497714D02*
X211103333Y-123535809D01*
X211103333Y-123535809D02*
X211027143Y-123573904D01*
X211027143Y-123573904D02*
X210874762Y-123573904D01*
X210874762Y-123573904D02*
X210798571Y-123535809D01*
X210798571Y-123535809D02*
X210760476Y-123497714D01*
X210760476Y-123497714D02*
X210722381Y-123421523D01*
X210722381Y-123421523D02*
X210722381Y-123231047D01*
X210722381Y-123231047D02*
X210760476Y-123154857D01*
X210760476Y-123154857D02*
X210798571Y-123116761D01*
X210798571Y-123116761D02*
X210874762Y-123078666D01*
X210874762Y-123078666D02*
X211027143Y-123078666D01*
X211027143Y-123078666D02*
X211103333Y-123116761D01*
X211103333Y-123116761D02*
X211141428Y-123154857D01*
X211141428Y-123154857D02*
X211179524Y-123231047D01*
X209960476Y-123573904D02*
X210417619Y-123573904D01*
X210189047Y-123573904D02*
X210189047Y-122773904D01*
X210189047Y-122773904D02*
X210265238Y-122888190D01*
X210265238Y-122888190D02*
X210341428Y-122964380D01*
X210341428Y-122964380D02*
X210417619Y-123002476D01*
D12*
%TO.C,SW55*%
X305974523Y-92969761D02*
X305831666Y-93017380D01*
X305831666Y-93017380D02*
X305593571Y-93017380D01*
X305593571Y-93017380D02*
X305498333Y-92969761D01*
X305498333Y-92969761D02*
X305450714Y-92922142D01*
X305450714Y-92922142D02*
X305403095Y-92826904D01*
X305403095Y-92826904D02*
X305403095Y-92731666D01*
X305403095Y-92731666D02*
X305450714Y-92636428D01*
X305450714Y-92636428D02*
X305498333Y-92588809D01*
X305498333Y-92588809D02*
X305593571Y-92541190D01*
X305593571Y-92541190D02*
X305784047Y-92493571D01*
X305784047Y-92493571D02*
X305879285Y-92445952D01*
X305879285Y-92445952D02*
X305926904Y-92398333D01*
X305926904Y-92398333D02*
X305974523Y-92303095D01*
X305974523Y-92303095D02*
X305974523Y-92207857D01*
X305974523Y-92207857D02*
X305926904Y-92112619D01*
X305926904Y-92112619D02*
X305879285Y-92065000D01*
X305879285Y-92065000D02*
X305784047Y-92017380D01*
X305784047Y-92017380D02*
X305545952Y-92017380D01*
X305545952Y-92017380D02*
X305403095Y-92065000D01*
X305069761Y-92017380D02*
X304831666Y-93017380D01*
X304831666Y-93017380D02*
X304641190Y-92303095D01*
X304641190Y-92303095D02*
X304450714Y-93017380D01*
X304450714Y-93017380D02*
X304212619Y-92017380D01*
X303355476Y-92017380D02*
X303831666Y-92017380D01*
X303831666Y-92017380D02*
X303879285Y-92493571D01*
X303879285Y-92493571D02*
X303831666Y-92445952D01*
X303831666Y-92445952D02*
X303736428Y-92398333D01*
X303736428Y-92398333D02*
X303498333Y-92398333D01*
X303498333Y-92398333D02*
X303403095Y-92445952D01*
X303403095Y-92445952D02*
X303355476Y-92493571D01*
X303355476Y-92493571D02*
X303307857Y-92588809D01*
X303307857Y-92588809D02*
X303307857Y-92826904D01*
X303307857Y-92826904D02*
X303355476Y-92922142D01*
X303355476Y-92922142D02*
X303403095Y-92969761D01*
X303403095Y-92969761D02*
X303498333Y-93017380D01*
X303498333Y-93017380D02*
X303736428Y-93017380D01*
X303736428Y-93017380D02*
X303831666Y-92969761D01*
X303831666Y-92969761D02*
X303879285Y-92922142D01*
X302403095Y-92017380D02*
X302879285Y-92017380D01*
X302879285Y-92017380D02*
X302926904Y-92493571D01*
X302926904Y-92493571D02*
X302879285Y-92445952D01*
X302879285Y-92445952D02*
X302784047Y-92398333D01*
X302784047Y-92398333D02*
X302545952Y-92398333D01*
X302545952Y-92398333D02*
X302450714Y-92445952D01*
X302450714Y-92445952D02*
X302403095Y-92493571D01*
X302403095Y-92493571D02*
X302355476Y-92588809D01*
X302355476Y-92588809D02*
X302355476Y-92826904D01*
X302355476Y-92826904D02*
X302403095Y-92922142D01*
X302403095Y-92922142D02*
X302450714Y-92969761D01*
X302450714Y-92969761D02*
X302545952Y-93017380D01*
X302545952Y-93017380D02*
X302784047Y-93017380D01*
X302784047Y-93017380D02*
X302879285Y-92969761D01*
X302879285Y-92969761D02*
X302926904Y-92922142D01*
%TO.C,SW24*%
X248874523Y-54869761D02*
X248731666Y-54917380D01*
X248731666Y-54917380D02*
X248493571Y-54917380D01*
X248493571Y-54917380D02*
X248398333Y-54869761D01*
X248398333Y-54869761D02*
X248350714Y-54822142D01*
X248350714Y-54822142D02*
X248303095Y-54726904D01*
X248303095Y-54726904D02*
X248303095Y-54631666D01*
X248303095Y-54631666D02*
X248350714Y-54536428D01*
X248350714Y-54536428D02*
X248398333Y-54488809D01*
X248398333Y-54488809D02*
X248493571Y-54441190D01*
X248493571Y-54441190D02*
X248684047Y-54393571D01*
X248684047Y-54393571D02*
X248779285Y-54345952D01*
X248779285Y-54345952D02*
X248826904Y-54298333D01*
X248826904Y-54298333D02*
X248874523Y-54203095D01*
X248874523Y-54203095D02*
X248874523Y-54107857D01*
X248874523Y-54107857D02*
X248826904Y-54012619D01*
X248826904Y-54012619D02*
X248779285Y-53965000D01*
X248779285Y-53965000D02*
X248684047Y-53917380D01*
X248684047Y-53917380D02*
X248445952Y-53917380D01*
X248445952Y-53917380D02*
X248303095Y-53965000D01*
X247969761Y-53917380D02*
X247731666Y-54917380D01*
X247731666Y-54917380D02*
X247541190Y-54203095D01*
X247541190Y-54203095D02*
X247350714Y-54917380D01*
X247350714Y-54917380D02*
X247112619Y-53917380D01*
X246779285Y-54012619D02*
X246731666Y-53965000D01*
X246731666Y-53965000D02*
X246636428Y-53917380D01*
X246636428Y-53917380D02*
X246398333Y-53917380D01*
X246398333Y-53917380D02*
X246303095Y-53965000D01*
X246303095Y-53965000D02*
X246255476Y-54012619D01*
X246255476Y-54012619D02*
X246207857Y-54107857D01*
X246207857Y-54107857D02*
X246207857Y-54203095D01*
X246207857Y-54203095D02*
X246255476Y-54345952D01*
X246255476Y-54345952D02*
X246826904Y-54917380D01*
X246826904Y-54917380D02*
X246207857Y-54917380D01*
X245350714Y-54250714D02*
X245350714Y-54917380D01*
X245588809Y-53869761D02*
X245826904Y-54584047D01*
X245826904Y-54584047D02*
X245207857Y-54584047D01*
D11*
%TO.C,D51*%
X230991428Y-104503904D02*
X230991428Y-103703904D01*
X230991428Y-103703904D02*
X230800952Y-103703904D01*
X230800952Y-103703904D02*
X230686666Y-103742000D01*
X230686666Y-103742000D02*
X230610476Y-103818190D01*
X230610476Y-103818190D02*
X230572381Y-103894380D01*
X230572381Y-103894380D02*
X230534285Y-104046761D01*
X230534285Y-104046761D02*
X230534285Y-104161047D01*
X230534285Y-104161047D02*
X230572381Y-104313428D01*
X230572381Y-104313428D02*
X230610476Y-104389619D01*
X230610476Y-104389619D02*
X230686666Y-104465809D01*
X230686666Y-104465809D02*
X230800952Y-104503904D01*
X230800952Y-104503904D02*
X230991428Y-104503904D01*
X229810476Y-103703904D02*
X230191428Y-103703904D01*
X230191428Y-103703904D02*
X230229524Y-104084857D01*
X230229524Y-104084857D02*
X230191428Y-104046761D01*
X230191428Y-104046761D02*
X230115238Y-104008666D01*
X230115238Y-104008666D02*
X229924762Y-104008666D01*
X229924762Y-104008666D02*
X229848571Y-104046761D01*
X229848571Y-104046761D02*
X229810476Y-104084857D01*
X229810476Y-104084857D02*
X229772381Y-104161047D01*
X229772381Y-104161047D02*
X229772381Y-104351523D01*
X229772381Y-104351523D02*
X229810476Y-104427714D01*
X229810476Y-104427714D02*
X229848571Y-104465809D01*
X229848571Y-104465809D02*
X229924762Y-104503904D01*
X229924762Y-104503904D02*
X230115238Y-104503904D01*
X230115238Y-104503904D02*
X230191428Y-104465809D01*
X230191428Y-104465809D02*
X230229524Y-104427714D01*
X229010476Y-104503904D02*
X229467619Y-104503904D01*
X229239047Y-104503904D02*
X229239047Y-103703904D01*
X229239047Y-103703904D02*
X229315238Y-103818190D01*
X229315238Y-103818190D02*
X229391428Y-103894380D01*
X229391428Y-103894380D02*
X229467619Y-103932476D01*
D12*
%TO.C,SW25*%
X267974523Y-54869761D02*
X267831666Y-54917380D01*
X267831666Y-54917380D02*
X267593571Y-54917380D01*
X267593571Y-54917380D02*
X267498333Y-54869761D01*
X267498333Y-54869761D02*
X267450714Y-54822142D01*
X267450714Y-54822142D02*
X267403095Y-54726904D01*
X267403095Y-54726904D02*
X267403095Y-54631666D01*
X267403095Y-54631666D02*
X267450714Y-54536428D01*
X267450714Y-54536428D02*
X267498333Y-54488809D01*
X267498333Y-54488809D02*
X267593571Y-54441190D01*
X267593571Y-54441190D02*
X267784047Y-54393571D01*
X267784047Y-54393571D02*
X267879285Y-54345952D01*
X267879285Y-54345952D02*
X267926904Y-54298333D01*
X267926904Y-54298333D02*
X267974523Y-54203095D01*
X267974523Y-54203095D02*
X267974523Y-54107857D01*
X267974523Y-54107857D02*
X267926904Y-54012619D01*
X267926904Y-54012619D02*
X267879285Y-53965000D01*
X267879285Y-53965000D02*
X267784047Y-53917380D01*
X267784047Y-53917380D02*
X267545952Y-53917380D01*
X267545952Y-53917380D02*
X267403095Y-53965000D01*
X267069761Y-53917380D02*
X266831666Y-54917380D01*
X266831666Y-54917380D02*
X266641190Y-54203095D01*
X266641190Y-54203095D02*
X266450714Y-54917380D01*
X266450714Y-54917380D02*
X266212619Y-53917380D01*
X265879285Y-54012619D02*
X265831666Y-53965000D01*
X265831666Y-53965000D02*
X265736428Y-53917380D01*
X265736428Y-53917380D02*
X265498333Y-53917380D01*
X265498333Y-53917380D02*
X265403095Y-53965000D01*
X265403095Y-53965000D02*
X265355476Y-54012619D01*
X265355476Y-54012619D02*
X265307857Y-54107857D01*
X265307857Y-54107857D02*
X265307857Y-54203095D01*
X265307857Y-54203095D02*
X265355476Y-54345952D01*
X265355476Y-54345952D02*
X265926904Y-54917380D01*
X265926904Y-54917380D02*
X265307857Y-54917380D01*
X264403095Y-53917380D02*
X264879285Y-53917380D01*
X264879285Y-53917380D02*
X264926904Y-54393571D01*
X264926904Y-54393571D02*
X264879285Y-54345952D01*
X264879285Y-54345952D02*
X264784047Y-54298333D01*
X264784047Y-54298333D02*
X264545952Y-54298333D01*
X264545952Y-54298333D02*
X264450714Y-54345952D01*
X264450714Y-54345952D02*
X264403095Y-54393571D01*
X264403095Y-54393571D02*
X264355476Y-54488809D01*
X264355476Y-54488809D02*
X264355476Y-54726904D01*
X264355476Y-54726904D02*
X264403095Y-54822142D01*
X264403095Y-54822142D02*
X264450714Y-54869761D01*
X264450714Y-54869761D02*
X264545952Y-54917380D01*
X264545952Y-54917380D02*
X264784047Y-54917380D01*
X264784047Y-54917380D02*
X264879285Y-54869761D01*
X264879285Y-54869761D02*
X264926904Y-54822142D01*
%TO.C,J2*%
X199912380Y-69723845D02*
X199912380Y-70295273D01*
X200912380Y-70009559D02*
X199912380Y-70009559D01*
X200912380Y-71200035D02*
X200436190Y-70866702D01*
X200912380Y-70628607D02*
X199912380Y-70628607D01*
X199912380Y-70628607D02*
X199912380Y-71009559D01*
X199912380Y-71009559D02*
X199960000Y-71104797D01*
X199960000Y-71104797D02*
X200007619Y-71152416D01*
X200007619Y-71152416D02*
X200102857Y-71200035D01*
X200102857Y-71200035D02*
X200245714Y-71200035D01*
X200245714Y-71200035D02*
X200340952Y-71152416D01*
X200340952Y-71152416D02*
X200388571Y-71104797D01*
X200388571Y-71104797D02*
X200436190Y-71009559D01*
X200436190Y-71009559D02*
X200436190Y-70628607D01*
X200912380Y-72200035D02*
X200436190Y-71866702D01*
X200912380Y-71628607D02*
X199912380Y-71628607D01*
X199912380Y-71628607D02*
X199912380Y-72009559D01*
X199912380Y-72009559D02*
X199960000Y-72104797D01*
X199960000Y-72104797D02*
X200007619Y-72152416D01*
X200007619Y-72152416D02*
X200102857Y-72200035D01*
X200102857Y-72200035D02*
X200245714Y-72200035D01*
X200245714Y-72200035D02*
X200340952Y-72152416D01*
X200340952Y-72152416D02*
X200388571Y-72104797D01*
X200388571Y-72104797D02*
X200436190Y-72009559D01*
X200436190Y-72009559D02*
X200436190Y-71628607D01*
X200864761Y-72580988D02*
X200912380Y-72723845D01*
X200912380Y-72723845D02*
X200912380Y-72961940D01*
X200912380Y-72961940D02*
X200864761Y-73057178D01*
X200864761Y-73057178D02*
X200817142Y-73104797D01*
X200817142Y-73104797D02*
X200721904Y-73152416D01*
X200721904Y-73152416D02*
X200626666Y-73152416D01*
X200626666Y-73152416D02*
X200531428Y-73104797D01*
X200531428Y-73104797D02*
X200483809Y-73057178D01*
X200483809Y-73057178D02*
X200436190Y-72961940D01*
X200436190Y-72961940D02*
X200388571Y-72771464D01*
X200388571Y-72771464D02*
X200340952Y-72676226D01*
X200340952Y-72676226D02*
X200293333Y-72628607D01*
X200293333Y-72628607D02*
X200198095Y-72580988D01*
X200198095Y-72580988D02*
X200102857Y-72580988D01*
X200102857Y-72580988D02*
X200007619Y-72628607D01*
X200007619Y-72628607D02*
X199960000Y-72676226D01*
X199960000Y-72676226D02*
X199912380Y-72771464D01*
X199912380Y-72771464D02*
X199912380Y-73009559D01*
X199912380Y-73009559D02*
X199960000Y-73152416D01*
D11*
%TO.C,D24*%
X250076428Y-66793904D02*
X250076428Y-65993904D01*
X250076428Y-65993904D02*
X249885952Y-65993904D01*
X249885952Y-65993904D02*
X249771666Y-66032000D01*
X249771666Y-66032000D02*
X249695476Y-66108190D01*
X249695476Y-66108190D02*
X249657381Y-66184380D01*
X249657381Y-66184380D02*
X249619285Y-66336761D01*
X249619285Y-66336761D02*
X249619285Y-66451047D01*
X249619285Y-66451047D02*
X249657381Y-66603428D01*
X249657381Y-66603428D02*
X249695476Y-66679619D01*
X249695476Y-66679619D02*
X249771666Y-66755809D01*
X249771666Y-66755809D02*
X249885952Y-66793904D01*
X249885952Y-66793904D02*
X250076428Y-66793904D01*
X249314524Y-66070095D02*
X249276428Y-66032000D01*
X249276428Y-66032000D02*
X249200238Y-65993904D01*
X249200238Y-65993904D02*
X249009762Y-65993904D01*
X249009762Y-65993904D02*
X248933571Y-66032000D01*
X248933571Y-66032000D02*
X248895476Y-66070095D01*
X248895476Y-66070095D02*
X248857381Y-66146285D01*
X248857381Y-66146285D02*
X248857381Y-66222476D01*
X248857381Y-66222476D02*
X248895476Y-66336761D01*
X248895476Y-66336761D02*
X249352619Y-66793904D01*
X249352619Y-66793904D02*
X248857381Y-66793904D01*
X248171666Y-66260571D02*
X248171666Y-66793904D01*
X248362142Y-65955809D02*
X248552619Y-66527238D01*
X248552619Y-66527238D02*
X248057380Y-66527238D01*
%TO.C,D25*%
X269191428Y-66693904D02*
X269191428Y-65893904D01*
X269191428Y-65893904D02*
X269000952Y-65893904D01*
X269000952Y-65893904D02*
X268886666Y-65932000D01*
X268886666Y-65932000D02*
X268810476Y-66008190D01*
X268810476Y-66008190D02*
X268772381Y-66084380D01*
X268772381Y-66084380D02*
X268734285Y-66236761D01*
X268734285Y-66236761D02*
X268734285Y-66351047D01*
X268734285Y-66351047D02*
X268772381Y-66503428D01*
X268772381Y-66503428D02*
X268810476Y-66579619D01*
X268810476Y-66579619D02*
X268886666Y-66655809D01*
X268886666Y-66655809D02*
X269000952Y-66693904D01*
X269000952Y-66693904D02*
X269191428Y-66693904D01*
X268429524Y-65970095D02*
X268391428Y-65932000D01*
X268391428Y-65932000D02*
X268315238Y-65893904D01*
X268315238Y-65893904D02*
X268124762Y-65893904D01*
X268124762Y-65893904D02*
X268048571Y-65932000D01*
X268048571Y-65932000D02*
X268010476Y-65970095D01*
X268010476Y-65970095D02*
X267972381Y-66046285D01*
X267972381Y-66046285D02*
X267972381Y-66122476D01*
X267972381Y-66122476D02*
X268010476Y-66236761D01*
X268010476Y-66236761D02*
X268467619Y-66693904D01*
X268467619Y-66693904D02*
X267972381Y-66693904D01*
X267248571Y-65893904D02*
X267629523Y-65893904D01*
X267629523Y-65893904D02*
X267667619Y-66274857D01*
X267667619Y-66274857D02*
X267629523Y-66236761D01*
X267629523Y-66236761D02*
X267553333Y-66198666D01*
X267553333Y-66198666D02*
X267362857Y-66198666D01*
X267362857Y-66198666D02*
X267286666Y-66236761D01*
X267286666Y-66236761D02*
X267248571Y-66274857D01*
X267248571Y-66274857D02*
X267210476Y-66351047D01*
X267210476Y-66351047D02*
X267210476Y-66541523D01*
X267210476Y-66541523D02*
X267248571Y-66617714D01*
X267248571Y-66617714D02*
X267286666Y-66655809D01*
X267286666Y-66655809D02*
X267362857Y-66693904D01*
X267362857Y-66693904D02*
X267553333Y-66693904D01*
X267553333Y-66693904D02*
X267629523Y-66655809D01*
X267629523Y-66655809D02*
X267667619Y-66617714D01*
D12*
%TO.C,SW10*%
X248874523Y-35819761D02*
X248731666Y-35867380D01*
X248731666Y-35867380D02*
X248493571Y-35867380D01*
X248493571Y-35867380D02*
X248398333Y-35819761D01*
X248398333Y-35819761D02*
X248350714Y-35772142D01*
X248350714Y-35772142D02*
X248303095Y-35676904D01*
X248303095Y-35676904D02*
X248303095Y-35581666D01*
X248303095Y-35581666D02*
X248350714Y-35486428D01*
X248350714Y-35486428D02*
X248398333Y-35438809D01*
X248398333Y-35438809D02*
X248493571Y-35391190D01*
X248493571Y-35391190D02*
X248684047Y-35343571D01*
X248684047Y-35343571D02*
X248779285Y-35295952D01*
X248779285Y-35295952D02*
X248826904Y-35248333D01*
X248826904Y-35248333D02*
X248874523Y-35153095D01*
X248874523Y-35153095D02*
X248874523Y-35057857D01*
X248874523Y-35057857D02*
X248826904Y-34962619D01*
X248826904Y-34962619D02*
X248779285Y-34915000D01*
X248779285Y-34915000D02*
X248684047Y-34867380D01*
X248684047Y-34867380D02*
X248445952Y-34867380D01*
X248445952Y-34867380D02*
X248303095Y-34915000D01*
X247969761Y-34867380D02*
X247731666Y-35867380D01*
X247731666Y-35867380D02*
X247541190Y-35153095D01*
X247541190Y-35153095D02*
X247350714Y-35867380D01*
X247350714Y-35867380D02*
X247112619Y-34867380D01*
X246207857Y-35867380D02*
X246779285Y-35867380D01*
X246493571Y-35867380D02*
X246493571Y-34867380D01*
X246493571Y-34867380D02*
X246588809Y-35010238D01*
X246588809Y-35010238D02*
X246684047Y-35105476D01*
X246684047Y-35105476D02*
X246779285Y-35153095D01*
X245588809Y-34867380D02*
X245493571Y-34867380D01*
X245493571Y-34867380D02*
X245398333Y-34915000D01*
X245398333Y-34915000D02*
X245350714Y-34962619D01*
X245350714Y-34962619D02*
X245303095Y-35057857D01*
X245303095Y-35057857D02*
X245255476Y-35248333D01*
X245255476Y-35248333D02*
X245255476Y-35486428D01*
X245255476Y-35486428D02*
X245303095Y-35676904D01*
X245303095Y-35676904D02*
X245350714Y-35772142D01*
X245350714Y-35772142D02*
X245398333Y-35819761D01*
X245398333Y-35819761D02*
X245493571Y-35867380D01*
X245493571Y-35867380D02*
X245588809Y-35867380D01*
X245588809Y-35867380D02*
X245684047Y-35819761D01*
X245684047Y-35819761D02*
X245731666Y-35772142D01*
X245731666Y-35772142D02*
X245779285Y-35676904D01*
X245779285Y-35676904D02*
X245826904Y-35486428D01*
X245826904Y-35486428D02*
X245826904Y-35248333D01*
X245826904Y-35248333D02*
X245779285Y-35057857D01*
X245779285Y-35057857D02*
X245731666Y-34962619D01*
X245731666Y-34962619D02*
X245684047Y-34915000D01*
X245684047Y-34915000D02*
X245588809Y-34867380D01*
D11*
%TO.C,D8*%
X211560475Y-47373904D02*
X211560475Y-46573904D01*
X211560475Y-46573904D02*
X211369999Y-46573904D01*
X211369999Y-46573904D02*
X211255713Y-46612000D01*
X211255713Y-46612000D02*
X211179523Y-46688190D01*
X211179523Y-46688190D02*
X211141428Y-46764380D01*
X211141428Y-46764380D02*
X211103332Y-46916761D01*
X211103332Y-46916761D02*
X211103332Y-47031047D01*
X211103332Y-47031047D02*
X211141428Y-47183428D01*
X211141428Y-47183428D02*
X211179523Y-47259619D01*
X211179523Y-47259619D02*
X211255713Y-47335809D01*
X211255713Y-47335809D02*
X211369999Y-47373904D01*
X211369999Y-47373904D02*
X211560475Y-47373904D01*
X210646190Y-46916761D02*
X210722380Y-46878666D01*
X210722380Y-46878666D02*
X210760475Y-46840571D01*
X210760475Y-46840571D02*
X210798571Y-46764380D01*
X210798571Y-46764380D02*
X210798571Y-46726285D01*
X210798571Y-46726285D02*
X210760475Y-46650095D01*
X210760475Y-46650095D02*
X210722380Y-46612000D01*
X210722380Y-46612000D02*
X210646190Y-46573904D01*
X210646190Y-46573904D02*
X210493809Y-46573904D01*
X210493809Y-46573904D02*
X210417618Y-46612000D01*
X210417618Y-46612000D02*
X210379523Y-46650095D01*
X210379523Y-46650095D02*
X210341428Y-46726285D01*
X210341428Y-46726285D02*
X210341428Y-46764380D01*
X210341428Y-46764380D02*
X210379523Y-46840571D01*
X210379523Y-46840571D02*
X210417618Y-46878666D01*
X210417618Y-46878666D02*
X210493809Y-46916761D01*
X210493809Y-46916761D02*
X210646190Y-46916761D01*
X210646190Y-46916761D02*
X210722380Y-46954857D01*
X210722380Y-46954857D02*
X210760475Y-46992952D01*
X210760475Y-46992952D02*
X210798571Y-47069142D01*
X210798571Y-47069142D02*
X210798571Y-47221523D01*
X210798571Y-47221523D02*
X210760475Y-47297714D01*
X210760475Y-47297714D02*
X210722380Y-47335809D01*
X210722380Y-47335809D02*
X210646190Y-47373904D01*
X210646190Y-47373904D02*
X210493809Y-47373904D01*
X210493809Y-47373904D02*
X210417618Y-47335809D01*
X210417618Y-47335809D02*
X210379523Y-47297714D01*
X210379523Y-47297714D02*
X210341428Y-47221523D01*
X210341428Y-47221523D02*
X210341428Y-47069142D01*
X210341428Y-47069142D02*
X210379523Y-46992952D01*
X210379523Y-46992952D02*
X210417618Y-46954857D01*
X210417618Y-46954857D02*
X210493809Y-46916761D01*
D12*
%TO.C,SW64*%
X267974523Y-112019761D02*
X267831666Y-112067380D01*
X267831666Y-112067380D02*
X267593571Y-112067380D01*
X267593571Y-112067380D02*
X267498333Y-112019761D01*
X267498333Y-112019761D02*
X267450714Y-111972142D01*
X267450714Y-111972142D02*
X267403095Y-111876904D01*
X267403095Y-111876904D02*
X267403095Y-111781666D01*
X267403095Y-111781666D02*
X267450714Y-111686428D01*
X267450714Y-111686428D02*
X267498333Y-111638809D01*
X267498333Y-111638809D02*
X267593571Y-111591190D01*
X267593571Y-111591190D02*
X267784047Y-111543571D01*
X267784047Y-111543571D02*
X267879285Y-111495952D01*
X267879285Y-111495952D02*
X267926904Y-111448333D01*
X267926904Y-111448333D02*
X267974523Y-111353095D01*
X267974523Y-111353095D02*
X267974523Y-111257857D01*
X267974523Y-111257857D02*
X267926904Y-111162619D01*
X267926904Y-111162619D02*
X267879285Y-111115000D01*
X267879285Y-111115000D02*
X267784047Y-111067380D01*
X267784047Y-111067380D02*
X267545952Y-111067380D01*
X267545952Y-111067380D02*
X267403095Y-111115000D01*
X267069761Y-111067380D02*
X266831666Y-112067380D01*
X266831666Y-112067380D02*
X266641190Y-111353095D01*
X266641190Y-111353095D02*
X266450714Y-112067380D01*
X266450714Y-112067380D02*
X266212619Y-111067380D01*
X265403095Y-111067380D02*
X265593571Y-111067380D01*
X265593571Y-111067380D02*
X265688809Y-111115000D01*
X265688809Y-111115000D02*
X265736428Y-111162619D01*
X265736428Y-111162619D02*
X265831666Y-111305476D01*
X265831666Y-111305476D02*
X265879285Y-111495952D01*
X265879285Y-111495952D02*
X265879285Y-111876904D01*
X265879285Y-111876904D02*
X265831666Y-111972142D01*
X265831666Y-111972142D02*
X265784047Y-112019761D01*
X265784047Y-112019761D02*
X265688809Y-112067380D01*
X265688809Y-112067380D02*
X265498333Y-112067380D01*
X265498333Y-112067380D02*
X265403095Y-112019761D01*
X265403095Y-112019761D02*
X265355476Y-111972142D01*
X265355476Y-111972142D02*
X265307857Y-111876904D01*
X265307857Y-111876904D02*
X265307857Y-111638809D01*
X265307857Y-111638809D02*
X265355476Y-111543571D01*
X265355476Y-111543571D02*
X265403095Y-111495952D01*
X265403095Y-111495952D02*
X265498333Y-111448333D01*
X265498333Y-111448333D02*
X265688809Y-111448333D01*
X265688809Y-111448333D02*
X265784047Y-111495952D01*
X265784047Y-111495952D02*
X265831666Y-111543571D01*
X265831666Y-111543571D02*
X265879285Y-111638809D01*
X264450714Y-111400714D02*
X264450714Y-112067380D01*
X264688809Y-111019761D02*
X264926904Y-111734047D01*
X264926904Y-111734047D02*
X264307857Y-111734047D01*
D11*
%TO.C,D37*%
X230991428Y-85823904D02*
X230991428Y-85023904D01*
X230991428Y-85023904D02*
X230800952Y-85023904D01*
X230800952Y-85023904D02*
X230686666Y-85062000D01*
X230686666Y-85062000D02*
X230610476Y-85138190D01*
X230610476Y-85138190D02*
X230572381Y-85214380D01*
X230572381Y-85214380D02*
X230534285Y-85366761D01*
X230534285Y-85366761D02*
X230534285Y-85481047D01*
X230534285Y-85481047D02*
X230572381Y-85633428D01*
X230572381Y-85633428D02*
X230610476Y-85709619D01*
X230610476Y-85709619D02*
X230686666Y-85785809D01*
X230686666Y-85785809D02*
X230800952Y-85823904D01*
X230800952Y-85823904D02*
X230991428Y-85823904D01*
X230267619Y-85023904D02*
X229772381Y-85023904D01*
X229772381Y-85023904D02*
X230039047Y-85328666D01*
X230039047Y-85328666D02*
X229924762Y-85328666D01*
X229924762Y-85328666D02*
X229848571Y-85366761D01*
X229848571Y-85366761D02*
X229810476Y-85404857D01*
X229810476Y-85404857D02*
X229772381Y-85481047D01*
X229772381Y-85481047D02*
X229772381Y-85671523D01*
X229772381Y-85671523D02*
X229810476Y-85747714D01*
X229810476Y-85747714D02*
X229848571Y-85785809D01*
X229848571Y-85785809D02*
X229924762Y-85823904D01*
X229924762Y-85823904D02*
X230153333Y-85823904D01*
X230153333Y-85823904D02*
X230229524Y-85785809D01*
X230229524Y-85785809D02*
X230267619Y-85747714D01*
X229505714Y-85023904D02*
X228972380Y-85023904D01*
X228972380Y-85023904D02*
X229315238Y-85823904D01*
%TO.C,D12*%
X288216428Y-47373904D02*
X288216428Y-46573904D01*
X288216428Y-46573904D02*
X288025952Y-46573904D01*
X288025952Y-46573904D02*
X287911666Y-46612000D01*
X287911666Y-46612000D02*
X287835476Y-46688190D01*
X287835476Y-46688190D02*
X287797381Y-46764380D01*
X287797381Y-46764380D02*
X287759285Y-46916761D01*
X287759285Y-46916761D02*
X287759285Y-47031047D01*
X287759285Y-47031047D02*
X287797381Y-47183428D01*
X287797381Y-47183428D02*
X287835476Y-47259619D01*
X287835476Y-47259619D02*
X287911666Y-47335809D01*
X287911666Y-47335809D02*
X288025952Y-47373904D01*
X288025952Y-47373904D02*
X288216428Y-47373904D01*
X286997381Y-47373904D02*
X287454524Y-47373904D01*
X287225952Y-47373904D02*
X287225952Y-46573904D01*
X287225952Y-46573904D02*
X287302143Y-46688190D01*
X287302143Y-46688190D02*
X287378333Y-46764380D01*
X287378333Y-46764380D02*
X287454524Y-46802476D01*
X286692619Y-46650095D02*
X286654523Y-46612000D01*
X286654523Y-46612000D02*
X286578333Y-46573904D01*
X286578333Y-46573904D02*
X286387857Y-46573904D01*
X286387857Y-46573904D02*
X286311666Y-46612000D01*
X286311666Y-46612000D02*
X286273571Y-46650095D01*
X286273571Y-46650095D02*
X286235476Y-46726285D01*
X286235476Y-46726285D02*
X286235476Y-46802476D01*
X286235476Y-46802476D02*
X286273571Y-46916761D01*
X286273571Y-46916761D02*
X286730714Y-47373904D01*
X286730714Y-47373904D02*
X286235476Y-47373904D01*
D12*
%TO.C,SW41*%
X305974523Y-73919761D02*
X305831666Y-73967380D01*
X305831666Y-73967380D02*
X305593571Y-73967380D01*
X305593571Y-73967380D02*
X305498333Y-73919761D01*
X305498333Y-73919761D02*
X305450714Y-73872142D01*
X305450714Y-73872142D02*
X305403095Y-73776904D01*
X305403095Y-73776904D02*
X305403095Y-73681666D01*
X305403095Y-73681666D02*
X305450714Y-73586428D01*
X305450714Y-73586428D02*
X305498333Y-73538809D01*
X305498333Y-73538809D02*
X305593571Y-73491190D01*
X305593571Y-73491190D02*
X305784047Y-73443571D01*
X305784047Y-73443571D02*
X305879285Y-73395952D01*
X305879285Y-73395952D02*
X305926904Y-73348333D01*
X305926904Y-73348333D02*
X305974523Y-73253095D01*
X305974523Y-73253095D02*
X305974523Y-73157857D01*
X305974523Y-73157857D02*
X305926904Y-73062619D01*
X305926904Y-73062619D02*
X305879285Y-73015000D01*
X305879285Y-73015000D02*
X305784047Y-72967380D01*
X305784047Y-72967380D02*
X305545952Y-72967380D01*
X305545952Y-72967380D02*
X305403095Y-73015000D01*
X305069761Y-72967380D02*
X304831666Y-73967380D01*
X304831666Y-73967380D02*
X304641190Y-73253095D01*
X304641190Y-73253095D02*
X304450714Y-73967380D01*
X304450714Y-73967380D02*
X304212619Y-72967380D01*
X303403095Y-73300714D02*
X303403095Y-73967380D01*
X303641190Y-72919761D02*
X303879285Y-73634047D01*
X303879285Y-73634047D02*
X303260238Y-73634047D01*
X302355476Y-73967380D02*
X302926904Y-73967380D01*
X302641190Y-73967380D02*
X302641190Y-72967380D01*
X302641190Y-72967380D02*
X302736428Y-73110238D01*
X302736428Y-73110238D02*
X302831666Y-73205476D01*
X302831666Y-73205476D02*
X302926904Y-73253095D01*
%TO.C,SW42*%
X325074523Y-73919761D02*
X324931666Y-73967380D01*
X324931666Y-73967380D02*
X324693571Y-73967380D01*
X324693571Y-73967380D02*
X324598333Y-73919761D01*
X324598333Y-73919761D02*
X324550714Y-73872142D01*
X324550714Y-73872142D02*
X324503095Y-73776904D01*
X324503095Y-73776904D02*
X324503095Y-73681666D01*
X324503095Y-73681666D02*
X324550714Y-73586428D01*
X324550714Y-73586428D02*
X324598333Y-73538809D01*
X324598333Y-73538809D02*
X324693571Y-73491190D01*
X324693571Y-73491190D02*
X324884047Y-73443571D01*
X324884047Y-73443571D02*
X324979285Y-73395952D01*
X324979285Y-73395952D02*
X325026904Y-73348333D01*
X325026904Y-73348333D02*
X325074523Y-73253095D01*
X325074523Y-73253095D02*
X325074523Y-73157857D01*
X325074523Y-73157857D02*
X325026904Y-73062619D01*
X325026904Y-73062619D02*
X324979285Y-73015000D01*
X324979285Y-73015000D02*
X324884047Y-72967380D01*
X324884047Y-72967380D02*
X324645952Y-72967380D01*
X324645952Y-72967380D02*
X324503095Y-73015000D01*
X324169761Y-72967380D02*
X323931666Y-73967380D01*
X323931666Y-73967380D02*
X323741190Y-73253095D01*
X323741190Y-73253095D02*
X323550714Y-73967380D01*
X323550714Y-73967380D02*
X323312619Y-72967380D01*
X322503095Y-73300714D02*
X322503095Y-73967380D01*
X322741190Y-72919761D02*
X322979285Y-73634047D01*
X322979285Y-73634047D02*
X322360238Y-73634047D01*
X322026904Y-73062619D02*
X321979285Y-73015000D01*
X321979285Y-73015000D02*
X321884047Y-72967380D01*
X321884047Y-72967380D02*
X321645952Y-72967380D01*
X321645952Y-72967380D02*
X321550714Y-73015000D01*
X321550714Y-73015000D02*
X321503095Y-73062619D01*
X321503095Y-73062619D02*
X321455476Y-73157857D01*
X321455476Y-73157857D02*
X321455476Y-73253095D01*
X321455476Y-73253095D02*
X321503095Y-73395952D01*
X321503095Y-73395952D02*
X322074523Y-73967380D01*
X322074523Y-73967380D02*
X321455476Y-73967380D01*
D11*
%TO.C,D11*%
X269191428Y-47373904D02*
X269191428Y-46573904D01*
X269191428Y-46573904D02*
X269000952Y-46573904D01*
X269000952Y-46573904D02*
X268886666Y-46612000D01*
X268886666Y-46612000D02*
X268810476Y-46688190D01*
X268810476Y-46688190D02*
X268772381Y-46764380D01*
X268772381Y-46764380D02*
X268734285Y-46916761D01*
X268734285Y-46916761D02*
X268734285Y-47031047D01*
X268734285Y-47031047D02*
X268772381Y-47183428D01*
X268772381Y-47183428D02*
X268810476Y-47259619D01*
X268810476Y-47259619D02*
X268886666Y-47335809D01*
X268886666Y-47335809D02*
X269000952Y-47373904D01*
X269000952Y-47373904D02*
X269191428Y-47373904D01*
X267972381Y-47373904D02*
X268429524Y-47373904D01*
X268200952Y-47373904D02*
X268200952Y-46573904D01*
X268200952Y-46573904D02*
X268277143Y-46688190D01*
X268277143Y-46688190D02*
X268353333Y-46764380D01*
X268353333Y-46764380D02*
X268429524Y-46802476D01*
X267210476Y-47373904D02*
X267667619Y-47373904D01*
X267439047Y-47373904D02*
X267439047Y-46573904D01*
X267439047Y-46573904D02*
X267515238Y-46688190D01*
X267515238Y-46688190D02*
X267591428Y-46764380D01*
X267591428Y-46764380D02*
X267667619Y-46802476D01*
D12*
%TO.C,SW36*%
X210774523Y-73919761D02*
X210631666Y-73967380D01*
X210631666Y-73967380D02*
X210393571Y-73967380D01*
X210393571Y-73967380D02*
X210298333Y-73919761D01*
X210298333Y-73919761D02*
X210250714Y-73872142D01*
X210250714Y-73872142D02*
X210203095Y-73776904D01*
X210203095Y-73776904D02*
X210203095Y-73681666D01*
X210203095Y-73681666D02*
X210250714Y-73586428D01*
X210250714Y-73586428D02*
X210298333Y-73538809D01*
X210298333Y-73538809D02*
X210393571Y-73491190D01*
X210393571Y-73491190D02*
X210584047Y-73443571D01*
X210584047Y-73443571D02*
X210679285Y-73395952D01*
X210679285Y-73395952D02*
X210726904Y-73348333D01*
X210726904Y-73348333D02*
X210774523Y-73253095D01*
X210774523Y-73253095D02*
X210774523Y-73157857D01*
X210774523Y-73157857D02*
X210726904Y-73062619D01*
X210726904Y-73062619D02*
X210679285Y-73015000D01*
X210679285Y-73015000D02*
X210584047Y-72967380D01*
X210584047Y-72967380D02*
X210345952Y-72967380D01*
X210345952Y-72967380D02*
X210203095Y-73015000D01*
X209869761Y-72967380D02*
X209631666Y-73967380D01*
X209631666Y-73967380D02*
X209441190Y-73253095D01*
X209441190Y-73253095D02*
X209250714Y-73967380D01*
X209250714Y-73967380D02*
X209012619Y-72967380D01*
X208726904Y-72967380D02*
X208107857Y-72967380D01*
X208107857Y-72967380D02*
X208441190Y-73348333D01*
X208441190Y-73348333D02*
X208298333Y-73348333D01*
X208298333Y-73348333D02*
X208203095Y-73395952D01*
X208203095Y-73395952D02*
X208155476Y-73443571D01*
X208155476Y-73443571D02*
X208107857Y-73538809D01*
X208107857Y-73538809D02*
X208107857Y-73776904D01*
X208107857Y-73776904D02*
X208155476Y-73872142D01*
X208155476Y-73872142D02*
X208203095Y-73919761D01*
X208203095Y-73919761D02*
X208298333Y-73967380D01*
X208298333Y-73967380D02*
X208584047Y-73967380D01*
X208584047Y-73967380D02*
X208679285Y-73919761D01*
X208679285Y-73919761D02*
X208726904Y-73872142D01*
X207250714Y-72967380D02*
X207441190Y-72967380D01*
X207441190Y-72967380D02*
X207536428Y-73015000D01*
X207536428Y-73015000D02*
X207584047Y-73062619D01*
X207584047Y-73062619D02*
X207679285Y-73205476D01*
X207679285Y-73205476D02*
X207726904Y-73395952D01*
X207726904Y-73395952D02*
X207726904Y-73776904D01*
X207726904Y-73776904D02*
X207679285Y-73872142D01*
X207679285Y-73872142D02*
X207631666Y-73919761D01*
X207631666Y-73919761D02*
X207536428Y-73967380D01*
X207536428Y-73967380D02*
X207345952Y-73967380D01*
X207345952Y-73967380D02*
X207250714Y-73919761D01*
X207250714Y-73919761D02*
X207203095Y-73872142D01*
X207203095Y-73872142D02*
X207155476Y-73776904D01*
X207155476Y-73776904D02*
X207155476Y-73538809D01*
X207155476Y-73538809D02*
X207203095Y-73443571D01*
X207203095Y-73443571D02*
X207250714Y-73395952D01*
X207250714Y-73395952D02*
X207345952Y-73348333D01*
X207345952Y-73348333D02*
X207536428Y-73348333D01*
X207536428Y-73348333D02*
X207631666Y-73395952D01*
X207631666Y-73395952D02*
X207679285Y-73443571D01*
X207679285Y-73443571D02*
X207726904Y-73538809D01*
%TO.C,SW63*%
X248874523Y-112019761D02*
X248731666Y-112067380D01*
X248731666Y-112067380D02*
X248493571Y-112067380D01*
X248493571Y-112067380D02*
X248398333Y-112019761D01*
X248398333Y-112019761D02*
X248350714Y-111972142D01*
X248350714Y-111972142D02*
X248303095Y-111876904D01*
X248303095Y-111876904D02*
X248303095Y-111781666D01*
X248303095Y-111781666D02*
X248350714Y-111686428D01*
X248350714Y-111686428D02*
X248398333Y-111638809D01*
X248398333Y-111638809D02*
X248493571Y-111591190D01*
X248493571Y-111591190D02*
X248684047Y-111543571D01*
X248684047Y-111543571D02*
X248779285Y-111495952D01*
X248779285Y-111495952D02*
X248826904Y-111448333D01*
X248826904Y-111448333D02*
X248874523Y-111353095D01*
X248874523Y-111353095D02*
X248874523Y-111257857D01*
X248874523Y-111257857D02*
X248826904Y-111162619D01*
X248826904Y-111162619D02*
X248779285Y-111115000D01*
X248779285Y-111115000D02*
X248684047Y-111067380D01*
X248684047Y-111067380D02*
X248445952Y-111067380D01*
X248445952Y-111067380D02*
X248303095Y-111115000D01*
X247969761Y-111067380D02*
X247731666Y-112067380D01*
X247731666Y-112067380D02*
X247541190Y-111353095D01*
X247541190Y-111353095D02*
X247350714Y-112067380D01*
X247350714Y-112067380D02*
X247112619Y-111067380D01*
X246303095Y-111067380D02*
X246493571Y-111067380D01*
X246493571Y-111067380D02*
X246588809Y-111115000D01*
X246588809Y-111115000D02*
X246636428Y-111162619D01*
X246636428Y-111162619D02*
X246731666Y-111305476D01*
X246731666Y-111305476D02*
X246779285Y-111495952D01*
X246779285Y-111495952D02*
X246779285Y-111876904D01*
X246779285Y-111876904D02*
X246731666Y-111972142D01*
X246731666Y-111972142D02*
X246684047Y-112019761D01*
X246684047Y-112019761D02*
X246588809Y-112067380D01*
X246588809Y-112067380D02*
X246398333Y-112067380D01*
X246398333Y-112067380D02*
X246303095Y-112019761D01*
X246303095Y-112019761D02*
X246255476Y-111972142D01*
X246255476Y-111972142D02*
X246207857Y-111876904D01*
X246207857Y-111876904D02*
X246207857Y-111638809D01*
X246207857Y-111638809D02*
X246255476Y-111543571D01*
X246255476Y-111543571D02*
X246303095Y-111495952D01*
X246303095Y-111495952D02*
X246398333Y-111448333D01*
X246398333Y-111448333D02*
X246588809Y-111448333D01*
X246588809Y-111448333D02*
X246684047Y-111495952D01*
X246684047Y-111495952D02*
X246731666Y-111543571D01*
X246731666Y-111543571D02*
X246779285Y-111638809D01*
X245874523Y-111067380D02*
X245255476Y-111067380D01*
X245255476Y-111067380D02*
X245588809Y-111448333D01*
X245588809Y-111448333D02*
X245445952Y-111448333D01*
X245445952Y-111448333D02*
X245350714Y-111495952D01*
X245350714Y-111495952D02*
X245303095Y-111543571D01*
X245303095Y-111543571D02*
X245255476Y-111638809D01*
X245255476Y-111638809D02*
X245255476Y-111876904D01*
X245255476Y-111876904D02*
X245303095Y-111972142D01*
X245303095Y-111972142D02*
X245350714Y-112019761D01*
X245350714Y-112019761D02*
X245445952Y-112067380D01*
X245445952Y-112067380D02*
X245731666Y-112067380D01*
X245731666Y-112067380D02*
X245826904Y-112019761D01*
X245826904Y-112019761D02*
X245874523Y-111972142D01*
%TO.C,U2*%
X307402380Y-115853095D02*
X308211904Y-115853095D01*
X308211904Y-115853095D02*
X308307142Y-115900714D01*
X308307142Y-115900714D02*
X308354761Y-115948333D01*
X308354761Y-115948333D02*
X308402380Y-116043571D01*
X308402380Y-116043571D02*
X308402380Y-116234047D01*
X308402380Y-116234047D02*
X308354761Y-116329285D01*
X308354761Y-116329285D02*
X308307142Y-116376904D01*
X308307142Y-116376904D02*
X308211904Y-116424523D01*
X308211904Y-116424523D02*
X307402380Y-116424523D01*
X307497619Y-116853095D02*
X307450000Y-116900714D01*
X307450000Y-116900714D02*
X307402380Y-116995952D01*
X307402380Y-116995952D02*
X307402380Y-117234047D01*
X307402380Y-117234047D02*
X307450000Y-117329285D01*
X307450000Y-117329285D02*
X307497619Y-117376904D01*
X307497619Y-117376904D02*
X307592857Y-117424523D01*
X307592857Y-117424523D02*
X307688095Y-117424523D01*
X307688095Y-117424523D02*
X307830952Y-117376904D01*
X307830952Y-117376904D02*
X308402380Y-116805476D01*
X308402380Y-116805476D02*
X308402380Y-117424523D01*
X282090809Y-109319761D02*
X282128904Y-109434047D01*
X282128904Y-109434047D02*
X282128904Y-109624523D01*
X282128904Y-109624523D02*
X282090809Y-109700714D01*
X282090809Y-109700714D02*
X282052714Y-109738809D01*
X282052714Y-109738809D02*
X281976523Y-109776904D01*
X281976523Y-109776904D02*
X281900333Y-109776904D01*
X281900333Y-109776904D02*
X281824142Y-109738809D01*
X281824142Y-109738809D02*
X281786047Y-109700714D01*
X281786047Y-109700714D02*
X281747952Y-109624523D01*
X281747952Y-109624523D02*
X281709857Y-109472142D01*
X281709857Y-109472142D02*
X281671761Y-109395952D01*
X281671761Y-109395952D02*
X281633666Y-109357857D01*
X281633666Y-109357857D02*
X281557476Y-109319761D01*
X281557476Y-109319761D02*
X281481285Y-109319761D01*
X281481285Y-109319761D02*
X281405095Y-109357857D01*
X281405095Y-109357857D02*
X281367000Y-109395952D01*
X281367000Y-109395952D02*
X281328904Y-109472142D01*
X281328904Y-109472142D02*
X281328904Y-109662619D01*
X281328904Y-109662619D02*
X281367000Y-109776904D01*
X281328904Y-110043571D02*
X282128904Y-110234047D01*
X282128904Y-110234047D02*
X281557476Y-110386428D01*
X281557476Y-110386428D02*
X282128904Y-110538809D01*
X282128904Y-110538809D02*
X281328904Y-110729286D01*
X282128904Y-111034048D02*
X281328904Y-111034048D01*
X281328904Y-111034048D02*
X281328904Y-111224524D01*
X281328904Y-111224524D02*
X281367000Y-111338810D01*
X281367000Y-111338810D02*
X281443190Y-111415000D01*
X281443190Y-111415000D02*
X281519380Y-111453095D01*
X281519380Y-111453095D02*
X281671761Y-111491191D01*
X281671761Y-111491191D02*
X281786047Y-111491191D01*
X281786047Y-111491191D02*
X281938428Y-111453095D01*
X281938428Y-111453095D02*
X282014619Y-111415000D01*
X282014619Y-111415000D02*
X282090809Y-111338810D01*
X282090809Y-111338810D02*
X282128904Y-111224524D01*
X282128904Y-111224524D02*
X282128904Y-111034048D01*
X282128904Y-111834048D02*
X281328904Y-111834048D01*
X281328904Y-112367381D02*
X281328904Y-112519762D01*
X281328904Y-112519762D02*
X281367000Y-112595952D01*
X281367000Y-112595952D02*
X281443190Y-112672143D01*
X281443190Y-112672143D02*
X281595571Y-112710238D01*
X281595571Y-112710238D02*
X281862238Y-112710238D01*
X281862238Y-112710238D02*
X282014619Y-112672143D01*
X282014619Y-112672143D02*
X282090809Y-112595952D01*
X282090809Y-112595952D02*
X282128904Y-112519762D01*
X282128904Y-112519762D02*
X282128904Y-112367381D01*
X282128904Y-112367381D02*
X282090809Y-112291190D01*
X282090809Y-112291190D02*
X282014619Y-112215000D01*
X282014619Y-112215000D02*
X281862238Y-112176904D01*
X281862238Y-112176904D02*
X281595571Y-112176904D01*
X281595571Y-112176904D02*
X281443190Y-112215000D01*
X281443190Y-112215000D02*
X281367000Y-112291190D01*
X281367000Y-112291190D02*
X281328904Y-112367381D01*
X282090809Y-120505475D02*
X282128904Y-120619761D01*
X282128904Y-120619761D02*
X282128904Y-120810237D01*
X282128904Y-120810237D02*
X282090809Y-120886428D01*
X282090809Y-120886428D02*
X282052714Y-120924523D01*
X282052714Y-120924523D02*
X281976523Y-120962618D01*
X281976523Y-120962618D02*
X281900333Y-120962618D01*
X281900333Y-120962618D02*
X281824142Y-120924523D01*
X281824142Y-120924523D02*
X281786047Y-120886428D01*
X281786047Y-120886428D02*
X281747952Y-120810237D01*
X281747952Y-120810237D02*
X281709857Y-120657856D01*
X281709857Y-120657856D02*
X281671761Y-120581666D01*
X281671761Y-120581666D02*
X281633666Y-120543571D01*
X281633666Y-120543571D02*
X281557476Y-120505475D01*
X281557476Y-120505475D02*
X281481285Y-120505475D01*
X281481285Y-120505475D02*
X281405095Y-120543571D01*
X281405095Y-120543571D02*
X281367000Y-120581666D01*
X281367000Y-120581666D02*
X281328904Y-120657856D01*
X281328904Y-120657856D02*
X281328904Y-120848333D01*
X281328904Y-120848333D02*
X281367000Y-120962618D01*
X281328904Y-121229285D02*
X282128904Y-121419761D01*
X282128904Y-121419761D02*
X281557476Y-121572142D01*
X281557476Y-121572142D02*
X282128904Y-121724523D01*
X282128904Y-121724523D02*
X281328904Y-121915000D01*
X282052714Y-122676905D02*
X282090809Y-122638809D01*
X282090809Y-122638809D02*
X282128904Y-122524524D01*
X282128904Y-122524524D02*
X282128904Y-122448333D01*
X282128904Y-122448333D02*
X282090809Y-122334047D01*
X282090809Y-122334047D02*
X282014619Y-122257857D01*
X282014619Y-122257857D02*
X281938428Y-122219762D01*
X281938428Y-122219762D02*
X281786047Y-122181666D01*
X281786047Y-122181666D02*
X281671761Y-122181666D01*
X281671761Y-122181666D02*
X281519380Y-122219762D01*
X281519380Y-122219762D02*
X281443190Y-122257857D01*
X281443190Y-122257857D02*
X281367000Y-122334047D01*
X281367000Y-122334047D02*
X281328904Y-122448333D01*
X281328904Y-122448333D02*
X281328904Y-122524524D01*
X281328904Y-122524524D02*
X281367000Y-122638809D01*
X281367000Y-122638809D02*
X281405095Y-122676905D01*
X282128904Y-123400714D02*
X282128904Y-123019762D01*
X282128904Y-123019762D02*
X281328904Y-123019762D01*
X282128904Y-123667381D02*
X281328904Y-123667381D01*
X282128904Y-124124524D02*
X281671761Y-123781666D01*
X281328904Y-124124524D02*
X281786047Y-123667381D01*
%TO.C,D27*%
X303500000Y-64250000D02*
X303500000Y-65750000D01*
X303500000Y-65750000D02*
X308900000Y-65750000D01*
X305700000Y-64500000D02*
X305700000Y-65500000D01*
X305800000Y-65000000D02*
X306700000Y-64500000D01*
X306700000Y-64500000D02*
X306700000Y-65500000D01*
X306700000Y-65500000D02*
X305800000Y-65000000D01*
X308900000Y-64250000D02*
X303500000Y-64250000D01*
X308900000Y-65750000D02*
X308900000Y-64250000D01*
%TO.C,D39*%
X265520000Y-83380000D02*
X265520000Y-84880000D01*
X265520000Y-84880000D02*
X270920000Y-84880000D01*
X267720000Y-83630000D02*
X267720000Y-84630000D01*
X267820000Y-84130000D02*
X268720000Y-83630000D01*
X268720000Y-83630000D02*
X268720000Y-84630000D01*
X268720000Y-84630000D02*
X267820000Y-84130000D01*
X270920000Y-83380000D02*
X265520000Y-83380000D01*
X270920000Y-84880000D02*
X270920000Y-83380000D01*
%TO.C,D22*%
X208270000Y-64250000D02*
X208270000Y-65750000D01*
X208270000Y-65750000D02*
X213670000Y-65750000D01*
X210470000Y-64500000D02*
X210470000Y-65500000D01*
X210570000Y-65000000D02*
X211470000Y-64500000D01*
X211470000Y-64500000D02*
X211470000Y-65500000D01*
X211470000Y-65500000D02*
X210570000Y-65000000D01*
X213670000Y-64250000D02*
X208270000Y-64250000D01*
X213670000Y-65750000D02*
X213670000Y-64250000D01*
%TO.C,D52*%
X246405000Y-102060000D02*
X246405000Y-103560000D01*
X246405000Y-103560000D02*
X251805000Y-103560000D01*
X248605000Y-102310000D02*
X248605000Y-103310000D01*
X248705000Y-102810000D02*
X249605000Y-102310000D01*
X249605000Y-102310000D02*
X249605000Y-103310000D01*
X249605000Y-103310000D02*
X248705000Y-102810000D01*
X251805000Y-102060000D02*
X246405000Y-102060000D01*
X251805000Y-103560000D02*
X251805000Y-102060000D01*
%TO.C,D28*%
X322585000Y-64250000D02*
X322585000Y-65750000D01*
X322585000Y-65750000D02*
X327985000Y-65750000D01*
X324785000Y-64500000D02*
X324785000Y-65500000D01*
X324885000Y-65000000D02*
X325785000Y-64500000D01*
X325785000Y-64500000D02*
X325785000Y-65500000D01*
X325785000Y-65500000D02*
X324885000Y-65000000D01*
X327985000Y-64250000D02*
X322585000Y-64250000D01*
X327985000Y-65750000D02*
X327985000Y-64250000D01*
%TO.C,D42*%
X322585000Y-83380000D02*
X322585000Y-84880000D01*
X322585000Y-84880000D02*
X327985000Y-84880000D01*
X324785000Y-83630000D02*
X324785000Y-84630000D01*
X324885000Y-84130000D02*
X325785000Y-83630000D01*
X325785000Y-83630000D02*
X325785000Y-84630000D01*
X325785000Y-84630000D02*
X324885000Y-84130000D01*
X327985000Y-83380000D02*
X322585000Y-83380000D01*
X327985000Y-84880000D02*
X327985000Y-83380000D01*
%TO.C,D26*%
X284545000Y-64250000D02*
X284545000Y-65750000D01*
X284545000Y-65750000D02*
X289945000Y-65750000D01*
X286745000Y-64500000D02*
X286745000Y-65500000D01*
X286845000Y-65000000D02*
X287745000Y-64500000D01*
X287745000Y-64500000D02*
X287745000Y-65500000D01*
X287745000Y-65500000D02*
X286845000Y-65000000D01*
X289945000Y-64250000D02*
X284545000Y-64250000D01*
X289945000Y-65750000D02*
X289945000Y-64250000D01*
%TO.C,D14*%
X322585000Y-44930000D02*
X322585000Y-46430000D01*
X322585000Y-46430000D02*
X327985000Y-46430000D01*
X324785000Y-45180000D02*
X324785000Y-46180000D01*
X324885000Y-45680000D02*
X325785000Y-45180000D01*
X325785000Y-45180000D02*
X325785000Y-46180000D01*
X325785000Y-46180000D02*
X324885000Y-45680000D01*
X327985000Y-44930000D02*
X322585000Y-44930000D01*
X327985000Y-46430000D02*
X327985000Y-44930000D01*
%TO.C,D41*%
X303500000Y-83380000D02*
X303500000Y-84880000D01*
X303500000Y-84880000D02*
X308900000Y-84880000D01*
X305700000Y-83630000D02*
X305700000Y-84630000D01*
X305800000Y-84130000D02*
X306700000Y-83630000D01*
X306700000Y-83630000D02*
X306700000Y-84630000D01*
X306700000Y-84630000D02*
X305800000Y-84130000D01*
X308900000Y-83380000D02*
X303500000Y-83380000D01*
X308900000Y-84880000D02*
X308900000Y-83380000D01*
%TO.C,D40*%
X284545000Y-83380000D02*
X284545000Y-84880000D01*
X284545000Y-84880000D02*
X289945000Y-84880000D01*
X286745000Y-83630000D02*
X286745000Y-84630000D01*
X286845000Y-84130000D02*
X287745000Y-83630000D01*
X287745000Y-83630000D02*
X287745000Y-84630000D01*
X287745000Y-84630000D02*
X286845000Y-84130000D01*
X289945000Y-83380000D02*
X284545000Y-83380000D01*
X289945000Y-84880000D02*
X289945000Y-83380000D01*
%TO.C,D56*%
X322585000Y-102060000D02*
X322585000Y-103560000D01*
X322585000Y-103560000D02*
X327985000Y-103560000D01*
X324785000Y-102310000D02*
X324785000Y-103310000D01*
X324885000Y-102810000D02*
X325785000Y-102310000D01*
X325785000Y-102310000D02*
X325785000Y-103310000D01*
X325785000Y-103310000D02*
X324885000Y-102810000D01*
X327985000Y-102060000D02*
X322585000Y-102060000D01*
X327985000Y-103560000D02*
X327985000Y-102060000D01*
%TO.C,D38*%
X246405000Y-83380000D02*
X246405000Y-84880000D01*
X246405000Y-84880000D02*
X251805000Y-84880000D01*
X248605000Y-83630000D02*
X248605000Y-84630000D01*
X248705000Y-84130000D02*
X249605000Y-83630000D01*
X249605000Y-83630000D02*
X249605000Y-84630000D01*
X249605000Y-84630000D02*
X248705000Y-84130000D01*
X251805000Y-83380000D02*
X246405000Y-83380000D01*
X251805000Y-84880000D02*
X251805000Y-83380000D01*
%TO.C,D53*%
X265520000Y-102060000D02*
X265520000Y-103560000D01*
X265520000Y-103560000D02*
X270920000Y-103560000D01*
X267720000Y-102310000D02*
X267720000Y-103310000D01*
X267820000Y-102810000D02*
X268720000Y-102310000D01*
X268720000Y-102310000D02*
X268720000Y-103310000D01*
X268720000Y-103310000D02*
X267820000Y-102810000D01*
X270920000Y-102060000D02*
X265520000Y-102060000D01*
X270920000Y-103560000D02*
X270920000Y-102060000D01*
%TO.C,D9*%
X227320000Y-44930000D02*
X227320000Y-46430000D01*
X227320000Y-46430000D02*
X232720000Y-46430000D01*
X229520000Y-45180000D02*
X229520000Y-46180000D01*
X229620000Y-45680000D02*
X230520000Y-45180000D01*
X230520000Y-45180000D02*
X230520000Y-46180000D01*
X230520000Y-46180000D02*
X229620000Y-45680000D01*
X232720000Y-44930000D02*
X227320000Y-44930000D01*
X232720000Y-46430000D02*
X232720000Y-44930000D01*
%TO.C,D55*%
X303500000Y-102060000D02*
X303500000Y-103560000D01*
X303500000Y-103560000D02*
X308900000Y-103560000D01*
X305700000Y-102310000D02*
X305700000Y-103310000D01*
X305800000Y-102810000D02*
X306700000Y-102310000D01*
X306700000Y-102310000D02*
X306700000Y-103310000D01*
X306700000Y-103310000D02*
X305800000Y-102810000D01*
X308900000Y-102060000D02*
X303500000Y-102060000D01*
X308900000Y-103560000D02*
X308900000Y-102060000D01*
%TO.C,D36*%
X208270000Y-83380000D02*
X208270000Y-84880000D01*
X208270000Y-84880000D02*
X213670000Y-84880000D01*
X210470000Y-83630000D02*
X210470000Y-84630000D01*
X210570000Y-84130000D02*
X211470000Y-83630000D01*
X211470000Y-83630000D02*
X211470000Y-84630000D01*
X211470000Y-84630000D02*
X210570000Y-84130000D01*
X213670000Y-83380000D02*
X208270000Y-83380000D01*
X213670000Y-84880000D02*
X213670000Y-83380000D01*
%TO.C,D62*%
X227320000Y-121130000D02*
X227320000Y-122630000D01*
X227320000Y-122630000D02*
X232720000Y-122630000D01*
X229520000Y-121380000D02*
X229520000Y-122380000D01*
X229620000Y-121880000D02*
X230520000Y-121380000D01*
X230520000Y-121380000D02*
X230520000Y-122380000D01*
X230520000Y-122380000D02*
X229620000Y-121880000D01*
X232720000Y-121130000D02*
X227320000Y-121130000D01*
X232720000Y-122630000D02*
X232720000Y-121130000D01*
%TO.C,D13*%
X303500000Y-44930000D02*
X303500000Y-46430000D01*
X303500000Y-46430000D02*
X308900000Y-46430000D01*
X305700000Y-45180000D02*
X305700000Y-46180000D01*
X305800000Y-45680000D02*
X306700000Y-45180000D01*
X306700000Y-45180000D02*
X306700000Y-46180000D01*
X306700000Y-46180000D02*
X305800000Y-45680000D01*
X308900000Y-44930000D02*
X303500000Y-44930000D01*
X308900000Y-46430000D02*
X308900000Y-44930000D01*
%TO.C,D54*%
X284545000Y-102060000D02*
X284545000Y-103560000D01*
X284545000Y-103560000D02*
X289945000Y-103560000D01*
X286745000Y-102310000D02*
X286745000Y-103310000D01*
X286845000Y-102810000D02*
X287745000Y-102310000D01*
X287745000Y-102310000D02*
X287745000Y-103310000D01*
X287745000Y-103310000D02*
X286845000Y-102810000D01*
X289945000Y-102060000D02*
X284545000Y-102060000D01*
X289945000Y-103560000D02*
X289945000Y-102060000D01*
%TO.C,D64*%
X265520000Y-121130000D02*
X265520000Y-122630000D01*
X265520000Y-122630000D02*
X270920000Y-122630000D01*
X267720000Y-121380000D02*
X267720000Y-122380000D01*
X267820000Y-121880000D02*
X268720000Y-121380000D01*
X268720000Y-121380000D02*
X268720000Y-122380000D01*
X268720000Y-122380000D02*
X267820000Y-121880000D01*
X270920000Y-121130000D02*
X265520000Y-121130000D01*
X270920000Y-122630000D02*
X270920000Y-121130000D01*
%TO.C,D23*%
X227320000Y-64250000D02*
X227320000Y-65750000D01*
X227320000Y-65750000D02*
X232720000Y-65750000D01*
X229520000Y-64500000D02*
X229520000Y-65500000D01*
X229620000Y-65000000D02*
X230520000Y-64500000D01*
X230520000Y-64500000D02*
X230520000Y-65500000D01*
X230520000Y-65500000D02*
X229620000Y-65000000D01*
X232720000Y-64250000D02*
X227320000Y-64250000D01*
X232720000Y-65750000D02*
X232720000Y-64250000D01*
%TO.C,D63*%
X246405000Y-121130000D02*
X246405000Y-122630000D01*
X246405000Y-122630000D02*
X251805000Y-122630000D01*
X248605000Y-121380000D02*
X248605000Y-122380000D01*
X248705000Y-121880000D02*
X249605000Y-121380000D01*
X249605000Y-121380000D02*
X249605000Y-122380000D01*
X249605000Y-122380000D02*
X248705000Y-121880000D01*
X251805000Y-121130000D02*
X246405000Y-121130000D01*
X251805000Y-122630000D02*
X251805000Y-121130000D01*
%TO.C,D50*%
X208270000Y-102060000D02*
X208270000Y-103560000D01*
X208270000Y-103560000D02*
X213670000Y-103560000D01*
X210470000Y-102310000D02*
X210470000Y-103310000D01*
X210570000Y-102810000D02*
X211470000Y-102310000D01*
X211470000Y-102310000D02*
X211470000Y-103310000D01*
X211470000Y-103310000D02*
X210570000Y-102810000D01*
X213670000Y-102060000D02*
X208270000Y-102060000D01*
X213670000Y-103560000D02*
X213670000Y-102060000D01*
%TO.C,D10*%
X246405000Y-44930000D02*
X246405000Y-46430000D01*
X246405000Y-46430000D02*
X251805000Y-46430000D01*
X248605000Y-45180000D02*
X248605000Y-46180000D01*
X248705000Y-45680000D02*
X249605000Y-45180000D01*
X249605000Y-45180000D02*
X249605000Y-46180000D01*
X249605000Y-46180000D02*
X248705000Y-45680000D01*
X251805000Y-44930000D02*
X246405000Y-44930000D01*
X251805000Y-46430000D02*
X251805000Y-44930000D01*
%TO.C,D61*%
X208270000Y-121130000D02*
X208270000Y-122630000D01*
X208270000Y-122630000D02*
X213670000Y-122630000D01*
X210470000Y-121380000D02*
X210470000Y-122380000D01*
X210570000Y-121880000D02*
X211470000Y-121380000D01*
X211470000Y-121380000D02*
X211470000Y-122380000D01*
X211470000Y-122380000D02*
X210570000Y-121880000D01*
X213670000Y-121130000D02*
X208270000Y-121130000D01*
X213670000Y-122630000D02*
X213670000Y-121130000D01*
%TO.C,D51*%
X227320000Y-102060000D02*
X227320000Y-103560000D01*
X227320000Y-103560000D02*
X232720000Y-103560000D01*
X229520000Y-102310000D02*
X229520000Y-103310000D01*
X229620000Y-102810000D02*
X230520000Y-102310000D01*
X230520000Y-102310000D02*
X230520000Y-103310000D01*
X230520000Y-103310000D02*
X229620000Y-102810000D01*
X232720000Y-102060000D02*
X227320000Y-102060000D01*
X232720000Y-103560000D02*
X232720000Y-102060000D01*
%TO.C,J2*%
X206958500Y-67561250D02*
X206958500Y-73561250D01*
X194958500Y-67561250D02*
X206958500Y-67561250D01*
X206958500Y-73561250D02*
X194958500Y-73561250D01*
X194958500Y-73561250D02*
X194958500Y-67561250D01*
%TO.C,D24*%
X246405000Y-64250000D02*
X246405000Y-65750000D01*
X246405000Y-65750000D02*
X251805000Y-65750000D01*
X248605000Y-64500000D02*
X248605000Y-65500000D01*
X248705000Y-65000000D02*
X249605000Y-64500000D01*
X249605000Y-64500000D02*
X249605000Y-65500000D01*
X249605000Y-65500000D02*
X248705000Y-65000000D01*
X251805000Y-64250000D02*
X246405000Y-64250000D01*
X251805000Y-65750000D02*
X251805000Y-64250000D01*
%TO.C,D25*%
X265520000Y-64250000D02*
X265520000Y-65750000D01*
X265520000Y-65750000D02*
X270920000Y-65750000D01*
X267720000Y-64500000D02*
X267720000Y-65500000D01*
X267820000Y-65000000D02*
X268720000Y-64500000D01*
X268720000Y-64500000D02*
X268720000Y-65500000D01*
X268720000Y-65500000D02*
X267820000Y-65000000D01*
X270920000Y-64250000D02*
X265520000Y-64250000D01*
X270920000Y-65750000D02*
X270920000Y-64250000D01*
%TO.C,D8*%
X208270000Y-44930000D02*
X208270000Y-46430000D01*
X208270000Y-46430000D02*
X213670000Y-46430000D01*
X210470000Y-45180000D02*
X210470000Y-46180000D01*
X210570000Y-45680000D02*
X211470000Y-45180000D01*
X211470000Y-45180000D02*
X211470000Y-46180000D01*
X211470000Y-46180000D02*
X210570000Y-45680000D01*
X213670000Y-44930000D02*
X208270000Y-44930000D01*
X213670000Y-46430000D02*
X213670000Y-44930000D01*
%TO.C,D37*%
X227320000Y-83380000D02*
X227320000Y-84880000D01*
X227320000Y-84880000D02*
X232720000Y-84880000D01*
X229520000Y-83630000D02*
X229520000Y-84630000D01*
X229620000Y-84130000D02*
X230520000Y-83630000D01*
X230520000Y-83630000D02*
X230520000Y-84630000D01*
X230520000Y-84630000D02*
X229620000Y-84130000D01*
X232720000Y-83380000D02*
X227320000Y-83380000D01*
X232720000Y-84880000D02*
X232720000Y-83380000D01*
%TO.C,D12*%
X284545000Y-44930000D02*
X284545000Y-46430000D01*
X284545000Y-46430000D02*
X289945000Y-46430000D01*
X286745000Y-45180000D02*
X286745000Y-46180000D01*
X286845000Y-45680000D02*
X287745000Y-45180000D01*
X287745000Y-45180000D02*
X287745000Y-46180000D01*
X287745000Y-46180000D02*
X286845000Y-45680000D01*
X289945000Y-44930000D02*
X284545000Y-44930000D01*
X289945000Y-46430000D02*
X289945000Y-44930000D01*
%TO.C,D11*%
X265520000Y-44930000D02*
X265520000Y-46430000D01*
X265520000Y-46430000D02*
X270920000Y-46430000D01*
X267720000Y-45180000D02*
X267720000Y-46180000D01*
X267820000Y-45680000D02*
X268720000Y-45180000D01*
X268720000Y-45180000D02*
X268720000Y-46180000D01*
X268720000Y-46180000D02*
X267820000Y-45680000D01*
X270920000Y-44930000D02*
X265520000Y-44930000D01*
X270920000Y-46430000D02*
X270920000Y-44930000D01*
D13*
%TO.C,U2*%
X285335000Y-127115000D02*
X284935000Y-127115000D01*
X287935000Y-127115000D02*
X287535000Y-127115000D01*
X290435000Y-127115000D02*
X290035000Y-127115000D01*
X292935000Y-127115000D02*
X292535000Y-127115000D01*
X295535000Y-127115000D02*
X295135000Y-127115000D01*
X298035000Y-127115000D02*
X297635000Y-127115000D01*
X300635000Y-127115000D02*
X300235000Y-127115000D01*
X303135000Y-127115000D02*
X302735000Y-127115000D01*
X305735000Y-127115000D02*
X305335000Y-127115000D01*
X308235000Y-127115000D02*
X307835000Y-127115000D01*
X310735000Y-127115000D02*
X310335000Y-127115000D01*
X313335000Y-127115000D02*
X312935000Y-127115000D01*
X315835000Y-127115000D02*
X315435000Y-127115000D01*
X318435000Y-127115000D02*
X318035000Y-127115000D01*
X320935000Y-127115000D02*
X320535000Y-127115000D01*
X323435000Y-127115000D02*
X323035000Y-127115000D01*
X326035000Y-127115000D02*
X325635000Y-127115000D01*
X328535000Y-127115000D02*
X328135000Y-127115000D01*
X330868000Y-127115000D02*
X330868000Y-124108000D01*
X331135000Y-127115000D02*
X330735000Y-127115000D01*
X333535000Y-127115000D02*
X333235000Y-127115000D01*
X333535000Y-127115000D02*
X333535000Y-106115000D01*
X330868000Y-124108000D02*
X333535000Y-124108000D01*
X282535000Y-120315000D02*
X282535000Y-127115000D01*
X282535000Y-118115000D02*
X282535000Y-117715000D01*
X282535000Y-115515000D02*
X282535000Y-115115000D01*
X282535000Y-106115000D02*
X282535000Y-112915000D01*
X285335000Y-106115000D02*
X284935000Y-106115000D01*
X287935000Y-106115000D02*
X287535000Y-106115000D01*
X290435000Y-106115000D02*
X290035000Y-106115000D01*
X292935000Y-106115000D02*
X292535000Y-106115000D01*
X295535000Y-106115000D02*
X295135000Y-106115000D01*
X298035000Y-106115000D02*
X297635000Y-106115000D01*
X300635000Y-106115000D02*
X300235000Y-106115000D01*
X303135000Y-106115000D02*
X302735000Y-106115000D01*
X305735000Y-106115000D02*
X305335000Y-106115000D01*
X308235000Y-106115000D02*
X307835000Y-106115000D01*
X310735000Y-106115000D02*
X310335000Y-106115000D01*
X313335000Y-106115000D02*
X312935000Y-106115000D01*
X315835000Y-106115000D02*
X315435000Y-106115000D01*
X318435000Y-106115000D02*
X318035000Y-106115000D01*
X320935000Y-106115000D02*
X320535000Y-106115000D01*
X323435000Y-106115000D02*
X323035000Y-106115000D01*
X326035000Y-106115000D02*
X325635000Y-106115000D01*
X328535000Y-106115000D02*
X328135000Y-106115000D01*
X331135000Y-106115000D02*
X330735000Y-106115000D01*
X333535000Y-106115000D02*
X333235000Y-106115000D01*
%TD*%
M02*
