%TF.GenerationSoftware,KiCad,Pcbnew,(7.0.0-0)*%
%TF.CreationDate,2023-03-06T01:52:27+09:00*%
%TF.ProjectId,11111_pcb,31313131-315f-4706-9362-2e6b69636164,rev?*%
%TF.SameCoordinates,Original*%
%TF.FileFunction,Legend,Top*%
%TF.FilePolarity,Positive*%
%FSLAX46Y46*%
G04 Gerber Fmt 4.6, Leading zero omitted, Abs format (unit mm)*
G04 Created by KiCad (PCBNEW (7.0.0-0)) date 2023-03-06 01:52:27*
%MOMM*%
%LPD*%
G01*
G04 APERTURE LIST*
%ADD10O,2.500000X2.000000*%
%ADD11C,1.210000*%
%ADD12O,2.200000X1.300000*%
G04 APERTURE END LIST*
D10*
%TO.C,SW64*%
X251105986Y-111701999D03*
X257455986Y-109161999D03*
%TD*%
%TO.C,SW41*%
X289105986Y-73601999D03*
X295455986Y-71061999D03*
%TD*%
%TO.C,SW42*%
X308205986Y-73601999D03*
X314555986Y-71061999D03*
%TD*%
%TO.C,SW36*%
X193905986Y-73601999D03*
X200255986Y-71061999D03*
%TD*%
%TO.C,SW63*%
X232005986Y-111701999D03*
X238355986Y-109161999D03*
%TD*%
D11*
%TO.C,J2*%
X192825987Y-68042000D03*
X185825987Y-68042000D03*
D12*
X182525986Y-70041999D03*
X191025986Y-66041999D03*
X188025986Y-66041999D03*
X184025986Y-66041999D03*
%TD*%
D10*
%TO.C,SW10*%
X232005986Y-35501999D03*
X238355986Y-32961999D03*
%TD*%
%TO.C,SW9*%
X212905986Y-35501999D03*
X219255986Y-32961999D03*
%TD*%
%TO.C,SW27*%
X289105986Y-54551999D03*
X295455986Y-52011999D03*
%TD*%
%TO.C,SW14*%
X308205986Y-35501999D03*
X314555986Y-32961999D03*
%TD*%
%TO.C,SW50*%
X193905986Y-92651999D03*
X200255986Y-90111999D03*
%TD*%
%TO.C,SW38*%
X232005986Y-73601999D03*
X238355986Y-71061999D03*
%TD*%
%TO.C,SW11*%
X251105986Y-35501999D03*
X257455986Y-32961999D03*
%TD*%
%TO.C,SW52*%
X232005986Y-92651999D03*
X238355986Y-90111999D03*
%TD*%
%TO.C,SW39*%
X251105986Y-73601999D03*
X257455986Y-71061999D03*
%TD*%
%TO.C,SW55*%
X289105986Y-92651999D03*
X295455986Y-90111999D03*
%TD*%
%TO.C,SW24*%
X232005986Y-54551999D03*
X238355986Y-52011999D03*
%TD*%
%TO.C,SW25*%
X251105986Y-54551999D03*
X257455986Y-52011999D03*
%TD*%
%TO.C,SW40*%
X270105986Y-73601999D03*
X276455986Y-71061999D03*
%TD*%
%TO.C,SW53*%
X251105986Y-92651999D03*
X257455986Y-90111999D03*
%TD*%
%TO.C,SW28*%
X308205986Y-54551999D03*
X314555986Y-52011999D03*
%TD*%
%TO.C,SW51*%
X212905986Y-92651999D03*
X219255986Y-90111999D03*
%TD*%
%TO.C,SW37*%
X212905986Y-73601999D03*
X219255986Y-71061999D03*
%TD*%
%TO.C,SW56*%
X308205986Y-92651999D03*
X314555986Y-90111999D03*
%TD*%
%TO.C,SW13*%
X289105986Y-35501999D03*
X295455986Y-32961999D03*
%TD*%
%TO.C,SW62*%
X212905986Y-111701999D03*
X219255986Y-109161999D03*
%TD*%
%TO.C,SW23*%
X212905986Y-54551999D03*
X219255986Y-52011999D03*
%TD*%
%TO.C,SW12*%
X270105986Y-35501999D03*
X276455986Y-32961999D03*
%TD*%
%TO.C,SW8*%
X193905986Y-35501999D03*
X200255986Y-32961999D03*
%TD*%
%TO.C,SW54*%
X270105986Y-92651999D03*
X276455986Y-90111999D03*
%TD*%
%TO.C,SW61*%
X193905986Y-111701999D03*
X200255986Y-109161999D03*
%TD*%
%TO.C,SW26*%
X270105986Y-54551999D03*
X276455986Y-52011999D03*
%TD*%
%TO.C,SW22*%
X193905986Y-54551999D03*
X200255986Y-52011999D03*
%TD*%
M02*
