M48
; DRILL file {KiCad (7.0.0-0)} date Monday, March 06, 2023 01:52:29
; FORMAT={-:-/ absolute / inch / decimal}
; #@! TF.CreationDate,2023-03-06T01:52:29+09:00
; #@! TF.GenerationSoftware,Kicad,Pcbnew,(7.0.0-0)
; #@! TF.FileFunction,NonPlated,1,2,NPTH
FMAT,2
INCH
; #@! TA.AperFunction,NonPlated,NPTH,ComponentDrill
T1C0.0472
; #@! TA.AperFunction,NonPlated,NPTH,ComponentDrill
T2C0.0591
; #@! TA.AperFunction,NonPlated,NPTH,ComponentDrill
T3C0.0709
; #@! TA.AperFunction,NonPlated,NPTH,ComponentDrill
T4C0.0748
; #@! TA.AperFunction,NonPlated,NPTH,ComponentDrill
T5C0.1575
%
G90
G05
T1
X7.316Y-2.6788
X7.5916Y-2.6788
T2
X12.4601Y-4.3957
X12.4601Y-4.5867
T3
X12.5794Y-4.3839
X12.5794Y-4.5985
T4
X7.5841Y-1.4977
X7.5841Y-2.2477
X7.5841Y-2.9977
X7.5841Y-3.7477
X7.5841Y-4.4977
X7.9841Y-1.4977
X7.9841Y-2.2477
X7.9841Y-2.9977
X7.9841Y-3.7477
X7.9841Y-4.4977
X8.3321Y-1.4977
X8.3321Y-2.2477
X8.3321Y-2.9977
X8.3321Y-3.7477
X8.3321Y-4.4977
X8.7321Y-1.4977
X8.7321Y-2.2477
X8.7321Y-2.9977
X8.7321Y-3.7477
X8.7321Y-4.4977
X9.0841Y-1.4977
X9.0841Y-2.2477
X9.0841Y-2.9977
X9.0841Y-3.7477
X9.0841Y-4.4977
X9.4841Y-1.4977
X9.4841Y-2.2477
X9.4841Y-2.9977
X9.4841Y-3.7477
X9.4841Y-4.4977
X9.8361Y-1.4977
X9.8361Y-2.2477
X9.8361Y-2.9977
X9.8361Y-3.7477
X9.8361Y-4.4977
X10.2361Y-1.4977
X10.2361Y-2.2477
X10.2361Y-2.9977
X10.2361Y-3.7477
X10.2361Y-4.4977
X10.5841Y-1.4977
X10.5841Y-2.2477
X10.5841Y-2.9977
X10.5841Y-3.7477
X10.9841Y-1.4977
X10.9841Y-2.2477
X10.9841Y-2.9977
X10.9841Y-3.7477
X11.3321Y-1.4977
X11.3321Y-2.2477
X11.3321Y-2.9977
X11.3321Y-3.7477
X11.7321Y-1.4977
X11.7321Y-2.2477
X11.7321Y-2.9977
X11.7321Y-3.7477
X12.0841Y-1.4977
X12.0841Y-2.2477
X12.0841Y-2.9977
X12.0841Y-3.7477
X12.4841Y-1.4977
X12.4841Y-2.2477
X12.4841Y-2.9977
X12.4841Y-3.7477
T5
X7.7841Y-1.4977
X7.7841Y-2.2477
X7.7841Y-2.9977
X7.7841Y-3.7477
X7.7841Y-4.4977
X8.5321Y-1.4977
X8.5321Y-2.2477
X8.5321Y-2.9977
X8.5321Y-3.7477
X8.5321Y-4.4977
X9.2841Y-1.4977
X9.2841Y-2.2477
X9.2841Y-2.9977
X9.2841Y-3.7477
X9.2841Y-4.4977
X10.0361Y-1.4977
X10.0361Y-2.2477
X10.0361Y-2.9977
X10.0361Y-3.7477
X10.0361Y-4.4977
X10.7841Y-1.4977
X10.7841Y-2.2477
X10.7841Y-2.9977
X10.7841Y-3.7477
X11.5321Y-1.4977
X11.5321Y-2.2477
X11.5321Y-2.9977
X11.5321Y-3.7477
X12.2841Y-1.4977
X12.2841Y-2.2477
X12.2841Y-2.9977
X12.2841Y-3.7477
T0
M30
