M48
; DRILL file {KiCad (7.0.0-0)} date Sunday, March 19, 2023 23:49:51
; FORMAT={-:-/ absolute / inch / decimal}
; #@! TF.CreationDate,2023-03-19T23:49:51+09:00
; #@! TF.GenerationSoftware,Kicad,Pcbnew,(7.0.0-0)
; #@! TF.FileFunction,Plated,1,2,PTH
FMAT,2
INCH
; #@! TA.AperFunction,Plated,PTH,ViaDrill
T1C0.0157
; #@! TA.AperFunction,Plated,PTH,ComponentDrill
T2C0.0236
; #@! TA.AperFunction,Plated,PTH,ComponentDrill
T3C0.0315
%
G90
G05
T1
X7.8829Y-1.6993
X7.8829Y-2.4599
X7.8829Y-3.2131
X7.8829Y-3.9485
X7.8829Y-4.6993
X8.0191Y-4.0253
X8.2713Y-1.8721
X8.6329Y-1.6993
X8.6329Y-2.4599
X8.6329Y-3.2131
X8.6329Y-3.9485
X8.6329Y-4.6993
X9.3843Y-1.6993
X9.3843Y-2.4599
X9.3843Y-3.2131
X9.3843Y-3.9485
X9.3843Y-4.6993
X9.5248Y-4.1672
X9.7071Y-4.6008
X9.9481Y-4.2294
X10.1368Y-1.6993
X10.1368Y-2.4599
X10.1368Y-3.2131
X10.1368Y-3.9485
X10.1368Y-4.6993
X10.3071Y-2.6009
X10.3071Y-3.2387
X10.3071Y-4.6387
X10.4248Y-1.7752
X10.4534Y-3.842
X10.5646Y-4.1009
X10.5715Y-4.5723
X10.6Y-3.5008
X10.6267Y-4.4357
X10.8Y-4.6293
X10.8637Y-3.9009
X10.8859Y-1.6993
X10.8859Y-2.4599
X10.8859Y-3.2131
X10.9665Y-4.6343
X11.0Y-3.8705
X11.0Y-4.2008
X11.0Y-4.2715
X11.0849Y-4.3786
X11.0983Y-4.1731
X11.1845Y-4.1538
X11.1936Y-4.4072
X11.2845Y-4.1538
X11.4Y-4.2008
X11.4Y-4.6008
X11.549Y-3.9156
X11.5715Y-4.2293
X11.6321Y-1.6993
X11.6321Y-2.4599
X11.6321Y-3.2131
X11.6921Y-1.1839
X11.737Y-3.4008
X11.9847Y-3.6485
X12.3835Y-1.6993
X12.3835Y-2.4599
X12.3835Y-3.2131
X12.4Y-3.7519
X12.4Y-4.2008
X12.4Y-4.6008
X12.4781Y-4.6371
X12.5665Y-1.9673
X12.6Y-1.4008
X12.6Y-3.8008
T2
G00X8.1622Y-0.924
M15
G01X8.1622Y-0.9594
M16
G05
G00X8.1622Y-1.0421
M15
G01X8.1622Y-1.0776
M16
G05
G00X8.1622Y-1.1996
M15
G01X8.1622Y-1.235
M16
G05
G00X8.3197Y-1.2587
M15
G01X8.3197Y-1.2941
M16
G05
T3
G00X7.6262Y-1.3985
M15
G01X7.642Y-1.3985
M16
G05
G00X7.6262Y-2.1485
M15
G01X7.642Y-2.1485
M16
G05
G00X7.6262Y-2.8985
M15
G01X7.642Y-2.8985
M16
G05
G00X7.6262Y-3.6485
M15
G01X7.642Y-3.6485
M16
G05
G00X7.6262Y-4.3985
M15
G01X7.642Y-4.3985
M16
G05
G00X7.8762Y-1.2985
M15
G01X7.892Y-1.2985
M16
G05
G00X7.8762Y-2.0485
M15
G01X7.892Y-2.0485
M16
G05
G00X7.8762Y-2.7985
M15
G01X7.892Y-2.7985
M16
G05
G00X7.8762Y-3.5485
M15
G01X7.892Y-3.5485
M16
G05
G00X7.8762Y-4.2985
M15
G01X7.892Y-4.2985
M16
G05
G00X8.3743Y-1.3985
M15
G01X8.39Y-1.3985
M16
G05
G00X8.3743Y-2.1485
M15
G01X8.39Y-2.1485
M16
G05
G00X8.3743Y-2.8985
M15
G01X8.39Y-2.8985
M16
G05
G00X8.3743Y-3.6485
M15
G01X8.39Y-3.6485
M16
G05
G00X8.3743Y-4.3985
M15
G01X8.39Y-4.3985
M16
G05
G00X8.6243Y-1.2985
M15
G01X8.64Y-1.2985
M16
G05
G00X8.6243Y-2.0485
M15
G01X8.64Y-2.0485
M16
G05
G00X8.6243Y-2.7985
M15
G01X8.64Y-2.7985
M16
G05
G00X8.6243Y-3.5485
M15
G01X8.64Y-3.5485
M16
G05
G00X8.6243Y-4.2985
M15
G01X8.64Y-4.2985
M16
G05
G00X9.1262Y-1.3985
M15
G01X9.142Y-1.3985
M16
G05
G00X9.1262Y-2.1485
M15
G01X9.142Y-2.1485
M16
G05
G00X9.1262Y-2.8985
M15
G01X9.142Y-2.8985
M16
G05
G00X9.1262Y-3.6485
M15
G01X9.142Y-3.6485
M16
G05
G00X9.1262Y-4.3985
M15
G01X9.142Y-4.3985
M16
G05
G00X9.3762Y-1.2985
M15
G01X9.392Y-1.2985
M16
G05
G00X9.3762Y-2.0485
M15
G01X9.392Y-2.0485
M16
G05
G00X9.3762Y-2.7985
M15
G01X9.392Y-2.7985
M16
G05
G00X9.3762Y-3.5485
M15
G01X9.392Y-3.5485
M16
G05
G00X9.3762Y-4.2985
M15
G01X9.392Y-4.2985
M16
G05
G00X9.8782Y-1.3985
M15
G01X9.8939Y-1.3985
M16
G05
G00X9.8782Y-2.1485
M15
G01X9.8939Y-2.1485
M16
G05
G00X9.8782Y-2.8985
M15
G01X9.8939Y-2.8985
M16
G05
G00X9.8782Y-3.6485
M15
G01X9.8939Y-3.6485
M16
G05
G00X9.8782Y-4.3985
M15
G01X9.8939Y-4.3985
M16
G05
G00X10.1282Y-1.2985
M15
G01X10.1439Y-1.2985
M16
G05
G00X10.1282Y-2.0485
M15
G01X10.1439Y-2.0485
M16
G05
G00X10.1282Y-2.7985
M15
G01X10.1439Y-2.7985
M16
G05
G00X10.1282Y-3.5485
M15
G01X10.1439Y-3.5485
M16
G05
G00X10.1282Y-4.2985
M15
G01X10.1439Y-4.2985
M16
G05
G00X10.6262Y-1.3985
M15
G01X10.642Y-1.3985
M16
G05
G00X10.6262Y-2.1485
M15
G01X10.642Y-2.1485
M16
G05
G00X10.6262Y-2.8985
M15
G01X10.642Y-2.8985
M16
G05
G00X10.6262Y-3.6485
M15
G01X10.642Y-3.6485
M16
G05
G00X10.8762Y-1.2985
M15
G01X10.892Y-1.2985
M16
G05
G00X10.8762Y-2.0485
M15
G01X10.892Y-2.0485
M16
G05
G00X10.8762Y-2.7985
M15
G01X10.892Y-2.7985
M16
G05
G00X10.8762Y-3.5485
M15
G01X10.892Y-3.5485
M16
G05
G00X11.3743Y-1.3985
M15
G01X11.39Y-1.3985
M16
G05
G00X11.3743Y-2.1485
M15
G01X11.39Y-2.1485
M16
G05
G00X11.3743Y-2.8985
M15
G01X11.39Y-2.8985
M16
G05
G00X11.3743Y-3.6485
M15
G01X11.39Y-3.6485
M16
G05
G00X11.6243Y-1.2985
M15
G01X11.64Y-1.2985
M16
G05
G00X11.6243Y-2.0485
M15
G01X11.64Y-2.0485
M16
G05
G00X11.6243Y-2.7985
M15
G01X11.64Y-2.7985
M16
G05
G00X11.6243Y-3.5485
M15
G01X11.64Y-3.5485
M16
G05
G00X12.1262Y-1.3985
M15
G01X12.142Y-1.3985
M16
G05
G00X12.1262Y-2.1485
M15
G01X12.142Y-2.1485
M16
G05
G00X12.1262Y-2.8985
M15
G01X12.142Y-2.8985
M16
G05
G00X12.1262Y-3.6485
M15
G01X12.142Y-3.6485
M16
G05
G00X12.3762Y-1.2985
M15
G01X12.392Y-1.2985
M16
G05
G00X12.3762Y-2.0485
M15
G01X12.392Y-2.0485
M16
G05
G00X12.3762Y-2.7985
M15
G01X12.392Y-2.7985
M16
G05
G00X12.3762Y-3.5485
M15
G01X12.392Y-3.5485
M16
G05
T0
M30
