M48
; DRILL file {KiCad (7.0.0-0)} date Sunday, March 19, 2023 23:48:36
; FORMAT={-:-/ absolute / inch / decimal}
; #@! TF.CreationDate,2023-03-19T23:48:36+09:00
; #@! TF.GenerationSoftware,Kicad,Pcbnew,(7.0.0-0)
; #@! TF.FileFunction,Plated,1,2,PTH
FMAT,2
INCH
; #@! TA.AperFunction,Plated,PTH,ViaDrill
T1C0.0157
; #@! TA.AperFunction,Plated,PTH,ComponentDrill
T2C0.0236
; #@! TA.AperFunction,Plated,PTH,ComponentDrill
T3C0.0300
; #@! TA.AperFunction,Plated,PTH,ComponentDrill
T4C0.0315
%
G90
G05
T1
X1.2Y-1.4
X1.2Y-3.8
X1.6236Y-1.6984
X1.6236Y-2.4591
X1.6236Y-3.2122
X1.8Y-4.6334
X1.8675Y-4.2
X2.2Y-3.8971
X2.2Y-4.5
X2.2783Y-4.6334
X2.3736Y-1.6984
X2.3736Y-2.4591
X2.3736Y-3.2122
X2.4Y-4.6
X2.4224Y-4.6332
X2.589Y-1.411
X2.6224Y-4.5776
X2.6939Y-3.9
X2.7Y-1.8378
X2.7224Y-4.5776
X2.7728Y-3.8378
X2.8Y-2.5378
X2.8Y-4.4
X2.8224Y-3.8776
X2.8622Y-4.4378
X2.9878Y-3.2122
X3.0Y-4.6285
X3.0335Y-4.2335
X3.1224Y-4.2
X3.1276Y-1.6984
X3.1276Y-2.4591
X3.1276Y-3.2122
X3.2Y-3.4
X3.2Y-4.3378
X3.2Y-4.4
X3.2524Y-3.6524
X3.4Y-3.8
X3.4Y-4.3378
X3.6Y-4.7
X3.8776Y-1.6984
X3.8776Y-2.4591
X3.8776Y-3.2122
X3.8776Y-3.9476
X3.8776Y-4.6984
X4.0Y-4.6
X4.2Y-4.4
X4.6Y-4.2
X4.6232Y-1.6984
X4.6232Y-2.4591
X4.6232Y-3.2122
X4.6232Y-3.9378
X4.6232Y-4.6984
X4.7715Y-4.6285
X5.0206Y-0.9635
X5.374Y-1.6984
X5.374Y-2.4591
X5.374Y-3.2122
X5.374Y-3.9476
X5.374Y-4.6984
X5.8283Y-4.8044
X6.125Y-1.6984
X6.125Y-2.4591
X6.125Y-3.2122
X6.125Y-3.9476
X6.125Y-4.6984
T3
X4.7433Y-0.9157
X4.7433Y-1.0157
X5.3433Y-0.9157
X5.3433Y-1.0157
T2
G00X5.4898Y-0.9232
M15
G01X5.4898Y-0.9587
M16
G05
G00X5.4898Y-1.0413
M15
G01X5.4898Y-1.0768
M16
G05
G00X5.4898Y-1.1988
M15
G01X5.4898Y-1.2343
M16
G05
G00X5.6472Y-1.2579
M15
G01X5.6472Y-1.2933
M16
G05
T4
G00X1.3671Y-1.3976
M15
G01X1.3829Y-1.3976
M16
G05
G00X1.3671Y-2.1476
M15
G01X1.3829Y-2.1476
M16
G05
G00X1.3671Y-2.8976
M15
G01X1.3829Y-2.8976
M16
G05
G00X1.3671Y-3.6524
M15
G01X1.3829Y-3.6524
M16
G05
G00X1.6171Y-1.2976
M15
G01X1.6329Y-1.2976
M16
G05
G00X1.6171Y-2.0476
M15
G01X1.6329Y-2.0476
M16
G05
G00X1.6171Y-2.7976
M15
G01X1.6329Y-2.7976
M16
G05
G00X1.6171Y-3.5524
M15
G01X1.6329Y-3.5524
M16
G05
G00X2.1144Y-1.3976
M15
G01X2.1301Y-1.3976
M16
G05
G00X2.1144Y-2.1476
M15
G01X2.1301Y-2.1476
M16
G05
G00X2.1144Y-2.8976
M15
G01X2.1301Y-2.8976
M16
G05
G00X2.1144Y-3.6524
M15
G01X2.1301Y-3.6524
M16
G05
G00X2.3644Y-1.2976
M15
G01X2.3801Y-1.2976
M16
G05
G00X2.3644Y-2.0476
M15
G01X2.3801Y-2.0476
M16
G05
G00X2.3644Y-2.7976
M15
G01X2.3801Y-2.7976
M16
G05
G00X2.3644Y-3.5524
M15
G01X2.3801Y-3.5524
M16
G05
G00X2.8671Y-1.3976
M15
G01X2.8829Y-1.3976
M16
G05
G00X2.8671Y-2.1476
M15
G01X2.8829Y-2.1476
M16
G05
G00X2.8671Y-2.8976
M15
G01X2.8829Y-2.8976
M16
G05
G00X2.8671Y-3.6524
M15
G01X2.8829Y-3.6524
M16
G05
G00X3.1171Y-1.2976
M15
G01X3.1329Y-1.2976
M16
G05
G00X3.1171Y-2.0476
M15
G01X3.1329Y-2.0476
M16
G05
G00X3.1171Y-2.7976
M15
G01X3.1329Y-2.7976
M16
G05
G00X3.1171Y-3.5524
M15
G01X3.1329Y-3.5524
M16
G05
G00X3.6171Y-1.3976
M15
G01X3.6329Y-1.3976
M16
G05
G00X3.6171Y-2.1476
M15
G01X3.6329Y-2.1476
M16
G05
G00X3.6171Y-2.8976
M15
G01X3.6329Y-2.8976
M16
G05
G00X3.6171Y-3.6524
M15
G01X3.6329Y-3.6524
M16
G05
G00X3.6195Y-4.3976
M15
G01X3.6352Y-4.3976
M16
G05
G00X3.8671Y-1.2976
M15
G01X3.8829Y-1.2976
M16
G05
G00X3.8671Y-2.0476
M15
G01X3.8829Y-2.0476
M16
G05
G00X3.8671Y-2.7976
M15
G01X3.8829Y-2.7976
M16
G05
G00X3.8671Y-3.5524
M15
G01X3.8829Y-3.5524
M16
G05
G00X3.8695Y-4.2976
M15
G01X3.8852Y-4.2976
M16
G05
G00X4.3671Y-1.3976
M15
G01X4.3829Y-1.3976
M16
G05
G00X4.3671Y-2.1476
M15
G01X4.3829Y-2.1476
M16
G05
G00X4.3671Y-2.8976
M15
G01X4.3829Y-2.8976
M16
G05
G00X4.3671Y-3.6524
M15
G01X4.3829Y-3.6524
M16
G05
G00X4.3671Y-4.3976
M15
G01X4.3829Y-4.3976
M16
G05
G00X4.6171Y-1.2976
M15
G01X4.6329Y-1.2976
M16
G05
G00X4.6171Y-2.0476
M15
G01X4.6329Y-2.0476
M16
G05
G00X4.6171Y-2.7976
M15
G01X4.6329Y-2.7976
M16
G05
G00X4.6171Y-3.5524
M15
G01X4.6329Y-3.5524
M16
G05
G00X4.6171Y-4.2976
M15
G01X4.6329Y-4.2976
M16
G05
G00X5.1171Y-1.3976
M15
G01X5.1329Y-1.3976
M16
G05
G00X5.1171Y-2.1476
M15
G01X5.1329Y-2.1476
M16
G05
G00X5.1171Y-2.8976
M15
G01X5.1329Y-2.8976
M16
G05
G00X5.1171Y-3.6524
M15
G01X5.1329Y-3.6524
M16
G05
G00X5.1171Y-4.3976
M15
G01X5.1329Y-4.3976
M16
G05
G00X5.3671Y-1.2976
M15
G01X5.3829Y-1.2976
M16
G05
G00X5.3671Y-2.0476
M15
G01X5.3829Y-2.0476
M16
G05
G00X5.3671Y-2.7976
M15
G01X5.3829Y-2.7976
M16
G05
G00X5.3671Y-3.5524
M15
G01X5.3829Y-3.5524
M16
G05
G00X5.3671Y-4.2976
M15
G01X5.3829Y-4.2976
M16
G05
G00X5.8671Y-1.3976
M15
G01X5.8829Y-1.3976
M16
G05
G00X5.8671Y-2.1476
M15
G01X5.8829Y-2.1476
M16
G05
G00X5.8671Y-2.8976
M15
G01X5.8829Y-2.8976
M16
G05
G00X5.8671Y-3.6476
M15
G01X5.8829Y-3.6476
M16
G05
G00X5.8671Y-4.3976
M15
G01X5.8829Y-4.3976
M16
G05
G00X6.1171Y-1.2976
M15
G01X6.1329Y-1.2976
M16
G05
G00X6.1171Y-2.0476
M15
G01X6.1329Y-2.0476
M16
G05
G00X6.1171Y-2.7976
M15
G01X6.1329Y-2.7976
M16
G05
G00X6.1171Y-3.5476
M15
G01X6.1329Y-3.5476
M16
G05
G00X6.1171Y-4.2976
M15
G01X6.1329Y-4.2976
M16
G05
T0
M30
