%TF.GenerationSoftware,KiCad,Pcbnew,(7.0.0-0)*%
%TF.CreationDate,2023-03-05T22:08:41+09:00*%
%TF.ProjectId,11111_pcb,31313131-315f-4706-9362-2e6b69636164,rev?*%
%TF.SameCoordinates,Original*%
%TF.FileFunction,Soldermask,Top*%
%TF.FilePolarity,Negative*%
%FSLAX46Y46*%
G04 Gerber Fmt 4.6, Leading zero omitted, Abs format (unit mm)*
G04 Created by KiCad (PCBNEW (7.0.0-0)) date 2023-03-05 22:08:41*
%MOMM*%
%LPD*%
G01*
G04 APERTURE LIST*
%ADD10C,1.900000*%
%ADD11C,4.000000*%
%ADD12C,1.210000*%
%ADD13O,2.200000X1.300000*%
%ADD14C,1.524000*%
%ADD15O,1.800000X1.800000*%
%ADD16O,1.500000X1.500000*%
G04 APERTURE END LIST*
D10*
%TO.C,SW13*%
X300355000Y-40580000D03*
D11*
X305435000Y-40580000D03*
D10*
X310515000Y-40580000D03*
%TD*%
%TO.C,SW46*%
X98425000Y-97850000D03*
D11*
X103505000Y-97850000D03*
D10*
X108585000Y-97850000D03*
%TD*%
%TO.C,SW8*%
X205155000Y-40580000D03*
D11*
X210235000Y-40580000D03*
D10*
X215315000Y-40580000D03*
%TD*%
%TO.C,SW54*%
X281355000Y-97730000D03*
D11*
X286435000Y-97730000D03*
D10*
X291515000Y-97730000D03*
%TD*%
%TO.C,SW61*%
X205155000Y-116780000D03*
D11*
X210235000Y-116780000D03*
D10*
X215315000Y-116780000D03*
%TD*%
%TO.C,SW26*%
X281355000Y-59630000D03*
D11*
X286435000Y-59630000D03*
D10*
X291515000Y-59630000D03*
%TD*%
%TO.C,SW22*%
X205155000Y-59630000D03*
D11*
X210235000Y-59630000D03*
D10*
X215315000Y-59630000D03*
%TD*%
D12*
%TO.C,J1*%
X165500000Y-70580000D03*
X172500000Y-70580000D03*
D13*
X175799999Y-68579999D03*
X167299999Y-72579999D03*
X170299999Y-72579999D03*
X174299999Y-72579999D03*
%TD*%
D14*
%TO.C,REF\u002A\u002A*%
X95920000Y-25800000D03*
X95920000Y-28340000D03*
X111160000Y-25800000D03*
X111160000Y-28340000D03*
%TD*%
D10*
%TO.C,SW34*%
X136525000Y-78680000D03*
D11*
X141605000Y-78680000D03*
D10*
X146685000Y-78680000D03*
%TD*%
%TO.C,SW15*%
X41275000Y-59630000D03*
D11*
X46355000Y-59630000D03*
D10*
X51435000Y-59630000D03*
%TD*%
%TO.C,SW62*%
X224155000Y-116780000D03*
D11*
X229235000Y-116780000D03*
D10*
X234315000Y-116780000D03*
%TD*%
%TO.C,SW23*%
X224155000Y-59630000D03*
D11*
X229235000Y-59630000D03*
D10*
X234315000Y-59630000D03*
%TD*%
%TO.C,SW45*%
X79375000Y-97850000D03*
D11*
X84455000Y-97850000D03*
D10*
X89535000Y-97850000D03*
%TD*%
%TO.C,SW57*%
X98485000Y-116780000D03*
D11*
X103565000Y-116780000D03*
D10*
X108645000Y-116780000D03*
%TD*%
%TO.C,SW1*%
X41275000Y-40580000D03*
D11*
X46355000Y-40580000D03*
D10*
X51435000Y-40580000D03*
%TD*%
%TO.C,SW12*%
X281355000Y-40580000D03*
D11*
X286435000Y-40580000D03*
D10*
X291515000Y-40580000D03*
%TD*%
%TO.C,SW58*%
X117475000Y-116780000D03*
D11*
X122555000Y-116780000D03*
D10*
X127635000Y-116780000D03*
%TD*%
%TO.C,SW16*%
X60255000Y-59630000D03*
D11*
X65335000Y-59630000D03*
D10*
X70415000Y-59630000D03*
%TD*%
%TO.C,SW40*%
X281355000Y-78680000D03*
D11*
X286435000Y-78680000D03*
D10*
X291515000Y-78680000D03*
%TD*%
%TO.C,SW19*%
X117475000Y-59630000D03*
D11*
X122555000Y-59630000D03*
D10*
X127635000Y-59630000D03*
%TD*%
%TO.C,SW43*%
X41275000Y-97850000D03*
D11*
X46355000Y-97850000D03*
D10*
X51435000Y-97850000D03*
%TD*%
%TO.C,SW53*%
X262355000Y-97730000D03*
D11*
X267435000Y-97730000D03*
D10*
X272515000Y-97730000D03*
%TD*%
%TO.C,SW47*%
X117475000Y-97850000D03*
D11*
X122555000Y-97850000D03*
D10*
X127635000Y-97850000D03*
%TD*%
%TO.C,SW35*%
X155575000Y-78680000D03*
D11*
X160655000Y-78680000D03*
D10*
X165735000Y-78680000D03*
%TD*%
%TO.C,SW28*%
X319455000Y-59630000D03*
D11*
X324535000Y-59630000D03*
D10*
X329615000Y-59630000D03*
%TD*%
%TO.C,SW51*%
X224155000Y-97730000D03*
D11*
X229235000Y-97730000D03*
D10*
X234315000Y-97730000D03*
%TD*%
%TO.C,SW37*%
X224155000Y-78680000D03*
D11*
X229235000Y-78680000D03*
D10*
X234315000Y-78680000D03*
%TD*%
%TO.C,SW56*%
X319455000Y-97730000D03*
D11*
X324535000Y-97730000D03*
D10*
X329615000Y-97730000D03*
%TD*%
%TO.C,SW30*%
X60255000Y-78680000D03*
D11*
X65335000Y-78680000D03*
D10*
X70415000Y-78680000D03*
%TD*%
%TO.C,SW33*%
X117475000Y-78680000D03*
D11*
X122555000Y-78680000D03*
D10*
X127635000Y-78680000D03*
%TD*%
%TO.C,SW9*%
X224155000Y-40580000D03*
D11*
X229235000Y-40580000D03*
D10*
X234315000Y-40580000D03*
%TD*%
%TO.C,SW27*%
X300355000Y-59630000D03*
D11*
X305435000Y-59630000D03*
D10*
X310515000Y-59630000D03*
%TD*%
%TO.C,SW14*%
X319455000Y-40580000D03*
D11*
X324535000Y-40580000D03*
D10*
X329615000Y-40580000D03*
%TD*%
%TO.C,SW50*%
X205155000Y-97730000D03*
D11*
X210235000Y-97730000D03*
D10*
X215315000Y-97730000D03*
%TD*%
%TO.C,SW38*%
X243255000Y-78680000D03*
D11*
X248335000Y-78680000D03*
D10*
X253415000Y-78680000D03*
%TD*%
%TO.C,SW11*%
X262355000Y-40580000D03*
D11*
X267435000Y-40580000D03*
D10*
X272515000Y-40580000D03*
%TD*%
%TO.C,SW6*%
X136525000Y-40580000D03*
D11*
X141605000Y-40580000D03*
D10*
X146685000Y-40580000D03*
%TD*%
%TO.C,SW44*%
X60255000Y-97850000D03*
D11*
X65335000Y-97850000D03*
D10*
X70415000Y-97850000D03*
%TD*%
%TO.C,SW52*%
X243255000Y-97730000D03*
D11*
X248335000Y-97730000D03*
D10*
X253415000Y-97730000D03*
%TD*%
%TO.C,SW49*%
X155575000Y-97730000D03*
D11*
X160655000Y-97730000D03*
D10*
X165735000Y-97730000D03*
%TD*%
%TO.C,SW21*%
X155575000Y-59630000D03*
D11*
X160655000Y-59630000D03*
D10*
X165735000Y-59630000D03*
%TD*%
%TO.C,SW29*%
X41275000Y-78680000D03*
D11*
X46355000Y-78680000D03*
D10*
X51435000Y-78680000D03*
%TD*%
%TO.C,SW4*%
X98425000Y-40580000D03*
D11*
X103505000Y-40580000D03*
D10*
X108585000Y-40580000D03*
%TD*%
%TO.C,SW39*%
X262355000Y-78680000D03*
D11*
X267435000Y-78680000D03*
D10*
X272515000Y-78680000D03*
%TD*%
%TO.C,SW59*%
X136525000Y-116780000D03*
D11*
X141605000Y-116780000D03*
D10*
X146685000Y-116780000D03*
%TD*%
%TO.C,SW20*%
X136525000Y-59630000D03*
D11*
X141605000Y-59630000D03*
D10*
X146685000Y-59630000D03*
%TD*%
%TO.C,SW32*%
X98425000Y-78680000D03*
D11*
X103505000Y-78680000D03*
D10*
X108585000Y-78680000D03*
%TD*%
%TO.C,SW55*%
X300355000Y-97730000D03*
D11*
X305435000Y-97730000D03*
D10*
X310515000Y-97730000D03*
%TD*%
%TO.C,SW2*%
X60255000Y-40580000D03*
D11*
X65335000Y-40580000D03*
D10*
X70415000Y-40580000D03*
%TD*%
%TO.C,SW3*%
X79375000Y-40580000D03*
D11*
X84455000Y-40580000D03*
D10*
X89535000Y-40580000D03*
%TD*%
%TO.C,SW7*%
X155575000Y-40580000D03*
D11*
X160655000Y-40580000D03*
D10*
X165735000Y-40580000D03*
%TD*%
%TO.C,SW24*%
X243255000Y-59630000D03*
D11*
X248335000Y-59630000D03*
D10*
X253415000Y-59630000D03*
%TD*%
%TO.C,SW17*%
X79375000Y-59630000D03*
D11*
X84455000Y-59630000D03*
D10*
X89535000Y-59630000D03*
%TD*%
%TO.C,SW25*%
X262355000Y-59630000D03*
D11*
X267435000Y-59630000D03*
D10*
X272515000Y-59630000D03*
%TD*%
D12*
%TO.C,J2*%
X205345000Y-70580000D03*
X198345000Y-70580000D03*
D13*
X195044999Y-72579999D03*
X203544999Y-68579999D03*
X200544999Y-68579999D03*
X196544999Y-68579999D03*
%TD*%
D10*
%TO.C,SW48*%
X136525000Y-97850000D03*
D11*
X141605000Y-97850000D03*
D10*
X146685000Y-97850000D03*
%TD*%
%TO.C,SW10*%
X243255000Y-40580000D03*
D11*
X248335000Y-40580000D03*
D10*
X253415000Y-40580000D03*
%TD*%
%TO.C,SW60*%
X155575000Y-116780000D03*
D11*
X160655000Y-116780000D03*
D10*
X165735000Y-116780000D03*
%TD*%
%TO.C,SW18*%
X98425000Y-59630000D03*
D11*
X103505000Y-59630000D03*
D10*
X108585000Y-59630000D03*
%TD*%
%TO.C,SW64*%
X262355000Y-116780000D03*
D11*
X267435000Y-116780000D03*
D10*
X272515000Y-116780000D03*
%TD*%
%TO.C,SW41*%
X300355000Y-78680000D03*
D11*
X305435000Y-78680000D03*
D10*
X310515000Y-78680000D03*
%TD*%
%TO.C,SW42*%
X319455000Y-78680000D03*
D11*
X324535000Y-78680000D03*
D10*
X329615000Y-78680000D03*
%TD*%
%TO.C,SW31*%
X79375000Y-78680000D03*
D11*
X84455000Y-78680000D03*
D10*
X89535000Y-78680000D03*
%TD*%
%TO.C,SW36*%
X205155000Y-78680000D03*
D11*
X210235000Y-78680000D03*
D10*
X215315000Y-78680000D03*
%TD*%
%TO.C,SW5*%
X117475000Y-40580000D03*
D11*
X122555000Y-40580000D03*
D10*
X127635000Y-40580000D03*
%TD*%
%TO.C,SW63*%
X243255000Y-116780000D03*
D11*
X248335000Y-116780000D03*
D10*
X253415000Y-116780000D03*
%TD*%
D15*
%TO.C,U1*%
X38799999Y-113889999D03*
D16*
X41829999Y-114189999D03*
X41829999Y-119039999D03*
D15*
X38799999Y-119339999D03*
%TD*%
%TO.C,U2*%
X332034999Y-119339999D03*
D16*
X329004999Y-119039999D03*
X329004999Y-114189999D03*
D15*
X332034999Y-113889999D03*
%TD*%
M02*
