%TF.GenerationSoftware,KiCad,Pcbnew,(7.0.0-0)*%
%TF.CreationDate,2023-03-05T22:08:41+09:00*%
%TF.ProjectId,11111_pcb,31313131-315f-4706-9362-2e6b69636164,rev?*%
%TF.SameCoordinates,Original*%
%TF.FileFunction,Soldermask,Bot*%
%TF.FilePolarity,Negative*%
%FSLAX46Y46*%
G04 Gerber Fmt 4.6, Leading zero omitted, Abs format (unit mm)*
G04 Created by KiCad (PCBNEW (7.0.0-0)) date 2023-03-05 22:08:41*
%MOMM*%
%LPD*%
G01*
G04 APERTURE LIST*
%ADD10R,1.300000X0.950000*%
%ADD11C,1.900000*%
%ADD12C,4.000000*%
%ADD13O,2.500000X2.000000*%
%ADD14C,1.210000*%
%ADD15O,2.200000X1.300000*%
%ADD16C,1.524000*%
%ADD17O,1.800000X1.800000*%
%ADD18O,1.500000X1.500000*%
%ADD19R,1.700000X3.500000*%
G04 APERTURE END LIST*
D10*
%TO.C,D27*%
X304424999Y-64999999D03*
X307974999Y-64999999D03*
%TD*%
D11*
%TO.C,SW13*%
X300355000Y-40580000D03*
D12*
X305435000Y-40580000D03*
D11*
X310515000Y-40580000D03*
D13*
X301624999Y-38039999D03*
X307974999Y-35499999D03*
%TD*%
D11*
%TO.C,SW46*%
X98425000Y-97850000D03*
D12*
X103505000Y-97850000D03*
D11*
X108585000Y-97850000D03*
D13*
X99694999Y-95309999D03*
X106044999Y-92769999D03*
%TD*%
D10*
%TO.C,D39*%
X266444999Y-84129999D03*
X269994999Y-84129999D03*
%TD*%
%TO.C,D22*%
X209194999Y-64999999D03*
X212744999Y-64999999D03*
%TD*%
%TO.C,D33*%
X121499999Y-84129999D03*
X125049999Y-84129999D03*
%TD*%
%TO.C,D43*%
X45309999Y-102809999D03*
X48859999Y-102809999D03*
%TD*%
%TO.C,D60*%
X159644999Y-121879999D03*
X163194999Y-121879999D03*
%TD*%
%TO.C,D52*%
X247329999Y-102809999D03*
X250879999Y-102809999D03*
%TD*%
%TO.C,D28*%
X323509999Y-64999999D03*
X327059999Y-64999999D03*
%TD*%
D11*
%TO.C,SW8*%
X205155000Y-40580000D03*
D12*
X210235000Y-40580000D03*
D11*
X215315000Y-40580000D03*
D13*
X206424999Y-38039999D03*
X212774999Y-35499999D03*
%TD*%
D10*
%TO.C,D18*%
X102559999Y-64999999D03*
X106109999Y-64999999D03*
%TD*%
%TO.C,D42*%
X323509999Y-84129999D03*
X327059999Y-84129999D03*
%TD*%
%TO.C,D26*%
X285469999Y-64999999D03*
X289019999Y-64999999D03*
%TD*%
%TO.C,D16*%
X64359999Y-64999999D03*
X67909999Y-64999999D03*
%TD*%
%TO.C,D14*%
X323509999Y-45679999D03*
X327059999Y-45679999D03*
%TD*%
D11*
%TO.C,SW54*%
X281355000Y-97730000D03*
D12*
X286435000Y-97730000D03*
D11*
X291515000Y-97730000D03*
D13*
X282624999Y-95189999D03*
X288974999Y-92649999D03*
%TD*%
D10*
%TO.C,D6*%
X140569999Y-45679999D03*
X144119999Y-45679999D03*
%TD*%
D11*
%TO.C,SW61*%
X205155000Y-116780000D03*
D12*
X210235000Y-116780000D03*
D11*
X215315000Y-116780000D03*
D13*
X206424999Y-114239999D03*
X212774999Y-111699999D03*
%TD*%
D11*
%TO.C,SW26*%
X281355000Y-59630000D03*
D12*
X286435000Y-59630000D03*
D11*
X291515000Y-59630000D03*
D13*
X282624999Y-57089999D03*
X288974999Y-54549999D03*
%TD*%
D11*
%TO.C,SW22*%
X205155000Y-59630000D03*
D12*
X210235000Y-59630000D03*
D11*
X215315000Y-59630000D03*
D13*
X206424999Y-57089999D03*
X212774999Y-54549999D03*
%TD*%
D10*
%TO.C,D41*%
X304424999Y-84129999D03*
X307974999Y-84129999D03*
%TD*%
%TO.C,D40*%
X285469999Y-84129999D03*
X289019999Y-84129999D03*
%TD*%
%TO.C,D17*%
X83509999Y-64999999D03*
X87059999Y-64999999D03*
%TD*%
%TO.C,D56*%
X323509999Y-102809999D03*
X327059999Y-102809999D03*
%TD*%
D14*
%TO.C,J1*%
X165500000Y-70580000D03*
X172500000Y-70580000D03*
D15*
X175799999Y-68579999D03*
X167299999Y-72579999D03*
X170299999Y-72579999D03*
X174299999Y-72579999D03*
%TD*%
D10*
%TO.C,D21*%
X159644999Y-64999999D03*
X163194999Y-64999999D03*
%TD*%
D16*
%TO.C,REF\u002A\u002A*%
X95920000Y-25800000D03*
X95920000Y-28340000D03*
X111160000Y-25800000D03*
X111160000Y-28340000D03*
%TD*%
D11*
%TO.C,SW34*%
X136525000Y-78680000D03*
D12*
X141605000Y-78680000D03*
D11*
X146685000Y-78680000D03*
D13*
X137794999Y-76139999D03*
X144144999Y-73599999D03*
%TD*%
D11*
%TO.C,SW15*%
X41275000Y-59630000D03*
D12*
X46355000Y-59630000D03*
D11*
X51435000Y-59630000D03*
D13*
X42544999Y-57089999D03*
X48894999Y-54549999D03*
%TD*%
D10*
%TO.C,D38*%
X247329999Y-84129999D03*
X250879999Y-84129999D03*
%TD*%
D11*
%TO.C,SW62*%
X224155000Y-116780000D03*
D12*
X229235000Y-116780000D03*
D11*
X234315000Y-116780000D03*
D13*
X225424999Y-114239999D03*
X231774999Y-111699999D03*
%TD*%
D11*
%TO.C,SW23*%
X224155000Y-59630000D03*
D12*
X229235000Y-59630000D03*
D11*
X234315000Y-59630000D03*
D13*
X225424999Y-57089999D03*
X231774999Y-54549999D03*
%TD*%
D11*
%TO.C,SW45*%
X79375000Y-97850000D03*
D12*
X84455000Y-97850000D03*
D11*
X89535000Y-97850000D03*
D13*
X80644999Y-95309999D03*
X86994999Y-92769999D03*
%TD*%
D11*
%TO.C,SW57*%
X98485000Y-116780000D03*
D12*
X103565000Y-116780000D03*
D11*
X108645000Y-116780000D03*
D13*
X99754999Y-114239999D03*
X106104999Y-111699999D03*
%TD*%
D11*
%TO.C,SW1*%
X41275000Y-40580000D03*
D12*
X46355000Y-40580000D03*
D11*
X51435000Y-40580000D03*
D13*
X42544999Y-38039999D03*
X48894999Y-35499999D03*
%TD*%
D10*
%TO.C,D53*%
X266444999Y-102809999D03*
X269994999Y-102809999D03*
%TD*%
%TO.C,D9*%
X228244999Y-45679999D03*
X231794999Y-45679999D03*
%TD*%
D11*
%TO.C,SW12*%
X281355000Y-40580000D03*
D12*
X286435000Y-40580000D03*
D11*
X291515000Y-40580000D03*
D13*
X282624999Y-38039999D03*
X288974999Y-35499999D03*
%TD*%
D11*
%TO.C,SW58*%
X117475000Y-116780000D03*
D12*
X122555000Y-116780000D03*
D11*
X127635000Y-116780000D03*
D13*
X118744999Y-114239999D03*
X125094999Y-111699999D03*
%TD*%
D11*
%TO.C,SW16*%
X60255000Y-59630000D03*
D12*
X65335000Y-59630000D03*
D11*
X70415000Y-59630000D03*
D13*
X61524999Y-57089999D03*
X67874999Y-54549999D03*
%TD*%
D10*
%TO.C,D58*%
X121499999Y-121879999D03*
X125049999Y-121879999D03*
%TD*%
D11*
%TO.C,SW40*%
X281355000Y-78680000D03*
D12*
X286435000Y-78680000D03*
D11*
X291515000Y-78680000D03*
D13*
X282624999Y-76139999D03*
X288974999Y-73599999D03*
%TD*%
D10*
%TO.C,D55*%
X304424999Y-102809999D03*
X307974999Y-102809999D03*
%TD*%
%TO.C,D32*%
X102559999Y-84129999D03*
X106109999Y-84129999D03*
%TD*%
D11*
%TO.C,SW19*%
X117475000Y-59630000D03*
D12*
X122555000Y-59630000D03*
D11*
X127635000Y-59630000D03*
D13*
X118744999Y-57089999D03*
X125094999Y-54549999D03*
%TD*%
D10*
%TO.C,D35*%
X159644999Y-84129999D03*
X163194999Y-84129999D03*
%TD*%
%TO.C,D46*%
X102559999Y-102809999D03*
X106109999Y-102809999D03*
%TD*%
%TO.C,D34*%
X140569999Y-84129999D03*
X144119999Y-84129999D03*
%TD*%
%TO.C,D36*%
X209194999Y-84129999D03*
X212744999Y-84129999D03*
%TD*%
D11*
%TO.C,SW43*%
X41275000Y-97850000D03*
D12*
X46355000Y-97850000D03*
D11*
X51435000Y-97850000D03*
D13*
X42544999Y-95309999D03*
X48894999Y-92769999D03*
%TD*%
D10*
%TO.C,D62*%
X228244999Y-121879999D03*
X231794999Y-121879999D03*
%TD*%
%TO.C,D13*%
X304424999Y-45679999D03*
X307974999Y-45679999D03*
%TD*%
D11*
%TO.C,SW53*%
X262355000Y-97730000D03*
D12*
X267435000Y-97730000D03*
D11*
X272515000Y-97730000D03*
D13*
X263624999Y-95189999D03*
X269974999Y-92649999D03*
%TD*%
D10*
%TO.C,D54*%
X285469999Y-102809999D03*
X289019999Y-102809999D03*
%TD*%
D11*
%TO.C,SW47*%
X117475000Y-97850000D03*
D12*
X122555000Y-97850000D03*
D11*
X127635000Y-97850000D03*
D13*
X118744999Y-95309999D03*
X125094999Y-92769999D03*
%TD*%
D10*
%TO.C,D2*%
X64359999Y-45679999D03*
X67909999Y-45679999D03*
%TD*%
%TO.C,D64*%
X266444999Y-121879999D03*
X269994999Y-121879999D03*
%TD*%
D11*
%TO.C,SW35*%
X155575000Y-78680000D03*
D12*
X160655000Y-78680000D03*
D11*
X165735000Y-78680000D03*
D13*
X156844999Y-76139999D03*
X163194999Y-73599999D03*
%TD*%
D11*
%TO.C,SW28*%
X319455000Y-59630000D03*
D12*
X324535000Y-59630000D03*
D11*
X329615000Y-59630000D03*
D13*
X320724999Y-57089999D03*
X327074999Y-54549999D03*
%TD*%
D11*
%TO.C,SW51*%
X224155000Y-97730000D03*
D12*
X229235000Y-97730000D03*
D11*
X234315000Y-97730000D03*
D13*
X225424999Y-95189999D03*
X231774999Y-92649999D03*
%TD*%
D10*
%TO.C,D23*%
X228244999Y-64999999D03*
X231794999Y-64999999D03*
%TD*%
D11*
%TO.C,SW37*%
X224155000Y-78680000D03*
D12*
X229235000Y-78680000D03*
D11*
X234315000Y-78680000D03*
D13*
X225424999Y-76139999D03*
X231774999Y-73599999D03*
%TD*%
D11*
%TO.C,SW56*%
X319455000Y-97730000D03*
D12*
X324535000Y-97730000D03*
D11*
X329615000Y-97730000D03*
D13*
X320724999Y-95189999D03*
X327074999Y-92649999D03*
%TD*%
D10*
%TO.C,D31*%
X83509999Y-84129999D03*
X87059999Y-84129999D03*
%TD*%
D11*
%TO.C,SW30*%
X60255000Y-78680000D03*
D12*
X65335000Y-78680000D03*
D11*
X70415000Y-78680000D03*
D13*
X61524999Y-76139999D03*
X67874999Y-73599999D03*
%TD*%
D10*
%TO.C,D59*%
X140569999Y-121879999D03*
X144119999Y-121879999D03*
%TD*%
D11*
%TO.C,SW33*%
X117475000Y-78680000D03*
D12*
X122555000Y-78680000D03*
D11*
X127635000Y-78680000D03*
D13*
X118744999Y-76139999D03*
X125094999Y-73599999D03*
%TD*%
D10*
%TO.C,D63*%
X247329999Y-121879999D03*
X250879999Y-121879999D03*
%TD*%
D11*
%TO.C,SW9*%
X224155000Y-40580000D03*
D12*
X229235000Y-40580000D03*
D11*
X234315000Y-40580000D03*
D13*
X225424999Y-38039999D03*
X231774999Y-35499999D03*
%TD*%
D10*
%TO.C,D5*%
X121499999Y-45679999D03*
X125049999Y-45679999D03*
%TD*%
%TO.C,D4*%
X102559999Y-45679999D03*
X106109999Y-45679999D03*
%TD*%
D11*
%TO.C,SW27*%
X300355000Y-59630000D03*
D12*
X305435000Y-59630000D03*
D11*
X310515000Y-59630000D03*
D13*
X301624999Y-57089999D03*
X307974999Y-54549999D03*
%TD*%
D11*
%TO.C,SW14*%
X319455000Y-40580000D03*
D12*
X324535000Y-40580000D03*
D11*
X329615000Y-40580000D03*
D13*
X320724999Y-38039999D03*
X327074999Y-35499999D03*
%TD*%
D11*
%TO.C,SW50*%
X205155000Y-97730000D03*
D12*
X210235000Y-97730000D03*
D11*
X215315000Y-97730000D03*
D13*
X206424999Y-95189999D03*
X212774999Y-92649999D03*
%TD*%
D10*
%TO.C,D7*%
X159644999Y-45679999D03*
X163194999Y-45679999D03*
%TD*%
D11*
%TO.C,SW38*%
X243255000Y-78680000D03*
D12*
X248335000Y-78680000D03*
D11*
X253415000Y-78680000D03*
D13*
X244524999Y-76139999D03*
X250874999Y-73599999D03*
%TD*%
D11*
%TO.C,SW11*%
X262355000Y-40580000D03*
D12*
X267435000Y-40580000D03*
D11*
X272515000Y-40580000D03*
D13*
X263624999Y-38039999D03*
X269974999Y-35499999D03*
%TD*%
D11*
%TO.C,SW6*%
X136525000Y-40580000D03*
D12*
X141605000Y-40580000D03*
D11*
X146685000Y-40580000D03*
D13*
X137794999Y-38039999D03*
X144144999Y-35499999D03*
%TD*%
D11*
%TO.C,SW44*%
X60255000Y-97850000D03*
D12*
X65335000Y-97850000D03*
D11*
X70415000Y-97850000D03*
D13*
X61524999Y-95309999D03*
X67874999Y-92769999D03*
%TD*%
D10*
%TO.C,D50*%
X209194999Y-102809999D03*
X212744999Y-102809999D03*
%TD*%
D11*
%TO.C,SW52*%
X243255000Y-97730000D03*
D12*
X248335000Y-97730000D03*
D11*
X253415000Y-97730000D03*
D13*
X244524999Y-95189999D03*
X250874999Y-92649999D03*
%TD*%
D10*
%TO.C,D57*%
X102559999Y-121879999D03*
X106109999Y-121879999D03*
%TD*%
%TO.C,D44*%
X64359999Y-103209999D03*
X67909999Y-103209999D03*
%TD*%
%TO.C,D20*%
X140569999Y-64999999D03*
X144119999Y-64999999D03*
%TD*%
D11*
%TO.C,SW49*%
X155575000Y-97730000D03*
D12*
X160655000Y-97730000D03*
D11*
X165735000Y-97730000D03*
D13*
X156844999Y-95189999D03*
X163194999Y-92649999D03*
%TD*%
D11*
%TO.C,SW21*%
X155575000Y-59630000D03*
D12*
X160655000Y-59630000D03*
D11*
X165735000Y-59630000D03*
D13*
X156844999Y-57089999D03*
X163194999Y-54549999D03*
%TD*%
D10*
%TO.C,D30*%
X64359999Y-84129999D03*
X67909999Y-84129999D03*
%TD*%
%TO.C,D10*%
X247329999Y-45679999D03*
X250879999Y-45679999D03*
%TD*%
%TO.C,D49*%
X159644999Y-102809999D03*
X163194999Y-102809999D03*
%TD*%
D11*
%TO.C,SW29*%
X41275000Y-78680000D03*
D12*
X46355000Y-78680000D03*
D11*
X51435000Y-78680000D03*
D13*
X42544999Y-76139999D03*
X48894999Y-73599999D03*
%TD*%
D11*
%TO.C,SW4*%
X98425000Y-40580000D03*
D12*
X103505000Y-40580000D03*
D11*
X108585000Y-40580000D03*
D13*
X99694999Y-38039999D03*
X106044999Y-35499999D03*
%TD*%
D10*
%TO.C,D45*%
X83509999Y-103209999D03*
X87059999Y-103209999D03*
%TD*%
%TO.C,D19*%
X121499999Y-64999999D03*
X125049999Y-64999999D03*
%TD*%
D11*
%TO.C,SW39*%
X262355000Y-78680000D03*
D12*
X267435000Y-78680000D03*
D11*
X272515000Y-78680000D03*
D13*
X263624999Y-76139999D03*
X269974999Y-73599999D03*
%TD*%
D11*
%TO.C,SW59*%
X136525000Y-116780000D03*
D12*
X141605000Y-116780000D03*
D11*
X146685000Y-116780000D03*
D13*
X137794999Y-114239999D03*
X144144999Y-111699999D03*
%TD*%
D11*
%TO.C,SW20*%
X136525000Y-59630000D03*
D12*
X141605000Y-59630000D03*
D11*
X146685000Y-59630000D03*
D13*
X137794999Y-57089999D03*
X144144999Y-54549999D03*
%TD*%
D10*
%TO.C,D61*%
X209194999Y-121879999D03*
X212744999Y-121879999D03*
%TD*%
D11*
%TO.C,SW32*%
X98425000Y-78680000D03*
D12*
X103505000Y-78680000D03*
D11*
X108585000Y-78680000D03*
D13*
X99694999Y-76139999D03*
X106044999Y-73599999D03*
%TD*%
D11*
%TO.C,SW55*%
X300355000Y-97730000D03*
D12*
X305435000Y-97730000D03*
D11*
X310515000Y-97730000D03*
D13*
X301624999Y-95189999D03*
X307974999Y-92649999D03*
%TD*%
D11*
%TO.C,SW2*%
X60255000Y-40580000D03*
D12*
X65335000Y-40580000D03*
D11*
X70415000Y-40580000D03*
D13*
X61524999Y-38039999D03*
X67874999Y-35499999D03*
%TD*%
D11*
%TO.C,SW3*%
X79375000Y-40580000D03*
D12*
X84455000Y-40580000D03*
D11*
X89535000Y-40580000D03*
D13*
X80644999Y-38039999D03*
X86994999Y-35499999D03*
%TD*%
D11*
%TO.C,SW7*%
X155575000Y-40580000D03*
D12*
X160655000Y-40580000D03*
D11*
X165735000Y-40580000D03*
D13*
X156844999Y-38039999D03*
X163194999Y-35499999D03*
%TD*%
D11*
%TO.C,SW24*%
X243255000Y-59630000D03*
D12*
X248335000Y-59630000D03*
D11*
X253415000Y-59630000D03*
D13*
X244524999Y-57089999D03*
X250874999Y-54549999D03*
%TD*%
D10*
%TO.C,D51*%
X228244999Y-102809999D03*
X231794999Y-102809999D03*
%TD*%
D11*
%TO.C,SW17*%
X79375000Y-59630000D03*
D12*
X84455000Y-59630000D03*
D11*
X89535000Y-59630000D03*
D13*
X80644999Y-57089999D03*
X86994999Y-54549999D03*
%TD*%
D11*
%TO.C,SW25*%
X262355000Y-59630000D03*
D12*
X267435000Y-59630000D03*
D11*
X272515000Y-59630000D03*
D13*
X263624999Y-57089999D03*
X269974999Y-54549999D03*
%TD*%
D14*
%TO.C,J2*%
X205345000Y-70580000D03*
X198345000Y-70580000D03*
D15*
X195044999Y-72579999D03*
X203544999Y-68579999D03*
X200544999Y-68579999D03*
X196544999Y-68579999D03*
%TD*%
D10*
%TO.C,D3*%
X83509999Y-45679999D03*
X87059999Y-45679999D03*
%TD*%
%TO.C,D24*%
X247329999Y-64999999D03*
X250879999Y-64999999D03*
%TD*%
D11*
%TO.C,SW48*%
X136525000Y-97850000D03*
D12*
X141605000Y-97850000D03*
D11*
X146685000Y-97850000D03*
D13*
X137794999Y-95309999D03*
X144144999Y-92769999D03*
%TD*%
D10*
%TO.C,D25*%
X266444999Y-64999999D03*
X269994999Y-64999999D03*
%TD*%
%TO.C,D48*%
X140569999Y-102809999D03*
X144119999Y-102809999D03*
%TD*%
D11*
%TO.C,SW10*%
X243255000Y-40580000D03*
D12*
X248335000Y-40580000D03*
D11*
X253415000Y-40580000D03*
D13*
X244524999Y-38039999D03*
X250874999Y-35499999D03*
%TD*%
D11*
%TO.C,SW60*%
X155575000Y-116780000D03*
D12*
X160655000Y-116780000D03*
D11*
X165735000Y-116780000D03*
D13*
X156844999Y-114239999D03*
X163194999Y-111699999D03*
%TD*%
D11*
%TO.C,SW18*%
X98425000Y-59630000D03*
D12*
X103505000Y-59630000D03*
D11*
X108585000Y-59630000D03*
D13*
X99694999Y-57089999D03*
X106044999Y-54549999D03*
%TD*%
D10*
%TO.C,D8*%
X209194999Y-45679999D03*
X212744999Y-45679999D03*
%TD*%
%TO.C,D47*%
X121499999Y-102559999D03*
X125049999Y-102559999D03*
%TD*%
%TO.C,D29*%
X45309999Y-84129999D03*
X48859999Y-84129999D03*
%TD*%
D11*
%TO.C,SW64*%
X262355000Y-116780000D03*
D12*
X267435000Y-116780000D03*
D11*
X272515000Y-116780000D03*
D13*
X263624999Y-114239999D03*
X269974999Y-111699999D03*
%TD*%
D10*
%TO.C,D37*%
X228244999Y-84129999D03*
X231794999Y-84129999D03*
%TD*%
%TO.C,D12*%
X285469999Y-45679999D03*
X289019999Y-45679999D03*
%TD*%
D11*
%TO.C,SW41*%
X300355000Y-78680000D03*
D12*
X305435000Y-78680000D03*
D11*
X310515000Y-78680000D03*
D13*
X301624999Y-76139999D03*
X307974999Y-73599999D03*
%TD*%
D11*
%TO.C,SW42*%
X319455000Y-78680000D03*
D12*
X324535000Y-78680000D03*
D11*
X329615000Y-78680000D03*
D13*
X320724999Y-76139999D03*
X327074999Y-73599999D03*
%TD*%
D10*
%TO.C,D11*%
X266444999Y-45679999D03*
X269994999Y-45679999D03*
%TD*%
D11*
%TO.C,SW31*%
X79375000Y-78680000D03*
D12*
X84455000Y-78680000D03*
D11*
X89535000Y-78680000D03*
D13*
X80644999Y-76139999D03*
X86994999Y-73599999D03*
%TD*%
D11*
%TO.C,SW36*%
X205155000Y-78680000D03*
D12*
X210235000Y-78680000D03*
D11*
X215315000Y-78680000D03*
D13*
X206424999Y-76139999D03*
X212774999Y-73599999D03*
%TD*%
D10*
%TO.C,D15*%
X45309999Y-64999999D03*
X48859999Y-64999999D03*
%TD*%
%TO.C,D1*%
X45309999Y-45679999D03*
X48859999Y-45679999D03*
%TD*%
D11*
%TO.C,SW5*%
X117475000Y-40580000D03*
D12*
X122555000Y-40580000D03*
D11*
X127635000Y-40580000D03*
D13*
X118744999Y-38039999D03*
X125094999Y-35499999D03*
%TD*%
D11*
%TO.C,SW63*%
X243255000Y-116780000D03*
D12*
X248335000Y-116780000D03*
D11*
X253415000Y-116780000D03*
D13*
X244524999Y-114239999D03*
X250874999Y-111699999D03*
%TD*%
D17*
%TO.C,U1*%
X38799999Y-113889999D03*
D18*
X41829999Y-114189999D03*
X41829999Y-119039999D03*
D17*
X38799999Y-119339999D03*
D19*
X38669999Y-106824999D03*
X41209999Y-106824999D03*
X43749999Y-106824999D03*
X46289999Y-106824999D03*
X48829999Y-106824999D03*
X51369999Y-106824999D03*
X53909999Y-106824999D03*
X56449999Y-106824999D03*
X58989999Y-106824999D03*
X61529999Y-106824999D03*
X64069999Y-106824999D03*
X66609999Y-106824999D03*
X69149999Y-106824999D03*
X71689999Y-106824999D03*
X74229999Y-106824999D03*
X76769999Y-106824999D03*
X79309999Y-106824999D03*
X81849999Y-106824999D03*
X84389999Y-106824999D03*
X86929999Y-106824999D03*
X86929999Y-126404999D03*
X84389999Y-126404999D03*
X81849999Y-126404999D03*
X79309999Y-126404999D03*
X76769999Y-126404999D03*
X74229999Y-126404999D03*
X71689999Y-126404999D03*
X69149999Y-126404999D03*
X66609999Y-126404999D03*
X64069999Y-126404999D03*
X61529999Y-126404999D03*
X58989999Y-126404999D03*
X56449999Y-126404999D03*
X53909999Y-126404999D03*
X51369999Y-126404999D03*
X48829999Y-126404999D03*
X46289999Y-126404999D03*
X43749999Y-126404999D03*
X41209999Y-126404999D03*
X38669999Y-126404999D03*
%TD*%
D17*
%TO.C,U2*%
X332034999Y-119339999D03*
D18*
X329004999Y-119039999D03*
X329004999Y-114189999D03*
D17*
X332034999Y-113889999D03*
D19*
X332164999Y-126404999D03*
X329624999Y-126404999D03*
X327084999Y-126404999D03*
X324544999Y-126404999D03*
X322004999Y-126404999D03*
X319464999Y-126404999D03*
X316924999Y-126404999D03*
X314384999Y-126404999D03*
X311844999Y-126404999D03*
X309304999Y-126404999D03*
X306764999Y-126404999D03*
X304224999Y-126404999D03*
X301684999Y-126404999D03*
X299144999Y-126404999D03*
X296604999Y-126404999D03*
X294064999Y-126404999D03*
X291524999Y-126404999D03*
X288984999Y-126404999D03*
X286444999Y-126404999D03*
X283904999Y-126404999D03*
X283904999Y-106824999D03*
X286444999Y-106824999D03*
X288984999Y-106824999D03*
X291524999Y-106824999D03*
X294064999Y-106824999D03*
X296604999Y-106824999D03*
X299144999Y-106824999D03*
X301684999Y-106824999D03*
X304224999Y-106824999D03*
X306764999Y-106824999D03*
X309304999Y-106824999D03*
X311844999Y-106824999D03*
X314384999Y-106824999D03*
X316924999Y-106824999D03*
X319464999Y-106824999D03*
X322004999Y-106824999D03*
X324544999Y-106824999D03*
X327084999Y-106824999D03*
X329624999Y-106824999D03*
X332164999Y-106824999D03*
%TD*%
M02*
