%TF.GenerationSoftware,KiCad,Pcbnew,(7.0.0-0)*%
%TF.CreationDate,2023-03-05T21:53:46+09:00*%
%TF.ProjectId,11111,31313131-312e-46b6-9963-61645f706362,rev?*%
%TF.SameCoordinates,Original*%
%TF.FileFunction,Profile,NP*%
%FSLAX46Y46*%
G04 Gerber Fmt 4.6, Leading zero omitted, Abs format (unit mm)*
G04 Created by KiCad (PCBNEW (7.0.0-0)) date 2023-03-05 21:53:46*
%MOMM*%
%LPD*%
G01*
G04 APERTURE LIST*
%TA.AperFunction,Profile*%
%ADD10C,0.100000*%
%TD*%
%TA.AperFunction,Profile*%
%ADD11C,0.120000*%
%TD*%
G04 APERTURE END LIST*
D10*
X175303949Y-129539949D02*
G75*
G03*
X177843949Y-127000000I51J2539949D01*
G01*
X33020000Y-129540000D02*
X175303949Y-129540000D01*
X191200003Y-130583965D02*
X333483952Y-130283965D01*
X32220000Y-132780000D02*
G75*
G03*
X29680000Y-135320000I0J-2540000D01*
G01*
X335318025Y-138060000D02*
X335280000Y-243840000D01*
X190494076Y-135515976D02*
G75*
G03*
X187954076Y-138056000I24J-2540024D01*
G01*
X32220000Y-243840000D02*
X174503949Y-243840000D01*
X336061935Y-21963965D02*
G75*
G03*
X333521977Y-19423965I-2539935J65D01*
G01*
X190456051Y-246680000D02*
X332740000Y-246380000D01*
X335318100Y-138060000D02*
G75*
G03*
X332778025Y-135520000I-2540000J0D01*
G01*
X187916100Y-244140000D02*
G75*
G03*
X190456051Y-246680000I2540000J0D01*
G01*
X332740000Y-246380000D02*
G75*
G03*
X335280000Y-243840000I0J2540000D01*
G01*
X336061977Y-21963965D02*
X336023952Y-127743965D01*
X29680000Y-241300000D02*
G75*
G03*
X32220000Y-243840000I2540000J0D01*
G01*
X190494076Y-135516000D02*
X332778025Y-135520000D01*
X33020000Y-18480000D02*
G75*
G03*
X30480000Y-21020000I0J-2540000D01*
G01*
X188660035Y-128043965D02*
G75*
G03*
X191200003Y-130583965I2539965J-35D01*
G01*
X30480000Y-127000000D02*
G75*
G03*
X33020000Y-129540000I2540000J0D01*
G01*
X333483952Y-130283952D02*
G75*
G03*
X336023952Y-127743965I-52J2540052D01*
G01*
X177043949Y-135316051D02*
G75*
G03*
X174503949Y-132776051I-2540049J-49D01*
G01*
X174503949Y-243840049D02*
G75*
G03*
X177043949Y-241300000I-49J2540049D01*
G01*
X191238028Y-19419965D02*
X333521977Y-19423965D01*
X188660003Y-128043965D02*
X188698028Y-21959965D01*
X177843949Y-21016051D02*
X177843949Y-127000000D01*
X177043949Y-135316051D02*
X177043949Y-241300000D01*
X177843949Y-21016051D02*
G75*
G03*
X175303949Y-18476051I-2540049J-49D01*
G01*
X32220000Y-132780000D02*
X174503949Y-132776051D01*
X29680000Y-135320000D02*
X29680000Y-241300000D01*
X30480000Y-21020000D02*
X30480000Y-127000000D01*
X191238028Y-19420028D02*
G75*
G03*
X188698028Y-21959965I-28J-2539972D01*
G01*
X187916051Y-244140000D02*
X187954076Y-138056000D01*
X33020000Y-18480000D02*
X175303949Y-18476051D01*
D11*
%TO.C,SW13*%
X294255003Y-30143965D02*
X294255003Y-44143965D01*
X294255003Y-44143965D02*
X308255003Y-44143965D01*
X308255003Y-30143965D02*
X294255003Y-30143965D01*
X308255003Y-44143965D02*
X308255003Y-30143965D01*
%TO.C,SW46*%
X96505000Y-86470000D02*
X96505000Y-100470000D01*
X96505000Y-100470000D02*
X110505000Y-100470000D01*
X110505000Y-86470000D02*
X96505000Y-86470000D01*
X110505000Y-100470000D02*
X110505000Y-86470000D01*
%TO.C,SW8*%
X199055003Y-30143965D02*
X199055003Y-44143965D01*
X199055003Y-44143965D02*
X213055003Y-44143965D01*
X213055003Y-30143965D02*
X199055003Y-30143965D01*
X213055003Y-44143965D02*
X213055003Y-30143965D01*
%TO.C,SW54*%
X275255003Y-87293965D02*
X275255003Y-101293965D01*
X275255003Y-101293965D02*
X289255003Y-101293965D01*
X289255003Y-87293965D02*
X275255003Y-87293965D01*
X289255003Y-101293965D02*
X289255003Y-87293965D01*
%TO.C,SW61*%
X199055003Y-106343965D02*
X199055003Y-120343965D01*
X199055003Y-120343965D02*
X213055003Y-120343965D01*
X213055003Y-106343965D02*
X199055003Y-106343965D01*
X213055003Y-120343965D02*
X213055003Y-106343965D01*
%TO.C,SW26*%
X275255003Y-49193965D02*
X275255003Y-63193965D01*
X275255003Y-63193965D02*
X289255003Y-63193965D01*
X289255003Y-49193965D02*
X275255003Y-49193965D01*
X289255003Y-63193965D02*
X289255003Y-49193965D01*
%TO.C,SW22*%
X199055003Y-49193965D02*
X199055003Y-63193965D01*
X199055003Y-63193965D02*
X213055003Y-63193965D01*
X213055003Y-49193965D02*
X199055003Y-49193965D01*
X213055003Y-63193965D02*
X213055003Y-49193965D01*
%TO.C,SW34*%
X134605000Y-67300000D02*
X134605000Y-81300000D01*
X134605000Y-81300000D02*
X148605000Y-81300000D01*
X148605000Y-67300000D02*
X134605000Y-67300000D01*
X148605000Y-81300000D02*
X148605000Y-67300000D01*
%TO.C,SW15*%
X39355000Y-48250000D02*
X39355000Y-62250000D01*
X39355000Y-62250000D02*
X53355000Y-62250000D01*
X53355000Y-48250000D02*
X39355000Y-48250000D01*
X53355000Y-62250000D02*
X53355000Y-48250000D01*
%TO.C,SW62*%
X218055003Y-106343965D02*
X218055003Y-120343965D01*
X218055003Y-120343965D02*
X232055003Y-120343965D01*
X232055003Y-106343965D02*
X218055003Y-106343965D01*
X232055003Y-120343965D02*
X232055003Y-106343965D01*
%TO.C,SW23*%
X218055003Y-49193965D02*
X218055003Y-63193965D01*
X218055003Y-63193965D02*
X232055003Y-63193965D01*
X232055003Y-49193965D02*
X218055003Y-49193965D01*
X232055003Y-63193965D02*
X232055003Y-49193965D01*
%TO.C,SW45*%
X77455000Y-86470000D02*
X77455000Y-100470000D01*
X77455000Y-100470000D02*
X91455000Y-100470000D01*
X91455000Y-86470000D02*
X77455000Y-86470000D01*
X91455000Y-100470000D02*
X91455000Y-86470000D01*
%TO.C,SW57*%
X96565000Y-105400000D02*
X96565000Y-119400000D01*
X96565000Y-119400000D02*
X110565000Y-119400000D01*
X110565000Y-105400000D02*
X96565000Y-105400000D01*
X110565000Y-119400000D02*
X110565000Y-105400000D01*
%TO.C,SW1*%
X39355000Y-29200000D02*
X39355000Y-43200000D01*
X39355000Y-43200000D02*
X53355000Y-43200000D01*
X53355000Y-29200000D02*
X39355000Y-29200000D01*
X53355000Y-43200000D02*
X53355000Y-29200000D01*
%TO.C,SW12*%
X275255003Y-30143965D02*
X275255003Y-44143965D01*
X275255003Y-44143965D02*
X289255003Y-44143965D01*
X289255003Y-30143965D02*
X275255003Y-30143965D01*
X289255003Y-44143965D02*
X289255003Y-30143965D01*
%TO.C,SW58*%
X115555000Y-105400000D02*
X115555000Y-119400000D01*
X115555000Y-119400000D02*
X129555000Y-119400000D01*
X129555000Y-105400000D02*
X115555000Y-105400000D01*
X129555000Y-119400000D02*
X129555000Y-105400000D01*
%TO.C,SW16*%
X58335000Y-48250000D02*
X58335000Y-62250000D01*
X58335000Y-62250000D02*
X72335000Y-62250000D01*
X72335000Y-48250000D02*
X58335000Y-48250000D01*
X72335000Y-62250000D02*
X72335000Y-48250000D01*
%TO.C,SW40*%
X275255003Y-68243965D02*
X275255003Y-82243965D01*
X275255003Y-82243965D02*
X289255003Y-82243965D01*
X289255003Y-68243965D02*
X275255003Y-68243965D01*
X289255003Y-82243965D02*
X289255003Y-68243965D01*
%TO.C,SW19*%
X115555000Y-48250000D02*
X115555000Y-62250000D01*
X115555000Y-62250000D02*
X129555000Y-62250000D01*
X129555000Y-48250000D02*
X115555000Y-48250000D01*
X129555000Y-62250000D02*
X129555000Y-48250000D01*
%TO.C,SW43*%
X39355000Y-86470000D02*
X39355000Y-100470000D01*
X39355000Y-100470000D02*
X53355000Y-100470000D01*
X53355000Y-86470000D02*
X39355000Y-86470000D01*
X53355000Y-100470000D02*
X53355000Y-86470000D01*
%TO.C,SW53*%
X256255003Y-87293965D02*
X256255003Y-101293965D01*
X256255003Y-101293965D02*
X270255003Y-101293965D01*
X270255003Y-87293965D02*
X256255003Y-87293965D01*
X270255003Y-101293965D02*
X270255003Y-87293965D01*
%TO.C,SW47*%
X115555000Y-86470000D02*
X115555000Y-100470000D01*
X115555000Y-100470000D02*
X129555000Y-100470000D01*
X129555000Y-86470000D02*
X115555000Y-86470000D01*
X129555000Y-100470000D02*
X129555000Y-86470000D01*
%TO.C,SW35*%
X153655000Y-67300000D02*
X153655000Y-81300000D01*
X153655000Y-81300000D02*
X167655000Y-81300000D01*
X167655000Y-67300000D02*
X153655000Y-67300000D01*
X167655000Y-81300000D02*
X167655000Y-67300000D01*
%TO.C,SW28*%
X313355003Y-49193965D02*
X313355003Y-63193965D01*
X313355003Y-63193965D02*
X327355003Y-63193965D01*
X327355003Y-49193965D02*
X313355003Y-49193965D01*
X327355003Y-63193965D02*
X327355003Y-49193965D01*
%TO.C,SW51*%
X218055003Y-87293965D02*
X218055003Y-101293965D01*
X218055003Y-101293965D02*
X232055003Y-101293965D01*
X232055003Y-87293965D02*
X218055003Y-87293965D01*
X232055003Y-101293965D02*
X232055003Y-87293965D01*
%TO.C,SW37*%
X218055003Y-68243965D02*
X218055003Y-82243965D01*
X218055003Y-82243965D02*
X232055003Y-82243965D01*
X232055003Y-68243965D02*
X218055003Y-68243965D01*
X232055003Y-82243965D02*
X232055003Y-68243965D01*
%TO.C,SW56*%
X313355003Y-87293965D02*
X313355003Y-101293965D01*
X313355003Y-101293965D02*
X327355003Y-101293965D01*
X327355003Y-87293965D02*
X313355003Y-87293965D01*
X327355003Y-101293965D02*
X327355003Y-87293965D01*
%TO.C,SW30*%
X58335000Y-67300000D02*
X58335000Y-81300000D01*
X58335000Y-81300000D02*
X72335000Y-81300000D01*
X72335000Y-67300000D02*
X58335000Y-67300000D01*
X72335000Y-81300000D02*
X72335000Y-67300000D01*
%TO.C,SW33*%
X115555000Y-67300000D02*
X115555000Y-81300000D01*
X115555000Y-81300000D02*
X129555000Y-81300000D01*
X129555000Y-67300000D02*
X115555000Y-67300000D01*
X129555000Y-81300000D02*
X129555000Y-67300000D01*
%TO.C,SW9*%
X218055003Y-30143965D02*
X218055003Y-44143965D01*
X218055003Y-44143965D02*
X232055003Y-44143965D01*
X232055003Y-30143965D02*
X218055003Y-30143965D01*
X232055003Y-44143965D02*
X232055003Y-30143965D01*
%TO.C,SW27*%
X294255003Y-49193965D02*
X294255003Y-63193965D01*
X294255003Y-63193965D02*
X308255003Y-63193965D01*
X308255003Y-49193965D02*
X294255003Y-49193965D01*
X308255003Y-63193965D02*
X308255003Y-49193965D01*
%TO.C,SW14*%
X313355003Y-30143965D02*
X313355003Y-44143965D01*
X313355003Y-44143965D02*
X327355003Y-44143965D01*
X327355003Y-30143965D02*
X313355003Y-30143965D01*
X327355003Y-44143965D02*
X327355003Y-30143965D01*
%TO.C,SW50*%
X199055003Y-87293965D02*
X199055003Y-101293965D01*
X199055003Y-101293965D02*
X213055003Y-101293965D01*
X213055003Y-87293965D02*
X199055003Y-87293965D01*
X213055003Y-101293965D02*
X213055003Y-87293965D01*
%TO.C,SW38*%
X237155003Y-68243965D02*
X237155003Y-82243965D01*
X237155003Y-82243965D02*
X251155003Y-82243965D01*
X251155003Y-68243965D02*
X237155003Y-68243965D01*
X251155003Y-82243965D02*
X251155003Y-68243965D01*
%TO.C,SW11*%
X256255003Y-30143965D02*
X256255003Y-44143965D01*
X256255003Y-44143965D02*
X270255003Y-44143965D01*
X270255003Y-30143965D02*
X256255003Y-30143965D01*
X270255003Y-44143965D02*
X270255003Y-30143965D01*
%TO.C,SW6*%
X134605000Y-29200000D02*
X134605000Y-43200000D01*
X134605000Y-43200000D02*
X148605000Y-43200000D01*
X148605000Y-29200000D02*
X134605000Y-29200000D01*
X148605000Y-43200000D02*
X148605000Y-29200000D01*
%TO.C,SW44*%
X58335000Y-86470000D02*
X58335000Y-100470000D01*
X58335000Y-100470000D02*
X72335000Y-100470000D01*
X72335000Y-86470000D02*
X58335000Y-86470000D01*
X72335000Y-100470000D02*
X72335000Y-86470000D01*
%TO.C,SW52*%
X237155003Y-87293965D02*
X237155003Y-101293965D01*
X237155003Y-101293965D02*
X251155003Y-101293965D01*
X251155003Y-87293965D02*
X237155003Y-87293965D01*
X251155003Y-101293965D02*
X251155003Y-87293965D01*
%TO.C,SW49*%
X153655000Y-86350000D02*
X153655000Y-100350000D01*
X153655000Y-100350000D02*
X167655000Y-100350000D01*
X167655000Y-86350000D02*
X153655000Y-86350000D01*
X167655000Y-100350000D02*
X167655000Y-86350000D01*
%TO.C,SW21*%
X153655000Y-48250000D02*
X153655000Y-62250000D01*
X153655000Y-62250000D02*
X167655000Y-62250000D01*
X167655000Y-48250000D02*
X153655000Y-48250000D01*
X167655000Y-62250000D02*
X167655000Y-48250000D01*
%TO.C,SW29*%
X39355000Y-67300000D02*
X39355000Y-81300000D01*
X39355000Y-81300000D02*
X53355000Y-81300000D01*
X53355000Y-67300000D02*
X39355000Y-67300000D01*
X53355000Y-81300000D02*
X53355000Y-67300000D01*
%TO.C,SW4*%
X96505000Y-29200000D02*
X96505000Y-43200000D01*
X96505000Y-43200000D02*
X110505000Y-43200000D01*
X110505000Y-29200000D02*
X96505000Y-29200000D01*
X110505000Y-43200000D02*
X110505000Y-29200000D01*
%TO.C,SW39*%
X256255003Y-68243965D02*
X256255003Y-82243965D01*
X256255003Y-82243965D02*
X270255003Y-82243965D01*
X270255003Y-68243965D02*
X256255003Y-68243965D01*
X270255003Y-82243965D02*
X270255003Y-68243965D01*
%TO.C,SW59*%
X134605000Y-105400000D02*
X134605000Y-119400000D01*
X134605000Y-119400000D02*
X148605000Y-119400000D01*
X148605000Y-105400000D02*
X134605000Y-105400000D01*
X148605000Y-119400000D02*
X148605000Y-105400000D01*
%TO.C,SW20*%
X134605000Y-48250000D02*
X134605000Y-62250000D01*
X134605000Y-62250000D02*
X148605000Y-62250000D01*
X148605000Y-48250000D02*
X134605000Y-48250000D01*
X148605000Y-62250000D02*
X148605000Y-48250000D01*
%TO.C,SW32*%
X96505000Y-67300000D02*
X96505000Y-81300000D01*
X96505000Y-81300000D02*
X110505000Y-81300000D01*
X110505000Y-67300000D02*
X96505000Y-67300000D01*
X110505000Y-81300000D02*
X110505000Y-67300000D01*
%TO.C,SW55*%
X294255003Y-87293965D02*
X294255003Y-101293965D01*
X294255003Y-101293965D02*
X308255003Y-101293965D01*
X308255003Y-87293965D02*
X294255003Y-87293965D01*
X308255003Y-101293965D02*
X308255003Y-87293965D01*
%TO.C,SW2*%
X58335000Y-29200000D02*
X58335000Y-43200000D01*
X58335000Y-43200000D02*
X72335000Y-43200000D01*
X72335000Y-29200000D02*
X58335000Y-29200000D01*
X72335000Y-43200000D02*
X72335000Y-29200000D01*
%TO.C,SW3*%
X77455000Y-29200000D02*
X77455000Y-43200000D01*
X77455000Y-43200000D02*
X91455000Y-43200000D01*
X91455000Y-29200000D02*
X77455000Y-29200000D01*
X91455000Y-43200000D02*
X91455000Y-29200000D01*
%TO.C,SW7*%
X153655000Y-29200000D02*
X153655000Y-43200000D01*
X153655000Y-43200000D02*
X167655000Y-43200000D01*
X167655000Y-29200000D02*
X153655000Y-29200000D01*
X167655000Y-43200000D02*
X167655000Y-29200000D01*
%TO.C,SW24*%
X237155003Y-49193965D02*
X237155003Y-63193965D01*
X237155003Y-63193965D02*
X251155003Y-63193965D01*
X251155003Y-49193965D02*
X237155003Y-49193965D01*
X251155003Y-63193965D02*
X251155003Y-49193965D01*
%TO.C,SW17*%
X77455000Y-48250000D02*
X77455000Y-62250000D01*
X77455000Y-62250000D02*
X91455000Y-62250000D01*
X91455000Y-48250000D02*
X77455000Y-48250000D01*
X91455000Y-62250000D02*
X91455000Y-48250000D01*
%TO.C,SW25*%
X256255003Y-49193965D02*
X256255003Y-63193965D01*
X256255003Y-63193965D02*
X270255003Y-63193965D01*
X270255003Y-49193965D02*
X256255003Y-49193965D01*
X270255003Y-63193965D02*
X270255003Y-49193965D01*
%TO.C,SW48*%
X134605000Y-86470000D02*
X134605000Y-100470000D01*
X134605000Y-100470000D02*
X148605000Y-100470000D01*
X148605000Y-86470000D02*
X134605000Y-86470000D01*
X148605000Y-100470000D02*
X148605000Y-86470000D01*
%TO.C,SW10*%
X237155003Y-30143965D02*
X237155003Y-44143965D01*
X237155003Y-44143965D02*
X251155003Y-44143965D01*
X251155003Y-30143965D02*
X237155003Y-30143965D01*
X251155003Y-44143965D02*
X251155003Y-30143965D01*
%TO.C,SW60*%
X153655000Y-105400000D02*
X153655000Y-119400000D01*
X153655000Y-119400000D02*
X167655000Y-119400000D01*
X167655000Y-105400000D02*
X153655000Y-105400000D01*
X167655000Y-119400000D02*
X167655000Y-105400000D01*
%TO.C,SW18*%
X96505000Y-48250000D02*
X96505000Y-62250000D01*
X96505000Y-62250000D02*
X110505000Y-62250000D01*
X110505000Y-48250000D02*
X96505000Y-48250000D01*
X110505000Y-62250000D02*
X110505000Y-48250000D01*
%TO.C,SW64*%
X256255003Y-106343965D02*
X256255003Y-120343965D01*
X256255003Y-120343965D02*
X270255003Y-120343965D01*
X270255003Y-106343965D02*
X256255003Y-106343965D01*
X270255003Y-120343965D02*
X270255003Y-106343965D01*
%TO.C,SW41*%
X294255003Y-68243965D02*
X294255003Y-82243965D01*
X294255003Y-82243965D02*
X308255003Y-82243965D01*
X308255003Y-68243965D02*
X294255003Y-68243965D01*
X308255003Y-82243965D02*
X308255003Y-68243965D01*
%TO.C,SW42*%
X313355003Y-68243965D02*
X313355003Y-82243965D01*
X313355003Y-82243965D02*
X327355003Y-82243965D01*
X327355003Y-68243965D02*
X313355003Y-68243965D01*
X327355003Y-82243965D02*
X327355003Y-68243965D01*
%TO.C,SW31*%
X77455000Y-67300000D02*
X77455000Y-81300000D01*
X77455000Y-81300000D02*
X91455000Y-81300000D01*
X91455000Y-67300000D02*
X77455000Y-67300000D01*
X91455000Y-81300000D02*
X91455000Y-67300000D01*
%TO.C,SW36*%
X199055003Y-68243965D02*
X199055003Y-82243965D01*
X199055003Y-82243965D02*
X213055003Y-82243965D01*
X213055003Y-68243965D02*
X199055003Y-68243965D01*
X213055003Y-82243965D02*
X213055003Y-68243965D01*
%TO.C,SW5*%
X115555000Y-29200000D02*
X115555000Y-43200000D01*
X115555000Y-43200000D02*
X129555000Y-43200000D01*
X129555000Y-29200000D02*
X115555000Y-29200000D01*
X129555000Y-43200000D02*
X129555000Y-29200000D01*
%TO.C,SW63*%
X237155003Y-106343965D02*
X237155003Y-120343965D01*
X237155003Y-120343965D02*
X251155003Y-120343965D01*
X251155003Y-106343965D02*
X237155003Y-106343965D01*
X251155003Y-120343965D02*
X251155003Y-106343965D01*
%TD*%
M02*
