M48
; DRILL file {KiCad (7.0.0-0)} date Sunday, March 05, 2023 21:54:11
; FORMAT={-:-/ absolute / inch / decimal}
; #@! TF.CreationDate,2023-03-05T21:54:11+09:00
; #@! TF.GenerationSoftware,Kicad,Pcbnew,(7.0.0-0)
; #@! TF.FileFunction,NonPlated,1,2,NPTH
FMAT,2
INCH
; #@! TA.AperFunction,NonPlated,NPTH,ComponentDrill
T1C0.1417
%
G90
G05
T1
X1.4016Y-5.4394
X1.4331Y-0.9394
X2.1685Y-7.8039
X2.2Y-3.3039
X3.6291Y-9.4118
X3.6606Y-4.9118
X6.7409Y-5.4394
X6.7409Y-9.4118
X6.7724Y-0.9394
X6.7724Y-4.9118
X7.6376Y-5.5433
X7.6376Y-9.5236
X7.6669Y-0.9726
X7.6669Y-4.9529
X10.7455Y-9.5197
X10.7748Y-4.949
X12.2061Y-7.9079
X12.2354Y-3.3372
X12.9754Y-5.5472
X13.0047Y-0.9765
T0
M30
