%TF.GenerationSoftware,KiCad,Pcbnew,(7.0.0-0)*%
%TF.CreationDate,2023-04-15T17:33:29+09:00*%
%TF.ProjectId,11111_plates,31313131-315f-4706-9c61-7465732e6b69,rev?*%
%TF.SameCoordinates,Original*%
%TF.FileFunction,Legend,Top*%
%TF.FilePolarity,Positive*%
%FSLAX46Y46*%
G04 Gerber Fmt 4.6, Leading zero omitted, Abs format (unit mm)*
G04 Created by KiCad (PCBNEW (7.0.0-0)) date 2023-04-15 17:33:29*
%MOMM*%
%LPD*%
G01*
G04 APERTURE LIST*
%ADD10C,0.300000*%
G04 APERTURE END LIST*
D10*
X29082857Y-119793571D02*
X28225714Y-119793571D01*
X28654285Y-119793571D02*
X28654285Y-118293571D01*
X28654285Y-118293571D02*
X28511428Y-118507857D01*
X28511428Y-118507857D02*
X28368571Y-118650714D01*
X28368571Y-118650714D02*
X28225714Y-118722142D01*
X30511428Y-119793571D02*
X29654285Y-119793571D01*
X30082856Y-119793571D02*
X30082856Y-118293571D01*
X30082856Y-118293571D02*
X29939999Y-118507857D01*
X29939999Y-118507857D02*
X29797142Y-118650714D01*
X29797142Y-118650714D02*
X29654285Y-118722142D01*
X31939999Y-119793571D02*
X31082856Y-119793571D01*
X31511427Y-119793571D02*
X31511427Y-118293571D01*
X31511427Y-118293571D02*
X31368570Y-118507857D01*
X31368570Y-118507857D02*
X31225713Y-118650714D01*
X31225713Y-118650714D02*
X31082856Y-118722142D01*
X33368570Y-119793571D02*
X32511427Y-119793571D01*
X32939998Y-119793571D02*
X32939998Y-118293571D01*
X32939998Y-118293571D02*
X32797141Y-118507857D01*
X32797141Y-118507857D02*
X32654284Y-118650714D01*
X32654284Y-118650714D02*
X32511427Y-118722142D01*
X34797141Y-119793571D02*
X33939998Y-119793571D01*
X34368569Y-119793571D02*
X34368569Y-118293571D01*
X34368569Y-118293571D02*
X34225712Y-118507857D01*
X34225712Y-118507857D02*
X34082855Y-118650714D01*
X34082855Y-118650714D02*
X33939998Y-118722142D01*
X36197140Y-118793571D02*
X36554283Y-119793571D01*
X36554283Y-119793571D02*
X36911426Y-118793571D01*
X38054283Y-119722142D02*
X37911426Y-119793571D01*
X37911426Y-119793571D02*
X37625712Y-119793571D01*
X37625712Y-119793571D02*
X37482854Y-119722142D01*
X37482854Y-119722142D02*
X37411426Y-119579285D01*
X37411426Y-119579285D02*
X37411426Y-119007857D01*
X37411426Y-119007857D02*
X37482854Y-118865000D01*
X37482854Y-118865000D02*
X37625712Y-118793571D01*
X37625712Y-118793571D02*
X37911426Y-118793571D01*
X37911426Y-118793571D02*
X38054283Y-118865000D01*
X38054283Y-118865000D02*
X38125712Y-119007857D01*
X38125712Y-119007857D02*
X38125712Y-119150714D01*
X38125712Y-119150714D02*
X37411426Y-119293571D01*
X38768568Y-119793571D02*
X38768568Y-118793571D01*
X38768568Y-119079285D02*
X38839997Y-118936428D01*
X38839997Y-118936428D02*
X38911426Y-118865000D01*
X38911426Y-118865000D02*
X39054283Y-118793571D01*
X39054283Y-118793571D02*
X39197140Y-118793571D01*
X39697139Y-119650714D02*
X39768568Y-119722142D01*
X39768568Y-119722142D02*
X39697139Y-119793571D01*
X39697139Y-119793571D02*
X39625711Y-119722142D01*
X39625711Y-119722142D02*
X39697139Y-119650714D01*
X39697139Y-119650714D02*
X39697139Y-119793571D01*
X40268568Y-118293571D02*
X41197140Y-118293571D01*
X41197140Y-118293571D02*
X40697140Y-118865000D01*
X40697140Y-118865000D02*
X40911425Y-118865000D01*
X40911425Y-118865000D02*
X41054283Y-118936428D01*
X41054283Y-118936428D02*
X41125711Y-119007857D01*
X41125711Y-119007857D02*
X41197140Y-119150714D01*
X41197140Y-119150714D02*
X41197140Y-119507857D01*
X41197140Y-119507857D02*
X41125711Y-119650714D01*
X41125711Y-119650714D02*
X41054283Y-119722142D01*
X41054283Y-119722142D02*
X40911425Y-119793571D01*
X40911425Y-119793571D02*
X40482854Y-119793571D01*
X40482854Y-119793571D02*
X40339997Y-119722142D01*
X40339997Y-119722142D02*
X40268568Y-119650714D01*
M02*
