%TF.GenerationSoftware,KiCad,Pcbnew,(7.0.0-0)*%
%TF.CreationDate,2023-04-16T10:07:54+09:00*%
%TF.ProjectId,plates,706c6174-6573-42e6-9b69-6361645f7063,rev?*%
%TF.SameCoordinates,Original*%
%TF.FileFunction,Copper,L1,Top*%
%TF.FilePolarity,Positive*%
%FSLAX46Y46*%
G04 Gerber Fmt 4.6, Leading zero omitted, Abs format (unit mm)*
G04 Created by KiCad (PCBNEW (7.0.0-0)) date 2023-04-16 10:07:54*
%MOMM*%
%LPD*%
G01*
G04 APERTURE LIST*
%TA.AperFunction,ComponentPad*%
%ADD10O,2.000000X15.900000*%
%TD*%
%TA.AperFunction,ComponentPad*%
%ADD11O,15.900000X2.000000*%
%TD*%
G04 APERTURE END LIST*
D10*
%TO.P,SW46,1*%
%TO.N,N/C*%
X88934999Y-95306050D03*
D11*
X95884999Y-88356050D03*
X95884999Y-102256050D03*
D10*
X102834999Y-95306050D03*
%TD*%
%TO.P,SW34,1*%
%TO.N,N/C*%
X127034999Y-76136050D03*
D11*
X133984999Y-69186050D03*
X133984999Y-83086050D03*
D10*
X140934999Y-76136050D03*
%TD*%
%TO.P,SW15,1*%
%TO.N,N/C*%
X31784999Y-57086050D03*
D11*
X38734999Y-50136050D03*
X38734999Y-64036050D03*
D10*
X45684999Y-57086050D03*
%TD*%
%TO.P,SW45,1*%
%TO.N,N/C*%
X69884999Y-95306050D03*
D11*
X76834999Y-88356050D03*
X76834999Y-102256050D03*
D10*
X83784999Y-95306050D03*
%TD*%
%TO.P,SW57,1*%
%TO.N,N/C*%
X88994999Y-114236050D03*
D11*
X95944999Y-107286050D03*
X95944999Y-121186050D03*
D10*
X102894999Y-114236050D03*
%TD*%
%TO.P,SW1,1*%
%TO.N,N/C*%
X31784999Y-38036050D03*
D11*
X38734999Y-31086050D03*
X38734999Y-44986050D03*
D10*
X45684999Y-38036050D03*
%TD*%
%TO.P,SW58,1*%
%TO.N,N/C*%
X107984999Y-114236050D03*
D11*
X114934999Y-107286050D03*
X114934999Y-121186050D03*
D10*
X121884999Y-114236050D03*
%TD*%
%TO.P,SW16,1*%
%TO.N,N/C*%
X50764999Y-57086050D03*
D11*
X57714999Y-50136050D03*
X57714999Y-64036050D03*
D10*
X64664999Y-57086050D03*
%TD*%
%TO.P,SW19,1*%
%TO.N,N/C*%
X107984999Y-57086050D03*
D11*
X114934999Y-50136050D03*
X114934999Y-64036050D03*
D10*
X121884999Y-57086050D03*
%TD*%
%TO.P,SW43,1*%
%TO.N,N/C*%
X31784999Y-95306050D03*
D11*
X38734999Y-88356050D03*
X38734999Y-102256050D03*
D10*
X45684999Y-95306050D03*
%TD*%
%TO.P,SW47,1*%
%TO.N,N/C*%
X107984999Y-95306050D03*
D11*
X114934999Y-88356050D03*
X114934999Y-102256050D03*
D10*
X121884999Y-95306050D03*
%TD*%
%TO.P,SW35,1*%
%TO.N,N/C*%
X146084999Y-76136050D03*
D11*
X153034999Y-69186050D03*
X153034999Y-83086050D03*
D10*
X159984999Y-76136050D03*
%TD*%
%TO.P,SW30,1*%
%TO.N,N/C*%
X50764999Y-76136050D03*
D11*
X57714999Y-69186050D03*
X57714999Y-83086050D03*
D10*
X64664999Y-76136050D03*
%TD*%
%TO.P,SW33,1*%
%TO.N,N/C*%
X107984999Y-76136050D03*
D11*
X114934999Y-69186050D03*
X114934999Y-83086050D03*
D10*
X121884999Y-76136050D03*
%TD*%
%TO.P,SW6,1*%
%TO.N,N/C*%
X127034999Y-38036050D03*
D11*
X133984999Y-31086050D03*
X133984999Y-44986050D03*
D10*
X140934999Y-38036050D03*
%TD*%
%TO.P,SW44,1*%
%TO.N,N/C*%
X50764999Y-95306050D03*
D11*
X57714999Y-88356050D03*
X57714999Y-102256050D03*
D10*
X64664999Y-95306050D03*
%TD*%
%TO.P,SW49,1*%
%TO.N,N/C*%
X146084999Y-95186050D03*
D11*
X153034999Y-88236050D03*
X153034999Y-102136050D03*
D10*
X159984999Y-95186050D03*
%TD*%
%TO.P,SW21,1*%
%TO.N,N/C*%
X146084999Y-57086050D03*
D11*
X153034999Y-50136050D03*
X153034999Y-64036050D03*
D10*
X159984999Y-57086050D03*
%TD*%
%TO.P,SW29,1*%
%TO.N,N/C*%
X31784999Y-76136050D03*
D11*
X38734999Y-69186050D03*
X38734999Y-83086050D03*
D10*
X45684999Y-76136050D03*
%TD*%
%TO.P,SW4,1*%
%TO.N,N/C*%
X88934999Y-38036050D03*
D11*
X95884999Y-31086050D03*
X95884999Y-44986050D03*
D10*
X102834999Y-38036050D03*
%TD*%
%TO.P,SW59,1*%
%TO.N,N/C*%
X127034999Y-114236050D03*
D11*
X133984999Y-107286050D03*
X133984999Y-121186050D03*
D10*
X140934999Y-114236050D03*
%TD*%
%TO.P,SW20,1*%
%TO.N,N/C*%
X127034999Y-57086050D03*
D11*
X133984999Y-50136050D03*
X133984999Y-64036050D03*
D10*
X140934999Y-57086050D03*
%TD*%
%TO.P,SW32,1*%
%TO.N,N/C*%
X88934999Y-76136050D03*
D11*
X95884999Y-69186050D03*
X95884999Y-83086050D03*
D10*
X102834999Y-76136050D03*
%TD*%
%TO.P,SW2,1*%
%TO.N,N/C*%
X50764999Y-38036050D03*
D11*
X57714999Y-31086050D03*
X57714999Y-44986050D03*
D10*
X64664999Y-38036050D03*
%TD*%
%TO.P,SW3,1*%
%TO.N,N/C*%
X69884999Y-38036050D03*
D11*
X76834999Y-31086050D03*
X76834999Y-44986050D03*
D10*
X83784999Y-38036050D03*
%TD*%
%TO.P,SW7,1*%
%TO.N,N/C*%
X146084999Y-38036050D03*
D11*
X153034999Y-31086050D03*
X153034999Y-44986050D03*
D10*
X159984999Y-38036050D03*
%TD*%
%TO.P,SW17,1*%
%TO.N,N/C*%
X69884999Y-57086050D03*
D11*
X76834999Y-50136050D03*
X76834999Y-64036050D03*
D10*
X83784999Y-57086050D03*
%TD*%
%TO.P,SW48,1*%
%TO.N,N/C*%
X127034999Y-95306050D03*
D11*
X133984999Y-88356050D03*
X133984999Y-102256050D03*
D10*
X140934999Y-95306050D03*
%TD*%
%TO.P,SW60,1*%
%TO.N,N/C*%
X146084999Y-114236050D03*
D11*
X153034999Y-107286050D03*
X153034999Y-121186050D03*
D10*
X159984999Y-114236050D03*
%TD*%
%TO.P,SW18,1*%
%TO.N,N/C*%
X88934999Y-57086050D03*
D11*
X95884999Y-50136050D03*
X95884999Y-64036050D03*
D10*
X102834999Y-57086050D03*
%TD*%
%TO.P,SW31,1*%
%TO.N,N/C*%
X69884999Y-76136050D03*
D11*
X76834999Y-69186050D03*
X76834999Y-83086050D03*
D10*
X83784999Y-76136050D03*
%TD*%
%TO.P,SW5,1*%
%TO.N,N/C*%
X107984999Y-38036050D03*
D11*
X114934999Y-31086050D03*
X114934999Y-44986050D03*
D10*
X121884999Y-38036050D03*
%TD*%
M02*
