%TF.GenerationSoftware,KiCad,Pcbnew,(7.0.0-0)*%
%TF.CreationDate,2023-04-16T10:07:54+09:00*%
%TF.ProjectId,plates,706c6174-6573-42e6-9b69-6361645f7063,rev?*%
%TF.SameCoordinates,Original*%
%TF.FileFunction,Legend,Top*%
%TF.FilePolarity,Positive*%
%FSLAX46Y46*%
G04 Gerber Fmt 4.6, Leading zero omitted, Abs format (unit mm)*
G04 Created by KiCad (PCBNEW (7.0.0-0)) date 2023-04-16 10:07:54*
%MOMM*%
%LPD*%
G01*
G04 APERTURE LIST*
%ADD10C,0.300000*%
G04 APERTURE END LIST*
D10*
X28940000Y-118293571D02*
X28654285Y-118293571D01*
X28654285Y-118293571D02*
X28511428Y-118365000D01*
X28511428Y-118365000D02*
X28440000Y-118436428D01*
X28440000Y-118436428D02*
X28297142Y-118650714D01*
X28297142Y-118650714D02*
X28225714Y-118936428D01*
X28225714Y-118936428D02*
X28225714Y-119507857D01*
X28225714Y-119507857D02*
X28297142Y-119650714D01*
X28297142Y-119650714D02*
X28368571Y-119722142D01*
X28368571Y-119722142D02*
X28511428Y-119793571D01*
X28511428Y-119793571D02*
X28797142Y-119793571D01*
X28797142Y-119793571D02*
X28940000Y-119722142D01*
X28940000Y-119722142D02*
X29011428Y-119650714D01*
X29011428Y-119650714D02*
X29082857Y-119507857D01*
X29082857Y-119507857D02*
X29082857Y-119150714D01*
X29082857Y-119150714D02*
X29011428Y-119007857D01*
X29011428Y-119007857D02*
X28940000Y-118936428D01*
X28940000Y-118936428D02*
X28797142Y-118865000D01*
X28797142Y-118865000D02*
X28511428Y-118865000D01*
X28511428Y-118865000D02*
X28368571Y-118936428D01*
X28368571Y-118936428D02*
X28297142Y-119007857D01*
X28297142Y-119007857D02*
X28225714Y-119150714D01*
X30368571Y-118793571D02*
X30368571Y-119793571D01*
X30011428Y-118222142D02*
X29654285Y-119293571D01*
X29654285Y-119293571D02*
X30582856Y-119293571D01*
X31911427Y-118793571D02*
X32268570Y-119793571D01*
X32268570Y-119793571D02*
X32625713Y-118793571D01*
X33768570Y-119722142D02*
X33625713Y-119793571D01*
X33625713Y-119793571D02*
X33339999Y-119793571D01*
X33339999Y-119793571D02*
X33197141Y-119722142D01*
X33197141Y-119722142D02*
X33125713Y-119579285D01*
X33125713Y-119579285D02*
X33125713Y-119007857D01*
X33125713Y-119007857D02*
X33197141Y-118865000D01*
X33197141Y-118865000D02*
X33339999Y-118793571D01*
X33339999Y-118793571D02*
X33625713Y-118793571D01*
X33625713Y-118793571D02*
X33768570Y-118865000D01*
X33768570Y-118865000D02*
X33839999Y-119007857D01*
X33839999Y-119007857D02*
X33839999Y-119150714D01*
X33839999Y-119150714D02*
X33125713Y-119293571D01*
X34482855Y-119793571D02*
X34482855Y-118793571D01*
X34482855Y-119079285D02*
X34554284Y-118936428D01*
X34554284Y-118936428D02*
X34625713Y-118865000D01*
X34625713Y-118865000D02*
X34768570Y-118793571D01*
X34768570Y-118793571D02*
X34911427Y-118793571D01*
X35411426Y-119650714D02*
X35482855Y-119722142D01*
X35482855Y-119722142D02*
X35411426Y-119793571D01*
X35411426Y-119793571D02*
X35339998Y-119722142D01*
X35339998Y-119722142D02*
X35411426Y-119650714D01*
X35411426Y-119650714D02*
X35411426Y-119793571D01*
X35982855Y-118293571D02*
X36911427Y-118293571D01*
X36911427Y-118293571D02*
X36411427Y-118865000D01*
X36411427Y-118865000D02*
X36625712Y-118865000D01*
X36625712Y-118865000D02*
X36768570Y-118936428D01*
X36768570Y-118936428D02*
X36839998Y-119007857D01*
X36839998Y-119007857D02*
X36911427Y-119150714D01*
X36911427Y-119150714D02*
X36911427Y-119507857D01*
X36911427Y-119507857D02*
X36839998Y-119650714D01*
X36839998Y-119650714D02*
X36768570Y-119722142D01*
X36768570Y-119722142D02*
X36625712Y-119793571D01*
X36625712Y-119793571D02*
X36197141Y-119793571D01*
X36197141Y-119793571D02*
X36054284Y-119722142D01*
X36054284Y-119722142D02*
X35982855Y-119650714D01*
M02*
