%TF.GenerationSoftware,KiCad,Pcbnew,(7.0.0-0)*%
%TF.CreationDate,2023-04-16T10:10:33+09:00*%
%TF.ProjectId,pcb,7063622e-6b69-4636-9164-5f7063625858,rev?*%
%TF.SameCoordinates,Original*%
%TF.FileFunction,Legend,Top*%
%TF.FilePolarity,Positive*%
%FSLAX46Y46*%
G04 Gerber Fmt 4.6, Leading zero omitted, Abs format (unit mm)*
G04 Created by KiCad (PCBNEW (7.0.0-0)) date 2023-04-16 10:10:33*
%MOMM*%
%LPD*%
G01*
G04 APERTURE LIST*
%ADD10C,0.150000*%
%ADD11O,2.500000X2.000000*%
%ADD12C,1.210000*%
%ADD13O,1.300000X2.200000*%
G04 APERTURE END LIST*
D10*
X90715012Y-124377730D02*
X90238821Y-124377552D01*
X90238821Y-124377552D02*
X90191024Y-124853724D01*
X90191024Y-124853724D02*
X90238661Y-124806123D01*
X90238661Y-124806123D02*
X90333917Y-124758540D01*
X90333917Y-124758540D02*
X90572012Y-124758629D01*
X90572012Y-124758629D02*
X90667232Y-124806284D01*
X90667232Y-124806284D02*
X90714833Y-124853921D01*
X90714833Y-124853921D02*
X90762417Y-124949177D01*
X90762417Y-124949177D02*
X90762327Y-125187272D01*
X90762327Y-125187272D02*
X90714673Y-125282492D01*
X90714673Y-125282492D02*
X90667036Y-125330093D01*
X90667036Y-125330093D02*
X90571780Y-125377677D01*
X90571780Y-125377677D02*
X90333685Y-125377587D01*
X90333685Y-125377587D02*
X90238464Y-125329933D01*
X90238464Y-125329933D02*
X90190863Y-125282296D01*
X91143547Y-124473129D02*
X91191184Y-124425528D01*
X91191184Y-124425528D02*
X91286440Y-124377944D01*
X91286440Y-124377944D02*
X91524535Y-124378034D01*
X91524535Y-124378034D02*
X91619756Y-124425688D01*
X91619756Y-124425688D02*
X91667357Y-124473325D01*
X91667357Y-124473325D02*
X91714940Y-124568581D01*
X91714940Y-124568581D02*
X91714905Y-124663819D01*
X91714905Y-124663819D02*
X91667232Y-124806659D01*
X91667232Y-124806659D02*
X91095589Y-125377873D01*
X91095589Y-125377873D02*
X91714637Y-125378105D01*
X92619773Y-124378444D02*
X92143583Y-124378266D01*
X92143583Y-124378266D02*
X92095786Y-124854438D01*
X92095786Y-124854438D02*
X92143422Y-124806837D01*
X92143422Y-124806837D02*
X92238678Y-124759254D01*
X92238678Y-124759254D02*
X92476774Y-124759343D01*
X92476774Y-124759343D02*
X92571994Y-124806998D01*
X92571994Y-124806998D02*
X92619595Y-124854634D01*
X92619595Y-124854634D02*
X92667178Y-124949890D01*
X92667178Y-124949890D02*
X92667089Y-125187986D01*
X92667089Y-125187986D02*
X92619434Y-125283206D01*
X92619434Y-125283206D02*
X92571798Y-125330807D01*
X92571798Y-125330807D02*
X92476542Y-125378390D01*
X92476542Y-125378390D02*
X92238446Y-125378301D01*
X92238446Y-125378301D02*
X92143226Y-125330646D01*
X92143226Y-125330646D02*
X92095625Y-125283010D01*
X93000726Y-124378587D02*
X93619773Y-124378819D01*
X93619773Y-124378819D02*
X93286297Y-124759646D01*
X93286297Y-124759646D02*
X93429155Y-124759700D01*
X93429155Y-124759700D02*
X93524375Y-124807354D01*
X93524375Y-124807354D02*
X93571976Y-124854991D01*
X93571976Y-124854991D02*
X93619559Y-124950247D01*
X93619559Y-124950247D02*
X93619470Y-125188342D01*
X93619470Y-125188342D02*
X93571815Y-125283563D01*
X93571815Y-125283563D02*
X93524179Y-125331164D01*
X93524179Y-125331164D02*
X93428923Y-125378747D01*
X93428923Y-125378747D02*
X93143208Y-125378640D01*
X93143208Y-125378640D02*
X93047988Y-125330985D01*
X93047988Y-125330985D02*
X93000387Y-125283349D01*
X94048006Y-125283741D02*
X94095607Y-125331378D01*
X94095607Y-125331378D02*
X94047970Y-125378979D01*
X94047970Y-125378979D02*
X94000369Y-125331342D01*
X94000369Y-125331342D02*
X94048006Y-125283741D01*
X94048006Y-125283741D02*
X94047970Y-125378979D01*
X95000725Y-124379336D02*
X94524535Y-124379158D01*
X94524535Y-124379158D02*
X94476737Y-124855330D01*
X94476737Y-124855330D02*
X94524374Y-124807729D01*
X94524374Y-124807729D02*
X94619630Y-124760146D01*
X94619630Y-124760146D02*
X94857725Y-124760235D01*
X94857725Y-124760235D02*
X94952946Y-124807890D01*
X94952946Y-124807890D02*
X95000547Y-124855527D01*
X95000547Y-124855527D02*
X95048130Y-124950783D01*
X95048130Y-124950783D02*
X95048041Y-125188878D01*
X95048041Y-125188878D02*
X95000386Y-125284098D01*
X95000386Y-125284098D02*
X94952749Y-125331699D01*
X94952749Y-125331699D02*
X94857493Y-125379283D01*
X94857493Y-125379283D02*
X94619398Y-125379193D01*
X94619398Y-125379193D02*
X94524178Y-125331539D01*
X94524178Y-125331539D02*
X94476577Y-125283902D01*
X95905362Y-124713008D02*
X95905113Y-125379675D01*
X95667410Y-124331967D02*
X95429047Y-125046163D01*
X95429047Y-125046163D02*
X96048095Y-125046395D01*
X96334059Y-124379836D02*
X96953106Y-124380068D01*
X96953106Y-124380068D02*
X96619630Y-124760895D01*
X96619630Y-124760895D02*
X96762487Y-124760949D01*
X96762487Y-124760949D02*
X96857708Y-124808603D01*
X96857708Y-124808603D02*
X96905309Y-124856240D01*
X96905309Y-124856240D02*
X96952892Y-124951496D01*
X96952892Y-124951496D02*
X96952803Y-125189591D01*
X96952803Y-125189591D02*
X96905148Y-125284812D01*
X96905148Y-125284812D02*
X96857511Y-125332413D01*
X96857511Y-125332413D02*
X96762255Y-125379996D01*
X96762255Y-125379996D02*
X96476541Y-125379889D01*
X96476541Y-125379889D02*
X96381321Y-125332234D01*
X96381321Y-125332234D02*
X96333720Y-125284598D01*
X97286440Y-124380193D02*
X97953106Y-124380442D01*
X97953106Y-124380442D02*
X97524160Y-125380282D01*
X98933684Y-125380810D02*
X98933934Y-124714143D01*
X98933898Y-124809381D02*
X98981535Y-124761780D01*
X98981535Y-124761780D02*
X99076791Y-124714197D01*
X99076791Y-124714197D02*
X99219648Y-124714250D01*
X99219648Y-124714250D02*
X99314868Y-124761905D01*
X99314868Y-124761905D02*
X99362452Y-124857161D01*
X99362452Y-124857161D02*
X99362255Y-125380970D01*
X99362452Y-124857161D02*
X99410106Y-124761941D01*
X99410106Y-124761941D02*
X99505362Y-124714357D01*
X99505362Y-124714357D02*
X99648219Y-124714411D01*
X99648219Y-124714411D02*
X99743440Y-124762066D01*
X99743440Y-124762066D02*
X99791023Y-124857322D01*
X99791023Y-124857322D02*
X99790827Y-125381131D01*
X100267017Y-125381309D02*
X100267267Y-124714643D01*
X100267391Y-124381310D02*
X100219755Y-124428911D01*
X100219755Y-124428911D02*
X100267356Y-124476548D01*
X100267356Y-124476548D02*
X100314993Y-124428946D01*
X100314993Y-124428946D02*
X100267391Y-124381310D01*
X100267391Y-124381310D02*
X100267356Y-124476548D01*
X100886064Y-125381541D02*
X100790844Y-125333887D01*
X100790844Y-125333887D02*
X100743260Y-125238631D01*
X100743260Y-125238631D02*
X100743581Y-124381488D01*
X101219416Y-125334047D02*
X101314636Y-125381702D01*
X101314636Y-125381702D02*
X101505112Y-125381773D01*
X101505112Y-125381773D02*
X101600368Y-125334190D01*
X101600368Y-125334190D02*
X101648023Y-125238970D01*
X101648023Y-125238970D02*
X101648040Y-125191351D01*
X101648040Y-125191351D02*
X101600457Y-125096095D01*
X101600457Y-125096095D02*
X101505237Y-125048440D01*
X101505237Y-125048440D02*
X101362380Y-125048387D01*
X101362380Y-125048387D02*
X101267159Y-125000732D01*
X101267159Y-125000732D02*
X101219576Y-124905476D01*
X101219576Y-124905476D02*
X101219594Y-124857857D01*
X101219594Y-124857857D02*
X101267249Y-124762637D01*
X101267249Y-124762637D02*
X101362505Y-124715053D01*
X101362505Y-124715053D02*
X101505362Y-124715107D01*
X101505362Y-124715107D02*
X101600582Y-124762762D01*
X29199813Y-124250000D02*
X29198886Y-126723720D01*
X162639813Y-124300000D02*
X162638886Y-126773720D01*
X29199105Y-126137300D02*
X162639105Y-126187300D01*
X29199105Y-126137300D02*
X162639105Y-126187300D01*
X29199105Y-126137300D02*
X30325828Y-125551301D01*
X29199105Y-126137300D02*
X30325389Y-126724143D01*
X162639105Y-126187300D02*
X161512382Y-126773299D01*
X162639105Y-126187300D02*
X161512821Y-125600457D01*
X165857380Y-81876189D02*
X165857380Y-81257142D01*
X165857380Y-81257142D02*
X166238333Y-81590475D01*
X166238333Y-81590475D02*
X166238333Y-81447618D01*
X166238333Y-81447618D02*
X166285952Y-81352380D01*
X166285952Y-81352380D02*
X166333571Y-81304761D01*
X166333571Y-81304761D02*
X166428809Y-81257142D01*
X166428809Y-81257142D02*
X166666904Y-81257142D01*
X166666904Y-81257142D02*
X166762142Y-81304761D01*
X166762142Y-81304761D02*
X166809761Y-81352380D01*
X166809761Y-81352380D02*
X166857380Y-81447618D01*
X166857380Y-81447618D02*
X166857380Y-81733332D01*
X166857380Y-81733332D02*
X166809761Y-81828570D01*
X166809761Y-81828570D02*
X166762142Y-81876189D01*
X165857380Y-80923808D02*
X165857380Y-80257142D01*
X165857380Y-80257142D02*
X166857380Y-80685713D01*
X165857380Y-79399999D02*
X165857380Y-79876189D01*
X165857380Y-79876189D02*
X166333571Y-79923808D01*
X166333571Y-79923808D02*
X166285952Y-79876189D01*
X166285952Y-79876189D02*
X166238333Y-79780951D01*
X166238333Y-79780951D02*
X166238333Y-79542856D01*
X166238333Y-79542856D02*
X166285952Y-79447618D01*
X166285952Y-79447618D02*
X166333571Y-79399999D01*
X166333571Y-79399999D02*
X166428809Y-79352380D01*
X166428809Y-79352380D02*
X166666904Y-79352380D01*
X166666904Y-79352380D02*
X166762142Y-79399999D01*
X166762142Y-79399999D02*
X166809761Y-79447618D01*
X166809761Y-79447618D02*
X166857380Y-79542856D01*
X166857380Y-79542856D02*
X166857380Y-79780951D01*
X166857380Y-79780951D02*
X166809761Y-79876189D01*
X166809761Y-79876189D02*
X166762142Y-79923808D01*
X165857380Y-78447618D02*
X165857380Y-78923808D01*
X165857380Y-78923808D02*
X166333571Y-78971427D01*
X166333571Y-78971427D02*
X166285952Y-78923808D01*
X166285952Y-78923808D02*
X166238333Y-78828570D01*
X166238333Y-78828570D02*
X166238333Y-78590475D01*
X166238333Y-78590475D02*
X166285952Y-78495237D01*
X166285952Y-78495237D02*
X166333571Y-78447618D01*
X166333571Y-78447618D02*
X166428809Y-78399999D01*
X166428809Y-78399999D02*
X166666904Y-78399999D01*
X166666904Y-78399999D02*
X166762142Y-78447618D01*
X166762142Y-78447618D02*
X166809761Y-78495237D01*
X166809761Y-78495237D02*
X166857380Y-78590475D01*
X166857380Y-78590475D02*
X166857380Y-78828570D01*
X166857380Y-78828570D02*
X166809761Y-78923808D01*
X166809761Y-78923808D02*
X166762142Y-78971427D01*
X166762142Y-77971427D02*
X166809761Y-77923808D01*
X166809761Y-77923808D02*
X166857380Y-77971427D01*
X166857380Y-77971427D02*
X166809761Y-78019046D01*
X166809761Y-78019046D02*
X166762142Y-77971427D01*
X166762142Y-77971427D02*
X166857380Y-77971427D01*
X166857380Y-77447618D02*
X166857380Y-77257142D01*
X166857380Y-77257142D02*
X166809761Y-77161904D01*
X166809761Y-77161904D02*
X166762142Y-77114285D01*
X166762142Y-77114285D02*
X166619285Y-77019047D01*
X166619285Y-77019047D02*
X166428809Y-76971428D01*
X166428809Y-76971428D02*
X166047857Y-76971428D01*
X166047857Y-76971428D02*
X165952619Y-77019047D01*
X165952619Y-77019047D02*
X165905000Y-77066666D01*
X165905000Y-77066666D02*
X165857380Y-77161904D01*
X165857380Y-77161904D02*
X165857380Y-77352380D01*
X165857380Y-77352380D02*
X165905000Y-77447618D01*
X165905000Y-77447618D02*
X165952619Y-77495237D01*
X165952619Y-77495237D02*
X166047857Y-77542856D01*
X166047857Y-77542856D02*
X166285952Y-77542856D01*
X166285952Y-77542856D02*
X166381190Y-77495237D01*
X166381190Y-77495237D02*
X166428809Y-77447618D01*
X166428809Y-77447618D02*
X166476428Y-77352380D01*
X166476428Y-77352380D02*
X166476428Y-77161904D01*
X166476428Y-77161904D02*
X166428809Y-77066666D01*
X166428809Y-77066666D02*
X166381190Y-77019047D01*
X166381190Y-77019047D02*
X166285952Y-76971428D01*
X165857380Y-76352380D02*
X165857380Y-76257142D01*
X165857380Y-76257142D02*
X165905000Y-76161904D01*
X165905000Y-76161904D02*
X165952619Y-76114285D01*
X165952619Y-76114285D02*
X166047857Y-76066666D01*
X166047857Y-76066666D02*
X166238333Y-76019047D01*
X166238333Y-76019047D02*
X166476428Y-76019047D01*
X166476428Y-76019047D02*
X166666904Y-76066666D01*
X166666904Y-76066666D02*
X166762142Y-76114285D01*
X166762142Y-76114285D02*
X166809761Y-76161904D01*
X166809761Y-76161904D02*
X166857380Y-76257142D01*
X166857380Y-76257142D02*
X166857380Y-76352380D01*
X166857380Y-76352380D02*
X166809761Y-76447618D01*
X166809761Y-76447618D02*
X166762142Y-76495237D01*
X166762142Y-76495237D02*
X166666904Y-76542856D01*
X166666904Y-76542856D02*
X166476428Y-76590475D01*
X166476428Y-76590475D02*
X166238333Y-76590475D01*
X166238333Y-76590475D02*
X166047857Y-76542856D01*
X166047857Y-76542856D02*
X165952619Y-76495237D01*
X165952619Y-76495237D02*
X165905000Y-76447618D01*
X165905000Y-76447618D02*
X165857380Y-76352380D01*
X165857380Y-75114285D02*
X165857380Y-75590475D01*
X165857380Y-75590475D02*
X166333571Y-75638094D01*
X166333571Y-75638094D02*
X166285952Y-75590475D01*
X166285952Y-75590475D02*
X166238333Y-75495237D01*
X166238333Y-75495237D02*
X166238333Y-75257142D01*
X166238333Y-75257142D02*
X166285952Y-75161904D01*
X166285952Y-75161904D02*
X166333571Y-75114285D01*
X166333571Y-75114285D02*
X166428809Y-75066666D01*
X166428809Y-75066666D02*
X166666904Y-75066666D01*
X166666904Y-75066666D02*
X166762142Y-75114285D01*
X166762142Y-75114285D02*
X166809761Y-75161904D01*
X166809761Y-75161904D02*
X166857380Y-75257142D01*
X166857380Y-75257142D02*
X166857380Y-75495237D01*
X166857380Y-75495237D02*
X166809761Y-75590475D01*
X166809761Y-75590475D02*
X166762142Y-75638094D01*
X165857380Y-74161904D02*
X165857380Y-74638094D01*
X165857380Y-74638094D02*
X166333571Y-74685713D01*
X166333571Y-74685713D02*
X166285952Y-74638094D01*
X166285952Y-74638094D02*
X166238333Y-74542856D01*
X166238333Y-74542856D02*
X166238333Y-74304761D01*
X166238333Y-74304761D02*
X166285952Y-74209523D01*
X166285952Y-74209523D02*
X166333571Y-74161904D01*
X166333571Y-74161904D02*
X166428809Y-74114285D01*
X166428809Y-74114285D02*
X166666904Y-74114285D01*
X166666904Y-74114285D02*
X166762142Y-74161904D01*
X166762142Y-74161904D02*
X166809761Y-74209523D01*
X166809761Y-74209523D02*
X166857380Y-74304761D01*
X166857380Y-74304761D02*
X166857380Y-74542856D01*
X166857380Y-74542856D02*
X166809761Y-74638094D01*
X166809761Y-74638094D02*
X166762142Y-74685713D01*
X166857380Y-73085713D02*
X166190714Y-73085713D01*
X166285952Y-73085713D02*
X166238333Y-73038094D01*
X166238333Y-73038094D02*
X166190714Y-72942856D01*
X166190714Y-72942856D02*
X166190714Y-72799999D01*
X166190714Y-72799999D02*
X166238333Y-72704761D01*
X166238333Y-72704761D02*
X166333571Y-72657142D01*
X166333571Y-72657142D02*
X166857380Y-72657142D01*
X166333571Y-72657142D02*
X166238333Y-72609523D01*
X166238333Y-72609523D02*
X166190714Y-72514285D01*
X166190714Y-72514285D02*
X166190714Y-72371428D01*
X166190714Y-72371428D02*
X166238333Y-72276189D01*
X166238333Y-72276189D02*
X166333571Y-72228570D01*
X166333571Y-72228570D02*
X166857380Y-72228570D01*
X166857380Y-71752380D02*
X166190714Y-71752380D01*
X165857380Y-71752380D02*
X165905000Y-71799999D01*
X165905000Y-71799999D02*
X165952619Y-71752380D01*
X165952619Y-71752380D02*
X165905000Y-71704761D01*
X165905000Y-71704761D02*
X165857380Y-71752380D01*
X165857380Y-71752380D02*
X165952619Y-71752380D01*
X166857380Y-71133333D02*
X166809761Y-71228571D01*
X166809761Y-71228571D02*
X166714523Y-71276190D01*
X166714523Y-71276190D02*
X165857380Y-71276190D01*
X166809761Y-70799999D02*
X166857380Y-70704761D01*
X166857380Y-70704761D02*
X166857380Y-70514285D01*
X166857380Y-70514285D02*
X166809761Y-70419047D01*
X166809761Y-70419047D02*
X166714523Y-70371428D01*
X166714523Y-70371428D02*
X166666904Y-70371428D01*
X166666904Y-70371428D02*
X166571666Y-70419047D01*
X166571666Y-70419047D02*
X166524047Y-70514285D01*
X166524047Y-70514285D02*
X166524047Y-70657142D01*
X166524047Y-70657142D02*
X166476428Y-70752380D01*
X166476428Y-70752380D02*
X166381190Y-70799999D01*
X166381190Y-70799999D02*
X166333571Y-70799999D01*
X166333571Y-70799999D02*
X166238333Y-70752380D01*
X166238333Y-70752380D02*
X166190714Y-70657142D01*
X166190714Y-70657142D02*
X166190714Y-70514285D01*
X166190714Y-70514285D02*
X166238333Y-70419047D01*
X163140000Y-123800000D02*
X168226420Y-123800000D01*
X163140000Y-28400000D02*
X168226420Y-28400000D01*
X167640000Y-123800000D02*
X167640000Y-28400000D01*
X167640000Y-123800000D02*
X167640000Y-28400000D01*
X167640000Y-123800000D02*
X167053579Y-122673496D01*
X167640000Y-123800000D02*
X168226421Y-122673496D01*
X167640000Y-28400000D02*
X168226421Y-29526504D01*
X167640000Y-28400000D02*
X167053579Y-29526504D01*
D11*
%TO.C,SW46*%
X92074999Y-92693799D03*
X98424999Y-90153799D03*
%TD*%
D12*
%TO.C,J1*%
X144818200Y-22100000D03*
X144818200Y-29100000D03*
D13*
X146818199Y-32399999D03*
X142818199Y-23899999D03*
X142818199Y-26899999D03*
X142818199Y-30899999D03*
%TD*%
D11*
%TO.C,SW34*%
X130174999Y-73599999D03*
X136524999Y-71059999D03*
%TD*%
%TO.C,SW15*%
X34924999Y-54549999D03*
X41274999Y-52009999D03*
%TD*%
%TO.C,SW45*%
X73024999Y-92668399D03*
X79374999Y-90128399D03*
%TD*%
%TO.C,SW57*%
X92134999Y-111699999D03*
X98484999Y-109159999D03*
%TD*%
%TO.C,SW1*%
X34924999Y-35499999D03*
X41274999Y-32959999D03*
%TD*%
%TO.C,SW58*%
X111124999Y-111699999D03*
X117474999Y-109159999D03*
%TD*%
%TO.C,SW16*%
X53904999Y-54549999D03*
X60254999Y-52009999D03*
%TD*%
%TO.C,SW19*%
X111124999Y-54549999D03*
X117474999Y-52009999D03*
%TD*%
%TO.C,SW43*%
X34924999Y-92668399D03*
X41274999Y-90128399D03*
%TD*%
%TO.C,SW47*%
X111124999Y-92693799D03*
X117474999Y-90153799D03*
%TD*%
%TO.C,SW35*%
X149224999Y-73599999D03*
X155574999Y-71059999D03*
%TD*%
%TO.C,SW30*%
X53904999Y-73599999D03*
X60254999Y-71059999D03*
%TD*%
%TO.C,SW33*%
X111124999Y-73599999D03*
X117474999Y-71059999D03*
%TD*%
%TO.C,SW6*%
X130174999Y-35499999D03*
X136524999Y-32959999D03*
%TD*%
%TO.C,SW44*%
X53904999Y-92668399D03*
X60254999Y-90128399D03*
%TD*%
%TO.C,SW49*%
X149224999Y-92649999D03*
X155574999Y-90109999D03*
%TD*%
%TO.C,SW21*%
X149224999Y-54549999D03*
X155574999Y-52009999D03*
%TD*%
%TO.C,SW29*%
X34924999Y-73599999D03*
X41274999Y-71059999D03*
%TD*%
%TO.C,SW4*%
X92074999Y-35499999D03*
X98424999Y-32959999D03*
%TD*%
%TO.C,SW59*%
X130174999Y-111699999D03*
X136524999Y-109159999D03*
%TD*%
%TO.C,SW20*%
X130174999Y-54549999D03*
X136524999Y-52009999D03*
%TD*%
%TO.C,SW32*%
X92074999Y-73599999D03*
X98424999Y-71059999D03*
%TD*%
%TO.C,SW2*%
X53904999Y-35499999D03*
X60254999Y-32959999D03*
%TD*%
%TO.C,SW3*%
X73024999Y-35499999D03*
X79374999Y-32959999D03*
%TD*%
%TO.C,SW7*%
X149224999Y-35499999D03*
X155574999Y-32959999D03*
%TD*%
%TO.C,SW17*%
X73024999Y-54549999D03*
X79374999Y-52009999D03*
%TD*%
%TO.C,SW48*%
X130174999Y-92693799D03*
X136524999Y-90153799D03*
%TD*%
%TO.C,SW60*%
X149224999Y-111699999D03*
X155574999Y-109159999D03*
%TD*%
%TO.C,SW18*%
X92074999Y-54549999D03*
X98424999Y-52009999D03*
%TD*%
%TO.C,SW31*%
X73024999Y-73599999D03*
X79374999Y-71059999D03*
%TD*%
%TO.C,SW5*%
X111124999Y-35499999D03*
X117474999Y-32959999D03*
%TD*%
M02*
