%TF.GenerationSoftware,KiCad,Pcbnew,(7.0.0-0)*%
%TF.CreationDate,2023-04-16T10:10:33+09:00*%
%TF.ProjectId,pcb,7063622e-6b69-4636-9164-5f7063625858,rev?*%
%TF.SameCoordinates,Original*%
%TF.FileFunction,Legend,Bot*%
%TF.FilePolarity,Positive*%
%FSLAX46Y46*%
G04 Gerber Fmt 4.6, Leading zero omitted, Abs format (unit mm)*
G04 Created by KiCad (PCBNEW (7.0.0-0)) date 2023-04-16 10:10:33*
%MOMM*%
%LPD*%
G01*
G04 APERTURE LIST*
%ADD10C,0.300000*%
%ADD11C,0.150000*%
%ADD12C,0.125000*%
%ADD13C,0.120000*%
G04 APERTURE END LIST*
D10*
X59960000Y-100137571D02*
X60245714Y-100137571D01*
X60245714Y-100137571D02*
X60388571Y-100209000D01*
X60388571Y-100209000D02*
X60460000Y-100280428D01*
X60460000Y-100280428D02*
X60602857Y-100494714D01*
X60602857Y-100494714D02*
X60674285Y-100780428D01*
X60674285Y-100780428D02*
X60674285Y-101351857D01*
X60674285Y-101351857D02*
X60602857Y-101494714D01*
X60602857Y-101494714D02*
X60531428Y-101566142D01*
X60531428Y-101566142D02*
X60388571Y-101637571D01*
X60388571Y-101637571D02*
X60102857Y-101637571D01*
X60102857Y-101637571D02*
X59960000Y-101566142D01*
X59960000Y-101566142D02*
X59888571Y-101494714D01*
X59888571Y-101494714D02*
X59817142Y-101351857D01*
X59817142Y-101351857D02*
X59817142Y-100994714D01*
X59817142Y-100994714D02*
X59888571Y-100851857D01*
X59888571Y-100851857D02*
X59960000Y-100780428D01*
X59960000Y-100780428D02*
X60102857Y-100709000D01*
X60102857Y-100709000D02*
X60388571Y-100709000D01*
X60388571Y-100709000D02*
X60531428Y-100780428D01*
X60531428Y-100780428D02*
X60602857Y-100851857D01*
X60602857Y-100851857D02*
X60674285Y-100994714D01*
X58531429Y-100637571D02*
X58531429Y-101637571D01*
X58888571Y-100066142D02*
X59245714Y-101137571D01*
X59245714Y-101137571D02*
X58317143Y-101137571D01*
X56988572Y-100637571D02*
X56631429Y-101637571D01*
X56631429Y-101637571D02*
X56274286Y-100637571D01*
X55131429Y-101566142D02*
X55274286Y-101637571D01*
X55274286Y-101637571D02*
X55560001Y-101637571D01*
X55560001Y-101637571D02*
X55702858Y-101566142D01*
X55702858Y-101566142D02*
X55774286Y-101423285D01*
X55774286Y-101423285D02*
X55774286Y-100851857D01*
X55774286Y-100851857D02*
X55702858Y-100709000D01*
X55702858Y-100709000D02*
X55560001Y-100637571D01*
X55560001Y-100637571D02*
X55274286Y-100637571D01*
X55274286Y-100637571D02*
X55131429Y-100709000D01*
X55131429Y-100709000D02*
X55060001Y-100851857D01*
X55060001Y-100851857D02*
X55060001Y-100994714D01*
X55060001Y-100994714D02*
X55774286Y-101137571D01*
X54417144Y-101637571D02*
X54417144Y-100637571D01*
X54417144Y-100923285D02*
X54345715Y-100780428D01*
X54345715Y-100780428D02*
X54274287Y-100709000D01*
X54274287Y-100709000D02*
X54131429Y-100637571D01*
X54131429Y-100637571D02*
X53988572Y-100637571D01*
X53488573Y-101494714D02*
X53417144Y-101566142D01*
X53417144Y-101566142D02*
X53488573Y-101637571D01*
X53488573Y-101637571D02*
X53560001Y-101566142D01*
X53560001Y-101566142D02*
X53488573Y-101494714D01*
X53488573Y-101494714D02*
X53488573Y-101637571D01*
X52917144Y-100137571D02*
X51988572Y-100137571D01*
X51988572Y-100137571D02*
X52488572Y-100709000D01*
X52488572Y-100709000D02*
X52274287Y-100709000D01*
X52274287Y-100709000D02*
X52131430Y-100780428D01*
X52131430Y-100780428D02*
X52060001Y-100851857D01*
X52060001Y-100851857D02*
X51988572Y-100994714D01*
X51988572Y-100994714D02*
X51988572Y-101351857D01*
X51988572Y-101351857D02*
X52060001Y-101494714D01*
X52060001Y-101494714D02*
X52131430Y-101566142D01*
X52131430Y-101566142D02*
X52274287Y-101637571D01*
X52274287Y-101637571D02*
X52702858Y-101637571D01*
X52702858Y-101637571D02*
X52845715Y-101566142D01*
X52845715Y-101566142D02*
X52917144Y-101494714D01*
X60388571Y-104067571D02*
X60531428Y-103996142D01*
X60531428Y-103996142D02*
X60602857Y-103853285D01*
X60602857Y-103853285D02*
X60602857Y-102567571D01*
X59245714Y-103996142D02*
X59388571Y-104067571D01*
X59388571Y-104067571D02*
X59674286Y-104067571D01*
X59674286Y-104067571D02*
X59817143Y-103996142D01*
X59817143Y-103996142D02*
X59888571Y-103853285D01*
X59888571Y-103853285D02*
X59888571Y-103281857D01*
X59888571Y-103281857D02*
X59817143Y-103139000D01*
X59817143Y-103139000D02*
X59674286Y-103067571D01*
X59674286Y-103067571D02*
X59388571Y-103067571D01*
X59388571Y-103067571D02*
X59245714Y-103139000D01*
X59245714Y-103139000D02*
X59174286Y-103281857D01*
X59174286Y-103281857D02*
X59174286Y-103424714D01*
X59174286Y-103424714D02*
X59888571Y-103567571D01*
X58745714Y-103067571D02*
X58174286Y-103067571D01*
X58531429Y-104067571D02*
X58531429Y-102781857D01*
X58531429Y-102781857D02*
X58460000Y-102639000D01*
X58460000Y-102639000D02*
X58317143Y-102567571D01*
X58317143Y-102567571D02*
X58174286Y-102567571D01*
X57888571Y-103067571D02*
X57317143Y-103067571D01*
X57674286Y-102567571D02*
X57674286Y-103853285D01*
X57674286Y-103853285D02*
X57602857Y-103996142D01*
X57602857Y-103996142D02*
X57460000Y-104067571D01*
X57460000Y-104067571D02*
X57317143Y-104067571D01*
X55917143Y-104067571D02*
X55917143Y-102567571D01*
X55274286Y-104067571D02*
X55274286Y-103281857D01*
X55274286Y-103281857D02*
X55345714Y-103139000D01*
X55345714Y-103139000D02*
X55488571Y-103067571D01*
X55488571Y-103067571D02*
X55702857Y-103067571D01*
X55702857Y-103067571D02*
X55845714Y-103139000D01*
X55845714Y-103139000D02*
X55917143Y-103210428D01*
X53917143Y-104067571D02*
X53917143Y-103281857D01*
X53917143Y-103281857D02*
X53988571Y-103139000D01*
X53988571Y-103139000D02*
X54131428Y-103067571D01*
X54131428Y-103067571D02*
X54417143Y-103067571D01*
X54417143Y-103067571D02*
X54560000Y-103139000D01*
X53917143Y-103996142D02*
X54060000Y-104067571D01*
X54060000Y-104067571D02*
X54417143Y-104067571D01*
X54417143Y-104067571D02*
X54560000Y-103996142D01*
X54560000Y-103996142D02*
X54631428Y-103853285D01*
X54631428Y-103853285D02*
X54631428Y-103710428D01*
X54631428Y-103710428D02*
X54560000Y-103567571D01*
X54560000Y-103567571D02*
X54417143Y-103496142D01*
X54417143Y-103496142D02*
X54060000Y-103496142D01*
X54060000Y-103496142D02*
X53917143Y-103424714D01*
X53202857Y-103067571D02*
X53202857Y-104067571D01*
X53202857Y-103210428D02*
X53131428Y-103139000D01*
X53131428Y-103139000D02*
X52988571Y-103067571D01*
X52988571Y-103067571D02*
X52774285Y-103067571D01*
X52774285Y-103067571D02*
X52631428Y-103139000D01*
X52631428Y-103139000D02*
X52560000Y-103281857D01*
X52560000Y-103281857D02*
X52560000Y-104067571D01*
X51202857Y-104067571D02*
X51202857Y-102567571D01*
X51202857Y-103996142D02*
X51345714Y-104067571D01*
X51345714Y-104067571D02*
X51631428Y-104067571D01*
X51631428Y-104067571D02*
X51774285Y-103996142D01*
X51774285Y-103996142D02*
X51845714Y-103924714D01*
X51845714Y-103924714D02*
X51917142Y-103781857D01*
X51917142Y-103781857D02*
X51917142Y-103353285D01*
X51917142Y-103353285D02*
X51845714Y-103210428D01*
X51845714Y-103210428D02*
X51774285Y-103139000D01*
X51774285Y-103139000D02*
X51631428Y-103067571D01*
X51631428Y-103067571D02*
X51345714Y-103067571D01*
X51345714Y-103067571D02*
X51202857Y-103139000D01*
D11*
%TO.C,SW46*%
X96424523Y-90473561D02*
X96281666Y-90521180D01*
X96281666Y-90521180D02*
X96043571Y-90521180D01*
X96043571Y-90521180D02*
X95948333Y-90473561D01*
X95948333Y-90473561D02*
X95900714Y-90425942D01*
X95900714Y-90425942D02*
X95853095Y-90330704D01*
X95853095Y-90330704D02*
X95853095Y-90235466D01*
X95853095Y-90235466D02*
X95900714Y-90140228D01*
X95900714Y-90140228D02*
X95948333Y-90092609D01*
X95948333Y-90092609D02*
X96043571Y-90044990D01*
X96043571Y-90044990D02*
X96234047Y-89997371D01*
X96234047Y-89997371D02*
X96329285Y-89949752D01*
X96329285Y-89949752D02*
X96376904Y-89902133D01*
X96376904Y-89902133D02*
X96424523Y-89806895D01*
X96424523Y-89806895D02*
X96424523Y-89711657D01*
X96424523Y-89711657D02*
X96376904Y-89616419D01*
X96376904Y-89616419D02*
X96329285Y-89568800D01*
X96329285Y-89568800D02*
X96234047Y-89521180D01*
X96234047Y-89521180D02*
X95995952Y-89521180D01*
X95995952Y-89521180D02*
X95853095Y-89568800D01*
X95519761Y-89521180D02*
X95281666Y-90521180D01*
X95281666Y-90521180D02*
X95091190Y-89806895D01*
X95091190Y-89806895D02*
X94900714Y-90521180D01*
X94900714Y-90521180D02*
X94662619Y-89521180D01*
X93853095Y-89854514D02*
X93853095Y-90521180D01*
X94091190Y-89473561D02*
X94329285Y-90187847D01*
X94329285Y-90187847D02*
X93710238Y-90187847D01*
X92900714Y-89521180D02*
X93091190Y-89521180D01*
X93091190Y-89521180D02*
X93186428Y-89568800D01*
X93186428Y-89568800D02*
X93234047Y-89616419D01*
X93234047Y-89616419D02*
X93329285Y-89759276D01*
X93329285Y-89759276D02*
X93376904Y-89949752D01*
X93376904Y-89949752D02*
X93376904Y-90330704D01*
X93376904Y-90330704D02*
X93329285Y-90425942D01*
X93329285Y-90425942D02*
X93281666Y-90473561D01*
X93281666Y-90473561D02*
X93186428Y-90521180D01*
X93186428Y-90521180D02*
X92995952Y-90521180D01*
X92995952Y-90521180D02*
X92900714Y-90473561D01*
X92900714Y-90473561D02*
X92853095Y-90425942D01*
X92853095Y-90425942D02*
X92805476Y-90330704D01*
X92805476Y-90330704D02*
X92805476Y-90092609D01*
X92805476Y-90092609D02*
X92853095Y-89997371D01*
X92853095Y-89997371D02*
X92900714Y-89949752D01*
X92900714Y-89949752D02*
X92995952Y-89902133D01*
X92995952Y-89902133D02*
X93186428Y-89902133D01*
X93186428Y-89902133D02*
X93281666Y-89949752D01*
X93281666Y-89949752D02*
X93329285Y-89997371D01*
X93329285Y-89997371D02*
X93376904Y-90092609D01*
D12*
%TO.C,D33*%
X116626428Y-83283904D02*
X116626428Y-82483904D01*
X116626428Y-82483904D02*
X116435952Y-82483904D01*
X116435952Y-82483904D02*
X116321666Y-82522000D01*
X116321666Y-82522000D02*
X116245476Y-82598190D01*
X116245476Y-82598190D02*
X116207381Y-82674380D01*
X116207381Y-82674380D02*
X116169285Y-82826761D01*
X116169285Y-82826761D02*
X116169285Y-82941047D01*
X116169285Y-82941047D02*
X116207381Y-83093428D01*
X116207381Y-83093428D02*
X116245476Y-83169619D01*
X116245476Y-83169619D02*
X116321666Y-83245809D01*
X116321666Y-83245809D02*
X116435952Y-83283904D01*
X116435952Y-83283904D02*
X116626428Y-83283904D01*
X115902619Y-82483904D02*
X115407381Y-82483904D01*
X115407381Y-82483904D02*
X115674047Y-82788666D01*
X115674047Y-82788666D02*
X115559762Y-82788666D01*
X115559762Y-82788666D02*
X115483571Y-82826761D01*
X115483571Y-82826761D02*
X115445476Y-82864857D01*
X115445476Y-82864857D02*
X115407381Y-82941047D01*
X115407381Y-82941047D02*
X115407381Y-83131523D01*
X115407381Y-83131523D02*
X115445476Y-83207714D01*
X115445476Y-83207714D02*
X115483571Y-83245809D01*
X115483571Y-83245809D02*
X115559762Y-83283904D01*
X115559762Y-83283904D02*
X115788333Y-83283904D01*
X115788333Y-83283904D02*
X115864524Y-83245809D01*
X115864524Y-83245809D02*
X115902619Y-83207714D01*
X115140714Y-82483904D02*
X114645476Y-82483904D01*
X114645476Y-82483904D02*
X114912142Y-82788666D01*
X114912142Y-82788666D02*
X114797857Y-82788666D01*
X114797857Y-82788666D02*
X114721666Y-82826761D01*
X114721666Y-82826761D02*
X114683571Y-82864857D01*
X114683571Y-82864857D02*
X114645476Y-82941047D01*
X114645476Y-82941047D02*
X114645476Y-83131523D01*
X114645476Y-83131523D02*
X114683571Y-83207714D01*
X114683571Y-83207714D02*
X114721666Y-83245809D01*
X114721666Y-83245809D02*
X114797857Y-83283904D01*
X114797857Y-83283904D02*
X115026428Y-83283904D01*
X115026428Y-83283904D02*
X115102619Y-83245809D01*
X115102619Y-83245809D02*
X115140714Y-83207714D01*
%TO.C,D43*%
X50058904Y-93773571D02*
X49258904Y-93773571D01*
X49258904Y-93773571D02*
X49258904Y-93964047D01*
X49258904Y-93964047D02*
X49297000Y-94078333D01*
X49297000Y-94078333D02*
X49373190Y-94154523D01*
X49373190Y-94154523D02*
X49449380Y-94192618D01*
X49449380Y-94192618D02*
X49601761Y-94230714D01*
X49601761Y-94230714D02*
X49716047Y-94230714D01*
X49716047Y-94230714D02*
X49868428Y-94192618D01*
X49868428Y-94192618D02*
X49944619Y-94154523D01*
X49944619Y-94154523D02*
X50020809Y-94078333D01*
X50020809Y-94078333D02*
X50058904Y-93964047D01*
X50058904Y-93964047D02*
X50058904Y-93773571D01*
X49525571Y-94916428D02*
X50058904Y-94916428D01*
X49220809Y-94725952D02*
X49792238Y-94535475D01*
X49792238Y-94535475D02*
X49792238Y-95030714D01*
X49258904Y-95259285D02*
X49258904Y-95754523D01*
X49258904Y-95754523D02*
X49563666Y-95487857D01*
X49563666Y-95487857D02*
X49563666Y-95602142D01*
X49563666Y-95602142D02*
X49601761Y-95678333D01*
X49601761Y-95678333D02*
X49639857Y-95716428D01*
X49639857Y-95716428D02*
X49716047Y-95754523D01*
X49716047Y-95754523D02*
X49906523Y-95754523D01*
X49906523Y-95754523D02*
X49982714Y-95716428D01*
X49982714Y-95716428D02*
X50020809Y-95678333D01*
X50020809Y-95678333D02*
X50058904Y-95602142D01*
X50058904Y-95602142D02*
X50058904Y-95373571D01*
X50058904Y-95373571D02*
X50020809Y-95297380D01*
X50020809Y-95297380D02*
X49982714Y-95259285D01*
%TO.C,D60*%
X154771428Y-121033904D02*
X154771428Y-120233904D01*
X154771428Y-120233904D02*
X154580952Y-120233904D01*
X154580952Y-120233904D02*
X154466666Y-120272000D01*
X154466666Y-120272000D02*
X154390476Y-120348190D01*
X154390476Y-120348190D02*
X154352381Y-120424380D01*
X154352381Y-120424380D02*
X154314285Y-120576761D01*
X154314285Y-120576761D02*
X154314285Y-120691047D01*
X154314285Y-120691047D02*
X154352381Y-120843428D01*
X154352381Y-120843428D02*
X154390476Y-120919619D01*
X154390476Y-120919619D02*
X154466666Y-120995809D01*
X154466666Y-120995809D02*
X154580952Y-121033904D01*
X154580952Y-121033904D02*
X154771428Y-121033904D01*
X153628571Y-120233904D02*
X153780952Y-120233904D01*
X153780952Y-120233904D02*
X153857143Y-120272000D01*
X153857143Y-120272000D02*
X153895238Y-120310095D01*
X153895238Y-120310095D02*
X153971428Y-120424380D01*
X153971428Y-120424380D02*
X154009524Y-120576761D01*
X154009524Y-120576761D02*
X154009524Y-120881523D01*
X154009524Y-120881523D02*
X153971428Y-120957714D01*
X153971428Y-120957714D02*
X153933333Y-120995809D01*
X153933333Y-120995809D02*
X153857143Y-121033904D01*
X153857143Y-121033904D02*
X153704762Y-121033904D01*
X153704762Y-121033904D02*
X153628571Y-120995809D01*
X153628571Y-120995809D02*
X153590476Y-120957714D01*
X153590476Y-120957714D02*
X153552381Y-120881523D01*
X153552381Y-120881523D02*
X153552381Y-120691047D01*
X153552381Y-120691047D02*
X153590476Y-120614857D01*
X153590476Y-120614857D02*
X153628571Y-120576761D01*
X153628571Y-120576761D02*
X153704762Y-120538666D01*
X153704762Y-120538666D02*
X153857143Y-120538666D01*
X153857143Y-120538666D02*
X153933333Y-120576761D01*
X153933333Y-120576761D02*
X153971428Y-120614857D01*
X153971428Y-120614857D02*
X154009524Y-120691047D01*
X153057142Y-120233904D02*
X152980952Y-120233904D01*
X152980952Y-120233904D02*
X152904761Y-120272000D01*
X152904761Y-120272000D02*
X152866666Y-120310095D01*
X152866666Y-120310095D02*
X152828571Y-120386285D01*
X152828571Y-120386285D02*
X152790476Y-120538666D01*
X152790476Y-120538666D02*
X152790476Y-120729142D01*
X152790476Y-120729142D02*
X152828571Y-120881523D01*
X152828571Y-120881523D02*
X152866666Y-120957714D01*
X152866666Y-120957714D02*
X152904761Y-120995809D01*
X152904761Y-120995809D02*
X152980952Y-121033904D01*
X152980952Y-121033904D02*
X153057142Y-121033904D01*
X153057142Y-121033904D02*
X153133333Y-120995809D01*
X153133333Y-120995809D02*
X153171428Y-120957714D01*
X153171428Y-120957714D02*
X153209523Y-120881523D01*
X153209523Y-120881523D02*
X153247619Y-120729142D01*
X153247619Y-120729142D02*
X153247619Y-120538666D01*
X153247619Y-120538666D02*
X153209523Y-120386285D01*
X153209523Y-120386285D02*
X153171428Y-120310095D01*
X153171428Y-120310095D02*
X153133333Y-120272000D01*
X153133333Y-120272000D02*
X153057142Y-120233904D01*
%TO.C,D18*%
X97686428Y-64153904D02*
X97686428Y-63353904D01*
X97686428Y-63353904D02*
X97495952Y-63353904D01*
X97495952Y-63353904D02*
X97381666Y-63392000D01*
X97381666Y-63392000D02*
X97305476Y-63468190D01*
X97305476Y-63468190D02*
X97267381Y-63544380D01*
X97267381Y-63544380D02*
X97229285Y-63696761D01*
X97229285Y-63696761D02*
X97229285Y-63811047D01*
X97229285Y-63811047D02*
X97267381Y-63963428D01*
X97267381Y-63963428D02*
X97305476Y-64039619D01*
X97305476Y-64039619D02*
X97381666Y-64115809D01*
X97381666Y-64115809D02*
X97495952Y-64153904D01*
X97495952Y-64153904D02*
X97686428Y-64153904D01*
X96467381Y-64153904D02*
X96924524Y-64153904D01*
X96695952Y-64153904D02*
X96695952Y-63353904D01*
X96695952Y-63353904D02*
X96772143Y-63468190D01*
X96772143Y-63468190D02*
X96848333Y-63544380D01*
X96848333Y-63544380D02*
X96924524Y-63582476D01*
X96010238Y-63696761D02*
X96086428Y-63658666D01*
X96086428Y-63658666D02*
X96124523Y-63620571D01*
X96124523Y-63620571D02*
X96162619Y-63544380D01*
X96162619Y-63544380D02*
X96162619Y-63506285D01*
X96162619Y-63506285D02*
X96124523Y-63430095D01*
X96124523Y-63430095D02*
X96086428Y-63392000D01*
X96086428Y-63392000D02*
X96010238Y-63353904D01*
X96010238Y-63353904D02*
X95857857Y-63353904D01*
X95857857Y-63353904D02*
X95781666Y-63392000D01*
X95781666Y-63392000D02*
X95743571Y-63430095D01*
X95743571Y-63430095D02*
X95705476Y-63506285D01*
X95705476Y-63506285D02*
X95705476Y-63544380D01*
X95705476Y-63544380D02*
X95743571Y-63620571D01*
X95743571Y-63620571D02*
X95781666Y-63658666D01*
X95781666Y-63658666D02*
X95857857Y-63696761D01*
X95857857Y-63696761D02*
X96010238Y-63696761D01*
X96010238Y-63696761D02*
X96086428Y-63734857D01*
X96086428Y-63734857D02*
X96124523Y-63772952D01*
X96124523Y-63772952D02*
X96162619Y-63849142D01*
X96162619Y-63849142D02*
X96162619Y-64001523D01*
X96162619Y-64001523D02*
X96124523Y-64077714D01*
X96124523Y-64077714D02*
X96086428Y-64115809D01*
X96086428Y-64115809D02*
X96010238Y-64153904D01*
X96010238Y-64153904D02*
X95857857Y-64153904D01*
X95857857Y-64153904D02*
X95781666Y-64115809D01*
X95781666Y-64115809D02*
X95743571Y-64077714D01*
X95743571Y-64077714D02*
X95705476Y-64001523D01*
X95705476Y-64001523D02*
X95705476Y-63849142D01*
X95705476Y-63849142D02*
X95743571Y-63772952D01*
X95743571Y-63772952D02*
X95781666Y-63734857D01*
X95781666Y-63734857D02*
X95857857Y-63696761D01*
%TO.C,D16*%
X59486428Y-64153904D02*
X59486428Y-63353904D01*
X59486428Y-63353904D02*
X59295952Y-63353904D01*
X59295952Y-63353904D02*
X59181666Y-63392000D01*
X59181666Y-63392000D02*
X59105476Y-63468190D01*
X59105476Y-63468190D02*
X59067381Y-63544380D01*
X59067381Y-63544380D02*
X59029285Y-63696761D01*
X59029285Y-63696761D02*
X59029285Y-63811047D01*
X59029285Y-63811047D02*
X59067381Y-63963428D01*
X59067381Y-63963428D02*
X59105476Y-64039619D01*
X59105476Y-64039619D02*
X59181666Y-64115809D01*
X59181666Y-64115809D02*
X59295952Y-64153904D01*
X59295952Y-64153904D02*
X59486428Y-64153904D01*
X58267381Y-64153904D02*
X58724524Y-64153904D01*
X58495952Y-64153904D02*
X58495952Y-63353904D01*
X58495952Y-63353904D02*
X58572143Y-63468190D01*
X58572143Y-63468190D02*
X58648333Y-63544380D01*
X58648333Y-63544380D02*
X58724524Y-63582476D01*
X57581666Y-63353904D02*
X57734047Y-63353904D01*
X57734047Y-63353904D02*
X57810238Y-63392000D01*
X57810238Y-63392000D02*
X57848333Y-63430095D01*
X57848333Y-63430095D02*
X57924523Y-63544380D01*
X57924523Y-63544380D02*
X57962619Y-63696761D01*
X57962619Y-63696761D02*
X57962619Y-64001523D01*
X57962619Y-64001523D02*
X57924523Y-64077714D01*
X57924523Y-64077714D02*
X57886428Y-64115809D01*
X57886428Y-64115809D02*
X57810238Y-64153904D01*
X57810238Y-64153904D02*
X57657857Y-64153904D01*
X57657857Y-64153904D02*
X57581666Y-64115809D01*
X57581666Y-64115809D02*
X57543571Y-64077714D01*
X57543571Y-64077714D02*
X57505476Y-64001523D01*
X57505476Y-64001523D02*
X57505476Y-63811047D01*
X57505476Y-63811047D02*
X57543571Y-63734857D01*
X57543571Y-63734857D02*
X57581666Y-63696761D01*
X57581666Y-63696761D02*
X57657857Y-63658666D01*
X57657857Y-63658666D02*
X57810238Y-63658666D01*
X57810238Y-63658666D02*
X57886428Y-63696761D01*
X57886428Y-63696761D02*
X57924523Y-63734857D01*
X57924523Y-63734857D02*
X57962619Y-63811047D01*
%TO.C,D6*%
X145203904Y-40354324D02*
X144403904Y-40354324D01*
X144403904Y-40354324D02*
X144403904Y-40544800D01*
X144403904Y-40544800D02*
X144442000Y-40659086D01*
X144442000Y-40659086D02*
X144518190Y-40735276D01*
X144518190Y-40735276D02*
X144594380Y-40773371D01*
X144594380Y-40773371D02*
X144746761Y-40811467D01*
X144746761Y-40811467D02*
X144861047Y-40811467D01*
X144861047Y-40811467D02*
X145013428Y-40773371D01*
X145013428Y-40773371D02*
X145089619Y-40735276D01*
X145089619Y-40735276D02*
X145165809Y-40659086D01*
X145165809Y-40659086D02*
X145203904Y-40544800D01*
X145203904Y-40544800D02*
X145203904Y-40354324D01*
X144403904Y-41497181D02*
X144403904Y-41344800D01*
X144403904Y-41344800D02*
X144442000Y-41268609D01*
X144442000Y-41268609D02*
X144480095Y-41230514D01*
X144480095Y-41230514D02*
X144594380Y-41154324D01*
X144594380Y-41154324D02*
X144746761Y-41116228D01*
X144746761Y-41116228D02*
X145051523Y-41116228D01*
X145051523Y-41116228D02*
X145127714Y-41154324D01*
X145127714Y-41154324D02*
X145165809Y-41192419D01*
X145165809Y-41192419D02*
X145203904Y-41268609D01*
X145203904Y-41268609D02*
X145203904Y-41420990D01*
X145203904Y-41420990D02*
X145165809Y-41497181D01*
X145165809Y-41497181D02*
X145127714Y-41535276D01*
X145127714Y-41535276D02*
X145051523Y-41573371D01*
X145051523Y-41573371D02*
X144861047Y-41573371D01*
X144861047Y-41573371D02*
X144784857Y-41535276D01*
X144784857Y-41535276D02*
X144746761Y-41497181D01*
X144746761Y-41497181D02*
X144708666Y-41420990D01*
X144708666Y-41420990D02*
X144708666Y-41268609D01*
X144708666Y-41268609D02*
X144746761Y-41192419D01*
X144746761Y-41192419D02*
X144784857Y-41154324D01*
X144784857Y-41154324D02*
X144861047Y-41116228D01*
%TO.C,D17*%
X78636428Y-64153904D02*
X78636428Y-63353904D01*
X78636428Y-63353904D02*
X78445952Y-63353904D01*
X78445952Y-63353904D02*
X78331666Y-63392000D01*
X78331666Y-63392000D02*
X78255476Y-63468190D01*
X78255476Y-63468190D02*
X78217381Y-63544380D01*
X78217381Y-63544380D02*
X78179285Y-63696761D01*
X78179285Y-63696761D02*
X78179285Y-63811047D01*
X78179285Y-63811047D02*
X78217381Y-63963428D01*
X78217381Y-63963428D02*
X78255476Y-64039619D01*
X78255476Y-64039619D02*
X78331666Y-64115809D01*
X78331666Y-64115809D02*
X78445952Y-64153904D01*
X78445952Y-64153904D02*
X78636428Y-64153904D01*
X77417381Y-64153904D02*
X77874524Y-64153904D01*
X77645952Y-64153904D02*
X77645952Y-63353904D01*
X77645952Y-63353904D02*
X77722143Y-63468190D01*
X77722143Y-63468190D02*
X77798333Y-63544380D01*
X77798333Y-63544380D02*
X77874524Y-63582476D01*
X77150714Y-63353904D02*
X76617380Y-63353904D01*
X76617380Y-63353904D02*
X76960238Y-64153904D01*
D11*
%TO.C,J1*%
X147485854Y-26267380D02*
X146914426Y-26267380D01*
X147200140Y-27267380D02*
X147200140Y-26267380D01*
X146009664Y-27267380D02*
X146342997Y-26791190D01*
X146581092Y-27267380D02*
X146581092Y-26267380D01*
X146581092Y-26267380D02*
X146200140Y-26267380D01*
X146200140Y-26267380D02*
X146104902Y-26315000D01*
X146104902Y-26315000D02*
X146057283Y-26362619D01*
X146057283Y-26362619D02*
X146009664Y-26457857D01*
X146009664Y-26457857D02*
X146009664Y-26600714D01*
X146009664Y-26600714D02*
X146057283Y-26695952D01*
X146057283Y-26695952D02*
X146104902Y-26743571D01*
X146104902Y-26743571D02*
X146200140Y-26791190D01*
X146200140Y-26791190D02*
X146581092Y-26791190D01*
X145009664Y-27267380D02*
X145342997Y-26791190D01*
X145581092Y-27267380D02*
X145581092Y-26267380D01*
X145581092Y-26267380D02*
X145200140Y-26267380D01*
X145200140Y-26267380D02*
X145104902Y-26315000D01*
X145104902Y-26315000D02*
X145057283Y-26362619D01*
X145057283Y-26362619D02*
X145009664Y-26457857D01*
X145009664Y-26457857D02*
X145009664Y-26600714D01*
X145009664Y-26600714D02*
X145057283Y-26695952D01*
X145057283Y-26695952D02*
X145104902Y-26743571D01*
X145104902Y-26743571D02*
X145200140Y-26791190D01*
X145200140Y-26791190D02*
X145581092Y-26791190D01*
X144628711Y-27219761D02*
X144485854Y-27267380D01*
X144485854Y-27267380D02*
X144247759Y-27267380D01*
X144247759Y-27267380D02*
X144152521Y-27219761D01*
X144152521Y-27219761D02*
X144104902Y-27172142D01*
X144104902Y-27172142D02*
X144057283Y-27076904D01*
X144057283Y-27076904D02*
X144057283Y-26981666D01*
X144057283Y-26981666D02*
X144104902Y-26886428D01*
X144104902Y-26886428D02*
X144152521Y-26838809D01*
X144152521Y-26838809D02*
X144247759Y-26791190D01*
X144247759Y-26791190D02*
X144438235Y-26743571D01*
X144438235Y-26743571D02*
X144533473Y-26695952D01*
X144533473Y-26695952D02*
X144581092Y-26648333D01*
X144581092Y-26648333D02*
X144628711Y-26553095D01*
X144628711Y-26553095D02*
X144628711Y-26457857D01*
X144628711Y-26457857D02*
X144581092Y-26362619D01*
X144581092Y-26362619D02*
X144533473Y-26315000D01*
X144533473Y-26315000D02*
X144438235Y-26267380D01*
X144438235Y-26267380D02*
X144200140Y-26267380D01*
X144200140Y-26267380D02*
X144057283Y-26315000D01*
D12*
%TO.C,D21*%
X154771428Y-64153904D02*
X154771428Y-63353904D01*
X154771428Y-63353904D02*
X154580952Y-63353904D01*
X154580952Y-63353904D02*
X154466666Y-63392000D01*
X154466666Y-63392000D02*
X154390476Y-63468190D01*
X154390476Y-63468190D02*
X154352381Y-63544380D01*
X154352381Y-63544380D02*
X154314285Y-63696761D01*
X154314285Y-63696761D02*
X154314285Y-63811047D01*
X154314285Y-63811047D02*
X154352381Y-63963428D01*
X154352381Y-63963428D02*
X154390476Y-64039619D01*
X154390476Y-64039619D02*
X154466666Y-64115809D01*
X154466666Y-64115809D02*
X154580952Y-64153904D01*
X154580952Y-64153904D02*
X154771428Y-64153904D01*
X154009524Y-63430095D02*
X153971428Y-63392000D01*
X153971428Y-63392000D02*
X153895238Y-63353904D01*
X153895238Y-63353904D02*
X153704762Y-63353904D01*
X153704762Y-63353904D02*
X153628571Y-63392000D01*
X153628571Y-63392000D02*
X153590476Y-63430095D01*
X153590476Y-63430095D02*
X153552381Y-63506285D01*
X153552381Y-63506285D02*
X153552381Y-63582476D01*
X153552381Y-63582476D02*
X153590476Y-63696761D01*
X153590476Y-63696761D02*
X154047619Y-64153904D01*
X154047619Y-64153904D02*
X153552381Y-64153904D01*
X152790476Y-64153904D02*
X153247619Y-64153904D01*
X153019047Y-64153904D02*
X153019047Y-63353904D01*
X153019047Y-63353904D02*
X153095238Y-63468190D01*
X153095238Y-63468190D02*
X153171428Y-63544380D01*
X153171428Y-63544380D02*
X153247619Y-63582476D01*
D11*
%TO.C,SW34*%
X134524523Y-71379761D02*
X134381666Y-71427380D01*
X134381666Y-71427380D02*
X134143571Y-71427380D01*
X134143571Y-71427380D02*
X134048333Y-71379761D01*
X134048333Y-71379761D02*
X134000714Y-71332142D01*
X134000714Y-71332142D02*
X133953095Y-71236904D01*
X133953095Y-71236904D02*
X133953095Y-71141666D01*
X133953095Y-71141666D02*
X134000714Y-71046428D01*
X134000714Y-71046428D02*
X134048333Y-70998809D01*
X134048333Y-70998809D02*
X134143571Y-70951190D01*
X134143571Y-70951190D02*
X134334047Y-70903571D01*
X134334047Y-70903571D02*
X134429285Y-70855952D01*
X134429285Y-70855952D02*
X134476904Y-70808333D01*
X134476904Y-70808333D02*
X134524523Y-70713095D01*
X134524523Y-70713095D02*
X134524523Y-70617857D01*
X134524523Y-70617857D02*
X134476904Y-70522619D01*
X134476904Y-70522619D02*
X134429285Y-70475000D01*
X134429285Y-70475000D02*
X134334047Y-70427380D01*
X134334047Y-70427380D02*
X134095952Y-70427380D01*
X134095952Y-70427380D02*
X133953095Y-70475000D01*
X133619761Y-70427380D02*
X133381666Y-71427380D01*
X133381666Y-71427380D02*
X133191190Y-70713095D01*
X133191190Y-70713095D02*
X133000714Y-71427380D01*
X133000714Y-71427380D02*
X132762619Y-70427380D01*
X132476904Y-70427380D02*
X131857857Y-70427380D01*
X131857857Y-70427380D02*
X132191190Y-70808333D01*
X132191190Y-70808333D02*
X132048333Y-70808333D01*
X132048333Y-70808333D02*
X131953095Y-70855952D01*
X131953095Y-70855952D02*
X131905476Y-70903571D01*
X131905476Y-70903571D02*
X131857857Y-70998809D01*
X131857857Y-70998809D02*
X131857857Y-71236904D01*
X131857857Y-71236904D02*
X131905476Y-71332142D01*
X131905476Y-71332142D02*
X131953095Y-71379761D01*
X131953095Y-71379761D02*
X132048333Y-71427380D01*
X132048333Y-71427380D02*
X132334047Y-71427380D01*
X132334047Y-71427380D02*
X132429285Y-71379761D01*
X132429285Y-71379761D02*
X132476904Y-71332142D01*
X131000714Y-70760714D02*
X131000714Y-71427380D01*
X131238809Y-70379761D02*
X131476904Y-71094047D01*
X131476904Y-71094047D02*
X130857857Y-71094047D01*
%TO.C,SW15*%
X39274523Y-52329761D02*
X39131666Y-52377380D01*
X39131666Y-52377380D02*
X38893571Y-52377380D01*
X38893571Y-52377380D02*
X38798333Y-52329761D01*
X38798333Y-52329761D02*
X38750714Y-52282142D01*
X38750714Y-52282142D02*
X38703095Y-52186904D01*
X38703095Y-52186904D02*
X38703095Y-52091666D01*
X38703095Y-52091666D02*
X38750714Y-51996428D01*
X38750714Y-51996428D02*
X38798333Y-51948809D01*
X38798333Y-51948809D02*
X38893571Y-51901190D01*
X38893571Y-51901190D02*
X39084047Y-51853571D01*
X39084047Y-51853571D02*
X39179285Y-51805952D01*
X39179285Y-51805952D02*
X39226904Y-51758333D01*
X39226904Y-51758333D02*
X39274523Y-51663095D01*
X39274523Y-51663095D02*
X39274523Y-51567857D01*
X39274523Y-51567857D02*
X39226904Y-51472619D01*
X39226904Y-51472619D02*
X39179285Y-51425000D01*
X39179285Y-51425000D02*
X39084047Y-51377380D01*
X39084047Y-51377380D02*
X38845952Y-51377380D01*
X38845952Y-51377380D02*
X38703095Y-51425000D01*
X38369761Y-51377380D02*
X38131666Y-52377380D01*
X38131666Y-52377380D02*
X37941190Y-51663095D01*
X37941190Y-51663095D02*
X37750714Y-52377380D01*
X37750714Y-52377380D02*
X37512619Y-51377380D01*
X36607857Y-52377380D02*
X37179285Y-52377380D01*
X36893571Y-52377380D02*
X36893571Y-51377380D01*
X36893571Y-51377380D02*
X36988809Y-51520238D01*
X36988809Y-51520238D02*
X37084047Y-51615476D01*
X37084047Y-51615476D02*
X37179285Y-51663095D01*
X35703095Y-51377380D02*
X36179285Y-51377380D01*
X36179285Y-51377380D02*
X36226904Y-51853571D01*
X36226904Y-51853571D02*
X36179285Y-51805952D01*
X36179285Y-51805952D02*
X36084047Y-51758333D01*
X36084047Y-51758333D02*
X35845952Y-51758333D01*
X35845952Y-51758333D02*
X35750714Y-51805952D01*
X35750714Y-51805952D02*
X35703095Y-51853571D01*
X35703095Y-51853571D02*
X35655476Y-51948809D01*
X35655476Y-51948809D02*
X35655476Y-52186904D01*
X35655476Y-52186904D02*
X35703095Y-52282142D01*
X35703095Y-52282142D02*
X35750714Y-52329761D01*
X35750714Y-52329761D02*
X35845952Y-52377380D01*
X35845952Y-52377380D02*
X36084047Y-52377380D01*
X36084047Y-52377380D02*
X36179285Y-52329761D01*
X36179285Y-52329761D02*
X36226904Y-52282142D01*
%TO.C,SW45*%
X77374523Y-90448161D02*
X77231666Y-90495780D01*
X77231666Y-90495780D02*
X76993571Y-90495780D01*
X76993571Y-90495780D02*
X76898333Y-90448161D01*
X76898333Y-90448161D02*
X76850714Y-90400542D01*
X76850714Y-90400542D02*
X76803095Y-90305304D01*
X76803095Y-90305304D02*
X76803095Y-90210066D01*
X76803095Y-90210066D02*
X76850714Y-90114828D01*
X76850714Y-90114828D02*
X76898333Y-90067209D01*
X76898333Y-90067209D02*
X76993571Y-90019590D01*
X76993571Y-90019590D02*
X77184047Y-89971971D01*
X77184047Y-89971971D02*
X77279285Y-89924352D01*
X77279285Y-89924352D02*
X77326904Y-89876733D01*
X77326904Y-89876733D02*
X77374523Y-89781495D01*
X77374523Y-89781495D02*
X77374523Y-89686257D01*
X77374523Y-89686257D02*
X77326904Y-89591019D01*
X77326904Y-89591019D02*
X77279285Y-89543400D01*
X77279285Y-89543400D02*
X77184047Y-89495780D01*
X77184047Y-89495780D02*
X76945952Y-89495780D01*
X76945952Y-89495780D02*
X76803095Y-89543400D01*
X76469761Y-89495780D02*
X76231666Y-90495780D01*
X76231666Y-90495780D02*
X76041190Y-89781495D01*
X76041190Y-89781495D02*
X75850714Y-90495780D01*
X75850714Y-90495780D02*
X75612619Y-89495780D01*
X74803095Y-89829114D02*
X74803095Y-90495780D01*
X75041190Y-89448161D02*
X75279285Y-90162447D01*
X75279285Y-90162447D02*
X74660238Y-90162447D01*
X73803095Y-89495780D02*
X74279285Y-89495780D01*
X74279285Y-89495780D02*
X74326904Y-89971971D01*
X74326904Y-89971971D02*
X74279285Y-89924352D01*
X74279285Y-89924352D02*
X74184047Y-89876733D01*
X74184047Y-89876733D02*
X73945952Y-89876733D01*
X73945952Y-89876733D02*
X73850714Y-89924352D01*
X73850714Y-89924352D02*
X73803095Y-89971971D01*
X73803095Y-89971971D02*
X73755476Y-90067209D01*
X73755476Y-90067209D02*
X73755476Y-90305304D01*
X73755476Y-90305304D02*
X73803095Y-90400542D01*
X73803095Y-90400542D02*
X73850714Y-90448161D01*
X73850714Y-90448161D02*
X73945952Y-90495780D01*
X73945952Y-90495780D02*
X74184047Y-90495780D01*
X74184047Y-90495780D02*
X74279285Y-90448161D01*
X74279285Y-90448161D02*
X74326904Y-90400542D01*
%TO.C,SW57*%
X96484523Y-109479761D02*
X96341666Y-109527380D01*
X96341666Y-109527380D02*
X96103571Y-109527380D01*
X96103571Y-109527380D02*
X96008333Y-109479761D01*
X96008333Y-109479761D02*
X95960714Y-109432142D01*
X95960714Y-109432142D02*
X95913095Y-109336904D01*
X95913095Y-109336904D02*
X95913095Y-109241666D01*
X95913095Y-109241666D02*
X95960714Y-109146428D01*
X95960714Y-109146428D02*
X96008333Y-109098809D01*
X96008333Y-109098809D02*
X96103571Y-109051190D01*
X96103571Y-109051190D02*
X96294047Y-109003571D01*
X96294047Y-109003571D02*
X96389285Y-108955952D01*
X96389285Y-108955952D02*
X96436904Y-108908333D01*
X96436904Y-108908333D02*
X96484523Y-108813095D01*
X96484523Y-108813095D02*
X96484523Y-108717857D01*
X96484523Y-108717857D02*
X96436904Y-108622619D01*
X96436904Y-108622619D02*
X96389285Y-108575000D01*
X96389285Y-108575000D02*
X96294047Y-108527380D01*
X96294047Y-108527380D02*
X96055952Y-108527380D01*
X96055952Y-108527380D02*
X95913095Y-108575000D01*
X95579761Y-108527380D02*
X95341666Y-109527380D01*
X95341666Y-109527380D02*
X95151190Y-108813095D01*
X95151190Y-108813095D02*
X94960714Y-109527380D01*
X94960714Y-109527380D02*
X94722619Y-108527380D01*
X93865476Y-108527380D02*
X94341666Y-108527380D01*
X94341666Y-108527380D02*
X94389285Y-109003571D01*
X94389285Y-109003571D02*
X94341666Y-108955952D01*
X94341666Y-108955952D02*
X94246428Y-108908333D01*
X94246428Y-108908333D02*
X94008333Y-108908333D01*
X94008333Y-108908333D02*
X93913095Y-108955952D01*
X93913095Y-108955952D02*
X93865476Y-109003571D01*
X93865476Y-109003571D02*
X93817857Y-109098809D01*
X93817857Y-109098809D02*
X93817857Y-109336904D01*
X93817857Y-109336904D02*
X93865476Y-109432142D01*
X93865476Y-109432142D02*
X93913095Y-109479761D01*
X93913095Y-109479761D02*
X94008333Y-109527380D01*
X94008333Y-109527380D02*
X94246428Y-109527380D01*
X94246428Y-109527380D02*
X94341666Y-109479761D01*
X94341666Y-109479761D02*
X94389285Y-109432142D01*
X93484523Y-108527380D02*
X92817857Y-108527380D01*
X92817857Y-108527380D02*
X93246428Y-109527380D01*
%TO.C,SW1*%
X38798332Y-33279761D02*
X38655475Y-33327380D01*
X38655475Y-33327380D02*
X38417380Y-33327380D01*
X38417380Y-33327380D02*
X38322142Y-33279761D01*
X38322142Y-33279761D02*
X38274523Y-33232142D01*
X38274523Y-33232142D02*
X38226904Y-33136904D01*
X38226904Y-33136904D02*
X38226904Y-33041666D01*
X38226904Y-33041666D02*
X38274523Y-32946428D01*
X38274523Y-32946428D02*
X38322142Y-32898809D01*
X38322142Y-32898809D02*
X38417380Y-32851190D01*
X38417380Y-32851190D02*
X38607856Y-32803571D01*
X38607856Y-32803571D02*
X38703094Y-32755952D01*
X38703094Y-32755952D02*
X38750713Y-32708333D01*
X38750713Y-32708333D02*
X38798332Y-32613095D01*
X38798332Y-32613095D02*
X38798332Y-32517857D01*
X38798332Y-32517857D02*
X38750713Y-32422619D01*
X38750713Y-32422619D02*
X38703094Y-32375000D01*
X38703094Y-32375000D02*
X38607856Y-32327380D01*
X38607856Y-32327380D02*
X38369761Y-32327380D01*
X38369761Y-32327380D02*
X38226904Y-32375000D01*
X37893570Y-32327380D02*
X37655475Y-33327380D01*
X37655475Y-33327380D02*
X37464999Y-32613095D01*
X37464999Y-32613095D02*
X37274523Y-33327380D01*
X37274523Y-33327380D02*
X37036428Y-32327380D01*
X36131666Y-33327380D02*
X36703094Y-33327380D01*
X36417380Y-33327380D02*
X36417380Y-32327380D01*
X36417380Y-32327380D02*
X36512618Y-32470238D01*
X36512618Y-32470238D02*
X36607856Y-32565476D01*
X36607856Y-32565476D02*
X36703094Y-32613095D01*
%TO.C,SW58*%
X115474523Y-109479761D02*
X115331666Y-109527380D01*
X115331666Y-109527380D02*
X115093571Y-109527380D01*
X115093571Y-109527380D02*
X114998333Y-109479761D01*
X114998333Y-109479761D02*
X114950714Y-109432142D01*
X114950714Y-109432142D02*
X114903095Y-109336904D01*
X114903095Y-109336904D02*
X114903095Y-109241666D01*
X114903095Y-109241666D02*
X114950714Y-109146428D01*
X114950714Y-109146428D02*
X114998333Y-109098809D01*
X114998333Y-109098809D02*
X115093571Y-109051190D01*
X115093571Y-109051190D02*
X115284047Y-109003571D01*
X115284047Y-109003571D02*
X115379285Y-108955952D01*
X115379285Y-108955952D02*
X115426904Y-108908333D01*
X115426904Y-108908333D02*
X115474523Y-108813095D01*
X115474523Y-108813095D02*
X115474523Y-108717857D01*
X115474523Y-108717857D02*
X115426904Y-108622619D01*
X115426904Y-108622619D02*
X115379285Y-108575000D01*
X115379285Y-108575000D02*
X115284047Y-108527380D01*
X115284047Y-108527380D02*
X115045952Y-108527380D01*
X115045952Y-108527380D02*
X114903095Y-108575000D01*
X114569761Y-108527380D02*
X114331666Y-109527380D01*
X114331666Y-109527380D02*
X114141190Y-108813095D01*
X114141190Y-108813095D02*
X113950714Y-109527380D01*
X113950714Y-109527380D02*
X113712619Y-108527380D01*
X112855476Y-108527380D02*
X113331666Y-108527380D01*
X113331666Y-108527380D02*
X113379285Y-109003571D01*
X113379285Y-109003571D02*
X113331666Y-108955952D01*
X113331666Y-108955952D02*
X113236428Y-108908333D01*
X113236428Y-108908333D02*
X112998333Y-108908333D01*
X112998333Y-108908333D02*
X112903095Y-108955952D01*
X112903095Y-108955952D02*
X112855476Y-109003571D01*
X112855476Y-109003571D02*
X112807857Y-109098809D01*
X112807857Y-109098809D02*
X112807857Y-109336904D01*
X112807857Y-109336904D02*
X112855476Y-109432142D01*
X112855476Y-109432142D02*
X112903095Y-109479761D01*
X112903095Y-109479761D02*
X112998333Y-109527380D01*
X112998333Y-109527380D02*
X113236428Y-109527380D01*
X113236428Y-109527380D02*
X113331666Y-109479761D01*
X113331666Y-109479761D02*
X113379285Y-109432142D01*
X112236428Y-108955952D02*
X112331666Y-108908333D01*
X112331666Y-108908333D02*
X112379285Y-108860714D01*
X112379285Y-108860714D02*
X112426904Y-108765476D01*
X112426904Y-108765476D02*
X112426904Y-108717857D01*
X112426904Y-108717857D02*
X112379285Y-108622619D01*
X112379285Y-108622619D02*
X112331666Y-108575000D01*
X112331666Y-108575000D02*
X112236428Y-108527380D01*
X112236428Y-108527380D02*
X112045952Y-108527380D01*
X112045952Y-108527380D02*
X111950714Y-108575000D01*
X111950714Y-108575000D02*
X111903095Y-108622619D01*
X111903095Y-108622619D02*
X111855476Y-108717857D01*
X111855476Y-108717857D02*
X111855476Y-108765476D01*
X111855476Y-108765476D02*
X111903095Y-108860714D01*
X111903095Y-108860714D02*
X111950714Y-108908333D01*
X111950714Y-108908333D02*
X112045952Y-108955952D01*
X112045952Y-108955952D02*
X112236428Y-108955952D01*
X112236428Y-108955952D02*
X112331666Y-109003571D01*
X112331666Y-109003571D02*
X112379285Y-109051190D01*
X112379285Y-109051190D02*
X112426904Y-109146428D01*
X112426904Y-109146428D02*
X112426904Y-109336904D01*
X112426904Y-109336904D02*
X112379285Y-109432142D01*
X112379285Y-109432142D02*
X112331666Y-109479761D01*
X112331666Y-109479761D02*
X112236428Y-109527380D01*
X112236428Y-109527380D02*
X112045952Y-109527380D01*
X112045952Y-109527380D02*
X111950714Y-109479761D01*
X111950714Y-109479761D02*
X111903095Y-109432142D01*
X111903095Y-109432142D02*
X111855476Y-109336904D01*
X111855476Y-109336904D02*
X111855476Y-109146428D01*
X111855476Y-109146428D02*
X111903095Y-109051190D01*
X111903095Y-109051190D02*
X111950714Y-109003571D01*
X111950714Y-109003571D02*
X112045952Y-108955952D01*
%TO.C,SW16*%
X58254523Y-52329761D02*
X58111666Y-52377380D01*
X58111666Y-52377380D02*
X57873571Y-52377380D01*
X57873571Y-52377380D02*
X57778333Y-52329761D01*
X57778333Y-52329761D02*
X57730714Y-52282142D01*
X57730714Y-52282142D02*
X57683095Y-52186904D01*
X57683095Y-52186904D02*
X57683095Y-52091666D01*
X57683095Y-52091666D02*
X57730714Y-51996428D01*
X57730714Y-51996428D02*
X57778333Y-51948809D01*
X57778333Y-51948809D02*
X57873571Y-51901190D01*
X57873571Y-51901190D02*
X58064047Y-51853571D01*
X58064047Y-51853571D02*
X58159285Y-51805952D01*
X58159285Y-51805952D02*
X58206904Y-51758333D01*
X58206904Y-51758333D02*
X58254523Y-51663095D01*
X58254523Y-51663095D02*
X58254523Y-51567857D01*
X58254523Y-51567857D02*
X58206904Y-51472619D01*
X58206904Y-51472619D02*
X58159285Y-51425000D01*
X58159285Y-51425000D02*
X58064047Y-51377380D01*
X58064047Y-51377380D02*
X57825952Y-51377380D01*
X57825952Y-51377380D02*
X57683095Y-51425000D01*
X57349761Y-51377380D02*
X57111666Y-52377380D01*
X57111666Y-52377380D02*
X56921190Y-51663095D01*
X56921190Y-51663095D02*
X56730714Y-52377380D01*
X56730714Y-52377380D02*
X56492619Y-51377380D01*
X55587857Y-52377380D02*
X56159285Y-52377380D01*
X55873571Y-52377380D02*
X55873571Y-51377380D01*
X55873571Y-51377380D02*
X55968809Y-51520238D01*
X55968809Y-51520238D02*
X56064047Y-51615476D01*
X56064047Y-51615476D02*
X56159285Y-51663095D01*
X54730714Y-51377380D02*
X54921190Y-51377380D01*
X54921190Y-51377380D02*
X55016428Y-51425000D01*
X55016428Y-51425000D02*
X55064047Y-51472619D01*
X55064047Y-51472619D02*
X55159285Y-51615476D01*
X55159285Y-51615476D02*
X55206904Y-51805952D01*
X55206904Y-51805952D02*
X55206904Y-52186904D01*
X55206904Y-52186904D02*
X55159285Y-52282142D01*
X55159285Y-52282142D02*
X55111666Y-52329761D01*
X55111666Y-52329761D02*
X55016428Y-52377380D01*
X55016428Y-52377380D02*
X54825952Y-52377380D01*
X54825952Y-52377380D02*
X54730714Y-52329761D01*
X54730714Y-52329761D02*
X54683095Y-52282142D01*
X54683095Y-52282142D02*
X54635476Y-52186904D01*
X54635476Y-52186904D02*
X54635476Y-51948809D01*
X54635476Y-51948809D02*
X54683095Y-51853571D01*
X54683095Y-51853571D02*
X54730714Y-51805952D01*
X54730714Y-51805952D02*
X54825952Y-51758333D01*
X54825952Y-51758333D02*
X55016428Y-51758333D01*
X55016428Y-51758333D02*
X55111666Y-51805952D01*
X55111666Y-51805952D02*
X55159285Y-51853571D01*
X55159285Y-51853571D02*
X55206904Y-51948809D01*
D12*
%TO.C,D58*%
X116626428Y-121033904D02*
X116626428Y-120233904D01*
X116626428Y-120233904D02*
X116435952Y-120233904D01*
X116435952Y-120233904D02*
X116321666Y-120272000D01*
X116321666Y-120272000D02*
X116245476Y-120348190D01*
X116245476Y-120348190D02*
X116207381Y-120424380D01*
X116207381Y-120424380D02*
X116169285Y-120576761D01*
X116169285Y-120576761D02*
X116169285Y-120691047D01*
X116169285Y-120691047D02*
X116207381Y-120843428D01*
X116207381Y-120843428D02*
X116245476Y-120919619D01*
X116245476Y-120919619D02*
X116321666Y-120995809D01*
X116321666Y-120995809D02*
X116435952Y-121033904D01*
X116435952Y-121033904D02*
X116626428Y-121033904D01*
X115445476Y-120233904D02*
X115826428Y-120233904D01*
X115826428Y-120233904D02*
X115864524Y-120614857D01*
X115864524Y-120614857D02*
X115826428Y-120576761D01*
X115826428Y-120576761D02*
X115750238Y-120538666D01*
X115750238Y-120538666D02*
X115559762Y-120538666D01*
X115559762Y-120538666D02*
X115483571Y-120576761D01*
X115483571Y-120576761D02*
X115445476Y-120614857D01*
X115445476Y-120614857D02*
X115407381Y-120691047D01*
X115407381Y-120691047D02*
X115407381Y-120881523D01*
X115407381Y-120881523D02*
X115445476Y-120957714D01*
X115445476Y-120957714D02*
X115483571Y-120995809D01*
X115483571Y-120995809D02*
X115559762Y-121033904D01*
X115559762Y-121033904D02*
X115750238Y-121033904D01*
X115750238Y-121033904D02*
X115826428Y-120995809D01*
X115826428Y-120995809D02*
X115864524Y-120957714D01*
X114950238Y-120576761D02*
X115026428Y-120538666D01*
X115026428Y-120538666D02*
X115064523Y-120500571D01*
X115064523Y-120500571D02*
X115102619Y-120424380D01*
X115102619Y-120424380D02*
X115102619Y-120386285D01*
X115102619Y-120386285D02*
X115064523Y-120310095D01*
X115064523Y-120310095D02*
X115026428Y-120272000D01*
X115026428Y-120272000D02*
X114950238Y-120233904D01*
X114950238Y-120233904D02*
X114797857Y-120233904D01*
X114797857Y-120233904D02*
X114721666Y-120272000D01*
X114721666Y-120272000D02*
X114683571Y-120310095D01*
X114683571Y-120310095D02*
X114645476Y-120386285D01*
X114645476Y-120386285D02*
X114645476Y-120424380D01*
X114645476Y-120424380D02*
X114683571Y-120500571D01*
X114683571Y-120500571D02*
X114721666Y-120538666D01*
X114721666Y-120538666D02*
X114797857Y-120576761D01*
X114797857Y-120576761D02*
X114950238Y-120576761D01*
X114950238Y-120576761D02*
X115026428Y-120614857D01*
X115026428Y-120614857D02*
X115064523Y-120652952D01*
X115064523Y-120652952D02*
X115102619Y-120729142D01*
X115102619Y-120729142D02*
X115102619Y-120881523D01*
X115102619Y-120881523D02*
X115064523Y-120957714D01*
X115064523Y-120957714D02*
X115026428Y-120995809D01*
X115026428Y-120995809D02*
X114950238Y-121033904D01*
X114950238Y-121033904D02*
X114797857Y-121033904D01*
X114797857Y-121033904D02*
X114721666Y-120995809D01*
X114721666Y-120995809D02*
X114683571Y-120957714D01*
X114683571Y-120957714D02*
X114645476Y-120881523D01*
X114645476Y-120881523D02*
X114645476Y-120729142D01*
X114645476Y-120729142D02*
X114683571Y-120652952D01*
X114683571Y-120652952D02*
X114721666Y-120614857D01*
X114721666Y-120614857D02*
X114797857Y-120576761D01*
%TO.C,D32*%
X97686428Y-83283904D02*
X97686428Y-82483904D01*
X97686428Y-82483904D02*
X97495952Y-82483904D01*
X97495952Y-82483904D02*
X97381666Y-82522000D01*
X97381666Y-82522000D02*
X97305476Y-82598190D01*
X97305476Y-82598190D02*
X97267381Y-82674380D01*
X97267381Y-82674380D02*
X97229285Y-82826761D01*
X97229285Y-82826761D02*
X97229285Y-82941047D01*
X97229285Y-82941047D02*
X97267381Y-83093428D01*
X97267381Y-83093428D02*
X97305476Y-83169619D01*
X97305476Y-83169619D02*
X97381666Y-83245809D01*
X97381666Y-83245809D02*
X97495952Y-83283904D01*
X97495952Y-83283904D02*
X97686428Y-83283904D01*
X96962619Y-82483904D02*
X96467381Y-82483904D01*
X96467381Y-82483904D02*
X96734047Y-82788666D01*
X96734047Y-82788666D02*
X96619762Y-82788666D01*
X96619762Y-82788666D02*
X96543571Y-82826761D01*
X96543571Y-82826761D02*
X96505476Y-82864857D01*
X96505476Y-82864857D02*
X96467381Y-82941047D01*
X96467381Y-82941047D02*
X96467381Y-83131523D01*
X96467381Y-83131523D02*
X96505476Y-83207714D01*
X96505476Y-83207714D02*
X96543571Y-83245809D01*
X96543571Y-83245809D02*
X96619762Y-83283904D01*
X96619762Y-83283904D02*
X96848333Y-83283904D01*
X96848333Y-83283904D02*
X96924524Y-83245809D01*
X96924524Y-83245809D02*
X96962619Y-83207714D01*
X96162619Y-82560095D02*
X96124523Y-82522000D01*
X96124523Y-82522000D02*
X96048333Y-82483904D01*
X96048333Y-82483904D02*
X95857857Y-82483904D01*
X95857857Y-82483904D02*
X95781666Y-82522000D01*
X95781666Y-82522000D02*
X95743571Y-82560095D01*
X95743571Y-82560095D02*
X95705476Y-82636285D01*
X95705476Y-82636285D02*
X95705476Y-82712476D01*
X95705476Y-82712476D02*
X95743571Y-82826761D01*
X95743571Y-82826761D02*
X96200714Y-83283904D01*
X96200714Y-83283904D02*
X95705476Y-83283904D01*
D11*
%TO.C,SW19*%
X115474523Y-52329761D02*
X115331666Y-52377380D01*
X115331666Y-52377380D02*
X115093571Y-52377380D01*
X115093571Y-52377380D02*
X114998333Y-52329761D01*
X114998333Y-52329761D02*
X114950714Y-52282142D01*
X114950714Y-52282142D02*
X114903095Y-52186904D01*
X114903095Y-52186904D02*
X114903095Y-52091666D01*
X114903095Y-52091666D02*
X114950714Y-51996428D01*
X114950714Y-51996428D02*
X114998333Y-51948809D01*
X114998333Y-51948809D02*
X115093571Y-51901190D01*
X115093571Y-51901190D02*
X115284047Y-51853571D01*
X115284047Y-51853571D02*
X115379285Y-51805952D01*
X115379285Y-51805952D02*
X115426904Y-51758333D01*
X115426904Y-51758333D02*
X115474523Y-51663095D01*
X115474523Y-51663095D02*
X115474523Y-51567857D01*
X115474523Y-51567857D02*
X115426904Y-51472619D01*
X115426904Y-51472619D02*
X115379285Y-51425000D01*
X115379285Y-51425000D02*
X115284047Y-51377380D01*
X115284047Y-51377380D02*
X115045952Y-51377380D01*
X115045952Y-51377380D02*
X114903095Y-51425000D01*
X114569761Y-51377380D02*
X114331666Y-52377380D01*
X114331666Y-52377380D02*
X114141190Y-51663095D01*
X114141190Y-51663095D02*
X113950714Y-52377380D01*
X113950714Y-52377380D02*
X113712619Y-51377380D01*
X112807857Y-52377380D02*
X113379285Y-52377380D01*
X113093571Y-52377380D02*
X113093571Y-51377380D01*
X113093571Y-51377380D02*
X113188809Y-51520238D01*
X113188809Y-51520238D02*
X113284047Y-51615476D01*
X113284047Y-51615476D02*
X113379285Y-51663095D01*
X112331666Y-52377380D02*
X112141190Y-52377380D01*
X112141190Y-52377380D02*
X112045952Y-52329761D01*
X112045952Y-52329761D02*
X111998333Y-52282142D01*
X111998333Y-52282142D02*
X111903095Y-52139285D01*
X111903095Y-52139285D02*
X111855476Y-51948809D01*
X111855476Y-51948809D02*
X111855476Y-51567857D01*
X111855476Y-51567857D02*
X111903095Y-51472619D01*
X111903095Y-51472619D02*
X111950714Y-51425000D01*
X111950714Y-51425000D02*
X112045952Y-51377380D01*
X112045952Y-51377380D02*
X112236428Y-51377380D01*
X112236428Y-51377380D02*
X112331666Y-51425000D01*
X112331666Y-51425000D02*
X112379285Y-51472619D01*
X112379285Y-51472619D02*
X112426904Y-51567857D01*
X112426904Y-51567857D02*
X112426904Y-51805952D01*
X112426904Y-51805952D02*
X112379285Y-51901190D01*
X112379285Y-51901190D02*
X112331666Y-51948809D01*
X112331666Y-51948809D02*
X112236428Y-51996428D01*
X112236428Y-51996428D02*
X112045952Y-51996428D01*
X112045952Y-51996428D02*
X111950714Y-51948809D01*
X111950714Y-51948809D02*
X111903095Y-51901190D01*
X111903095Y-51901190D02*
X111855476Y-51805952D01*
D12*
%TO.C,D35*%
X154771428Y-83283904D02*
X154771428Y-82483904D01*
X154771428Y-82483904D02*
X154580952Y-82483904D01*
X154580952Y-82483904D02*
X154466666Y-82522000D01*
X154466666Y-82522000D02*
X154390476Y-82598190D01*
X154390476Y-82598190D02*
X154352381Y-82674380D01*
X154352381Y-82674380D02*
X154314285Y-82826761D01*
X154314285Y-82826761D02*
X154314285Y-82941047D01*
X154314285Y-82941047D02*
X154352381Y-83093428D01*
X154352381Y-83093428D02*
X154390476Y-83169619D01*
X154390476Y-83169619D02*
X154466666Y-83245809D01*
X154466666Y-83245809D02*
X154580952Y-83283904D01*
X154580952Y-83283904D02*
X154771428Y-83283904D01*
X154047619Y-82483904D02*
X153552381Y-82483904D01*
X153552381Y-82483904D02*
X153819047Y-82788666D01*
X153819047Y-82788666D02*
X153704762Y-82788666D01*
X153704762Y-82788666D02*
X153628571Y-82826761D01*
X153628571Y-82826761D02*
X153590476Y-82864857D01*
X153590476Y-82864857D02*
X153552381Y-82941047D01*
X153552381Y-82941047D02*
X153552381Y-83131523D01*
X153552381Y-83131523D02*
X153590476Y-83207714D01*
X153590476Y-83207714D02*
X153628571Y-83245809D01*
X153628571Y-83245809D02*
X153704762Y-83283904D01*
X153704762Y-83283904D02*
X153933333Y-83283904D01*
X153933333Y-83283904D02*
X154009524Y-83245809D01*
X154009524Y-83245809D02*
X154047619Y-83207714D01*
X152828571Y-82483904D02*
X153209523Y-82483904D01*
X153209523Y-82483904D02*
X153247619Y-82864857D01*
X153247619Y-82864857D02*
X153209523Y-82826761D01*
X153209523Y-82826761D02*
X153133333Y-82788666D01*
X153133333Y-82788666D02*
X152942857Y-82788666D01*
X152942857Y-82788666D02*
X152866666Y-82826761D01*
X152866666Y-82826761D02*
X152828571Y-82864857D01*
X152828571Y-82864857D02*
X152790476Y-82941047D01*
X152790476Y-82941047D02*
X152790476Y-83131523D01*
X152790476Y-83131523D02*
X152828571Y-83207714D01*
X152828571Y-83207714D02*
X152866666Y-83245809D01*
X152866666Y-83245809D02*
X152942857Y-83283904D01*
X152942857Y-83283904D02*
X153133333Y-83283904D01*
X153133333Y-83283904D02*
X153209523Y-83245809D01*
X153209523Y-83245809D02*
X153247619Y-83207714D01*
%TO.C,D46*%
X97686428Y-102063904D02*
X97686428Y-101263904D01*
X97686428Y-101263904D02*
X97495952Y-101263904D01*
X97495952Y-101263904D02*
X97381666Y-101302000D01*
X97381666Y-101302000D02*
X97305476Y-101378190D01*
X97305476Y-101378190D02*
X97267381Y-101454380D01*
X97267381Y-101454380D02*
X97229285Y-101606761D01*
X97229285Y-101606761D02*
X97229285Y-101721047D01*
X97229285Y-101721047D02*
X97267381Y-101873428D01*
X97267381Y-101873428D02*
X97305476Y-101949619D01*
X97305476Y-101949619D02*
X97381666Y-102025809D01*
X97381666Y-102025809D02*
X97495952Y-102063904D01*
X97495952Y-102063904D02*
X97686428Y-102063904D01*
X96543571Y-101530571D02*
X96543571Y-102063904D01*
X96734047Y-101225809D02*
X96924524Y-101797238D01*
X96924524Y-101797238D02*
X96429285Y-101797238D01*
X95781666Y-101263904D02*
X95934047Y-101263904D01*
X95934047Y-101263904D02*
X96010238Y-101302000D01*
X96010238Y-101302000D02*
X96048333Y-101340095D01*
X96048333Y-101340095D02*
X96124523Y-101454380D01*
X96124523Y-101454380D02*
X96162619Y-101606761D01*
X96162619Y-101606761D02*
X96162619Y-101911523D01*
X96162619Y-101911523D02*
X96124523Y-101987714D01*
X96124523Y-101987714D02*
X96086428Y-102025809D01*
X96086428Y-102025809D02*
X96010238Y-102063904D01*
X96010238Y-102063904D02*
X95857857Y-102063904D01*
X95857857Y-102063904D02*
X95781666Y-102025809D01*
X95781666Y-102025809D02*
X95743571Y-101987714D01*
X95743571Y-101987714D02*
X95705476Y-101911523D01*
X95705476Y-101911523D02*
X95705476Y-101721047D01*
X95705476Y-101721047D02*
X95743571Y-101644857D01*
X95743571Y-101644857D02*
X95781666Y-101606761D01*
X95781666Y-101606761D02*
X95857857Y-101568666D01*
X95857857Y-101568666D02*
X96010238Y-101568666D01*
X96010238Y-101568666D02*
X96086428Y-101606761D01*
X96086428Y-101606761D02*
X96124523Y-101644857D01*
X96124523Y-101644857D02*
X96162619Y-101721047D01*
%TO.C,D34*%
X135696428Y-83383904D02*
X135696428Y-82583904D01*
X135696428Y-82583904D02*
X135505952Y-82583904D01*
X135505952Y-82583904D02*
X135391666Y-82622000D01*
X135391666Y-82622000D02*
X135315476Y-82698190D01*
X135315476Y-82698190D02*
X135277381Y-82774380D01*
X135277381Y-82774380D02*
X135239285Y-82926761D01*
X135239285Y-82926761D02*
X135239285Y-83041047D01*
X135239285Y-83041047D02*
X135277381Y-83193428D01*
X135277381Y-83193428D02*
X135315476Y-83269619D01*
X135315476Y-83269619D02*
X135391666Y-83345809D01*
X135391666Y-83345809D02*
X135505952Y-83383904D01*
X135505952Y-83383904D02*
X135696428Y-83383904D01*
X134972619Y-82583904D02*
X134477381Y-82583904D01*
X134477381Y-82583904D02*
X134744047Y-82888666D01*
X134744047Y-82888666D02*
X134629762Y-82888666D01*
X134629762Y-82888666D02*
X134553571Y-82926761D01*
X134553571Y-82926761D02*
X134515476Y-82964857D01*
X134515476Y-82964857D02*
X134477381Y-83041047D01*
X134477381Y-83041047D02*
X134477381Y-83231523D01*
X134477381Y-83231523D02*
X134515476Y-83307714D01*
X134515476Y-83307714D02*
X134553571Y-83345809D01*
X134553571Y-83345809D02*
X134629762Y-83383904D01*
X134629762Y-83383904D02*
X134858333Y-83383904D01*
X134858333Y-83383904D02*
X134934524Y-83345809D01*
X134934524Y-83345809D02*
X134972619Y-83307714D01*
X133791666Y-82850571D02*
X133791666Y-83383904D01*
X133982142Y-82545809D02*
X134172619Y-83117238D01*
X134172619Y-83117238D02*
X133677380Y-83117238D01*
D11*
%TO.C,SW43*%
X39274523Y-90448161D02*
X39131666Y-90495780D01*
X39131666Y-90495780D02*
X38893571Y-90495780D01*
X38893571Y-90495780D02*
X38798333Y-90448161D01*
X38798333Y-90448161D02*
X38750714Y-90400542D01*
X38750714Y-90400542D02*
X38703095Y-90305304D01*
X38703095Y-90305304D02*
X38703095Y-90210066D01*
X38703095Y-90210066D02*
X38750714Y-90114828D01*
X38750714Y-90114828D02*
X38798333Y-90067209D01*
X38798333Y-90067209D02*
X38893571Y-90019590D01*
X38893571Y-90019590D02*
X39084047Y-89971971D01*
X39084047Y-89971971D02*
X39179285Y-89924352D01*
X39179285Y-89924352D02*
X39226904Y-89876733D01*
X39226904Y-89876733D02*
X39274523Y-89781495D01*
X39274523Y-89781495D02*
X39274523Y-89686257D01*
X39274523Y-89686257D02*
X39226904Y-89591019D01*
X39226904Y-89591019D02*
X39179285Y-89543400D01*
X39179285Y-89543400D02*
X39084047Y-89495780D01*
X39084047Y-89495780D02*
X38845952Y-89495780D01*
X38845952Y-89495780D02*
X38703095Y-89543400D01*
X38369761Y-89495780D02*
X38131666Y-90495780D01*
X38131666Y-90495780D02*
X37941190Y-89781495D01*
X37941190Y-89781495D02*
X37750714Y-90495780D01*
X37750714Y-90495780D02*
X37512619Y-89495780D01*
X36703095Y-89829114D02*
X36703095Y-90495780D01*
X36941190Y-89448161D02*
X37179285Y-90162447D01*
X37179285Y-90162447D02*
X36560238Y-90162447D01*
X36274523Y-89495780D02*
X35655476Y-89495780D01*
X35655476Y-89495780D02*
X35988809Y-89876733D01*
X35988809Y-89876733D02*
X35845952Y-89876733D01*
X35845952Y-89876733D02*
X35750714Y-89924352D01*
X35750714Y-89924352D02*
X35703095Y-89971971D01*
X35703095Y-89971971D02*
X35655476Y-90067209D01*
X35655476Y-90067209D02*
X35655476Y-90305304D01*
X35655476Y-90305304D02*
X35703095Y-90400542D01*
X35703095Y-90400542D02*
X35750714Y-90448161D01*
X35750714Y-90448161D02*
X35845952Y-90495780D01*
X35845952Y-90495780D02*
X36131666Y-90495780D01*
X36131666Y-90495780D02*
X36226904Y-90448161D01*
X36226904Y-90448161D02*
X36274523Y-90400542D01*
%TO.C,SW47*%
X115474523Y-90473561D02*
X115331666Y-90521180D01*
X115331666Y-90521180D02*
X115093571Y-90521180D01*
X115093571Y-90521180D02*
X114998333Y-90473561D01*
X114998333Y-90473561D02*
X114950714Y-90425942D01*
X114950714Y-90425942D02*
X114903095Y-90330704D01*
X114903095Y-90330704D02*
X114903095Y-90235466D01*
X114903095Y-90235466D02*
X114950714Y-90140228D01*
X114950714Y-90140228D02*
X114998333Y-90092609D01*
X114998333Y-90092609D02*
X115093571Y-90044990D01*
X115093571Y-90044990D02*
X115284047Y-89997371D01*
X115284047Y-89997371D02*
X115379285Y-89949752D01*
X115379285Y-89949752D02*
X115426904Y-89902133D01*
X115426904Y-89902133D02*
X115474523Y-89806895D01*
X115474523Y-89806895D02*
X115474523Y-89711657D01*
X115474523Y-89711657D02*
X115426904Y-89616419D01*
X115426904Y-89616419D02*
X115379285Y-89568800D01*
X115379285Y-89568800D02*
X115284047Y-89521180D01*
X115284047Y-89521180D02*
X115045952Y-89521180D01*
X115045952Y-89521180D02*
X114903095Y-89568800D01*
X114569761Y-89521180D02*
X114331666Y-90521180D01*
X114331666Y-90521180D02*
X114141190Y-89806895D01*
X114141190Y-89806895D02*
X113950714Y-90521180D01*
X113950714Y-90521180D02*
X113712619Y-89521180D01*
X112903095Y-89854514D02*
X112903095Y-90521180D01*
X113141190Y-89473561D02*
X113379285Y-90187847D01*
X113379285Y-90187847D02*
X112760238Y-90187847D01*
X112474523Y-89521180D02*
X111807857Y-89521180D01*
X111807857Y-89521180D02*
X112236428Y-90521180D01*
D12*
%TO.C,D2*%
X59105475Y-44833904D02*
X59105475Y-44033904D01*
X59105475Y-44033904D02*
X58914999Y-44033904D01*
X58914999Y-44033904D02*
X58800713Y-44072000D01*
X58800713Y-44072000D02*
X58724523Y-44148190D01*
X58724523Y-44148190D02*
X58686428Y-44224380D01*
X58686428Y-44224380D02*
X58648332Y-44376761D01*
X58648332Y-44376761D02*
X58648332Y-44491047D01*
X58648332Y-44491047D02*
X58686428Y-44643428D01*
X58686428Y-44643428D02*
X58724523Y-44719619D01*
X58724523Y-44719619D02*
X58800713Y-44795809D01*
X58800713Y-44795809D02*
X58914999Y-44833904D01*
X58914999Y-44833904D02*
X59105475Y-44833904D01*
X58343571Y-44110095D02*
X58305475Y-44072000D01*
X58305475Y-44072000D02*
X58229285Y-44033904D01*
X58229285Y-44033904D02*
X58038809Y-44033904D01*
X58038809Y-44033904D02*
X57962618Y-44072000D01*
X57962618Y-44072000D02*
X57924523Y-44110095D01*
X57924523Y-44110095D02*
X57886428Y-44186285D01*
X57886428Y-44186285D02*
X57886428Y-44262476D01*
X57886428Y-44262476D02*
X57924523Y-44376761D01*
X57924523Y-44376761D02*
X58381666Y-44833904D01*
X58381666Y-44833904D02*
X57886428Y-44833904D01*
D11*
%TO.C,SW35*%
X153574523Y-71379761D02*
X153431666Y-71427380D01*
X153431666Y-71427380D02*
X153193571Y-71427380D01*
X153193571Y-71427380D02*
X153098333Y-71379761D01*
X153098333Y-71379761D02*
X153050714Y-71332142D01*
X153050714Y-71332142D02*
X153003095Y-71236904D01*
X153003095Y-71236904D02*
X153003095Y-71141666D01*
X153003095Y-71141666D02*
X153050714Y-71046428D01*
X153050714Y-71046428D02*
X153098333Y-70998809D01*
X153098333Y-70998809D02*
X153193571Y-70951190D01*
X153193571Y-70951190D02*
X153384047Y-70903571D01*
X153384047Y-70903571D02*
X153479285Y-70855952D01*
X153479285Y-70855952D02*
X153526904Y-70808333D01*
X153526904Y-70808333D02*
X153574523Y-70713095D01*
X153574523Y-70713095D02*
X153574523Y-70617857D01*
X153574523Y-70617857D02*
X153526904Y-70522619D01*
X153526904Y-70522619D02*
X153479285Y-70475000D01*
X153479285Y-70475000D02*
X153384047Y-70427380D01*
X153384047Y-70427380D02*
X153145952Y-70427380D01*
X153145952Y-70427380D02*
X153003095Y-70475000D01*
X152669761Y-70427380D02*
X152431666Y-71427380D01*
X152431666Y-71427380D02*
X152241190Y-70713095D01*
X152241190Y-70713095D02*
X152050714Y-71427380D01*
X152050714Y-71427380D02*
X151812619Y-70427380D01*
X151526904Y-70427380D02*
X150907857Y-70427380D01*
X150907857Y-70427380D02*
X151241190Y-70808333D01*
X151241190Y-70808333D02*
X151098333Y-70808333D01*
X151098333Y-70808333D02*
X151003095Y-70855952D01*
X151003095Y-70855952D02*
X150955476Y-70903571D01*
X150955476Y-70903571D02*
X150907857Y-70998809D01*
X150907857Y-70998809D02*
X150907857Y-71236904D01*
X150907857Y-71236904D02*
X150955476Y-71332142D01*
X150955476Y-71332142D02*
X151003095Y-71379761D01*
X151003095Y-71379761D02*
X151098333Y-71427380D01*
X151098333Y-71427380D02*
X151384047Y-71427380D01*
X151384047Y-71427380D02*
X151479285Y-71379761D01*
X151479285Y-71379761D02*
X151526904Y-71332142D01*
X150003095Y-70427380D02*
X150479285Y-70427380D01*
X150479285Y-70427380D02*
X150526904Y-70903571D01*
X150526904Y-70903571D02*
X150479285Y-70855952D01*
X150479285Y-70855952D02*
X150384047Y-70808333D01*
X150384047Y-70808333D02*
X150145952Y-70808333D01*
X150145952Y-70808333D02*
X150050714Y-70855952D01*
X150050714Y-70855952D02*
X150003095Y-70903571D01*
X150003095Y-70903571D02*
X149955476Y-70998809D01*
X149955476Y-70998809D02*
X149955476Y-71236904D01*
X149955476Y-71236904D02*
X150003095Y-71332142D01*
X150003095Y-71332142D02*
X150050714Y-71379761D01*
X150050714Y-71379761D02*
X150145952Y-71427380D01*
X150145952Y-71427380D02*
X150384047Y-71427380D01*
X150384047Y-71427380D02*
X150479285Y-71379761D01*
X150479285Y-71379761D02*
X150526904Y-71332142D01*
D12*
%TO.C,D31*%
X78636428Y-83283904D02*
X78636428Y-82483904D01*
X78636428Y-82483904D02*
X78445952Y-82483904D01*
X78445952Y-82483904D02*
X78331666Y-82522000D01*
X78331666Y-82522000D02*
X78255476Y-82598190D01*
X78255476Y-82598190D02*
X78217381Y-82674380D01*
X78217381Y-82674380D02*
X78179285Y-82826761D01*
X78179285Y-82826761D02*
X78179285Y-82941047D01*
X78179285Y-82941047D02*
X78217381Y-83093428D01*
X78217381Y-83093428D02*
X78255476Y-83169619D01*
X78255476Y-83169619D02*
X78331666Y-83245809D01*
X78331666Y-83245809D02*
X78445952Y-83283904D01*
X78445952Y-83283904D02*
X78636428Y-83283904D01*
X77912619Y-82483904D02*
X77417381Y-82483904D01*
X77417381Y-82483904D02*
X77684047Y-82788666D01*
X77684047Y-82788666D02*
X77569762Y-82788666D01*
X77569762Y-82788666D02*
X77493571Y-82826761D01*
X77493571Y-82826761D02*
X77455476Y-82864857D01*
X77455476Y-82864857D02*
X77417381Y-82941047D01*
X77417381Y-82941047D02*
X77417381Y-83131523D01*
X77417381Y-83131523D02*
X77455476Y-83207714D01*
X77455476Y-83207714D02*
X77493571Y-83245809D01*
X77493571Y-83245809D02*
X77569762Y-83283904D01*
X77569762Y-83283904D02*
X77798333Y-83283904D01*
X77798333Y-83283904D02*
X77874524Y-83245809D01*
X77874524Y-83245809D02*
X77912619Y-83207714D01*
X76655476Y-83283904D02*
X77112619Y-83283904D01*
X76884047Y-83283904D02*
X76884047Y-82483904D01*
X76884047Y-82483904D02*
X76960238Y-82598190D01*
X76960238Y-82598190D02*
X77036428Y-82674380D01*
X77036428Y-82674380D02*
X77112619Y-82712476D01*
D11*
%TO.C,SW30*%
X58254523Y-71379761D02*
X58111666Y-71427380D01*
X58111666Y-71427380D02*
X57873571Y-71427380D01*
X57873571Y-71427380D02*
X57778333Y-71379761D01*
X57778333Y-71379761D02*
X57730714Y-71332142D01*
X57730714Y-71332142D02*
X57683095Y-71236904D01*
X57683095Y-71236904D02*
X57683095Y-71141666D01*
X57683095Y-71141666D02*
X57730714Y-71046428D01*
X57730714Y-71046428D02*
X57778333Y-70998809D01*
X57778333Y-70998809D02*
X57873571Y-70951190D01*
X57873571Y-70951190D02*
X58064047Y-70903571D01*
X58064047Y-70903571D02*
X58159285Y-70855952D01*
X58159285Y-70855952D02*
X58206904Y-70808333D01*
X58206904Y-70808333D02*
X58254523Y-70713095D01*
X58254523Y-70713095D02*
X58254523Y-70617857D01*
X58254523Y-70617857D02*
X58206904Y-70522619D01*
X58206904Y-70522619D02*
X58159285Y-70475000D01*
X58159285Y-70475000D02*
X58064047Y-70427380D01*
X58064047Y-70427380D02*
X57825952Y-70427380D01*
X57825952Y-70427380D02*
X57683095Y-70475000D01*
X57349761Y-70427380D02*
X57111666Y-71427380D01*
X57111666Y-71427380D02*
X56921190Y-70713095D01*
X56921190Y-70713095D02*
X56730714Y-71427380D01*
X56730714Y-71427380D02*
X56492619Y-70427380D01*
X56206904Y-70427380D02*
X55587857Y-70427380D01*
X55587857Y-70427380D02*
X55921190Y-70808333D01*
X55921190Y-70808333D02*
X55778333Y-70808333D01*
X55778333Y-70808333D02*
X55683095Y-70855952D01*
X55683095Y-70855952D02*
X55635476Y-70903571D01*
X55635476Y-70903571D02*
X55587857Y-70998809D01*
X55587857Y-70998809D02*
X55587857Y-71236904D01*
X55587857Y-71236904D02*
X55635476Y-71332142D01*
X55635476Y-71332142D02*
X55683095Y-71379761D01*
X55683095Y-71379761D02*
X55778333Y-71427380D01*
X55778333Y-71427380D02*
X56064047Y-71427380D01*
X56064047Y-71427380D02*
X56159285Y-71379761D01*
X56159285Y-71379761D02*
X56206904Y-71332142D01*
X54968809Y-70427380D02*
X54873571Y-70427380D01*
X54873571Y-70427380D02*
X54778333Y-70475000D01*
X54778333Y-70475000D02*
X54730714Y-70522619D01*
X54730714Y-70522619D02*
X54683095Y-70617857D01*
X54683095Y-70617857D02*
X54635476Y-70808333D01*
X54635476Y-70808333D02*
X54635476Y-71046428D01*
X54635476Y-71046428D02*
X54683095Y-71236904D01*
X54683095Y-71236904D02*
X54730714Y-71332142D01*
X54730714Y-71332142D02*
X54778333Y-71379761D01*
X54778333Y-71379761D02*
X54873571Y-71427380D01*
X54873571Y-71427380D02*
X54968809Y-71427380D01*
X54968809Y-71427380D02*
X55064047Y-71379761D01*
X55064047Y-71379761D02*
X55111666Y-71332142D01*
X55111666Y-71332142D02*
X55159285Y-71236904D01*
X55159285Y-71236904D02*
X55206904Y-71046428D01*
X55206904Y-71046428D02*
X55206904Y-70808333D01*
X55206904Y-70808333D02*
X55159285Y-70617857D01*
X55159285Y-70617857D02*
X55111666Y-70522619D01*
X55111666Y-70522619D02*
X55064047Y-70475000D01*
X55064047Y-70475000D02*
X54968809Y-70427380D01*
D12*
%TO.C,D59*%
X135696428Y-121033904D02*
X135696428Y-120233904D01*
X135696428Y-120233904D02*
X135505952Y-120233904D01*
X135505952Y-120233904D02*
X135391666Y-120272000D01*
X135391666Y-120272000D02*
X135315476Y-120348190D01*
X135315476Y-120348190D02*
X135277381Y-120424380D01*
X135277381Y-120424380D02*
X135239285Y-120576761D01*
X135239285Y-120576761D02*
X135239285Y-120691047D01*
X135239285Y-120691047D02*
X135277381Y-120843428D01*
X135277381Y-120843428D02*
X135315476Y-120919619D01*
X135315476Y-120919619D02*
X135391666Y-120995809D01*
X135391666Y-120995809D02*
X135505952Y-121033904D01*
X135505952Y-121033904D02*
X135696428Y-121033904D01*
X134515476Y-120233904D02*
X134896428Y-120233904D01*
X134896428Y-120233904D02*
X134934524Y-120614857D01*
X134934524Y-120614857D02*
X134896428Y-120576761D01*
X134896428Y-120576761D02*
X134820238Y-120538666D01*
X134820238Y-120538666D02*
X134629762Y-120538666D01*
X134629762Y-120538666D02*
X134553571Y-120576761D01*
X134553571Y-120576761D02*
X134515476Y-120614857D01*
X134515476Y-120614857D02*
X134477381Y-120691047D01*
X134477381Y-120691047D02*
X134477381Y-120881523D01*
X134477381Y-120881523D02*
X134515476Y-120957714D01*
X134515476Y-120957714D02*
X134553571Y-120995809D01*
X134553571Y-120995809D02*
X134629762Y-121033904D01*
X134629762Y-121033904D02*
X134820238Y-121033904D01*
X134820238Y-121033904D02*
X134896428Y-120995809D01*
X134896428Y-120995809D02*
X134934524Y-120957714D01*
X134096428Y-121033904D02*
X133944047Y-121033904D01*
X133944047Y-121033904D02*
X133867857Y-120995809D01*
X133867857Y-120995809D02*
X133829761Y-120957714D01*
X133829761Y-120957714D02*
X133753571Y-120843428D01*
X133753571Y-120843428D02*
X133715476Y-120691047D01*
X133715476Y-120691047D02*
X133715476Y-120386285D01*
X133715476Y-120386285D02*
X133753571Y-120310095D01*
X133753571Y-120310095D02*
X133791666Y-120272000D01*
X133791666Y-120272000D02*
X133867857Y-120233904D01*
X133867857Y-120233904D02*
X134020238Y-120233904D01*
X134020238Y-120233904D02*
X134096428Y-120272000D01*
X134096428Y-120272000D02*
X134134523Y-120310095D01*
X134134523Y-120310095D02*
X134172619Y-120386285D01*
X134172619Y-120386285D02*
X134172619Y-120576761D01*
X134172619Y-120576761D02*
X134134523Y-120652952D01*
X134134523Y-120652952D02*
X134096428Y-120691047D01*
X134096428Y-120691047D02*
X134020238Y-120729142D01*
X134020238Y-120729142D02*
X133867857Y-120729142D01*
X133867857Y-120729142D02*
X133791666Y-120691047D01*
X133791666Y-120691047D02*
X133753571Y-120652952D01*
X133753571Y-120652952D02*
X133715476Y-120576761D01*
D11*
%TO.C,SW33*%
X115474523Y-71379761D02*
X115331666Y-71427380D01*
X115331666Y-71427380D02*
X115093571Y-71427380D01*
X115093571Y-71427380D02*
X114998333Y-71379761D01*
X114998333Y-71379761D02*
X114950714Y-71332142D01*
X114950714Y-71332142D02*
X114903095Y-71236904D01*
X114903095Y-71236904D02*
X114903095Y-71141666D01*
X114903095Y-71141666D02*
X114950714Y-71046428D01*
X114950714Y-71046428D02*
X114998333Y-70998809D01*
X114998333Y-70998809D02*
X115093571Y-70951190D01*
X115093571Y-70951190D02*
X115284047Y-70903571D01*
X115284047Y-70903571D02*
X115379285Y-70855952D01*
X115379285Y-70855952D02*
X115426904Y-70808333D01*
X115426904Y-70808333D02*
X115474523Y-70713095D01*
X115474523Y-70713095D02*
X115474523Y-70617857D01*
X115474523Y-70617857D02*
X115426904Y-70522619D01*
X115426904Y-70522619D02*
X115379285Y-70475000D01*
X115379285Y-70475000D02*
X115284047Y-70427380D01*
X115284047Y-70427380D02*
X115045952Y-70427380D01*
X115045952Y-70427380D02*
X114903095Y-70475000D01*
X114569761Y-70427380D02*
X114331666Y-71427380D01*
X114331666Y-71427380D02*
X114141190Y-70713095D01*
X114141190Y-70713095D02*
X113950714Y-71427380D01*
X113950714Y-71427380D02*
X113712619Y-70427380D01*
X113426904Y-70427380D02*
X112807857Y-70427380D01*
X112807857Y-70427380D02*
X113141190Y-70808333D01*
X113141190Y-70808333D02*
X112998333Y-70808333D01*
X112998333Y-70808333D02*
X112903095Y-70855952D01*
X112903095Y-70855952D02*
X112855476Y-70903571D01*
X112855476Y-70903571D02*
X112807857Y-70998809D01*
X112807857Y-70998809D02*
X112807857Y-71236904D01*
X112807857Y-71236904D02*
X112855476Y-71332142D01*
X112855476Y-71332142D02*
X112903095Y-71379761D01*
X112903095Y-71379761D02*
X112998333Y-71427380D01*
X112998333Y-71427380D02*
X113284047Y-71427380D01*
X113284047Y-71427380D02*
X113379285Y-71379761D01*
X113379285Y-71379761D02*
X113426904Y-71332142D01*
X112474523Y-70427380D02*
X111855476Y-70427380D01*
X111855476Y-70427380D02*
X112188809Y-70808333D01*
X112188809Y-70808333D02*
X112045952Y-70808333D01*
X112045952Y-70808333D02*
X111950714Y-70855952D01*
X111950714Y-70855952D02*
X111903095Y-70903571D01*
X111903095Y-70903571D02*
X111855476Y-70998809D01*
X111855476Y-70998809D02*
X111855476Y-71236904D01*
X111855476Y-71236904D02*
X111903095Y-71332142D01*
X111903095Y-71332142D02*
X111950714Y-71379761D01*
X111950714Y-71379761D02*
X112045952Y-71427380D01*
X112045952Y-71427380D02*
X112331666Y-71427380D01*
X112331666Y-71427380D02*
X112426904Y-71379761D01*
X112426904Y-71379761D02*
X112474523Y-71332142D01*
D12*
%TO.C,D5*%
X116245475Y-44933904D02*
X116245475Y-44133904D01*
X116245475Y-44133904D02*
X116054999Y-44133904D01*
X116054999Y-44133904D02*
X115940713Y-44172000D01*
X115940713Y-44172000D02*
X115864523Y-44248190D01*
X115864523Y-44248190D02*
X115826428Y-44324380D01*
X115826428Y-44324380D02*
X115788332Y-44476761D01*
X115788332Y-44476761D02*
X115788332Y-44591047D01*
X115788332Y-44591047D02*
X115826428Y-44743428D01*
X115826428Y-44743428D02*
X115864523Y-44819619D01*
X115864523Y-44819619D02*
X115940713Y-44895809D01*
X115940713Y-44895809D02*
X116054999Y-44933904D01*
X116054999Y-44933904D02*
X116245475Y-44933904D01*
X115064523Y-44133904D02*
X115445475Y-44133904D01*
X115445475Y-44133904D02*
X115483571Y-44514857D01*
X115483571Y-44514857D02*
X115445475Y-44476761D01*
X115445475Y-44476761D02*
X115369285Y-44438666D01*
X115369285Y-44438666D02*
X115178809Y-44438666D01*
X115178809Y-44438666D02*
X115102618Y-44476761D01*
X115102618Y-44476761D02*
X115064523Y-44514857D01*
X115064523Y-44514857D02*
X115026428Y-44591047D01*
X115026428Y-44591047D02*
X115026428Y-44781523D01*
X115026428Y-44781523D02*
X115064523Y-44857714D01*
X115064523Y-44857714D02*
X115102618Y-44895809D01*
X115102618Y-44895809D02*
X115178809Y-44933904D01*
X115178809Y-44933904D02*
X115369285Y-44933904D01*
X115369285Y-44933904D02*
X115445475Y-44895809D01*
X115445475Y-44895809D02*
X115483571Y-44857714D01*
%TO.C,D4*%
X97305475Y-44933904D02*
X97305475Y-44133904D01*
X97305475Y-44133904D02*
X97114999Y-44133904D01*
X97114999Y-44133904D02*
X97000713Y-44172000D01*
X97000713Y-44172000D02*
X96924523Y-44248190D01*
X96924523Y-44248190D02*
X96886428Y-44324380D01*
X96886428Y-44324380D02*
X96848332Y-44476761D01*
X96848332Y-44476761D02*
X96848332Y-44591047D01*
X96848332Y-44591047D02*
X96886428Y-44743428D01*
X96886428Y-44743428D02*
X96924523Y-44819619D01*
X96924523Y-44819619D02*
X97000713Y-44895809D01*
X97000713Y-44895809D02*
X97114999Y-44933904D01*
X97114999Y-44933904D02*
X97305475Y-44933904D01*
X96162618Y-44400571D02*
X96162618Y-44933904D01*
X96353094Y-44095809D02*
X96543571Y-44667238D01*
X96543571Y-44667238D02*
X96048332Y-44667238D01*
%TO.C,D7*%
X154390475Y-44833904D02*
X154390475Y-44033904D01*
X154390475Y-44033904D02*
X154199999Y-44033904D01*
X154199999Y-44033904D02*
X154085713Y-44072000D01*
X154085713Y-44072000D02*
X154009523Y-44148190D01*
X154009523Y-44148190D02*
X153971428Y-44224380D01*
X153971428Y-44224380D02*
X153933332Y-44376761D01*
X153933332Y-44376761D02*
X153933332Y-44491047D01*
X153933332Y-44491047D02*
X153971428Y-44643428D01*
X153971428Y-44643428D02*
X154009523Y-44719619D01*
X154009523Y-44719619D02*
X154085713Y-44795809D01*
X154085713Y-44795809D02*
X154199999Y-44833904D01*
X154199999Y-44833904D02*
X154390475Y-44833904D01*
X153666666Y-44033904D02*
X153133332Y-44033904D01*
X153133332Y-44033904D02*
X153476190Y-44833904D01*
D11*
%TO.C,SW6*%
X133413332Y-30799761D02*
X133270475Y-30847380D01*
X133270475Y-30847380D02*
X133032380Y-30847380D01*
X133032380Y-30847380D02*
X132937142Y-30799761D01*
X132937142Y-30799761D02*
X132889523Y-30752142D01*
X132889523Y-30752142D02*
X132841904Y-30656904D01*
X132841904Y-30656904D02*
X132841904Y-30561666D01*
X132841904Y-30561666D02*
X132889523Y-30466428D01*
X132889523Y-30466428D02*
X132937142Y-30418809D01*
X132937142Y-30418809D02*
X133032380Y-30371190D01*
X133032380Y-30371190D02*
X133222856Y-30323571D01*
X133222856Y-30323571D02*
X133318094Y-30275952D01*
X133318094Y-30275952D02*
X133365713Y-30228333D01*
X133365713Y-30228333D02*
X133413332Y-30133095D01*
X133413332Y-30133095D02*
X133413332Y-30037857D01*
X133413332Y-30037857D02*
X133365713Y-29942619D01*
X133365713Y-29942619D02*
X133318094Y-29895000D01*
X133318094Y-29895000D02*
X133222856Y-29847380D01*
X133222856Y-29847380D02*
X132984761Y-29847380D01*
X132984761Y-29847380D02*
X132841904Y-29895000D01*
X132508570Y-29847380D02*
X132270475Y-30847380D01*
X132270475Y-30847380D02*
X132079999Y-30133095D01*
X132079999Y-30133095D02*
X131889523Y-30847380D01*
X131889523Y-30847380D02*
X131651428Y-29847380D01*
X130841904Y-29847380D02*
X131032380Y-29847380D01*
X131032380Y-29847380D02*
X131127618Y-29895000D01*
X131127618Y-29895000D02*
X131175237Y-29942619D01*
X131175237Y-29942619D02*
X131270475Y-30085476D01*
X131270475Y-30085476D02*
X131318094Y-30275952D01*
X131318094Y-30275952D02*
X131318094Y-30656904D01*
X131318094Y-30656904D02*
X131270475Y-30752142D01*
X131270475Y-30752142D02*
X131222856Y-30799761D01*
X131222856Y-30799761D02*
X131127618Y-30847380D01*
X131127618Y-30847380D02*
X130937142Y-30847380D01*
X130937142Y-30847380D02*
X130841904Y-30799761D01*
X130841904Y-30799761D02*
X130794285Y-30752142D01*
X130794285Y-30752142D02*
X130746666Y-30656904D01*
X130746666Y-30656904D02*
X130746666Y-30418809D01*
X130746666Y-30418809D02*
X130794285Y-30323571D01*
X130794285Y-30323571D02*
X130841904Y-30275952D01*
X130841904Y-30275952D02*
X130937142Y-30228333D01*
X130937142Y-30228333D02*
X131127618Y-30228333D01*
X131127618Y-30228333D02*
X131222856Y-30275952D01*
X131222856Y-30275952D02*
X131270475Y-30323571D01*
X131270475Y-30323571D02*
X131318094Y-30418809D01*
%TO.C,SW44*%
X58254523Y-90448161D02*
X58111666Y-90495780D01*
X58111666Y-90495780D02*
X57873571Y-90495780D01*
X57873571Y-90495780D02*
X57778333Y-90448161D01*
X57778333Y-90448161D02*
X57730714Y-90400542D01*
X57730714Y-90400542D02*
X57683095Y-90305304D01*
X57683095Y-90305304D02*
X57683095Y-90210066D01*
X57683095Y-90210066D02*
X57730714Y-90114828D01*
X57730714Y-90114828D02*
X57778333Y-90067209D01*
X57778333Y-90067209D02*
X57873571Y-90019590D01*
X57873571Y-90019590D02*
X58064047Y-89971971D01*
X58064047Y-89971971D02*
X58159285Y-89924352D01*
X58159285Y-89924352D02*
X58206904Y-89876733D01*
X58206904Y-89876733D02*
X58254523Y-89781495D01*
X58254523Y-89781495D02*
X58254523Y-89686257D01*
X58254523Y-89686257D02*
X58206904Y-89591019D01*
X58206904Y-89591019D02*
X58159285Y-89543400D01*
X58159285Y-89543400D02*
X58064047Y-89495780D01*
X58064047Y-89495780D02*
X57825952Y-89495780D01*
X57825952Y-89495780D02*
X57683095Y-89543400D01*
X57349761Y-89495780D02*
X57111666Y-90495780D01*
X57111666Y-90495780D02*
X56921190Y-89781495D01*
X56921190Y-89781495D02*
X56730714Y-90495780D01*
X56730714Y-90495780D02*
X56492619Y-89495780D01*
X55683095Y-89829114D02*
X55683095Y-90495780D01*
X55921190Y-89448161D02*
X56159285Y-90162447D01*
X56159285Y-90162447D02*
X55540238Y-90162447D01*
X54730714Y-89829114D02*
X54730714Y-90495780D01*
X54968809Y-89448161D02*
X55206904Y-90162447D01*
X55206904Y-90162447D02*
X54587857Y-90162447D01*
D12*
%TO.C,D57*%
X97686428Y-121033904D02*
X97686428Y-120233904D01*
X97686428Y-120233904D02*
X97495952Y-120233904D01*
X97495952Y-120233904D02*
X97381666Y-120272000D01*
X97381666Y-120272000D02*
X97305476Y-120348190D01*
X97305476Y-120348190D02*
X97267381Y-120424380D01*
X97267381Y-120424380D02*
X97229285Y-120576761D01*
X97229285Y-120576761D02*
X97229285Y-120691047D01*
X97229285Y-120691047D02*
X97267381Y-120843428D01*
X97267381Y-120843428D02*
X97305476Y-120919619D01*
X97305476Y-120919619D02*
X97381666Y-120995809D01*
X97381666Y-120995809D02*
X97495952Y-121033904D01*
X97495952Y-121033904D02*
X97686428Y-121033904D01*
X96505476Y-120233904D02*
X96886428Y-120233904D01*
X96886428Y-120233904D02*
X96924524Y-120614857D01*
X96924524Y-120614857D02*
X96886428Y-120576761D01*
X96886428Y-120576761D02*
X96810238Y-120538666D01*
X96810238Y-120538666D02*
X96619762Y-120538666D01*
X96619762Y-120538666D02*
X96543571Y-120576761D01*
X96543571Y-120576761D02*
X96505476Y-120614857D01*
X96505476Y-120614857D02*
X96467381Y-120691047D01*
X96467381Y-120691047D02*
X96467381Y-120881523D01*
X96467381Y-120881523D02*
X96505476Y-120957714D01*
X96505476Y-120957714D02*
X96543571Y-120995809D01*
X96543571Y-120995809D02*
X96619762Y-121033904D01*
X96619762Y-121033904D02*
X96810238Y-121033904D01*
X96810238Y-121033904D02*
X96886428Y-120995809D01*
X96886428Y-120995809D02*
X96924524Y-120957714D01*
X96200714Y-120233904D02*
X95667380Y-120233904D01*
X95667380Y-120233904D02*
X96010238Y-121033904D01*
%TO.C,D44*%
X67833904Y-93773571D02*
X67033904Y-93773571D01*
X67033904Y-93773571D02*
X67033904Y-93964047D01*
X67033904Y-93964047D02*
X67072000Y-94078333D01*
X67072000Y-94078333D02*
X67148190Y-94154523D01*
X67148190Y-94154523D02*
X67224380Y-94192618D01*
X67224380Y-94192618D02*
X67376761Y-94230714D01*
X67376761Y-94230714D02*
X67491047Y-94230714D01*
X67491047Y-94230714D02*
X67643428Y-94192618D01*
X67643428Y-94192618D02*
X67719619Y-94154523D01*
X67719619Y-94154523D02*
X67795809Y-94078333D01*
X67795809Y-94078333D02*
X67833904Y-93964047D01*
X67833904Y-93964047D02*
X67833904Y-93773571D01*
X67300571Y-94916428D02*
X67833904Y-94916428D01*
X66995809Y-94725952D02*
X67567238Y-94535475D01*
X67567238Y-94535475D02*
X67567238Y-95030714D01*
X67300571Y-95678333D02*
X67833904Y-95678333D01*
X66995809Y-95487857D02*
X67567238Y-95297380D01*
X67567238Y-95297380D02*
X67567238Y-95792619D01*
%TO.C,D20*%
X135696428Y-64153904D02*
X135696428Y-63353904D01*
X135696428Y-63353904D02*
X135505952Y-63353904D01*
X135505952Y-63353904D02*
X135391666Y-63392000D01*
X135391666Y-63392000D02*
X135315476Y-63468190D01*
X135315476Y-63468190D02*
X135277381Y-63544380D01*
X135277381Y-63544380D02*
X135239285Y-63696761D01*
X135239285Y-63696761D02*
X135239285Y-63811047D01*
X135239285Y-63811047D02*
X135277381Y-63963428D01*
X135277381Y-63963428D02*
X135315476Y-64039619D01*
X135315476Y-64039619D02*
X135391666Y-64115809D01*
X135391666Y-64115809D02*
X135505952Y-64153904D01*
X135505952Y-64153904D02*
X135696428Y-64153904D01*
X134934524Y-63430095D02*
X134896428Y-63392000D01*
X134896428Y-63392000D02*
X134820238Y-63353904D01*
X134820238Y-63353904D02*
X134629762Y-63353904D01*
X134629762Y-63353904D02*
X134553571Y-63392000D01*
X134553571Y-63392000D02*
X134515476Y-63430095D01*
X134515476Y-63430095D02*
X134477381Y-63506285D01*
X134477381Y-63506285D02*
X134477381Y-63582476D01*
X134477381Y-63582476D02*
X134515476Y-63696761D01*
X134515476Y-63696761D02*
X134972619Y-64153904D01*
X134972619Y-64153904D02*
X134477381Y-64153904D01*
X133982142Y-63353904D02*
X133905952Y-63353904D01*
X133905952Y-63353904D02*
X133829761Y-63392000D01*
X133829761Y-63392000D02*
X133791666Y-63430095D01*
X133791666Y-63430095D02*
X133753571Y-63506285D01*
X133753571Y-63506285D02*
X133715476Y-63658666D01*
X133715476Y-63658666D02*
X133715476Y-63849142D01*
X133715476Y-63849142D02*
X133753571Y-64001523D01*
X133753571Y-64001523D02*
X133791666Y-64077714D01*
X133791666Y-64077714D02*
X133829761Y-64115809D01*
X133829761Y-64115809D02*
X133905952Y-64153904D01*
X133905952Y-64153904D02*
X133982142Y-64153904D01*
X133982142Y-64153904D02*
X134058333Y-64115809D01*
X134058333Y-64115809D02*
X134096428Y-64077714D01*
X134096428Y-64077714D02*
X134134523Y-64001523D01*
X134134523Y-64001523D02*
X134172619Y-63849142D01*
X134172619Y-63849142D02*
X134172619Y-63658666D01*
X134172619Y-63658666D02*
X134134523Y-63506285D01*
X134134523Y-63506285D02*
X134096428Y-63430095D01*
X134096428Y-63430095D02*
X134058333Y-63392000D01*
X134058333Y-63392000D02*
X133982142Y-63353904D01*
D11*
%TO.C,SW49*%
X153574523Y-90429761D02*
X153431666Y-90477380D01*
X153431666Y-90477380D02*
X153193571Y-90477380D01*
X153193571Y-90477380D02*
X153098333Y-90429761D01*
X153098333Y-90429761D02*
X153050714Y-90382142D01*
X153050714Y-90382142D02*
X153003095Y-90286904D01*
X153003095Y-90286904D02*
X153003095Y-90191666D01*
X153003095Y-90191666D02*
X153050714Y-90096428D01*
X153050714Y-90096428D02*
X153098333Y-90048809D01*
X153098333Y-90048809D02*
X153193571Y-90001190D01*
X153193571Y-90001190D02*
X153384047Y-89953571D01*
X153384047Y-89953571D02*
X153479285Y-89905952D01*
X153479285Y-89905952D02*
X153526904Y-89858333D01*
X153526904Y-89858333D02*
X153574523Y-89763095D01*
X153574523Y-89763095D02*
X153574523Y-89667857D01*
X153574523Y-89667857D02*
X153526904Y-89572619D01*
X153526904Y-89572619D02*
X153479285Y-89525000D01*
X153479285Y-89525000D02*
X153384047Y-89477380D01*
X153384047Y-89477380D02*
X153145952Y-89477380D01*
X153145952Y-89477380D02*
X153003095Y-89525000D01*
X152669761Y-89477380D02*
X152431666Y-90477380D01*
X152431666Y-90477380D02*
X152241190Y-89763095D01*
X152241190Y-89763095D02*
X152050714Y-90477380D01*
X152050714Y-90477380D02*
X151812619Y-89477380D01*
X151003095Y-89810714D02*
X151003095Y-90477380D01*
X151241190Y-89429761D02*
X151479285Y-90144047D01*
X151479285Y-90144047D02*
X150860238Y-90144047D01*
X150431666Y-90477380D02*
X150241190Y-90477380D01*
X150241190Y-90477380D02*
X150145952Y-90429761D01*
X150145952Y-90429761D02*
X150098333Y-90382142D01*
X150098333Y-90382142D02*
X150003095Y-90239285D01*
X150003095Y-90239285D02*
X149955476Y-90048809D01*
X149955476Y-90048809D02*
X149955476Y-89667857D01*
X149955476Y-89667857D02*
X150003095Y-89572619D01*
X150003095Y-89572619D02*
X150050714Y-89525000D01*
X150050714Y-89525000D02*
X150145952Y-89477380D01*
X150145952Y-89477380D02*
X150336428Y-89477380D01*
X150336428Y-89477380D02*
X150431666Y-89525000D01*
X150431666Y-89525000D02*
X150479285Y-89572619D01*
X150479285Y-89572619D02*
X150526904Y-89667857D01*
X150526904Y-89667857D02*
X150526904Y-89905952D01*
X150526904Y-89905952D02*
X150479285Y-90001190D01*
X150479285Y-90001190D02*
X150431666Y-90048809D01*
X150431666Y-90048809D02*
X150336428Y-90096428D01*
X150336428Y-90096428D02*
X150145952Y-90096428D01*
X150145952Y-90096428D02*
X150050714Y-90048809D01*
X150050714Y-90048809D02*
X150003095Y-90001190D01*
X150003095Y-90001190D02*
X149955476Y-89905952D01*
%TO.C,SW21*%
X153574523Y-52329761D02*
X153431666Y-52377380D01*
X153431666Y-52377380D02*
X153193571Y-52377380D01*
X153193571Y-52377380D02*
X153098333Y-52329761D01*
X153098333Y-52329761D02*
X153050714Y-52282142D01*
X153050714Y-52282142D02*
X153003095Y-52186904D01*
X153003095Y-52186904D02*
X153003095Y-52091666D01*
X153003095Y-52091666D02*
X153050714Y-51996428D01*
X153050714Y-51996428D02*
X153098333Y-51948809D01*
X153098333Y-51948809D02*
X153193571Y-51901190D01*
X153193571Y-51901190D02*
X153384047Y-51853571D01*
X153384047Y-51853571D02*
X153479285Y-51805952D01*
X153479285Y-51805952D02*
X153526904Y-51758333D01*
X153526904Y-51758333D02*
X153574523Y-51663095D01*
X153574523Y-51663095D02*
X153574523Y-51567857D01*
X153574523Y-51567857D02*
X153526904Y-51472619D01*
X153526904Y-51472619D02*
X153479285Y-51425000D01*
X153479285Y-51425000D02*
X153384047Y-51377380D01*
X153384047Y-51377380D02*
X153145952Y-51377380D01*
X153145952Y-51377380D02*
X153003095Y-51425000D01*
X152669761Y-51377380D02*
X152431666Y-52377380D01*
X152431666Y-52377380D02*
X152241190Y-51663095D01*
X152241190Y-51663095D02*
X152050714Y-52377380D01*
X152050714Y-52377380D02*
X151812619Y-51377380D01*
X151479285Y-51472619D02*
X151431666Y-51425000D01*
X151431666Y-51425000D02*
X151336428Y-51377380D01*
X151336428Y-51377380D02*
X151098333Y-51377380D01*
X151098333Y-51377380D02*
X151003095Y-51425000D01*
X151003095Y-51425000D02*
X150955476Y-51472619D01*
X150955476Y-51472619D02*
X150907857Y-51567857D01*
X150907857Y-51567857D02*
X150907857Y-51663095D01*
X150907857Y-51663095D02*
X150955476Y-51805952D01*
X150955476Y-51805952D02*
X151526904Y-52377380D01*
X151526904Y-52377380D02*
X150907857Y-52377380D01*
X149955476Y-52377380D02*
X150526904Y-52377380D01*
X150241190Y-52377380D02*
X150241190Y-51377380D01*
X150241190Y-51377380D02*
X150336428Y-51520238D01*
X150336428Y-51520238D02*
X150431666Y-51615476D01*
X150431666Y-51615476D02*
X150526904Y-51663095D01*
D12*
%TO.C,D30*%
X59486428Y-83283904D02*
X59486428Y-82483904D01*
X59486428Y-82483904D02*
X59295952Y-82483904D01*
X59295952Y-82483904D02*
X59181666Y-82522000D01*
X59181666Y-82522000D02*
X59105476Y-82598190D01*
X59105476Y-82598190D02*
X59067381Y-82674380D01*
X59067381Y-82674380D02*
X59029285Y-82826761D01*
X59029285Y-82826761D02*
X59029285Y-82941047D01*
X59029285Y-82941047D02*
X59067381Y-83093428D01*
X59067381Y-83093428D02*
X59105476Y-83169619D01*
X59105476Y-83169619D02*
X59181666Y-83245809D01*
X59181666Y-83245809D02*
X59295952Y-83283904D01*
X59295952Y-83283904D02*
X59486428Y-83283904D01*
X58762619Y-82483904D02*
X58267381Y-82483904D01*
X58267381Y-82483904D02*
X58534047Y-82788666D01*
X58534047Y-82788666D02*
X58419762Y-82788666D01*
X58419762Y-82788666D02*
X58343571Y-82826761D01*
X58343571Y-82826761D02*
X58305476Y-82864857D01*
X58305476Y-82864857D02*
X58267381Y-82941047D01*
X58267381Y-82941047D02*
X58267381Y-83131523D01*
X58267381Y-83131523D02*
X58305476Y-83207714D01*
X58305476Y-83207714D02*
X58343571Y-83245809D01*
X58343571Y-83245809D02*
X58419762Y-83283904D01*
X58419762Y-83283904D02*
X58648333Y-83283904D01*
X58648333Y-83283904D02*
X58724524Y-83245809D01*
X58724524Y-83245809D02*
X58762619Y-83207714D01*
X57772142Y-82483904D02*
X57695952Y-82483904D01*
X57695952Y-82483904D02*
X57619761Y-82522000D01*
X57619761Y-82522000D02*
X57581666Y-82560095D01*
X57581666Y-82560095D02*
X57543571Y-82636285D01*
X57543571Y-82636285D02*
X57505476Y-82788666D01*
X57505476Y-82788666D02*
X57505476Y-82979142D01*
X57505476Y-82979142D02*
X57543571Y-83131523D01*
X57543571Y-83131523D02*
X57581666Y-83207714D01*
X57581666Y-83207714D02*
X57619761Y-83245809D01*
X57619761Y-83245809D02*
X57695952Y-83283904D01*
X57695952Y-83283904D02*
X57772142Y-83283904D01*
X57772142Y-83283904D02*
X57848333Y-83245809D01*
X57848333Y-83245809D02*
X57886428Y-83207714D01*
X57886428Y-83207714D02*
X57924523Y-83131523D01*
X57924523Y-83131523D02*
X57962619Y-82979142D01*
X57962619Y-82979142D02*
X57962619Y-82788666D01*
X57962619Y-82788666D02*
X57924523Y-82636285D01*
X57924523Y-82636285D02*
X57886428Y-82560095D01*
X57886428Y-82560095D02*
X57848333Y-82522000D01*
X57848333Y-82522000D02*
X57772142Y-82483904D01*
%TO.C,D49*%
X154771428Y-102063904D02*
X154771428Y-101263904D01*
X154771428Y-101263904D02*
X154580952Y-101263904D01*
X154580952Y-101263904D02*
X154466666Y-101302000D01*
X154466666Y-101302000D02*
X154390476Y-101378190D01*
X154390476Y-101378190D02*
X154352381Y-101454380D01*
X154352381Y-101454380D02*
X154314285Y-101606761D01*
X154314285Y-101606761D02*
X154314285Y-101721047D01*
X154314285Y-101721047D02*
X154352381Y-101873428D01*
X154352381Y-101873428D02*
X154390476Y-101949619D01*
X154390476Y-101949619D02*
X154466666Y-102025809D01*
X154466666Y-102025809D02*
X154580952Y-102063904D01*
X154580952Y-102063904D02*
X154771428Y-102063904D01*
X153628571Y-101530571D02*
X153628571Y-102063904D01*
X153819047Y-101225809D02*
X154009524Y-101797238D01*
X154009524Y-101797238D02*
X153514285Y-101797238D01*
X153171428Y-102063904D02*
X153019047Y-102063904D01*
X153019047Y-102063904D02*
X152942857Y-102025809D01*
X152942857Y-102025809D02*
X152904761Y-101987714D01*
X152904761Y-101987714D02*
X152828571Y-101873428D01*
X152828571Y-101873428D02*
X152790476Y-101721047D01*
X152790476Y-101721047D02*
X152790476Y-101416285D01*
X152790476Y-101416285D02*
X152828571Y-101340095D01*
X152828571Y-101340095D02*
X152866666Y-101302000D01*
X152866666Y-101302000D02*
X152942857Y-101263904D01*
X152942857Y-101263904D02*
X153095238Y-101263904D01*
X153095238Y-101263904D02*
X153171428Y-101302000D01*
X153171428Y-101302000D02*
X153209523Y-101340095D01*
X153209523Y-101340095D02*
X153247619Y-101416285D01*
X153247619Y-101416285D02*
X153247619Y-101606761D01*
X153247619Y-101606761D02*
X153209523Y-101682952D01*
X153209523Y-101682952D02*
X153171428Y-101721047D01*
X153171428Y-101721047D02*
X153095238Y-101759142D01*
X153095238Y-101759142D02*
X152942857Y-101759142D01*
X152942857Y-101759142D02*
X152866666Y-101721047D01*
X152866666Y-101721047D02*
X152828571Y-101682952D01*
X152828571Y-101682952D02*
X152790476Y-101606761D01*
D11*
%TO.C,SW29*%
X39274523Y-71379761D02*
X39131666Y-71427380D01*
X39131666Y-71427380D02*
X38893571Y-71427380D01*
X38893571Y-71427380D02*
X38798333Y-71379761D01*
X38798333Y-71379761D02*
X38750714Y-71332142D01*
X38750714Y-71332142D02*
X38703095Y-71236904D01*
X38703095Y-71236904D02*
X38703095Y-71141666D01*
X38703095Y-71141666D02*
X38750714Y-71046428D01*
X38750714Y-71046428D02*
X38798333Y-70998809D01*
X38798333Y-70998809D02*
X38893571Y-70951190D01*
X38893571Y-70951190D02*
X39084047Y-70903571D01*
X39084047Y-70903571D02*
X39179285Y-70855952D01*
X39179285Y-70855952D02*
X39226904Y-70808333D01*
X39226904Y-70808333D02*
X39274523Y-70713095D01*
X39274523Y-70713095D02*
X39274523Y-70617857D01*
X39274523Y-70617857D02*
X39226904Y-70522619D01*
X39226904Y-70522619D02*
X39179285Y-70475000D01*
X39179285Y-70475000D02*
X39084047Y-70427380D01*
X39084047Y-70427380D02*
X38845952Y-70427380D01*
X38845952Y-70427380D02*
X38703095Y-70475000D01*
X38369761Y-70427380D02*
X38131666Y-71427380D01*
X38131666Y-71427380D02*
X37941190Y-70713095D01*
X37941190Y-70713095D02*
X37750714Y-71427380D01*
X37750714Y-71427380D02*
X37512619Y-70427380D01*
X37179285Y-70522619D02*
X37131666Y-70475000D01*
X37131666Y-70475000D02*
X37036428Y-70427380D01*
X37036428Y-70427380D02*
X36798333Y-70427380D01*
X36798333Y-70427380D02*
X36703095Y-70475000D01*
X36703095Y-70475000D02*
X36655476Y-70522619D01*
X36655476Y-70522619D02*
X36607857Y-70617857D01*
X36607857Y-70617857D02*
X36607857Y-70713095D01*
X36607857Y-70713095D02*
X36655476Y-70855952D01*
X36655476Y-70855952D02*
X37226904Y-71427380D01*
X37226904Y-71427380D02*
X36607857Y-71427380D01*
X36131666Y-71427380D02*
X35941190Y-71427380D01*
X35941190Y-71427380D02*
X35845952Y-71379761D01*
X35845952Y-71379761D02*
X35798333Y-71332142D01*
X35798333Y-71332142D02*
X35703095Y-71189285D01*
X35703095Y-71189285D02*
X35655476Y-70998809D01*
X35655476Y-70998809D02*
X35655476Y-70617857D01*
X35655476Y-70617857D02*
X35703095Y-70522619D01*
X35703095Y-70522619D02*
X35750714Y-70475000D01*
X35750714Y-70475000D02*
X35845952Y-70427380D01*
X35845952Y-70427380D02*
X36036428Y-70427380D01*
X36036428Y-70427380D02*
X36131666Y-70475000D01*
X36131666Y-70475000D02*
X36179285Y-70522619D01*
X36179285Y-70522619D02*
X36226904Y-70617857D01*
X36226904Y-70617857D02*
X36226904Y-70855952D01*
X36226904Y-70855952D02*
X36179285Y-70951190D01*
X36179285Y-70951190D02*
X36131666Y-70998809D01*
X36131666Y-70998809D02*
X36036428Y-71046428D01*
X36036428Y-71046428D02*
X35845952Y-71046428D01*
X35845952Y-71046428D02*
X35750714Y-70998809D01*
X35750714Y-70998809D02*
X35703095Y-70951190D01*
X35703095Y-70951190D02*
X35655476Y-70855952D01*
%TO.C,SW4*%
X95948332Y-33279761D02*
X95805475Y-33327380D01*
X95805475Y-33327380D02*
X95567380Y-33327380D01*
X95567380Y-33327380D02*
X95472142Y-33279761D01*
X95472142Y-33279761D02*
X95424523Y-33232142D01*
X95424523Y-33232142D02*
X95376904Y-33136904D01*
X95376904Y-33136904D02*
X95376904Y-33041666D01*
X95376904Y-33041666D02*
X95424523Y-32946428D01*
X95424523Y-32946428D02*
X95472142Y-32898809D01*
X95472142Y-32898809D02*
X95567380Y-32851190D01*
X95567380Y-32851190D02*
X95757856Y-32803571D01*
X95757856Y-32803571D02*
X95853094Y-32755952D01*
X95853094Y-32755952D02*
X95900713Y-32708333D01*
X95900713Y-32708333D02*
X95948332Y-32613095D01*
X95948332Y-32613095D02*
X95948332Y-32517857D01*
X95948332Y-32517857D02*
X95900713Y-32422619D01*
X95900713Y-32422619D02*
X95853094Y-32375000D01*
X95853094Y-32375000D02*
X95757856Y-32327380D01*
X95757856Y-32327380D02*
X95519761Y-32327380D01*
X95519761Y-32327380D02*
X95376904Y-32375000D01*
X95043570Y-32327380D02*
X94805475Y-33327380D01*
X94805475Y-33327380D02*
X94614999Y-32613095D01*
X94614999Y-32613095D02*
X94424523Y-33327380D01*
X94424523Y-33327380D02*
X94186428Y-32327380D01*
X93376904Y-32660714D02*
X93376904Y-33327380D01*
X93614999Y-32279761D02*
X93853094Y-32994047D01*
X93853094Y-32994047D02*
X93234047Y-32994047D01*
D12*
%TO.C,D45*%
X88153904Y-93773571D02*
X87353904Y-93773571D01*
X87353904Y-93773571D02*
X87353904Y-93964047D01*
X87353904Y-93964047D02*
X87392000Y-94078333D01*
X87392000Y-94078333D02*
X87468190Y-94154523D01*
X87468190Y-94154523D02*
X87544380Y-94192618D01*
X87544380Y-94192618D02*
X87696761Y-94230714D01*
X87696761Y-94230714D02*
X87811047Y-94230714D01*
X87811047Y-94230714D02*
X87963428Y-94192618D01*
X87963428Y-94192618D02*
X88039619Y-94154523D01*
X88039619Y-94154523D02*
X88115809Y-94078333D01*
X88115809Y-94078333D02*
X88153904Y-93964047D01*
X88153904Y-93964047D02*
X88153904Y-93773571D01*
X87620571Y-94916428D02*
X88153904Y-94916428D01*
X87315809Y-94725952D02*
X87887238Y-94535475D01*
X87887238Y-94535475D02*
X87887238Y-95030714D01*
X87353904Y-95716428D02*
X87353904Y-95335476D01*
X87353904Y-95335476D02*
X87734857Y-95297380D01*
X87734857Y-95297380D02*
X87696761Y-95335476D01*
X87696761Y-95335476D02*
X87658666Y-95411666D01*
X87658666Y-95411666D02*
X87658666Y-95602142D01*
X87658666Y-95602142D02*
X87696761Y-95678333D01*
X87696761Y-95678333D02*
X87734857Y-95716428D01*
X87734857Y-95716428D02*
X87811047Y-95754523D01*
X87811047Y-95754523D02*
X88001523Y-95754523D01*
X88001523Y-95754523D02*
X88077714Y-95716428D01*
X88077714Y-95716428D02*
X88115809Y-95678333D01*
X88115809Y-95678333D02*
X88153904Y-95602142D01*
X88153904Y-95602142D02*
X88153904Y-95411666D01*
X88153904Y-95411666D02*
X88115809Y-95335476D01*
X88115809Y-95335476D02*
X88077714Y-95297380D01*
%TO.C,D19*%
X116626428Y-64153904D02*
X116626428Y-63353904D01*
X116626428Y-63353904D02*
X116435952Y-63353904D01*
X116435952Y-63353904D02*
X116321666Y-63392000D01*
X116321666Y-63392000D02*
X116245476Y-63468190D01*
X116245476Y-63468190D02*
X116207381Y-63544380D01*
X116207381Y-63544380D02*
X116169285Y-63696761D01*
X116169285Y-63696761D02*
X116169285Y-63811047D01*
X116169285Y-63811047D02*
X116207381Y-63963428D01*
X116207381Y-63963428D02*
X116245476Y-64039619D01*
X116245476Y-64039619D02*
X116321666Y-64115809D01*
X116321666Y-64115809D02*
X116435952Y-64153904D01*
X116435952Y-64153904D02*
X116626428Y-64153904D01*
X115407381Y-64153904D02*
X115864524Y-64153904D01*
X115635952Y-64153904D02*
X115635952Y-63353904D01*
X115635952Y-63353904D02*
X115712143Y-63468190D01*
X115712143Y-63468190D02*
X115788333Y-63544380D01*
X115788333Y-63544380D02*
X115864524Y-63582476D01*
X115026428Y-64153904D02*
X114874047Y-64153904D01*
X114874047Y-64153904D02*
X114797857Y-64115809D01*
X114797857Y-64115809D02*
X114759761Y-64077714D01*
X114759761Y-64077714D02*
X114683571Y-63963428D01*
X114683571Y-63963428D02*
X114645476Y-63811047D01*
X114645476Y-63811047D02*
X114645476Y-63506285D01*
X114645476Y-63506285D02*
X114683571Y-63430095D01*
X114683571Y-63430095D02*
X114721666Y-63392000D01*
X114721666Y-63392000D02*
X114797857Y-63353904D01*
X114797857Y-63353904D02*
X114950238Y-63353904D01*
X114950238Y-63353904D02*
X115026428Y-63392000D01*
X115026428Y-63392000D02*
X115064523Y-63430095D01*
X115064523Y-63430095D02*
X115102619Y-63506285D01*
X115102619Y-63506285D02*
X115102619Y-63696761D01*
X115102619Y-63696761D02*
X115064523Y-63772952D01*
X115064523Y-63772952D02*
X115026428Y-63811047D01*
X115026428Y-63811047D02*
X114950238Y-63849142D01*
X114950238Y-63849142D02*
X114797857Y-63849142D01*
X114797857Y-63849142D02*
X114721666Y-63811047D01*
X114721666Y-63811047D02*
X114683571Y-63772952D01*
X114683571Y-63772952D02*
X114645476Y-63696761D01*
D11*
%TO.C,SW59*%
X134524523Y-109479761D02*
X134381666Y-109527380D01*
X134381666Y-109527380D02*
X134143571Y-109527380D01*
X134143571Y-109527380D02*
X134048333Y-109479761D01*
X134048333Y-109479761D02*
X134000714Y-109432142D01*
X134000714Y-109432142D02*
X133953095Y-109336904D01*
X133953095Y-109336904D02*
X133953095Y-109241666D01*
X133953095Y-109241666D02*
X134000714Y-109146428D01*
X134000714Y-109146428D02*
X134048333Y-109098809D01*
X134048333Y-109098809D02*
X134143571Y-109051190D01*
X134143571Y-109051190D02*
X134334047Y-109003571D01*
X134334047Y-109003571D02*
X134429285Y-108955952D01*
X134429285Y-108955952D02*
X134476904Y-108908333D01*
X134476904Y-108908333D02*
X134524523Y-108813095D01*
X134524523Y-108813095D02*
X134524523Y-108717857D01*
X134524523Y-108717857D02*
X134476904Y-108622619D01*
X134476904Y-108622619D02*
X134429285Y-108575000D01*
X134429285Y-108575000D02*
X134334047Y-108527380D01*
X134334047Y-108527380D02*
X134095952Y-108527380D01*
X134095952Y-108527380D02*
X133953095Y-108575000D01*
X133619761Y-108527380D02*
X133381666Y-109527380D01*
X133381666Y-109527380D02*
X133191190Y-108813095D01*
X133191190Y-108813095D02*
X133000714Y-109527380D01*
X133000714Y-109527380D02*
X132762619Y-108527380D01*
X131905476Y-108527380D02*
X132381666Y-108527380D01*
X132381666Y-108527380D02*
X132429285Y-109003571D01*
X132429285Y-109003571D02*
X132381666Y-108955952D01*
X132381666Y-108955952D02*
X132286428Y-108908333D01*
X132286428Y-108908333D02*
X132048333Y-108908333D01*
X132048333Y-108908333D02*
X131953095Y-108955952D01*
X131953095Y-108955952D02*
X131905476Y-109003571D01*
X131905476Y-109003571D02*
X131857857Y-109098809D01*
X131857857Y-109098809D02*
X131857857Y-109336904D01*
X131857857Y-109336904D02*
X131905476Y-109432142D01*
X131905476Y-109432142D02*
X131953095Y-109479761D01*
X131953095Y-109479761D02*
X132048333Y-109527380D01*
X132048333Y-109527380D02*
X132286428Y-109527380D01*
X132286428Y-109527380D02*
X132381666Y-109479761D01*
X132381666Y-109479761D02*
X132429285Y-109432142D01*
X131381666Y-109527380D02*
X131191190Y-109527380D01*
X131191190Y-109527380D02*
X131095952Y-109479761D01*
X131095952Y-109479761D02*
X131048333Y-109432142D01*
X131048333Y-109432142D02*
X130953095Y-109289285D01*
X130953095Y-109289285D02*
X130905476Y-109098809D01*
X130905476Y-109098809D02*
X130905476Y-108717857D01*
X130905476Y-108717857D02*
X130953095Y-108622619D01*
X130953095Y-108622619D02*
X131000714Y-108575000D01*
X131000714Y-108575000D02*
X131095952Y-108527380D01*
X131095952Y-108527380D02*
X131286428Y-108527380D01*
X131286428Y-108527380D02*
X131381666Y-108575000D01*
X131381666Y-108575000D02*
X131429285Y-108622619D01*
X131429285Y-108622619D02*
X131476904Y-108717857D01*
X131476904Y-108717857D02*
X131476904Y-108955952D01*
X131476904Y-108955952D02*
X131429285Y-109051190D01*
X131429285Y-109051190D02*
X131381666Y-109098809D01*
X131381666Y-109098809D02*
X131286428Y-109146428D01*
X131286428Y-109146428D02*
X131095952Y-109146428D01*
X131095952Y-109146428D02*
X131000714Y-109098809D01*
X131000714Y-109098809D02*
X130953095Y-109051190D01*
X130953095Y-109051190D02*
X130905476Y-108955952D01*
%TO.C,SW20*%
X134524523Y-52329761D02*
X134381666Y-52377380D01*
X134381666Y-52377380D02*
X134143571Y-52377380D01*
X134143571Y-52377380D02*
X134048333Y-52329761D01*
X134048333Y-52329761D02*
X134000714Y-52282142D01*
X134000714Y-52282142D02*
X133953095Y-52186904D01*
X133953095Y-52186904D02*
X133953095Y-52091666D01*
X133953095Y-52091666D02*
X134000714Y-51996428D01*
X134000714Y-51996428D02*
X134048333Y-51948809D01*
X134048333Y-51948809D02*
X134143571Y-51901190D01*
X134143571Y-51901190D02*
X134334047Y-51853571D01*
X134334047Y-51853571D02*
X134429285Y-51805952D01*
X134429285Y-51805952D02*
X134476904Y-51758333D01*
X134476904Y-51758333D02*
X134524523Y-51663095D01*
X134524523Y-51663095D02*
X134524523Y-51567857D01*
X134524523Y-51567857D02*
X134476904Y-51472619D01*
X134476904Y-51472619D02*
X134429285Y-51425000D01*
X134429285Y-51425000D02*
X134334047Y-51377380D01*
X134334047Y-51377380D02*
X134095952Y-51377380D01*
X134095952Y-51377380D02*
X133953095Y-51425000D01*
X133619761Y-51377380D02*
X133381666Y-52377380D01*
X133381666Y-52377380D02*
X133191190Y-51663095D01*
X133191190Y-51663095D02*
X133000714Y-52377380D01*
X133000714Y-52377380D02*
X132762619Y-51377380D01*
X132429285Y-51472619D02*
X132381666Y-51425000D01*
X132381666Y-51425000D02*
X132286428Y-51377380D01*
X132286428Y-51377380D02*
X132048333Y-51377380D01*
X132048333Y-51377380D02*
X131953095Y-51425000D01*
X131953095Y-51425000D02*
X131905476Y-51472619D01*
X131905476Y-51472619D02*
X131857857Y-51567857D01*
X131857857Y-51567857D02*
X131857857Y-51663095D01*
X131857857Y-51663095D02*
X131905476Y-51805952D01*
X131905476Y-51805952D02*
X132476904Y-52377380D01*
X132476904Y-52377380D02*
X131857857Y-52377380D01*
X131238809Y-51377380D02*
X131143571Y-51377380D01*
X131143571Y-51377380D02*
X131048333Y-51425000D01*
X131048333Y-51425000D02*
X131000714Y-51472619D01*
X131000714Y-51472619D02*
X130953095Y-51567857D01*
X130953095Y-51567857D02*
X130905476Y-51758333D01*
X130905476Y-51758333D02*
X130905476Y-51996428D01*
X130905476Y-51996428D02*
X130953095Y-52186904D01*
X130953095Y-52186904D02*
X131000714Y-52282142D01*
X131000714Y-52282142D02*
X131048333Y-52329761D01*
X131048333Y-52329761D02*
X131143571Y-52377380D01*
X131143571Y-52377380D02*
X131238809Y-52377380D01*
X131238809Y-52377380D02*
X131334047Y-52329761D01*
X131334047Y-52329761D02*
X131381666Y-52282142D01*
X131381666Y-52282142D02*
X131429285Y-52186904D01*
X131429285Y-52186904D02*
X131476904Y-51996428D01*
X131476904Y-51996428D02*
X131476904Y-51758333D01*
X131476904Y-51758333D02*
X131429285Y-51567857D01*
X131429285Y-51567857D02*
X131381666Y-51472619D01*
X131381666Y-51472619D02*
X131334047Y-51425000D01*
X131334047Y-51425000D02*
X131238809Y-51377380D01*
%TO.C,SW32*%
X96424523Y-71379761D02*
X96281666Y-71427380D01*
X96281666Y-71427380D02*
X96043571Y-71427380D01*
X96043571Y-71427380D02*
X95948333Y-71379761D01*
X95948333Y-71379761D02*
X95900714Y-71332142D01*
X95900714Y-71332142D02*
X95853095Y-71236904D01*
X95853095Y-71236904D02*
X95853095Y-71141666D01*
X95853095Y-71141666D02*
X95900714Y-71046428D01*
X95900714Y-71046428D02*
X95948333Y-70998809D01*
X95948333Y-70998809D02*
X96043571Y-70951190D01*
X96043571Y-70951190D02*
X96234047Y-70903571D01*
X96234047Y-70903571D02*
X96329285Y-70855952D01*
X96329285Y-70855952D02*
X96376904Y-70808333D01*
X96376904Y-70808333D02*
X96424523Y-70713095D01*
X96424523Y-70713095D02*
X96424523Y-70617857D01*
X96424523Y-70617857D02*
X96376904Y-70522619D01*
X96376904Y-70522619D02*
X96329285Y-70475000D01*
X96329285Y-70475000D02*
X96234047Y-70427380D01*
X96234047Y-70427380D02*
X95995952Y-70427380D01*
X95995952Y-70427380D02*
X95853095Y-70475000D01*
X95519761Y-70427380D02*
X95281666Y-71427380D01*
X95281666Y-71427380D02*
X95091190Y-70713095D01*
X95091190Y-70713095D02*
X94900714Y-71427380D01*
X94900714Y-71427380D02*
X94662619Y-70427380D01*
X94376904Y-70427380D02*
X93757857Y-70427380D01*
X93757857Y-70427380D02*
X94091190Y-70808333D01*
X94091190Y-70808333D02*
X93948333Y-70808333D01*
X93948333Y-70808333D02*
X93853095Y-70855952D01*
X93853095Y-70855952D02*
X93805476Y-70903571D01*
X93805476Y-70903571D02*
X93757857Y-70998809D01*
X93757857Y-70998809D02*
X93757857Y-71236904D01*
X93757857Y-71236904D02*
X93805476Y-71332142D01*
X93805476Y-71332142D02*
X93853095Y-71379761D01*
X93853095Y-71379761D02*
X93948333Y-71427380D01*
X93948333Y-71427380D02*
X94234047Y-71427380D01*
X94234047Y-71427380D02*
X94329285Y-71379761D01*
X94329285Y-71379761D02*
X94376904Y-71332142D01*
X93376904Y-70522619D02*
X93329285Y-70475000D01*
X93329285Y-70475000D02*
X93234047Y-70427380D01*
X93234047Y-70427380D02*
X92995952Y-70427380D01*
X92995952Y-70427380D02*
X92900714Y-70475000D01*
X92900714Y-70475000D02*
X92853095Y-70522619D01*
X92853095Y-70522619D02*
X92805476Y-70617857D01*
X92805476Y-70617857D02*
X92805476Y-70713095D01*
X92805476Y-70713095D02*
X92853095Y-70855952D01*
X92853095Y-70855952D02*
X93424523Y-71427380D01*
X93424523Y-71427380D02*
X92805476Y-71427380D01*
%TO.C,SW2*%
X57778332Y-33279761D02*
X57635475Y-33327380D01*
X57635475Y-33327380D02*
X57397380Y-33327380D01*
X57397380Y-33327380D02*
X57302142Y-33279761D01*
X57302142Y-33279761D02*
X57254523Y-33232142D01*
X57254523Y-33232142D02*
X57206904Y-33136904D01*
X57206904Y-33136904D02*
X57206904Y-33041666D01*
X57206904Y-33041666D02*
X57254523Y-32946428D01*
X57254523Y-32946428D02*
X57302142Y-32898809D01*
X57302142Y-32898809D02*
X57397380Y-32851190D01*
X57397380Y-32851190D02*
X57587856Y-32803571D01*
X57587856Y-32803571D02*
X57683094Y-32755952D01*
X57683094Y-32755952D02*
X57730713Y-32708333D01*
X57730713Y-32708333D02*
X57778332Y-32613095D01*
X57778332Y-32613095D02*
X57778332Y-32517857D01*
X57778332Y-32517857D02*
X57730713Y-32422619D01*
X57730713Y-32422619D02*
X57683094Y-32375000D01*
X57683094Y-32375000D02*
X57587856Y-32327380D01*
X57587856Y-32327380D02*
X57349761Y-32327380D01*
X57349761Y-32327380D02*
X57206904Y-32375000D01*
X56873570Y-32327380D02*
X56635475Y-33327380D01*
X56635475Y-33327380D02*
X56444999Y-32613095D01*
X56444999Y-32613095D02*
X56254523Y-33327380D01*
X56254523Y-33327380D02*
X56016428Y-32327380D01*
X55683094Y-32422619D02*
X55635475Y-32375000D01*
X55635475Y-32375000D02*
X55540237Y-32327380D01*
X55540237Y-32327380D02*
X55302142Y-32327380D01*
X55302142Y-32327380D02*
X55206904Y-32375000D01*
X55206904Y-32375000D02*
X55159285Y-32422619D01*
X55159285Y-32422619D02*
X55111666Y-32517857D01*
X55111666Y-32517857D02*
X55111666Y-32613095D01*
X55111666Y-32613095D02*
X55159285Y-32755952D01*
X55159285Y-32755952D02*
X55730713Y-33327380D01*
X55730713Y-33327380D02*
X55111666Y-33327380D01*
%TO.C,SW3*%
X76898332Y-33279761D02*
X76755475Y-33327380D01*
X76755475Y-33327380D02*
X76517380Y-33327380D01*
X76517380Y-33327380D02*
X76422142Y-33279761D01*
X76422142Y-33279761D02*
X76374523Y-33232142D01*
X76374523Y-33232142D02*
X76326904Y-33136904D01*
X76326904Y-33136904D02*
X76326904Y-33041666D01*
X76326904Y-33041666D02*
X76374523Y-32946428D01*
X76374523Y-32946428D02*
X76422142Y-32898809D01*
X76422142Y-32898809D02*
X76517380Y-32851190D01*
X76517380Y-32851190D02*
X76707856Y-32803571D01*
X76707856Y-32803571D02*
X76803094Y-32755952D01*
X76803094Y-32755952D02*
X76850713Y-32708333D01*
X76850713Y-32708333D02*
X76898332Y-32613095D01*
X76898332Y-32613095D02*
X76898332Y-32517857D01*
X76898332Y-32517857D02*
X76850713Y-32422619D01*
X76850713Y-32422619D02*
X76803094Y-32375000D01*
X76803094Y-32375000D02*
X76707856Y-32327380D01*
X76707856Y-32327380D02*
X76469761Y-32327380D01*
X76469761Y-32327380D02*
X76326904Y-32375000D01*
X75993570Y-32327380D02*
X75755475Y-33327380D01*
X75755475Y-33327380D02*
X75564999Y-32613095D01*
X75564999Y-32613095D02*
X75374523Y-33327380D01*
X75374523Y-33327380D02*
X75136428Y-32327380D01*
X74850713Y-32327380D02*
X74231666Y-32327380D01*
X74231666Y-32327380D02*
X74564999Y-32708333D01*
X74564999Y-32708333D02*
X74422142Y-32708333D01*
X74422142Y-32708333D02*
X74326904Y-32755952D01*
X74326904Y-32755952D02*
X74279285Y-32803571D01*
X74279285Y-32803571D02*
X74231666Y-32898809D01*
X74231666Y-32898809D02*
X74231666Y-33136904D01*
X74231666Y-33136904D02*
X74279285Y-33232142D01*
X74279285Y-33232142D02*
X74326904Y-33279761D01*
X74326904Y-33279761D02*
X74422142Y-33327380D01*
X74422142Y-33327380D02*
X74707856Y-33327380D01*
X74707856Y-33327380D02*
X74803094Y-33279761D01*
X74803094Y-33279761D02*
X74850713Y-33232142D01*
%TO.C,SW7*%
X153098332Y-33279761D02*
X152955475Y-33327380D01*
X152955475Y-33327380D02*
X152717380Y-33327380D01*
X152717380Y-33327380D02*
X152622142Y-33279761D01*
X152622142Y-33279761D02*
X152574523Y-33232142D01*
X152574523Y-33232142D02*
X152526904Y-33136904D01*
X152526904Y-33136904D02*
X152526904Y-33041666D01*
X152526904Y-33041666D02*
X152574523Y-32946428D01*
X152574523Y-32946428D02*
X152622142Y-32898809D01*
X152622142Y-32898809D02*
X152717380Y-32851190D01*
X152717380Y-32851190D02*
X152907856Y-32803571D01*
X152907856Y-32803571D02*
X153003094Y-32755952D01*
X153003094Y-32755952D02*
X153050713Y-32708333D01*
X153050713Y-32708333D02*
X153098332Y-32613095D01*
X153098332Y-32613095D02*
X153098332Y-32517857D01*
X153098332Y-32517857D02*
X153050713Y-32422619D01*
X153050713Y-32422619D02*
X153003094Y-32375000D01*
X153003094Y-32375000D02*
X152907856Y-32327380D01*
X152907856Y-32327380D02*
X152669761Y-32327380D01*
X152669761Y-32327380D02*
X152526904Y-32375000D01*
X152193570Y-32327380D02*
X151955475Y-33327380D01*
X151955475Y-33327380D02*
X151764999Y-32613095D01*
X151764999Y-32613095D02*
X151574523Y-33327380D01*
X151574523Y-33327380D02*
X151336428Y-32327380D01*
X151050713Y-32327380D02*
X150384047Y-32327380D01*
X150384047Y-32327380D02*
X150812618Y-33327380D01*
%TO.C,SW17*%
X77374523Y-52329761D02*
X77231666Y-52377380D01*
X77231666Y-52377380D02*
X76993571Y-52377380D01*
X76993571Y-52377380D02*
X76898333Y-52329761D01*
X76898333Y-52329761D02*
X76850714Y-52282142D01*
X76850714Y-52282142D02*
X76803095Y-52186904D01*
X76803095Y-52186904D02*
X76803095Y-52091666D01*
X76803095Y-52091666D02*
X76850714Y-51996428D01*
X76850714Y-51996428D02*
X76898333Y-51948809D01*
X76898333Y-51948809D02*
X76993571Y-51901190D01*
X76993571Y-51901190D02*
X77184047Y-51853571D01*
X77184047Y-51853571D02*
X77279285Y-51805952D01*
X77279285Y-51805952D02*
X77326904Y-51758333D01*
X77326904Y-51758333D02*
X77374523Y-51663095D01*
X77374523Y-51663095D02*
X77374523Y-51567857D01*
X77374523Y-51567857D02*
X77326904Y-51472619D01*
X77326904Y-51472619D02*
X77279285Y-51425000D01*
X77279285Y-51425000D02*
X77184047Y-51377380D01*
X77184047Y-51377380D02*
X76945952Y-51377380D01*
X76945952Y-51377380D02*
X76803095Y-51425000D01*
X76469761Y-51377380D02*
X76231666Y-52377380D01*
X76231666Y-52377380D02*
X76041190Y-51663095D01*
X76041190Y-51663095D02*
X75850714Y-52377380D01*
X75850714Y-52377380D02*
X75612619Y-51377380D01*
X74707857Y-52377380D02*
X75279285Y-52377380D01*
X74993571Y-52377380D02*
X74993571Y-51377380D01*
X74993571Y-51377380D02*
X75088809Y-51520238D01*
X75088809Y-51520238D02*
X75184047Y-51615476D01*
X75184047Y-51615476D02*
X75279285Y-51663095D01*
X74374523Y-51377380D02*
X73707857Y-51377380D01*
X73707857Y-51377380D02*
X74136428Y-52377380D01*
D12*
%TO.C,D3*%
X78255475Y-44833904D02*
X78255475Y-44033904D01*
X78255475Y-44033904D02*
X78064999Y-44033904D01*
X78064999Y-44033904D02*
X77950713Y-44072000D01*
X77950713Y-44072000D02*
X77874523Y-44148190D01*
X77874523Y-44148190D02*
X77836428Y-44224380D01*
X77836428Y-44224380D02*
X77798332Y-44376761D01*
X77798332Y-44376761D02*
X77798332Y-44491047D01*
X77798332Y-44491047D02*
X77836428Y-44643428D01*
X77836428Y-44643428D02*
X77874523Y-44719619D01*
X77874523Y-44719619D02*
X77950713Y-44795809D01*
X77950713Y-44795809D02*
X78064999Y-44833904D01*
X78064999Y-44833904D02*
X78255475Y-44833904D01*
X77531666Y-44033904D02*
X77036428Y-44033904D01*
X77036428Y-44033904D02*
X77303094Y-44338666D01*
X77303094Y-44338666D02*
X77188809Y-44338666D01*
X77188809Y-44338666D02*
X77112618Y-44376761D01*
X77112618Y-44376761D02*
X77074523Y-44414857D01*
X77074523Y-44414857D02*
X77036428Y-44491047D01*
X77036428Y-44491047D02*
X77036428Y-44681523D01*
X77036428Y-44681523D02*
X77074523Y-44757714D01*
X77074523Y-44757714D02*
X77112618Y-44795809D01*
X77112618Y-44795809D02*
X77188809Y-44833904D01*
X77188809Y-44833904D02*
X77417380Y-44833904D01*
X77417380Y-44833904D02*
X77493571Y-44795809D01*
X77493571Y-44795809D02*
X77531666Y-44757714D01*
D11*
%TO.C,SW48*%
X134524523Y-90473561D02*
X134381666Y-90521180D01*
X134381666Y-90521180D02*
X134143571Y-90521180D01*
X134143571Y-90521180D02*
X134048333Y-90473561D01*
X134048333Y-90473561D02*
X134000714Y-90425942D01*
X134000714Y-90425942D02*
X133953095Y-90330704D01*
X133953095Y-90330704D02*
X133953095Y-90235466D01*
X133953095Y-90235466D02*
X134000714Y-90140228D01*
X134000714Y-90140228D02*
X134048333Y-90092609D01*
X134048333Y-90092609D02*
X134143571Y-90044990D01*
X134143571Y-90044990D02*
X134334047Y-89997371D01*
X134334047Y-89997371D02*
X134429285Y-89949752D01*
X134429285Y-89949752D02*
X134476904Y-89902133D01*
X134476904Y-89902133D02*
X134524523Y-89806895D01*
X134524523Y-89806895D02*
X134524523Y-89711657D01*
X134524523Y-89711657D02*
X134476904Y-89616419D01*
X134476904Y-89616419D02*
X134429285Y-89568800D01*
X134429285Y-89568800D02*
X134334047Y-89521180D01*
X134334047Y-89521180D02*
X134095952Y-89521180D01*
X134095952Y-89521180D02*
X133953095Y-89568800D01*
X133619761Y-89521180D02*
X133381666Y-90521180D01*
X133381666Y-90521180D02*
X133191190Y-89806895D01*
X133191190Y-89806895D02*
X133000714Y-90521180D01*
X133000714Y-90521180D02*
X132762619Y-89521180D01*
X131953095Y-89854514D02*
X131953095Y-90521180D01*
X132191190Y-89473561D02*
X132429285Y-90187847D01*
X132429285Y-90187847D02*
X131810238Y-90187847D01*
X131286428Y-89949752D02*
X131381666Y-89902133D01*
X131381666Y-89902133D02*
X131429285Y-89854514D01*
X131429285Y-89854514D02*
X131476904Y-89759276D01*
X131476904Y-89759276D02*
X131476904Y-89711657D01*
X131476904Y-89711657D02*
X131429285Y-89616419D01*
X131429285Y-89616419D02*
X131381666Y-89568800D01*
X131381666Y-89568800D02*
X131286428Y-89521180D01*
X131286428Y-89521180D02*
X131095952Y-89521180D01*
X131095952Y-89521180D02*
X131000714Y-89568800D01*
X131000714Y-89568800D02*
X130953095Y-89616419D01*
X130953095Y-89616419D02*
X130905476Y-89711657D01*
X130905476Y-89711657D02*
X130905476Y-89759276D01*
X130905476Y-89759276D02*
X130953095Y-89854514D01*
X130953095Y-89854514D02*
X131000714Y-89902133D01*
X131000714Y-89902133D02*
X131095952Y-89949752D01*
X131095952Y-89949752D02*
X131286428Y-89949752D01*
X131286428Y-89949752D02*
X131381666Y-89997371D01*
X131381666Y-89997371D02*
X131429285Y-90044990D01*
X131429285Y-90044990D02*
X131476904Y-90140228D01*
X131476904Y-90140228D02*
X131476904Y-90330704D01*
X131476904Y-90330704D02*
X131429285Y-90425942D01*
X131429285Y-90425942D02*
X131381666Y-90473561D01*
X131381666Y-90473561D02*
X131286428Y-90521180D01*
X131286428Y-90521180D02*
X131095952Y-90521180D01*
X131095952Y-90521180D02*
X131000714Y-90473561D01*
X131000714Y-90473561D02*
X130953095Y-90425942D01*
X130953095Y-90425942D02*
X130905476Y-90330704D01*
X130905476Y-90330704D02*
X130905476Y-90140228D01*
X130905476Y-90140228D02*
X130953095Y-90044990D01*
X130953095Y-90044990D02*
X131000714Y-89997371D01*
X131000714Y-89997371D02*
X131095952Y-89949752D01*
D12*
%TO.C,D48*%
X135696428Y-102063904D02*
X135696428Y-101263904D01*
X135696428Y-101263904D02*
X135505952Y-101263904D01*
X135505952Y-101263904D02*
X135391666Y-101302000D01*
X135391666Y-101302000D02*
X135315476Y-101378190D01*
X135315476Y-101378190D02*
X135277381Y-101454380D01*
X135277381Y-101454380D02*
X135239285Y-101606761D01*
X135239285Y-101606761D02*
X135239285Y-101721047D01*
X135239285Y-101721047D02*
X135277381Y-101873428D01*
X135277381Y-101873428D02*
X135315476Y-101949619D01*
X135315476Y-101949619D02*
X135391666Y-102025809D01*
X135391666Y-102025809D02*
X135505952Y-102063904D01*
X135505952Y-102063904D02*
X135696428Y-102063904D01*
X134553571Y-101530571D02*
X134553571Y-102063904D01*
X134744047Y-101225809D02*
X134934524Y-101797238D01*
X134934524Y-101797238D02*
X134439285Y-101797238D01*
X134020238Y-101606761D02*
X134096428Y-101568666D01*
X134096428Y-101568666D02*
X134134523Y-101530571D01*
X134134523Y-101530571D02*
X134172619Y-101454380D01*
X134172619Y-101454380D02*
X134172619Y-101416285D01*
X134172619Y-101416285D02*
X134134523Y-101340095D01*
X134134523Y-101340095D02*
X134096428Y-101302000D01*
X134096428Y-101302000D02*
X134020238Y-101263904D01*
X134020238Y-101263904D02*
X133867857Y-101263904D01*
X133867857Y-101263904D02*
X133791666Y-101302000D01*
X133791666Y-101302000D02*
X133753571Y-101340095D01*
X133753571Y-101340095D02*
X133715476Y-101416285D01*
X133715476Y-101416285D02*
X133715476Y-101454380D01*
X133715476Y-101454380D02*
X133753571Y-101530571D01*
X133753571Y-101530571D02*
X133791666Y-101568666D01*
X133791666Y-101568666D02*
X133867857Y-101606761D01*
X133867857Y-101606761D02*
X134020238Y-101606761D01*
X134020238Y-101606761D02*
X134096428Y-101644857D01*
X134096428Y-101644857D02*
X134134523Y-101682952D01*
X134134523Y-101682952D02*
X134172619Y-101759142D01*
X134172619Y-101759142D02*
X134172619Y-101911523D01*
X134172619Y-101911523D02*
X134134523Y-101987714D01*
X134134523Y-101987714D02*
X134096428Y-102025809D01*
X134096428Y-102025809D02*
X134020238Y-102063904D01*
X134020238Y-102063904D02*
X133867857Y-102063904D01*
X133867857Y-102063904D02*
X133791666Y-102025809D01*
X133791666Y-102025809D02*
X133753571Y-101987714D01*
X133753571Y-101987714D02*
X133715476Y-101911523D01*
X133715476Y-101911523D02*
X133715476Y-101759142D01*
X133715476Y-101759142D02*
X133753571Y-101682952D01*
X133753571Y-101682952D02*
X133791666Y-101644857D01*
X133791666Y-101644857D02*
X133867857Y-101606761D01*
D11*
%TO.C,SW60*%
X153574523Y-109479761D02*
X153431666Y-109527380D01*
X153431666Y-109527380D02*
X153193571Y-109527380D01*
X153193571Y-109527380D02*
X153098333Y-109479761D01*
X153098333Y-109479761D02*
X153050714Y-109432142D01*
X153050714Y-109432142D02*
X153003095Y-109336904D01*
X153003095Y-109336904D02*
X153003095Y-109241666D01*
X153003095Y-109241666D02*
X153050714Y-109146428D01*
X153050714Y-109146428D02*
X153098333Y-109098809D01*
X153098333Y-109098809D02*
X153193571Y-109051190D01*
X153193571Y-109051190D02*
X153384047Y-109003571D01*
X153384047Y-109003571D02*
X153479285Y-108955952D01*
X153479285Y-108955952D02*
X153526904Y-108908333D01*
X153526904Y-108908333D02*
X153574523Y-108813095D01*
X153574523Y-108813095D02*
X153574523Y-108717857D01*
X153574523Y-108717857D02*
X153526904Y-108622619D01*
X153526904Y-108622619D02*
X153479285Y-108575000D01*
X153479285Y-108575000D02*
X153384047Y-108527380D01*
X153384047Y-108527380D02*
X153145952Y-108527380D01*
X153145952Y-108527380D02*
X153003095Y-108575000D01*
X152669761Y-108527380D02*
X152431666Y-109527380D01*
X152431666Y-109527380D02*
X152241190Y-108813095D01*
X152241190Y-108813095D02*
X152050714Y-109527380D01*
X152050714Y-109527380D02*
X151812619Y-108527380D01*
X151003095Y-108527380D02*
X151193571Y-108527380D01*
X151193571Y-108527380D02*
X151288809Y-108575000D01*
X151288809Y-108575000D02*
X151336428Y-108622619D01*
X151336428Y-108622619D02*
X151431666Y-108765476D01*
X151431666Y-108765476D02*
X151479285Y-108955952D01*
X151479285Y-108955952D02*
X151479285Y-109336904D01*
X151479285Y-109336904D02*
X151431666Y-109432142D01*
X151431666Y-109432142D02*
X151384047Y-109479761D01*
X151384047Y-109479761D02*
X151288809Y-109527380D01*
X151288809Y-109527380D02*
X151098333Y-109527380D01*
X151098333Y-109527380D02*
X151003095Y-109479761D01*
X151003095Y-109479761D02*
X150955476Y-109432142D01*
X150955476Y-109432142D02*
X150907857Y-109336904D01*
X150907857Y-109336904D02*
X150907857Y-109098809D01*
X150907857Y-109098809D02*
X150955476Y-109003571D01*
X150955476Y-109003571D02*
X151003095Y-108955952D01*
X151003095Y-108955952D02*
X151098333Y-108908333D01*
X151098333Y-108908333D02*
X151288809Y-108908333D01*
X151288809Y-108908333D02*
X151384047Y-108955952D01*
X151384047Y-108955952D02*
X151431666Y-109003571D01*
X151431666Y-109003571D02*
X151479285Y-109098809D01*
X150288809Y-108527380D02*
X150193571Y-108527380D01*
X150193571Y-108527380D02*
X150098333Y-108575000D01*
X150098333Y-108575000D02*
X150050714Y-108622619D01*
X150050714Y-108622619D02*
X150003095Y-108717857D01*
X150003095Y-108717857D02*
X149955476Y-108908333D01*
X149955476Y-108908333D02*
X149955476Y-109146428D01*
X149955476Y-109146428D02*
X150003095Y-109336904D01*
X150003095Y-109336904D02*
X150050714Y-109432142D01*
X150050714Y-109432142D02*
X150098333Y-109479761D01*
X150098333Y-109479761D02*
X150193571Y-109527380D01*
X150193571Y-109527380D02*
X150288809Y-109527380D01*
X150288809Y-109527380D02*
X150384047Y-109479761D01*
X150384047Y-109479761D02*
X150431666Y-109432142D01*
X150431666Y-109432142D02*
X150479285Y-109336904D01*
X150479285Y-109336904D02*
X150526904Y-109146428D01*
X150526904Y-109146428D02*
X150526904Y-108908333D01*
X150526904Y-108908333D02*
X150479285Y-108717857D01*
X150479285Y-108717857D02*
X150431666Y-108622619D01*
X150431666Y-108622619D02*
X150384047Y-108575000D01*
X150384047Y-108575000D02*
X150288809Y-108527380D01*
%TO.C,SW18*%
X96424523Y-52329761D02*
X96281666Y-52377380D01*
X96281666Y-52377380D02*
X96043571Y-52377380D01*
X96043571Y-52377380D02*
X95948333Y-52329761D01*
X95948333Y-52329761D02*
X95900714Y-52282142D01*
X95900714Y-52282142D02*
X95853095Y-52186904D01*
X95853095Y-52186904D02*
X95853095Y-52091666D01*
X95853095Y-52091666D02*
X95900714Y-51996428D01*
X95900714Y-51996428D02*
X95948333Y-51948809D01*
X95948333Y-51948809D02*
X96043571Y-51901190D01*
X96043571Y-51901190D02*
X96234047Y-51853571D01*
X96234047Y-51853571D02*
X96329285Y-51805952D01*
X96329285Y-51805952D02*
X96376904Y-51758333D01*
X96376904Y-51758333D02*
X96424523Y-51663095D01*
X96424523Y-51663095D02*
X96424523Y-51567857D01*
X96424523Y-51567857D02*
X96376904Y-51472619D01*
X96376904Y-51472619D02*
X96329285Y-51425000D01*
X96329285Y-51425000D02*
X96234047Y-51377380D01*
X96234047Y-51377380D02*
X95995952Y-51377380D01*
X95995952Y-51377380D02*
X95853095Y-51425000D01*
X95519761Y-51377380D02*
X95281666Y-52377380D01*
X95281666Y-52377380D02*
X95091190Y-51663095D01*
X95091190Y-51663095D02*
X94900714Y-52377380D01*
X94900714Y-52377380D02*
X94662619Y-51377380D01*
X93757857Y-52377380D02*
X94329285Y-52377380D01*
X94043571Y-52377380D02*
X94043571Y-51377380D01*
X94043571Y-51377380D02*
X94138809Y-51520238D01*
X94138809Y-51520238D02*
X94234047Y-51615476D01*
X94234047Y-51615476D02*
X94329285Y-51663095D01*
X93186428Y-51805952D02*
X93281666Y-51758333D01*
X93281666Y-51758333D02*
X93329285Y-51710714D01*
X93329285Y-51710714D02*
X93376904Y-51615476D01*
X93376904Y-51615476D02*
X93376904Y-51567857D01*
X93376904Y-51567857D02*
X93329285Y-51472619D01*
X93329285Y-51472619D02*
X93281666Y-51425000D01*
X93281666Y-51425000D02*
X93186428Y-51377380D01*
X93186428Y-51377380D02*
X92995952Y-51377380D01*
X92995952Y-51377380D02*
X92900714Y-51425000D01*
X92900714Y-51425000D02*
X92853095Y-51472619D01*
X92853095Y-51472619D02*
X92805476Y-51567857D01*
X92805476Y-51567857D02*
X92805476Y-51615476D01*
X92805476Y-51615476D02*
X92853095Y-51710714D01*
X92853095Y-51710714D02*
X92900714Y-51758333D01*
X92900714Y-51758333D02*
X92995952Y-51805952D01*
X92995952Y-51805952D02*
X93186428Y-51805952D01*
X93186428Y-51805952D02*
X93281666Y-51853571D01*
X93281666Y-51853571D02*
X93329285Y-51901190D01*
X93329285Y-51901190D02*
X93376904Y-51996428D01*
X93376904Y-51996428D02*
X93376904Y-52186904D01*
X93376904Y-52186904D02*
X93329285Y-52282142D01*
X93329285Y-52282142D02*
X93281666Y-52329761D01*
X93281666Y-52329761D02*
X93186428Y-52377380D01*
X93186428Y-52377380D02*
X92995952Y-52377380D01*
X92995952Y-52377380D02*
X92900714Y-52329761D01*
X92900714Y-52329761D02*
X92853095Y-52282142D01*
X92853095Y-52282142D02*
X92805476Y-52186904D01*
X92805476Y-52186904D02*
X92805476Y-51996428D01*
X92805476Y-51996428D02*
X92853095Y-51901190D01*
X92853095Y-51901190D02*
X92900714Y-51853571D01*
X92900714Y-51853571D02*
X92995952Y-51805952D01*
D12*
%TO.C,D47*%
X116626428Y-101813904D02*
X116626428Y-101013904D01*
X116626428Y-101013904D02*
X116435952Y-101013904D01*
X116435952Y-101013904D02*
X116321666Y-101052000D01*
X116321666Y-101052000D02*
X116245476Y-101128190D01*
X116245476Y-101128190D02*
X116207381Y-101204380D01*
X116207381Y-101204380D02*
X116169285Y-101356761D01*
X116169285Y-101356761D02*
X116169285Y-101471047D01*
X116169285Y-101471047D02*
X116207381Y-101623428D01*
X116207381Y-101623428D02*
X116245476Y-101699619D01*
X116245476Y-101699619D02*
X116321666Y-101775809D01*
X116321666Y-101775809D02*
X116435952Y-101813904D01*
X116435952Y-101813904D02*
X116626428Y-101813904D01*
X115483571Y-101280571D02*
X115483571Y-101813904D01*
X115674047Y-100975809D02*
X115864524Y-101547238D01*
X115864524Y-101547238D02*
X115369285Y-101547238D01*
X115140714Y-101013904D02*
X114607380Y-101013904D01*
X114607380Y-101013904D02*
X114950238Y-101813904D01*
%TO.C,D29*%
X40436428Y-83283904D02*
X40436428Y-82483904D01*
X40436428Y-82483904D02*
X40245952Y-82483904D01*
X40245952Y-82483904D02*
X40131666Y-82522000D01*
X40131666Y-82522000D02*
X40055476Y-82598190D01*
X40055476Y-82598190D02*
X40017381Y-82674380D01*
X40017381Y-82674380D02*
X39979285Y-82826761D01*
X39979285Y-82826761D02*
X39979285Y-82941047D01*
X39979285Y-82941047D02*
X40017381Y-83093428D01*
X40017381Y-83093428D02*
X40055476Y-83169619D01*
X40055476Y-83169619D02*
X40131666Y-83245809D01*
X40131666Y-83245809D02*
X40245952Y-83283904D01*
X40245952Y-83283904D02*
X40436428Y-83283904D01*
X39674524Y-82560095D02*
X39636428Y-82522000D01*
X39636428Y-82522000D02*
X39560238Y-82483904D01*
X39560238Y-82483904D02*
X39369762Y-82483904D01*
X39369762Y-82483904D02*
X39293571Y-82522000D01*
X39293571Y-82522000D02*
X39255476Y-82560095D01*
X39255476Y-82560095D02*
X39217381Y-82636285D01*
X39217381Y-82636285D02*
X39217381Y-82712476D01*
X39217381Y-82712476D02*
X39255476Y-82826761D01*
X39255476Y-82826761D02*
X39712619Y-83283904D01*
X39712619Y-83283904D02*
X39217381Y-83283904D01*
X38836428Y-83283904D02*
X38684047Y-83283904D01*
X38684047Y-83283904D02*
X38607857Y-83245809D01*
X38607857Y-83245809D02*
X38569761Y-83207714D01*
X38569761Y-83207714D02*
X38493571Y-83093428D01*
X38493571Y-83093428D02*
X38455476Y-82941047D01*
X38455476Y-82941047D02*
X38455476Y-82636285D01*
X38455476Y-82636285D02*
X38493571Y-82560095D01*
X38493571Y-82560095D02*
X38531666Y-82522000D01*
X38531666Y-82522000D02*
X38607857Y-82483904D01*
X38607857Y-82483904D02*
X38760238Y-82483904D01*
X38760238Y-82483904D02*
X38836428Y-82522000D01*
X38836428Y-82522000D02*
X38874523Y-82560095D01*
X38874523Y-82560095D02*
X38912619Y-82636285D01*
X38912619Y-82636285D02*
X38912619Y-82826761D01*
X38912619Y-82826761D02*
X38874523Y-82902952D01*
X38874523Y-82902952D02*
X38836428Y-82941047D01*
X38836428Y-82941047D02*
X38760238Y-82979142D01*
X38760238Y-82979142D02*
X38607857Y-82979142D01*
X38607857Y-82979142D02*
X38531666Y-82941047D01*
X38531666Y-82941047D02*
X38493571Y-82902952D01*
X38493571Y-82902952D02*
X38455476Y-82826761D01*
D11*
%TO.C,SW31*%
X77374523Y-71379761D02*
X77231666Y-71427380D01*
X77231666Y-71427380D02*
X76993571Y-71427380D01*
X76993571Y-71427380D02*
X76898333Y-71379761D01*
X76898333Y-71379761D02*
X76850714Y-71332142D01*
X76850714Y-71332142D02*
X76803095Y-71236904D01*
X76803095Y-71236904D02*
X76803095Y-71141666D01*
X76803095Y-71141666D02*
X76850714Y-71046428D01*
X76850714Y-71046428D02*
X76898333Y-70998809D01*
X76898333Y-70998809D02*
X76993571Y-70951190D01*
X76993571Y-70951190D02*
X77184047Y-70903571D01*
X77184047Y-70903571D02*
X77279285Y-70855952D01*
X77279285Y-70855952D02*
X77326904Y-70808333D01*
X77326904Y-70808333D02*
X77374523Y-70713095D01*
X77374523Y-70713095D02*
X77374523Y-70617857D01*
X77374523Y-70617857D02*
X77326904Y-70522619D01*
X77326904Y-70522619D02*
X77279285Y-70475000D01*
X77279285Y-70475000D02*
X77184047Y-70427380D01*
X77184047Y-70427380D02*
X76945952Y-70427380D01*
X76945952Y-70427380D02*
X76803095Y-70475000D01*
X76469761Y-70427380D02*
X76231666Y-71427380D01*
X76231666Y-71427380D02*
X76041190Y-70713095D01*
X76041190Y-70713095D02*
X75850714Y-71427380D01*
X75850714Y-71427380D02*
X75612619Y-70427380D01*
X75326904Y-70427380D02*
X74707857Y-70427380D01*
X74707857Y-70427380D02*
X75041190Y-70808333D01*
X75041190Y-70808333D02*
X74898333Y-70808333D01*
X74898333Y-70808333D02*
X74803095Y-70855952D01*
X74803095Y-70855952D02*
X74755476Y-70903571D01*
X74755476Y-70903571D02*
X74707857Y-70998809D01*
X74707857Y-70998809D02*
X74707857Y-71236904D01*
X74707857Y-71236904D02*
X74755476Y-71332142D01*
X74755476Y-71332142D02*
X74803095Y-71379761D01*
X74803095Y-71379761D02*
X74898333Y-71427380D01*
X74898333Y-71427380D02*
X75184047Y-71427380D01*
X75184047Y-71427380D02*
X75279285Y-71379761D01*
X75279285Y-71379761D02*
X75326904Y-71332142D01*
X73755476Y-71427380D02*
X74326904Y-71427380D01*
X74041190Y-71427380D02*
X74041190Y-70427380D01*
X74041190Y-70427380D02*
X74136428Y-70570238D01*
X74136428Y-70570238D02*
X74231666Y-70665476D01*
X74231666Y-70665476D02*
X74326904Y-70713095D01*
D12*
%TO.C,D15*%
X40436428Y-64153904D02*
X40436428Y-63353904D01*
X40436428Y-63353904D02*
X40245952Y-63353904D01*
X40245952Y-63353904D02*
X40131666Y-63392000D01*
X40131666Y-63392000D02*
X40055476Y-63468190D01*
X40055476Y-63468190D02*
X40017381Y-63544380D01*
X40017381Y-63544380D02*
X39979285Y-63696761D01*
X39979285Y-63696761D02*
X39979285Y-63811047D01*
X39979285Y-63811047D02*
X40017381Y-63963428D01*
X40017381Y-63963428D02*
X40055476Y-64039619D01*
X40055476Y-64039619D02*
X40131666Y-64115809D01*
X40131666Y-64115809D02*
X40245952Y-64153904D01*
X40245952Y-64153904D02*
X40436428Y-64153904D01*
X39217381Y-64153904D02*
X39674524Y-64153904D01*
X39445952Y-64153904D02*
X39445952Y-63353904D01*
X39445952Y-63353904D02*
X39522143Y-63468190D01*
X39522143Y-63468190D02*
X39598333Y-63544380D01*
X39598333Y-63544380D02*
X39674524Y-63582476D01*
X38493571Y-63353904D02*
X38874523Y-63353904D01*
X38874523Y-63353904D02*
X38912619Y-63734857D01*
X38912619Y-63734857D02*
X38874523Y-63696761D01*
X38874523Y-63696761D02*
X38798333Y-63658666D01*
X38798333Y-63658666D02*
X38607857Y-63658666D01*
X38607857Y-63658666D02*
X38531666Y-63696761D01*
X38531666Y-63696761D02*
X38493571Y-63734857D01*
X38493571Y-63734857D02*
X38455476Y-63811047D01*
X38455476Y-63811047D02*
X38455476Y-64001523D01*
X38455476Y-64001523D02*
X38493571Y-64077714D01*
X38493571Y-64077714D02*
X38531666Y-64115809D01*
X38531666Y-64115809D02*
X38607857Y-64153904D01*
X38607857Y-64153904D02*
X38798333Y-64153904D01*
X38798333Y-64153904D02*
X38874523Y-64115809D01*
X38874523Y-64115809D02*
X38912619Y-64077714D01*
%TO.C,D1*%
X40055475Y-44833904D02*
X40055475Y-44033904D01*
X40055475Y-44033904D02*
X39864999Y-44033904D01*
X39864999Y-44033904D02*
X39750713Y-44072000D01*
X39750713Y-44072000D02*
X39674523Y-44148190D01*
X39674523Y-44148190D02*
X39636428Y-44224380D01*
X39636428Y-44224380D02*
X39598332Y-44376761D01*
X39598332Y-44376761D02*
X39598332Y-44491047D01*
X39598332Y-44491047D02*
X39636428Y-44643428D01*
X39636428Y-44643428D02*
X39674523Y-44719619D01*
X39674523Y-44719619D02*
X39750713Y-44795809D01*
X39750713Y-44795809D02*
X39864999Y-44833904D01*
X39864999Y-44833904D02*
X40055475Y-44833904D01*
X38836428Y-44833904D02*
X39293571Y-44833904D01*
X39064999Y-44833904D02*
X39064999Y-44033904D01*
X39064999Y-44033904D02*
X39141190Y-44148190D01*
X39141190Y-44148190D02*
X39217380Y-44224380D01*
X39217380Y-44224380D02*
X39293571Y-44262476D01*
D11*
%TO.C,SW5*%
X114998332Y-33279761D02*
X114855475Y-33327380D01*
X114855475Y-33327380D02*
X114617380Y-33327380D01*
X114617380Y-33327380D02*
X114522142Y-33279761D01*
X114522142Y-33279761D02*
X114474523Y-33232142D01*
X114474523Y-33232142D02*
X114426904Y-33136904D01*
X114426904Y-33136904D02*
X114426904Y-33041666D01*
X114426904Y-33041666D02*
X114474523Y-32946428D01*
X114474523Y-32946428D02*
X114522142Y-32898809D01*
X114522142Y-32898809D02*
X114617380Y-32851190D01*
X114617380Y-32851190D02*
X114807856Y-32803571D01*
X114807856Y-32803571D02*
X114903094Y-32755952D01*
X114903094Y-32755952D02*
X114950713Y-32708333D01*
X114950713Y-32708333D02*
X114998332Y-32613095D01*
X114998332Y-32613095D02*
X114998332Y-32517857D01*
X114998332Y-32517857D02*
X114950713Y-32422619D01*
X114950713Y-32422619D02*
X114903094Y-32375000D01*
X114903094Y-32375000D02*
X114807856Y-32327380D01*
X114807856Y-32327380D02*
X114569761Y-32327380D01*
X114569761Y-32327380D02*
X114426904Y-32375000D01*
X114093570Y-32327380D02*
X113855475Y-33327380D01*
X113855475Y-33327380D02*
X113664999Y-32613095D01*
X113664999Y-32613095D02*
X113474523Y-33327380D01*
X113474523Y-33327380D02*
X113236428Y-32327380D01*
X112379285Y-32327380D02*
X112855475Y-32327380D01*
X112855475Y-32327380D02*
X112903094Y-32803571D01*
X112903094Y-32803571D02*
X112855475Y-32755952D01*
X112855475Y-32755952D02*
X112760237Y-32708333D01*
X112760237Y-32708333D02*
X112522142Y-32708333D01*
X112522142Y-32708333D02*
X112426904Y-32755952D01*
X112426904Y-32755952D02*
X112379285Y-32803571D01*
X112379285Y-32803571D02*
X112331666Y-32898809D01*
X112331666Y-32898809D02*
X112331666Y-33136904D01*
X112331666Y-33136904D02*
X112379285Y-33232142D01*
X112379285Y-33232142D02*
X112426904Y-33279761D01*
X112426904Y-33279761D02*
X112522142Y-33327380D01*
X112522142Y-33327380D02*
X112760237Y-33327380D01*
X112760237Y-33327380D02*
X112855475Y-33279761D01*
X112855475Y-33279761D02*
X112903094Y-33232142D01*
%TO.C,A1*%
X132794285Y-25481666D02*
X132318095Y-25481666D01*
X132889523Y-25767380D02*
X132556190Y-24767380D01*
X132556190Y-24767380D02*
X132222857Y-25767380D01*
X131365714Y-25767380D02*
X131937142Y-25767380D01*
X131651428Y-25767380D02*
X131651428Y-24767380D01*
X131651428Y-24767380D02*
X131746666Y-24910238D01*
X131746666Y-24910238D02*
X131841904Y-25005476D01*
X131841904Y-25005476D02*
X131937142Y-25053095D01*
%TO.C,D33*%
X112955000Y-80840000D02*
X112955000Y-82340000D01*
X112955000Y-82340000D02*
X118355000Y-82340000D01*
X115155000Y-81090000D02*
X115155000Y-82090000D01*
X115255000Y-81590000D02*
X116155000Y-81090000D01*
X116155000Y-81090000D02*
X116155000Y-82090000D01*
X116155000Y-82090000D02*
X115255000Y-81590000D01*
X118355000Y-80840000D02*
X112955000Y-80840000D01*
X118355000Y-82340000D02*
X118355000Y-80840000D01*
%TO.C,D43*%
X47515000Y-97445000D02*
X49015000Y-97445000D01*
X49015000Y-97445000D02*
X49015000Y-92045000D01*
X47765000Y-95245000D02*
X48765000Y-95245000D01*
X48265000Y-95145000D02*
X47765000Y-94245000D01*
X47765000Y-94245000D02*
X48765000Y-94245000D01*
X48765000Y-94245000D02*
X48265000Y-95145000D01*
X47515000Y-92045000D02*
X47515000Y-97445000D01*
X49015000Y-92045000D02*
X47515000Y-92045000D01*
%TO.C,D60*%
X151100000Y-118590000D02*
X151100000Y-120090000D01*
X151100000Y-120090000D02*
X156500000Y-120090000D01*
X153300000Y-118840000D02*
X153300000Y-119840000D01*
X153400000Y-119340000D02*
X154300000Y-118840000D01*
X154300000Y-118840000D02*
X154300000Y-119840000D01*
X154300000Y-119840000D02*
X153400000Y-119340000D01*
X156500000Y-118590000D02*
X151100000Y-118590000D01*
X156500000Y-120090000D02*
X156500000Y-118590000D01*
%TO.C,D18*%
X94015000Y-61710000D02*
X94015000Y-63210000D01*
X94015000Y-63210000D02*
X99415000Y-63210000D01*
X96215000Y-61960000D02*
X96215000Y-62960000D01*
X96315000Y-62460000D02*
X97215000Y-61960000D01*
X97215000Y-61960000D02*
X97215000Y-62960000D01*
X97215000Y-62960000D02*
X96315000Y-62460000D01*
X99415000Y-61710000D02*
X94015000Y-61710000D01*
X99415000Y-63210000D02*
X99415000Y-61710000D01*
%TO.C,D16*%
X55815000Y-61710000D02*
X55815000Y-63210000D01*
X55815000Y-63210000D02*
X61215000Y-63210000D01*
X58015000Y-61960000D02*
X58015000Y-62960000D01*
X58115000Y-62460000D02*
X59015000Y-61960000D01*
X59015000Y-61960000D02*
X59015000Y-62960000D01*
X59015000Y-62960000D02*
X58115000Y-62460000D01*
X61215000Y-61710000D02*
X55815000Y-61710000D01*
X61215000Y-63210000D02*
X61215000Y-61710000D01*
%TO.C,D6*%
X142760000Y-43644800D02*
X144260000Y-43644800D01*
X144260000Y-43644800D02*
X144260000Y-38244800D01*
X143010000Y-41444800D02*
X144010000Y-41444800D01*
X143510000Y-41344800D02*
X143010000Y-40444800D01*
X143010000Y-40444800D02*
X144010000Y-40444800D01*
X144010000Y-40444800D02*
X143510000Y-41344800D01*
X142760000Y-38244800D02*
X142760000Y-43644800D01*
X144260000Y-38244800D02*
X142760000Y-38244800D01*
%TO.C,D17*%
X74965000Y-61710000D02*
X74965000Y-63210000D01*
X74965000Y-63210000D02*
X80365000Y-63210000D01*
X77165000Y-61960000D02*
X77165000Y-62960000D01*
X77265000Y-62460000D02*
X78165000Y-61960000D01*
X78165000Y-61960000D02*
X78165000Y-62960000D01*
X78165000Y-62960000D02*
X77265000Y-62460000D01*
X80365000Y-61710000D02*
X74965000Y-61710000D01*
X80365000Y-63210000D02*
X80365000Y-61710000D01*
%TO.C,J1*%
X141799450Y-20486500D02*
X147799450Y-20486500D01*
X141799450Y-32486500D02*
X141799450Y-20486500D01*
X147799450Y-20486500D02*
X147799450Y-32486500D01*
X147799450Y-32486500D02*
X141799450Y-32486500D01*
%TO.C,D21*%
X151100000Y-61710000D02*
X151100000Y-63210000D01*
X151100000Y-63210000D02*
X156500000Y-63210000D01*
X153300000Y-61960000D02*
X153300000Y-62960000D01*
X153400000Y-62460000D02*
X154300000Y-61960000D01*
X154300000Y-61960000D02*
X154300000Y-62960000D01*
X154300000Y-62960000D02*
X153400000Y-62460000D01*
X156500000Y-61710000D02*
X151100000Y-61710000D01*
X156500000Y-63210000D02*
X156500000Y-61710000D01*
%TO.C,D58*%
X112955000Y-118590000D02*
X112955000Y-120090000D01*
X112955000Y-120090000D02*
X118355000Y-120090000D01*
X115155000Y-118840000D02*
X115155000Y-119840000D01*
X115255000Y-119340000D02*
X116155000Y-118840000D01*
X116155000Y-118840000D02*
X116155000Y-119840000D01*
X116155000Y-119840000D02*
X115255000Y-119340000D01*
X118355000Y-118590000D02*
X112955000Y-118590000D01*
X118355000Y-120090000D02*
X118355000Y-118590000D01*
%TO.C,D32*%
X94015000Y-80840000D02*
X94015000Y-82340000D01*
X94015000Y-82340000D02*
X99415000Y-82340000D01*
X96215000Y-81090000D02*
X96215000Y-82090000D01*
X96315000Y-81590000D02*
X97215000Y-81090000D01*
X97215000Y-81090000D02*
X97215000Y-82090000D01*
X97215000Y-82090000D02*
X96315000Y-81590000D01*
X99415000Y-80840000D02*
X94015000Y-80840000D01*
X99415000Y-82340000D02*
X99415000Y-80840000D01*
%TO.C,D35*%
X151100000Y-80840000D02*
X151100000Y-82340000D01*
X151100000Y-82340000D02*
X156500000Y-82340000D01*
X153300000Y-81090000D02*
X153300000Y-82090000D01*
X153400000Y-81590000D02*
X154300000Y-81090000D01*
X154300000Y-81090000D02*
X154300000Y-82090000D01*
X154300000Y-82090000D02*
X153400000Y-81590000D01*
X156500000Y-80840000D02*
X151100000Y-80840000D01*
X156500000Y-82340000D02*
X156500000Y-80840000D01*
%TO.C,D46*%
X94015000Y-99520000D02*
X94015000Y-101020000D01*
X94015000Y-101020000D02*
X99415000Y-101020000D01*
X96215000Y-99770000D02*
X96215000Y-100770000D01*
X96315000Y-100270000D02*
X97215000Y-99770000D01*
X97215000Y-99770000D02*
X97215000Y-100770000D01*
X97215000Y-100770000D02*
X96315000Y-100270000D01*
X99415000Y-99520000D02*
X94015000Y-99520000D01*
X99415000Y-101020000D02*
X99415000Y-99520000D01*
%TO.C,D34*%
X132025000Y-80840000D02*
X132025000Y-82340000D01*
X132025000Y-82340000D02*
X137425000Y-82340000D01*
X134225000Y-81090000D02*
X134225000Y-82090000D01*
X134325000Y-81590000D02*
X135225000Y-81090000D01*
X135225000Y-81090000D02*
X135225000Y-82090000D01*
X135225000Y-82090000D02*
X134325000Y-81590000D01*
X137425000Y-80840000D02*
X132025000Y-80840000D01*
X137425000Y-82340000D02*
X137425000Y-80840000D01*
%TO.C,D2*%
X55815000Y-42390000D02*
X55815000Y-43890000D01*
X55815000Y-43890000D02*
X61215000Y-43890000D01*
X58015000Y-42640000D02*
X58015000Y-43640000D01*
X58115000Y-43140000D02*
X59015000Y-42640000D01*
X59015000Y-42640000D02*
X59015000Y-43640000D01*
X59015000Y-43640000D02*
X58115000Y-43140000D01*
X61215000Y-42390000D02*
X55815000Y-42390000D01*
X61215000Y-43890000D02*
X61215000Y-42390000D01*
%TO.C,D31*%
X74965000Y-80840000D02*
X74965000Y-82340000D01*
X74965000Y-82340000D02*
X80365000Y-82340000D01*
X77165000Y-81090000D02*
X77165000Y-82090000D01*
X77265000Y-81590000D02*
X78165000Y-81090000D01*
X78165000Y-81090000D02*
X78165000Y-82090000D01*
X78165000Y-82090000D02*
X77265000Y-81590000D01*
X80365000Y-80840000D02*
X74965000Y-80840000D01*
X80365000Y-82340000D02*
X80365000Y-80840000D01*
%TO.C,D59*%
X132025000Y-118590000D02*
X132025000Y-120090000D01*
X132025000Y-120090000D02*
X137425000Y-120090000D01*
X134225000Y-118840000D02*
X134225000Y-119840000D01*
X134325000Y-119340000D02*
X135225000Y-118840000D01*
X135225000Y-118840000D02*
X135225000Y-119840000D01*
X135225000Y-119840000D02*
X134325000Y-119340000D01*
X137425000Y-118590000D02*
X132025000Y-118590000D01*
X137425000Y-120090000D02*
X137425000Y-118590000D01*
%TO.C,D5*%
X112955000Y-42390000D02*
X112955000Y-43890000D01*
X112955000Y-43890000D02*
X118355000Y-43890000D01*
X115155000Y-42640000D02*
X115155000Y-43640000D01*
X115255000Y-43140000D02*
X116155000Y-42640000D01*
X116155000Y-42640000D02*
X116155000Y-43640000D01*
X116155000Y-43640000D02*
X115255000Y-43140000D01*
X118355000Y-42390000D02*
X112955000Y-42390000D01*
X118355000Y-43890000D02*
X118355000Y-42390000D01*
%TO.C,D4*%
X94015000Y-42390000D02*
X94015000Y-43890000D01*
X94015000Y-43890000D02*
X99415000Y-43890000D01*
X96215000Y-42640000D02*
X96215000Y-43640000D01*
X96315000Y-43140000D02*
X97215000Y-42640000D01*
X97215000Y-42640000D02*
X97215000Y-43640000D01*
X97215000Y-43640000D02*
X96315000Y-43140000D01*
X99415000Y-42390000D02*
X94015000Y-42390000D01*
X99415000Y-43890000D02*
X99415000Y-42390000D01*
%TO.C,D7*%
X151100000Y-42390000D02*
X151100000Y-43890000D01*
X151100000Y-43890000D02*
X156500000Y-43890000D01*
X153300000Y-42640000D02*
X153300000Y-43640000D01*
X153400000Y-43140000D02*
X154300000Y-42640000D01*
X154300000Y-42640000D02*
X154300000Y-43640000D01*
X154300000Y-43640000D02*
X153400000Y-43140000D01*
X156500000Y-42390000D02*
X151100000Y-42390000D01*
X156500000Y-43890000D02*
X156500000Y-42390000D01*
%TO.C,D57*%
X94015000Y-118590000D02*
X94015000Y-120090000D01*
X94015000Y-120090000D02*
X99415000Y-120090000D01*
X96215000Y-118840000D02*
X96215000Y-119840000D01*
X96315000Y-119340000D02*
X97215000Y-118840000D01*
X97215000Y-118840000D02*
X97215000Y-119840000D01*
X97215000Y-119840000D02*
X96315000Y-119340000D01*
X99415000Y-118590000D02*
X94015000Y-118590000D01*
X99415000Y-120090000D02*
X99415000Y-118590000D01*
%TO.C,D44*%
X65290000Y-97445000D02*
X66790000Y-97445000D01*
X66790000Y-97445000D02*
X66790000Y-92045000D01*
X65540000Y-95245000D02*
X66540000Y-95245000D01*
X66040000Y-95145000D02*
X65540000Y-94245000D01*
X65540000Y-94245000D02*
X66540000Y-94245000D01*
X66540000Y-94245000D02*
X66040000Y-95145000D01*
X65290000Y-92045000D02*
X65290000Y-97445000D01*
X66790000Y-92045000D02*
X65290000Y-92045000D01*
%TO.C,D20*%
X132025000Y-61710000D02*
X132025000Y-63210000D01*
X132025000Y-63210000D02*
X137425000Y-63210000D01*
X134225000Y-61960000D02*
X134225000Y-62960000D01*
X134325000Y-62460000D02*
X135225000Y-61960000D01*
X135225000Y-61960000D02*
X135225000Y-62960000D01*
X135225000Y-62960000D02*
X134325000Y-62460000D01*
X137425000Y-61710000D02*
X132025000Y-61710000D01*
X137425000Y-63210000D02*
X137425000Y-61710000D01*
%TO.C,D30*%
X55815000Y-80840000D02*
X55815000Y-82340000D01*
X55815000Y-82340000D02*
X61215000Y-82340000D01*
X58015000Y-81090000D02*
X58015000Y-82090000D01*
X58115000Y-81590000D02*
X59015000Y-81090000D01*
X59015000Y-81090000D02*
X59015000Y-82090000D01*
X59015000Y-82090000D02*
X58115000Y-81590000D01*
X61215000Y-80840000D02*
X55815000Y-80840000D01*
X61215000Y-82340000D02*
X61215000Y-80840000D01*
%TO.C,D49*%
X151100000Y-99520000D02*
X151100000Y-101020000D01*
X151100000Y-101020000D02*
X156500000Y-101020000D01*
X153300000Y-99770000D02*
X153300000Y-100770000D01*
X153400000Y-100270000D02*
X154300000Y-99770000D01*
X154300000Y-99770000D02*
X154300000Y-100770000D01*
X154300000Y-100770000D02*
X153400000Y-100270000D01*
X156500000Y-99520000D02*
X151100000Y-99520000D01*
X156500000Y-101020000D02*
X156500000Y-99520000D01*
%TO.C,D45*%
X85610000Y-97445000D02*
X87110000Y-97445000D01*
X87110000Y-97445000D02*
X87110000Y-92045000D01*
X85860000Y-95245000D02*
X86860000Y-95245000D01*
X86360000Y-95145000D02*
X85860000Y-94245000D01*
X85860000Y-94245000D02*
X86860000Y-94245000D01*
X86860000Y-94245000D02*
X86360000Y-95145000D01*
X85610000Y-92045000D02*
X85610000Y-97445000D01*
X87110000Y-92045000D02*
X85610000Y-92045000D01*
%TO.C,D19*%
X112955000Y-61710000D02*
X112955000Y-63210000D01*
X112955000Y-63210000D02*
X118355000Y-63210000D01*
X115155000Y-61960000D02*
X115155000Y-62960000D01*
X115255000Y-62460000D02*
X116155000Y-61960000D01*
X116155000Y-61960000D02*
X116155000Y-62960000D01*
X116155000Y-62960000D02*
X115255000Y-62460000D01*
X118355000Y-61710000D02*
X112955000Y-61710000D01*
X118355000Y-63210000D02*
X118355000Y-61710000D01*
%TO.C,D3*%
X74965000Y-42390000D02*
X74965000Y-43890000D01*
X74965000Y-43890000D02*
X80365000Y-43890000D01*
X77165000Y-42640000D02*
X77165000Y-43640000D01*
X77265000Y-43140000D02*
X78165000Y-42640000D01*
X78165000Y-42640000D02*
X78165000Y-43640000D01*
X78165000Y-43640000D02*
X77265000Y-43140000D01*
X80365000Y-42390000D02*
X74965000Y-42390000D01*
X80365000Y-43890000D02*
X80365000Y-42390000D01*
%TO.C,D48*%
X132025000Y-99520000D02*
X132025000Y-101020000D01*
X132025000Y-101020000D02*
X137425000Y-101020000D01*
X134225000Y-99770000D02*
X134225000Y-100770000D01*
X134325000Y-100270000D02*
X135225000Y-99770000D01*
X135225000Y-99770000D02*
X135225000Y-100770000D01*
X135225000Y-100770000D02*
X134325000Y-100270000D01*
X137425000Y-99520000D02*
X132025000Y-99520000D01*
X137425000Y-101020000D02*
X137425000Y-99520000D01*
%TO.C,D47*%
X112955000Y-99270000D02*
X112955000Y-100770000D01*
X112955000Y-100770000D02*
X118355000Y-100770000D01*
X115155000Y-99520000D02*
X115155000Y-100520000D01*
X115255000Y-100020000D02*
X116155000Y-99520000D01*
X116155000Y-99520000D02*
X116155000Y-100520000D01*
X116155000Y-100520000D02*
X115255000Y-100020000D01*
X118355000Y-99270000D02*
X112955000Y-99270000D01*
X118355000Y-100770000D02*
X118355000Y-99270000D01*
%TO.C,D29*%
X36765000Y-80840000D02*
X36765000Y-82340000D01*
X36765000Y-82340000D02*
X42165000Y-82340000D01*
X38965000Y-81090000D02*
X38965000Y-82090000D01*
X39065000Y-81590000D02*
X39965000Y-81090000D01*
X39965000Y-81090000D02*
X39965000Y-82090000D01*
X39965000Y-82090000D02*
X39065000Y-81590000D01*
X42165000Y-80840000D02*
X36765000Y-80840000D01*
X42165000Y-82340000D02*
X42165000Y-80840000D01*
%TO.C,D15*%
X36765000Y-61710000D02*
X36765000Y-63210000D01*
X36765000Y-63210000D02*
X42165000Y-63210000D01*
X38965000Y-61960000D02*
X38965000Y-62960000D01*
X39065000Y-62460000D02*
X39965000Y-61960000D01*
X39965000Y-61960000D02*
X39965000Y-62960000D01*
X39965000Y-62960000D02*
X39065000Y-62460000D01*
X42165000Y-61710000D02*
X36765000Y-61710000D01*
X42165000Y-63210000D02*
X42165000Y-61710000D01*
%TO.C,D1*%
X36765000Y-42390000D02*
X36765000Y-43890000D01*
X36765000Y-43890000D02*
X42165000Y-43890000D01*
X38965000Y-42640000D02*
X38965000Y-43640000D01*
X39065000Y-43140000D02*
X39965000Y-42640000D01*
X39965000Y-42640000D02*
X39965000Y-43640000D01*
X39965000Y-43640000D02*
X39065000Y-43140000D01*
X42165000Y-42390000D02*
X36765000Y-42390000D01*
X42165000Y-43890000D02*
X42165000Y-42390000D01*
D13*
%TO.C,A1*%
X141638800Y-44465200D02*
X123638800Y-44465200D01*
X141638800Y-20965200D02*
X141638800Y-44465200D01*
X141638800Y-20965200D02*
X123638800Y-20965200D01*
X123638800Y-20965200D02*
X123638800Y-44465200D01*
%TD*%
M02*
