M48
; DRILL file {KiCad (7.0.0-0)} date Monday, March 06, 2023 00:13:23
; FORMAT={-:-/ absolute / inch / decimal}
; #@! TF.CreationDate,2023-03-06T00:13:23+09:00
; #@! TF.GenerationSoftware,Kicad,Pcbnew,(7.0.0-0)
; #@! TF.FileFunction,NonPlated,1,2,NPTH
FMAT,2
INCH
; #@! TA.AperFunction,NonPlated,NPTH,ComponentDrill
T1C0.0472
; #@! TA.AperFunction,NonPlated,NPTH,ComponentDrill
T2C0.0591
; #@! TA.AperFunction,NonPlated,NPTH,ComponentDrill
T3C0.0709
; #@! TA.AperFunction,NonPlated,NPTH,ComponentDrill
T4C0.0748
; #@! TA.AperFunction,NonPlated,NPTH,ComponentDrill
T5C0.1575
%
G90
G05
T1
X9.6157Y-8.0787
X9.8913Y-8.0787
T2
X4.7469Y-9.7957
X4.7469Y-9.9866
T3
X4.6276Y-9.7839
X4.6276Y-9.9984
T4
X4.725Y-6.8976
X4.725Y-7.6476
X4.725Y-8.3976
X4.725Y-9.1524
X5.125Y-6.8976
X5.125Y-7.6476
X5.125Y-8.3976
X5.125Y-9.1524
X5.4722Y-6.8976
X5.4722Y-7.6476
X5.4722Y-8.3976
X5.4722Y-9.1524
X5.8722Y-6.8976
X5.8722Y-7.6476
X5.8722Y-8.3976
X5.8722Y-9.1524
X6.225Y-6.8976
X6.225Y-7.6476
X6.225Y-8.3976
X6.225Y-9.1524
X6.625Y-6.8976
X6.625Y-7.6476
X6.625Y-8.3976
X6.625Y-9.1524
X6.975Y-6.8976
X6.975Y-7.6476
X6.975Y-8.3976
X6.975Y-9.1524
X6.9774Y-9.8976
X7.375Y-6.8976
X7.375Y-7.6476
X7.375Y-8.3976
X7.375Y-9.1524
X7.3774Y-9.8976
X7.725Y-6.8976
X7.725Y-7.6476
X7.725Y-8.3976
X7.725Y-9.1524
X7.725Y-9.8976
X8.125Y-6.8976
X8.125Y-7.6476
X8.125Y-8.3976
X8.125Y-9.1524
X8.125Y-9.8976
X8.475Y-6.8976
X8.475Y-7.6476
X8.475Y-8.3976
X8.475Y-9.1524
X8.475Y-9.8976
X8.875Y-6.8976
X8.875Y-7.6476
X8.875Y-8.3976
X8.875Y-9.1524
X8.875Y-9.8976
X9.225Y-6.8976
X9.225Y-7.6476
X9.225Y-8.3976
X9.225Y-9.1476
X9.225Y-9.8976
X9.625Y-6.8976
X9.625Y-7.6476
X9.625Y-8.3976
X9.625Y-9.1476
X9.625Y-9.8976
T5
X4.925Y-6.8976
X4.925Y-7.6476
X4.925Y-8.3976
X4.925Y-9.1524
X5.6722Y-6.8976
X5.6722Y-7.6476
X5.6722Y-8.3976
X5.6722Y-9.1524
X6.425Y-6.8976
X6.425Y-7.6476
X6.425Y-8.3976
X6.425Y-9.1524
X7.175Y-6.8976
X7.175Y-7.6476
X7.175Y-8.3976
X7.175Y-9.1524
X7.1774Y-9.8976
X7.925Y-6.8976
X7.925Y-7.6476
X7.925Y-8.3976
X7.925Y-9.1524
X7.925Y-9.8976
X8.675Y-6.8976
X8.675Y-7.6476
X8.675Y-8.3976
X8.675Y-9.1524
X8.675Y-9.8976
X9.425Y-6.8976
X9.425Y-7.6476
X9.425Y-8.3976
X9.425Y-9.1476
X9.425Y-9.8976
T0
M30
