%TF.GenerationSoftware,KiCad,Pcbnew,(7.0.0-0)*%
%TF.CreationDate,2023-03-06T00:13:20+09:00*%
%TF.ProjectId,11111_pcb,31313131-315f-4706-9362-2e6b69636164,rev?*%
%TF.SameCoordinates,Original*%
%TF.FileFunction,Soldermask,Bot*%
%TF.FilePolarity,Negative*%
%FSLAX46Y46*%
G04 Gerber Fmt 4.6, Leading zero omitted, Abs format (unit mm)*
G04 Created by KiCad (PCBNEW (7.0.0-0)) date 2023-03-06 00:13:20*
%MOMM*%
%LPD*%
G01*
G04 APERTURE LIST*
%ADD10C,1.900000*%
%ADD11C,4.000000*%
%ADD12O,2.500000X2.000000*%
%ADD13R,1.300000X0.950000*%
%ADD14C,1.524000*%
%ADD15C,1.210000*%
%ADD16O,2.200000X1.300000*%
%ADD17O,1.800000X1.800000*%
%ADD18O,1.500000X1.500000*%
%ADD19R,1.700000X3.500000*%
G04 APERTURE END LIST*
D10*
%TO.C,SW20*%
X215265000Y-194250000D03*
D11*
X220345000Y-194250000D03*
D10*
X225425000Y-194250000D03*
D12*
X216534999Y-191709999D03*
X222884999Y-189169999D03*
%TD*%
D10*
%TO.C,SW29*%
X120015000Y-213300000D03*
D11*
X125095000Y-213300000D03*
D10*
X130175000Y-213300000D03*
D12*
X121284999Y-210759999D03*
X127634999Y-208219999D03*
%TD*%
D10*
%TO.C,SW60*%
X234315000Y-251400000D03*
D11*
X239395000Y-251400000D03*
D10*
X244475000Y-251400000D03*
D12*
X235584999Y-248859999D03*
X241934999Y-246319999D03*
%TD*%
D10*
%TO.C,SW18*%
X177165000Y-194250000D03*
D11*
X182245000Y-194250000D03*
D10*
X187325000Y-194250000D03*
D12*
X178434999Y-191709999D03*
X184784999Y-189169999D03*
%TD*%
D10*
%TO.C,SW48*%
X215265000Y-232470000D03*
D11*
X220345000Y-232470000D03*
D10*
X225425000Y-232470000D03*
D12*
X216534999Y-229929999D03*
X222884999Y-227389999D03*
%TD*%
D13*
%TO.C,D48*%
X219309999Y-237429999D03*
X222859999Y-237429999D03*
%TD*%
D10*
%TO.C,SW17*%
X158115000Y-194250000D03*
D11*
X163195000Y-194250000D03*
D10*
X168275000Y-194250000D03*
D12*
X159384999Y-191709999D03*
X165734999Y-189169999D03*
%TD*%
D10*
%TO.C,SW2*%
X138995000Y-175200000D03*
D11*
X144075000Y-175200000D03*
D10*
X149155000Y-175200000D03*
D12*
X140264999Y-172659999D03*
X146614999Y-170119999D03*
%TD*%
D10*
%TO.C,SW3*%
X158115000Y-175200000D03*
D11*
X163195000Y-175200000D03*
D10*
X168275000Y-175200000D03*
D12*
X159384999Y-172659999D03*
X165734999Y-170119999D03*
%TD*%
D10*
%TO.C,SW7*%
X234315000Y-175200000D03*
D11*
X239395000Y-175200000D03*
D10*
X244475000Y-175200000D03*
D12*
X235584999Y-172659999D03*
X241934999Y-170119999D03*
%TD*%
D13*
%TO.C,D19*%
X200239999Y-199619999D03*
X203789999Y-199619999D03*
%TD*%
D10*
%TO.C,SW31*%
X158115000Y-213300000D03*
D11*
X163195000Y-213300000D03*
D10*
X168275000Y-213300000D03*
D12*
X159384999Y-210759999D03*
X165734999Y-208219999D03*
%TD*%
D10*
%TO.C,SW45*%
X158115000Y-232470000D03*
D11*
X163195000Y-232470000D03*
D10*
X168275000Y-232470000D03*
D12*
X159384999Y-229929999D03*
X165734999Y-227389999D03*
%TD*%
D13*
%TO.C,D21*%
X238384999Y-199619999D03*
X241934999Y-199619999D03*
%TD*%
D14*
%TO.C,REF\u002A\u002A*%
X174660000Y-160420000D03*
X174660000Y-162960000D03*
X189900000Y-160420000D03*
X189900000Y-162960000D03*
%TD*%
D13*
%TO.C,D17*%
X162249999Y-199619999D03*
X165799999Y-199619999D03*
%TD*%
D10*
%TO.C,SW57*%
X177225000Y-251400000D03*
D11*
X182305000Y-251400000D03*
D10*
X187385000Y-251400000D03*
D12*
X178494999Y-248859999D03*
X184844999Y-246319999D03*
%TD*%
D10*
%TO.C,SW1*%
X120015000Y-175200000D03*
D11*
X125095000Y-175200000D03*
D10*
X130175000Y-175200000D03*
D12*
X121284999Y-172659999D03*
X127634999Y-170119999D03*
%TD*%
D13*
%TO.C,D16*%
X143099999Y-199619999D03*
X146649999Y-199619999D03*
%TD*%
D10*
%TO.C,SW34*%
X215265000Y-213300000D03*
D11*
X220345000Y-213300000D03*
D10*
X225425000Y-213300000D03*
D12*
X216534999Y-210759999D03*
X222884999Y-208219999D03*
%TD*%
D10*
%TO.C,SW15*%
X120015000Y-194250000D03*
D11*
X125095000Y-194250000D03*
D10*
X130175000Y-194250000D03*
D12*
X121284999Y-191709999D03*
X127634999Y-189169999D03*
%TD*%
D13*
%TO.C,D18*%
X181299999Y-199619999D03*
X184849999Y-199619999D03*
%TD*%
%TO.C,D33*%
X200239999Y-218749999D03*
X203789999Y-218749999D03*
%TD*%
%TO.C,D60*%
X238384999Y-256499999D03*
X241934999Y-256499999D03*
%TD*%
%TO.C,D6*%
X219309999Y-180299999D03*
X222859999Y-180299999D03*
%TD*%
D15*
%TO.C,J1*%
X244240000Y-205200000D03*
X251240000Y-205200000D03*
D16*
X254539999Y-203199999D03*
X246039999Y-207199999D03*
X249039999Y-207199999D03*
X253039999Y-207199999D03*
%TD*%
D10*
%TO.C,SW46*%
X177165000Y-232470000D03*
D11*
X182245000Y-232470000D03*
D10*
X187325000Y-232470000D03*
D12*
X178434999Y-229929999D03*
X184784999Y-227389999D03*
%TD*%
D13*
%TO.C,D43*%
X124049999Y-237429999D03*
X127599999Y-237429999D03*
%TD*%
D10*
%TO.C,SW58*%
X196215000Y-251400000D03*
D11*
X201295000Y-251400000D03*
D10*
X206375000Y-251400000D03*
D12*
X197484999Y-248859999D03*
X203834999Y-246319999D03*
%TD*%
D10*
%TO.C,SW16*%
X138995000Y-194250000D03*
D11*
X144075000Y-194250000D03*
D10*
X149155000Y-194250000D03*
D12*
X140264999Y-191709999D03*
X146614999Y-189169999D03*
%TD*%
D13*
%TO.C,D58*%
X200239999Y-256499999D03*
X203789999Y-256499999D03*
%TD*%
%TO.C,D32*%
X181299999Y-218749999D03*
X184849999Y-218749999D03*
%TD*%
D10*
%TO.C,SW19*%
X196215000Y-194250000D03*
D11*
X201295000Y-194250000D03*
D10*
X206375000Y-194250000D03*
D12*
X197484999Y-191709999D03*
X203834999Y-189169999D03*
%TD*%
D13*
%TO.C,D35*%
X238384999Y-218749999D03*
X241934999Y-218749999D03*
%TD*%
%TO.C,D46*%
X181299999Y-237429999D03*
X184849999Y-237429999D03*
%TD*%
%TO.C,D34*%
X219309999Y-218749999D03*
X222859999Y-218749999D03*
%TD*%
D10*
%TO.C,SW43*%
X120015000Y-232470000D03*
D11*
X125095000Y-232470000D03*
D10*
X130175000Y-232470000D03*
D12*
X121284999Y-229929999D03*
X127634999Y-227389999D03*
%TD*%
D10*
%TO.C,SW47*%
X196215000Y-232470000D03*
D11*
X201295000Y-232470000D03*
D10*
X206375000Y-232470000D03*
D12*
X197484999Y-229929999D03*
X203834999Y-227389999D03*
%TD*%
D13*
%TO.C,D2*%
X143099999Y-180299999D03*
X146649999Y-180299999D03*
%TD*%
D10*
%TO.C,SW35*%
X234315000Y-213300000D03*
D11*
X239395000Y-213300000D03*
D10*
X244475000Y-213300000D03*
D12*
X235584999Y-210759999D03*
X241934999Y-208219999D03*
%TD*%
D13*
%TO.C,D31*%
X162249999Y-218749999D03*
X165799999Y-218749999D03*
%TD*%
D10*
%TO.C,SW30*%
X138995000Y-213300000D03*
D11*
X144075000Y-213300000D03*
D10*
X149155000Y-213300000D03*
D12*
X140264999Y-210759999D03*
X146614999Y-208219999D03*
%TD*%
D13*
%TO.C,D59*%
X219309999Y-256499999D03*
X222859999Y-256499999D03*
%TD*%
D10*
%TO.C,SW33*%
X196215000Y-213300000D03*
D11*
X201295000Y-213300000D03*
D10*
X206375000Y-213300000D03*
D12*
X197484999Y-210759999D03*
X203834999Y-208219999D03*
%TD*%
D13*
%TO.C,D5*%
X200239999Y-180299999D03*
X203789999Y-180299999D03*
%TD*%
%TO.C,D4*%
X181299999Y-180299999D03*
X184849999Y-180299999D03*
%TD*%
%TO.C,D7*%
X238384999Y-180299999D03*
X241934999Y-180299999D03*
%TD*%
D10*
%TO.C,SW6*%
X215265000Y-175200000D03*
D11*
X220345000Y-175200000D03*
D10*
X225425000Y-175200000D03*
D12*
X216534999Y-172659999D03*
X222884999Y-170119999D03*
%TD*%
D10*
%TO.C,SW44*%
X138995000Y-232470000D03*
D11*
X144075000Y-232470000D03*
D10*
X149155000Y-232470000D03*
D12*
X140264999Y-229929999D03*
X146614999Y-227389999D03*
%TD*%
D13*
%TO.C,D57*%
X181299999Y-256499999D03*
X184849999Y-256499999D03*
%TD*%
%TO.C,D44*%
X143099999Y-237829999D03*
X146649999Y-237829999D03*
%TD*%
%TO.C,D20*%
X219309999Y-199619999D03*
X222859999Y-199619999D03*
%TD*%
D10*
%TO.C,SW49*%
X234315000Y-232350000D03*
D11*
X239395000Y-232350000D03*
D10*
X244475000Y-232350000D03*
D12*
X235584999Y-229809999D03*
X241934999Y-227269999D03*
%TD*%
D10*
%TO.C,SW21*%
X234315000Y-194250000D03*
D11*
X239395000Y-194250000D03*
D10*
X244475000Y-194250000D03*
D12*
X235584999Y-191709999D03*
X241934999Y-189169999D03*
%TD*%
D13*
%TO.C,D30*%
X143099999Y-218749999D03*
X146649999Y-218749999D03*
%TD*%
%TO.C,D49*%
X238384999Y-237429999D03*
X241934999Y-237429999D03*
%TD*%
D10*
%TO.C,SW59*%
X215265000Y-251400000D03*
D11*
X220345000Y-251400000D03*
D10*
X225425000Y-251400000D03*
D12*
X216534999Y-248859999D03*
X222884999Y-246319999D03*
%TD*%
D13*
%TO.C,D3*%
X162249999Y-180299999D03*
X165799999Y-180299999D03*
%TD*%
D10*
%TO.C,SW32*%
X177165000Y-213300000D03*
D11*
X182245000Y-213300000D03*
D10*
X187325000Y-213300000D03*
D12*
X178434999Y-210759999D03*
X184784999Y-208219999D03*
%TD*%
D10*
%TO.C,SW4*%
X177165000Y-175200000D03*
D11*
X182245000Y-175200000D03*
D10*
X187325000Y-175200000D03*
D12*
X178434999Y-172659999D03*
X184784999Y-170119999D03*
%TD*%
D13*
%TO.C,D47*%
X200239999Y-237179999D03*
X203789999Y-237179999D03*
%TD*%
%TO.C,D29*%
X124049999Y-218749999D03*
X127599999Y-218749999D03*
%TD*%
%TO.C,D45*%
X162249999Y-237829999D03*
X165799999Y-237829999D03*
%TD*%
%TO.C,D15*%
X124049999Y-199619999D03*
X127599999Y-199619999D03*
%TD*%
%TO.C,D1*%
X124049999Y-180299999D03*
X127599999Y-180299999D03*
%TD*%
D10*
%TO.C,SW5*%
X196215000Y-175200000D03*
D11*
X201295000Y-175200000D03*
D10*
X206375000Y-175200000D03*
D12*
X197484999Y-172659999D03*
X203834999Y-170119999D03*
%TD*%
D17*
%TO.C,U1*%
X117539999Y-248509999D03*
D18*
X120569999Y-248809999D03*
X120569999Y-253659999D03*
D17*
X117539999Y-253959999D03*
D19*
X117409999Y-241444999D03*
X119949999Y-241444999D03*
X122489999Y-241444999D03*
X125029999Y-241444999D03*
X127569999Y-241444999D03*
X130109999Y-241444999D03*
X132649999Y-241444999D03*
X135189999Y-241444999D03*
X137729999Y-241444999D03*
X140269999Y-241444999D03*
X142809999Y-241444999D03*
X145349999Y-241444999D03*
X147889999Y-241444999D03*
X150429999Y-241444999D03*
X152969999Y-241444999D03*
X155509999Y-241444999D03*
X158049999Y-241444999D03*
X160589999Y-241444999D03*
X163129999Y-241444999D03*
X165669999Y-241444999D03*
X165669999Y-261024999D03*
X163129999Y-261024999D03*
X160589999Y-261024999D03*
X158049999Y-261024999D03*
X155509999Y-261024999D03*
X152969999Y-261024999D03*
X150429999Y-261024999D03*
X147889999Y-261024999D03*
X145349999Y-261024999D03*
X142809999Y-261024999D03*
X140269999Y-261024999D03*
X137729999Y-261024999D03*
X135189999Y-261024999D03*
X132649999Y-261024999D03*
X130109999Y-261024999D03*
X127569999Y-261024999D03*
X125029999Y-261024999D03*
X122489999Y-261024999D03*
X119949999Y-261024999D03*
X117409999Y-261024999D03*
%TD*%
M02*
