M48
; DRILL file {KiCad (7.0.0-0)} date Monday, March 06, 2023 00:13:23
; FORMAT={-:-/ absolute / inch / decimal}
; #@! TF.CreationDate,2023-03-06T00:13:23+09:00
; #@! TF.GenerationSoftware,Kicad,Pcbnew,(7.0.0-0)
; #@! TF.FileFunction,Plated,1,2,PTH
FMAT,2
INCH
; #@! TA.AperFunction,Plated,PTH,ViaDrill
T1C0.0157
; #@! TA.AperFunction,Plated,PTH,ComponentDrill
T2C0.0236
; #@! TA.AperFunction,Plated,PTH,ComponentDrill
T3C0.0300
; #@! TA.AperFunction,Plated,PTH,ComponentDrill
T4C0.0315
%
G90
G05
T1
X5.0236Y-8.6122
X5.0236Y-9.3476
X5.2Y-9.0378
X5.2Y-10.1841
X5.2258Y-9.6378
X5.6956Y-10.1044
X5.7Y-10.0
X5.7736Y-9.3634
X5.8071Y-9.6378
X5.8224Y-10.1606
X5.8291Y-10.0709
X6.0Y-8.1
X6.0224Y-9.3776
X6.0224Y-10.1
X6.1Y-7.2378
X6.1224Y-9.4
X6.1224Y-10.1
X6.2Y-7.9378
X6.2Y-9.8
X6.2Y-9.9
X6.2224Y-9.4
X6.2224Y-10.1
X6.29Y-10.0325
X6.3234Y-9.6
X6.3234Y-10.1
X6.3878Y-8.6122
X6.4224Y-10.1154
X6.5224Y-9.6
X6.5224Y-10.1776
X6.5276Y-9.3634
X6.6Y-9.7378
X6.6Y-9.8
X6.6Y-10.0
X6.6378Y-10.1378
X6.6524Y-9.0524
X6.8Y-9.7378
X7.0Y-10.1
X7.2776Y-10.0984
X7.4Y-10.0378
X7.6Y-9.8
X8.0232Y-10.0984
X8.3Y-9.9
X9.2283Y-10.2044
X9.6Y-9.5378
X9.6715Y-9.5663
X9.9Y-8.0
T3
X6.8764Y-6.3157
X6.8764Y-6.4157
X7.4764Y-6.3157
X7.4764Y-6.4157
T2
G00X9.6689Y-8.1575
M15
G01X9.7043Y-8.1575
M16
G05
G00X9.787Y-8.1575
M15
G01X9.8224Y-8.1575
M16
G05
G00X9.9445Y-8.1575
M15
G01X9.9799Y-8.1575
M16
G05
G00X10.0035Y-8.0
M15
G01X10.039Y-8.0
M16
G05
T4
G00X4.7671Y-6.7976
M15
G01X4.7829Y-6.7976
M16
G05
G00X4.7671Y-7.5476
M15
G01X4.7829Y-7.5476
M16
G05
G00X4.7671Y-8.2976
M15
G01X4.7829Y-8.2976
M16
G05
G00X4.7671Y-9.0524
M15
G01X4.7829Y-9.0524
M16
G05
G00X5.0171Y-6.6976
M15
G01X5.0329Y-6.6976
M16
G05
G00X5.0171Y-7.4476
M15
G01X5.0329Y-7.4476
M16
G05
G00X5.0171Y-8.1976
M15
G01X5.0329Y-8.1976
M16
G05
G00X5.0171Y-8.9524
M15
G01X5.0329Y-8.9524
M16
G05
G00X5.5144Y-6.7976
M15
G01X5.5301Y-6.7976
M16
G05
G00X5.5144Y-7.5476
M15
G01X5.5301Y-7.5476
M16
G05
G00X5.5144Y-8.2976
M15
G01X5.5301Y-8.2976
M16
G05
G00X5.5144Y-9.0524
M15
G01X5.5301Y-9.0524
M16
G05
G00X5.7644Y-6.6976
M15
G01X5.7801Y-6.6976
M16
G05
G00X5.7644Y-7.4476
M15
G01X5.7801Y-7.4476
M16
G05
G00X5.7644Y-8.1976
M15
G01X5.7801Y-8.1976
M16
G05
G00X5.7644Y-8.9524
M15
G01X5.7801Y-8.9524
M16
G05
G00X6.2671Y-6.7976
M15
G01X6.2829Y-6.7976
M16
G05
G00X6.2671Y-7.5476
M15
G01X6.2829Y-7.5476
M16
G05
G00X6.2671Y-8.2976
M15
G01X6.2829Y-8.2976
M16
G05
G00X6.2671Y-9.0524
M15
G01X6.2829Y-9.0524
M16
G05
G00X6.5171Y-6.6976
M15
G01X6.5329Y-6.6976
M16
G05
G00X6.5171Y-7.4476
M15
G01X6.5329Y-7.4476
M16
G05
G00X6.5171Y-8.1976
M15
G01X6.5329Y-8.1976
M16
G05
G00X6.5171Y-8.9524
M15
G01X6.5329Y-8.9524
M16
G05
G00X7.0171Y-6.7976
M15
G01X7.0329Y-6.7976
M16
G05
G00X7.0171Y-7.5476
M15
G01X7.0329Y-7.5476
M16
G05
G00X7.0171Y-8.2976
M15
G01X7.0329Y-8.2976
M16
G05
G00X7.0171Y-9.0524
M15
G01X7.0329Y-9.0524
M16
G05
G00X7.0195Y-9.7976
M15
G01X7.0352Y-9.7976
M16
G05
G00X7.2671Y-6.6976
M15
G01X7.2829Y-6.6976
M16
G05
G00X7.2671Y-7.4476
M15
G01X7.2829Y-7.4476
M16
G05
G00X7.2671Y-8.1976
M15
G01X7.2829Y-8.1976
M16
G05
G00X7.2671Y-8.9524
M15
G01X7.2829Y-8.9524
M16
G05
G00X7.2695Y-9.6976
M15
G01X7.2852Y-9.6976
M16
G05
G00X7.7671Y-6.7976
M15
G01X7.7829Y-6.7976
M16
G05
G00X7.7671Y-7.5476
M15
G01X7.7829Y-7.5476
M16
G05
G00X7.7671Y-8.2976
M15
G01X7.7829Y-8.2976
M16
G05
G00X7.7671Y-9.0524
M15
G01X7.7829Y-9.0524
M16
G05
G00X7.7671Y-9.7976
M15
G01X7.7829Y-9.7976
M16
G05
G00X8.0171Y-6.6976
M15
G01X8.0329Y-6.6976
M16
G05
G00X8.0171Y-7.4476
M15
G01X8.0329Y-7.4476
M16
G05
G00X8.0171Y-8.1976
M15
G01X8.0329Y-8.1976
M16
G05
G00X8.0171Y-8.9524
M15
G01X8.0329Y-8.9524
M16
G05
G00X8.0171Y-9.6976
M15
G01X8.0329Y-9.6976
M16
G05
G00X8.5171Y-6.7976
M15
G01X8.5329Y-6.7976
M16
G05
G00X8.5171Y-7.5476
M15
G01X8.5329Y-7.5476
M16
G05
G00X8.5171Y-8.2976
M15
G01X8.5329Y-8.2976
M16
G05
G00X8.5171Y-9.0524
M15
G01X8.5329Y-9.0524
M16
G05
G00X8.5171Y-9.7976
M15
G01X8.5329Y-9.7976
M16
G05
G00X8.7671Y-6.6976
M15
G01X8.7829Y-6.6976
M16
G05
G00X8.7671Y-7.4476
M15
G01X8.7829Y-7.4476
M16
G05
G00X8.7671Y-8.1976
M15
G01X8.7829Y-8.1976
M16
G05
G00X8.7671Y-8.9524
M15
G01X8.7829Y-8.9524
M16
G05
G00X8.7671Y-9.6976
M15
G01X8.7829Y-9.6976
M16
G05
G00X9.2671Y-6.7976
M15
G01X9.2829Y-6.7976
M16
G05
G00X9.2671Y-7.5476
M15
G01X9.2829Y-7.5476
M16
G05
G00X9.2671Y-8.2976
M15
G01X9.2829Y-8.2976
M16
G05
G00X9.2671Y-9.0476
M15
G01X9.2829Y-9.0476
M16
G05
G00X9.2671Y-9.7976
M15
G01X9.2829Y-9.7976
M16
G05
G00X9.5171Y-6.6976
M15
G01X9.5329Y-6.6976
M16
G05
G00X9.5171Y-7.4476
M15
G01X9.5329Y-7.4476
M16
G05
G00X9.5171Y-8.1976
M15
G01X9.5329Y-8.1976
M16
G05
G00X9.5171Y-8.9476
M15
G01X9.5329Y-8.9476
M16
G05
G00X9.5171Y-9.6976
M15
G01X9.5329Y-9.6976
M16
G05
T0
M30
