M48
; DRILL file {KiCad (7.0.0-0)} date Sunday, March 05, 2023 23:11:19
; FORMAT={-:-/ absolute / inch / decimal}
; #@! TF.CreationDate,2023-03-05T23:11:19+09:00
; #@! TF.GenerationSoftware,Kicad,Pcbnew,(7.0.0-0)
; #@! TF.FileFunction,Plated,1,2,PTH
FMAT,2
INCH
; #@! TA.AperFunction,Plated,PTH,ViaDrill
T1C0.0157
; #@! TA.AperFunction,Plated,PTH,ComponentDrill
T2C0.0236
; #@! TA.AperFunction,Plated,PTH,ComponentDrill
T3C0.0300
; #@! TA.AperFunction,Plated,PTH,ComponentDrill
T4C0.0315
%
G90
G05
T1
X1.9236Y-3.3122
X1.9236Y-4.0476
X2.1Y-3.7378
X2.1Y-4.8841
X2.1258Y-4.3378
X2.5956Y-4.8044
X2.6Y-4.7
X2.6736Y-4.0634
X2.7071Y-4.3378
X2.7224Y-4.8606
X2.7291Y-4.7709
X2.9Y-2.8
X2.9224Y-4.0776
X2.9224Y-4.8
X3.0Y-1.9378
X3.0224Y-4.1
X3.0224Y-4.8
X3.1Y-2.6378
X3.1Y-4.5
X3.1Y-4.6
X3.1224Y-4.1
X3.1224Y-4.8
X3.19Y-4.7325
X3.2234Y-4.3
X3.2234Y-4.8
X3.2878Y-3.3122
X3.3224Y-4.8154
X3.4224Y-4.3
X3.4224Y-4.8776
X3.4276Y-4.0634
X3.5Y-4.4378
X3.5Y-4.5
X3.5Y-4.7
X3.5378Y-4.8378
X3.5524Y-3.7524
X3.7Y-4.4378
X3.9Y-4.8
X4.1776Y-4.7984
X4.3Y-4.7378
X4.5Y-4.5
X4.9232Y-4.7984
X5.2Y-4.6
X6.1283Y-4.9044
X6.5Y-4.2378
X6.5715Y-4.2663
X6.8Y-2.7
T3
X3.7764Y-1.0157
X3.7764Y-1.1157
X4.3764Y-1.0157
X4.3764Y-1.1157
T2
G00X6.5689Y-2.8575
M15
G01X6.6043Y-2.8575
M16
G05
G00X6.687Y-2.8575
M15
G01X6.7224Y-2.8575
M16
G05
G00X6.8445Y-2.8575
M15
G01X6.8799Y-2.8575
M16
G05
G00X6.9035Y-2.7
M15
G01X6.939Y-2.7
M16
G05
T4
G00X1.6671Y-1.4976
M15
G01X1.6829Y-1.4976
M16
G05
G00X1.6671Y-2.2476
M15
G01X1.6829Y-2.2476
M16
G05
G00X1.6671Y-2.9976
M15
G01X1.6829Y-2.9976
M16
G05
G00X1.6671Y-3.7524
M15
G01X1.6829Y-3.7524
M16
G05
G00X1.9171Y-1.3976
M15
G01X1.9329Y-1.3976
M16
G05
G00X1.9171Y-2.1476
M15
G01X1.9329Y-2.1476
M16
G05
G00X1.9171Y-2.8976
M15
G01X1.9329Y-2.8976
M16
G05
G00X1.9171Y-3.6524
M15
G01X1.9329Y-3.6524
M16
G05
G00X2.4144Y-1.4976
M15
G01X2.4301Y-1.4976
M16
G05
G00X2.4144Y-2.2476
M15
G01X2.4301Y-2.2476
M16
G05
G00X2.4144Y-2.9976
M15
G01X2.4301Y-2.9976
M16
G05
G00X2.4144Y-3.7524
M15
G01X2.4301Y-3.7524
M16
G05
G00X2.6644Y-1.3976
M15
G01X2.6801Y-1.3976
M16
G05
G00X2.6644Y-2.1476
M15
G01X2.6801Y-2.1476
M16
G05
G00X2.6644Y-2.8976
M15
G01X2.6801Y-2.8976
M16
G05
G00X2.6644Y-3.6524
M15
G01X2.6801Y-3.6524
M16
G05
G00X3.1671Y-1.4976
M15
G01X3.1829Y-1.4976
M16
G05
G00X3.1671Y-2.2476
M15
G01X3.1829Y-2.2476
M16
G05
G00X3.1671Y-2.9976
M15
G01X3.1829Y-2.9976
M16
G05
G00X3.1671Y-3.7524
M15
G01X3.1829Y-3.7524
M16
G05
G00X3.4171Y-1.3976
M15
G01X3.4329Y-1.3976
M16
G05
G00X3.4171Y-2.1476
M15
G01X3.4329Y-2.1476
M16
G05
G00X3.4171Y-2.8976
M15
G01X3.4329Y-2.8976
M16
G05
G00X3.4171Y-3.6524
M15
G01X3.4329Y-3.6524
M16
G05
G00X3.9171Y-1.4976
M15
G01X3.9329Y-1.4976
M16
G05
G00X3.9171Y-2.2476
M15
G01X3.9329Y-2.2476
M16
G05
G00X3.9171Y-2.9976
M15
G01X3.9329Y-2.9976
M16
G05
G00X3.9171Y-3.7524
M15
G01X3.9329Y-3.7524
M16
G05
G00X3.9195Y-4.4976
M15
G01X3.9352Y-4.4976
M16
G05
G00X4.1671Y-1.3976
M15
G01X4.1829Y-1.3976
M16
G05
G00X4.1671Y-2.1476
M15
G01X4.1829Y-2.1476
M16
G05
G00X4.1671Y-2.8976
M15
G01X4.1829Y-2.8976
M16
G05
G00X4.1671Y-3.6524
M15
G01X4.1829Y-3.6524
M16
G05
G00X4.1695Y-4.3976
M15
G01X4.1852Y-4.3976
M16
G05
G00X4.6671Y-1.4976
M15
G01X4.6829Y-1.4976
M16
G05
G00X4.6671Y-2.2476
M15
G01X4.6829Y-2.2476
M16
G05
G00X4.6671Y-2.9976
M15
G01X4.6829Y-2.9976
M16
G05
G00X4.6671Y-3.7524
M15
G01X4.6829Y-3.7524
M16
G05
G00X4.6671Y-4.4976
M15
G01X4.6829Y-4.4976
M16
G05
G00X4.9171Y-1.3976
M15
G01X4.9329Y-1.3976
M16
G05
G00X4.9171Y-2.1476
M15
G01X4.9329Y-2.1476
M16
G05
G00X4.9171Y-2.8976
M15
G01X4.9329Y-2.8976
M16
G05
G00X4.9171Y-3.6524
M15
G01X4.9329Y-3.6524
M16
G05
G00X4.9171Y-4.3976
M15
G01X4.9329Y-4.3976
M16
G05
G00X5.4171Y-1.4976
M15
G01X5.4329Y-1.4976
M16
G05
G00X5.4171Y-2.2476
M15
G01X5.4329Y-2.2476
M16
G05
G00X5.4171Y-2.9976
M15
G01X5.4329Y-2.9976
M16
G05
G00X5.4171Y-3.7524
M15
G01X5.4329Y-3.7524
M16
G05
G00X5.4171Y-4.4976
M15
G01X5.4329Y-4.4976
M16
G05
G00X5.6671Y-1.3976
M15
G01X5.6829Y-1.3976
M16
G05
G00X5.6671Y-2.1476
M15
G01X5.6829Y-2.1476
M16
G05
G00X5.6671Y-2.8976
M15
G01X5.6829Y-2.8976
M16
G05
G00X5.6671Y-3.6524
M15
G01X5.6829Y-3.6524
M16
G05
G00X5.6671Y-4.3976
M15
G01X5.6829Y-4.3976
M16
G05
G00X6.1671Y-1.4976
M15
G01X6.1829Y-1.4976
M16
G05
G00X6.1671Y-2.2476
M15
G01X6.1829Y-2.2476
M16
G05
G00X6.1671Y-2.9976
M15
G01X6.1829Y-2.9976
M16
G05
G00X6.1671Y-3.7476
M15
G01X6.1829Y-3.7476
M16
G05
G00X6.1671Y-4.4976
M15
G01X6.1829Y-4.4976
M16
G05
G00X6.4171Y-1.3976
M15
G01X6.4329Y-1.3976
M16
G05
G00X6.4171Y-2.1476
M15
G01X6.4329Y-2.1476
M16
G05
G00X6.4171Y-2.8976
M15
G01X6.4329Y-2.8976
M16
G05
G00X6.4171Y-3.6476
M15
G01X6.4329Y-3.6476
M16
G05
G00X6.4171Y-4.3976
M15
G01X6.4329Y-4.3976
M16
G05
T0
M30
