%TF.GenerationSoftware,KiCad,Pcbnew,(7.0.0-0)*%
%TF.CreationDate,2023-03-06T00:13:20+09:00*%
%TF.ProjectId,11111_pcb,31313131-315f-4706-9362-2e6b69636164,rev?*%
%TF.SameCoordinates,Original*%
%TF.FileFunction,Legend,Bot*%
%TF.FilePolarity,Positive*%
%FSLAX46Y46*%
G04 Gerber Fmt 4.6, Leading zero omitted, Abs format (unit mm)*
G04 Created by KiCad (PCBNEW (7.0.0-0)) date 2023-03-06 00:13:20*
%MOMM*%
%LPD*%
G01*
G04 APERTURE LIST*
%ADD10C,0.300000*%
%ADD11C,0.150000*%
%ADD12C,0.125000*%
%ADD13C,0.120000*%
G04 APERTURE END LIST*
D10*
X247777142Y-162143571D02*
X248634285Y-162143571D01*
X248205714Y-162143571D02*
X248205714Y-160643571D01*
X248205714Y-160643571D02*
X248348571Y-160857857D01*
X248348571Y-160857857D02*
X248491428Y-161000714D01*
X248491428Y-161000714D02*
X248634285Y-161072142D01*
X246348571Y-162143571D02*
X247205714Y-162143571D01*
X246777143Y-162143571D02*
X246777143Y-160643571D01*
X246777143Y-160643571D02*
X246920000Y-160857857D01*
X246920000Y-160857857D02*
X247062857Y-161000714D01*
X247062857Y-161000714D02*
X247205714Y-161072142D01*
X244920000Y-162143571D02*
X245777143Y-162143571D01*
X245348572Y-162143571D02*
X245348572Y-160643571D01*
X245348572Y-160643571D02*
X245491429Y-160857857D01*
X245491429Y-160857857D02*
X245634286Y-161000714D01*
X245634286Y-161000714D02*
X245777143Y-161072142D01*
X243491429Y-162143571D02*
X244348572Y-162143571D01*
X243920001Y-162143571D02*
X243920001Y-160643571D01*
X243920001Y-160643571D02*
X244062858Y-160857857D01*
X244062858Y-160857857D02*
X244205715Y-161000714D01*
X244205715Y-161000714D02*
X244348572Y-161072142D01*
X242062858Y-162143571D02*
X242920001Y-162143571D01*
X242491430Y-162143571D02*
X242491430Y-160643571D01*
X242491430Y-160643571D02*
X242634287Y-160857857D01*
X242634287Y-160857857D02*
X242777144Y-161000714D01*
X242777144Y-161000714D02*
X242920001Y-161072142D01*
X240662859Y-161143571D02*
X240305716Y-162143571D01*
X240305716Y-162143571D02*
X239948573Y-161143571D01*
X238805716Y-162072142D02*
X238948573Y-162143571D01*
X238948573Y-162143571D02*
X239234288Y-162143571D01*
X239234288Y-162143571D02*
X239377145Y-162072142D01*
X239377145Y-162072142D02*
X239448573Y-161929285D01*
X239448573Y-161929285D02*
X239448573Y-161357857D01*
X239448573Y-161357857D02*
X239377145Y-161215000D01*
X239377145Y-161215000D02*
X239234288Y-161143571D01*
X239234288Y-161143571D02*
X238948573Y-161143571D01*
X238948573Y-161143571D02*
X238805716Y-161215000D01*
X238805716Y-161215000D02*
X238734288Y-161357857D01*
X238734288Y-161357857D02*
X238734288Y-161500714D01*
X238734288Y-161500714D02*
X239448573Y-161643571D01*
X238091431Y-162143571D02*
X238091431Y-161143571D01*
X238091431Y-161429285D02*
X238020002Y-161286428D01*
X238020002Y-161286428D02*
X237948574Y-161215000D01*
X237948574Y-161215000D02*
X237805716Y-161143571D01*
X237805716Y-161143571D02*
X237662859Y-161143571D01*
X237162860Y-162000714D02*
X237091431Y-162072142D01*
X237091431Y-162072142D02*
X237162860Y-162143571D01*
X237162860Y-162143571D02*
X237234288Y-162072142D01*
X237234288Y-162072142D02*
X237162860Y-162000714D01*
X237162860Y-162000714D02*
X237162860Y-162143571D01*
X235662859Y-162143571D02*
X236520002Y-162143571D01*
X236091431Y-162143571D02*
X236091431Y-160643571D01*
X236091431Y-160643571D02*
X236234288Y-160857857D01*
X236234288Y-160857857D02*
X236377145Y-161000714D01*
X236377145Y-161000714D02*
X236520002Y-161072142D01*
X248348571Y-164573571D02*
X248491428Y-164502142D01*
X248491428Y-164502142D02*
X248562857Y-164359285D01*
X248562857Y-164359285D02*
X248562857Y-163073571D01*
X247205714Y-164502142D02*
X247348571Y-164573571D01*
X247348571Y-164573571D02*
X247634286Y-164573571D01*
X247634286Y-164573571D02*
X247777143Y-164502142D01*
X247777143Y-164502142D02*
X247848571Y-164359285D01*
X247848571Y-164359285D02*
X247848571Y-163787857D01*
X247848571Y-163787857D02*
X247777143Y-163645000D01*
X247777143Y-163645000D02*
X247634286Y-163573571D01*
X247634286Y-163573571D02*
X247348571Y-163573571D01*
X247348571Y-163573571D02*
X247205714Y-163645000D01*
X247205714Y-163645000D02*
X247134286Y-163787857D01*
X247134286Y-163787857D02*
X247134286Y-163930714D01*
X247134286Y-163930714D02*
X247848571Y-164073571D01*
X246705714Y-163573571D02*
X246134286Y-163573571D01*
X246491429Y-164573571D02*
X246491429Y-163287857D01*
X246491429Y-163287857D02*
X246420000Y-163145000D01*
X246420000Y-163145000D02*
X246277143Y-163073571D01*
X246277143Y-163073571D02*
X246134286Y-163073571D01*
X245848571Y-163573571D02*
X245277143Y-163573571D01*
X245634286Y-163073571D02*
X245634286Y-164359285D01*
X245634286Y-164359285D02*
X245562857Y-164502142D01*
X245562857Y-164502142D02*
X245420000Y-164573571D01*
X245420000Y-164573571D02*
X245277143Y-164573571D01*
X243877143Y-164573571D02*
X243877143Y-163073571D01*
X243234286Y-164573571D02*
X243234286Y-163787857D01*
X243234286Y-163787857D02*
X243305714Y-163645000D01*
X243305714Y-163645000D02*
X243448571Y-163573571D01*
X243448571Y-163573571D02*
X243662857Y-163573571D01*
X243662857Y-163573571D02*
X243805714Y-163645000D01*
X243805714Y-163645000D02*
X243877143Y-163716428D01*
X241877143Y-164573571D02*
X241877143Y-163787857D01*
X241877143Y-163787857D02*
X241948571Y-163645000D01*
X241948571Y-163645000D02*
X242091428Y-163573571D01*
X242091428Y-163573571D02*
X242377143Y-163573571D01*
X242377143Y-163573571D02*
X242520000Y-163645000D01*
X241877143Y-164502142D02*
X242020000Y-164573571D01*
X242020000Y-164573571D02*
X242377143Y-164573571D01*
X242377143Y-164573571D02*
X242520000Y-164502142D01*
X242520000Y-164502142D02*
X242591428Y-164359285D01*
X242591428Y-164359285D02*
X242591428Y-164216428D01*
X242591428Y-164216428D02*
X242520000Y-164073571D01*
X242520000Y-164073571D02*
X242377143Y-164002142D01*
X242377143Y-164002142D02*
X242020000Y-164002142D01*
X242020000Y-164002142D02*
X241877143Y-163930714D01*
X241162857Y-163573571D02*
X241162857Y-164573571D01*
X241162857Y-163716428D02*
X241091428Y-163645000D01*
X241091428Y-163645000D02*
X240948571Y-163573571D01*
X240948571Y-163573571D02*
X240734285Y-163573571D01*
X240734285Y-163573571D02*
X240591428Y-163645000D01*
X240591428Y-163645000D02*
X240520000Y-163787857D01*
X240520000Y-163787857D02*
X240520000Y-164573571D01*
X239162857Y-164573571D02*
X239162857Y-163073571D01*
X239162857Y-164502142D02*
X239305714Y-164573571D01*
X239305714Y-164573571D02*
X239591428Y-164573571D01*
X239591428Y-164573571D02*
X239734285Y-164502142D01*
X239734285Y-164502142D02*
X239805714Y-164430714D01*
X239805714Y-164430714D02*
X239877142Y-164287857D01*
X239877142Y-164287857D02*
X239877142Y-163859285D01*
X239877142Y-163859285D02*
X239805714Y-163716428D01*
X239805714Y-163716428D02*
X239734285Y-163645000D01*
X239734285Y-163645000D02*
X239591428Y-163573571D01*
X239591428Y-163573571D02*
X239305714Y-163573571D01*
X239305714Y-163573571D02*
X239162857Y-163645000D01*
D11*
%TO.C,SW20*%
X220884523Y-189489761D02*
X220741666Y-189537380D01*
X220741666Y-189537380D02*
X220503571Y-189537380D01*
X220503571Y-189537380D02*
X220408333Y-189489761D01*
X220408333Y-189489761D02*
X220360714Y-189442142D01*
X220360714Y-189442142D02*
X220313095Y-189346904D01*
X220313095Y-189346904D02*
X220313095Y-189251666D01*
X220313095Y-189251666D02*
X220360714Y-189156428D01*
X220360714Y-189156428D02*
X220408333Y-189108809D01*
X220408333Y-189108809D02*
X220503571Y-189061190D01*
X220503571Y-189061190D02*
X220694047Y-189013571D01*
X220694047Y-189013571D02*
X220789285Y-188965952D01*
X220789285Y-188965952D02*
X220836904Y-188918333D01*
X220836904Y-188918333D02*
X220884523Y-188823095D01*
X220884523Y-188823095D02*
X220884523Y-188727857D01*
X220884523Y-188727857D02*
X220836904Y-188632619D01*
X220836904Y-188632619D02*
X220789285Y-188585000D01*
X220789285Y-188585000D02*
X220694047Y-188537380D01*
X220694047Y-188537380D02*
X220455952Y-188537380D01*
X220455952Y-188537380D02*
X220313095Y-188585000D01*
X219979761Y-188537380D02*
X219741666Y-189537380D01*
X219741666Y-189537380D02*
X219551190Y-188823095D01*
X219551190Y-188823095D02*
X219360714Y-189537380D01*
X219360714Y-189537380D02*
X219122619Y-188537380D01*
X218789285Y-188632619D02*
X218741666Y-188585000D01*
X218741666Y-188585000D02*
X218646428Y-188537380D01*
X218646428Y-188537380D02*
X218408333Y-188537380D01*
X218408333Y-188537380D02*
X218313095Y-188585000D01*
X218313095Y-188585000D02*
X218265476Y-188632619D01*
X218265476Y-188632619D02*
X218217857Y-188727857D01*
X218217857Y-188727857D02*
X218217857Y-188823095D01*
X218217857Y-188823095D02*
X218265476Y-188965952D01*
X218265476Y-188965952D02*
X218836904Y-189537380D01*
X218836904Y-189537380D02*
X218217857Y-189537380D01*
X217598809Y-188537380D02*
X217503571Y-188537380D01*
X217503571Y-188537380D02*
X217408333Y-188585000D01*
X217408333Y-188585000D02*
X217360714Y-188632619D01*
X217360714Y-188632619D02*
X217313095Y-188727857D01*
X217313095Y-188727857D02*
X217265476Y-188918333D01*
X217265476Y-188918333D02*
X217265476Y-189156428D01*
X217265476Y-189156428D02*
X217313095Y-189346904D01*
X217313095Y-189346904D02*
X217360714Y-189442142D01*
X217360714Y-189442142D02*
X217408333Y-189489761D01*
X217408333Y-189489761D02*
X217503571Y-189537380D01*
X217503571Y-189537380D02*
X217598809Y-189537380D01*
X217598809Y-189537380D02*
X217694047Y-189489761D01*
X217694047Y-189489761D02*
X217741666Y-189442142D01*
X217741666Y-189442142D02*
X217789285Y-189346904D01*
X217789285Y-189346904D02*
X217836904Y-189156428D01*
X217836904Y-189156428D02*
X217836904Y-188918333D01*
X217836904Y-188918333D02*
X217789285Y-188727857D01*
X217789285Y-188727857D02*
X217741666Y-188632619D01*
X217741666Y-188632619D02*
X217694047Y-188585000D01*
X217694047Y-188585000D02*
X217598809Y-188537380D01*
%TO.C,SW29*%
X125634523Y-208539761D02*
X125491666Y-208587380D01*
X125491666Y-208587380D02*
X125253571Y-208587380D01*
X125253571Y-208587380D02*
X125158333Y-208539761D01*
X125158333Y-208539761D02*
X125110714Y-208492142D01*
X125110714Y-208492142D02*
X125063095Y-208396904D01*
X125063095Y-208396904D02*
X125063095Y-208301666D01*
X125063095Y-208301666D02*
X125110714Y-208206428D01*
X125110714Y-208206428D02*
X125158333Y-208158809D01*
X125158333Y-208158809D02*
X125253571Y-208111190D01*
X125253571Y-208111190D02*
X125444047Y-208063571D01*
X125444047Y-208063571D02*
X125539285Y-208015952D01*
X125539285Y-208015952D02*
X125586904Y-207968333D01*
X125586904Y-207968333D02*
X125634523Y-207873095D01*
X125634523Y-207873095D02*
X125634523Y-207777857D01*
X125634523Y-207777857D02*
X125586904Y-207682619D01*
X125586904Y-207682619D02*
X125539285Y-207635000D01*
X125539285Y-207635000D02*
X125444047Y-207587380D01*
X125444047Y-207587380D02*
X125205952Y-207587380D01*
X125205952Y-207587380D02*
X125063095Y-207635000D01*
X124729761Y-207587380D02*
X124491666Y-208587380D01*
X124491666Y-208587380D02*
X124301190Y-207873095D01*
X124301190Y-207873095D02*
X124110714Y-208587380D01*
X124110714Y-208587380D02*
X123872619Y-207587380D01*
X123539285Y-207682619D02*
X123491666Y-207635000D01*
X123491666Y-207635000D02*
X123396428Y-207587380D01*
X123396428Y-207587380D02*
X123158333Y-207587380D01*
X123158333Y-207587380D02*
X123063095Y-207635000D01*
X123063095Y-207635000D02*
X123015476Y-207682619D01*
X123015476Y-207682619D02*
X122967857Y-207777857D01*
X122967857Y-207777857D02*
X122967857Y-207873095D01*
X122967857Y-207873095D02*
X123015476Y-208015952D01*
X123015476Y-208015952D02*
X123586904Y-208587380D01*
X123586904Y-208587380D02*
X122967857Y-208587380D01*
X122491666Y-208587380D02*
X122301190Y-208587380D01*
X122301190Y-208587380D02*
X122205952Y-208539761D01*
X122205952Y-208539761D02*
X122158333Y-208492142D01*
X122158333Y-208492142D02*
X122063095Y-208349285D01*
X122063095Y-208349285D02*
X122015476Y-208158809D01*
X122015476Y-208158809D02*
X122015476Y-207777857D01*
X122015476Y-207777857D02*
X122063095Y-207682619D01*
X122063095Y-207682619D02*
X122110714Y-207635000D01*
X122110714Y-207635000D02*
X122205952Y-207587380D01*
X122205952Y-207587380D02*
X122396428Y-207587380D01*
X122396428Y-207587380D02*
X122491666Y-207635000D01*
X122491666Y-207635000D02*
X122539285Y-207682619D01*
X122539285Y-207682619D02*
X122586904Y-207777857D01*
X122586904Y-207777857D02*
X122586904Y-208015952D01*
X122586904Y-208015952D02*
X122539285Y-208111190D01*
X122539285Y-208111190D02*
X122491666Y-208158809D01*
X122491666Y-208158809D02*
X122396428Y-208206428D01*
X122396428Y-208206428D02*
X122205952Y-208206428D01*
X122205952Y-208206428D02*
X122110714Y-208158809D01*
X122110714Y-208158809D02*
X122063095Y-208111190D01*
X122063095Y-208111190D02*
X122015476Y-208015952D01*
%TO.C,SW60*%
X239934523Y-246639761D02*
X239791666Y-246687380D01*
X239791666Y-246687380D02*
X239553571Y-246687380D01*
X239553571Y-246687380D02*
X239458333Y-246639761D01*
X239458333Y-246639761D02*
X239410714Y-246592142D01*
X239410714Y-246592142D02*
X239363095Y-246496904D01*
X239363095Y-246496904D02*
X239363095Y-246401666D01*
X239363095Y-246401666D02*
X239410714Y-246306428D01*
X239410714Y-246306428D02*
X239458333Y-246258809D01*
X239458333Y-246258809D02*
X239553571Y-246211190D01*
X239553571Y-246211190D02*
X239744047Y-246163571D01*
X239744047Y-246163571D02*
X239839285Y-246115952D01*
X239839285Y-246115952D02*
X239886904Y-246068333D01*
X239886904Y-246068333D02*
X239934523Y-245973095D01*
X239934523Y-245973095D02*
X239934523Y-245877857D01*
X239934523Y-245877857D02*
X239886904Y-245782619D01*
X239886904Y-245782619D02*
X239839285Y-245735000D01*
X239839285Y-245735000D02*
X239744047Y-245687380D01*
X239744047Y-245687380D02*
X239505952Y-245687380D01*
X239505952Y-245687380D02*
X239363095Y-245735000D01*
X239029761Y-245687380D02*
X238791666Y-246687380D01*
X238791666Y-246687380D02*
X238601190Y-245973095D01*
X238601190Y-245973095D02*
X238410714Y-246687380D01*
X238410714Y-246687380D02*
X238172619Y-245687380D01*
X237363095Y-245687380D02*
X237553571Y-245687380D01*
X237553571Y-245687380D02*
X237648809Y-245735000D01*
X237648809Y-245735000D02*
X237696428Y-245782619D01*
X237696428Y-245782619D02*
X237791666Y-245925476D01*
X237791666Y-245925476D02*
X237839285Y-246115952D01*
X237839285Y-246115952D02*
X237839285Y-246496904D01*
X237839285Y-246496904D02*
X237791666Y-246592142D01*
X237791666Y-246592142D02*
X237744047Y-246639761D01*
X237744047Y-246639761D02*
X237648809Y-246687380D01*
X237648809Y-246687380D02*
X237458333Y-246687380D01*
X237458333Y-246687380D02*
X237363095Y-246639761D01*
X237363095Y-246639761D02*
X237315476Y-246592142D01*
X237315476Y-246592142D02*
X237267857Y-246496904D01*
X237267857Y-246496904D02*
X237267857Y-246258809D01*
X237267857Y-246258809D02*
X237315476Y-246163571D01*
X237315476Y-246163571D02*
X237363095Y-246115952D01*
X237363095Y-246115952D02*
X237458333Y-246068333D01*
X237458333Y-246068333D02*
X237648809Y-246068333D01*
X237648809Y-246068333D02*
X237744047Y-246115952D01*
X237744047Y-246115952D02*
X237791666Y-246163571D01*
X237791666Y-246163571D02*
X237839285Y-246258809D01*
X236648809Y-245687380D02*
X236553571Y-245687380D01*
X236553571Y-245687380D02*
X236458333Y-245735000D01*
X236458333Y-245735000D02*
X236410714Y-245782619D01*
X236410714Y-245782619D02*
X236363095Y-245877857D01*
X236363095Y-245877857D02*
X236315476Y-246068333D01*
X236315476Y-246068333D02*
X236315476Y-246306428D01*
X236315476Y-246306428D02*
X236363095Y-246496904D01*
X236363095Y-246496904D02*
X236410714Y-246592142D01*
X236410714Y-246592142D02*
X236458333Y-246639761D01*
X236458333Y-246639761D02*
X236553571Y-246687380D01*
X236553571Y-246687380D02*
X236648809Y-246687380D01*
X236648809Y-246687380D02*
X236744047Y-246639761D01*
X236744047Y-246639761D02*
X236791666Y-246592142D01*
X236791666Y-246592142D02*
X236839285Y-246496904D01*
X236839285Y-246496904D02*
X236886904Y-246306428D01*
X236886904Y-246306428D02*
X236886904Y-246068333D01*
X236886904Y-246068333D02*
X236839285Y-245877857D01*
X236839285Y-245877857D02*
X236791666Y-245782619D01*
X236791666Y-245782619D02*
X236744047Y-245735000D01*
X236744047Y-245735000D02*
X236648809Y-245687380D01*
%TO.C,SW18*%
X182784523Y-189489761D02*
X182641666Y-189537380D01*
X182641666Y-189537380D02*
X182403571Y-189537380D01*
X182403571Y-189537380D02*
X182308333Y-189489761D01*
X182308333Y-189489761D02*
X182260714Y-189442142D01*
X182260714Y-189442142D02*
X182213095Y-189346904D01*
X182213095Y-189346904D02*
X182213095Y-189251666D01*
X182213095Y-189251666D02*
X182260714Y-189156428D01*
X182260714Y-189156428D02*
X182308333Y-189108809D01*
X182308333Y-189108809D02*
X182403571Y-189061190D01*
X182403571Y-189061190D02*
X182594047Y-189013571D01*
X182594047Y-189013571D02*
X182689285Y-188965952D01*
X182689285Y-188965952D02*
X182736904Y-188918333D01*
X182736904Y-188918333D02*
X182784523Y-188823095D01*
X182784523Y-188823095D02*
X182784523Y-188727857D01*
X182784523Y-188727857D02*
X182736904Y-188632619D01*
X182736904Y-188632619D02*
X182689285Y-188585000D01*
X182689285Y-188585000D02*
X182594047Y-188537380D01*
X182594047Y-188537380D02*
X182355952Y-188537380D01*
X182355952Y-188537380D02*
X182213095Y-188585000D01*
X181879761Y-188537380D02*
X181641666Y-189537380D01*
X181641666Y-189537380D02*
X181451190Y-188823095D01*
X181451190Y-188823095D02*
X181260714Y-189537380D01*
X181260714Y-189537380D02*
X181022619Y-188537380D01*
X180117857Y-189537380D02*
X180689285Y-189537380D01*
X180403571Y-189537380D02*
X180403571Y-188537380D01*
X180403571Y-188537380D02*
X180498809Y-188680238D01*
X180498809Y-188680238D02*
X180594047Y-188775476D01*
X180594047Y-188775476D02*
X180689285Y-188823095D01*
X179546428Y-188965952D02*
X179641666Y-188918333D01*
X179641666Y-188918333D02*
X179689285Y-188870714D01*
X179689285Y-188870714D02*
X179736904Y-188775476D01*
X179736904Y-188775476D02*
X179736904Y-188727857D01*
X179736904Y-188727857D02*
X179689285Y-188632619D01*
X179689285Y-188632619D02*
X179641666Y-188585000D01*
X179641666Y-188585000D02*
X179546428Y-188537380D01*
X179546428Y-188537380D02*
X179355952Y-188537380D01*
X179355952Y-188537380D02*
X179260714Y-188585000D01*
X179260714Y-188585000D02*
X179213095Y-188632619D01*
X179213095Y-188632619D02*
X179165476Y-188727857D01*
X179165476Y-188727857D02*
X179165476Y-188775476D01*
X179165476Y-188775476D02*
X179213095Y-188870714D01*
X179213095Y-188870714D02*
X179260714Y-188918333D01*
X179260714Y-188918333D02*
X179355952Y-188965952D01*
X179355952Y-188965952D02*
X179546428Y-188965952D01*
X179546428Y-188965952D02*
X179641666Y-189013571D01*
X179641666Y-189013571D02*
X179689285Y-189061190D01*
X179689285Y-189061190D02*
X179736904Y-189156428D01*
X179736904Y-189156428D02*
X179736904Y-189346904D01*
X179736904Y-189346904D02*
X179689285Y-189442142D01*
X179689285Y-189442142D02*
X179641666Y-189489761D01*
X179641666Y-189489761D02*
X179546428Y-189537380D01*
X179546428Y-189537380D02*
X179355952Y-189537380D01*
X179355952Y-189537380D02*
X179260714Y-189489761D01*
X179260714Y-189489761D02*
X179213095Y-189442142D01*
X179213095Y-189442142D02*
X179165476Y-189346904D01*
X179165476Y-189346904D02*
X179165476Y-189156428D01*
X179165476Y-189156428D02*
X179213095Y-189061190D01*
X179213095Y-189061190D02*
X179260714Y-189013571D01*
X179260714Y-189013571D02*
X179355952Y-188965952D01*
%TO.C,SW48*%
X220884523Y-227709761D02*
X220741666Y-227757380D01*
X220741666Y-227757380D02*
X220503571Y-227757380D01*
X220503571Y-227757380D02*
X220408333Y-227709761D01*
X220408333Y-227709761D02*
X220360714Y-227662142D01*
X220360714Y-227662142D02*
X220313095Y-227566904D01*
X220313095Y-227566904D02*
X220313095Y-227471666D01*
X220313095Y-227471666D02*
X220360714Y-227376428D01*
X220360714Y-227376428D02*
X220408333Y-227328809D01*
X220408333Y-227328809D02*
X220503571Y-227281190D01*
X220503571Y-227281190D02*
X220694047Y-227233571D01*
X220694047Y-227233571D02*
X220789285Y-227185952D01*
X220789285Y-227185952D02*
X220836904Y-227138333D01*
X220836904Y-227138333D02*
X220884523Y-227043095D01*
X220884523Y-227043095D02*
X220884523Y-226947857D01*
X220884523Y-226947857D02*
X220836904Y-226852619D01*
X220836904Y-226852619D02*
X220789285Y-226805000D01*
X220789285Y-226805000D02*
X220694047Y-226757380D01*
X220694047Y-226757380D02*
X220455952Y-226757380D01*
X220455952Y-226757380D02*
X220313095Y-226805000D01*
X219979761Y-226757380D02*
X219741666Y-227757380D01*
X219741666Y-227757380D02*
X219551190Y-227043095D01*
X219551190Y-227043095D02*
X219360714Y-227757380D01*
X219360714Y-227757380D02*
X219122619Y-226757380D01*
X218313095Y-227090714D02*
X218313095Y-227757380D01*
X218551190Y-226709761D02*
X218789285Y-227424047D01*
X218789285Y-227424047D02*
X218170238Y-227424047D01*
X217646428Y-227185952D02*
X217741666Y-227138333D01*
X217741666Y-227138333D02*
X217789285Y-227090714D01*
X217789285Y-227090714D02*
X217836904Y-226995476D01*
X217836904Y-226995476D02*
X217836904Y-226947857D01*
X217836904Y-226947857D02*
X217789285Y-226852619D01*
X217789285Y-226852619D02*
X217741666Y-226805000D01*
X217741666Y-226805000D02*
X217646428Y-226757380D01*
X217646428Y-226757380D02*
X217455952Y-226757380D01*
X217455952Y-226757380D02*
X217360714Y-226805000D01*
X217360714Y-226805000D02*
X217313095Y-226852619D01*
X217313095Y-226852619D02*
X217265476Y-226947857D01*
X217265476Y-226947857D02*
X217265476Y-226995476D01*
X217265476Y-226995476D02*
X217313095Y-227090714D01*
X217313095Y-227090714D02*
X217360714Y-227138333D01*
X217360714Y-227138333D02*
X217455952Y-227185952D01*
X217455952Y-227185952D02*
X217646428Y-227185952D01*
X217646428Y-227185952D02*
X217741666Y-227233571D01*
X217741666Y-227233571D02*
X217789285Y-227281190D01*
X217789285Y-227281190D02*
X217836904Y-227376428D01*
X217836904Y-227376428D02*
X217836904Y-227566904D01*
X217836904Y-227566904D02*
X217789285Y-227662142D01*
X217789285Y-227662142D02*
X217741666Y-227709761D01*
X217741666Y-227709761D02*
X217646428Y-227757380D01*
X217646428Y-227757380D02*
X217455952Y-227757380D01*
X217455952Y-227757380D02*
X217360714Y-227709761D01*
X217360714Y-227709761D02*
X217313095Y-227662142D01*
X217313095Y-227662142D02*
X217265476Y-227566904D01*
X217265476Y-227566904D02*
X217265476Y-227376428D01*
X217265476Y-227376428D02*
X217313095Y-227281190D01*
X217313095Y-227281190D02*
X217360714Y-227233571D01*
X217360714Y-227233571D02*
X217455952Y-227185952D01*
D12*
%TO.C,D48*%
X222056428Y-239223904D02*
X222056428Y-238423904D01*
X222056428Y-238423904D02*
X221865952Y-238423904D01*
X221865952Y-238423904D02*
X221751666Y-238462000D01*
X221751666Y-238462000D02*
X221675476Y-238538190D01*
X221675476Y-238538190D02*
X221637381Y-238614380D01*
X221637381Y-238614380D02*
X221599285Y-238766761D01*
X221599285Y-238766761D02*
X221599285Y-238881047D01*
X221599285Y-238881047D02*
X221637381Y-239033428D01*
X221637381Y-239033428D02*
X221675476Y-239109619D01*
X221675476Y-239109619D02*
X221751666Y-239185809D01*
X221751666Y-239185809D02*
X221865952Y-239223904D01*
X221865952Y-239223904D02*
X222056428Y-239223904D01*
X220913571Y-238690571D02*
X220913571Y-239223904D01*
X221104047Y-238385809D02*
X221294524Y-238957238D01*
X221294524Y-238957238D02*
X220799285Y-238957238D01*
X220380238Y-238766761D02*
X220456428Y-238728666D01*
X220456428Y-238728666D02*
X220494523Y-238690571D01*
X220494523Y-238690571D02*
X220532619Y-238614380D01*
X220532619Y-238614380D02*
X220532619Y-238576285D01*
X220532619Y-238576285D02*
X220494523Y-238500095D01*
X220494523Y-238500095D02*
X220456428Y-238462000D01*
X220456428Y-238462000D02*
X220380238Y-238423904D01*
X220380238Y-238423904D02*
X220227857Y-238423904D01*
X220227857Y-238423904D02*
X220151666Y-238462000D01*
X220151666Y-238462000D02*
X220113571Y-238500095D01*
X220113571Y-238500095D02*
X220075476Y-238576285D01*
X220075476Y-238576285D02*
X220075476Y-238614380D01*
X220075476Y-238614380D02*
X220113571Y-238690571D01*
X220113571Y-238690571D02*
X220151666Y-238728666D01*
X220151666Y-238728666D02*
X220227857Y-238766761D01*
X220227857Y-238766761D02*
X220380238Y-238766761D01*
X220380238Y-238766761D02*
X220456428Y-238804857D01*
X220456428Y-238804857D02*
X220494523Y-238842952D01*
X220494523Y-238842952D02*
X220532619Y-238919142D01*
X220532619Y-238919142D02*
X220532619Y-239071523D01*
X220532619Y-239071523D02*
X220494523Y-239147714D01*
X220494523Y-239147714D02*
X220456428Y-239185809D01*
X220456428Y-239185809D02*
X220380238Y-239223904D01*
X220380238Y-239223904D02*
X220227857Y-239223904D01*
X220227857Y-239223904D02*
X220151666Y-239185809D01*
X220151666Y-239185809D02*
X220113571Y-239147714D01*
X220113571Y-239147714D02*
X220075476Y-239071523D01*
X220075476Y-239071523D02*
X220075476Y-238919142D01*
X220075476Y-238919142D02*
X220113571Y-238842952D01*
X220113571Y-238842952D02*
X220151666Y-238804857D01*
X220151666Y-238804857D02*
X220227857Y-238766761D01*
D11*
%TO.C,SW17*%
X163734523Y-189489761D02*
X163591666Y-189537380D01*
X163591666Y-189537380D02*
X163353571Y-189537380D01*
X163353571Y-189537380D02*
X163258333Y-189489761D01*
X163258333Y-189489761D02*
X163210714Y-189442142D01*
X163210714Y-189442142D02*
X163163095Y-189346904D01*
X163163095Y-189346904D02*
X163163095Y-189251666D01*
X163163095Y-189251666D02*
X163210714Y-189156428D01*
X163210714Y-189156428D02*
X163258333Y-189108809D01*
X163258333Y-189108809D02*
X163353571Y-189061190D01*
X163353571Y-189061190D02*
X163544047Y-189013571D01*
X163544047Y-189013571D02*
X163639285Y-188965952D01*
X163639285Y-188965952D02*
X163686904Y-188918333D01*
X163686904Y-188918333D02*
X163734523Y-188823095D01*
X163734523Y-188823095D02*
X163734523Y-188727857D01*
X163734523Y-188727857D02*
X163686904Y-188632619D01*
X163686904Y-188632619D02*
X163639285Y-188585000D01*
X163639285Y-188585000D02*
X163544047Y-188537380D01*
X163544047Y-188537380D02*
X163305952Y-188537380D01*
X163305952Y-188537380D02*
X163163095Y-188585000D01*
X162829761Y-188537380D02*
X162591666Y-189537380D01*
X162591666Y-189537380D02*
X162401190Y-188823095D01*
X162401190Y-188823095D02*
X162210714Y-189537380D01*
X162210714Y-189537380D02*
X161972619Y-188537380D01*
X161067857Y-189537380D02*
X161639285Y-189537380D01*
X161353571Y-189537380D02*
X161353571Y-188537380D01*
X161353571Y-188537380D02*
X161448809Y-188680238D01*
X161448809Y-188680238D02*
X161544047Y-188775476D01*
X161544047Y-188775476D02*
X161639285Y-188823095D01*
X160734523Y-188537380D02*
X160067857Y-188537380D01*
X160067857Y-188537380D02*
X160496428Y-189537380D01*
%TO.C,SW2*%
X144138332Y-170439761D02*
X143995475Y-170487380D01*
X143995475Y-170487380D02*
X143757380Y-170487380D01*
X143757380Y-170487380D02*
X143662142Y-170439761D01*
X143662142Y-170439761D02*
X143614523Y-170392142D01*
X143614523Y-170392142D02*
X143566904Y-170296904D01*
X143566904Y-170296904D02*
X143566904Y-170201666D01*
X143566904Y-170201666D02*
X143614523Y-170106428D01*
X143614523Y-170106428D02*
X143662142Y-170058809D01*
X143662142Y-170058809D02*
X143757380Y-170011190D01*
X143757380Y-170011190D02*
X143947856Y-169963571D01*
X143947856Y-169963571D02*
X144043094Y-169915952D01*
X144043094Y-169915952D02*
X144090713Y-169868333D01*
X144090713Y-169868333D02*
X144138332Y-169773095D01*
X144138332Y-169773095D02*
X144138332Y-169677857D01*
X144138332Y-169677857D02*
X144090713Y-169582619D01*
X144090713Y-169582619D02*
X144043094Y-169535000D01*
X144043094Y-169535000D02*
X143947856Y-169487380D01*
X143947856Y-169487380D02*
X143709761Y-169487380D01*
X143709761Y-169487380D02*
X143566904Y-169535000D01*
X143233570Y-169487380D02*
X142995475Y-170487380D01*
X142995475Y-170487380D02*
X142804999Y-169773095D01*
X142804999Y-169773095D02*
X142614523Y-170487380D01*
X142614523Y-170487380D02*
X142376428Y-169487380D01*
X142043094Y-169582619D02*
X141995475Y-169535000D01*
X141995475Y-169535000D02*
X141900237Y-169487380D01*
X141900237Y-169487380D02*
X141662142Y-169487380D01*
X141662142Y-169487380D02*
X141566904Y-169535000D01*
X141566904Y-169535000D02*
X141519285Y-169582619D01*
X141519285Y-169582619D02*
X141471666Y-169677857D01*
X141471666Y-169677857D02*
X141471666Y-169773095D01*
X141471666Y-169773095D02*
X141519285Y-169915952D01*
X141519285Y-169915952D02*
X142090713Y-170487380D01*
X142090713Y-170487380D02*
X141471666Y-170487380D01*
%TO.C,SW3*%
X163258332Y-170439761D02*
X163115475Y-170487380D01*
X163115475Y-170487380D02*
X162877380Y-170487380D01*
X162877380Y-170487380D02*
X162782142Y-170439761D01*
X162782142Y-170439761D02*
X162734523Y-170392142D01*
X162734523Y-170392142D02*
X162686904Y-170296904D01*
X162686904Y-170296904D02*
X162686904Y-170201666D01*
X162686904Y-170201666D02*
X162734523Y-170106428D01*
X162734523Y-170106428D02*
X162782142Y-170058809D01*
X162782142Y-170058809D02*
X162877380Y-170011190D01*
X162877380Y-170011190D02*
X163067856Y-169963571D01*
X163067856Y-169963571D02*
X163163094Y-169915952D01*
X163163094Y-169915952D02*
X163210713Y-169868333D01*
X163210713Y-169868333D02*
X163258332Y-169773095D01*
X163258332Y-169773095D02*
X163258332Y-169677857D01*
X163258332Y-169677857D02*
X163210713Y-169582619D01*
X163210713Y-169582619D02*
X163163094Y-169535000D01*
X163163094Y-169535000D02*
X163067856Y-169487380D01*
X163067856Y-169487380D02*
X162829761Y-169487380D01*
X162829761Y-169487380D02*
X162686904Y-169535000D01*
X162353570Y-169487380D02*
X162115475Y-170487380D01*
X162115475Y-170487380D02*
X161924999Y-169773095D01*
X161924999Y-169773095D02*
X161734523Y-170487380D01*
X161734523Y-170487380D02*
X161496428Y-169487380D01*
X161210713Y-169487380D02*
X160591666Y-169487380D01*
X160591666Y-169487380D02*
X160924999Y-169868333D01*
X160924999Y-169868333D02*
X160782142Y-169868333D01*
X160782142Y-169868333D02*
X160686904Y-169915952D01*
X160686904Y-169915952D02*
X160639285Y-169963571D01*
X160639285Y-169963571D02*
X160591666Y-170058809D01*
X160591666Y-170058809D02*
X160591666Y-170296904D01*
X160591666Y-170296904D02*
X160639285Y-170392142D01*
X160639285Y-170392142D02*
X160686904Y-170439761D01*
X160686904Y-170439761D02*
X160782142Y-170487380D01*
X160782142Y-170487380D02*
X161067856Y-170487380D01*
X161067856Y-170487380D02*
X161163094Y-170439761D01*
X161163094Y-170439761D02*
X161210713Y-170392142D01*
%TO.C,SW7*%
X239458332Y-170439761D02*
X239315475Y-170487380D01*
X239315475Y-170487380D02*
X239077380Y-170487380D01*
X239077380Y-170487380D02*
X238982142Y-170439761D01*
X238982142Y-170439761D02*
X238934523Y-170392142D01*
X238934523Y-170392142D02*
X238886904Y-170296904D01*
X238886904Y-170296904D02*
X238886904Y-170201666D01*
X238886904Y-170201666D02*
X238934523Y-170106428D01*
X238934523Y-170106428D02*
X238982142Y-170058809D01*
X238982142Y-170058809D02*
X239077380Y-170011190D01*
X239077380Y-170011190D02*
X239267856Y-169963571D01*
X239267856Y-169963571D02*
X239363094Y-169915952D01*
X239363094Y-169915952D02*
X239410713Y-169868333D01*
X239410713Y-169868333D02*
X239458332Y-169773095D01*
X239458332Y-169773095D02*
X239458332Y-169677857D01*
X239458332Y-169677857D02*
X239410713Y-169582619D01*
X239410713Y-169582619D02*
X239363094Y-169535000D01*
X239363094Y-169535000D02*
X239267856Y-169487380D01*
X239267856Y-169487380D02*
X239029761Y-169487380D01*
X239029761Y-169487380D02*
X238886904Y-169535000D01*
X238553570Y-169487380D02*
X238315475Y-170487380D01*
X238315475Y-170487380D02*
X238124999Y-169773095D01*
X238124999Y-169773095D02*
X237934523Y-170487380D01*
X237934523Y-170487380D02*
X237696428Y-169487380D01*
X237410713Y-169487380D02*
X236744047Y-169487380D01*
X236744047Y-169487380D02*
X237172618Y-170487380D01*
D12*
%TO.C,D19*%
X202986428Y-201313904D02*
X202986428Y-200513904D01*
X202986428Y-200513904D02*
X202795952Y-200513904D01*
X202795952Y-200513904D02*
X202681666Y-200552000D01*
X202681666Y-200552000D02*
X202605476Y-200628190D01*
X202605476Y-200628190D02*
X202567381Y-200704380D01*
X202567381Y-200704380D02*
X202529285Y-200856761D01*
X202529285Y-200856761D02*
X202529285Y-200971047D01*
X202529285Y-200971047D02*
X202567381Y-201123428D01*
X202567381Y-201123428D02*
X202605476Y-201199619D01*
X202605476Y-201199619D02*
X202681666Y-201275809D01*
X202681666Y-201275809D02*
X202795952Y-201313904D01*
X202795952Y-201313904D02*
X202986428Y-201313904D01*
X201767381Y-201313904D02*
X202224524Y-201313904D01*
X201995952Y-201313904D02*
X201995952Y-200513904D01*
X201995952Y-200513904D02*
X202072143Y-200628190D01*
X202072143Y-200628190D02*
X202148333Y-200704380D01*
X202148333Y-200704380D02*
X202224524Y-200742476D01*
X201386428Y-201313904D02*
X201234047Y-201313904D01*
X201234047Y-201313904D02*
X201157857Y-201275809D01*
X201157857Y-201275809D02*
X201119761Y-201237714D01*
X201119761Y-201237714D02*
X201043571Y-201123428D01*
X201043571Y-201123428D02*
X201005476Y-200971047D01*
X201005476Y-200971047D02*
X201005476Y-200666285D01*
X201005476Y-200666285D02*
X201043571Y-200590095D01*
X201043571Y-200590095D02*
X201081666Y-200552000D01*
X201081666Y-200552000D02*
X201157857Y-200513904D01*
X201157857Y-200513904D02*
X201310238Y-200513904D01*
X201310238Y-200513904D02*
X201386428Y-200552000D01*
X201386428Y-200552000D02*
X201424523Y-200590095D01*
X201424523Y-200590095D02*
X201462619Y-200666285D01*
X201462619Y-200666285D02*
X201462619Y-200856761D01*
X201462619Y-200856761D02*
X201424523Y-200932952D01*
X201424523Y-200932952D02*
X201386428Y-200971047D01*
X201386428Y-200971047D02*
X201310238Y-201009142D01*
X201310238Y-201009142D02*
X201157857Y-201009142D01*
X201157857Y-201009142D02*
X201081666Y-200971047D01*
X201081666Y-200971047D02*
X201043571Y-200932952D01*
X201043571Y-200932952D02*
X201005476Y-200856761D01*
D11*
%TO.C,SW31*%
X163734523Y-208539761D02*
X163591666Y-208587380D01*
X163591666Y-208587380D02*
X163353571Y-208587380D01*
X163353571Y-208587380D02*
X163258333Y-208539761D01*
X163258333Y-208539761D02*
X163210714Y-208492142D01*
X163210714Y-208492142D02*
X163163095Y-208396904D01*
X163163095Y-208396904D02*
X163163095Y-208301666D01*
X163163095Y-208301666D02*
X163210714Y-208206428D01*
X163210714Y-208206428D02*
X163258333Y-208158809D01*
X163258333Y-208158809D02*
X163353571Y-208111190D01*
X163353571Y-208111190D02*
X163544047Y-208063571D01*
X163544047Y-208063571D02*
X163639285Y-208015952D01*
X163639285Y-208015952D02*
X163686904Y-207968333D01*
X163686904Y-207968333D02*
X163734523Y-207873095D01*
X163734523Y-207873095D02*
X163734523Y-207777857D01*
X163734523Y-207777857D02*
X163686904Y-207682619D01*
X163686904Y-207682619D02*
X163639285Y-207635000D01*
X163639285Y-207635000D02*
X163544047Y-207587380D01*
X163544047Y-207587380D02*
X163305952Y-207587380D01*
X163305952Y-207587380D02*
X163163095Y-207635000D01*
X162829761Y-207587380D02*
X162591666Y-208587380D01*
X162591666Y-208587380D02*
X162401190Y-207873095D01*
X162401190Y-207873095D02*
X162210714Y-208587380D01*
X162210714Y-208587380D02*
X161972619Y-207587380D01*
X161686904Y-207587380D02*
X161067857Y-207587380D01*
X161067857Y-207587380D02*
X161401190Y-207968333D01*
X161401190Y-207968333D02*
X161258333Y-207968333D01*
X161258333Y-207968333D02*
X161163095Y-208015952D01*
X161163095Y-208015952D02*
X161115476Y-208063571D01*
X161115476Y-208063571D02*
X161067857Y-208158809D01*
X161067857Y-208158809D02*
X161067857Y-208396904D01*
X161067857Y-208396904D02*
X161115476Y-208492142D01*
X161115476Y-208492142D02*
X161163095Y-208539761D01*
X161163095Y-208539761D02*
X161258333Y-208587380D01*
X161258333Y-208587380D02*
X161544047Y-208587380D01*
X161544047Y-208587380D02*
X161639285Y-208539761D01*
X161639285Y-208539761D02*
X161686904Y-208492142D01*
X160115476Y-208587380D02*
X160686904Y-208587380D01*
X160401190Y-208587380D02*
X160401190Y-207587380D01*
X160401190Y-207587380D02*
X160496428Y-207730238D01*
X160496428Y-207730238D02*
X160591666Y-207825476D01*
X160591666Y-207825476D02*
X160686904Y-207873095D01*
%TO.C,SW45*%
X163734523Y-227709761D02*
X163591666Y-227757380D01*
X163591666Y-227757380D02*
X163353571Y-227757380D01*
X163353571Y-227757380D02*
X163258333Y-227709761D01*
X163258333Y-227709761D02*
X163210714Y-227662142D01*
X163210714Y-227662142D02*
X163163095Y-227566904D01*
X163163095Y-227566904D02*
X163163095Y-227471666D01*
X163163095Y-227471666D02*
X163210714Y-227376428D01*
X163210714Y-227376428D02*
X163258333Y-227328809D01*
X163258333Y-227328809D02*
X163353571Y-227281190D01*
X163353571Y-227281190D02*
X163544047Y-227233571D01*
X163544047Y-227233571D02*
X163639285Y-227185952D01*
X163639285Y-227185952D02*
X163686904Y-227138333D01*
X163686904Y-227138333D02*
X163734523Y-227043095D01*
X163734523Y-227043095D02*
X163734523Y-226947857D01*
X163734523Y-226947857D02*
X163686904Y-226852619D01*
X163686904Y-226852619D02*
X163639285Y-226805000D01*
X163639285Y-226805000D02*
X163544047Y-226757380D01*
X163544047Y-226757380D02*
X163305952Y-226757380D01*
X163305952Y-226757380D02*
X163163095Y-226805000D01*
X162829761Y-226757380D02*
X162591666Y-227757380D01*
X162591666Y-227757380D02*
X162401190Y-227043095D01*
X162401190Y-227043095D02*
X162210714Y-227757380D01*
X162210714Y-227757380D02*
X161972619Y-226757380D01*
X161163095Y-227090714D02*
X161163095Y-227757380D01*
X161401190Y-226709761D02*
X161639285Y-227424047D01*
X161639285Y-227424047D02*
X161020238Y-227424047D01*
X160163095Y-226757380D02*
X160639285Y-226757380D01*
X160639285Y-226757380D02*
X160686904Y-227233571D01*
X160686904Y-227233571D02*
X160639285Y-227185952D01*
X160639285Y-227185952D02*
X160544047Y-227138333D01*
X160544047Y-227138333D02*
X160305952Y-227138333D01*
X160305952Y-227138333D02*
X160210714Y-227185952D01*
X160210714Y-227185952D02*
X160163095Y-227233571D01*
X160163095Y-227233571D02*
X160115476Y-227328809D01*
X160115476Y-227328809D02*
X160115476Y-227566904D01*
X160115476Y-227566904D02*
X160163095Y-227662142D01*
X160163095Y-227662142D02*
X160210714Y-227709761D01*
X160210714Y-227709761D02*
X160305952Y-227757380D01*
X160305952Y-227757380D02*
X160544047Y-227757380D01*
X160544047Y-227757380D02*
X160639285Y-227709761D01*
X160639285Y-227709761D02*
X160686904Y-227662142D01*
D12*
%TO.C,D21*%
X241131428Y-201313904D02*
X241131428Y-200513904D01*
X241131428Y-200513904D02*
X240940952Y-200513904D01*
X240940952Y-200513904D02*
X240826666Y-200552000D01*
X240826666Y-200552000D02*
X240750476Y-200628190D01*
X240750476Y-200628190D02*
X240712381Y-200704380D01*
X240712381Y-200704380D02*
X240674285Y-200856761D01*
X240674285Y-200856761D02*
X240674285Y-200971047D01*
X240674285Y-200971047D02*
X240712381Y-201123428D01*
X240712381Y-201123428D02*
X240750476Y-201199619D01*
X240750476Y-201199619D02*
X240826666Y-201275809D01*
X240826666Y-201275809D02*
X240940952Y-201313904D01*
X240940952Y-201313904D02*
X241131428Y-201313904D01*
X240369524Y-200590095D02*
X240331428Y-200552000D01*
X240331428Y-200552000D02*
X240255238Y-200513904D01*
X240255238Y-200513904D02*
X240064762Y-200513904D01*
X240064762Y-200513904D02*
X239988571Y-200552000D01*
X239988571Y-200552000D02*
X239950476Y-200590095D01*
X239950476Y-200590095D02*
X239912381Y-200666285D01*
X239912381Y-200666285D02*
X239912381Y-200742476D01*
X239912381Y-200742476D02*
X239950476Y-200856761D01*
X239950476Y-200856761D02*
X240407619Y-201313904D01*
X240407619Y-201313904D02*
X239912381Y-201313904D01*
X239150476Y-201313904D02*
X239607619Y-201313904D01*
X239379047Y-201313904D02*
X239379047Y-200513904D01*
X239379047Y-200513904D02*
X239455238Y-200628190D01*
X239455238Y-200628190D02*
X239531428Y-200704380D01*
X239531428Y-200704380D02*
X239607619Y-200742476D01*
%TO.C,D17*%
X164996428Y-201313904D02*
X164996428Y-200513904D01*
X164996428Y-200513904D02*
X164805952Y-200513904D01*
X164805952Y-200513904D02*
X164691666Y-200552000D01*
X164691666Y-200552000D02*
X164615476Y-200628190D01*
X164615476Y-200628190D02*
X164577381Y-200704380D01*
X164577381Y-200704380D02*
X164539285Y-200856761D01*
X164539285Y-200856761D02*
X164539285Y-200971047D01*
X164539285Y-200971047D02*
X164577381Y-201123428D01*
X164577381Y-201123428D02*
X164615476Y-201199619D01*
X164615476Y-201199619D02*
X164691666Y-201275809D01*
X164691666Y-201275809D02*
X164805952Y-201313904D01*
X164805952Y-201313904D02*
X164996428Y-201313904D01*
X163777381Y-201313904D02*
X164234524Y-201313904D01*
X164005952Y-201313904D02*
X164005952Y-200513904D01*
X164005952Y-200513904D02*
X164082143Y-200628190D01*
X164082143Y-200628190D02*
X164158333Y-200704380D01*
X164158333Y-200704380D02*
X164234524Y-200742476D01*
X163510714Y-200513904D02*
X162977380Y-200513904D01*
X162977380Y-200513904D02*
X163320238Y-201313904D01*
D11*
%TO.C,SW57*%
X182844523Y-246639761D02*
X182701666Y-246687380D01*
X182701666Y-246687380D02*
X182463571Y-246687380D01*
X182463571Y-246687380D02*
X182368333Y-246639761D01*
X182368333Y-246639761D02*
X182320714Y-246592142D01*
X182320714Y-246592142D02*
X182273095Y-246496904D01*
X182273095Y-246496904D02*
X182273095Y-246401666D01*
X182273095Y-246401666D02*
X182320714Y-246306428D01*
X182320714Y-246306428D02*
X182368333Y-246258809D01*
X182368333Y-246258809D02*
X182463571Y-246211190D01*
X182463571Y-246211190D02*
X182654047Y-246163571D01*
X182654047Y-246163571D02*
X182749285Y-246115952D01*
X182749285Y-246115952D02*
X182796904Y-246068333D01*
X182796904Y-246068333D02*
X182844523Y-245973095D01*
X182844523Y-245973095D02*
X182844523Y-245877857D01*
X182844523Y-245877857D02*
X182796904Y-245782619D01*
X182796904Y-245782619D02*
X182749285Y-245735000D01*
X182749285Y-245735000D02*
X182654047Y-245687380D01*
X182654047Y-245687380D02*
X182415952Y-245687380D01*
X182415952Y-245687380D02*
X182273095Y-245735000D01*
X181939761Y-245687380D02*
X181701666Y-246687380D01*
X181701666Y-246687380D02*
X181511190Y-245973095D01*
X181511190Y-245973095D02*
X181320714Y-246687380D01*
X181320714Y-246687380D02*
X181082619Y-245687380D01*
X180225476Y-245687380D02*
X180701666Y-245687380D01*
X180701666Y-245687380D02*
X180749285Y-246163571D01*
X180749285Y-246163571D02*
X180701666Y-246115952D01*
X180701666Y-246115952D02*
X180606428Y-246068333D01*
X180606428Y-246068333D02*
X180368333Y-246068333D01*
X180368333Y-246068333D02*
X180273095Y-246115952D01*
X180273095Y-246115952D02*
X180225476Y-246163571D01*
X180225476Y-246163571D02*
X180177857Y-246258809D01*
X180177857Y-246258809D02*
X180177857Y-246496904D01*
X180177857Y-246496904D02*
X180225476Y-246592142D01*
X180225476Y-246592142D02*
X180273095Y-246639761D01*
X180273095Y-246639761D02*
X180368333Y-246687380D01*
X180368333Y-246687380D02*
X180606428Y-246687380D01*
X180606428Y-246687380D02*
X180701666Y-246639761D01*
X180701666Y-246639761D02*
X180749285Y-246592142D01*
X179844523Y-245687380D02*
X179177857Y-245687380D01*
X179177857Y-245687380D02*
X179606428Y-246687380D01*
%TO.C,SW1*%
X125158332Y-170439761D02*
X125015475Y-170487380D01*
X125015475Y-170487380D02*
X124777380Y-170487380D01*
X124777380Y-170487380D02*
X124682142Y-170439761D01*
X124682142Y-170439761D02*
X124634523Y-170392142D01*
X124634523Y-170392142D02*
X124586904Y-170296904D01*
X124586904Y-170296904D02*
X124586904Y-170201666D01*
X124586904Y-170201666D02*
X124634523Y-170106428D01*
X124634523Y-170106428D02*
X124682142Y-170058809D01*
X124682142Y-170058809D02*
X124777380Y-170011190D01*
X124777380Y-170011190D02*
X124967856Y-169963571D01*
X124967856Y-169963571D02*
X125063094Y-169915952D01*
X125063094Y-169915952D02*
X125110713Y-169868333D01*
X125110713Y-169868333D02*
X125158332Y-169773095D01*
X125158332Y-169773095D02*
X125158332Y-169677857D01*
X125158332Y-169677857D02*
X125110713Y-169582619D01*
X125110713Y-169582619D02*
X125063094Y-169535000D01*
X125063094Y-169535000D02*
X124967856Y-169487380D01*
X124967856Y-169487380D02*
X124729761Y-169487380D01*
X124729761Y-169487380D02*
X124586904Y-169535000D01*
X124253570Y-169487380D02*
X124015475Y-170487380D01*
X124015475Y-170487380D02*
X123824999Y-169773095D01*
X123824999Y-169773095D02*
X123634523Y-170487380D01*
X123634523Y-170487380D02*
X123396428Y-169487380D01*
X122491666Y-170487380D02*
X123063094Y-170487380D01*
X122777380Y-170487380D02*
X122777380Y-169487380D01*
X122777380Y-169487380D02*
X122872618Y-169630238D01*
X122872618Y-169630238D02*
X122967856Y-169725476D01*
X122967856Y-169725476D02*
X123063094Y-169773095D01*
D12*
%TO.C,D16*%
X145846428Y-201313904D02*
X145846428Y-200513904D01*
X145846428Y-200513904D02*
X145655952Y-200513904D01*
X145655952Y-200513904D02*
X145541666Y-200552000D01*
X145541666Y-200552000D02*
X145465476Y-200628190D01*
X145465476Y-200628190D02*
X145427381Y-200704380D01*
X145427381Y-200704380D02*
X145389285Y-200856761D01*
X145389285Y-200856761D02*
X145389285Y-200971047D01*
X145389285Y-200971047D02*
X145427381Y-201123428D01*
X145427381Y-201123428D02*
X145465476Y-201199619D01*
X145465476Y-201199619D02*
X145541666Y-201275809D01*
X145541666Y-201275809D02*
X145655952Y-201313904D01*
X145655952Y-201313904D02*
X145846428Y-201313904D01*
X144627381Y-201313904D02*
X145084524Y-201313904D01*
X144855952Y-201313904D02*
X144855952Y-200513904D01*
X144855952Y-200513904D02*
X144932143Y-200628190D01*
X144932143Y-200628190D02*
X145008333Y-200704380D01*
X145008333Y-200704380D02*
X145084524Y-200742476D01*
X143941666Y-200513904D02*
X144094047Y-200513904D01*
X144094047Y-200513904D02*
X144170238Y-200552000D01*
X144170238Y-200552000D02*
X144208333Y-200590095D01*
X144208333Y-200590095D02*
X144284523Y-200704380D01*
X144284523Y-200704380D02*
X144322619Y-200856761D01*
X144322619Y-200856761D02*
X144322619Y-201161523D01*
X144322619Y-201161523D02*
X144284523Y-201237714D01*
X144284523Y-201237714D02*
X144246428Y-201275809D01*
X144246428Y-201275809D02*
X144170238Y-201313904D01*
X144170238Y-201313904D02*
X144017857Y-201313904D01*
X144017857Y-201313904D02*
X143941666Y-201275809D01*
X143941666Y-201275809D02*
X143903571Y-201237714D01*
X143903571Y-201237714D02*
X143865476Y-201161523D01*
X143865476Y-201161523D02*
X143865476Y-200971047D01*
X143865476Y-200971047D02*
X143903571Y-200894857D01*
X143903571Y-200894857D02*
X143941666Y-200856761D01*
X143941666Y-200856761D02*
X144017857Y-200818666D01*
X144017857Y-200818666D02*
X144170238Y-200818666D01*
X144170238Y-200818666D02*
X144246428Y-200856761D01*
X144246428Y-200856761D02*
X144284523Y-200894857D01*
X144284523Y-200894857D02*
X144322619Y-200971047D01*
D11*
%TO.C,SW34*%
X220884523Y-208539761D02*
X220741666Y-208587380D01*
X220741666Y-208587380D02*
X220503571Y-208587380D01*
X220503571Y-208587380D02*
X220408333Y-208539761D01*
X220408333Y-208539761D02*
X220360714Y-208492142D01*
X220360714Y-208492142D02*
X220313095Y-208396904D01*
X220313095Y-208396904D02*
X220313095Y-208301666D01*
X220313095Y-208301666D02*
X220360714Y-208206428D01*
X220360714Y-208206428D02*
X220408333Y-208158809D01*
X220408333Y-208158809D02*
X220503571Y-208111190D01*
X220503571Y-208111190D02*
X220694047Y-208063571D01*
X220694047Y-208063571D02*
X220789285Y-208015952D01*
X220789285Y-208015952D02*
X220836904Y-207968333D01*
X220836904Y-207968333D02*
X220884523Y-207873095D01*
X220884523Y-207873095D02*
X220884523Y-207777857D01*
X220884523Y-207777857D02*
X220836904Y-207682619D01*
X220836904Y-207682619D02*
X220789285Y-207635000D01*
X220789285Y-207635000D02*
X220694047Y-207587380D01*
X220694047Y-207587380D02*
X220455952Y-207587380D01*
X220455952Y-207587380D02*
X220313095Y-207635000D01*
X219979761Y-207587380D02*
X219741666Y-208587380D01*
X219741666Y-208587380D02*
X219551190Y-207873095D01*
X219551190Y-207873095D02*
X219360714Y-208587380D01*
X219360714Y-208587380D02*
X219122619Y-207587380D01*
X218836904Y-207587380D02*
X218217857Y-207587380D01*
X218217857Y-207587380D02*
X218551190Y-207968333D01*
X218551190Y-207968333D02*
X218408333Y-207968333D01*
X218408333Y-207968333D02*
X218313095Y-208015952D01*
X218313095Y-208015952D02*
X218265476Y-208063571D01*
X218265476Y-208063571D02*
X218217857Y-208158809D01*
X218217857Y-208158809D02*
X218217857Y-208396904D01*
X218217857Y-208396904D02*
X218265476Y-208492142D01*
X218265476Y-208492142D02*
X218313095Y-208539761D01*
X218313095Y-208539761D02*
X218408333Y-208587380D01*
X218408333Y-208587380D02*
X218694047Y-208587380D01*
X218694047Y-208587380D02*
X218789285Y-208539761D01*
X218789285Y-208539761D02*
X218836904Y-208492142D01*
X217360714Y-207920714D02*
X217360714Y-208587380D01*
X217598809Y-207539761D02*
X217836904Y-208254047D01*
X217836904Y-208254047D02*
X217217857Y-208254047D01*
%TO.C,SW15*%
X125634523Y-189489761D02*
X125491666Y-189537380D01*
X125491666Y-189537380D02*
X125253571Y-189537380D01*
X125253571Y-189537380D02*
X125158333Y-189489761D01*
X125158333Y-189489761D02*
X125110714Y-189442142D01*
X125110714Y-189442142D02*
X125063095Y-189346904D01*
X125063095Y-189346904D02*
X125063095Y-189251666D01*
X125063095Y-189251666D02*
X125110714Y-189156428D01*
X125110714Y-189156428D02*
X125158333Y-189108809D01*
X125158333Y-189108809D02*
X125253571Y-189061190D01*
X125253571Y-189061190D02*
X125444047Y-189013571D01*
X125444047Y-189013571D02*
X125539285Y-188965952D01*
X125539285Y-188965952D02*
X125586904Y-188918333D01*
X125586904Y-188918333D02*
X125634523Y-188823095D01*
X125634523Y-188823095D02*
X125634523Y-188727857D01*
X125634523Y-188727857D02*
X125586904Y-188632619D01*
X125586904Y-188632619D02*
X125539285Y-188585000D01*
X125539285Y-188585000D02*
X125444047Y-188537380D01*
X125444047Y-188537380D02*
X125205952Y-188537380D01*
X125205952Y-188537380D02*
X125063095Y-188585000D01*
X124729761Y-188537380D02*
X124491666Y-189537380D01*
X124491666Y-189537380D02*
X124301190Y-188823095D01*
X124301190Y-188823095D02*
X124110714Y-189537380D01*
X124110714Y-189537380D02*
X123872619Y-188537380D01*
X122967857Y-189537380D02*
X123539285Y-189537380D01*
X123253571Y-189537380D02*
X123253571Y-188537380D01*
X123253571Y-188537380D02*
X123348809Y-188680238D01*
X123348809Y-188680238D02*
X123444047Y-188775476D01*
X123444047Y-188775476D02*
X123539285Y-188823095D01*
X122063095Y-188537380D02*
X122539285Y-188537380D01*
X122539285Y-188537380D02*
X122586904Y-189013571D01*
X122586904Y-189013571D02*
X122539285Y-188965952D01*
X122539285Y-188965952D02*
X122444047Y-188918333D01*
X122444047Y-188918333D02*
X122205952Y-188918333D01*
X122205952Y-188918333D02*
X122110714Y-188965952D01*
X122110714Y-188965952D02*
X122063095Y-189013571D01*
X122063095Y-189013571D02*
X122015476Y-189108809D01*
X122015476Y-189108809D02*
X122015476Y-189346904D01*
X122015476Y-189346904D02*
X122063095Y-189442142D01*
X122063095Y-189442142D02*
X122110714Y-189489761D01*
X122110714Y-189489761D02*
X122205952Y-189537380D01*
X122205952Y-189537380D02*
X122444047Y-189537380D01*
X122444047Y-189537380D02*
X122539285Y-189489761D01*
X122539285Y-189489761D02*
X122586904Y-189442142D01*
D12*
%TO.C,D18*%
X184046428Y-201313904D02*
X184046428Y-200513904D01*
X184046428Y-200513904D02*
X183855952Y-200513904D01*
X183855952Y-200513904D02*
X183741666Y-200552000D01*
X183741666Y-200552000D02*
X183665476Y-200628190D01*
X183665476Y-200628190D02*
X183627381Y-200704380D01*
X183627381Y-200704380D02*
X183589285Y-200856761D01*
X183589285Y-200856761D02*
X183589285Y-200971047D01*
X183589285Y-200971047D02*
X183627381Y-201123428D01*
X183627381Y-201123428D02*
X183665476Y-201199619D01*
X183665476Y-201199619D02*
X183741666Y-201275809D01*
X183741666Y-201275809D02*
X183855952Y-201313904D01*
X183855952Y-201313904D02*
X184046428Y-201313904D01*
X182827381Y-201313904D02*
X183284524Y-201313904D01*
X183055952Y-201313904D02*
X183055952Y-200513904D01*
X183055952Y-200513904D02*
X183132143Y-200628190D01*
X183132143Y-200628190D02*
X183208333Y-200704380D01*
X183208333Y-200704380D02*
X183284524Y-200742476D01*
X182370238Y-200856761D02*
X182446428Y-200818666D01*
X182446428Y-200818666D02*
X182484523Y-200780571D01*
X182484523Y-200780571D02*
X182522619Y-200704380D01*
X182522619Y-200704380D02*
X182522619Y-200666285D01*
X182522619Y-200666285D02*
X182484523Y-200590095D01*
X182484523Y-200590095D02*
X182446428Y-200552000D01*
X182446428Y-200552000D02*
X182370238Y-200513904D01*
X182370238Y-200513904D02*
X182217857Y-200513904D01*
X182217857Y-200513904D02*
X182141666Y-200552000D01*
X182141666Y-200552000D02*
X182103571Y-200590095D01*
X182103571Y-200590095D02*
X182065476Y-200666285D01*
X182065476Y-200666285D02*
X182065476Y-200704380D01*
X182065476Y-200704380D02*
X182103571Y-200780571D01*
X182103571Y-200780571D02*
X182141666Y-200818666D01*
X182141666Y-200818666D02*
X182217857Y-200856761D01*
X182217857Y-200856761D02*
X182370238Y-200856761D01*
X182370238Y-200856761D02*
X182446428Y-200894857D01*
X182446428Y-200894857D02*
X182484523Y-200932952D01*
X182484523Y-200932952D02*
X182522619Y-201009142D01*
X182522619Y-201009142D02*
X182522619Y-201161523D01*
X182522619Y-201161523D02*
X182484523Y-201237714D01*
X182484523Y-201237714D02*
X182446428Y-201275809D01*
X182446428Y-201275809D02*
X182370238Y-201313904D01*
X182370238Y-201313904D02*
X182217857Y-201313904D01*
X182217857Y-201313904D02*
X182141666Y-201275809D01*
X182141666Y-201275809D02*
X182103571Y-201237714D01*
X182103571Y-201237714D02*
X182065476Y-201161523D01*
X182065476Y-201161523D02*
X182065476Y-201009142D01*
X182065476Y-201009142D02*
X182103571Y-200932952D01*
X182103571Y-200932952D02*
X182141666Y-200894857D01*
X182141666Y-200894857D02*
X182217857Y-200856761D01*
%TO.C,D33*%
X202986428Y-220443904D02*
X202986428Y-219643904D01*
X202986428Y-219643904D02*
X202795952Y-219643904D01*
X202795952Y-219643904D02*
X202681666Y-219682000D01*
X202681666Y-219682000D02*
X202605476Y-219758190D01*
X202605476Y-219758190D02*
X202567381Y-219834380D01*
X202567381Y-219834380D02*
X202529285Y-219986761D01*
X202529285Y-219986761D02*
X202529285Y-220101047D01*
X202529285Y-220101047D02*
X202567381Y-220253428D01*
X202567381Y-220253428D02*
X202605476Y-220329619D01*
X202605476Y-220329619D02*
X202681666Y-220405809D01*
X202681666Y-220405809D02*
X202795952Y-220443904D01*
X202795952Y-220443904D02*
X202986428Y-220443904D01*
X202262619Y-219643904D02*
X201767381Y-219643904D01*
X201767381Y-219643904D02*
X202034047Y-219948666D01*
X202034047Y-219948666D02*
X201919762Y-219948666D01*
X201919762Y-219948666D02*
X201843571Y-219986761D01*
X201843571Y-219986761D02*
X201805476Y-220024857D01*
X201805476Y-220024857D02*
X201767381Y-220101047D01*
X201767381Y-220101047D02*
X201767381Y-220291523D01*
X201767381Y-220291523D02*
X201805476Y-220367714D01*
X201805476Y-220367714D02*
X201843571Y-220405809D01*
X201843571Y-220405809D02*
X201919762Y-220443904D01*
X201919762Y-220443904D02*
X202148333Y-220443904D01*
X202148333Y-220443904D02*
X202224524Y-220405809D01*
X202224524Y-220405809D02*
X202262619Y-220367714D01*
X201500714Y-219643904D02*
X201005476Y-219643904D01*
X201005476Y-219643904D02*
X201272142Y-219948666D01*
X201272142Y-219948666D02*
X201157857Y-219948666D01*
X201157857Y-219948666D02*
X201081666Y-219986761D01*
X201081666Y-219986761D02*
X201043571Y-220024857D01*
X201043571Y-220024857D02*
X201005476Y-220101047D01*
X201005476Y-220101047D02*
X201005476Y-220291523D01*
X201005476Y-220291523D02*
X201043571Y-220367714D01*
X201043571Y-220367714D02*
X201081666Y-220405809D01*
X201081666Y-220405809D02*
X201157857Y-220443904D01*
X201157857Y-220443904D02*
X201386428Y-220443904D01*
X201386428Y-220443904D02*
X201462619Y-220405809D01*
X201462619Y-220405809D02*
X201500714Y-220367714D01*
%TO.C,D60*%
X241131428Y-258193904D02*
X241131428Y-257393904D01*
X241131428Y-257393904D02*
X240940952Y-257393904D01*
X240940952Y-257393904D02*
X240826666Y-257432000D01*
X240826666Y-257432000D02*
X240750476Y-257508190D01*
X240750476Y-257508190D02*
X240712381Y-257584380D01*
X240712381Y-257584380D02*
X240674285Y-257736761D01*
X240674285Y-257736761D02*
X240674285Y-257851047D01*
X240674285Y-257851047D02*
X240712381Y-258003428D01*
X240712381Y-258003428D02*
X240750476Y-258079619D01*
X240750476Y-258079619D02*
X240826666Y-258155809D01*
X240826666Y-258155809D02*
X240940952Y-258193904D01*
X240940952Y-258193904D02*
X241131428Y-258193904D01*
X239988571Y-257393904D02*
X240140952Y-257393904D01*
X240140952Y-257393904D02*
X240217143Y-257432000D01*
X240217143Y-257432000D02*
X240255238Y-257470095D01*
X240255238Y-257470095D02*
X240331428Y-257584380D01*
X240331428Y-257584380D02*
X240369524Y-257736761D01*
X240369524Y-257736761D02*
X240369524Y-258041523D01*
X240369524Y-258041523D02*
X240331428Y-258117714D01*
X240331428Y-258117714D02*
X240293333Y-258155809D01*
X240293333Y-258155809D02*
X240217143Y-258193904D01*
X240217143Y-258193904D02*
X240064762Y-258193904D01*
X240064762Y-258193904D02*
X239988571Y-258155809D01*
X239988571Y-258155809D02*
X239950476Y-258117714D01*
X239950476Y-258117714D02*
X239912381Y-258041523D01*
X239912381Y-258041523D02*
X239912381Y-257851047D01*
X239912381Y-257851047D02*
X239950476Y-257774857D01*
X239950476Y-257774857D02*
X239988571Y-257736761D01*
X239988571Y-257736761D02*
X240064762Y-257698666D01*
X240064762Y-257698666D02*
X240217143Y-257698666D01*
X240217143Y-257698666D02*
X240293333Y-257736761D01*
X240293333Y-257736761D02*
X240331428Y-257774857D01*
X240331428Y-257774857D02*
X240369524Y-257851047D01*
X239417142Y-257393904D02*
X239340952Y-257393904D01*
X239340952Y-257393904D02*
X239264761Y-257432000D01*
X239264761Y-257432000D02*
X239226666Y-257470095D01*
X239226666Y-257470095D02*
X239188571Y-257546285D01*
X239188571Y-257546285D02*
X239150476Y-257698666D01*
X239150476Y-257698666D02*
X239150476Y-257889142D01*
X239150476Y-257889142D02*
X239188571Y-258041523D01*
X239188571Y-258041523D02*
X239226666Y-258117714D01*
X239226666Y-258117714D02*
X239264761Y-258155809D01*
X239264761Y-258155809D02*
X239340952Y-258193904D01*
X239340952Y-258193904D02*
X239417142Y-258193904D01*
X239417142Y-258193904D02*
X239493333Y-258155809D01*
X239493333Y-258155809D02*
X239531428Y-258117714D01*
X239531428Y-258117714D02*
X239569523Y-258041523D01*
X239569523Y-258041523D02*
X239607619Y-257889142D01*
X239607619Y-257889142D02*
X239607619Y-257698666D01*
X239607619Y-257698666D02*
X239569523Y-257546285D01*
X239569523Y-257546285D02*
X239531428Y-257470095D01*
X239531428Y-257470095D02*
X239493333Y-257432000D01*
X239493333Y-257432000D02*
X239417142Y-257393904D01*
%TO.C,D6*%
X221675475Y-181993904D02*
X221675475Y-181193904D01*
X221675475Y-181193904D02*
X221484999Y-181193904D01*
X221484999Y-181193904D02*
X221370713Y-181232000D01*
X221370713Y-181232000D02*
X221294523Y-181308190D01*
X221294523Y-181308190D02*
X221256428Y-181384380D01*
X221256428Y-181384380D02*
X221218332Y-181536761D01*
X221218332Y-181536761D02*
X221218332Y-181651047D01*
X221218332Y-181651047D02*
X221256428Y-181803428D01*
X221256428Y-181803428D02*
X221294523Y-181879619D01*
X221294523Y-181879619D02*
X221370713Y-181955809D01*
X221370713Y-181955809D02*
X221484999Y-181993904D01*
X221484999Y-181993904D02*
X221675475Y-181993904D01*
X220532618Y-181193904D02*
X220684999Y-181193904D01*
X220684999Y-181193904D02*
X220761190Y-181232000D01*
X220761190Y-181232000D02*
X220799285Y-181270095D01*
X220799285Y-181270095D02*
X220875475Y-181384380D01*
X220875475Y-181384380D02*
X220913571Y-181536761D01*
X220913571Y-181536761D02*
X220913571Y-181841523D01*
X220913571Y-181841523D02*
X220875475Y-181917714D01*
X220875475Y-181917714D02*
X220837380Y-181955809D01*
X220837380Y-181955809D02*
X220761190Y-181993904D01*
X220761190Y-181993904D02*
X220608809Y-181993904D01*
X220608809Y-181993904D02*
X220532618Y-181955809D01*
X220532618Y-181955809D02*
X220494523Y-181917714D01*
X220494523Y-181917714D02*
X220456428Y-181841523D01*
X220456428Y-181841523D02*
X220456428Y-181651047D01*
X220456428Y-181651047D02*
X220494523Y-181574857D01*
X220494523Y-181574857D02*
X220532618Y-181536761D01*
X220532618Y-181536761D02*
X220608809Y-181498666D01*
X220608809Y-181498666D02*
X220761190Y-181498666D01*
X220761190Y-181498666D02*
X220837380Y-181536761D01*
X220837380Y-181536761D02*
X220875475Y-181574857D01*
X220875475Y-181574857D02*
X220913571Y-181651047D01*
D11*
%TO.C,J1*%
X248407380Y-202532345D02*
X248407380Y-203103773D01*
X249407380Y-202818059D02*
X248407380Y-202818059D01*
X249407380Y-204008535D02*
X248931190Y-203675202D01*
X249407380Y-203437107D02*
X248407380Y-203437107D01*
X248407380Y-203437107D02*
X248407380Y-203818059D01*
X248407380Y-203818059D02*
X248455000Y-203913297D01*
X248455000Y-203913297D02*
X248502619Y-203960916D01*
X248502619Y-203960916D02*
X248597857Y-204008535D01*
X248597857Y-204008535D02*
X248740714Y-204008535D01*
X248740714Y-204008535D02*
X248835952Y-203960916D01*
X248835952Y-203960916D02*
X248883571Y-203913297D01*
X248883571Y-203913297D02*
X248931190Y-203818059D01*
X248931190Y-203818059D02*
X248931190Y-203437107D01*
X249407380Y-205008535D02*
X248931190Y-204675202D01*
X249407380Y-204437107D02*
X248407380Y-204437107D01*
X248407380Y-204437107D02*
X248407380Y-204818059D01*
X248407380Y-204818059D02*
X248455000Y-204913297D01*
X248455000Y-204913297D02*
X248502619Y-204960916D01*
X248502619Y-204960916D02*
X248597857Y-205008535D01*
X248597857Y-205008535D02*
X248740714Y-205008535D01*
X248740714Y-205008535D02*
X248835952Y-204960916D01*
X248835952Y-204960916D02*
X248883571Y-204913297D01*
X248883571Y-204913297D02*
X248931190Y-204818059D01*
X248931190Y-204818059D02*
X248931190Y-204437107D01*
X249359761Y-205389488D02*
X249407380Y-205532345D01*
X249407380Y-205532345D02*
X249407380Y-205770440D01*
X249407380Y-205770440D02*
X249359761Y-205865678D01*
X249359761Y-205865678D02*
X249312142Y-205913297D01*
X249312142Y-205913297D02*
X249216904Y-205960916D01*
X249216904Y-205960916D02*
X249121666Y-205960916D01*
X249121666Y-205960916D02*
X249026428Y-205913297D01*
X249026428Y-205913297D02*
X248978809Y-205865678D01*
X248978809Y-205865678D02*
X248931190Y-205770440D01*
X248931190Y-205770440D02*
X248883571Y-205579964D01*
X248883571Y-205579964D02*
X248835952Y-205484726D01*
X248835952Y-205484726D02*
X248788333Y-205437107D01*
X248788333Y-205437107D02*
X248693095Y-205389488D01*
X248693095Y-205389488D02*
X248597857Y-205389488D01*
X248597857Y-205389488D02*
X248502619Y-205437107D01*
X248502619Y-205437107D02*
X248455000Y-205484726D01*
X248455000Y-205484726D02*
X248407380Y-205579964D01*
X248407380Y-205579964D02*
X248407380Y-205818059D01*
X248407380Y-205818059D02*
X248455000Y-205960916D01*
%TO.C,SW46*%
X182784523Y-227709761D02*
X182641666Y-227757380D01*
X182641666Y-227757380D02*
X182403571Y-227757380D01*
X182403571Y-227757380D02*
X182308333Y-227709761D01*
X182308333Y-227709761D02*
X182260714Y-227662142D01*
X182260714Y-227662142D02*
X182213095Y-227566904D01*
X182213095Y-227566904D02*
X182213095Y-227471666D01*
X182213095Y-227471666D02*
X182260714Y-227376428D01*
X182260714Y-227376428D02*
X182308333Y-227328809D01*
X182308333Y-227328809D02*
X182403571Y-227281190D01*
X182403571Y-227281190D02*
X182594047Y-227233571D01*
X182594047Y-227233571D02*
X182689285Y-227185952D01*
X182689285Y-227185952D02*
X182736904Y-227138333D01*
X182736904Y-227138333D02*
X182784523Y-227043095D01*
X182784523Y-227043095D02*
X182784523Y-226947857D01*
X182784523Y-226947857D02*
X182736904Y-226852619D01*
X182736904Y-226852619D02*
X182689285Y-226805000D01*
X182689285Y-226805000D02*
X182594047Y-226757380D01*
X182594047Y-226757380D02*
X182355952Y-226757380D01*
X182355952Y-226757380D02*
X182213095Y-226805000D01*
X181879761Y-226757380D02*
X181641666Y-227757380D01*
X181641666Y-227757380D02*
X181451190Y-227043095D01*
X181451190Y-227043095D02*
X181260714Y-227757380D01*
X181260714Y-227757380D02*
X181022619Y-226757380D01*
X180213095Y-227090714D02*
X180213095Y-227757380D01*
X180451190Y-226709761D02*
X180689285Y-227424047D01*
X180689285Y-227424047D02*
X180070238Y-227424047D01*
X179260714Y-226757380D02*
X179451190Y-226757380D01*
X179451190Y-226757380D02*
X179546428Y-226805000D01*
X179546428Y-226805000D02*
X179594047Y-226852619D01*
X179594047Y-226852619D02*
X179689285Y-226995476D01*
X179689285Y-226995476D02*
X179736904Y-227185952D01*
X179736904Y-227185952D02*
X179736904Y-227566904D01*
X179736904Y-227566904D02*
X179689285Y-227662142D01*
X179689285Y-227662142D02*
X179641666Y-227709761D01*
X179641666Y-227709761D02*
X179546428Y-227757380D01*
X179546428Y-227757380D02*
X179355952Y-227757380D01*
X179355952Y-227757380D02*
X179260714Y-227709761D01*
X179260714Y-227709761D02*
X179213095Y-227662142D01*
X179213095Y-227662142D02*
X179165476Y-227566904D01*
X179165476Y-227566904D02*
X179165476Y-227328809D01*
X179165476Y-227328809D02*
X179213095Y-227233571D01*
X179213095Y-227233571D02*
X179260714Y-227185952D01*
X179260714Y-227185952D02*
X179355952Y-227138333D01*
X179355952Y-227138333D02*
X179546428Y-227138333D01*
X179546428Y-227138333D02*
X179641666Y-227185952D01*
X179641666Y-227185952D02*
X179689285Y-227233571D01*
X179689285Y-227233571D02*
X179736904Y-227328809D01*
D12*
%TO.C,D43*%
X126796428Y-239223904D02*
X126796428Y-238423904D01*
X126796428Y-238423904D02*
X126605952Y-238423904D01*
X126605952Y-238423904D02*
X126491666Y-238462000D01*
X126491666Y-238462000D02*
X126415476Y-238538190D01*
X126415476Y-238538190D02*
X126377381Y-238614380D01*
X126377381Y-238614380D02*
X126339285Y-238766761D01*
X126339285Y-238766761D02*
X126339285Y-238881047D01*
X126339285Y-238881047D02*
X126377381Y-239033428D01*
X126377381Y-239033428D02*
X126415476Y-239109619D01*
X126415476Y-239109619D02*
X126491666Y-239185809D01*
X126491666Y-239185809D02*
X126605952Y-239223904D01*
X126605952Y-239223904D02*
X126796428Y-239223904D01*
X125653571Y-238690571D02*
X125653571Y-239223904D01*
X125844047Y-238385809D02*
X126034524Y-238957238D01*
X126034524Y-238957238D02*
X125539285Y-238957238D01*
X125310714Y-238423904D02*
X124815476Y-238423904D01*
X124815476Y-238423904D02*
X125082142Y-238728666D01*
X125082142Y-238728666D02*
X124967857Y-238728666D01*
X124967857Y-238728666D02*
X124891666Y-238766761D01*
X124891666Y-238766761D02*
X124853571Y-238804857D01*
X124853571Y-238804857D02*
X124815476Y-238881047D01*
X124815476Y-238881047D02*
X124815476Y-239071523D01*
X124815476Y-239071523D02*
X124853571Y-239147714D01*
X124853571Y-239147714D02*
X124891666Y-239185809D01*
X124891666Y-239185809D02*
X124967857Y-239223904D01*
X124967857Y-239223904D02*
X125196428Y-239223904D01*
X125196428Y-239223904D02*
X125272619Y-239185809D01*
X125272619Y-239185809D02*
X125310714Y-239147714D01*
D11*
%TO.C,SW58*%
X201834523Y-246639761D02*
X201691666Y-246687380D01*
X201691666Y-246687380D02*
X201453571Y-246687380D01*
X201453571Y-246687380D02*
X201358333Y-246639761D01*
X201358333Y-246639761D02*
X201310714Y-246592142D01*
X201310714Y-246592142D02*
X201263095Y-246496904D01*
X201263095Y-246496904D02*
X201263095Y-246401666D01*
X201263095Y-246401666D02*
X201310714Y-246306428D01*
X201310714Y-246306428D02*
X201358333Y-246258809D01*
X201358333Y-246258809D02*
X201453571Y-246211190D01*
X201453571Y-246211190D02*
X201644047Y-246163571D01*
X201644047Y-246163571D02*
X201739285Y-246115952D01*
X201739285Y-246115952D02*
X201786904Y-246068333D01*
X201786904Y-246068333D02*
X201834523Y-245973095D01*
X201834523Y-245973095D02*
X201834523Y-245877857D01*
X201834523Y-245877857D02*
X201786904Y-245782619D01*
X201786904Y-245782619D02*
X201739285Y-245735000D01*
X201739285Y-245735000D02*
X201644047Y-245687380D01*
X201644047Y-245687380D02*
X201405952Y-245687380D01*
X201405952Y-245687380D02*
X201263095Y-245735000D01*
X200929761Y-245687380D02*
X200691666Y-246687380D01*
X200691666Y-246687380D02*
X200501190Y-245973095D01*
X200501190Y-245973095D02*
X200310714Y-246687380D01*
X200310714Y-246687380D02*
X200072619Y-245687380D01*
X199215476Y-245687380D02*
X199691666Y-245687380D01*
X199691666Y-245687380D02*
X199739285Y-246163571D01*
X199739285Y-246163571D02*
X199691666Y-246115952D01*
X199691666Y-246115952D02*
X199596428Y-246068333D01*
X199596428Y-246068333D02*
X199358333Y-246068333D01*
X199358333Y-246068333D02*
X199263095Y-246115952D01*
X199263095Y-246115952D02*
X199215476Y-246163571D01*
X199215476Y-246163571D02*
X199167857Y-246258809D01*
X199167857Y-246258809D02*
X199167857Y-246496904D01*
X199167857Y-246496904D02*
X199215476Y-246592142D01*
X199215476Y-246592142D02*
X199263095Y-246639761D01*
X199263095Y-246639761D02*
X199358333Y-246687380D01*
X199358333Y-246687380D02*
X199596428Y-246687380D01*
X199596428Y-246687380D02*
X199691666Y-246639761D01*
X199691666Y-246639761D02*
X199739285Y-246592142D01*
X198596428Y-246115952D02*
X198691666Y-246068333D01*
X198691666Y-246068333D02*
X198739285Y-246020714D01*
X198739285Y-246020714D02*
X198786904Y-245925476D01*
X198786904Y-245925476D02*
X198786904Y-245877857D01*
X198786904Y-245877857D02*
X198739285Y-245782619D01*
X198739285Y-245782619D02*
X198691666Y-245735000D01*
X198691666Y-245735000D02*
X198596428Y-245687380D01*
X198596428Y-245687380D02*
X198405952Y-245687380D01*
X198405952Y-245687380D02*
X198310714Y-245735000D01*
X198310714Y-245735000D02*
X198263095Y-245782619D01*
X198263095Y-245782619D02*
X198215476Y-245877857D01*
X198215476Y-245877857D02*
X198215476Y-245925476D01*
X198215476Y-245925476D02*
X198263095Y-246020714D01*
X198263095Y-246020714D02*
X198310714Y-246068333D01*
X198310714Y-246068333D02*
X198405952Y-246115952D01*
X198405952Y-246115952D02*
X198596428Y-246115952D01*
X198596428Y-246115952D02*
X198691666Y-246163571D01*
X198691666Y-246163571D02*
X198739285Y-246211190D01*
X198739285Y-246211190D02*
X198786904Y-246306428D01*
X198786904Y-246306428D02*
X198786904Y-246496904D01*
X198786904Y-246496904D02*
X198739285Y-246592142D01*
X198739285Y-246592142D02*
X198691666Y-246639761D01*
X198691666Y-246639761D02*
X198596428Y-246687380D01*
X198596428Y-246687380D02*
X198405952Y-246687380D01*
X198405952Y-246687380D02*
X198310714Y-246639761D01*
X198310714Y-246639761D02*
X198263095Y-246592142D01*
X198263095Y-246592142D02*
X198215476Y-246496904D01*
X198215476Y-246496904D02*
X198215476Y-246306428D01*
X198215476Y-246306428D02*
X198263095Y-246211190D01*
X198263095Y-246211190D02*
X198310714Y-246163571D01*
X198310714Y-246163571D02*
X198405952Y-246115952D01*
%TO.C,SW16*%
X144614523Y-189489761D02*
X144471666Y-189537380D01*
X144471666Y-189537380D02*
X144233571Y-189537380D01*
X144233571Y-189537380D02*
X144138333Y-189489761D01*
X144138333Y-189489761D02*
X144090714Y-189442142D01*
X144090714Y-189442142D02*
X144043095Y-189346904D01*
X144043095Y-189346904D02*
X144043095Y-189251666D01*
X144043095Y-189251666D02*
X144090714Y-189156428D01*
X144090714Y-189156428D02*
X144138333Y-189108809D01*
X144138333Y-189108809D02*
X144233571Y-189061190D01*
X144233571Y-189061190D02*
X144424047Y-189013571D01*
X144424047Y-189013571D02*
X144519285Y-188965952D01*
X144519285Y-188965952D02*
X144566904Y-188918333D01*
X144566904Y-188918333D02*
X144614523Y-188823095D01*
X144614523Y-188823095D02*
X144614523Y-188727857D01*
X144614523Y-188727857D02*
X144566904Y-188632619D01*
X144566904Y-188632619D02*
X144519285Y-188585000D01*
X144519285Y-188585000D02*
X144424047Y-188537380D01*
X144424047Y-188537380D02*
X144185952Y-188537380D01*
X144185952Y-188537380D02*
X144043095Y-188585000D01*
X143709761Y-188537380D02*
X143471666Y-189537380D01*
X143471666Y-189537380D02*
X143281190Y-188823095D01*
X143281190Y-188823095D02*
X143090714Y-189537380D01*
X143090714Y-189537380D02*
X142852619Y-188537380D01*
X141947857Y-189537380D02*
X142519285Y-189537380D01*
X142233571Y-189537380D02*
X142233571Y-188537380D01*
X142233571Y-188537380D02*
X142328809Y-188680238D01*
X142328809Y-188680238D02*
X142424047Y-188775476D01*
X142424047Y-188775476D02*
X142519285Y-188823095D01*
X141090714Y-188537380D02*
X141281190Y-188537380D01*
X141281190Y-188537380D02*
X141376428Y-188585000D01*
X141376428Y-188585000D02*
X141424047Y-188632619D01*
X141424047Y-188632619D02*
X141519285Y-188775476D01*
X141519285Y-188775476D02*
X141566904Y-188965952D01*
X141566904Y-188965952D02*
X141566904Y-189346904D01*
X141566904Y-189346904D02*
X141519285Y-189442142D01*
X141519285Y-189442142D02*
X141471666Y-189489761D01*
X141471666Y-189489761D02*
X141376428Y-189537380D01*
X141376428Y-189537380D02*
X141185952Y-189537380D01*
X141185952Y-189537380D02*
X141090714Y-189489761D01*
X141090714Y-189489761D02*
X141043095Y-189442142D01*
X141043095Y-189442142D02*
X140995476Y-189346904D01*
X140995476Y-189346904D02*
X140995476Y-189108809D01*
X140995476Y-189108809D02*
X141043095Y-189013571D01*
X141043095Y-189013571D02*
X141090714Y-188965952D01*
X141090714Y-188965952D02*
X141185952Y-188918333D01*
X141185952Y-188918333D02*
X141376428Y-188918333D01*
X141376428Y-188918333D02*
X141471666Y-188965952D01*
X141471666Y-188965952D02*
X141519285Y-189013571D01*
X141519285Y-189013571D02*
X141566904Y-189108809D01*
D12*
%TO.C,D58*%
X202986428Y-258193904D02*
X202986428Y-257393904D01*
X202986428Y-257393904D02*
X202795952Y-257393904D01*
X202795952Y-257393904D02*
X202681666Y-257432000D01*
X202681666Y-257432000D02*
X202605476Y-257508190D01*
X202605476Y-257508190D02*
X202567381Y-257584380D01*
X202567381Y-257584380D02*
X202529285Y-257736761D01*
X202529285Y-257736761D02*
X202529285Y-257851047D01*
X202529285Y-257851047D02*
X202567381Y-258003428D01*
X202567381Y-258003428D02*
X202605476Y-258079619D01*
X202605476Y-258079619D02*
X202681666Y-258155809D01*
X202681666Y-258155809D02*
X202795952Y-258193904D01*
X202795952Y-258193904D02*
X202986428Y-258193904D01*
X201805476Y-257393904D02*
X202186428Y-257393904D01*
X202186428Y-257393904D02*
X202224524Y-257774857D01*
X202224524Y-257774857D02*
X202186428Y-257736761D01*
X202186428Y-257736761D02*
X202110238Y-257698666D01*
X202110238Y-257698666D02*
X201919762Y-257698666D01*
X201919762Y-257698666D02*
X201843571Y-257736761D01*
X201843571Y-257736761D02*
X201805476Y-257774857D01*
X201805476Y-257774857D02*
X201767381Y-257851047D01*
X201767381Y-257851047D02*
X201767381Y-258041523D01*
X201767381Y-258041523D02*
X201805476Y-258117714D01*
X201805476Y-258117714D02*
X201843571Y-258155809D01*
X201843571Y-258155809D02*
X201919762Y-258193904D01*
X201919762Y-258193904D02*
X202110238Y-258193904D01*
X202110238Y-258193904D02*
X202186428Y-258155809D01*
X202186428Y-258155809D02*
X202224524Y-258117714D01*
X201310238Y-257736761D02*
X201386428Y-257698666D01*
X201386428Y-257698666D02*
X201424523Y-257660571D01*
X201424523Y-257660571D02*
X201462619Y-257584380D01*
X201462619Y-257584380D02*
X201462619Y-257546285D01*
X201462619Y-257546285D02*
X201424523Y-257470095D01*
X201424523Y-257470095D02*
X201386428Y-257432000D01*
X201386428Y-257432000D02*
X201310238Y-257393904D01*
X201310238Y-257393904D02*
X201157857Y-257393904D01*
X201157857Y-257393904D02*
X201081666Y-257432000D01*
X201081666Y-257432000D02*
X201043571Y-257470095D01*
X201043571Y-257470095D02*
X201005476Y-257546285D01*
X201005476Y-257546285D02*
X201005476Y-257584380D01*
X201005476Y-257584380D02*
X201043571Y-257660571D01*
X201043571Y-257660571D02*
X201081666Y-257698666D01*
X201081666Y-257698666D02*
X201157857Y-257736761D01*
X201157857Y-257736761D02*
X201310238Y-257736761D01*
X201310238Y-257736761D02*
X201386428Y-257774857D01*
X201386428Y-257774857D02*
X201424523Y-257812952D01*
X201424523Y-257812952D02*
X201462619Y-257889142D01*
X201462619Y-257889142D02*
X201462619Y-258041523D01*
X201462619Y-258041523D02*
X201424523Y-258117714D01*
X201424523Y-258117714D02*
X201386428Y-258155809D01*
X201386428Y-258155809D02*
X201310238Y-258193904D01*
X201310238Y-258193904D02*
X201157857Y-258193904D01*
X201157857Y-258193904D02*
X201081666Y-258155809D01*
X201081666Y-258155809D02*
X201043571Y-258117714D01*
X201043571Y-258117714D02*
X201005476Y-258041523D01*
X201005476Y-258041523D02*
X201005476Y-257889142D01*
X201005476Y-257889142D02*
X201043571Y-257812952D01*
X201043571Y-257812952D02*
X201081666Y-257774857D01*
X201081666Y-257774857D02*
X201157857Y-257736761D01*
%TO.C,D32*%
X184046428Y-220443904D02*
X184046428Y-219643904D01*
X184046428Y-219643904D02*
X183855952Y-219643904D01*
X183855952Y-219643904D02*
X183741666Y-219682000D01*
X183741666Y-219682000D02*
X183665476Y-219758190D01*
X183665476Y-219758190D02*
X183627381Y-219834380D01*
X183627381Y-219834380D02*
X183589285Y-219986761D01*
X183589285Y-219986761D02*
X183589285Y-220101047D01*
X183589285Y-220101047D02*
X183627381Y-220253428D01*
X183627381Y-220253428D02*
X183665476Y-220329619D01*
X183665476Y-220329619D02*
X183741666Y-220405809D01*
X183741666Y-220405809D02*
X183855952Y-220443904D01*
X183855952Y-220443904D02*
X184046428Y-220443904D01*
X183322619Y-219643904D02*
X182827381Y-219643904D01*
X182827381Y-219643904D02*
X183094047Y-219948666D01*
X183094047Y-219948666D02*
X182979762Y-219948666D01*
X182979762Y-219948666D02*
X182903571Y-219986761D01*
X182903571Y-219986761D02*
X182865476Y-220024857D01*
X182865476Y-220024857D02*
X182827381Y-220101047D01*
X182827381Y-220101047D02*
X182827381Y-220291523D01*
X182827381Y-220291523D02*
X182865476Y-220367714D01*
X182865476Y-220367714D02*
X182903571Y-220405809D01*
X182903571Y-220405809D02*
X182979762Y-220443904D01*
X182979762Y-220443904D02*
X183208333Y-220443904D01*
X183208333Y-220443904D02*
X183284524Y-220405809D01*
X183284524Y-220405809D02*
X183322619Y-220367714D01*
X182522619Y-219720095D02*
X182484523Y-219682000D01*
X182484523Y-219682000D02*
X182408333Y-219643904D01*
X182408333Y-219643904D02*
X182217857Y-219643904D01*
X182217857Y-219643904D02*
X182141666Y-219682000D01*
X182141666Y-219682000D02*
X182103571Y-219720095D01*
X182103571Y-219720095D02*
X182065476Y-219796285D01*
X182065476Y-219796285D02*
X182065476Y-219872476D01*
X182065476Y-219872476D02*
X182103571Y-219986761D01*
X182103571Y-219986761D02*
X182560714Y-220443904D01*
X182560714Y-220443904D02*
X182065476Y-220443904D01*
D11*
%TO.C,SW19*%
X201834523Y-189489761D02*
X201691666Y-189537380D01*
X201691666Y-189537380D02*
X201453571Y-189537380D01*
X201453571Y-189537380D02*
X201358333Y-189489761D01*
X201358333Y-189489761D02*
X201310714Y-189442142D01*
X201310714Y-189442142D02*
X201263095Y-189346904D01*
X201263095Y-189346904D02*
X201263095Y-189251666D01*
X201263095Y-189251666D02*
X201310714Y-189156428D01*
X201310714Y-189156428D02*
X201358333Y-189108809D01*
X201358333Y-189108809D02*
X201453571Y-189061190D01*
X201453571Y-189061190D02*
X201644047Y-189013571D01*
X201644047Y-189013571D02*
X201739285Y-188965952D01*
X201739285Y-188965952D02*
X201786904Y-188918333D01*
X201786904Y-188918333D02*
X201834523Y-188823095D01*
X201834523Y-188823095D02*
X201834523Y-188727857D01*
X201834523Y-188727857D02*
X201786904Y-188632619D01*
X201786904Y-188632619D02*
X201739285Y-188585000D01*
X201739285Y-188585000D02*
X201644047Y-188537380D01*
X201644047Y-188537380D02*
X201405952Y-188537380D01*
X201405952Y-188537380D02*
X201263095Y-188585000D01*
X200929761Y-188537380D02*
X200691666Y-189537380D01*
X200691666Y-189537380D02*
X200501190Y-188823095D01*
X200501190Y-188823095D02*
X200310714Y-189537380D01*
X200310714Y-189537380D02*
X200072619Y-188537380D01*
X199167857Y-189537380D02*
X199739285Y-189537380D01*
X199453571Y-189537380D02*
X199453571Y-188537380D01*
X199453571Y-188537380D02*
X199548809Y-188680238D01*
X199548809Y-188680238D02*
X199644047Y-188775476D01*
X199644047Y-188775476D02*
X199739285Y-188823095D01*
X198691666Y-189537380D02*
X198501190Y-189537380D01*
X198501190Y-189537380D02*
X198405952Y-189489761D01*
X198405952Y-189489761D02*
X198358333Y-189442142D01*
X198358333Y-189442142D02*
X198263095Y-189299285D01*
X198263095Y-189299285D02*
X198215476Y-189108809D01*
X198215476Y-189108809D02*
X198215476Y-188727857D01*
X198215476Y-188727857D02*
X198263095Y-188632619D01*
X198263095Y-188632619D02*
X198310714Y-188585000D01*
X198310714Y-188585000D02*
X198405952Y-188537380D01*
X198405952Y-188537380D02*
X198596428Y-188537380D01*
X198596428Y-188537380D02*
X198691666Y-188585000D01*
X198691666Y-188585000D02*
X198739285Y-188632619D01*
X198739285Y-188632619D02*
X198786904Y-188727857D01*
X198786904Y-188727857D02*
X198786904Y-188965952D01*
X198786904Y-188965952D02*
X198739285Y-189061190D01*
X198739285Y-189061190D02*
X198691666Y-189108809D01*
X198691666Y-189108809D02*
X198596428Y-189156428D01*
X198596428Y-189156428D02*
X198405952Y-189156428D01*
X198405952Y-189156428D02*
X198310714Y-189108809D01*
X198310714Y-189108809D02*
X198263095Y-189061190D01*
X198263095Y-189061190D02*
X198215476Y-188965952D01*
D12*
%TO.C,D35*%
X241131428Y-220443904D02*
X241131428Y-219643904D01*
X241131428Y-219643904D02*
X240940952Y-219643904D01*
X240940952Y-219643904D02*
X240826666Y-219682000D01*
X240826666Y-219682000D02*
X240750476Y-219758190D01*
X240750476Y-219758190D02*
X240712381Y-219834380D01*
X240712381Y-219834380D02*
X240674285Y-219986761D01*
X240674285Y-219986761D02*
X240674285Y-220101047D01*
X240674285Y-220101047D02*
X240712381Y-220253428D01*
X240712381Y-220253428D02*
X240750476Y-220329619D01*
X240750476Y-220329619D02*
X240826666Y-220405809D01*
X240826666Y-220405809D02*
X240940952Y-220443904D01*
X240940952Y-220443904D02*
X241131428Y-220443904D01*
X240407619Y-219643904D02*
X239912381Y-219643904D01*
X239912381Y-219643904D02*
X240179047Y-219948666D01*
X240179047Y-219948666D02*
X240064762Y-219948666D01*
X240064762Y-219948666D02*
X239988571Y-219986761D01*
X239988571Y-219986761D02*
X239950476Y-220024857D01*
X239950476Y-220024857D02*
X239912381Y-220101047D01*
X239912381Y-220101047D02*
X239912381Y-220291523D01*
X239912381Y-220291523D02*
X239950476Y-220367714D01*
X239950476Y-220367714D02*
X239988571Y-220405809D01*
X239988571Y-220405809D02*
X240064762Y-220443904D01*
X240064762Y-220443904D02*
X240293333Y-220443904D01*
X240293333Y-220443904D02*
X240369524Y-220405809D01*
X240369524Y-220405809D02*
X240407619Y-220367714D01*
X239188571Y-219643904D02*
X239569523Y-219643904D01*
X239569523Y-219643904D02*
X239607619Y-220024857D01*
X239607619Y-220024857D02*
X239569523Y-219986761D01*
X239569523Y-219986761D02*
X239493333Y-219948666D01*
X239493333Y-219948666D02*
X239302857Y-219948666D01*
X239302857Y-219948666D02*
X239226666Y-219986761D01*
X239226666Y-219986761D02*
X239188571Y-220024857D01*
X239188571Y-220024857D02*
X239150476Y-220101047D01*
X239150476Y-220101047D02*
X239150476Y-220291523D01*
X239150476Y-220291523D02*
X239188571Y-220367714D01*
X239188571Y-220367714D02*
X239226666Y-220405809D01*
X239226666Y-220405809D02*
X239302857Y-220443904D01*
X239302857Y-220443904D02*
X239493333Y-220443904D01*
X239493333Y-220443904D02*
X239569523Y-220405809D01*
X239569523Y-220405809D02*
X239607619Y-220367714D01*
%TO.C,D46*%
X184046428Y-239223904D02*
X184046428Y-238423904D01*
X184046428Y-238423904D02*
X183855952Y-238423904D01*
X183855952Y-238423904D02*
X183741666Y-238462000D01*
X183741666Y-238462000D02*
X183665476Y-238538190D01*
X183665476Y-238538190D02*
X183627381Y-238614380D01*
X183627381Y-238614380D02*
X183589285Y-238766761D01*
X183589285Y-238766761D02*
X183589285Y-238881047D01*
X183589285Y-238881047D02*
X183627381Y-239033428D01*
X183627381Y-239033428D02*
X183665476Y-239109619D01*
X183665476Y-239109619D02*
X183741666Y-239185809D01*
X183741666Y-239185809D02*
X183855952Y-239223904D01*
X183855952Y-239223904D02*
X184046428Y-239223904D01*
X182903571Y-238690571D02*
X182903571Y-239223904D01*
X183094047Y-238385809D02*
X183284524Y-238957238D01*
X183284524Y-238957238D02*
X182789285Y-238957238D01*
X182141666Y-238423904D02*
X182294047Y-238423904D01*
X182294047Y-238423904D02*
X182370238Y-238462000D01*
X182370238Y-238462000D02*
X182408333Y-238500095D01*
X182408333Y-238500095D02*
X182484523Y-238614380D01*
X182484523Y-238614380D02*
X182522619Y-238766761D01*
X182522619Y-238766761D02*
X182522619Y-239071523D01*
X182522619Y-239071523D02*
X182484523Y-239147714D01*
X182484523Y-239147714D02*
X182446428Y-239185809D01*
X182446428Y-239185809D02*
X182370238Y-239223904D01*
X182370238Y-239223904D02*
X182217857Y-239223904D01*
X182217857Y-239223904D02*
X182141666Y-239185809D01*
X182141666Y-239185809D02*
X182103571Y-239147714D01*
X182103571Y-239147714D02*
X182065476Y-239071523D01*
X182065476Y-239071523D02*
X182065476Y-238881047D01*
X182065476Y-238881047D02*
X182103571Y-238804857D01*
X182103571Y-238804857D02*
X182141666Y-238766761D01*
X182141666Y-238766761D02*
X182217857Y-238728666D01*
X182217857Y-238728666D02*
X182370238Y-238728666D01*
X182370238Y-238728666D02*
X182446428Y-238766761D01*
X182446428Y-238766761D02*
X182484523Y-238804857D01*
X182484523Y-238804857D02*
X182522619Y-238881047D01*
%TO.C,D34*%
X222056428Y-220543904D02*
X222056428Y-219743904D01*
X222056428Y-219743904D02*
X221865952Y-219743904D01*
X221865952Y-219743904D02*
X221751666Y-219782000D01*
X221751666Y-219782000D02*
X221675476Y-219858190D01*
X221675476Y-219858190D02*
X221637381Y-219934380D01*
X221637381Y-219934380D02*
X221599285Y-220086761D01*
X221599285Y-220086761D02*
X221599285Y-220201047D01*
X221599285Y-220201047D02*
X221637381Y-220353428D01*
X221637381Y-220353428D02*
X221675476Y-220429619D01*
X221675476Y-220429619D02*
X221751666Y-220505809D01*
X221751666Y-220505809D02*
X221865952Y-220543904D01*
X221865952Y-220543904D02*
X222056428Y-220543904D01*
X221332619Y-219743904D02*
X220837381Y-219743904D01*
X220837381Y-219743904D02*
X221104047Y-220048666D01*
X221104047Y-220048666D02*
X220989762Y-220048666D01*
X220989762Y-220048666D02*
X220913571Y-220086761D01*
X220913571Y-220086761D02*
X220875476Y-220124857D01*
X220875476Y-220124857D02*
X220837381Y-220201047D01*
X220837381Y-220201047D02*
X220837381Y-220391523D01*
X220837381Y-220391523D02*
X220875476Y-220467714D01*
X220875476Y-220467714D02*
X220913571Y-220505809D01*
X220913571Y-220505809D02*
X220989762Y-220543904D01*
X220989762Y-220543904D02*
X221218333Y-220543904D01*
X221218333Y-220543904D02*
X221294524Y-220505809D01*
X221294524Y-220505809D02*
X221332619Y-220467714D01*
X220151666Y-220010571D02*
X220151666Y-220543904D01*
X220342142Y-219705809D02*
X220532619Y-220277238D01*
X220532619Y-220277238D02*
X220037380Y-220277238D01*
D11*
%TO.C,SW43*%
X125634523Y-227709761D02*
X125491666Y-227757380D01*
X125491666Y-227757380D02*
X125253571Y-227757380D01*
X125253571Y-227757380D02*
X125158333Y-227709761D01*
X125158333Y-227709761D02*
X125110714Y-227662142D01*
X125110714Y-227662142D02*
X125063095Y-227566904D01*
X125063095Y-227566904D02*
X125063095Y-227471666D01*
X125063095Y-227471666D02*
X125110714Y-227376428D01*
X125110714Y-227376428D02*
X125158333Y-227328809D01*
X125158333Y-227328809D02*
X125253571Y-227281190D01*
X125253571Y-227281190D02*
X125444047Y-227233571D01*
X125444047Y-227233571D02*
X125539285Y-227185952D01*
X125539285Y-227185952D02*
X125586904Y-227138333D01*
X125586904Y-227138333D02*
X125634523Y-227043095D01*
X125634523Y-227043095D02*
X125634523Y-226947857D01*
X125634523Y-226947857D02*
X125586904Y-226852619D01*
X125586904Y-226852619D02*
X125539285Y-226805000D01*
X125539285Y-226805000D02*
X125444047Y-226757380D01*
X125444047Y-226757380D02*
X125205952Y-226757380D01*
X125205952Y-226757380D02*
X125063095Y-226805000D01*
X124729761Y-226757380D02*
X124491666Y-227757380D01*
X124491666Y-227757380D02*
X124301190Y-227043095D01*
X124301190Y-227043095D02*
X124110714Y-227757380D01*
X124110714Y-227757380D02*
X123872619Y-226757380D01*
X123063095Y-227090714D02*
X123063095Y-227757380D01*
X123301190Y-226709761D02*
X123539285Y-227424047D01*
X123539285Y-227424047D02*
X122920238Y-227424047D01*
X122634523Y-226757380D02*
X122015476Y-226757380D01*
X122015476Y-226757380D02*
X122348809Y-227138333D01*
X122348809Y-227138333D02*
X122205952Y-227138333D01*
X122205952Y-227138333D02*
X122110714Y-227185952D01*
X122110714Y-227185952D02*
X122063095Y-227233571D01*
X122063095Y-227233571D02*
X122015476Y-227328809D01*
X122015476Y-227328809D02*
X122015476Y-227566904D01*
X122015476Y-227566904D02*
X122063095Y-227662142D01*
X122063095Y-227662142D02*
X122110714Y-227709761D01*
X122110714Y-227709761D02*
X122205952Y-227757380D01*
X122205952Y-227757380D02*
X122491666Y-227757380D01*
X122491666Y-227757380D02*
X122586904Y-227709761D01*
X122586904Y-227709761D02*
X122634523Y-227662142D01*
%TO.C,SW47*%
X201834523Y-227709761D02*
X201691666Y-227757380D01*
X201691666Y-227757380D02*
X201453571Y-227757380D01*
X201453571Y-227757380D02*
X201358333Y-227709761D01*
X201358333Y-227709761D02*
X201310714Y-227662142D01*
X201310714Y-227662142D02*
X201263095Y-227566904D01*
X201263095Y-227566904D02*
X201263095Y-227471666D01*
X201263095Y-227471666D02*
X201310714Y-227376428D01*
X201310714Y-227376428D02*
X201358333Y-227328809D01*
X201358333Y-227328809D02*
X201453571Y-227281190D01*
X201453571Y-227281190D02*
X201644047Y-227233571D01*
X201644047Y-227233571D02*
X201739285Y-227185952D01*
X201739285Y-227185952D02*
X201786904Y-227138333D01*
X201786904Y-227138333D02*
X201834523Y-227043095D01*
X201834523Y-227043095D02*
X201834523Y-226947857D01*
X201834523Y-226947857D02*
X201786904Y-226852619D01*
X201786904Y-226852619D02*
X201739285Y-226805000D01*
X201739285Y-226805000D02*
X201644047Y-226757380D01*
X201644047Y-226757380D02*
X201405952Y-226757380D01*
X201405952Y-226757380D02*
X201263095Y-226805000D01*
X200929761Y-226757380D02*
X200691666Y-227757380D01*
X200691666Y-227757380D02*
X200501190Y-227043095D01*
X200501190Y-227043095D02*
X200310714Y-227757380D01*
X200310714Y-227757380D02*
X200072619Y-226757380D01*
X199263095Y-227090714D02*
X199263095Y-227757380D01*
X199501190Y-226709761D02*
X199739285Y-227424047D01*
X199739285Y-227424047D02*
X199120238Y-227424047D01*
X198834523Y-226757380D02*
X198167857Y-226757380D01*
X198167857Y-226757380D02*
X198596428Y-227757380D01*
D12*
%TO.C,D2*%
X145465475Y-181993904D02*
X145465475Y-181193904D01*
X145465475Y-181193904D02*
X145274999Y-181193904D01*
X145274999Y-181193904D02*
X145160713Y-181232000D01*
X145160713Y-181232000D02*
X145084523Y-181308190D01*
X145084523Y-181308190D02*
X145046428Y-181384380D01*
X145046428Y-181384380D02*
X145008332Y-181536761D01*
X145008332Y-181536761D02*
X145008332Y-181651047D01*
X145008332Y-181651047D02*
X145046428Y-181803428D01*
X145046428Y-181803428D02*
X145084523Y-181879619D01*
X145084523Y-181879619D02*
X145160713Y-181955809D01*
X145160713Y-181955809D02*
X145274999Y-181993904D01*
X145274999Y-181993904D02*
X145465475Y-181993904D01*
X144703571Y-181270095D02*
X144665475Y-181232000D01*
X144665475Y-181232000D02*
X144589285Y-181193904D01*
X144589285Y-181193904D02*
X144398809Y-181193904D01*
X144398809Y-181193904D02*
X144322618Y-181232000D01*
X144322618Y-181232000D02*
X144284523Y-181270095D01*
X144284523Y-181270095D02*
X144246428Y-181346285D01*
X144246428Y-181346285D02*
X144246428Y-181422476D01*
X144246428Y-181422476D02*
X144284523Y-181536761D01*
X144284523Y-181536761D02*
X144741666Y-181993904D01*
X144741666Y-181993904D02*
X144246428Y-181993904D01*
D11*
%TO.C,SW35*%
X239934523Y-208539761D02*
X239791666Y-208587380D01*
X239791666Y-208587380D02*
X239553571Y-208587380D01*
X239553571Y-208587380D02*
X239458333Y-208539761D01*
X239458333Y-208539761D02*
X239410714Y-208492142D01*
X239410714Y-208492142D02*
X239363095Y-208396904D01*
X239363095Y-208396904D02*
X239363095Y-208301666D01*
X239363095Y-208301666D02*
X239410714Y-208206428D01*
X239410714Y-208206428D02*
X239458333Y-208158809D01*
X239458333Y-208158809D02*
X239553571Y-208111190D01*
X239553571Y-208111190D02*
X239744047Y-208063571D01*
X239744047Y-208063571D02*
X239839285Y-208015952D01*
X239839285Y-208015952D02*
X239886904Y-207968333D01*
X239886904Y-207968333D02*
X239934523Y-207873095D01*
X239934523Y-207873095D02*
X239934523Y-207777857D01*
X239934523Y-207777857D02*
X239886904Y-207682619D01*
X239886904Y-207682619D02*
X239839285Y-207635000D01*
X239839285Y-207635000D02*
X239744047Y-207587380D01*
X239744047Y-207587380D02*
X239505952Y-207587380D01*
X239505952Y-207587380D02*
X239363095Y-207635000D01*
X239029761Y-207587380D02*
X238791666Y-208587380D01*
X238791666Y-208587380D02*
X238601190Y-207873095D01*
X238601190Y-207873095D02*
X238410714Y-208587380D01*
X238410714Y-208587380D02*
X238172619Y-207587380D01*
X237886904Y-207587380D02*
X237267857Y-207587380D01*
X237267857Y-207587380D02*
X237601190Y-207968333D01*
X237601190Y-207968333D02*
X237458333Y-207968333D01*
X237458333Y-207968333D02*
X237363095Y-208015952D01*
X237363095Y-208015952D02*
X237315476Y-208063571D01*
X237315476Y-208063571D02*
X237267857Y-208158809D01*
X237267857Y-208158809D02*
X237267857Y-208396904D01*
X237267857Y-208396904D02*
X237315476Y-208492142D01*
X237315476Y-208492142D02*
X237363095Y-208539761D01*
X237363095Y-208539761D02*
X237458333Y-208587380D01*
X237458333Y-208587380D02*
X237744047Y-208587380D01*
X237744047Y-208587380D02*
X237839285Y-208539761D01*
X237839285Y-208539761D02*
X237886904Y-208492142D01*
X236363095Y-207587380D02*
X236839285Y-207587380D01*
X236839285Y-207587380D02*
X236886904Y-208063571D01*
X236886904Y-208063571D02*
X236839285Y-208015952D01*
X236839285Y-208015952D02*
X236744047Y-207968333D01*
X236744047Y-207968333D02*
X236505952Y-207968333D01*
X236505952Y-207968333D02*
X236410714Y-208015952D01*
X236410714Y-208015952D02*
X236363095Y-208063571D01*
X236363095Y-208063571D02*
X236315476Y-208158809D01*
X236315476Y-208158809D02*
X236315476Y-208396904D01*
X236315476Y-208396904D02*
X236363095Y-208492142D01*
X236363095Y-208492142D02*
X236410714Y-208539761D01*
X236410714Y-208539761D02*
X236505952Y-208587380D01*
X236505952Y-208587380D02*
X236744047Y-208587380D01*
X236744047Y-208587380D02*
X236839285Y-208539761D01*
X236839285Y-208539761D02*
X236886904Y-208492142D01*
D12*
%TO.C,D31*%
X164996428Y-220443904D02*
X164996428Y-219643904D01*
X164996428Y-219643904D02*
X164805952Y-219643904D01*
X164805952Y-219643904D02*
X164691666Y-219682000D01*
X164691666Y-219682000D02*
X164615476Y-219758190D01*
X164615476Y-219758190D02*
X164577381Y-219834380D01*
X164577381Y-219834380D02*
X164539285Y-219986761D01*
X164539285Y-219986761D02*
X164539285Y-220101047D01*
X164539285Y-220101047D02*
X164577381Y-220253428D01*
X164577381Y-220253428D02*
X164615476Y-220329619D01*
X164615476Y-220329619D02*
X164691666Y-220405809D01*
X164691666Y-220405809D02*
X164805952Y-220443904D01*
X164805952Y-220443904D02*
X164996428Y-220443904D01*
X164272619Y-219643904D02*
X163777381Y-219643904D01*
X163777381Y-219643904D02*
X164044047Y-219948666D01*
X164044047Y-219948666D02*
X163929762Y-219948666D01*
X163929762Y-219948666D02*
X163853571Y-219986761D01*
X163853571Y-219986761D02*
X163815476Y-220024857D01*
X163815476Y-220024857D02*
X163777381Y-220101047D01*
X163777381Y-220101047D02*
X163777381Y-220291523D01*
X163777381Y-220291523D02*
X163815476Y-220367714D01*
X163815476Y-220367714D02*
X163853571Y-220405809D01*
X163853571Y-220405809D02*
X163929762Y-220443904D01*
X163929762Y-220443904D02*
X164158333Y-220443904D01*
X164158333Y-220443904D02*
X164234524Y-220405809D01*
X164234524Y-220405809D02*
X164272619Y-220367714D01*
X163015476Y-220443904D02*
X163472619Y-220443904D01*
X163244047Y-220443904D02*
X163244047Y-219643904D01*
X163244047Y-219643904D02*
X163320238Y-219758190D01*
X163320238Y-219758190D02*
X163396428Y-219834380D01*
X163396428Y-219834380D02*
X163472619Y-219872476D01*
D11*
%TO.C,SW30*%
X144614523Y-208539761D02*
X144471666Y-208587380D01*
X144471666Y-208587380D02*
X144233571Y-208587380D01*
X144233571Y-208587380D02*
X144138333Y-208539761D01*
X144138333Y-208539761D02*
X144090714Y-208492142D01*
X144090714Y-208492142D02*
X144043095Y-208396904D01*
X144043095Y-208396904D02*
X144043095Y-208301666D01*
X144043095Y-208301666D02*
X144090714Y-208206428D01*
X144090714Y-208206428D02*
X144138333Y-208158809D01*
X144138333Y-208158809D02*
X144233571Y-208111190D01*
X144233571Y-208111190D02*
X144424047Y-208063571D01*
X144424047Y-208063571D02*
X144519285Y-208015952D01*
X144519285Y-208015952D02*
X144566904Y-207968333D01*
X144566904Y-207968333D02*
X144614523Y-207873095D01*
X144614523Y-207873095D02*
X144614523Y-207777857D01*
X144614523Y-207777857D02*
X144566904Y-207682619D01*
X144566904Y-207682619D02*
X144519285Y-207635000D01*
X144519285Y-207635000D02*
X144424047Y-207587380D01*
X144424047Y-207587380D02*
X144185952Y-207587380D01*
X144185952Y-207587380D02*
X144043095Y-207635000D01*
X143709761Y-207587380D02*
X143471666Y-208587380D01*
X143471666Y-208587380D02*
X143281190Y-207873095D01*
X143281190Y-207873095D02*
X143090714Y-208587380D01*
X143090714Y-208587380D02*
X142852619Y-207587380D01*
X142566904Y-207587380D02*
X141947857Y-207587380D01*
X141947857Y-207587380D02*
X142281190Y-207968333D01*
X142281190Y-207968333D02*
X142138333Y-207968333D01*
X142138333Y-207968333D02*
X142043095Y-208015952D01*
X142043095Y-208015952D02*
X141995476Y-208063571D01*
X141995476Y-208063571D02*
X141947857Y-208158809D01*
X141947857Y-208158809D02*
X141947857Y-208396904D01*
X141947857Y-208396904D02*
X141995476Y-208492142D01*
X141995476Y-208492142D02*
X142043095Y-208539761D01*
X142043095Y-208539761D02*
X142138333Y-208587380D01*
X142138333Y-208587380D02*
X142424047Y-208587380D01*
X142424047Y-208587380D02*
X142519285Y-208539761D01*
X142519285Y-208539761D02*
X142566904Y-208492142D01*
X141328809Y-207587380D02*
X141233571Y-207587380D01*
X141233571Y-207587380D02*
X141138333Y-207635000D01*
X141138333Y-207635000D02*
X141090714Y-207682619D01*
X141090714Y-207682619D02*
X141043095Y-207777857D01*
X141043095Y-207777857D02*
X140995476Y-207968333D01*
X140995476Y-207968333D02*
X140995476Y-208206428D01*
X140995476Y-208206428D02*
X141043095Y-208396904D01*
X141043095Y-208396904D02*
X141090714Y-208492142D01*
X141090714Y-208492142D02*
X141138333Y-208539761D01*
X141138333Y-208539761D02*
X141233571Y-208587380D01*
X141233571Y-208587380D02*
X141328809Y-208587380D01*
X141328809Y-208587380D02*
X141424047Y-208539761D01*
X141424047Y-208539761D02*
X141471666Y-208492142D01*
X141471666Y-208492142D02*
X141519285Y-208396904D01*
X141519285Y-208396904D02*
X141566904Y-208206428D01*
X141566904Y-208206428D02*
X141566904Y-207968333D01*
X141566904Y-207968333D02*
X141519285Y-207777857D01*
X141519285Y-207777857D02*
X141471666Y-207682619D01*
X141471666Y-207682619D02*
X141424047Y-207635000D01*
X141424047Y-207635000D02*
X141328809Y-207587380D01*
D12*
%TO.C,D59*%
X222056428Y-258193904D02*
X222056428Y-257393904D01*
X222056428Y-257393904D02*
X221865952Y-257393904D01*
X221865952Y-257393904D02*
X221751666Y-257432000D01*
X221751666Y-257432000D02*
X221675476Y-257508190D01*
X221675476Y-257508190D02*
X221637381Y-257584380D01*
X221637381Y-257584380D02*
X221599285Y-257736761D01*
X221599285Y-257736761D02*
X221599285Y-257851047D01*
X221599285Y-257851047D02*
X221637381Y-258003428D01*
X221637381Y-258003428D02*
X221675476Y-258079619D01*
X221675476Y-258079619D02*
X221751666Y-258155809D01*
X221751666Y-258155809D02*
X221865952Y-258193904D01*
X221865952Y-258193904D02*
X222056428Y-258193904D01*
X220875476Y-257393904D02*
X221256428Y-257393904D01*
X221256428Y-257393904D02*
X221294524Y-257774857D01*
X221294524Y-257774857D02*
X221256428Y-257736761D01*
X221256428Y-257736761D02*
X221180238Y-257698666D01*
X221180238Y-257698666D02*
X220989762Y-257698666D01*
X220989762Y-257698666D02*
X220913571Y-257736761D01*
X220913571Y-257736761D02*
X220875476Y-257774857D01*
X220875476Y-257774857D02*
X220837381Y-257851047D01*
X220837381Y-257851047D02*
X220837381Y-258041523D01*
X220837381Y-258041523D02*
X220875476Y-258117714D01*
X220875476Y-258117714D02*
X220913571Y-258155809D01*
X220913571Y-258155809D02*
X220989762Y-258193904D01*
X220989762Y-258193904D02*
X221180238Y-258193904D01*
X221180238Y-258193904D02*
X221256428Y-258155809D01*
X221256428Y-258155809D02*
X221294524Y-258117714D01*
X220456428Y-258193904D02*
X220304047Y-258193904D01*
X220304047Y-258193904D02*
X220227857Y-258155809D01*
X220227857Y-258155809D02*
X220189761Y-258117714D01*
X220189761Y-258117714D02*
X220113571Y-258003428D01*
X220113571Y-258003428D02*
X220075476Y-257851047D01*
X220075476Y-257851047D02*
X220075476Y-257546285D01*
X220075476Y-257546285D02*
X220113571Y-257470095D01*
X220113571Y-257470095D02*
X220151666Y-257432000D01*
X220151666Y-257432000D02*
X220227857Y-257393904D01*
X220227857Y-257393904D02*
X220380238Y-257393904D01*
X220380238Y-257393904D02*
X220456428Y-257432000D01*
X220456428Y-257432000D02*
X220494523Y-257470095D01*
X220494523Y-257470095D02*
X220532619Y-257546285D01*
X220532619Y-257546285D02*
X220532619Y-257736761D01*
X220532619Y-257736761D02*
X220494523Y-257812952D01*
X220494523Y-257812952D02*
X220456428Y-257851047D01*
X220456428Y-257851047D02*
X220380238Y-257889142D01*
X220380238Y-257889142D02*
X220227857Y-257889142D01*
X220227857Y-257889142D02*
X220151666Y-257851047D01*
X220151666Y-257851047D02*
X220113571Y-257812952D01*
X220113571Y-257812952D02*
X220075476Y-257736761D01*
D11*
%TO.C,SW33*%
X201834523Y-208539761D02*
X201691666Y-208587380D01*
X201691666Y-208587380D02*
X201453571Y-208587380D01*
X201453571Y-208587380D02*
X201358333Y-208539761D01*
X201358333Y-208539761D02*
X201310714Y-208492142D01*
X201310714Y-208492142D02*
X201263095Y-208396904D01*
X201263095Y-208396904D02*
X201263095Y-208301666D01*
X201263095Y-208301666D02*
X201310714Y-208206428D01*
X201310714Y-208206428D02*
X201358333Y-208158809D01*
X201358333Y-208158809D02*
X201453571Y-208111190D01*
X201453571Y-208111190D02*
X201644047Y-208063571D01*
X201644047Y-208063571D02*
X201739285Y-208015952D01*
X201739285Y-208015952D02*
X201786904Y-207968333D01*
X201786904Y-207968333D02*
X201834523Y-207873095D01*
X201834523Y-207873095D02*
X201834523Y-207777857D01*
X201834523Y-207777857D02*
X201786904Y-207682619D01*
X201786904Y-207682619D02*
X201739285Y-207635000D01*
X201739285Y-207635000D02*
X201644047Y-207587380D01*
X201644047Y-207587380D02*
X201405952Y-207587380D01*
X201405952Y-207587380D02*
X201263095Y-207635000D01*
X200929761Y-207587380D02*
X200691666Y-208587380D01*
X200691666Y-208587380D02*
X200501190Y-207873095D01*
X200501190Y-207873095D02*
X200310714Y-208587380D01*
X200310714Y-208587380D02*
X200072619Y-207587380D01*
X199786904Y-207587380D02*
X199167857Y-207587380D01*
X199167857Y-207587380D02*
X199501190Y-207968333D01*
X199501190Y-207968333D02*
X199358333Y-207968333D01*
X199358333Y-207968333D02*
X199263095Y-208015952D01*
X199263095Y-208015952D02*
X199215476Y-208063571D01*
X199215476Y-208063571D02*
X199167857Y-208158809D01*
X199167857Y-208158809D02*
X199167857Y-208396904D01*
X199167857Y-208396904D02*
X199215476Y-208492142D01*
X199215476Y-208492142D02*
X199263095Y-208539761D01*
X199263095Y-208539761D02*
X199358333Y-208587380D01*
X199358333Y-208587380D02*
X199644047Y-208587380D01*
X199644047Y-208587380D02*
X199739285Y-208539761D01*
X199739285Y-208539761D02*
X199786904Y-208492142D01*
X198834523Y-207587380D02*
X198215476Y-207587380D01*
X198215476Y-207587380D02*
X198548809Y-207968333D01*
X198548809Y-207968333D02*
X198405952Y-207968333D01*
X198405952Y-207968333D02*
X198310714Y-208015952D01*
X198310714Y-208015952D02*
X198263095Y-208063571D01*
X198263095Y-208063571D02*
X198215476Y-208158809D01*
X198215476Y-208158809D02*
X198215476Y-208396904D01*
X198215476Y-208396904D02*
X198263095Y-208492142D01*
X198263095Y-208492142D02*
X198310714Y-208539761D01*
X198310714Y-208539761D02*
X198405952Y-208587380D01*
X198405952Y-208587380D02*
X198691666Y-208587380D01*
X198691666Y-208587380D02*
X198786904Y-208539761D01*
X198786904Y-208539761D02*
X198834523Y-208492142D01*
D12*
%TO.C,D5*%
X202605475Y-182093904D02*
X202605475Y-181293904D01*
X202605475Y-181293904D02*
X202414999Y-181293904D01*
X202414999Y-181293904D02*
X202300713Y-181332000D01*
X202300713Y-181332000D02*
X202224523Y-181408190D01*
X202224523Y-181408190D02*
X202186428Y-181484380D01*
X202186428Y-181484380D02*
X202148332Y-181636761D01*
X202148332Y-181636761D02*
X202148332Y-181751047D01*
X202148332Y-181751047D02*
X202186428Y-181903428D01*
X202186428Y-181903428D02*
X202224523Y-181979619D01*
X202224523Y-181979619D02*
X202300713Y-182055809D01*
X202300713Y-182055809D02*
X202414999Y-182093904D01*
X202414999Y-182093904D02*
X202605475Y-182093904D01*
X201424523Y-181293904D02*
X201805475Y-181293904D01*
X201805475Y-181293904D02*
X201843571Y-181674857D01*
X201843571Y-181674857D02*
X201805475Y-181636761D01*
X201805475Y-181636761D02*
X201729285Y-181598666D01*
X201729285Y-181598666D02*
X201538809Y-181598666D01*
X201538809Y-181598666D02*
X201462618Y-181636761D01*
X201462618Y-181636761D02*
X201424523Y-181674857D01*
X201424523Y-181674857D02*
X201386428Y-181751047D01*
X201386428Y-181751047D02*
X201386428Y-181941523D01*
X201386428Y-181941523D02*
X201424523Y-182017714D01*
X201424523Y-182017714D02*
X201462618Y-182055809D01*
X201462618Y-182055809D02*
X201538809Y-182093904D01*
X201538809Y-182093904D02*
X201729285Y-182093904D01*
X201729285Y-182093904D02*
X201805475Y-182055809D01*
X201805475Y-182055809D02*
X201843571Y-182017714D01*
%TO.C,D4*%
X183665475Y-182093904D02*
X183665475Y-181293904D01*
X183665475Y-181293904D02*
X183474999Y-181293904D01*
X183474999Y-181293904D02*
X183360713Y-181332000D01*
X183360713Y-181332000D02*
X183284523Y-181408190D01*
X183284523Y-181408190D02*
X183246428Y-181484380D01*
X183246428Y-181484380D02*
X183208332Y-181636761D01*
X183208332Y-181636761D02*
X183208332Y-181751047D01*
X183208332Y-181751047D02*
X183246428Y-181903428D01*
X183246428Y-181903428D02*
X183284523Y-181979619D01*
X183284523Y-181979619D02*
X183360713Y-182055809D01*
X183360713Y-182055809D02*
X183474999Y-182093904D01*
X183474999Y-182093904D02*
X183665475Y-182093904D01*
X182522618Y-181560571D02*
X182522618Y-182093904D01*
X182713094Y-181255809D02*
X182903571Y-181827238D01*
X182903571Y-181827238D02*
X182408332Y-181827238D01*
%TO.C,D7*%
X240750475Y-181993904D02*
X240750475Y-181193904D01*
X240750475Y-181193904D02*
X240559999Y-181193904D01*
X240559999Y-181193904D02*
X240445713Y-181232000D01*
X240445713Y-181232000D02*
X240369523Y-181308190D01*
X240369523Y-181308190D02*
X240331428Y-181384380D01*
X240331428Y-181384380D02*
X240293332Y-181536761D01*
X240293332Y-181536761D02*
X240293332Y-181651047D01*
X240293332Y-181651047D02*
X240331428Y-181803428D01*
X240331428Y-181803428D02*
X240369523Y-181879619D01*
X240369523Y-181879619D02*
X240445713Y-181955809D01*
X240445713Y-181955809D02*
X240559999Y-181993904D01*
X240559999Y-181993904D02*
X240750475Y-181993904D01*
X240026666Y-181193904D02*
X239493332Y-181193904D01*
X239493332Y-181193904D02*
X239836190Y-181993904D01*
D11*
%TO.C,SW6*%
X220408332Y-170439761D02*
X220265475Y-170487380D01*
X220265475Y-170487380D02*
X220027380Y-170487380D01*
X220027380Y-170487380D02*
X219932142Y-170439761D01*
X219932142Y-170439761D02*
X219884523Y-170392142D01*
X219884523Y-170392142D02*
X219836904Y-170296904D01*
X219836904Y-170296904D02*
X219836904Y-170201666D01*
X219836904Y-170201666D02*
X219884523Y-170106428D01*
X219884523Y-170106428D02*
X219932142Y-170058809D01*
X219932142Y-170058809D02*
X220027380Y-170011190D01*
X220027380Y-170011190D02*
X220217856Y-169963571D01*
X220217856Y-169963571D02*
X220313094Y-169915952D01*
X220313094Y-169915952D02*
X220360713Y-169868333D01*
X220360713Y-169868333D02*
X220408332Y-169773095D01*
X220408332Y-169773095D02*
X220408332Y-169677857D01*
X220408332Y-169677857D02*
X220360713Y-169582619D01*
X220360713Y-169582619D02*
X220313094Y-169535000D01*
X220313094Y-169535000D02*
X220217856Y-169487380D01*
X220217856Y-169487380D02*
X219979761Y-169487380D01*
X219979761Y-169487380D02*
X219836904Y-169535000D01*
X219503570Y-169487380D02*
X219265475Y-170487380D01*
X219265475Y-170487380D02*
X219074999Y-169773095D01*
X219074999Y-169773095D02*
X218884523Y-170487380D01*
X218884523Y-170487380D02*
X218646428Y-169487380D01*
X217836904Y-169487380D02*
X218027380Y-169487380D01*
X218027380Y-169487380D02*
X218122618Y-169535000D01*
X218122618Y-169535000D02*
X218170237Y-169582619D01*
X218170237Y-169582619D02*
X218265475Y-169725476D01*
X218265475Y-169725476D02*
X218313094Y-169915952D01*
X218313094Y-169915952D02*
X218313094Y-170296904D01*
X218313094Y-170296904D02*
X218265475Y-170392142D01*
X218265475Y-170392142D02*
X218217856Y-170439761D01*
X218217856Y-170439761D02*
X218122618Y-170487380D01*
X218122618Y-170487380D02*
X217932142Y-170487380D01*
X217932142Y-170487380D02*
X217836904Y-170439761D01*
X217836904Y-170439761D02*
X217789285Y-170392142D01*
X217789285Y-170392142D02*
X217741666Y-170296904D01*
X217741666Y-170296904D02*
X217741666Y-170058809D01*
X217741666Y-170058809D02*
X217789285Y-169963571D01*
X217789285Y-169963571D02*
X217836904Y-169915952D01*
X217836904Y-169915952D02*
X217932142Y-169868333D01*
X217932142Y-169868333D02*
X218122618Y-169868333D01*
X218122618Y-169868333D02*
X218217856Y-169915952D01*
X218217856Y-169915952D02*
X218265475Y-169963571D01*
X218265475Y-169963571D02*
X218313094Y-170058809D01*
%TO.C,SW44*%
X144614523Y-227709761D02*
X144471666Y-227757380D01*
X144471666Y-227757380D02*
X144233571Y-227757380D01*
X144233571Y-227757380D02*
X144138333Y-227709761D01*
X144138333Y-227709761D02*
X144090714Y-227662142D01*
X144090714Y-227662142D02*
X144043095Y-227566904D01*
X144043095Y-227566904D02*
X144043095Y-227471666D01*
X144043095Y-227471666D02*
X144090714Y-227376428D01*
X144090714Y-227376428D02*
X144138333Y-227328809D01*
X144138333Y-227328809D02*
X144233571Y-227281190D01*
X144233571Y-227281190D02*
X144424047Y-227233571D01*
X144424047Y-227233571D02*
X144519285Y-227185952D01*
X144519285Y-227185952D02*
X144566904Y-227138333D01*
X144566904Y-227138333D02*
X144614523Y-227043095D01*
X144614523Y-227043095D02*
X144614523Y-226947857D01*
X144614523Y-226947857D02*
X144566904Y-226852619D01*
X144566904Y-226852619D02*
X144519285Y-226805000D01*
X144519285Y-226805000D02*
X144424047Y-226757380D01*
X144424047Y-226757380D02*
X144185952Y-226757380D01*
X144185952Y-226757380D02*
X144043095Y-226805000D01*
X143709761Y-226757380D02*
X143471666Y-227757380D01*
X143471666Y-227757380D02*
X143281190Y-227043095D01*
X143281190Y-227043095D02*
X143090714Y-227757380D01*
X143090714Y-227757380D02*
X142852619Y-226757380D01*
X142043095Y-227090714D02*
X142043095Y-227757380D01*
X142281190Y-226709761D02*
X142519285Y-227424047D01*
X142519285Y-227424047D02*
X141900238Y-227424047D01*
X141090714Y-227090714D02*
X141090714Y-227757380D01*
X141328809Y-226709761D02*
X141566904Y-227424047D01*
X141566904Y-227424047D02*
X140947857Y-227424047D01*
D12*
%TO.C,D57*%
X184046428Y-258193904D02*
X184046428Y-257393904D01*
X184046428Y-257393904D02*
X183855952Y-257393904D01*
X183855952Y-257393904D02*
X183741666Y-257432000D01*
X183741666Y-257432000D02*
X183665476Y-257508190D01*
X183665476Y-257508190D02*
X183627381Y-257584380D01*
X183627381Y-257584380D02*
X183589285Y-257736761D01*
X183589285Y-257736761D02*
X183589285Y-257851047D01*
X183589285Y-257851047D02*
X183627381Y-258003428D01*
X183627381Y-258003428D02*
X183665476Y-258079619D01*
X183665476Y-258079619D02*
X183741666Y-258155809D01*
X183741666Y-258155809D02*
X183855952Y-258193904D01*
X183855952Y-258193904D02*
X184046428Y-258193904D01*
X182865476Y-257393904D02*
X183246428Y-257393904D01*
X183246428Y-257393904D02*
X183284524Y-257774857D01*
X183284524Y-257774857D02*
X183246428Y-257736761D01*
X183246428Y-257736761D02*
X183170238Y-257698666D01*
X183170238Y-257698666D02*
X182979762Y-257698666D01*
X182979762Y-257698666D02*
X182903571Y-257736761D01*
X182903571Y-257736761D02*
X182865476Y-257774857D01*
X182865476Y-257774857D02*
X182827381Y-257851047D01*
X182827381Y-257851047D02*
X182827381Y-258041523D01*
X182827381Y-258041523D02*
X182865476Y-258117714D01*
X182865476Y-258117714D02*
X182903571Y-258155809D01*
X182903571Y-258155809D02*
X182979762Y-258193904D01*
X182979762Y-258193904D02*
X183170238Y-258193904D01*
X183170238Y-258193904D02*
X183246428Y-258155809D01*
X183246428Y-258155809D02*
X183284524Y-258117714D01*
X182560714Y-257393904D02*
X182027380Y-257393904D01*
X182027380Y-257393904D02*
X182370238Y-258193904D01*
%TO.C,D44*%
X145846428Y-239623904D02*
X145846428Y-238823904D01*
X145846428Y-238823904D02*
X145655952Y-238823904D01*
X145655952Y-238823904D02*
X145541666Y-238862000D01*
X145541666Y-238862000D02*
X145465476Y-238938190D01*
X145465476Y-238938190D02*
X145427381Y-239014380D01*
X145427381Y-239014380D02*
X145389285Y-239166761D01*
X145389285Y-239166761D02*
X145389285Y-239281047D01*
X145389285Y-239281047D02*
X145427381Y-239433428D01*
X145427381Y-239433428D02*
X145465476Y-239509619D01*
X145465476Y-239509619D02*
X145541666Y-239585809D01*
X145541666Y-239585809D02*
X145655952Y-239623904D01*
X145655952Y-239623904D02*
X145846428Y-239623904D01*
X144703571Y-239090571D02*
X144703571Y-239623904D01*
X144894047Y-238785809D02*
X145084524Y-239357238D01*
X145084524Y-239357238D02*
X144589285Y-239357238D01*
X143941666Y-239090571D02*
X143941666Y-239623904D01*
X144132142Y-238785809D02*
X144322619Y-239357238D01*
X144322619Y-239357238D02*
X143827380Y-239357238D01*
%TO.C,D20*%
X222056428Y-201313904D02*
X222056428Y-200513904D01*
X222056428Y-200513904D02*
X221865952Y-200513904D01*
X221865952Y-200513904D02*
X221751666Y-200552000D01*
X221751666Y-200552000D02*
X221675476Y-200628190D01*
X221675476Y-200628190D02*
X221637381Y-200704380D01*
X221637381Y-200704380D02*
X221599285Y-200856761D01*
X221599285Y-200856761D02*
X221599285Y-200971047D01*
X221599285Y-200971047D02*
X221637381Y-201123428D01*
X221637381Y-201123428D02*
X221675476Y-201199619D01*
X221675476Y-201199619D02*
X221751666Y-201275809D01*
X221751666Y-201275809D02*
X221865952Y-201313904D01*
X221865952Y-201313904D02*
X222056428Y-201313904D01*
X221294524Y-200590095D02*
X221256428Y-200552000D01*
X221256428Y-200552000D02*
X221180238Y-200513904D01*
X221180238Y-200513904D02*
X220989762Y-200513904D01*
X220989762Y-200513904D02*
X220913571Y-200552000D01*
X220913571Y-200552000D02*
X220875476Y-200590095D01*
X220875476Y-200590095D02*
X220837381Y-200666285D01*
X220837381Y-200666285D02*
X220837381Y-200742476D01*
X220837381Y-200742476D02*
X220875476Y-200856761D01*
X220875476Y-200856761D02*
X221332619Y-201313904D01*
X221332619Y-201313904D02*
X220837381Y-201313904D01*
X220342142Y-200513904D02*
X220265952Y-200513904D01*
X220265952Y-200513904D02*
X220189761Y-200552000D01*
X220189761Y-200552000D02*
X220151666Y-200590095D01*
X220151666Y-200590095D02*
X220113571Y-200666285D01*
X220113571Y-200666285D02*
X220075476Y-200818666D01*
X220075476Y-200818666D02*
X220075476Y-201009142D01*
X220075476Y-201009142D02*
X220113571Y-201161523D01*
X220113571Y-201161523D02*
X220151666Y-201237714D01*
X220151666Y-201237714D02*
X220189761Y-201275809D01*
X220189761Y-201275809D02*
X220265952Y-201313904D01*
X220265952Y-201313904D02*
X220342142Y-201313904D01*
X220342142Y-201313904D02*
X220418333Y-201275809D01*
X220418333Y-201275809D02*
X220456428Y-201237714D01*
X220456428Y-201237714D02*
X220494523Y-201161523D01*
X220494523Y-201161523D02*
X220532619Y-201009142D01*
X220532619Y-201009142D02*
X220532619Y-200818666D01*
X220532619Y-200818666D02*
X220494523Y-200666285D01*
X220494523Y-200666285D02*
X220456428Y-200590095D01*
X220456428Y-200590095D02*
X220418333Y-200552000D01*
X220418333Y-200552000D02*
X220342142Y-200513904D01*
D11*
%TO.C,SW49*%
X239934523Y-227589761D02*
X239791666Y-227637380D01*
X239791666Y-227637380D02*
X239553571Y-227637380D01*
X239553571Y-227637380D02*
X239458333Y-227589761D01*
X239458333Y-227589761D02*
X239410714Y-227542142D01*
X239410714Y-227542142D02*
X239363095Y-227446904D01*
X239363095Y-227446904D02*
X239363095Y-227351666D01*
X239363095Y-227351666D02*
X239410714Y-227256428D01*
X239410714Y-227256428D02*
X239458333Y-227208809D01*
X239458333Y-227208809D02*
X239553571Y-227161190D01*
X239553571Y-227161190D02*
X239744047Y-227113571D01*
X239744047Y-227113571D02*
X239839285Y-227065952D01*
X239839285Y-227065952D02*
X239886904Y-227018333D01*
X239886904Y-227018333D02*
X239934523Y-226923095D01*
X239934523Y-226923095D02*
X239934523Y-226827857D01*
X239934523Y-226827857D02*
X239886904Y-226732619D01*
X239886904Y-226732619D02*
X239839285Y-226685000D01*
X239839285Y-226685000D02*
X239744047Y-226637380D01*
X239744047Y-226637380D02*
X239505952Y-226637380D01*
X239505952Y-226637380D02*
X239363095Y-226685000D01*
X239029761Y-226637380D02*
X238791666Y-227637380D01*
X238791666Y-227637380D02*
X238601190Y-226923095D01*
X238601190Y-226923095D02*
X238410714Y-227637380D01*
X238410714Y-227637380D02*
X238172619Y-226637380D01*
X237363095Y-226970714D02*
X237363095Y-227637380D01*
X237601190Y-226589761D02*
X237839285Y-227304047D01*
X237839285Y-227304047D02*
X237220238Y-227304047D01*
X236791666Y-227637380D02*
X236601190Y-227637380D01*
X236601190Y-227637380D02*
X236505952Y-227589761D01*
X236505952Y-227589761D02*
X236458333Y-227542142D01*
X236458333Y-227542142D02*
X236363095Y-227399285D01*
X236363095Y-227399285D02*
X236315476Y-227208809D01*
X236315476Y-227208809D02*
X236315476Y-226827857D01*
X236315476Y-226827857D02*
X236363095Y-226732619D01*
X236363095Y-226732619D02*
X236410714Y-226685000D01*
X236410714Y-226685000D02*
X236505952Y-226637380D01*
X236505952Y-226637380D02*
X236696428Y-226637380D01*
X236696428Y-226637380D02*
X236791666Y-226685000D01*
X236791666Y-226685000D02*
X236839285Y-226732619D01*
X236839285Y-226732619D02*
X236886904Y-226827857D01*
X236886904Y-226827857D02*
X236886904Y-227065952D01*
X236886904Y-227065952D02*
X236839285Y-227161190D01*
X236839285Y-227161190D02*
X236791666Y-227208809D01*
X236791666Y-227208809D02*
X236696428Y-227256428D01*
X236696428Y-227256428D02*
X236505952Y-227256428D01*
X236505952Y-227256428D02*
X236410714Y-227208809D01*
X236410714Y-227208809D02*
X236363095Y-227161190D01*
X236363095Y-227161190D02*
X236315476Y-227065952D01*
%TO.C,SW21*%
X239934523Y-189489761D02*
X239791666Y-189537380D01*
X239791666Y-189537380D02*
X239553571Y-189537380D01*
X239553571Y-189537380D02*
X239458333Y-189489761D01*
X239458333Y-189489761D02*
X239410714Y-189442142D01*
X239410714Y-189442142D02*
X239363095Y-189346904D01*
X239363095Y-189346904D02*
X239363095Y-189251666D01*
X239363095Y-189251666D02*
X239410714Y-189156428D01*
X239410714Y-189156428D02*
X239458333Y-189108809D01*
X239458333Y-189108809D02*
X239553571Y-189061190D01*
X239553571Y-189061190D02*
X239744047Y-189013571D01*
X239744047Y-189013571D02*
X239839285Y-188965952D01*
X239839285Y-188965952D02*
X239886904Y-188918333D01*
X239886904Y-188918333D02*
X239934523Y-188823095D01*
X239934523Y-188823095D02*
X239934523Y-188727857D01*
X239934523Y-188727857D02*
X239886904Y-188632619D01*
X239886904Y-188632619D02*
X239839285Y-188585000D01*
X239839285Y-188585000D02*
X239744047Y-188537380D01*
X239744047Y-188537380D02*
X239505952Y-188537380D01*
X239505952Y-188537380D02*
X239363095Y-188585000D01*
X239029761Y-188537380D02*
X238791666Y-189537380D01*
X238791666Y-189537380D02*
X238601190Y-188823095D01*
X238601190Y-188823095D02*
X238410714Y-189537380D01*
X238410714Y-189537380D02*
X238172619Y-188537380D01*
X237839285Y-188632619D02*
X237791666Y-188585000D01*
X237791666Y-188585000D02*
X237696428Y-188537380D01*
X237696428Y-188537380D02*
X237458333Y-188537380D01*
X237458333Y-188537380D02*
X237363095Y-188585000D01*
X237363095Y-188585000D02*
X237315476Y-188632619D01*
X237315476Y-188632619D02*
X237267857Y-188727857D01*
X237267857Y-188727857D02*
X237267857Y-188823095D01*
X237267857Y-188823095D02*
X237315476Y-188965952D01*
X237315476Y-188965952D02*
X237886904Y-189537380D01*
X237886904Y-189537380D02*
X237267857Y-189537380D01*
X236315476Y-189537380D02*
X236886904Y-189537380D01*
X236601190Y-189537380D02*
X236601190Y-188537380D01*
X236601190Y-188537380D02*
X236696428Y-188680238D01*
X236696428Y-188680238D02*
X236791666Y-188775476D01*
X236791666Y-188775476D02*
X236886904Y-188823095D01*
D12*
%TO.C,D30*%
X145846428Y-220443904D02*
X145846428Y-219643904D01*
X145846428Y-219643904D02*
X145655952Y-219643904D01*
X145655952Y-219643904D02*
X145541666Y-219682000D01*
X145541666Y-219682000D02*
X145465476Y-219758190D01*
X145465476Y-219758190D02*
X145427381Y-219834380D01*
X145427381Y-219834380D02*
X145389285Y-219986761D01*
X145389285Y-219986761D02*
X145389285Y-220101047D01*
X145389285Y-220101047D02*
X145427381Y-220253428D01*
X145427381Y-220253428D02*
X145465476Y-220329619D01*
X145465476Y-220329619D02*
X145541666Y-220405809D01*
X145541666Y-220405809D02*
X145655952Y-220443904D01*
X145655952Y-220443904D02*
X145846428Y-220443904D01*
X145122619Y-219643904D02*
X144627381Y-219643904D01*
X144627381Y-219643904D02*
X144894047Y-219948666D01*
X144894047Y-219948666D02*
X144779762Y-219948666D01*
X144779762Y-219948666D02*
X144703571Y-219986761D01*
X144703571Y-219986761D02*
X144665476Y-220024857D01*
X144665476Y-220024857D02*
X144627381Y-220101047D01*
X144627381Y-220101047D02*
X144627381Y-220291523D01*
X144627381Y-220291523D02*
X144665476Y-220367714D01*
X144665476Y-220367714D02*
X144703571Y-220405809D01*
X144703571Y-220405809D02*
X144779762Y-220443904D01*
X144779762Y-220443904D02*
X145008333Y-220443904D01*
X145008333Y-220443904D02*
X145084524Y-220405809D01*
X145084524Y-220405809D02*
X145122619Y-220367714D01*
X144132142Y-219643904D02*
X144055952Y-219643904D01*
X144055952Y-219643904D02*
X143979761Y-219682000D01*
X143979761Y-219682000D02*
X143941666Y-219720095D01*
X143941666Y-219720095D02*
X143903571Y-219796285D01*
X143903571Y-219796285D02*
X143865476Y-219948666D01*
X143865476Y-219948666D02*
X143865476Y-220139142D01*
X143865476Y-220139142D02*
X143903571Y-220291523D01*
X143903571Y-220291523D02*
X143941666Y-220367714D01*
X143941666Y-220367714D02*
X143979761Y-220405809D01*
X143979761Y-220405809D02*
X144055952Y-220443904D01*
X144055952Y-220443904D02*
X144132142Y-220443904D01*
X144132142Y-220443904D02*
X144208333Y-220405809D01*
X144208333Y-220405809D02*
X144246428Y-220367714D01*
X144246428Y-220367714D02*
X144284523Y-220291523D01*
X144284523Y-220291523D02*
X144322619Y-220139142D01*
X144322619Y-220139142D02*
X144322619Y-219948666D01*
X144322619Y-219948666D02*
X144284523Y-219796285D01*
X144284523Y-219796285D02*
X144246428Y-219720095D01*
X144246428Y-219720095D02*
X144208333Y-219682000D01*
X144208333Y-219682000D02*
X144132142Y-219643904D01*
%TO.C,D49*%
X241131428Y-239223904D02*
X241131428Y-238423904D01*
X241131428Y-238423904D02*
X240940952Y-238423904D01*
X240940952Y-238423904D02*
X240826666Y-238462000D01*
X240826666Y-238462000D02*
X240750476Y-238538190D01*
X240750476Y-238538190D02*
X240712381Y-238614380D01*
X240712381Y-238614380D02*
X240674285Y-238766761D01*
X240674285Y-238766761D02*
X240674285Y-238881047D01*
X240674285Y-238881047D02*
X240712381Y-239033428D01*
X240712381Y-239033428D02*
X240750476Y-239109619D01*
X240750476Y-239109619D02*
X240826666Y-239185809D01*
X240826666Y-239185809D02*
X240940952Y-239223904D01*
X240940952Y-239223904D02*
X241131428Y-239223904D01*
X239988571Y-238690571D02*
X239988571Y-239223904D01*
X240179047Y-238385809D02*
X240369524Y-238957238D01*
X240369524Y-238957238D02*
X239874285Y-238957238D01*
X239531428Y-239223904D02*
X239379047Y-239223904D01*
X239379047Y-239223904D02*
X239302857Y-239185809D01*
X239302857Y-239185809D02*
X239264761Y-239147714D01*
X239264761Y-239147714D02*
X239188571Y-239033428D01*
X239188571Y-239033428D02*
X239150476Y-238881047D01*
X239150476Y-238881047D02*
X239150476Y-238576285D01*
X239150476Y-238576285D02*
X239188571Y-238500095D01*
X239188571Y-238500095D02*
X239226666Y-238462000D01*
X239226666Y-238462000D02*
X239302857Y-238423904D01*
X239302857Y-238423904D02*
X239455238Y-238423904D01*
X239455238Y-238423904D02*
X239531428Y-238462000D01*
X239531428Y-238462000D02*
X239569523Y-238500095D01*
X239569523Y-238500095D02*
X239607619Y-238576285D01*
X239607619Y-238576285D02*
X239607619Y-238766761D01*
X239607619Y-238766761D02*
X239569523Y-238842952D01*
X239569523Y-238842952D02*
X239531428Y-238881047D01*
X239531428Y-238881047D02*
X239455238Y-238919142D01*
X239455238Y-238919142D02*
X239302857Y-238919142D01*
X239302857Y-238919142D02*
X239226666Y-238881047D01*
X239226666Y-238881047D02*
X239188571Y-238842952D01*
X239188571Y-238842952D02*
X239150476Y-238766761D01*
D11*
%TO.C,SW59*%
X220884523Y-246639761D02*
X220741666Y-246687380D01*
X220741666Y-246687380D02*
X220503571Y-246687380D01*
X220503571Y-246687380D02*
X220408333Y-246639761D01*
X220408333Y-246639761D02*
X220360714Y-246592142D01*
X220360714Y-246592142D02*
X220313095Y-246496904D01*
X220313095Y-246496904D02*
X220313095Y-246401666D01*
X220313095Y-246401666D02*
X220360714Y-246306428D01*
X220360714Y-246306428D02*
X220408333Y-246258809D01*
X220408333Y-246258809D02*
X220503571Y-246211190D01*
X220503571Y-246211190D02*
X220694047Y-246163571D01*
X220694047Y-246163571D02*
X220789285Y-246115952D01*
X220789285Y-246115952D02*
X220836904Y-246068333D01*
X220836904Y-246068333D02*
X220884523Y-245973095D01*
X220884523Y-245973095D02*
X220884523Y-245877857D01*
X220884523Y-245877857D02*
X220836904Y-245782619D01*
X220836904Y-245782619D02*
X220789285Y-245735000D01*
X220789285Y-245735000D02*
X220694047Y-245687380D01*
X220694047Y-245687380D02*
X220455952Y-245687380D01*
X220455952Y-245687380D02*
X220313095Y-245735000D01*
X219979761Y-245687380D02*
X219741666Y-246687380D01*
X219741666Y-246687380D02*
X219551190Y-245973095D01*
X219551190Y-245973095D02*
X219360714Y-246687380D01*
X219360714Y-246687380D02*
X219122619Y-245687380D01*
X218265476Y-245687380D02*
X218741666Y-245687380D01*
X218741666Y-245687380D02*
X218789285Y-246163571D01*
X218789285Y-246163571D02*
X218741666Y-246115952D01*
X218741666Y-246115952D02*
X218646428Y-246068333D01*
X218646428Y-246068333D02*
X218408333Y-246068333D01*
X218408333Y-246068333D02*
X218313095Y-246115952D01*
X218313095Y-246115952D02*
X218265476Y-246163571D01*
X218265476Y-246163571D02*
X218217857Y-246258809D01*
X218217857Y-246258809D02*
X218217857Y-246496904D01*
X218217857Y-246496904D02*
X218265476Y-246592142D01*
X218265476Y-246592142D02*
X218313095Y-246639761D01*
X218313095Y-246639761D02*
X218408333Y-246687380D01*
X218408333Y-246687380D02*
X218646428Y-246687380D01*
X218646428Y-246687380D02*
X218741666Y-246639761D01*
X218741666Y-246639761D02*
X218789285Y-246592142D01*
X217741666Y-246687380D02*
X217551190Y-246687380D01*
X217551190Y-246687380D02*
X217455952Y-246639761D01*
X217455952Y-246639761D02*
X217408333Y-246592142D01*
X217408333Y-246592142D02*
X217313095Y-246449285D01*
X217313095Y-246449285D02*
X217265476Y-246258809D01*
X217265476Y-246258809D02*
X217265476Y-245877857D01*
X217265476Y-245877857D02*
X217313095Y-245782619D01*
X217313095Y-245782619D02*
X217360714Y-245735000D01*
X217360714Y-245735000D02*
X217455952Y-245687380D01*
X217455952Y-245687380D02*
X217646428Y-245687380D01*
X217646428Y-245687380D02*
X217741666Y-245735000D01*
X217741666Y-245735000D02*
X217789285Y-245782619D01*
X217789285Y-245782619D02*
X217836904Y-245877857D01*
X217836904Y-245877857D02*
X217836904Y-246115952D01*
X217836904Y-246115952D02*
X217789285Y-246211190D01*
X217789285Y-246211190D02*
X217741666Y-246258809D01*
X217741666Y-246258809D02*
X217646428Y-246306428D01*
X217646428Y-246306428D02*
X217455952Y-246306428D01*
X217455952Y-246306428D02*
X217360714Y-246258809D01*
X217360714Y-246258809D02*
X217313095Y-246211190D01*
X217313095Y-246211190D02*
X217265476Y-246115952D01*
D12*
%TO.C,D3*%
X164615475Y-181993904D02*
X164615475Y-181193904D01*
X164615475Y-181193904D02*
X164424999Y-181193904D01*
X164424999Y-181193904D02*
X164310713Y-181232000D01*
X164310713Y-181232000D02*
X164234523Y-181308190D01*
X164234523Y-181308190D02*
X164196428Y-181384380D01*
X164196428Y-181384380D02*
X164158332Y-181536761D01*
X164158332Y-181536761D02*
X164158332Y-181651047D01*
X164158332Y-181651047D02*
X164196428Y-181803428D01*
X164196428Y-181803428D02*
X164234523Y-181879619D01*
X164234523Y-181879619D02*
X164310713Y-181955809D01*
X164310713Y-181955809D02*
X164424999Y-181993904D01*
X164424999Y-181993904D02*
X164615475Y-181993904D01*
X163891666Y-181193904D02*
X163396428Y-181193904D01*
X163396428Y-181193904D02*
X163663094Y-181498666D01*
X163663094Y-181498666D02*
X163548809Y-181498666D01*
X163548809Y-181498666D02*
X163472618Y-181536761D01*
X163472618Y-181536761D02*
X163434523Y-181574857D01*
X163434523Y-181574857D02*
X163396428Y-181651047D01*
X163396428Y-181651047D02*
X163396428Y-181841523D01*
X163396428Y-181841523D02*
X163434523Y-181917714D01*
X163434523Y-181917714D02*
X163472618Y-181955809D01*
X163472618Y-181955809D02*
X163548809Y-181993904D01*
X163548809Y-181993904D02*
X163777380Y-181993904D01*
X163777380Y-181993904D02*
X163853571Y-181955809D01*
X163853571Y-181955809D02*
X163891666Y-181917714D01*
D11*
%TO.C,SW32*%
X182784523Y-208539761D02*
X182641666Y-208587380D01*
X182641666Y-208587380D02*
X182403571Y-208587380D01*
X182403571Y-208587380D02*
X182308333Y-208539761D01*
X182308333Y-208539761D02*
X182260714Y-208492142D01*
X182260714Y-208492142D02*
X182213095Y-208396904D01*
X182213095Y-208396904D02*
X182213095Y-208301666D01*
X182213095Y-208301666D02*
X182260714Y-208206428D01*
X182260714Y-208206428D02*
X182308333Y-208158809D01*
X182308333Y-208158809D02*
X182403571Y-208111190D01*
X182403571Y-208111190D02*
X182594047Y-208063571D01*
X182594047Y-208063571D02*
X182689285Y-208015952D01*
X182689285Y-208015952D02*
X182736904Y-207968333D01*
X182736904Y-207968333D02*
X182784523Y-207873095D01*
X182784523Y-207873095D02*
X182784523Y-207777857D01*
X182784523Y-207777857D02*
X182736904Y-207682619D01*
X182736904Y-207682619D02*
X182689285Y-207635000D01*
X182689285Y-207635000D02*
X182594047Y-207587380D01*
X182594047Y-207587380D02*
X182355952Y-207587380D01*
X182355952Y-207587380D02*
X182213095Y-207635000D01*
X181879761Y-207587380D02*
X181641666Y-208587380D01*
X181641666Y-208587380D02*
X181451190Y-207873095D01*
X181451190Y-207873095D02*
X181260714Y-208587380D01*
X181260714Y-208587380D02*
X181022619Y-207587380D01*
X180736904Y-207587380D02*
X180117857Y-207587380D01*
X180117857Y-207587380D02*
X180451190Y-207968333D01*
X180451190Y-207968333D02*
X180308333Y-207968333D01*
X180308333Y-207968333D02*
X180213095Y-208015952D01*
X180213095Y-208015952D02*
X180165476Y-208063571D01*
X180165476Y-208063571D02*
X180117857Y-208158809D01*
X180117857Y-208158809D02*
X180117857Y-208396904D01*
X180117857Y-208396904D02*
X180165476Y-208492142D01*
X180165476Y-208492142D02*
X180213095Y-208539761D01*
X180213095Y-208539761D02*
X180308333Y-208587380D01*
X180308333Y-208587380D02*
X180594047Y-208587380D01*
X180594047Y-208587380D02*
X180689285Y-208539761D01*
X180689285Y-208539761D02*
X180736904Y-208492142D01*
X179736904Y-207682619D02*
X179689285Y-207635000D01*
X179689285Y-207635000D02*
X179594047Y-207587380D01*
X179594047Y-207587380D02*
X179355952Y-207587380D01*
X179355952Y-207587380D02*
X179260714Y-207635000D01*
X179260714Y-207635000D02*
X179213095Y-207682619D01*
X179213095Y-207682619D02*
X179165476Y-207777857D01*
X179165476Y-207777857D02*
X179165476Y-207873095D01*
X179165476Y-207873095D02*
X179213095Y-208015952D01*
X179213095Y-208015952D02*
X179784523Y-208587380D01*
X179784523Y-208587380D02*
X179165476Y-208587380D01*
%TO.C,SW4*%
X182308332Y-170439761D02*
X182165475Y-170487380D01*
X182165475Y-170487380D02*
X181927380Y-170487380D01*
X181927380Y-170487380D02*
X181832142Y-170439761D01*
X181832142Y-170439761D02*
X181784523Y-170392142D01*
X181784523Y-170392142D02*
X181736904Y-170296904D01*
X181736904Y-170296904D02*
X181736904Y-170201666D01*
X181736904Y-170201666D02*
X181784523Y-170106428D01*
X181784523Y-170106428D02*
X181832142Y-170058809D01*
X181832142Y-170058809D02*
X181927380Y-170011190D01*
X181927380Y-170011190D02*
X182117856Y-169963571D01*
X182117856Y-169963571D02*
X182213094Y-169915952D01*
X182213094Y-169915952D02*
X182260713Y-169868333D01*
X182260713Y-169868333D02*
X182308332Y-169773095D01*
X182308332Y-169773095D02*
X182308332Y-169677857D01*
X182308332Y-169677857D02*
X182260713Y-169582619D01*
X182260713Y-169582619D02*
X182213094Y-169535000D01*
X182213094Y-169535000D02*
X182117856Y-169487380D01*
X182117856Y-169487380D02*
X181879761Y-169487380D01*
X181879761Y-169487380D02*
X181736904Y-169535000D01*
X181403570Y-169487380D02*
X181165475Y-170487380D01*
X181165475Y-170487380D02*
X180974999Y-169773095D01*
X180974999Y-169773095D02*
X180784523Y-170487380D01*
X180784523Y-170487380D02*
X180546428Y-169487380D01*
X179736904Y-169820714D02*
X179736904Y-170487380D01*
X179974999Y-169439761D02*
X180213094Y-170154047D01*
X180213094Y-170154047D02*
X179594047Y-170154047D01*
D12*
%TO.C,D47*%
X202986428Y-238973904D02*
X202986428Y-238173904D01*
X202986428Y-238173904D02*
X202795952Y-238173904D01*
X202795952Y-238173904D02*
X202681666Y-238212000D01*
X202681666Y-238212000D02*
X202605476Y-238288190D01*
X202605476Y-238288190D02*
X202567381Y-238364380D01*
X202567381Y-238364380D02*
X202529285Y-238516761D01*
X202529285Y-238516761D02*
X202529285Y-238631047D01*
X202529285Y-238631047D02*
X202567381Y-238783428D01*
X202567381Y-238783428D02*
X202605476Y-238859619D01*
X202605476Y-238859619D02*
X202681666Y-238935809D01*
X202681666Y-238935809D02*
X202795952Y-238973904D01*
X202795952Y-238973904D02*
X202986428Y-238973904D01*
X201843571Y-238440571D02*
X201843571Y-238973904D01*
X202034047Y-238135809D02*
X202224524Y-238707238D01*
X202224524Y-238707238D02*
X201729285Y-238707238D01*
X201500714Y-238173904D02*
X200967380Y-238173904D01*
X200967380Y-238173904D02*
X201310238Y-238973904D01*
%TO.C,D29*%
X126796428Y-220443904D02*
X126796428Y-219643904D01*
X126796428Y-219643904D02*
X126605952Y-219643904D01*
X126605952Y-219643904D02*
X126491666Y-219682000D01*
X126491666Y-219682000D02*
X126415476Y-219758190D01*
X126415476Y-219758190D02*
X126377381Y-219834380D01*
X126377381Y-219834380D02*
X126339285Y-219986761D01*
X126339285Y-219986761D02*
X126339285Y-220101047D01*
X126339285Y-220101047D02*
X126377381Y-220253428D01*
X126377381Y-220253428D02*
X126415476Y-220329619D01*
X126415476Y-220329619D02*
X126491666Y-220405809D01*
X126491666Y-220405809D02*
X126605952Y-220443904D01*
X126605952Y-220443904D02*
X126796428Y-220443904D01*
X126034524Y-219720095D02*
X125996428Y-219682000D01*
X125996428Y-219682000D02*
X125920238Y-219643904D01*
X125920238Y-219643904D02*
X125729762Y-219643904D01*
X125729762Y-219643904D02*
X125653571Y-219682000D01*
X125653571Y-219682000D02*
X125615476Y-219720095D01*
X125615476Y-219720095D02*
X125577381Y-219796285D01*
X125577381Y-219796285D02*
X125577381Y-219872476D01*
X125577381Y-219872476D02*
X125615476Y-219986761D01*
X125615476Y-219986761D02*
X126072619Y-220443904D01*
X126072619Y-220443904D02*
X125577381Y-220443904D01*
X125196428Y-220443904D02*
X125044047Y-220443904D01*
X125044047Y-220443904D02*
X124967857Y-220405809D01*
X124967857Y-220405809D02*
X124929761Y-220367714D01*
X124929761Y-220367714D02*
X124853571Y-220253428D01*
X124853571Y-220253428D02*
X124815476Y-220101047D01*
X124815476Y-220101047D02*
X124815476Y-219796285D01*
X124815476Y-219796285D02*
X124853571Y-219720095D01*
X124853571Y-219720095D02*
X124891666Y-219682000D01*
X124891666Y-219682000D02*
X124967857Y-219643904D01*
X124967857Y-219643904D02*
X125120238Y-219643904D01*
X125120238Y-219643904D02*
X125196428Y-219682000D01*
X125196428Y-219682000D02*
X125234523Y-219720095D01*
X125234523Y-219720095D02*
X125272619Y-219796285D01*
X125272619Y-219796285D02*
X125272619Y-219986761D01*
X125272619Y-219986761D02*
X125234523Y-220062952D01*
X125234523Y-220062952D02*
X125196428Y-220101047D01*
X125196428Y-220101047D02*
X125120238Y-220139142D01*
X125120238Y-220139142D02*
X124967857Y-220139142D01*
X124967857Y-220139142D02*
X124891666Y-220101047D01*
X124891666Y-220101047D02*
X124853571Y-220062952D01*
X124853571Y-220062952D02*
X124815476Y-219986761D01*
%TO.C,D45*%
X164996428Y-239623904D02*
X164996428Y-238823904D01*
X164996428Y-238823904D02*
X164805952Y-238823904D01*
X164805952Y-238823904D02*
X164691666Y-238862000D01*
X164691666Y-238862000D02*
X164615476Y-238938190D01*
X164615476Y-238938190D02*
X164577381Y-239014380D01*
X164577381Y-239014380D02*
X164539285Y-239166761D01*
X164539285Y-239166761D02*
X164539285Y-239281047D01*
X164539285Y-239281047D02*
X164577381Y-239433428D01*
X164577381Y-239433428D02*
X164615476Y-239509619D01*
X164615476Y-239509619D02*
X164691666Y-239585809D01*
X164691666Y-239585809D02*
X164805952Y-239623904D01*
X164805952Y-239623904D02*
X164996428Y-239623904D01*
X163853571Y-239090571D02*
X163853571Y-239623904D01*
X164044047Y-238785809D02*
X164234524Y-239357238D01*
X164234524Y-239357238D02*
X163739285Y-239357238D01*
X163053571Y-238823904D02*
X163434523Y-238823904D01*
X163434523Y-238823904D02*
X163472619Y-239204857D01*
X163472619Y-239204857D02*
X163434523Y-239166761D01*
X163434523Y-239166761D02*
X163358333Y-239128666D01*
X163358333Y-239128666D02*
X163167857Y-239128666D01*
X163167857Y-239128666D02*
X163091666Y-239166761D01*
X163091666Y-239166761D02*
X163053571Y-239204857D01*
X163053571Y-239204857D02*
X163015476Y-239281047D01*
X163015476Y-239281047D02*
X163015476Y-239471523D01*
X163015476Y-239471523D02*
X163053571Y-239547714D01*
X163053571Y-239547714D02*
X163091666Y-239585809D01*
X163091666Y-239585809D02*
X163167857Y-239623904D01*
X163167857Y-239623904D02*
X163358333Y-239623904D01*
X163358333Y-239623904D02*
X163434523Y-239585809D01*
X163434523Y-239585809D02*
X163472619Y-239547714D01*
%TO.C,D15*%
X126796428Y-201313904D02*
X126796428Y-200513904D01*
X126796428Y-200513904D02*
X126605952Y-200513904D01*
X126605952Y-200513904D02*
X126491666Y-200552000D01*
X126491666Y-200552000D02*
X126415476Y-200628190D01*
X126415476Y-200628190D02*
X126377381Y-200704380D01*
X126377381Y-200704380D02*
X126339285Y-200856761D01*
X126339285Y-200856761D02*
X126339285Y-200971047D01*
X126339285Y-200971047D02*
X126377381Y-201123428D01*
X126377381Y-201123428D02*
X126415476Y-201199619D01*
X126415476Y-201199619D02*
X126491666Y-201275809D01*
X126491666Y-201275809D02*
X126605952Y-201313904D01*
X126605952Y-201313904D02*
X126796428Y-201313904D01*
X125577381Y-201313904D02*
X126034524Y-201313904D01*
X125805952Y-201313904D02*
X125805952Y-200513904D01*
X125805952Y-200513904D02*
X125882143Y-200628190D01*
X125882143Y-200628190D02*
X125958333Y-200704380D01*
X125958333Y-200704380D02*
X126034524Y-200742476D01*
X124853571Y-200513904D02*
X125234523Y-200513904D01*
X125234523Y-200513904D02*
X125272619Y-200894857D01*
X125272619Y-200894857D02*
X125234523Y-200856761D01*
X125234523Y-200856761D02*
X125158333Y-200818666D01*
X125158333Y-200818666D02*
X124967857Y-200818666D01*
X124967857Y-200818666D02*
X124891666Y-200856761D01*
X124891666Y-200856761D02*
X124853571Y-200894857D01*
X124853571Y-200894857D02*
X124815476Y-200971047D01*
X124815476Y-200971047D02*
X124815476Y-201161523D01*
X124815476Y-201161523D02*
X124853571Y-201237714D01*
X124853571Y-201237714D02*
X124891666Y-201275809D01*
X124891666Y-201275809D02*
X124967857Y-201313904D01*
X124967857Y-201313904D02*
X125158333Y-201313904D01*
X125158333Y-201313904D02*
X125234523Y-201275809D01*
X125234523Y-201275809D02*
X125272619Y-201237714D01*
%TO.C,D1*%
X126415475Y-181993904D02*
X126415475Y-181193904D01*
X126415475Y-181193904D02*
X126224999Y-181193904D01*
X126224999Y-181193904D02*
X126110713Y-181232000D01*
X126110713Y-181232000D02*
X126034523Y-181308190D01*
X126034523Y-181308190D02*
X125996428Y-181384380D01*
X125996428Y-181384380D02*
X125958332Y-181536761D01*
X125958332Y-181536761D02*
X125958332Y-181651047D01*
X125958332Y-181651047D02*
X125996428Y-181803428D01*
X125996428Y-181803428D02*
X126034523Y-181879619D01*
X126034523Y-181879619D02*
X126110713Y-181955809D01*
X126110713Y-181955809D02*
X126224999Y-181993904D01*
X126224999Y-181993904D02*
X126415475Y-181993904D01*
X125196428Y-181993904D02*
X125653571Y-181993904D01*
X125424999Y-181993904D02*
X125424999Y-181193904D01*
X125424999Y-181193904D02*
X125501190Y-181308190D01*
X125501190Y-181308190D02*
X125577380Y-181384380D01*
X125577380Y-181384380D02*
X125653571Y-181422476D01*
D11*
%TO.C,SW5*%
X201358332Y-170439761D02*
X201215475Y-170487380D01*
X201215475Y-170487380D02*
X200977380Y-170487380D01*
X200977380Y-170487380D02*
X200882142Y-170439761D01*
X200882142Y-170439761D02*
X200834523Y-170392142D01*
X200834523Y-170392142D02*
X200786904Y-170296904D01*
X200786904Y-170296904D02*
X200786904Y-170201666D01*
X200786904Y-170201666D02*
X200834523Y-170106428D01*
X200834523Y-170106428D02*
X200882142Y-170058809D01*
X200882142Y-170058809D02*
X200977380Y-170011190D01*
X200977380Y-170011190D02*
X201167856Y-169963571D01*
X201167856Y-169963571D02*
X201263094Y-169915952D01*
X201263094Y-169915952D02*
X201310713Y-169868333D01*
X201310713Y-169868333D02*
X201358332Y-169773095D01*
X201358332Y-169773095D02*
X201358332Y-169677857D01*
X201358332Y-169677857D02*
X201310713Y-169582619D01*
X201310713Y-169582619D02*
X201263094Y-169535000D01*
X201263094Y-169535000D02*
X201167856Y-169487380D01*
X201167856Y-169487380D02*
X200929761Y-169487380D01*
X200929761Y-169487380D02*
X200786904Y-169535000D01*
X200453570Y-169487380D02*
X200215475Y-170487380D01*
X200215475Y-170487380D02*
X200024999Y-169773095D01*
X200024999Y-169773095D02*
X199834523Y-170487380D01*
X199834523Y-170487380D02*
X199596428Y-169487380D01*
X198739285Y-169487380D02*
X199215475Y-169487380D01*
X199215475Y-169487380D02*
X199263094Y-169963571D01*
X199263094Y-169963571D02*
X199215475Y-169915952D01*
X199215475Y-169915952D02*
X199120237Y-169868333D01*
X199120237Y-169868333D02*
X198882142Y-169868333D01*
X198882142Y-169868333D02*
X198786904Y-169915952D01*
X198786904Y-169915952D02*
X198739285Y-169963571D01*
X198739285Y-169963571D02*
X198691666Y-170058809D01*
X198691666Y-170058809D02*
X198691666Y-170296904D01*
X198691666Y-170296904D02*
X198739285Y-170392142D01*
X198739285Y-170392142D02*
X198786904Y-170439761D01*
X198786904Y-170439761D02*
X198882142Y-170487380D01*
X198882142Y-170487380D02*
X199120237Y-170487380D01*
X199120237Y-170487380D02*
X199215475Y-170439761D01*
X199215475Y-170439761D02*
X199263094Y-170392142D01*
%TO.C,U1*%
X140907380Y-250473095D02*
X141716904Y-250473095D01*
X141716904Y-250473095D02*
X141812142Y-250520714D01*
X141812142Y-250520714D02*
X141859761Y-250568333D01*
X141859761Y-250568333D02*
X141907380Y-250663571D01*
X141907380Y-250663571D02*
X141907380Y-250854047D01*
X141907380Y-250854047D02*
X141859761Y-250949285D01*
X141859761Y-250949285D02*
X141812142Y-250996904D01*
X141812142Y-250996904D02*
X141716904Y-251044523D01*
X141716904Y-251044523D02*
X140907380Y-251044523D01*
X141907380Y-252044523D02*
X141907380Y-251473095D01*
X141907380Y-251758809D02*
X140907380Y-251758809D01*
X140907380Y-251758809D02*
X141050238Y-251663571D01*
X141050238Y-251663571D02*
X141145476Y-251568333D01*
X141145476Y-251568333D02*
X141193095Y-251473095D01*
X167995809Y-243725475D02*
X168033904Y-243839761D01*
X168033904Y-243839761D02*
X168033904Y-244030237D01*
X168033904Y-244030237D02*
X167995809Y-244106428D01*
X167995809Y-244106428D02*
X167957714Y-244144523D01*
X167957714Y-244144523D02*
X167881523Y-244182618D01*
X167881523Y-244182618D02*
X167805333Y-244182618D01*
X167805333Y-244182618D02*
X167729142Y-244144523D01*
X167729142Y-244144523D02*
X167691047Y-244106428D01*
X167691047Y-244106428D02*
X167652952Y-244030237D01*
X167652952Y-244030237D02*
X167614857Y-243877856D01*
X167614857Y-243877856D02*
X167576761Y-243801666D01*
X167576761Y-243801666D02*
X167538666Y-243763571D01*
X167538666Y-243763571D02*
X167462476Y-243725475D01*
X167462476Y-243725475D02*
X167386285Y-243725475D01*
X167386285Y-243725475D02*
X167310095Y-243763571D01*
X167310095Y-243763571D02*
X167272000Y-243801666D01*
X167272000Y-243801666D02*
X167233904Y-243877856D01*
X167233904Y-243877856D02*
X167233904Y-244068333D01*
X167233904Y-244068333D02*
X167272000Y-244182618D01*
X167233904Y-244449285D02*
X168033904Y-244639761D01*
X168033904Y-244639761D02*
X167462476Y-244792142D01*
X167462476Y-244792142D02*
X168033904Y-244944523D01*
X168033904Y-244944523D02*
X167233904Y-245135000D01*
X167957714Y-245896905D02*
X167995809Y-245858809D01*
X167995809Y-245858809D02*
X168033904Y-245744524D01*
X168033904Y-245744524D02*
X168033904Y-245668333D01*
X168033904Y-245668333D02*
X167995809Y-245554047D01*
X167995809Y-245554047D02*
X167919619Y-245477857D01*
X167919619Y-245477857D02*
X167843428Y-245439762D01*
X167843428Y-245439762D02*
X167691047Y-245401666D01*
X167691047Y-245401666D02*
X167576761Y-245401666D01*
X167576761Y-245401666D02*
X167424380Y-245439762D01*
X167424380Y-245439762D02*
X167348190Y-245477857D01*
X167348190Y-245477857D02*
X167272000Y-245554047D01*
X167272000Y-245554047D02*
X167233904Y-245668333D01*
X167233904Y-245668333D02*
X167233904Y-245744524D01*
X167233904Y-245744524D02*
X167272000Y-245858809D01*
X167272000Y-245858809D02*
X167310095Y-245896905D01*
X168033904Y-246620714D02*
X168033904Y-246239762D01*
X168033904Y-246239762D02*
X167233904Y-246239762D01*
X168033904Y-246887381D02*
X167233904Y-246887381D01*
X168033904Y-247344524D02*
X167576761Y-247001666D01*
X167233904Y-247344524D02*
X167691047Y-246887381D01*
X167995809Y-255139761D02*
X168033904Y-255254047D01*
X168033904Y-255254047D02*
X168033904Y-255444523D01*
X168033904Y-255444523D02*
X167995809Y-255520714D01*
X167995809Y-255520714D02*
X167957714Y-255558809D01*
X167957714Y-255558809D02*
X167881523Y-255596904D01*
X167881523Y-255596904D02*
X167805333Y-255596904D01*
X167805333Y-255596904D02*
X167729142Y-255558809D01*
X167729142Y-255558809D02*
X167691047Y-255520714D01*
X167691047Y-255520714D02*
X167652952Y-255444523D01*
X167652952Y-255444523D02*
X167614857Y-255292142D01*
X167614857Y-255292142D02*
X167576761Y-255215952D01*
X167576761Y-255215952D02*
X167538666Y-255177857D01*
X167538666Y-255177857D02*
X167462476Y-255139761D01*
X167462476Y-255139761D02*
X167386285Y-255139761D01*
X167386285Y-255139761D02*
X167310095Y-255177857D01*
X167310095Y-255177857D02*
X167272000Y-255215952D01*
X167272000Y-255215952D02*
X167233904Y-255292142D01*
X167233904Y-255292142D02*
X167233904Y-255482619D01*
X167233904Y-255482619D02*
X167272000Y-255596904D01*
X167233904Y-255863571D02*
X168033904Y-256054047D01*
X168033904Y-256054047D02*
X167462476Y-256206428D01*
X167462476Y-256206428D02*
X168033904Y-256358809D01*
X168033904Y-256358809D02*
X167233904Y-256549286D01*
X168033904Y-256854048D02*
X167233904Y-256854048D01*
X167233904Y-256854048D02*
X167233904Y-257044524D01*
X167233904Y-257044524D02*
X167272000Y-257158810D01*
X167272000Y-257158810D02*
X167348190Y-257235000D01*
X167348190Y-257235000D02*
X167424380Y-257273095D01*
X167424380Y-257273095D02*
X167576761Y-257311191D01*
X167576761Y-257311191D02*
X167691047Y-257311191D01*
X167691047Y-257311191D02*
X167843428Y-257273095D01*
X167843428Y-257273095D02*
X167919619Y-257235000D01*
X167919619Y-257235000D02*
X167995809Y-257158810D01*
X167995809Y-257158810D02*
X168033904Y-257044524D01*
X168033904Y-257044524D02*
X168033904Y-256854048D01*
X168033904Y-257654048D02*
X167233904Y-257654048D01*
X167233904Y-258187381D02*
X167233904Y-258339762D01*
X167233904Y-258339762D02*
X167272000Y-258415952D01*
X167272000Y-258415952D02*
X167348190Y-258492143D01*
X167348190Y-258492143D02*
X167500571Y-258530238D01*
X167500571Y-258530238D02*
X167767238Y-258530238D01*
X167767238Y-258530238D02*
X167919619Y-258492143D01*
X167919619Y-258492143D02*
X167995809Y-258415952D01*
X167995809Y-258415952D02*
X168033904Y-258339762D01*
X168033904Y-258339762D02*
X168033904Y-258187381D01*
X168033904Y-258187381D02*
X167995809Y-258111190D01*
X167995809Y-258111190D02*
X167919619Y-258035000D01*
X167919619Y-258035000D02*
X167767238Y-257996904D01*
X167767238Y-257996904D02*
X167500571Y-257996904D01*
X167500571Y-257996904D02*
X167348190Y-258035000D01*
X167348190Y-258035000D02*
X167272000Y-258111190D01*
X167272000Y-258111190D02*
X167233904Y-258187381D01*
%TO.C,D48*%
X218385000Y-236680000D02*
X218385000Y-238180000D01*
X218385000Y-238180000D02*
X223785000Y-238180000D01*
X220585000Y-236930000D02*
X220585000Y-237930000D01*
X220685000Y-237430000D02*
X221585000Y-236930000D01*
X221585000Y-236930000D02*
X221585000Y-237930000D01*
X221585000Y-237930000D02*
X220685000Y-237430000D01*
X223785000Y-236680000D02*
X218385000Y-236680000D01*
X223785000Y-238180000D02*
X223785000Y-236680000D01*
%TO.C,D19*%
X199315000Y-198870000D02*
X199315000Y-200370000D01*
X199315000Y-200370000D02*
X204715000Y-200370000D01*
X201515000Y-199120000D02*
X201515000Y-200120000D01*
X201615000Y-199620000D02*
X202515000Y-199120000D01*
X202515000Y-199120000D02*
X202515000Y-200120000D01*
X202515000Y-200120000D02*
X201615000Y-199620000D01*
X204715000Y-198870000D02*
X199315000Y-198870000D01*
X204715000Y-200370000D02*
X204715000Y-198870000D01*
%TO.C,D21*%
X237460000Y-198870000D02*
X237460000Y-200370000D01*
X237460000Y-200370000D02*
X242860000Y-200370000D01*
X239660000Y-199120000D02*
X239660000Y-200120000D01*
X239760000Y-199620000D02*
X240660000Y-199120000D01*
X240660000Y-199120000D02*
X240660000Y-200120000D01*
X240660000Y-200120000D02*
X239760000Y-199620000D01*
X242860000Y-198870000D02*
X237460000Y-198870000D01*
X242860000Y-200370000D02*
X242860000Y-198870000D01*
%TO.C,D17*%
X161325000Y-198870000D02*
X161325000Y-200370000D01*
X161325000Y-200370000D02*
X166725000Y-200370000D01*
X163525000Y-199120000D02*
X163525000Y-200120000D01*
X163625000Y-199620000D02*
X164525000Y-199120000D01*
X164525000Y-199120000D02*
X164525000Y-200120000D01*
X164525000Y-200120000D02*
X163625000Y-199620000D01*
X166725000Y-198870000D02*
X161325000Y-198870000D01*
X166725000Y-200370000D02*
X166725000Y-198870000D01*
%TO.C,D16*%
X142175000Y-198870000D02*
X142175000Y-200370000D01*
X142175000Y-200370000D02*
X147575000Y-200370000D01*
X144375000Y-199120000D02*
X144375000Y-200120000D01*
X144475000Y-199620000D02*
X145375000Y-199120000D01*
X145375000Y-199120000D02*
X145375000Y-200120000D01*
X145375000Y-200120000D02*
X144475000Y-199620000D01*
X147575000Y-198870000D02*
X142175000Y-198870000D01*
X147575000Y-200370000D02*
X147575000Y-198870000D01*
%TO.C,D18*%
X180375000Y-198870000D02*
X180375000Y-200370000D01*
X180375000Y-200370000D02*
X185775000Y-200370000D01*
X182575000Y-199120000D02*
X182575000Y-200120000D01*
X182675000Y-199620000D02*
X183575000Y-199120000D01*
X183575000Y-199120000D02*
X183575000Y-200120000D01*
X183575000Y-200120000D02*
X182675000Y-199620000D01*
X185775000Y-198870000D02*
X180375000Y-198870000D01*
X185775000Y-200370000D02*
X185775000Y-198870000D01*
%TO.C,D33*%
X199315000Y-218000000D02*
X199315000Y-219500000D01*
X199315000Y-219500000D02*
X204715000Y-219500000D01*
X201515000Y-218250000D02*
X201515000Y-219250000D01*
X201615000Y-218750000D02*
X202515000Y-218250000D01*
X202515000Y-218250000D02*
X202515000Y-219250000D01*
X202515000Y-219250000D02*
X201615000Y-218750000D01*
X204715000Y-218000000D02*
X199315000Y-218000000D01*
X204715000Y-219500000D02*
X204715000Y-218000000D01*
%TO.C,D60*%
X237460000Y-255750000D02*
X237460000Y-257250000D01*
X237460000Y-257250000D02*
X242860000Y-257250000D01*
X239660000Y-256000000D02*
X239660000Y-257000000D01*
X239760000Y-256500000D02*
X240660000Y-256000000D01*
X240660000Y-256000000D02*
X240660000Y-257000000D01*
X240660000Y-257000000D02*
X239760000Y-256500000D01*
X242860000Y-255750000D02*
X237460000Y-255750000D01*
X242860000Y-257250000D02*
X242860000Y-255750000D01*
%TO.C,D6*%
X218385000Y-179550000D02*
X218385000Y-181050000D01*
X218385000Y-181050000D02*
X223785000Y-181050000D01*
X220585000Y-179800000D02*
X220585000Y-180800000D01*
X220685000Y-180300000D02*
X221585000Y-179800000D01*
X221585000Y-179800000D02*
X221585000Y-180800000D01*
X221585000Y-180800000D02*
X220685000Y-180300000D01*
X223785000Y-179550000D02*
X218385000Y-179550000D01*
X223785000Y-181050000D02*
X223785000Y-179550000D01*
%TO.C,J1*%
X242626500Y-208218750D02*
X242626500Y-202218750D01*
X254626500Y-208218750D02*
X242626500Y-208218750D01*
X242626500Y-202218750D02*
X254626500Y-202218750D01*
X254626500Y-202218750D02*
X254626500Y-208218750D01*
%TO.C,D43*%
X123125000Y-236680000D02*
X123125000Y-238180000D01*
X123125000Y-238180000D02*
X128525000Y-238180000D01*
X125325000Y-236930000D02*
X125325000Y-237930000D01*
X125425000Y-237430000D02*
X126325000Y-236930000D01*
X126325000Y-236930000D02*
X126325000Y-237930000D01*
X126325000Y-237930000D02*
X125425000Y-237430000D01*
X128525000Y-236680000D02*
X123125000Y-236680000D01*
X128525000Y-238180000D02*
X128525000Y-236680000D01*
%TO.C,D58*%
X199315000Y-255750000D02*
X199315000Y-257250000D01*
X199315000Y-257250000D02*
X204715000Y-257250000D01*
X201515000Y-256000000D02*
X201515000Y-257000000D01*
X201615000Y-256500000D02*
X202515000Y-256000000D01*
X202515000Y-256000000D02*
X202515000Y-257000000D01*
X202515000Y-257000000D02*
X201615000Y-256500000D01*
X204715000Y-255750000D02*
X199315000Y-255750000D01*
X204715000Y-257250000D02*
X204715000Y-255750000D01*
%TO.C,D32*%
X180375000Y-218000000D02*
X180375000Y-219500000D01*
X180375000Y-219500000D02*
X185775000Y-219500000D01*
X182575000Y-218250000D02*
X182575000Y-219250000D01*
X182675000Y-218750000D02*
X183575000Y-218250000D01*
X183575000Y-218250000D02*
X183575000Y-219250000D01*
X183575000Y-219250000D02*
X182675000Y-218750000D01*
X185775000Y-218000000D02*
X180375000Y-218000000D01*
X185775000Y-219500000D02*
X185775000Y-218000000D01*
%TO.C,D35*%
X237460000Y-218000000D02*
X237460000Y-219500000D01*
X237460000Y-219500000D02*
X242860000Y-219500000D01*
X239660000Y-218250000D02*
X239660000Y-219250000D01*
X239760000Y-218750000D02*
X240660000Y-218250000D01*
X240660000Y-218250000D02*
X240660000Y-219250000D01*
X240660000Y-219250000D02*
X239760000Y-218750000D01*
X242860000Y-218000000D02*
X237460000Y-218000000D01*
X242860000Y-219500000D02*
X242860000Y-218000000D01*
%TO.C,D46*%
X180375000Y-236680000D02*
X180375000Y-238180000D01*
X180375000Y-238180000D02*
X185775000Y-238180000D01*
X182575000Y-236930000D02*
X182575000Y-237930000D01*
X182675000Y-237430000D02*
X183575000Y-236930000D01*
X183575000Y-236930000D02*
X183575000Y-237930000D01*
X183575000Y-237930000D02*
X182675000Y-237430000D01*
X185775000Y-236680000D02*
X180375000Y-236680000D01*
X185775000Y-238180000D02*
X185775000Y-236680000D01*
%TO.C,D34*%
X218385000Y-218000000D02*
X218385000Y-219500000D01*
X218385000Y-219500000D02*
X223785000Y-219500000D01*
X220585000Y-218250000D02*
X220585000Y-219250000D01*
X220685000Y-218750000D02*
X221585000Y-218250000D01*
X221585000Y-218250000D02*
X221585000Y-219250000D01*
X221585000Y-219250000D02*
X220685000Y-218750000D01*
X223785000Y-218000000D02*
X218385000Y-218000000D01*
X223785000Y-219500000D02*
X223785000Y-218000000D01*
%TO.C,D2*%
X142175000Y-179550000D02*
X142175000Y-181050000D01*
X142175000Y-181050000D02*
X147575000Y-181050000D01*
X144375000Y-179800000D02*
X144375000Y-180800000D01*
X144475000Y-180300000D02*
X145375000Y-179800000D01*
X145375000Y-179800000D02*
X145375000Y-180800000D01*
X145375000Y-180800000D02*
X144475000Y-180300000D01*
X147575000Y-179550000D02*
X142175000Y-179550000D01*
X147575000Y-181050000D02*
X147575000Y-179550000D01*
%TO.C,D31*%
X161325000Y-218000000D02*
X161325000Y-219500000D01*
X161325000Y-219500000D02*
X166725000Y-219500000D01*
X163525000Y-218250000D02*
X163525000Y-219250000D01*
X163625000Y-218750000D02*
X164525000Y-218250000D01*
X164525000Y-218250000D02*
X164525000Y-219250000D01*
X164525000Y-219250000D02*
X163625000Y-218750000D01*
X166725000Y-218000000D02*
X161325000Y-218000000D01*
X166725000Y-219500000D02*
X166725000Y-218000000D01*
%TO.C,D59*%
X218385000Y-255750000D02*
X218385000Y-257250000D01*
X218385000Y-257250000D02*
X223785000Y-257250000D01*
X220585000Y-256000000D02*
X220585000Y-257000000D01*
X220685000Y-256500000D02*
X221585000Y-256000000D01*
X221585000Y-256000000D02*
X221585000Y-257000000D01*
X221585000Y-257000000D02*
X220685000Y-256500000D01*
X223785000Y-255750000D02*
X218385000Y-255750000D01*
X223785000Y-257250000D02*
X223785000Y-255750000D01*
%TO.C,D5*%
X199315000Y-179550000D02*
X199315000Y-181050000D01*
X199315000Y-181050000D02*
X204715000Y-181050000D01*
X201515000Y-179800000D02*
X201515000Y-180800000D01*
X201615000Y-180300000D02*
X202515000Y-179800000D01*
X202515000Y-179800000D02*
X202515000Y-180800000D01*
X202515000Y-180800000D02*
X201615000Y-180300000D01*
X204715000Y-179550000D02*
X199315000Y-179550000D01*
X204715000Y-181050000D02*
X204715000Y-179550000D01*
%TO.C,D4*%
X180375000Y-179550000D02*
X180375000Y-181050000D01*
X180375000Y-181050000D02*
X185775000Y-181050000D01*
X182575000Y-179800000D02*
X182575000Y-180800000D01*
X182675000Y-180300000D02*
X183575000Y-179800000D01*
X183575000Y-179800000D02*
X183575000Y-180800000D01*
X183575000Y-180800000D02*
X182675000Y-180300000D01*
X185775000Y-179550000D02*
X180375000Y-179550000D01*
X185775000Y-181050000D02*
X185775000Y-179550000D01*
%TO.C,D7*%
X237460000Y-179550000D02*
X237460000Y-181050000D01*
X237460000Y-181050000D02*
X242860000Y-181050000D01*
X239660000Y-179800000D02*
X239660000Y-180800000D01*
X239760000Y-180300000D02*
X240660000Y-179800000D01*
X240660000Y-179800000D02*
X240660000Y-180800000D01*
X240660000Y-180800000D02*
X239760000Y-180300000D01*
X242860000Y-179550000D02*
X237460000Y-179550000D01*
X242860000Y-181050000D02*
X242860000Y-179550000D01*
%TO.C,D57*%
X180375000Y-255750000D02*
X180375000Y-257250000D01*
X180375000Y-257250000D02*
X185775000Y-257250000D01*
X182575000Y-256000000D02*
X182575000Y-257000000D01*
X182675000Y-256500000D02*
X183575000Y-256000000D01*
X183575000Y-256000000D02*
X183575000Y-257000000D01*
X183575000Y-257000000D02*
X182675000Y-256500000D01*
X185775000Y-255750000D02*
X180375000Y-255750000D01*
X185775000Y-257250000D02*
X185775000Y-255750000D01*
%TO.C,D44*%
X142175000Y-237080000D02*
X142175000Y-238580000D01*
X142175000Y-238580000D02*
X147575000Y-238580000D01*
X144375000Y-237330000D02*
X144375000Y-238330000D01*
X144475000Y-237830000D02*
X145375000Y-237330000D01*
X145375000Y-237330000D02*
X145375000Y-238330000D01*
X145375000Y-238330000D02*
X144475000Y-237830000D01*
X147575000Y-237080000D02*
X142175000Y-237080000D01*
X147575000Y-238580000D02*
X147575000Y-237080000D01*
%TO.C,D20*%
X218385000Y-198870000D02*
X218385000Y-200370000D01*
X218385000Y-200370000D02*
X223785000Y-200370000D01*
X220585000Y-199120000D02*
X220585000Y-200120000D01*
X220685000Y-199620000D02*
X221585000Y-199120000D01*
X221585000Y-199120000D02*
X221585000Y-200120000D01*
X221585000Y-200120000D02*
X220685000Y-199620000D01*
X223785000Y-198870000D02*
X218385000Y-198870000D01*
X223785000Y-200370000D02*
X223785000Y-198870000D01*
%TO.C,D30*%
X142175000Y-218000000D02*
X142175000Y-219500000D01*
X142175000Y-219500000D02*
X147575000Y-219500000D01*
X144375000Y-218250000D02*
X144375000Y-219250000D01*
X144475000Y-218750000D02*
X145375000Y-218250000D01*
X145375000Y-218250000D02*
X145375000Y-219250000D01*
X145375000Y-219250000D02*
X144475000Y-218750000D01*
X147575000Y-218000000D02*
X142175000Y-218000000D01*
X147575000Y-219500000D02*
X147575000Y-218000000D01*
%TO.C,D49*%
X237460000Y-236680000D02*
X237460000Y-238180000D01*
X237460000Y-238180000D02*
X242860000Y-238180000D01*
X239660000Y-236930000D02*
X239660000Y-237930000D01*
X239760000Y-237430000D02*
X240660000Y-236930000D01*
X240660000Y-236930000D02*
X240660000Y-237930000D01*
X240660000Y-237930000D02*
X239760000Y-237430000D01*
X242860000Y-236680000D02*
X237460000Y-236680000D01*
X242860000Y-238180000D02*
X242860000Y-236680000D01*
%TO.C,D3*%
X161325000Y-179550000D02*
X161325000Y-181050000D01*
X161325000Y-181050000D02*
X166725000Y-181050000D01*
X163525000Y-179800000D02*
X163525000Y-180800000D01*
X163625000Y-180300000D02*
X164525000Y-179800000D01*
X164525000Y-179800000D02*
X164525000Y-180800000D01*
X164525000Y-180800000D02*
X163625000Y-180300000D01*
X166725000Y-179550000D02*
X161325000Y-179550000D01*
X166725000Y-181050000D02*
X166725000Y-179550000D01*
%TO.C,D47*%
X199315000Y-236430000D02*
X199315000Y-237930000D01*
X199315000Y-237930000D02*
X204715000Y-237930000D01*
X201515000Y-236680000D02*
X201515000Y-237680000D01*
X201615000Y-237180000D02*
X202515000Y-236680000D01*
X202515000Y-236680000D02*
X202515000Y-237680000D01*
X202515000Y-237680000D02*
X201615000Y-237180000D01*
X204715000Y-236430000D02*
X199315000Y-236430000D01*
X204715000Y-237930000D02*
X204715000Y-236430000D01*
%TO.C,D29*%
X123125000Y-218000000D02*
X123125000Y-219500000D01*
X123125000Y-219500000D02*
X128525000Y-219500000D01*
X125325000Y-218250000D02*
X125325000Y-219250000D01*
X125425000Y-218750000D02*
X126325000Y-218250000D01*
X126325000Y-218250000D02*
X126325000Y-219250000D01*
X126325000Y-219250000D02*
X125425000Y-218750000D01*
X128525000Y-218000000D02*
X123125000Y-218000000D01*
X128525000Y-219500000D02*
X128525000Y-218000000D01*
%TO.C,D45*%
X161325000Y-237080000D02*
X161325000Y-238580000D01*
X161325000Y-238580000D02*
X166725000Y-238580000D01*
X163525000Y-237330000D02*
X163525000Y-238330000D01*
X163625000Y-237830000D02*
X164525000Y-237330000D01*
X164525000Y-237330000D02*
X164525000Y-238330000D01*
X164525000Y-238330000D02*
X163625000Y-237830000D01*
X166725000Y-237080000D02*
X161325000Y-237080000D01*
X166725000Y-238580000D02*
X166725000Y-237080000D01*
%TO.C,D15*%
X123125000Y-198870000D02*
X123125000Y-200370000D01*
X123125000Y-200370000D02*
X128525000Y-200370000D01*
X125325000Y-199120000D02*
X125325000Y-200120000D01*
X125425000Y-199620000D02*
X126325000Y-199120000D01*
X126325000Y-199120000D02*
X126325000Y-200120000D01*
X126325000Y-200120000D02*
X125425000Y-199620000D01*
X128525000Y-198870000D02*
X123125000Y-198870000D01*
X128525000Y-200370000D02*
X128525000Y-198870000D01*
%TO.C,D1*%
X123125000Y-179550000D02*
X123125000Y-181050000D01*
X123125000Y-181050000D02*
X128525000Y-181050000D01*
X125325000Y-179800000D02*
X125325000Y-180800000D01*
X125425000Y-180300000D02*
X126325000Y-179800000D01*
X126325000Y-179800000D02*
X126325000Y-180800000D01*
X126325000Y-180800000D02*
X125425000Y-180300000D01*
X128525000Y-179550000D02*
X123125000Y-179550000D01*
X128525000Y-181050000D02*
X128525000Y-179550000D01*
D13*
%TO.C,U1*%
X164240000Y-240735000D02*
X164640000Y-240735000D01*
X161640000Y-240735000D02*
X162040000Y-240735000D01*
X159140000Y-240735000D02*
X159540000Y-240735000D01*
X156640000Y-240735000D02*
X157040000Y-240735000D01*
X154040000Y-240735000D02*
X154440000Y-240735000D01*
X151540000Y-240735000D02*
X151940000Y-240735000D01*
X148940000Y-240735000D02*
X149340000Y-240735000D01*
X146440000Y-240735000D02*
X146840000Y-240735000D01*
X143840000Y-240735000D02*
X144240000Y-240735000D01*
X141340000Y-240735000D02*
X141740000Y-240735000D01*
X138840000Y-240735000D02*
X139240000Y-240735000D01*
X136240000Y-240735000D02*
X136640000Y-240735000D01*
X133740000Y-240735000D02*
X134140000Y-240735000D01*
X131140000Y-240735000D02*
X131540000Y-240735000D01*
X128640000Y-240735000D02*
X129040000Y-240735000D01*
X126140000Y-240735000D02*
X126540000Y-240735000D01*
X123540000Y-240735000D02*
X123940000Y-240735000D01*
X121040000Y-240735000D02*
X121440000Y-240735000D01*
X118707000Y-240735000D02*
X118707000Y-243742000D01*
X118440000Y-240735000D02*
X118840000Y-240735000D01*
X116040000Y-240735000D02*
X116340000Y-240735000D01*
X116040000Y-240735000D02*
X116040000Y-261735000D01*
X118707000Y-243742000D02*
X116040000Y-243742000D01*
X167040000Y-247535000D02*
X167040000Y-240735000D01*
X167040000Y-249735000D02*
X167040000Y-250135000D01*
X167040000Y-252335000D02*
X167040000Y-252735000D01*
X167040000Y-261735000D02*
X167040000Y-254935000D01*
X164240000Y-261735000D02*
X164640000Y-261735000D01*
X161640000Y-261735000D02*
X162040000Y-261735000D01*
X159140000Y-261735000D02*
X159540000Y-261735000D01*
X156640000Y-261735000D02*
X157040000Y-261735000D01*
X154040000Y-261735000D02*
X154440000Y-261735000D01*
X151540000Y-261735000D02*
X151940000Y-261735000D01*
X148940000Y-261735000D02*
X149340000Y-261735000D01*
X146440000Y-261735000D02*
X146840000Y-261735000D01*
X143840000Y-261735000D02*
X144240000Y-261735000D01*
X141340000Y-261735000D02*
X141740000Y-261735000D01*
X138840000Y-261735000D02*
X139240000Y-261735000D01*
X136240000Y-261735000D02*
X136640000Y-261735000D01*
X133740000Y-261735000D02*
X134140000Y-261735000D01*
X131140000Y-261735000D02*
X131540000Y-261735000D01*
X128640000Y-261735000D02*
X129040000Y-261735000D01*
X126140000Y-261735000D02*
X126540000Y-261735000D01*
X123540000Y-261735000D02*
X123940000Y-261735000D01*
X121040000Y-261735000D02*
X121440000Y-261735000D01*
X118440000Y-261735000D02*
X118840000Y-261735000D01*
X116040000Y-261735000D02*
X116340000Y-261735000D01*
%TD*%
M02*
