%TF.GenerationSoftware,KiCad,Pcbnew,(7.0.0-0)*%
%TF.CreationDate,2023-03-06T01:51:54+09:00*%
%TF.ProjectId,11111_pcb,31313131-315f-4706-9362-2e6b69636164,rev?*%
%TF.SameCoordinates,Original*%
%TF.FileFunction,Legend,Top*%
%TF.FilePolarity,Positive*%
%FSLAX46Y46*%
G04 Gerber Fmt 4.6, Leading zero omitted, Abs format (unit mm)*
G04 Created by KiCad (PCBNEW (7.0.0-0)) date 2023-03-06 01:51:54*
%MOMM*%
%LPD*%
G01*
G04 APERTURE LIST*
%ADD10O,2.500000X2.000000*%
%ADD11C,1.210000*%
%ADD12O,2.200000X1.300000*%
G04 APERTURE END LIST*
D10*
%TO.C,SW46*%
X92074999Y-92769999D03*
X98424999Y-90229999D03*
%TD*%
D11*
%TO.C,J1*%
X157880000Y-68040000D03*
X164880000Y-68040000D03*
D12*
X168179999Y-66039999D03*
X159679999Y-70039999D03*
X162679999Y-70039999D03*
X166679999Y-70039999D03*
%TD*%
D10*
%TO.C,SW34*%
X130174999Y-73599999D03*
X136524999Y-71059999D03*
%TD*%
%TO.C,SW15*%
X34924999Y-54549999D03*
X41274999Y-52009999D03*
%TD*%
%TO.C,SW45*%
X73024999Y-92769999D03*
X79374999Y-90229999D03*
%TD*%
%TO.C,SW57*%
X92134999Y-111699999D03*
X98484999Y-109159999D03*
%TD*%
%TO.C,SW1*%
X34924999Y-35499999D03*
X41274999Y-32959999D03*
%TD*%
%TO.C,SW58*%
X111124999Y-111699999D03*
X117474999Y-109159999D03*
%TD*%
%TO.C,SW16*%
X53904999Y-54549999D03*
X60254999Y-52009999D03*
%TD*%
%TO.C,SW19*%
X111124999Y-54549999D03*
X117474999Y-52009999D03*
%TD*%
%TO.C,SW43*%
X34924999Y-92769999D03*
X41274999Y-90229999D03*
%TD*%
%TO.C,SW47*%
X111124999Y-92769999D03*
X117474999Y-90229999D03*
%TD*%
%TO.C,SW35*%
X149224999Y-73599999D03*
X155574999Y-71059999D03*
%TD*%
%TO.C,SW30*%
X53904999Y-73599999D03*
X60254999Y-71059999D03*
%TD*%
%TO.C,SW33*%
X111124999Y-73599999D03*
X117474999Y-71059999D03*
%TD*%
%TO.C,SW6*%
X130174999Y-35499999D03*
X136524999Y-32959999D03*
%TD*%
%TO.C,SW44*%
X53904999Y-92769999D03*
X60254999Y-90229999D03*
%TD*%
%TO.C,SW49*%
X149224999Y-92649999D03*
X155574999Y-90109999D03*
%TD*%
%TO.C,SW21*%
X149224999Y-54549999D03*
X155574999Y-52009999D03*
%TD*%
%TO.C,SW29*%
X34924999Y-73599999D03*
X41274999Y-71059999D03*
%TD*%
%TO.C,SW4*%
X92074999Y-35499999D03*
X98424999Y-32959999D03*
%TD*%
%TO.C,SW59*%
X130174999Y-111699999D03*
X136524999Y-109159999D03*
%TD*%
%TO.C,SW20*%
X130174999Y-54549999D03*
X136524999Y-52009999D03*
%TD*%
%TO.C,SW32*%
X92074999Y-73599999D03*
X98424999Y-71059999D03*
%TD*%
%TO.C,SW2*%
X53904999Y-35499999D03*
X60254999Y-32959999D03*
%TD*%
%TO.C,SW3*%
X73024999Y-35499999D03*
X79374999Y-32959999D03*
%TD*%
%TO.C,SW7*%
X149224999Y-35499999D03*
X155574999Y-32959999D03*
%TD*%
%TO.C,SW17*%
X73024999Y-54549999D03*
X79374999Y-52009999D03*
%TD*%
%TO.C,SW48*%
X130174999Y-92769999D03*
X136524999Y-90229999D03*
%TD*%
%TO.C,SW60*%
X149224999Y-111699999D03*
X155574999Y-109159999D03*
%TD*%
%TO.C,SW18*%
X92074999Y-54549999D03*
X98424999Y-52009999D03*
%TD*%
%TO.C,SW31*%
X73024999Y-73599999D03*
X79374999Y-71059999D03*
%TD*%
%TO.C,SW5*%
X111124999Y-35499999D03*
X117474999Y-32959999D03*
%TD*%
M02*
