%TF.GenerationSoftware,KiCad,Pcbnew,(7.0.0-0)*%
%TF.CreationDate,2023-03-05T23:11:16+09:00*%
%TF.ProjectId,11111_pcb,31313131-315f-4706-9362-2e6b69636164,rev?*%
%TF.SameCoordinates,Original*%
%TF.FileFunction,Legend,Bot*%
%TF.FilePolarity,Positive*%
%FSLAX46Y46*%
G04 Gerber Fmt 4.6, Leading zero omitted, Abs format (unit mm)*
G04 Created by KiCad (PCBNEW (7.0.0-0)) date 2023-03-05 23:11:16*
%MOMM*%
%LPD*%
G01*
G04 APERTURE LIST*
%ADD10C,0.300000*%
%ADD11C,0.150000*%
%ADD12C,0.125000*%
%ADD13C,0.120000*%
G04 APERTURE END LIST*
D10*
X169037142Y-27523571D02*
X169894285Y-27523571D01*
X169465714Y-27523571D02*
X169465714Y-26023571D01*
X169465714Y-26023571D02*
X169608571Y-26237857D01*
X169608571Y-26237857D02*
X169751428Y-26380714D01*
X169751428Y-26380714D02*
X169894285Y-26452142D01*
X167608571Y-27523571D02*
X168465714Y-27523571D01*
X168037143Y-27523571D02*
X168037143Y-26023571D01*
X168037143Y-26023571D02*
X168180000Y-26237857D01*
X168180000Y-26237857D02*
X168322857Y-26380714D01*
X168322857Y-26380714D02*
X168465714Y-26452142D01*
X166180000Y-27523571D02*
X167037143Y-27523571D01*
X166608572Y-27523571D02*
X166608572Y-26023571D01*
X166608572Y-26023571D02*
X166751429Y-26237857D01*
X166751429Y-26237857D02*
X166894286Y-26380714D01*
X166894286Y-26380714D02*
X167037143Y-26452142D01*
X164751429Y-27523571D02*
X165608572Y-27523571D01*
X165180001Y-27523571D02*
X165180001Y-26023571D01*
X165180001Y-26023571D02*
X165322858Y-26237857D01*
X165322858Y-26237857D02*
X165465715Y-26380714D01*
X165465715Y-26380714D02*
X165608572Y-26452142D01*
X163322858Y-27523571D02*
X164180001Y-27523571D01*
X163751430Y-27523571D02*
X163751430Y-26023571D01*
X163751430Y-26023571D02*
X163894287Y-26237857D01*
X163894287Y-26237857D02*
X164037144Y-26380714D01*
X164037144Y-26380714D02*
X164180001Y-26452142D01*
X161922859Y-26523571D02*
X161565716Y-27523571D01*
X161565716Y-27523571D02*
X161208573Y-26523571D01*
X160065716Y-27452142D02*
X160208573Y-27523571D01*
X160208573Y-27523571D02*
X160494288Y-27523571D01*
X160494288Y-27523571D02*
X160637145Y-27452142D01*
X160637145Y-27452142D02*
X160708573Y-27309285D01*
X160708573Y-27309285D02*
X160708573Y-26737857D01*
X160708573Y-26737857D02*
X160637145Y-26595000D01*
X160637145Y-26595000D02*
X160494288Y-26523571D01*
X160494288Y-26523571D02*
X160208573Y-26523571D01*
X160208573Y-26523571D02*
X160065716Y-26595000D01*
X160065716Y-26595000D02*
X159994288Y-26737857D01*
X159994288Y-26737857D02*
X159994288Y-26880714D01*
X159994288Y-26880714D02*
X160708573Y-27023571D01*
X159351431Y-27523571D02*
X159351431Y-26523571D01*
X159351431Y-26809285D02*
X159280002Y-26666428D01*
X159280002Y-26666428D02*
X159208574Y-26595000D01*
X159208574Y-26595000D02*
X159065716Y-26523571D01*
X159065716Y-26523571D02*
X158922859Y-26523571D01*
X158422860Y-27380714D02*
X158351431Y-27452142D01*
X158351431Y-27452142D02*
X158422860Y-27523571D01*
X158422860Y-27523571D02*
X158494288Y-27452142D01*
X158494288Y-27452142D02*
X158422860Y-27380714D01*
X158422860Y-27380714D02*
X158422860Y-27523571D01*
X156922859Y-27523571D02*
X157780002Y-27523571D01*
X157351431Y-27523571D02*
X157351431Y-26023571D01*
X157351431Y-26023571D02*
X157494288Y-26237857D01*
X157494288Y-26237857D02*
X157637145Y-26380714D01*
X157637145Y-26380714D02*
X157780002Y-26452142D01*
X169608571Y-29953571D02*
X169751428Y-29882142D01*
X169751428Y-29882142D02*
X169822857Y-29739285D01*
X169822857Y-29739285D02*
X169822857Y-28453571D01*
X168465714Y-29882142D02*
X168608571Y-29953571D01*
X168608571Y-29953571D02*
X168894286Y-29953571D01*
X168894286Y-29953571D02*
X169037143Y-29882142D01*
X169037143Y-29882142D02*
X169108571Y-29739285D01*
X169108571Y-29739285D02*
X169108571Y-29167857D01*
X169108571Y-29167857D02*
X169037143Y-29025000D01*
X169037143Y-29025000D02*
X168894286Y-28953571D01*
X168894286Y-28953571D02*
X168608571Y-28953571D01*
X168608571Y-28953571D02*
X168465714Y-29025000D01*
X168465714Y-29025000D02*
X168394286Y-29167857D01*
X168394286Y-29167857D02*
X168394286Y-29310714D01*
X168394286Y-29310714D02*
X169108571Y-29453571D01*
X167965714Y-28953571D02*
X167394286Y-28953571D01*
X167751429Y-29953571D02*
X167751429Y-28667857D01*
X167751429Y-28667857D02*
X167680000Y-28525000D01*
X167680000Y-28525000D02*
X167537143Y-28453571D01*
X167537143Y-28453571D02*
X167394286Y-28453571D01*
X167108571Y-28953571D02*
X166537143Y-28953571D01*
X166894286Y-28453571D02*
X166894286Y-29739285D01*
X166894286Y-29739285D02*
X166822857Y-29882142D01*
X166822857Y-29882142D02*
X166680000Y-29953571D01*
X166680000Y-29953571D02*
X166537143Y-29953571D01*
X165137143Y-29953571D02*
X165137143Y-28453571D01*
X164494286Y-29953571D02*
X164494286Y-29167857D01*
X164494286Y-29167857D02*
X164565714Y-29025000D01*
X164565714Y-29025000D02*
X164708571Y-28953571D01*
X164708571Y-28953571D02*
X164922857Y-28953571D01*
X164922857Y-28953571D02*
X165065714Y-29025000D01*
X165065714Y-29025000D02*
X165137143Y-29096428D01*
X163137143Y-29953571D02*
X163137143Y-29167857D01*
X163137143Y-29167857D02*
X163208571Y-29025000D01*
X163208571Y-29025000D02*
X163351428Y-28953571D01*
X163351428Y-28953571D02*
X163637143Y-28953571D01*
X163637143Y-28953571D02*
X163780000Y-29025000D01*
X163137143Y-29882142D02*
X163280000Y-29953571D01*
X163280000Y-29953571D02*
X163637143Y-29953571D01*
X163637143Y-29953571D02*
X163780000Y-29882142D01*
X163780000Y-29882142D02*
X163851428Y-29739285D01*
X163851428Y-29739285D02*
X163851428Y-29596428D01*
X163851428Y-29596428D02*
X163780000Y-29453571D01*
X163780000Y-29453571D02*
X163637143Y-29382142D01*
X163637143Y-29382142D02*
X163280000Y-29382142D01*
X163280000Y-29382142D02*
X163137143Y-29310714D01*
X162422857Y-28953571D02*
X162422857Y-29953571D01*
X162422857Y-29096428D02*
X162351428Y-29025000D01*
X162351428Y-29025000D02*
X162208571Y-28953571D01*
X162208571Y-28953571D02*
X161994285Y-28953571D01*
X161994285Y-28953571D02*
X161851428Y-29025000D01*
X161851428Y-29025000D02*
X161780000Y-29167857D01*
X161780000Y-29167857D02*
X161780000Y-29953571D01*
X160422857Y-29953571D02*
X160422857Y-28453571D01*
X160422857Y-29882142D02*
X160565714Y-29953571D01*
X160565714Y-29953571D02*
X160851428Y-29953571D01*
X160851428Y-29953571D02*
X160994285Y-29882142D01*
X160994285Y-29882142D02*
X161065714Y-29810714D01*
X161065714Y-29810714D02*
X161137142Y-29667857D01*
X161137142Y-29667857D02*
X161137142Y-29239285D01*
X161137142Y-29239285D02*
X161065714Y-29096428D01*
X161065714Y-29096428D02*
X160994285Y-29025000D01*
X160994285Y-29025000D02*
X160851428Y-28953571D01*
X160851428Y-28953571D02*
X160565714Y-28953571D01*
X160565714Y-28953571D02*
X160422857Y-29025000D01*
D11*
%TO.C,SW46*%
X104044523Y-93089761D02*
X103901666Y-93137380D01*
X103901666Y-93137380D02*
X103663571Y-93137380D01*
X103663571Y-93137380D02*
X103568333Y-93089761D01*
X103568333Y-93089761D02*
X103520714Y-93042142D01*
X103520714Y-93042142D02*
X103473095Y-92946904D01*
X103473095Y-92946904D02*
X103473095Y-92851666D01*
X103473095Y-92851666D02*
X103520714Y-92756428D01*
X103520714Y-92756428D02*
X103568333Y-92708809D01*
X103568333Y-92708809D02*
X103663571Y-92661190D01*
X103663571Y-92661190D02*
X103854047Y-92613571D01*
X103854047Y-92613571D02*
X103949285Y-92565952D01*
X103949285Y-92565952D02*
X103996904Y-92518333D01*
X103996904Y-92518333D02*
X104044523Y-92423095D01*
X104044523Y-92423095D02*
X104044523Y-92327857D01*
X104044523Y-92327857D02*
X103996904Y-92232619D01*
X103996904Y-92232619D02*
X103949285Y-92185000D01*
X103949285Y-92185000D02*
X103854047Y-92137380D01*
X103854047Y-92137380D02*
X103615952Y-92137380D01*
X103615952Y-92137380D02*
X103473095Y-92185000D01*
X103139761Y-92137380D02*
X102901666Y-93137380D01*
X102901666Y-93137380D02*
X102711190Y-92423095D01*
X102711190Y-92423095D02*
X102520714Y-93137380D01*
X102520714Y-93137380D02*
X102282619Y-92137380D01*
X101473095Y-92470714D02*
X101473095Y-93137380D01*
X101711190Y-92089761D02*
X101949285Y-92804047D01*
X101949285Y-92804047D02*
X101330238Y-92804047D01*
X100520714Y-92137380D02*
X100711190Y-92137380D01*
X100711190Y-92137380D02*
X100806428Y-92185000D01*
X100806428Y-92185000D02*
X100854047Y-92232619D01*
X100854047Y-92232619D02*
X100949285Y-92375476D01*
X100949285Y-92375476D02*
X100996904Y-92565952D01*
X100996904Y-92565952D02*
X100996904Y-92946904D01*
X100996904Y-92946904D02*
X100949285Y-93042142D01*
X100949285Y-93042142D02*
X100901666Y-93089761D01*
X100901666Y-93089761D02*
X100806428Y-93137380D01*
X100806428Y-93137380D02*
X100615952Y-93137380D01*
X100615952Y-93137380D02*
X100520714Y-93089761D01*
X100520714Y-93089761D02*
X100473095Y-93042142D01*
X100473095Y-93042142D02*
X100425476Y-92946904D01*
X100425476Y-92946904D02*
X100425476Y-92708809D01*
X100425476Y-92708809D02*
X100473095Y-92613571D01*
X100473095Y-92613571D02*
X100520714Y-92565952D01*
X100520714Y-92565952D02*
X100615952Y-92518333D01*
X100615952Y-92518333D02*
X100806428Y-92518333D01*
X100806428Y-92518333D02*
X100901666Y-92565952D01*
X100901666Y-92565952D02*
X100949285Y-92613571D01*
X100949285Y-92613571D02*
X100996904Y-92708809D01*
D12*
%TO.C,D33*%
X124246428Y-85823904D02*
X124246428Y-85023904D01*
X124246428Y-85023904D02*
X124055952Y-85023904D01*
X124055952Y-85023904D02*
X123941666Y-85062000D01*
X123941666Y-85062000D02*
X123865476Y-85138190D01*
X123865476Y-85138190D02*
X123827381Y-85214380D01*
X123827381Y-85214380D02*
X123789285Y-85366761D01*
X123789285Y-85366761D02*
X123789285Y-85481047D01*
X123789285Y-85481047D02*
X123827381Y-85633428D01*
X123827381Y-85633428D02*
X123865476Y-85709619D01*
X123865476Y-85709619D02*
X123941666Y-85785809D01*
X123941666Y-85785809D02*
X124055952Y-85823904D01*
X124055952Y-85823904D02*
X124246428Y-85823904D01*
X123522619Y-85023904D02*
X123027381Y-85023904D01*
X123027381Y-85023904D02*
X123294047Y-85328666D01*
X123294047Y-85328666D02*
X123179762Y-85328666D01*
X123179762Y-85328666D02*
X123103571Y-85366761D01*
X123103571Y-85366761D02*
X123065476Y-85404857D01*
X123065476Y-85404857D02*
X123027381Y-85481047D01*
X123027381Y-85481047D02*
X123027381Y-85671523D01*
X123027381Y-85671523D02*
X123065476Y-85747714D01*
X123065476Y-85747714D02*
X123103571Y-85785809D01*
X123103571Y-85785809D02*
X123179762Y-85823904D01*
X123179762Y-85823904D02*
X123408333Y-85823904D01*
X123408333Y-85823904D02*
X123484524Y-85785809D01*
X123484524Y-85785809D02*
X123522619Y-85747714D01*
X122760714Y-85023904D02*
X122265476Y-85023904D01*
X122265476Y-85023904D02*
X122532142Y-85328666D01*
X122532142Y-85328666D02*
X122417857Y-85328666D01*
X122417857Y-85328666D02*
X122341666Y-85366761D01*
X122341666Y-85366761D02*
X122303571Y-85404857D01*
X122303571Y-85404857D02*
X122265476Y-85481047D01*
X122265476Y-85481047D02*
X122265476Y-85671523D01*
X122265476Y-85671523D02*
X122303571Y-85747714D01*
X122303571Y-85747714D02*
X122341666Y-85785809D01*
X122341666Y-85785809D02*
X122417857Y-85823904D01*
X122417857Y-85823904D02*
X122646428Y-85823904D01*
X122646428Y-85823904D02*
X122722619Y-85785809D01*
X122722619Y-85785809D02*
X122760714Y-85747714D01*
%TO.C,D43*%
X48056428Y-104603904D02*
X48056428Y-103803904D01*
X48056428Y-103803904D02*
X47865952Y-103803904D01*
X47865952Y-103803904D02*
X47751666Y-103842000D01*
X47751666Y-103842000D02*
X47675476Y-103918190D01*
X47675476Y-103918190D02*
X47637381Y-103994380D01*
X47637381Y-103994380D02*
X47599285Y-104146761D01*
X47599285Y-104146761D02*
X47599285Y-104261047D01*
X47599285Y-104261047D02*
X47637381Y-104413428D01*
X47637381Y-104413428D02*
X47675476Y-104489619D01*
X47675476Y-104489619D02*
X47751666Y-104565809D01*
X47751666Y-104565809D02*
X47865952Y-104603904D01*
X47865952Y-104603904D02*
X48056428Y-104603904D01*
X46913571Y-104070571D02*
X46913571Y-104603904D01*
X47104047Y-103765809D02*
X47294524Y-104337238D01*
X47294524Y-104337238D02*
X46799285Y-104337238D01*
X46570714Y-103803904D02*
X46075476Y-103803904D01*
X46075476Y-103803904D02*
X46342142Y-104108666D01*
X46342142Y-104108666D02*
X46227857Y-104108666D01*
X46227857Y-104108666D02*
X46151666Y-104146761D01*
X46151666Y-104146761D02*
X46113571Y-104184857D01*
X46113571Y-104184857D02*
X46075476Y-104261047D01*
X46075476Y-104261047D02*
X46075476Y-104451523D01*
X46075476Y-104451523D02*
X46113571Y-104527714D01*
X46113571Y-104527714D02*
X46151666Y-104565809D01*
X46151666Y-104565809D02*
X46227857Y-104603904D01*
X46227857Y-104603904D02*
X46456428Y-104603904D01*
X46456428Y-104603904D02*
X46532619Y-104565809D01*
X46532619Y-104565809D02*
X46570714Y-104527714D01*
%TO.C,D60*%
X162391428Y-123573904D02*
X162391428Y-122773904D01*
X162391428Y-122773904D02*
X162200952Y-122773904D01*
X162200952Y-122773904D02*
X162086666Y-122812000D01*
X162086666Y-122812000D02*
X162010476Y-122888190D01*
X162010476Y-122888190D02*
X161972381Y-122964380D01*
X161972381Y-122964380D02*
X161934285Y-123116761D01*
X161934285Y-123116761D02*
X161934285Y-123231047D01*
X161934285Y-123231047D02*
X161972381Y-123383428D01*
X161972381Y-123383428D02*
X162010476Y-123459619D01*
X162010476Y-123459619D02*
X162086666Y-123535809D01*
X162086666Y-123535809D02*
X162200952Y-123573904D01*
X162200952Y-123573904D02*
X162391428Y-123573904D01*
X161248571Y-122773904D02*
X161400952Y-122773904D01*
X161400952Y-122773904D02*
X161477143Y-122812000D01*
X161477143Y-122812000D02*
X161515238Y-122850095D01*
X161515238Y-122850095D02*
X161591428Y-122964380D01*
X161591428Y-122964380D02*
X161629524Y-123116761D01*
X161629524Y-123116761D02*
X161629524Y-123421523D01*
X161629524Y-123421523D02*
X161591428Y-123497714D01*
X161591428Y-123497714D02*
X161553333Y-123535809D01*
X161553333Y-123535809D02*
X161477143Y-123573904D01*
X161477143Y-123573904D02*
X161324762Y-123573904D01*
X161324762Y-123573904D02*
X161248571Y-123535809D01*
X161248571Y-123535809D02*
X161210476Y-123497714D01*
X161210476Y-123497714D02*
X161172381Y-123421523D01*
X161172381Y-123421523D02*
X161172381Y-123231047D01*
X161172381Y-123231047D02*
X161210476Y-123154857D01*
X161210476Y-123154857D02*
X161248571Y-123116761D01*
X161248571Y-123116761D02*
X161324762Y-123078666D01*
X161324762Y-123078666D02*
X161477143Y-123078666D01*
X161477143Y-123078666D02*
X161553333Y-123116761D01*
X161553333Y-123116761D02*
X161591428Y-123154857D01*
X161591428Y-123154857D02*
X161629524Y-123231047D01*
X160677142Y-122773904D02*
X160600952Y-122773904D01*
X160600952Y-122773904D02*
X160524761Y-122812000D01*
X160524761Y-122812000D02*
X160486666Y-122850095D01*
X160486666Y-122850095D02*
X160448571Y-122926285D01*
X160448571Y-122926285D02*
X160410476Y-123078666D01*
X160410476Y-123078666D02*
X160410476Y-123269142D01*
X160410476Y-123269142D02*
X160448571Y-123421523D01*
X160448571Y-123421523D02*
X160486666Y-123497714D01*
X160486666Y-123497714D02*
X160524761Y-123535809D01*
X160524761Y-123535809D02*
X160600952Y-123573904D01*
X160600952Y-123573904D02*
X160677142Y-123573904D01*
X160677142Y-123573904D02*
X160753333Y-123535809D01*
X160753333Y-123535809D02*
X160791428Y-123497714D01*
X160791428Y-123497714D02*
X160829523Y-123421523D01*
X160829523Y-123421523D02*
X160867619Y-123269142D01*
X160867619Y-123269142D02*
X160867619Y-123078666D01*
X160867619Y-123078666D02*
X160829523Y-122926285D01*
X160829523Y-122926285D02*
X160791428Y-122850095D01*
X160791428Y-122850095D02*
X160753333Y-122812000D01*
X160753333Y-122812000D02*
X160677142Y-122773904D01*
%TO.C,D18*%
X105306428Y-66693904D02*
X105306428Y-65893904D01*
X105306428Y-65893904D02*
X105115952Y-65893904D01*
X105115952Y-65893904D02*
X105001666Y-65932000D01*
X105001666Y-65932000D02*
X104925476Y-66008190D01*
X104925476Y-66008190D02*
X104887381Y-66084380D01*
X104887381Y-66084380D02*
X104849285Y-66236761D01*
X104849285Y-66236761D02*
X104849285Y-66351047D01*
X104849285Y-66351047D02*
X104887381Y-66503428D01*
X104887381Y-66503428D02*
X104925476Y-66579619D01*
X104925476Y-66579619D02*
X105001666Y-66655809D01*
X105001666Y-66655809D02*
X105115952Y-66693904D01*
X105115952Y-66693904D02*
X105306428Y-66693904D01*
X104087381Y-66693904D02*
X104544524Y-66693904D01*
X104315952Y-66693904D02*
X104315952Y-65893904D01*
X104315952Y-65893904D02*
X104392143Y-66008190D01*
X104392143Y-66008190D02*
X104468333Y-66084380D01*
X104468333Y-66084380D02*
X104544524Y-66122476D01*
X103630238Y-66236761D02*
X103706428Y-66198666D01*
X103706428Y-66198666D02*
X103744523Y-66160571D01*
X103744523Y-66160571D02*
X103782619Y-66084380D01*
X103782619Y-66084380D02*
X103782619Y-66046285D01*
X103782619Y-66046285D02*
X103744523Y-65970095D01*
X103744523Y-65970095D02*
X103706428Y-65932000D01*
X103706428Y-65932000D02*
X103630238Y-65893904D01*
X103630238Y-65893904D02*
X103477857Y-65893904D01*
X103477857Y-65893904D02*
X103401666Y-65932000D01*
X103401666Y-65932000D02*
X103363571Y-65970095D01*
X103363571Y-65970095D02*
X103325476Y-66046285D01*
X103325476Y-66046285D02*
X103325476Y-66084380D01*
X103325476Y-66084380D02*
X103363571Y-66160571D01*
X103363571Y-66160571D02*
X103401666Y-66198666D01*
X103401666Y-66198666D02*
X103477857Y-66236761D01*
X103477857Y-66236761D02*
X103630238Y-66236761D01*
X103630238Y-66236761D02*
X103706428Y-66274857D01*
X103706428Y-66274857D02*
X103744523Y-66312952D01*
X103744523Y-66312952D02*
X103782619Y-66389142D01*
X103782619Y-66389142D02*
X103782619Y-66541523D01*
X103782619Y-66541523D02*
X103744523Y-66617714D01*
X103744523Y-66617714D02*
X103706428Y-66655809D01*
X103706428Y-66655809D02*
X103630238Y-66693904D01*
X103630238Y-66693904D02*
X103477857Y-66693904D01*
X103477857Y-66693904D02*
X103401666Y-66655809D01*
X103401666Y-66655809D02*
X103363571Y-66617714D01*
X103363571Y-66617714D02*
X103325476Y-66541523D01*
X103325476Y-66541523D02*
X103325476Y-66389142D01*
X103325476Y-66389142D02*
X103363571Y-66312952D01*
X103363571Y-66312952D02*
X103401666Y-66274857D01*
X103401666Y-66274857D02*
X103477857Y-66236761D01*
%TO.C,D16*%
X67106428Y-66693904D02*
X67106428Y-65893904D01*
X67106428Y-65893904D02*
X66915952Y-65893904D01*
X66915952Y-65893904D02*
X66801666Y-65932000D01*
X66801666Y-65932000D02*
X66725476Y-66008190D01*
X66725476Y-66008190D02*
X66687381Y-66084380D01*
X66687381Y-66084380D02*
X66649285Y-66236761D01*
X66649285Y-66236761D02*
X66649285Y-66351047D01*
X66649285Y-66351047D02*
X66687381Y-66503428D01*
X66687381Y-66503428D02*
X66725476Y-66579619D01*
X66725476Y-66579619D02*
X66801666Y-66655809D01*
X66801666Y-66655809D02*
X66915952Y-66693904D01*
X66915952Y-66693904D02*
X67106428Y-66693904D01*
X65887381Y-66693904D02*
X66344524Y-66693904D01*
X66115952Y-66693904D02*
X66115952Y-65893904D01*
X66115952Y-65893904D02*
X66192143Y-66008190D01*
X66192143Y-66008190D02*
X66268333Y-66084380D01*
X66268333Y-66084380D02*
X66344524Y-66122476D01*
X65201666Y-65893904D02*
X65354047Y-65893904D01*
X65354047Y-65893904D02*
X65430238Y-65932000D01*
X65430238Y-65932000D02*
X65468333Y-65970095D01*
X65468333Y-65970095D02*
X65544523Y-66084380D01*
X65544523Y-66084380D02*
X65582619Y-66236761D01*
X65582619Y-66236761D02*
X65582619Y-66541523D01*
X65582619Y-66541523D02*
X65544523Y-66617714D01*
X65544523Y-66617714D02*
X65506428Y-66655809D01*
X65506428Y-66655809D02*
X65430238Y-66693904D01*
X65430238Y-66693904D02*
X65277857Y-66693904D01*
X65277857Y-66693904D02*
X65201666Y-66655809D01*
X65201666Y-66655809D02*
X65163571Y-66617714D01*
X65163571Y-66617714D02*
X65125476Y-66541523D01*
X65125476Y-66541523D02*
X65125476Y-66351047D01*
X65125476Y-66351047D02*
X65163571Y-66274857D01*
X65163571Y-66274857D02*
X65201666Y-66236761D01*
X65201666Y-66236761D02*
X65277857Y-66198666D01*
X65277857Y-66198666D02*
X65430238Y-66198666D01*
X65430238Y-66198666D02*
X65506428Y-66236761D01*
X65506428Y-66236761D02*
X65544523Y-66274857D01*
X65544523Y-66274857D02*
X65582619Y-66351047D01*
%TO.C,D6*%
X142935475Y-47373904D02*
X142935475Y-46573904D01*
X142935475Y-46573904D02*
X142744999Y-46573904D01*
X142744999Y-46573904D02*
X142630713Y-46612000D01*
X142630713Y-46612000D02*
X142554523Y-46688190D01*
X142554523Y-46688190D02*
X142516428Y-46764380D01*
X142516428Y-46764380D02*
X142478332Y-46916761D01*
X142478332Y-46916761D02*
X142478332Y-47031047D01*
X142478332Y-47031047D02*
X142516428Y-47183428D01*
X142516428Y-47183428D02*
X142554523Y-47259619D01*
X142554523Y-47259619D02*
X142630713Y-47335809D01*
X142630713Y-47335809D02*
X142744999Y-47373904D01*
X142744999Y-47373904D02*
X142935475Y-47373904D01*
X141792618Y-46573904D02*
X141944999Y-46573904D01*
X141944999Y-46573904D02*
X142021190Y-46612000D01*
X142021190Y-46612000D02*
X142059285Y-46650095D01*
X142059285Y-46650095D02*
X142135475Y-46764380D01*
X142135475Y-46764380D02*
X142173571Y-46916761D01*
X142173571Y-46916761D02*
X142173571Y-47221523D01*
X142173571Y-47221523D02*
X142135475Y-47297714D01*
X142135475Y-47297714D02*
X142097380Y-47335809D01*
X142097380Y-47335809D02*
X142021190Y-47373904D01*
X142021190Y-47373904D02*
X141868809Y-47373904D01*
X141868809Y-47373904D02*
X141792618Y-47335809D01*
X141792618Y-47335809D02*
X141754523Y-47297714D01*
X141754523Y-47297714D02*
X141716428Y-47221523D01*
X141716428Y-47221523D02*
X141716428Y-47031047D01*
X141716428Y-47031047D02*
X141754523Y-46954857D01*
X141754523Y-46954857D02*
X141792618Y-46916761D01*
X141792618Y-46916761D02*
X141868809Y-46878666D01*
X141868809Y-46878666D02*
X142021190Y-46878666D01*
X142021190Y-46878666D02*
X142097380Y-46916761D01*
X142097380Y-46916761D02*
X142135475Y-46954857D01*
X142135475Y-46954857D02*
X142173571Y-47031047D01*
%TO.C,D17*%
X86256428Y-66693904D02*
X86256428Y-65893904D01*
X86256428Y-65893904D02*
X86065952Y-65893904D01*
X86065952Y-65893904D02*
X85951666Y-65932000D01*
X85951666Y-65932000D02*
X85875476Y-66008190D01*
X85875476Y-66008190D02*
X85837381Y-66084380D01*
X85837381Y-66084380D02*
X85799285Y-66236761D01*
X85799285Y-66236761D02*
X85799285Y-66351047D01*
X85799285Y-66351047D02*
X85837381Y-66503428D01*
X85837381Y-66503428D02*
X85875476Y-66579619D01*
X85875476Y-66579619D02*
X85951666Y-66655809D01*
X85951666Y-66655809D02*
X86065952Y-66693904D01*
X86065952Y-66693904D02*
X86256428Y-66693904D01*
X85037381Y-66693904D02*
X85494524Y-66693904D01*
X85265952Y-66693904D02*
X85265952Y-65893904D01*
X85265952Y-65893904D02*
X85342143Y-66008190D01*
X85342143Y-66008190D02*
X85418333Y-66084380D01*
X85418333Y-66084380D02*
X85494524Y-66122476D01*
X84770714Y-65893904D02*
X84237380Y-65893904D01*
X84237380Y-65893904D02*
X84580238Y-66693904D01*
D11*
%TO.C,J1*%
X169667380Y-67912345D02*
X169667380Y-68483773D01*
X170667380Y-68198059D02*
X169667380Y-68198059D01*
X170667380Y-69388535D02*
X170191190Y-69055202D01*
X170667380Y-68817107D02*
X169667380Y-68817107D01*
X169667380Y-68817107D02*
X169667380Y-69198059D01*
X169667380Y-69198059D02*
X169715000Y-69293297D01*
X169715000Y-69293297D02*
X169762619Y-69340916D01*
X169762619Y-69340916D02*
X169857857Y-69388535D01*
X169857857Y-69388535D02*
X170000714Y-69388535D01*
X170000714Y-69388535D02*
X170095952Y-69340916D01*
X170095952Y-69340916D02*
X170143571Y-69293297D01*
X170143571Y-69293297D02*
X170191190Y-69198059D01*
X170191190Y-69198059D02*
X170191190Y-68817107D01*
X170667380Y-70388535D02*
X170191190Y-70055202D01*
X170667380Y-69817107D02*
X169667380Y-69817107D01*
X169667380Y-69817107D02*
X169667380Y-70198059D01*
X169667380Y-70198059D02*
X169715000Y-70293297D01*
X169715000Y-70293297D02*
X169762619Y-70340916D01*
X169762619Y-70340916D02*
X169857857Y-70388535D01*
X169857857Y-70388535D02*
X170000714Y-70388535D01*
X170000714Y-70388535D02*
X170095952Y-70340916D01*
X170095952Y-70340916D02*
X170143571Y-70293297D01*
X170143571Y-70293297D02*
X170191190Y-70198059D01*
X170191190Y-70198059D02*
X170191190Y-69817107D01*
X170619761Y-70769488D02*
X170667380Y-70912345D01*
X170667380Y-70912345D02*
X170667380Y-71150440D01*
X170667380Y-71150440D02*
X170619761Y-71245678D01*
X170619761Y-71245678D02*
X170572142Y-71293297D01*
X170572142Y-71293297D02*
X170476904Y-71340916D01*
X170476904Y-71340916D02*
X170381666Y-71340916D01*
X170381666Y-71340916D02*
X170286428Y-71293297D01*
X170286428Y-71293297D02*
X170238809Y-71245678D01*
X170238809Y-71245678D02*
X170191190Y-71150440D01*
X170191190Y-71150440D02*
X170143571Y-70959964D01*
X170143571Y-70959964D02*
X170095952Y-70864726D01*
X170095952Y-70864726D02*
X170048333Y-70817107D01*
X170048333Y-70817107D02*
X169953095Y-70769488D01*
X169953095Y-70769488D02*
X169857857Y-70769488D01*
X169857857Y-70769488D02*
X169762619Y-70817107D01*
X169762619Y-70817107D02*
X169715000Y-70864726D01*
X169715000Y-70864726D02*
X169667380Y-70959964D01*
X169667380Y-70959964D02*
X169667380Y-71198059D01*
X169667380Y-71198059D02*
X169715000Y-71340916D01*
D12*
%TO.C,D21*%
X162391428Y-66693904D02*
X162391428Y-65893904D01*
X162391428Y-65893904D02*
X162200952Y-65893904D01*
X162200952Y-65893904D02*
X162086666Y-65932000D01*
X162086666Y-65932000D02*
X162010476Y-66008190D01*
X162010476Y-66008190D02*
X161972381Y-66084380D01*
X161972381Y-66084380D02*
X161934285Y-66236761D01*
X161934285Y-66236761D02*
X161934285Y-66351047D01*
X161934285Y-66351047D02*
X161972381Y-66503428D01*
X161972381Y-66503428D02*
X162010476Y-66579619D01*
X162010476Y-66579619D02*
X162086666Y-66655809D01*
X162086666Y-66655809D02*
X162200952Y-66693904D01*
X162200952Y-66693904D02*
X162391428Y-66693904D01*
X161629524Y-65970095D02*
X161591428Y-65932000D01*
X161591428Y-65932000D02*
X161515238Y-65893904D01*
X161515238Y-65893904D02*
X161324762Y-65893904D01*
X161324762Y-65893904D02*
X161248571Y-65932000D01*
X161248571Y-65932000D02*
X161210476Y-65970095D01*
X161210476Y-65970095D02*
X161172381Y-66046285D01*
X161172381Y-66046285D02*
X161172381Y-66122476D01*
X161172381Y-66122476D02*
X161210476Y-66236761D01*
X161210476Y-66236761D02*
X161667619Y-66693904D01*
X161667619Y-66693904D02*
X161172381Y-66693904D01*
X160410476Y-66693904D02*
X160867619Y-66693904D01*
X160639047Y-66693904D02*
X160639047Y-65893904D01*
X160639047Y-65893904D02*
X160715238Y-66008190D01*
X160715238Y-66008190D02*
X160791428Y-66084380D01*
X160791428Y-66084380D02*
X160867619Y-66122476D01*
D11*
%TO.C,SW34*%
X142144523Y-73919761D02*
X142001666Y-73967380D01*
X142001666Y-73967380D02*
X141763571Y-73967380D01*
X141763571Y-73967380D02*
X141668333Y-73919761D01*
X141668333Y-73919761D02*
X141620714Y-73872142D01*
X141620714Y-73872142D02*
X141573095Y-73776904D01*
X141573095Y-73776904D02*
X141573095Y-73681666D01*
X141573095Y-73681666D02*
X141620714Y-73586428D01*
X141620714Y-73586428D02*
X141668333Y-73538809D01*
X141668333Y-73538809D02*
X141763571Y-73491190D01*
X141763571Y-73491190D02*
X141954047Y-73443571D01*
X141954047Y-73443571D02*
X142049285Y-73395952D01*
X142049285Y-73395952D02*
X142096904Y-73348333D01*
X142096904Y-73348333D02*
X142144523Y-73253095D01*
X142144523Y-73253095D02*
X142144523Y-73157857D01*
X142144523Y-73157857D02*
X142096904Y-73062619D01*
X142096904Y-73062619D02*
X142049285Y-73015000D01*
X142049285Y-73015000D02*
X141954047Y-72967380D01*
X141954047Y-72967380D02*
X141715952Y-72967380D01*
X141715952Y-72967380D02*
X141573095Y-73015000D01*
X141239761Y-72967380D02*
X141001666Y-73967380D01*
X141001666Y-73967380D02*
X140811190Y-73253095D01*
X140811190Y-73253095D02*
X140620714Y-73967380D01*
X140620714Y-73967380D02*
X140382619Y-72967380D01*
X140096904Y-72967380D02*
X139477857Y-72967380D01*
X139477857Y-72967380D02*
X139811190Y-73348333D01*
X139811190Y-73348333D02*
X139668333Y-73348333D01*
X139668333Y-73348333D02*
X139573095Y-73395952D01*
X139573095Y-73395952D02*
X139525476Y-73443571D01*
X139525476Y-73443571D02*
X139477857Y-73538809D01*
X139477857Y-73538809D02*
X139477857Y-73776904D01*
X139477857Y-73776904D02*
X139525476Y-73872142D01*
X139525476Y-73872142D02*
X139573095Y-73919761D01*
X139573095Y-73919761D02*
X139668333Y-73967380D01*
X139668333Y-73967380D02*
X139954047Y-73967380D01*
X139954047Y-73967380D02*
X140049285Y-73919761D01*
X140049285Y-73919761D02*
X140096904Y-73872142D01*
X138620714Y-73300714D02*
X138620714Y-73967380D01*
X138858809Y-72919761D02*
X139096904Y-73634047D01*
X139096904Y-73634047D02*
X138477857Y-73634047D01*
%TO.C,SW15*%
X46894523Y-54869761D02*
X46751666Y-54917380D01*
X46751666Y-54917380D02*
X46513571Y-54917380D01*
X46513571Y-54917380D02*
X46418333Y-54869761D01*
X46418333Y-54869761D02*
X46370714Y-54822142D01*
X46370714Y-54822142D02*
X46323095Y-54726904D01*
X46323095Y-54726904D02*
X46323095Y-54631666D01*
X46323095Y-54631666D02*
X46370714Y-54536428D01*
X46370714Y-54536428D02*
X46418333Y-54488809D01*
X46418333Y-54488809D02*
X46513571Y-54441190D01*
X46513571Y-54441190D02*
X46704047Y-54393571D01*
X46704047Y-54393571D02*
X46799285Y-54345952D01*
X46799285Y-54345952D02*
X46846904Y-54298333D01*
X46846904Y-54298333D02*
X46894523Y-54203095D01*
X46894523Y-54203095D02*
X46894523Y-54107857D01*
X46894523Y-54107857D02*
X46846904Y-54012619D01*
X46846904Y-54012619D02*
X46799285Y-53965000D01*
X46799285Y-53965000D02*
X46704047Y-53917380D01*
X46704047Y-53917380D02*
X46465952Y-53917380D01*
X46465952Y-53917380D02*
X46323095Y-53965000D01*
X45989761Y-53917380D02*
X45751666Y-54917380D01*
X45751666Y-54917380D02*
X45561190Y-54203095D01*
X45561190Y-54203095D02*
X45370714Y-54917380D01*
X45370714Y-54917380D02*
X45132619Y-53917380D01*
X44227857Y-54917380D02*
X44799285Y-54917380D01*
X44513571Y-54917380D02*
X44513571Y-53917380D01*
X44513571Y-53917380D02*
X44608809Y-54060238D01*
X44608809Y-54060238D02*
X44704047Y-54155476D01*
X44704047Y-54155476D02*
X44799285Y-54203095D01*
X43323095Y-53917380D02*
X43799285Y-53917380D01*
X43799285Y-53917380D02*
X43846904Y-54393571D01*
X43846904Y-54393571D02*
X43799285Y-54345952D01*
X43799285Y-54345952D02*
X43704047Y-54298333D01*
X43704047Y-54298333D02*
X43465952Y-54298333D01*
X43465952Y-54298333D02*
X43370714Y-54345952D01*
X43370714Y-54345952D02*
X43323095Y-54393571D01*
X43323095Y-54393571D02*
X43275476Y-54488809D01*
X43275476Y-54488809D02*
X43275476Y-54726904D01*
X43275476Y-54726904D02*
X43323095Y-54822142D01*
X43323095Y-54822142D02*
X43370714Y-54869761D01*
X43370714Y-54869761D02*
X43465952Y-54917380D01*
X43465952Y-54917380D02*
X43704047Y-54917380D01*
X43704047Y-54917380D02*
X43799285Y-54869761D01*
X43799285Y-54869761D02*
X43846904Y-54822142D01*
%TO.C,SW45*%
X84994523Y-93089761D02*
X84851666Y-93137380D01*
X84851666Y-93137380D02*
X84613571Y-93137380D01*
X84613571Y-93137380D02*
X84518333Y-93089761D01*
X84518333Y-93089761D02*
X84470714Y-93042142D01*
X84470714Y-93042142D02*
X84423095Y-92946904D01*
X84423095Y-92946904D02*
X84423095Y-92851666D01*
X84423095Y-92851666D02*
X84470714Y-92756428D01*
X84470714Y-92756428D02*
X84518333Y-92708809D01*
X84518333Y-92708809D02*
X84613571Y-92661190D01*
X84613571Y-92661190D02*
X84804047Y-92613571D01*
X84804047Y-92613571D02*
X84899285Y-92565952D01*
X84899285Y-92565952D02*
X84946904Y-92518333D01*
X84946904Y-92518333D02*
X84994523Y-92423095D01*
X84994523Y-92423095D02*
X84994523Y-92327857D01*
X84994523Y-92327857D02*
X84946904Y-92232619D01*
X84946904Y-92232619D02*
X84899285Y-92185000D01*
X84899285Y-92185000D02*
X84804047Y-92137380D01*
X84804047Y-92137380D02*
X84565952Y-92137380D01*
X84565952Y-92137380D02*
X84423095Y-92185000D01*
X84089761Y-92137380D02*
X83851666Y-93137380D01*
X83851666Y-93137380D02*
X83661190Y-92423095D01*
X83661190Y-92423095D02*
X83470714Y-93137380D01*
X83470714Y-93137380D02*
X83232619Y-92137380D01*
X82423095Y-92470714D02*
X82423095Y-93137380D01*
X82661190Y-92089761D02*
X82899285Y-92804047D01*
X82899285Y-92804047D02*
X82280238Y-92804047D01*
X81423095Y-92137380D02*
X81899285Y-92137380D01*
X81899285Y-92137380D02*
X81946904Y-92613571D01*
X81946904Y-92613571D02*
X81899285Y-92565952D01*
X81899285Y-92565952D02*
X81804047Y-92518333D01*
X81804047Y-92518333D02*
X81565952Y-92518333D01*
X81565952Y-92518333D02*
X81470714Y-92565952D01*
X81470714Y-92565952D02*
X81423095Y-92613571D01*
X81423095Y-92613571D02*
X81375476Y-92708809D01*
X81375476Y-92708809D02*
X81375476Y-92946904D01*
X81375476Y-92946904D02*
X81423095Y-93042142D01*
X81423095Y-93042142D02*
X81470714Y-93089761D01*
X81470714Y-93089761D02*
X81565952Y-93137380D01*
X81565952Y-93137380D02*
X81804047Y-93137380D01*
X81804047Y-93137380D02*
X81899285Y-93089761D01*
X81899285Y-93089761D02*
X81946904Y-93042142D01*
%TO.C,SW57*%
X104104523Y-112019761D02*
X103961666Y-112067380D01*
X103961666Y-112067380D02*
X103723571Y-112067380D01*
X103723571Y-112067380D02*
X103628333Y-112019761D01*
X103628333Y-112019761D02*
X103580714Y-111972142D01*
X103580714Y-111972142D02*
X103533095Y-111876904D01*
X103533095Y-111876904D02*
X103533095Y-111781666D01*
X103533095Y-111781666D02*
X103580714Y-111686428D01*
X103580714Y-111686428D02*
X103628333Y-111638809D01*
X103628333Y-111638809D02*
X103723571Y-111591190D01*
X103723571Y-111591190D02*
X103914047Y-111543571D01*
X103914047Y-111543571D02*
X104009285Y-111495952D01*
X104009285Y-111495952D02*
X104056904Y-111448333D01*
X104056904Y-111448333D02*
X104104523Y-111353095D01*
X104104523Y-111353095D02*
X104104523Y-111257857D01*
X104104523Y-111257857D02*
X104056904Y-111162619D01*
X104056904Y-111162619D02*
X104009285Y-111115000D01*
X104009285Y-111115000D02*
X103914047Y-111067380D01*
X103914047Y-111067380D02*
X103675952Y-111067380D01*
X103675952Y-111067380D02*
X103533095Y-111115000D01*
X103199761Y-111067380D02*
X102961666Y-112067380D01*
X102961666Y-112067380D02*
X102771190Y-111353095D01*
X102771190Y-111353095D02*
X102580714Y-112067380D01*
X102580714Y-112067380D02*
X102342619Y-111067380D01*
X101485476Y-111067380D02*
X101961666Y-111067380D01*
X101961666Y-111067380D02*
X102009285Y-111543571D01*
X102009285Y-111543571D02*
X101961666Y-111495952D01*
X101961666Y-111495952D02*
X101866428Y-111448333D01*
X101866428Y-111448333D02*
X101628333Y-111448333D01*
X101628333Y-111448333D02*
X101533095Y-111495952D01*
X101533095Y-111495952D02*
X101485476Y-111543571D01*
X101485476Y-111543571D02*
X101437857Y-111638809D01*
X101437857Y-111638809D02*
X101437857Y-111876904D01*
X101437857Y-111876904D02*
X101485476Y-111972142D01*
X101485476Y-111972142D02*
X101533095Y-112019761D01*
X101533095Y-112019761D02*
X101628333Y-112067380D01*
X101628333Y-112067380D02*
X101866428Y-112067380D01*
X101866428Y-112067380D02*
X101961666Y-112019761D01*
X101961666Y-112019761D02*
X102009285Y-111972142D01*
X101104523Y-111067380D02*
X100437857Y-111067380D01*
X100437857Y-111067380D02*
X100866428Y-112067380D01*
%TO.C,SW1*%
X46418332Y-35819761D02*
X46275475Y-35867380D01*
X46275475Y-35867380D02*
X46037380Y-35867380D01*
X46037380Y-35867380D02*
X45942142Y-35819761D01*
X45942142Y-35819761D02*
X45894523Y-35772142D01*
X45894523Y-35772142D02*
X45846904Y-35676904D01*
X45846904Y-35676904D02*
X45846904Y-35581666D01*
X45846904Y-35581666D02*
X45894523Y-35486428D01*
X45894523Y-35486428D02*
X45942142Y-35438809D01*
X45942142Y-35438809D02*
X46037380Y-35391190D01*
X46037380Y-35391190D02*
X46227856Y-35343571D01*
X46227856Y-35343571D02*
X46323094Y-35295952D01*
X46323094Y-35295952D02*
X46370713Y-35248333D01*
X46370713Y-35248333D02*
X46418332Y-35153095D01*
X46418332Y-35153095D02*
X46418332Y-35057857D01*
X46418332Y-35057857D02*
X46370713Y-34962619D01*
X46370713Y-34962619D02*
X46323094Y-34915000D01*
X46323094Y-34915000D02*
X46227856Y-34867380D01*
X46227856Y-34867380D02*
X45989761Y-34867380D01*
X45989761Y-34867380D02*
X45846904Y-34915000D01*
X45513570Y-34867380D02*
X45275475Y-35867380D01*
X45275475Y-35867380D02*
X45084999Y-35153095D01*
X45084999Y-35153095D02*
X44894523Y-35867380D01*
X44894523Y-35867380D02*
X44656428Y-34867380D01*
X43751666Y-35867380D02*
X44323094Y-35867380D01*
X44037380Y-35867380D02*
X44037380Y-34867380D01*
X44037380Y-34867380D02*
X44132618Y-35010238D01*
X44132618Y-35010238D02*
X44227856Y-35105476D01*
X44227856Y-35105476D02*
X44323094Y-35153095D01*
%TO.C,SW58*%
X123094523Y-112019761D02*
X122951666Y-112067380D01*
X122951666Y-112067380D02*
X122713571Y-112067380D01*
X122713571Y-112067380D02*
X122618333Y-112019761D01*
X122618333Y-112019761D02*
X122570714Y-111972142D01*
X122570714Y-111972142D02*
X122523095Y-111876904D01*
X122523095Y-111876904D02*
X122523095Y-111781666D01*
X122523095Y-111781666D02*
X122570714Y-111686428D01*
X122570714Y-111686428D02*
X122618333Y-111638809D01*
X122618333Y-111638809D02*
X122713571Y-111591190D01*
X122713571Y-111591190D02*
X122904047Y-111543571D01*
X122904047Y-111543571D02*
X122999285Y-111495952D01*
X122999285Y-111495952D02*
X123046904Y-111448333D01*
X123046904Y-111448333D02*
X123094523Y-111353095D01*
X123094523Y-111353095D02*
X123094523Y-111257857D01*
X123094523Y-111257857D02*
X123046904Y-111162619D01*
X123046904Y-111162619D02*
X122999285Y-111115000D01*
X122999285Y-111115000D02*
X122904047Y-111067380D01*
X122904047Y-111067380D02*
X122665952Y-111067380D01*
X122665952Y-111067380D02*
X122523095Y-111115000D01*
X122189761Y-111067380D02*
X121951666Y-112067380D01*
X121951666Y-112067380D02*
X121761190Y-111353095D01*
X121761190Y-111353095D02*
X121570714Y-112067380D01*
X121570714Y-112067380D02*
X121332619Y-111067380D01*
X120475476Y-111067380D02*
X120951666Y-111067380D01*
X120951666Y-111067380D02*
X120999285Y-111543571D01*
X120999285Y-111543571D02*
X120951666Y-111495952D01*
X120951666Y-111495952D02*
X120856428Y-111448333D01*
X120856428Y-111448333D02*
X120618333Y-111448333D01*
X120618333Y-111448333D02*
X120523095Y-111495952D01*
X120523095Y-111495952D02*
X120475476Y-111543571D01*
X120475476Y-111543571D02*
X120427857Y-111638809D01*
X120427857Y-111638809D02*
X120427857Y-111876904D01*
X120427857Y-111876904D02*
X120475476Y-111972142D01*
X120475476Y-111972142D02*
X120523095Y-112019761D01*
X120523095Y-112019761D02*
X120618333Y-112067380D01*
X120618333Y-112067380D02*
X120856428Y-112067380D01*
X120856428Y-112067380D02*
X120951666Y-112019761D01*
X120951666Y-112019761D02*
X120999285Y-111972142D01*
X119856428Y-111495952D02*
X119951666Y-111448333D01*
X119951666Y-111448333D02*
X119999285Y-111400714D01*
X119999285Y-111400714D02*
X120046904Y-111305476D01*
X120046904Y-111305476D02*
X120046904Y-111257857D01*
X120046904Y-111257857D02*
X119999285Y-111162619D01*
X119999285Y-111162619D02*
X119951666Y-111115000D01*
X119951666Y-111115000D02*
X119856428Y-111067380D01*
X119856428Y-111067380D02*
X119665952Y-111067380D01*
X119665952Y-111067380D02*
X119570714Y-111115000D01*
X119570714Y-111115000D02*
X119523095Y-111162619D01*
X119523095Y-111162619D02*
X119475476Y-111257857D01*
X119475476Y-111257857D02*
X119475476Y-111305476D01*
X119475476Y-111305476D02*
X119523095Y-111400714D01*
X119523095Y-111400714D02*
X119570714Y-111448333D01*
X119570714Y-111448333D02*
X119665952Y-111495952D01*
X119665952Y-111495952D02*
X119856428Y-111495952D01*
X119856428Y-111495952D02*
X119951666Y-111543571D01*
X119951666Y-111543571D02*
X119999285Y-111591190D01*
X119999285Y-111591190D02*
X120046904Y-111686428D01*
X120046904Y-111686428D02*
X120046904Y-111876904D01*
X120046904Y-111876904D02*
X119999285Y-111972142D01*
X119999285Y-111972142D02*
X119951666Y-112019761D01*
X119951666Y-112019761D02*
X119856428Y-112067380D01*
X119856428Y-112067380D02*
X119665952Y-112067380D01*
X119665952Y-112067380D02*
X119570714Y-112019761D01*
X119570714Y-112019761D02*
X119523095Y-111972142D01*
X119523095Y-111972142D02*
X119475476Y-111876904D01*
X119475476Y-111876904D02*
X119475476Y-111686428D01*
X119475476Y-111686428D02*
X119523095Y-111591190D01*
X119523095Y-111591190D02*
X119570714Y-111543571D01*
X119570714Y-111543571D02*
X119665952Y-111495952D01*
%TO.C,SW16*%
X65874523Y-54869761D02*
X65731666Y-54917380D01*
X65731666Y-54917380D02*
X65493571Y-54917380D01*
X65493571Y-54917380D02*
X65398333Y-54869761D01*
X65398333Y-54869761D02*
X65350714Y-54822142D01*
X65350714Y-54822142D02*
X65303095Y-54726904D01*
X65303095Y-54726904D02*
X65303095Y-54631666D01*
X65303095Y-54631666D02*
X65350714Y-54536428D01*
X65350714Y-54536428D02*
X65398333Y-54488809D01*
X65398333Y-54488809D02*
X65493571Y-54441190D01*
X65493571Y-54441190D02*
X65684047Y-54393571D01*
X65684047Y-54393571D02*
X65779285Y-54345952D01*
X65779285Y-54345952D02*
X65826904Y-54298333D01*
X65826904Y-54298333D02*
X65874523Y-54203095D01*
X65874523Y-54203095D02*
X65874523Y-54107857D01*
X65874523Y-54107857D02*
X65826904Y-54012619D01*
X65826904Y-54012619D02*
X65779285Y-53965000D01*
X65779285Y-53965000D02*
X65684047Y-53917380D01*
X65684047Y-53917380D02*
X65445952Y-53917380D01*
X65445952Y-53917380D02*
X65303095Y-53965000D01*
X64969761Y-53917380D02*
X64731666Y-54917380D01*
X64731666Y-54917380D02*
X64541190Y-54203095D01*
X64541190Y-54203095D02*
X64350714Y-54917380D01*
X64350714Y-54917380D02*
X64112619Y-53917380D01*
X63207857Y-54917380D02*
X63779285Y-54917380D01*
X63493571Y-54917380D02*
X63493571Y-53917380D01*
X63493571Y-53917380D02*
X63588809Y-54060238D01*
X63588809Y-54060238D02*
X63684047Y-54155476D01*
X63684047Y-54155476D02*
X63779285Y-54203095D01*
X62350714Y-53917380D02*
X62541190Y-53917380D01*
X62541190Y-53917380D02*
X62636428Y-53965000D01*
X62636428Y-53965000D02*
X62684047Y-54012619D01*
X62684047Y-54012619D02*
X62779285Y-54155476D01*
X62779285Y-54155476D02*
X62826904Y-54345952D01*
X62826904Y-54345952D02*
X62826904Y-54726904D01*
X62826904Y-54726904D02*
X62779285Y-54822142D01*
X62779285Y-54822142D02*
X62731666Y-54869761D01*
X62731666Y-54869761D02*
X62636428Y-54917380D01*
X62636428Y-54917380D02*
X62445952Y-54917380D01*
X62445952Y-54917380D02*
X62350714Y-54869761D01*
X62350714Y-54869761D02*
X62303095Y-54822142D01*
X62303095Y-54822142D02*
X62255476Y-54726904D01*
X62255476Y-54726904D02*
X62255476Y-54488809D01*
X62255476Y-54488809D02*
X62303095Y-54393571D01*
X62303095Y-54393571D02*
X62350714Y-54345952D01*
X62350714Y-54345952D02*
X62445952Y-54298333D01*
X62445952Y-54298333D02*
X62636428Y-54298333D01*
X62636428Y-54298333D02*
X62731666Y-54345952D01*
X62731666Y-54345952D02*
X62779285Y-54393571D01*
X62779285Y-54393571D02*
X62826904Y-54488809D01*
D12*
%TO.C,D58*%
X124246428Y-123573904D02*
X124246428Y-122773904D01*
X124246428Y-122773904D02*
X124055952Y-122773904D01*
X124055952Y-122773904D02*
X123941666Y-122812000D01*
X123941666Y-122812000D02*
X123865476Y-122888190D01*
X123865476Y-122888190D02*
X123827381Y-122964380D01*
X123827381Y-122964380D02*
X123789285Y-123116761D01*
X123789285Y-123116761D02*
X123789285Y-123231047D01*
X123789285Y-123231047D02*
X123827381Y-123383428D01*
X123827381Y-123383428D02*
X123865476Y-123459619D01*
X123865476Y-123459619D02*
X123941666Y-123535809D01*
X123941666Y-123535809D02*
X124055952Y-123573904D01*
X124055952Y-123573904D02*
X124246428Y-123573904D01*
X123065476Y-122773904D02*
X123446428Y-122773904D01*
X123446428Y-122773904D02*
X123484524Y-123154857D01*
X123484524Y-123154857D02*
X123446428Y-123116761D01*
X123446428Y-123116761D02*
X123370238Y-123078666D01*
X123370238Y-123078666D02*
X123179762Y-123078666D01*
X123179762Y-123078666D02*
X123103571Y-123116761D01*
X123103571Y-123116761D02*
X123065476Y-123154857D01*
X123065476Y-123154857D02*
X123027381Y-123231047D01*
X123027381Y-123231047D02*
X123027381Y-123421523D01*
X123027381Y-123421523D02*
X123065476Y-123497714D01*
X123065476Y-123497714D02*
X123103571Y-123535809D01*
X123103571Y-123535809D02*
X123179762Y-123573904D01*
X123179762Y-123573904D02*
X123370238Y-123573904D01*
X123370238Y-123573904D02*
X123446428Y-123535809D01*
X123446428Y-123535809D02*
X123484524Y-123497714D01*
X122570238Y-123116761D02*
X122646428Y-123078666D01*
X122646428Y-123078666D02*
X122684523Y-123040571D01*
X122684523Y-123040571D02*
X122722619Y-122964380D01*
X122722619Y-122964380D02*
X122722619Y-122926285D01*
X122722619Y-122926285D02*
X122684523Y-122850095D01*
X122684523Y-122850095D02*
X122646428Y-122812000D01*
X122646428Y-122812000D02*
X122570238Y-122773904D01*
X122570238Y-122773904D02*
X122417857Y-122773904D01*
X122417857Y-122773904D02*
X122341666Y-122812000D01*
X122341666Y-122812000D02*
X122303571Y-122850095D01*
X122303571Y-122850095D02*
X122265476Y-122926285D01*
X122265476Y-122926285D02*
X122265476Y-122964380D01*
X122265476Y-122964380D02*
X122303571Y-123040571D01*
X122303571Y-123040571D02*
X122341666Y-123078666D01*
X122341666Y-123078666D02*
X122417857Y-123116761D01*
X122417857Y-123116761D02*
X122570238Y-123116761D01*
X122570238Y-123116761D02*
X122646428Y-123154857D01*
X122646428Y-123154857D02*
X122684523Y-123192952D01*
X122684523Y-123192952D02*
X122722619Y-123269142D01*
X122722619Y-123269142D02*
X122722619Y-123421523D01*
X122722619Y-123421523D02*
X122684523Y-123497714D01*
X122684523Y-123497714D02*
X122646428Y-123535809D01*
X122646428Y-123535809D02*
X122570238Y-123573904D01*
X122570238Y-123573904D02*
X122417857Y-123573904D01*
X122417857Y-123573904D02*
X122341666Y-123535809D01*
X122341666Y-123535809D02*
X122303571Y-123497714D01*
X122303571Y-123497714D02*
X122265476Y-123421523D01*
X122265476Y-123421523D02*
X122265476Y-123269142D01*
X122265476Y-123269142D02*
X122303571Y-123192952D01*
X122303571Y-123192952D02*
X122341666Y-123154857D01*
X122341666Y-123154857D02*
X122417857Y-123116761D01*
%TO.C,D32*%
X105306428Y-85823904D02*
X105306428Y-85023904D01*
X105306428Y-85023904D02*
X105115952Y-85023904D01*
X105115952Y-85023904D02*
X105001666Y-85062000D01*
X105001666Y-85062000D02*
X104925476Y-85138190D01*
X104925476Y-85138190D02*
X104887381Y-85214380D01*
X104887381Y-85214380D02*
X104849285Y-85366761D01*
X104849285Y-85366761D02*
X104849285Y-85481047D01*
X104849285Y-85481047D02*
X104887381Y-85633428D01*
X104887381Y-85633428D02*
X104925476Y-85709619D01*
X104925476Y-85709619D02*
X105001666Y-85785809D01*
X105001666Y-85785809D02*
X105115952Y-85823904D01*
X105115952Y-85823904D02*
X105306428Y-85823904D01*
X104582619Y-85023904D02*
X104087381Y-85023904D01*
X104087381Y-85023904D02*
X104354047Y-85328666D01*
X104354047Y-85328666D02*
X104239762Y-85328666D01*
X104239762Y-85328666D02*
X104163571Y-85366761D01*
X104163571Y-85366761D02*
X104125476Y-85404857D01*
X104125476Y-85404857D02*
X104087381Y-85481047D01*
X104087381Y-85481047D02*
X104087381Y-85671523D01*
X104087381Y-85671523D02*
X104125476Y-85747714D01*
X104125476Y-85747714D02*
X104163571Y-85785809D01*
X104163571Y-85785809D02*
X104239762Y-85823904D01*
X104239762Y-85823904D02*
X104468333Y-85823904D01*
X104468333Y-85823904D02*
X104544524Y-85785809D01*
X104544524Y-85785809D02*
X104582619Y-85747714D01*
X103782619Y-85100095D02*
X103744523Y-85062000D01*
X103744523Y-85062000D02*
X103668333Y-85023904D01*
X103668333Y-85023904D02*
X103477857Y-85023904D01*
X103477857Y-85023904D02*
X103401666Y-85062000D01*
X103401666Y-85062000D02*
X103363571Y-85100095D01*
X103363571Y-85100095D02*
X103325476Y-85176285D01*
X103325476Y-85176285D02*
X103325476Y-85252476D01*
X103325476Y-85252476D02*
X103363571Y-85366761D01*
X103363571Y-85366761D02*
X103820714Y-85823904D01*
X103820714Y-85823904D02*
X103325476Y-85823904D01*
D11*
%TO.C,SW19*%
X123094523Y-54869761D02*
X122951666Y-54917380D01*
X122951666Y-54917380D02*
X122713571Y-54917380D01*
X122713571Y-54917380D02*
X122618333Y-54869761D01*
X122618333Y-54869761D02*
X122570714Y-54822142D01*
X122570714Y-54822142D02*
X122523095Y-54726904D01*
X122523095Y-54726904D02*
X122523095Y-54631666D01*
X122523095Y-54631666D02*
X122570714Y-54536428D01*
X122570714Y-54536428D02*
X122618333Y-54488809D01*
X122618333Y-54488809D02*
X122713571Y-54441190D01*
X122713571Y-54441190D02*
X122904047Y-54393571D01*
X122904047Y-54393571D02*
X122999285Y-54345952D01*
X122999285Y-54345952D02*
X123046904Y-54298333D01*
X123046904Y-54298333D02*
X123094523Y-54203095D01*
X123094523Y-54203095D02*
X123094523Y-54107857D01*
X123094523Y-54107857D02*
X123046904Y-54012619D01*
X123046904Y-54012619D02*
X122999285Y-53965000D01*
X122999285Y-53965000D02*
X122904047Y-53917380D01*
X122904047Y-53917380D02*
X122665952Y-53917380D01*
X122665952Y-53917380D02*
X122523095Y-53965000D01*
X122189761Y-53917380D02*
X121951666Y-54917380D01*
X121951666Y-54917380D02*
X121761190Y-54203095D01*
X121761190Y-54203095D02*
X121570714Y-54917380D01*
X121570714Y-54917380D02*
X121332619Y-53917380D01*
X120427857Y-54917380D02*
X120999285Y-54917380D01*
X120713571Y-54917380D02*
X120713571Y-53917380D01*
X120713571Y-53917380D02*
X120808809Y-54060238D01*
X120808809Y-54060238D02*
X120904047Y-54155476D01*
X120904047Y-54155476D02*
X120999285Y-54203095D01*
X119951666Y-54917380D02*
X119761190Y-54917380D01*
X119761190Y-54917380D02*
X119665952Y-54869761D01*
X119665952Y-54869761D02*
X119618333Y-54822142D01*
X119618333Y-54822142D02*
X119523095Y-54679285D01*
X119523095Y-54679285D02*
X119475476Y-54488809D01*
X119475476Y-54488809D02*
X119475476Y-54107857D01*
X119475476Y-54107857D02*
X119523095Y-54012619D01*
X119523095Y-54012619D02*
X119570714Y-53965000D01*
X119570714Y-53965000D02*
X119665952Y-53917380D01*
X119665952Y-53917380D02*
X119856428Y-53917380D01*
X119856428Y-53917380D02*
X119951666Y-53965000D01*
X119951666Y-53965000D02*
X119999285Y-54012619D01*
X119999285Y-54012619D02*
X120046904Y-54107857D01*
X120046904Y-54107857D02*
X120046904Y-54345952D01*
X120046904Y-54345952D02*
X119999285Y-54441190D01*
X119999285Y-54441190D02*
X119951666Y-54488809D01*
X119951666Y-54488809D02*
X119856428Y-54536428D01*
X119856428Y-54536428D02*
X119665952Y-54536428D01*
X119665952Y-54536428D02*
X119570714Y-54488809D01*
X119570714Y-54488809D02*
X119523095Y-54441190D01*
X119523095Y-54441190D02*
X119475476Y-54345952D01*
D12*
%TO.C,D35*%
X162391428Y-85823904D02*
X162391428Y-85023904D01*
X162391428Y-85023904D02*
X162200952Y-85023904D01*
X162200952Y-85023904D02*
X162086666Y-85062000D01*
X162086666Y-85062000D02*
X162010476Y-85138190D01*
X162010476Y-85138190D02*
X161972381Y-85214380D01*
X161972381Y-85214380D02*
X161934285Y-85366761D01*
X161934285Y-85366761D02*
X161934285Y-85481047D01*
X161934285Y-85481047D02*
X161972381Y-85633428D01*
X161972381Y-85633428D02*
X162010476Y-85709619D01*
X162010476Y-85709619D02*
X162086666Y-85785809D01*
X162086666Y-85785809D02*
X162200952Y-85823904D01*
X162200952Y-85823904D02*
X162391428Y-85823904D01*
X161667619Y-85023904D02*
X161172381Y-85023904D01*
X161172381Y-85023904D02*
X161439047Y-85328666D01*
X161439047Y-85328666D02*
X161324762Y-85328666D01*
X161324762Y-85328666D02*
X161248571Y-85366761D01*
X161248571Y-85366761D02*
X161210476Y-85404857D01*
X161210476Y-85404857D02*
X161172381Y-85481047D01*
X161172381Y-85481047D02*
X161172381Y-85671523D01*
X161172381Y-85671523D02*
X161210476Y-85747714D01*
X161210476Y-85747714D02*
X161248571Y-85785809D01*
X161248571Y-85785809D02*
X161324762Y-85823904D01*
X161324762Y-85823904D02*
X161553333Y-85823904D01*
X161553333Y-85823904D02*
X161629524Y-85785809D01*
X161629524Y-85785809D02*
X161667619Y-85747714D01*
X160448571Y-85023904D02*
X160829523Y-85023904D01*
X160829523Y-85023904D02*
X160867619Y-85404857D01*
X160867619Y-85404857D02*
X160829523Y-85366761D01*
X160829523Y-85366761D02*
X160753333Y-85328666D01*
X160753333Y-85328666D02*
X160562857Y-85328666D01*
X160562857Y-85328666D02*
X160486666Y-85366761D01*
X160486666Y-85366761D02*
X160448571Y-85404857D01*
X160448571Y-85404857D02*
X160410476Y-85481047D01*
X160410476Y-85481047D02*
X160410476Y-85671523D01*
X160410476Y-85671523D02*
X160448571Y-85747714D01*
X160448571Y-85747714D02*
X160486666Y-85785809D01*
X160486666Y-85785809D02*
X160562857Y-85823904D01*
X160562857Y-85823904D02*
X160753333Y-85823904D01*
X160753333Y-85823904D02*
X160829523Y-85785809D01*
X160829523Y-85785809D02*
X160867619Y-85747714D01*
%TO.C,D46*%
X105306428Y-104603904D02*
X105306428Y-103803904D01*
X105306428Y-103803904D02*
X105115952Y-103803904D01*
X105115952Y-103803904D02*
X105001666Y-103842000D01*
X105001666Y-103842000D02*
X104925476Y-103918190D01*
X104925476Y-103918190D02*
X104887381Y-103994380D01*
X104887381Y-103994380D02*
X104849285Y-104146761D01*
X104849285Y-104146761D02*
X104849285Y-104261047D01*
X104849285Y-104261047D02*
X104887381Y-104413428D01*
X104887381Y-104413428D02*
X104925476Y-104489619D01*
X104925476Y-104489619D02*
X105001666Y-104565809D01*
X105001666Y-104565809D02*
X105115952Y-104603904D01*
X105115952Y-104603904D02*
X105306428Y-104603904D01*
X104163571Y-104070571D02*
X104163571Y-104603904D01*
X104354047Y-103765809D02*
X104544524Y-104337238D01*
X104544524Y-104337238D02*
X104049285Y-104337238D01*
X103401666Y-103803904D02*
X103554047Y-103803904D01*
X103554047Y-103803904D02*
X103630238Y-103842000D01*
X103630238Y-103842000D02*
X103668333Y-103880095D01*
X103668333Y-103880095D02*
X103744523Y-103994380D01*
X103744523Y-103994380D02*
X103782619Y-104146761D01*
X103782619Y-104146761D02*
X103782619Y-104451523D01*
X103782619Y-104451523D02*
X103744523Y-104527714D01*
X103744523Y-104527714D02*
X103706428Y-104565809D01*
X103706428Y-104565809D02*
X103630238Y-104603904D01*
X103630238Y-104603904D02*
X103477857Y-104603904D01*
X103477857Y-104603904D02*
X103401666Y-104565809D01*
X103401666Y-104565809D02*
X103363571Y-104527714D01*
X103363571Y-104527714D02*
X103325476Y-104451523D01*
X103325476Y-104451523D02*
X103325476Y-104261047D01*
X103325476Y-104261047D02*
X103363571Y-104184857D01*
X103363571Y-104184857D02*
X103401666Y-104146761D01*
X103401666Y-104146761D02*
X103477857Y-104108666D01*
X103477857Y-104108666D02*
X103630238Y-104108666D01*
X103630238Y-104108666D02*
X103706428Y-104146761D01*
X103706428Y-104146761D02*
X103744523Y-104184857D01*
X103744523Y-104184857D02*
X103782619Y-104261047D01*
%TO.C,D34*%
X143316428Y-85923904D02*
X143316428Y-85123904D01*
X143316428Y-85123904D02*
X143125952Y-85123904D01*
X143125952Y-85123904D02*
X143011666Y-85162000D01*
X143011666Y-85162000D02*
X142935476Y-85238190D01*
X142935476Y-85238190D02*
X142897381Y-85314380D01*
X142897381Y-85314380D02*
X142859285Y-85466761D01*
X142859285Y-85466761D02*
X142859285Y-85581047D01*
X142859285Y-85581047D02*
X142897381Y-85733428D01*
X142897381Y-85733428D02*
X142935476Y-85809619D01*
X142935476Y-85809619D02*
X143011666Y-85885809D01*
X143011666Y-85885809D02*
X143125952Y-85923904D01*
X143125952Y-85923904D02*
X143316428Y-85923904D01*
X142592619Y-85123904D02*
X142097381Y-85123904D01*
X142097381Y-85123904D02*
X142364047Y-85428666D01*
X142364047Y-85428666D02*
X142249762Y-85428666D01*
X142249762Y-85428666D02*
X142173571Y-85466761D01*
X142173571Y-85466761D02*
X142135476Y-85504857D01*
X142135476Y-85504857D02*
X142097381Y-85581047D01*
X142097381Y-85581047D02*
X142097381Y-85771523D01*
X142097381Y-85771523D02*
X142135476Y-85847714D01*
X142135476Y-85847714D02*
X142173571Y-85885809D01*
X142173571Y-85885809D02*
X142249762Y-85923904D01*
X142249762Y-85923904D02*
X142478333Y-85923904D01*
X142478333Y-85923904D02*
X142554524Y-85885809D01*
X142554524Y-85885809D02*
X142592619Y-85847714D01*
X141411666Y-85390571D02*
X141411666Y-85923904D01*
X141602142Y-85085809D02*
X141792619Y-85657238D01*
X141792619Y-85657238D02*
X141297380Y-85657238D01*
D11*
%TO.C,SW43*%
X46894523Y-93089761D02*
X46751666Y-93137380D01*
X46751666Y-93137380D02*
X46513571Y-93137380D01*
X46513571Y-93137380D02*
X46418333Y-93089761D01*
X46418333Y-93089761D02*
X46370714Y-93042142D01*
X46370714Y-93042142D02*
X46323095Y-92946904D01*
X46323095Y-92946904D02*
X46323095Y-92851666D01*
X46323095Y-92851666D02*
X46370714Y-92756428D01*
X46370714Y-92756428D02*
X46418333Y-92708809D01*
X46418333Y-92708809D02*
X46513571Y-92661190D01*
X46513571Y-92661190D02*
X46704047Y-92613571D01*
X46704047Y-92613571D02*
X46799285Y-92565952D01*
X46799285Y-92565952D02*
X46846904Y-92518333D01*
X46846904Y-92518333D02*
X46894523Y-92423095D01*
X46894523Y-92423095D02*
X46894523Y-92327857D01*
X46894523Y-92327857D02*
X46846904Y-92232619D01*
X46846904Y-92232619D02*
X46799285Y-92185000D01*
X46799285Y-92185000D02*
X46704047Y-92137380D01*
X46704047Y-92137380D02*
X46465952Y-92137380D01*
X46465952Y-92137380D02*
X46323095Y-92185000D01*
X45989761Y-92137380D02*
X45751666Y-93137380D01*
X45751666Y-93137380D02*
X45561190Y-92423095D01*
X45561190Y-92423095D02*
X45370714Y-93137380D01*
X45370714Y-93137380D02*
X45132619Y-92137380D01*
X44323095Y-92470714D02*
X44323095Y-93137380D01*
X44561190Y-92089761D02*
X44799285Y-92804047D01*
X44799285Y-92804047D02*
X44180238Y-92804047D01*
X43894523Y-92137380D02*
X43275476Y-92137380D01*
X43275476Y-92137380D02*
X43608809Y-92518333D01*
X43608809Y-92518333D02*
X43465952Y-92518333D01*
X43465952Y-92518333D02*
X43370714Y-92565952D01*
X43370714Y-92565952D02*
X43323095Y-92613571D01*
X43323095Y-92613571D02*
X43275476Y-92708809D01*
X43275476Y-92708809D02*
X43275476Y-92946904D01*
X43275476Y-92946904D02*
X43323095Y-93042142D01*
X43323095Y-93042142D02*
X43370714Y-93089761D01*
X43370714Y-93089761D02*
X43465952Y-93137380D01*
X43465952Y-93137380D02*
X43751666Y-93137380D01*
X43751666Y-93137380D02*
X43846904Y-93089761D01*
X43846904Y-93089761D02*
X43894523Y-93042142D01*
%TO.C,SW47*%
X123094523Y-93089761D02*
X122951666Y-93137380D01*
X122951666Y-93137380D02*
X122713571Y-93137380D01*
X122713571Y-93137380D02*
X122618333Y-93089761D01*
X122618333Y-93089761D02*
X122570714Y-93042142D01*
X122570714Y-93042142D02*
X122523095Y-92946904D01*
X122523095Y-92946904D02*
X122523095Y-92851666D01*
X122523095Y-92851666D02*
X122570714Y-92756428D01*
X122570714Y-92756428D02*
X122618333Y-92708809D01*
X122618333Y-92708809D02*
X122713571Y-92661190D01*
X122713571Y-92661190D02*
X122904047Y-92613571D01*
X122904047Y-92613571D02*
X122999285Y-92565952D01*
X122999285Y-92565952D02*
X123046904Y-92518333D01*
X123046904Y-92518333D02*
X123094523Y-92423095D01*
X123094523Y-92423095D02*
X123094523Y-92327857D01*
X123094523Y-92327857D02*
X123046904Y-92232619D01*
X123046904Y-92232619D02*
X122999285Y-92185000D01*
X122999285Y-92185000D02*
X122904047Y-92137380D01*
X122904047Y-92137380D02*
X122665952Y-92137380D01*
X122665952Y-92137380D02*
X122523095Y-92185000D01*
X122189761Y-92137380D02*
X121951666Y-93137380D01*
X121951666Y-93137380D02*
X121761190Y-92423095D01*
X121761190Y-92423095D02*
X121570714Y-93137380D01*
X121570714Y-93137380D02*
X121332619Y-92137380D01*
X120523095Y-92470714D02*
X120523095Y-93137380D01*
X120761190Y-92089761D02*
X120999285Y-92804047D01*
X120999285Y-92804047D02*
X120380238Y-92804047D01*
X120094523Y-92137380D02*
X119427857Y-92137380D01*
X119427857Y-92137380D02*
X119856428Y-93137380D01*
D12*
%TO.C,D2*%
X66725475Y-47373904D02*
X66725475Y-46573904D01*
X66725475Y-46573904D02*
X66534999Y-46573904D01*
X66534999Y-46573904D02*
X66420713Y-46612000D01*
X66420713Y-46612000D02*
X66344523Y-46688190D01*
X66344523Y-46688190D02*
X66306428Y-46764380D01*
X66306428Y-46764380D02*
X66268332Y-46916761D01*
X66268332Y-46916761D02*
X66268332Y-47031047D01*
X66268332Y-47031047D02*
X66306428Y-47183428D01*
X66306428Y-47183428D02*
X66344523Y-47259619D01*
X66344523Y-47259619D02*
X66420713Y-47335809D01*
X66420713Y-47335809D02*
X66534999Y-47373904D01*
X66534999Y-47373904D02*
X66725475Y-47373904D01*
X65963571Y-46650095D02*
X65925475Y-46612000D01*
X65925475Y-46612000D02*
X65849285Y-46573904D01*
X65849285Y-46573904D02*
X65658809Y-46573904D01*
X65658809Y-46573904D02*
X65582618Y-46612000D01*
X65582618Y-46612000D02*
X65544523Y-46650095D01*
X65544523Y-46650095D02*
X65506428Y-46726285D01*
X65506428Y-46726285D02*
X65506428Y-46802476D01*
X65506428Y-46802476D02*
X65544523Y-46916761D01*
X65544523Y-46916761D02*
X66001666Y-47373904D01*
X66001666Y-47373904D02*
X65506428Y-47373904D01*
D11*
%TO.C,SW35*%
X161194523Y-73919761D02*
X161051666Y-73967380D01*
X161051666Y-73967380D02*
X160813571Y-73967380D01*
X160813571Y-73967380D02*
X160718333Y-73919761D01*
X160718333Y-73919761D02*
X160670714Y-73872142D01*
X160670714Y-73872142D02*
X160623095Y-73776904D01*
X160623095Y-73776904D02*
X160623095Y-73681666D01*
X160623095Y-73681666D02*
X160670714Y-73586428D01*
X160670714Y-73586428D02*
X160718333Y-73538809D01*
X160718333Y-73538809D02*
X160813571Y-73491190D01*
X160813571Y-73491190D02*
X161004047Y-73443571D01*
X161004047Y-73443571D02*
X161099285Y-73395952D01*
X161099285Y-73395952D02*
X161146904Y-73348333D01*
X161146904Y-73348333D02*
X161194523Y-73253095D01*
X161194523Y-73253095D02*
X161194523Y-73157857D01*
X161194523Y-73157857D02*
X161146904Y-73062619D01*
X161146904Y-73062619D02*
X161099285Y-73015000D01*
X161099285Y-73015000D02*
X161004047Y-72967380D01*
X161004047Y-72967380D02*
X160765952Y-72967380D01*
X160765952Y-72967380D02*
X160623095Y-73015000D01*
X160289761Y-72967380D02*
X160051666Y-73967380D01*
X160051666Y-73967380D02*
X159861190Y-73253095D01*
X159861190Y-73253095D02*
X159670714Y-73967380D01*
X159670714Y-73967380D02*
X159432619Y-72967380D01*
X159146904Y-72967380D02*
X158527857Y-72967380D01*
X158527857Y-72967380D02*
X158861190Y-73348333D01*
X158861190Y-73348333D02*
X158718333Y-73348333D01*
X158718333Y-73348333D02*
X158623095Y-73395952D01*
X158623095Y-73395952D02*
X158575476Y-73443571D01*
X158575476Y-73443571D02*
X158527857Y-73538809D01*
X158527857Y-73538809D02*
X158527857Y-73776904D01*
X158527857Y-73776904D02*
X158575476Y-73872142D01*
X158575476Y-73872142D02*
X158623095Y-73919761D01*
X158623095Y-73919761D02*
X158718333Y-73967380D01*
X158718333Y-73967380D02*
X159004047Y-73967380D01*
X159004047Y-73967380D02*
X159099285Y-73919761D01*
X159099285Y-73919761D02*
X159146904Y-73872142D01*
X157623095Y-72967380D02*
X158099285Y-72967380D01*
X158099285Y-72967380D02*
X158146904Y-73443571D01*
X158146904Y-73443571D02*
X158099285Y-73395952D01*
X158099285Y-73395952D02*
X158004047Y-73348333D01*
X158004047Y-73348333D02*
X157765952Y-73348333D01*
X157765952Y-73348333D02*
X157670714Y-73395952D01*
X157670714Y-73395952D02*
X157623095Y-73443571D01*
X157623095Y-73443571D02*
X157575476Y-73538809D01*
X157575476Y-73538809D02*
X157575476Y-73776904D01*
X157575476Y-73776904D02*
X157623095Y-73872142D01*
X157623095Y-73872142D02*
X157670714Y-73919761D01*
X157670714Y-73919761D02*
X157765952Y-73967380D01*
X157765952Y-73967380D02*
X158004047Y-73967380D01*
X158004047Y-73967380D02*
X158099285Y-73919761D01*
X158099285Y-73919761D02*
X158146904Y-73872142D01*
D12*
%TO.C,D31*%
X86256428Y-85823904D02*
X86256428Y-85023904D01*
X86256428Y-85023904D02*
X86065952Y-85023904D01*
X86065952Y-85023904D02*
X85951666Y-85062000D01*
X85951666Y-85062000D02*
X85875476Y-85138190D01*
X85875476Y-85138190D02*
X85837381Y-85214380D01*
X85837381Y-85214380D02*
X85799285Y-85366761D01*
X85799285Y-85366761D02*
X85799285Y-85481047D01*
X85799285Y-85481047D02*
X85837381Y-85633428D01*
X85837381Y-85633428D02*
X85875476Y-85709619D01*
X85875476Y-85709619D02*
X85951666Y-85785809D01*
X85951666Y-85785809D02*
X86065952Y-85823904D01*
X86065952Y-85823904D02*
X86256428Y-85823904D01*
X85532619Y-85023904D02*
X85037381Y-85023904D01*
X85037381Y-85023904D02*
X85304047Y-85328666D01*
X85304047Y-85328666D02*
X85189762Y-85328666D01*
X85189762Y-85328666D02*
X85113571Y-85366761D01*
X85113571Y-85366761D02*
X85075476Y-85404857D01*
X85075476Y-85404857D02*
X85037381Y-85481047D01*
X85037381Y-85481047D02*
X85037381Y-85671523D01*
X85037381Y-85671523D02*
X85075476Y-85747714D01*
X85075476Y-85747714D02*
X85113571Y-85785809D01*
X85113571Y-85785809D02*
X85189762Y-85823904D01*
X85189762Y-85823904D02*
X85418333Y-85823904D01*
X85418333Y-85823904D02*
X85494524Y-85785809D01*
X85494524Y-85785809D02*
X85532619Y-85747714D01*
X84275476Y-85823904D02*
X84732619Y-85823904D01*
X84504047Y-85823904D02*
X84504047Y-85023904D01*
X84504047Y-85023904D02*
X84580238Y-85138190D01*
X84580238Y-85138190D02*
X84656428Y-85214380D01*
X84656428Y-85214380D02*
X84732619Y-85252476D01*
D11*
%TO.C,SW30*%
X65874523Y-73919761D02*
X65731666Y-73967380D01*
X65731666Y-73967380D02*
X65493571Y-73967380D01*
X65493571Y-73967380D02*
X65398333Y-73919761D01*
X65398333Y-73919761D02*
X65350714Y-73872142D01*
X65350714Y-73872142D02*
X65303095Y-73776904D01*
X65303095Y-73776904D02*
X65303095Y-73681666D01*
X65303095Y-73681666D02*
X65350714Y-73586428D01*
X65350714Y-73586428D02*
X65398333Y-73538809D01*
X65398333Y-73538809D02*
X65493571Y-73491190D01*
X65493571Y-73491190D02*
X65684047Y-73443571D01*
X65684047Y-73443571D02*
X65779285Y-73395952D01*
X65779285Y-73395952D02*
X65826904Y-73348333D01*
X65826904Y-73348333D02*
X65874523Y-73253095D01*
X65874523Y-73253095D02*
X65874523Y-73157857D01*
X65874523Y-73157857D02*
X65826904Y-73062619D01*
X65826904Y-73062619D02*
X65779285Y-73015000D01*
X65779285Y-73015000D02*
X65684047Y-72967380D01*
X65684047Y-72967380D02*
X65445952Y-72967380D01*
X65445952Y-72967380D02*
X65303095Y-73015000D01*
X64969761Y-72967380D02*
X64731666Y-73967380D01*
X64731666Y-73967380D02*
X64541190Y-73253095D01*
X64541190Y-73253095D02*
X64350714Y-73967380D01*
X64350714Y-73967380D02*
X64112619Y-72967380D01*
X63826904Y-72967380D02*
X63207857Y-72967380D01*
X63207857Y-72967380D02*
X63541190Y-73348333D01*
X63541190Y-73348333D02*
X63398333Y-73348333D01*
X63398333Y-73348333D02*
X63303095Y-73395952D01*
X63303095Y-73395952D02*
X63255476Y-73443571D01*
X63255476Y-73443571D02*
X63207857Y-73538809D01*
X63207857Y-73538809D02*
X63207857Y-73776904D01*
X63207857Y-73776904D02*
X63255476Y-73872142D01*
X63255476Y-73872142D02*
X63303095Y-73919761D01*
X63303095Y-73919761D02*
X63398333Y-73967380D01*
X63398333Y-73967380D02*
X63684047Y-73967380D01*
X63684047Y-73967380D02*
X63779285Y-73919761D01*
X63779285Y-73919761D02*
X63826904Y-73872142D01*
X62588809Y-72967380D02*
X62493571Y-72967380D01*
X62493571Y-72967380D02*
X62398333Y-73015000D01*
X62398333Y-73015000D02*
X62350714Y-73062619D01*
X62350714Y-73062619D02*
X62303095Y-73157857D01*
X62303095Y-73157857D02*
X62255476Y-73348333D01*
X62255476Y-73348333D02*
X62255476Y-73586428D01*
X62255476Y-73586428D02*
X62303095Y-73776904D01*
X62303095Y-73776904D02*
X62350714Y-73872142D01*
X62350714Y-73872142D02*
X62398333Y-73919761D01*
X62398333Y-73919761D02*
X62493571Y-73967380D01*
X62493571Y-73967380D02*
X62588809Y-73967380D01*
X62588809Y-73967380D02*
X62684047Y-73919761D01*
X62684047Y-73919761D02*
X62731666Y-73872142D01*
X62731666Y-73872142D02*
X62779285Y-73776904D01*
X62779285Y-73776904D02*
X62826904Y-73586428D01*
X62826904Y-73586428D02*
X62826904Y-73348333D01*
X62826904Y-73348333D02*
X62779285Y-73157857D01*
X62779285Y-73157857D02*
X62731666Y-73062619D01*
X62731666Y-73062619D02*
X62684047Y-73015000D01*
X62684047Y-73015000D02*
X62588809Y-72967380D01*
D12*
%TO.C,D59*%
X143316428Y-123573904D02*
X143316428Y-122773904D01*
X143316428Y-122773904D02*
X143125952Y-122773904D01*
X143125952Y-122773904D02*
X143011666Y-122812000D01*
X143011666Y-122812000D02*
X142935476Y-122888190D01*
X142935476Y-122888190D02*
X142897381Y-122964380D01*
X142897381Y-122964380D02*
X142859285Y-123116761D01*
X142859285Y-123116761D02*
X142859285Y-123231047D01*
X142859285Y-123231047D02*
X142897381Y-123383428D01*
X142897381Y-123383428D02*
X142935476Y-123459619D01*
X142935476Y-123459619D02*
X143011666Y-123535809D01*
X143011666Y-123535809D02*
X143125952Y-123573904D01*
X143125952Y-123573904D02*
X143316428Y-123573904D01*
X142135476Y-122773904D02*
X142516428Y-122773904D01*
X142516428Y-122773904D02*
X142554524Y-123154857D01*
X142554524Y-123154857D02*
X142516428Y-123116761D01*
X142516428Y-123116761D02*
X142440238Y-123078666D01*
X142440238Y-123078666D02*
X142249762Y-123078666D01*
X142249762Y-123078666D02*
X142173571Y-123116761D01*
X142173571Y-123116761D02*
X142135476Y-123154857D01*
X142135476Y-123154857D02*
X142097381Y-123231047D01*
X142097381Y-123231047D02*
X142097381Y-123421523D01*
X142097381Y-123421523D02*
X142135476Y-123497714D01*
X142135476Y-123497714D02*
X142173571Y-123535809D01*
X142173571Y-123535809D02*
X142249762Y-123573904D01*
X142249762Y-123573904D02*
X142440238Y-123573904D01*
X142440238Y-123573904D02*
X142516428Y-123535809D01*
X142516428Y-123535809D02*
X142554524Y-123497714D01*
X141716428Y-123573904D02*
X141564047Y-123573904D01*
X141564047Y-123573904D02*
X141487857Y-123535809D01*
X141487857Y-123535809D02*
X141449761Y-123497714D01*
X141449761Y-123497714D02*
X141373571Y-123383428D01*
X141373571Y-123383428D02*
X141335476Y-123231047D01*
X141335476Y-123231047D02*
X141335476Y-122926285D01*
X141335476Y-122926285D02*
X141373571Y-122850095D01*
X141373571Y-122850095D02*
X141411666Y-122812000D01*
X141411666Y-122812000D02*
X141487857Y-122773904D01*
X141487857Y-122773904D02*
X141640238Y-122773904D01*
X141640238Y-122773904D02*
X141716428Y-122812000D01*
X141716428Y-122812000D02*
X141754523Y-122850095D01*
X141754523Y-122850095D02*
X141792619Y-122926285D01*
X141792619Y-122926285D02*
X141792619Y-123116761D01*
X141792619Y-123116761D02*
X141754523Y-123192952D01*
X141754523Y-123192952D02*
X141716428Y-123231047D01*
X141716428Y-123231047D02*
X141640238Y-123269142D01*
X141640238Y-123269142D02*
X141487857Y-123269142D01*
X141487857Y-123269142D02*
X141411666Y-123231047D01*
X141411666Y-123231047D02*
X141373571Y-123192952D01*
X141373571Y-123192952D02*
X141335476Y-123116761D01*
D11*
%TO.C,SW33*%
X123094523Y-73919761D02*
X122951666Y-73967380D01*
X122951666Y-73967380D02*
X122713571Y-73967380D01*
X122713571Y-73967380D02*
X122618333Y-73919761D01*
X122618333Y-73919761D02*
X122570714Y-73872142D01*
X122570714Y-73872142D02*
X122523095Y-73776904D01*
X122523095Y-73776904D02*
X122523095Y-73681666D01*
X122523095Y-73681666D02*
X122570714Y-73586428D01*
X122570714Y-73586428D02*
X122618333Y-73538809D01*
X122618333Y-73538809D02*
X122713571Y-73491190D01*
X122713571Y-73491190D02*
X122904047Y-73443571D01*
X122904047Y-73443571D02*
X122999285Y-73395952D01*
X122999285Y-73395952D02*
X123046904Y-73348333D01*
X123046904Y-73348333D02*
X123094523Y-73253095D01*
X123094523Y-73253095D02*
X123094523Y-73157857D01*
X123094523Y-73157857D02*
X123046904Y-73062619D01*
X123046904Y-73062619D02*
X122999285Y-73015000D01*
X122999285Y-73015000D02*
X122904047Y-72967380D01*
X122904047Y-72967380D02*
X122665952Y-72967380D01*
X122665952Y-72967380D02*
X122523095Y-73015000D01*
X122189761Y-72967380D02*
X121951666Y-73967380D01*
X121951666Y-73967380D02*
X121761190Y-73253095D01*
X121761190Y-73253095D02*
X121570714Y-73967380D01*
X121570714Y-73967380D02*
X121332619Y-72967380D01*
X121046904Y-72967380D02*
X120427857Y-72967380D01*
X120427857Y-72967380D02*
X120761190Y-73348333D01*
X120761190Y-73348333D02*
X120618333Y-73348333D01*
X120618333Y-73348333D02*
X120523095Y-73395952D01*
X120523095Y-73395952D02*
X120475476Y-73443571D01*
X120475476Y-73443571D02*
X120427857Y-73538809D01*
X120427857Y-73538809D02*
X120427857Y-73776904D01*
X120427857Y-73776904D02*
X120475476Y-73872142D01*
X120475476Y-73872142D02*
X120523095Y-73919761D01*
X120523095Y-73919761D02*
X120618333Y-73967380D01*
X120618333Y-73967380D02*
X120904047Y-73967380D01*
X120904047Y-73967380D02*
X120999285Y-73919761D01*
X120999285Y-73919761D02*
X121046904Y-73872142D01*
X120094523Y-72967380D02*
X119475476Y-72967380D01*
X119475476Y-72967380D02*
X119808809Y-73348333D01*
X119808809Y-73348333D02*
X119665952Y-73348333D01*
X119665952Y-73348333D02*
X119570714Y-73395952D01*
X119570714Y-73395952D02*
X119523095Y-73443571D01*
X119523095Y-73443571D02*
X119475476Y-73538809D01*
X119475476Y-73538809D02*
X119475476Y-73776904D01*
X119475476Y-73776904D02*
X119523095Y-73872142D01*
X119523095Y-73872142D02*
X119570714Y-73919761D01*
X119570714Y-73919761D02*
X119665952Y-73967380D01*
X119665952Y-73967380D02*
X119951666Y-73967380D01*
X119951666Y-73967380D02*
X120046904Y-73919761D01*
X120046904Y-73919761D02*
X120094523Y-73872142D01*
D12*
%TO.C,D5*%
X123865475Y-47473904D02*
X123865475Y-46673904D01*
X123865475Y-46673904D02*
X123674999Y-46673904D01*
X123674999Y-46673904D02*
X123560713Y-46712000D01*
X123560713Y-46712000D02*
X123484523Y-46788190D01*
X123484523Y-46788190D02*
X123446428Y-46864380D01*
X123446428Y-46864380D02*
X123408332Y-47016761D01*
X123408332Y-47016761D02*
X123408332Y-47131047D01*
X123408332Y-47131047D02*
X123446428Y-47283428D01*
X123446428Y-47283428D02*
X123484523Y-47359619D01*
X123484523Y-47359619D02*
X123560713Y-47435809D01*
X123560713Y-47435809D02*
X123674999Y-47473904D01*
X123674999Y-47473904D02*
X123865475Y-47473904D01*
X122684523Y-46673904D02*
X123065475Y-46673904D01*
X123065475Y-46673904D02*
X123103571Y-47054857D01*
X123103571Y-47054857D02*
X123065475Y-47016761D01*
X123065475Y-47016761D02*
X122989285Y-46978666D01*
X122989285Y-46978666D02*
X122798809Y-46978666D01*
X122798809Y-46978666D02*
X122722618Y-47016761D01*
X122722618Y-47016761D02*
X122684523Y-47054857D01*
X122684523Y-47054857D02*
X122646428Y-47131047D01*
X122646428Y-47131047D02*
X122646428Y-47321523D01*
X122646428Y-47321523D02*
X122684523Y-47397714D01*
X122684523Y-47397714D02*
X122722618Y-47435809D01*
X122722618Y-47435809D02*
X122798809Y-47473904D01*
X122798809Y-47473904D02*
X122989285Y-47473904D01*
X122989285Y-47473904D02*
X123065475Y-47435809D01*
X123065475Y-47435809D02*
X123103571Y-47397714D01*
%TO.C,D4*%
X104925475Y-47473904D02*
X104925475Y-46673904D01*
X104925475Y-46673904D02*
X104734999Y-46673904D01*
X104734999Y-46673904D02*
X104620713Y-46712000D01*
X104620713Y-46712000D02*
X104544523Y-46788190D01*
X104544523Y-46788190D02*
X104506428Y-46864380D01*
X104506428Y-46864380D02*
X104468332Y-47016761D01*
X104468332Y-47016761D02*
X104468332Y-47131047D01*
X104468332Y-47131047D02*
X104506428Y-47283428D01*
X104506428Y-47283428D02*
X104544523Y-47359619D01*
X104544523Y-47359619D02*
X104620713Y-47435809D01*
X104620713Y-47435809D02*
X104734999Y-47473904D01*
X104734999Y-47473904D02*
X104925475Y-47473904D01*
X103782618Y-46940571D02*
X103782618Y-47473904D01*
X103973094Y-46635809D02*
X104163571Y-47207238D01*
X104163571Y-47207238D02*
X103668332Y-47207238D01*
%TO.C,D7*%
X162010475Y-47373904D02*
X162010475Y-46573904D01*
X162010475Y-46573904D02*
X161819999Y-46573904D01*
X161819999Y-46573904D02*
X161705713Y-46612000D01*
X161705713Y-46612000D02*
X161629523Y-46688190D01*
X161629523Y-46688190D02*
X161591428Y-46764380D01*
X161591428Y-46764380D02*
X161553332Y-46916761D01*
X161553332Y-46916761D02*
X161553332Y-47031047D01*
X161553332Y-47031047D02*
X161591428Y-47183428D01*
X161591428Y-47183428D02*
X161629523Y-47259619D01*
X161629523Y-47259619D02*
X161705713Y-47335809D01*
X161705713Y-47335809D02*
X161819999Y-47373904D01*
X161819999Y-47373904D02*
X162010475Y-47373904D01*
X161286666Y-46573904D02*
X160753332Y-46573904D01*
X160753332Y-46573904D02*
X161096190Y-47373904D01*
D11*
%TO.C,SW6*%
X141668332Y-35819761D02*
X141525475Y-35867380D01*
X141525475Y-35867380D02*
X141287380Y-35867380D01*
X141287380Y-35867380D02*
X141192142Y-35819761D01*
X141192142Y-35819761D02*
X141144523Y-35772142D01*
X141144523Y-35772142D02*
X141096904Y-35676904D01*
X141096904Y-35676904D02*
X141096904Y-35581666D01*
X141096904Y-35581666D02*
X141144523Y-35486428D01*
X141144523Y-35486428D02*
X141192142Y-35438809D01*
X141192142Y-35438809D02*
X141287380Y-35391190D01*
X141287380Y-35391190D02*
X141477856Y-35343571D01*
X141477856Y-35343571D02*
X141573094Y-35295952D01*
X141573094Y-35295952D02*
X141620713Y-35248333D01*
X141620713Y-35248333D02*
X141668332Y-35153095D01*
X141668332Y-35153095D02*
X141668332Y-35057857D01*
X141668332Y-35057857D02*
X141620713Y-34962619D01*
X141620713Y-34962619D02*
X141573094Y-34915000D01*
X141573094Y-34915000D02*
X141477856Y-34867380D01*
X141477856Y-34867380D02*
X141239761Y-34867380D01*
X141239761Y-34867380D02*
X141096904Y-34915000D01*
X140763570Y-34867380D02*
X140525475Y-35867380D01*
X140525475Y-35867380D02*
X140334999Y-35153095D01*
X140334999Y-35153095D02*
X140144523Y-35867380D01*
X140144523Y-35867380D02*
X139906428Y-34867380D01*
X139096904Y-34867380D02*
X139287380Y-34867380D01*
X139287380Y-34867380D02*
X139382618Y-34915000D01*
X139382618Y-34915000D02*
X139430237Y-34962619D01*
X139430237Y-34962619D02*
X139525475Y-35105476D01*
X139525475Y-35105476D02*
X139573094Y-35295952D01*
X139573094Y-35295952D02*
X139573094Y-35676904D01*
X139573094Y-35676904D02*
X139525475Y-35772142D01*
X139525475Y-35772142D02*
X139477856Y-35819761D01*
X139477856Y-35819761D02*
X139382618Y-35867380D01*
X139382618Y-35867380D02*
X139192142Y-35867380D01*
X139192142Y-35867380D02*
X139096904Y-35819761D01*
X139096904Y-35819761D02*
X139049285Y-35772142D01*
X139049285Y-35772142D02*
X139001666Y-35676904D01*
X139001666Y-35676904D02*
X139001666Y-35438809D01*
X139001666Y-35438809D02*
X139049285Y-35343571D01*
X139049285Y-35343571D02*
X139096904Y-35295952D01*
X139096904Y-35295952D02*
X139192142Y-35248333D01*
X139192142Y-35248333D02*
X139382618Y-35248333D01*
X139382618Y-35248333D02*
X139477856Y-35295952D01*
X139477856Y-35295952D02*
X139525475Y-35343571D01*
X139525475Y-35343571D02*
X139573094Y-35438809D01*
%TO.C,SW44*%
X65874523Y-93089761D02*
X65731666Y-93137380D01*
X65731666Y-93137380D02*
X65493571Y-93137380D01*
X65493571Y-93137380D02*
X65398333Y-93089761D01*
X65398333Y-93089761D02*
X65350714Y-93042142D01*
X65350714Y-93042142D02*
X65303095Y-92946904D01*
X65303095Y-92946904D02*
X65303095Y-92851666D01*
X65303095Y-92851666D02*
X65350714Y-92756428D01*
X65350714Y-92756428D02*
X65398333Y-92708809D01*
X65398333Y-92708809D02*
X65493571Y-92661190D01*
X65493571Y-92661190D02*
X65684047Y-92613571D01*
X65684047Y-92613571D02*
X65779285Y-92565952D01*
X65779285Y-92565952D02*
X65826904Y-92518333D01*
X65826904Y-92518333D02*
X65874523Y-92423095D01*
X65874523Y-92423095D02*
X65874523Y-92327857D01*
X65874523Y-92327857D02*
X65826904Y-92232619D01*
X65826904Y-92232619D02*
X65779285Y-92185000D01*
X65779285Y-92185000D02*
X65684047Y-92137380D01*
X65684047Y-92137380D02*
X65445952Y-92137380D01*
X65445952Y-92137380D02*
X65303095Y-92185000D01*
X64969761Y-92137380D02*
X64731666Y-93137380D01*
X64731666Y-93137380D02*
X64541190Y-92423095D01*
X64541190Y-92423095D02*
X64350714Y-93137380D01*
X64350714Y-93137380D02*
X64112619Y-92137380D01*
X63303095Y-92470714D02*
X63303095Y-93137380D01*
X63541190Y-92089761D02*
X63779285Y-92804047D01*
X63779285Y-92804047D02*
X63160238Y-92804047D01*
X62350714Y-92470714D02*
X62350714Y-93137380D01*
X62588809Y-92089761D02*
X62826904Y-92804047D01*
X62826904Y-92804047D02*
X62207857Y-92804047D01*
D12*
%TO.C,D57*%
X105306428Y-123573904D02*
X105306428Y-122773904D01*
X105306428Y-122773904D02*
X105115952Y-122773904D01*
X105115952Y-122773904D02*
X105001666Y-122812000D01*
X105001666Y-122812000D02*
X104925476Y-122888190D01*
X104925476Y-122888190D02*
X104887381Y-122964380D01*
X104887381Y-122964380D02*
X104849285Y-123116761D01*
X104849285Y-123116761D02*
X104849285Y-123231047D01*
X104849285Y-123231047D02*
X104887381Y-123383428D01*
X104887381Y-123383428D02*
X104925476Y-123459619D01*
X104925476Y-123459619D02*
X105001666Y-123535809D01*
X105001666Y-123535809D02*
X105115952Y-123573904D01*
X105115952Y-123573904D02*
X105306428Y-123573904D01*
X104125476Y-122773904D02*
X104506428Y-122773904D01*
X104506428Y-122773904D02*
X104544524Y-123154857D01*
X104544524Y-123154857D02*
X104506428Y-123116761D01*
X104506428Y-123116761D02*
X104430238Y-123078666D01*
X104430238Y-123078666D02*
X104239762Y-123078666D01*
X104239762Y-123078666D02*
X104163571Y-123116761D01*
X104163571Y-123116761D02*
X104125476Y-123154857D01*
X104125476Y-123154857D02*
X104087381Y-123231047D01*
X104087381Y-123231047D02*
X104087381Y-123421523D01*
X104087381Y-123421523D02*
X104125476Y-123497714D01*
X104125476Y-123497714D02*
X104163571Y-123535809D01*
X104163571Y-123535809D02*
X104239762Y-123573904D01*
X104239762Y-123573904D02*
X104430238Y-123573904D01*
X104430238Y-123573904D02*
X104506428Y-123535809D01*
X104506428Y-123535809D02*
X104544524Y-123497714D01*
X103820714Y-122773904D02*
X103287380Y-122773904D01*
X103287380Y-122773904D02*
X103630238Y-123573904D01*
%TO.C,D44*%
X67106428Y-105003904D02*
X67106428Y-104203904D01*
X67106428Y-104203904D02*
X66915952Y-104203904D01*
X66915952Y-104203904D02*
X66801666Y-104242000D01*
X66801666Y-104242000D02*
X66725476Y-104318190D01*
X66725476Y-104318190D02*
X66687381Y-104394380D01*
X66687381Y-104394380D02*
X66649285Y-104546761D01*
X66649285Y-104546761D02*
X66649285Y-104661047D01*
X66649285Y-104661047D02*
X66687381Y-104813428D01*
X66687381Y-104813428D02*
X66725476Y-104889619D01*
X66725476Y-104889619D02*
X66801666Y-104965809D01*
X66801666Y-104965809D02*
X66915952Y-105003904D01*
X66915952Y-105003904D02*
X67106428Y-105003904D01*
X65963571Y-104470571D02*
X65963571Y-105003904D01*
X66154047Y-104165809D02*
X66344524Y-104737238D01*
X66344524Y-104737238D02*
X65849285Y-104737238D01*
X65201666Y-104470571D02*
X65201666Y-105003904D01*
X65392142Y-104165809D02*
X65582619Y-104737238D01*
X65582619Y-104737238D02*
X65087380Y-104737238D01*
%TO.C,D20*%
X143316428Y-66693904D02*
X143316428Y-65893904D01*
X143316428Y-65893904D02*
X143125952Y-65893904D01*
X143125952Y-65893904D02*
X143011666Y-65932000D01*
X143011666Y-65932000D02*
X142935476Y-66008190D01*
X142935476Y-66008190D02*
X142897381Y-66084380D01*
X142897381Y-66084380D02*
X142859285Y-66236761D01*
X142859285Y-66236761D02*
X142859285Y-66351047D01*
X142859285Y-66351047D02*
X142897381Y-66503428D01*
X142897381Y-66503428D02*
X142935476Y-66579619D01*
X142935476Y-66579619D02*
X143011666Y-66655809D01*
X143011666Y-66655809D02*
X143125952Y-66693904D01*
X143125952Y-66693904D02*
X143316428Y-66693904D01*
X142554524Y-65970095D02*
X142516428Y-65932000D01*
X142516428Y-65932000D02*
X142440238Y-65893904D01*
X142440238Y-65893904D02*
X142249762Y-65893904D01*
X142249762Y-65893904D02*
X142173571Y-65932000D01*
X142173571Y-65932000D02*
X142135476Y-65970095D01*
X142135476Y-65970095D02*
X142097381Y-66046285D01*
X142097381Y-66046285D02*
X142097381Y-66122476D01*
X142097381Y-66122476D02*
X142135476Y-66236761D01*
X142135476Y-66236761D02*
X142592619Y-66693904D01*
X142592619Y-66693904D02*
X142097381Y-66693904D01*
X141602142Y-65893904D02*
X141525952Y-65893904D01*
X141525952Y-65893904D02*
X141449761Y-65932000D01*
X141449761Y-65932000D02*
X141411666Y-65970095D01*
X141411666Y-65970095D02*
X141373571Y-66046285D01*
X141373571Y-66046285D02*
X141335476Y-66198666D01*
X141335476Y-66198666D02*
X141335476Y-66389142D01*
X141335476Y-66389142D02*
X141373571Y-66541523D01*
X141373571Y-66541523D02*
X141411666Y-66617714D01*
X141411666Y-66617714D02*
X141449761Y-66655809D01*
X141449761Y-66655809D02*
X141525952Y-66693904D01*
X141525952Y-66693904D02*
X141602142Y-66693904D01*
X141602142Y-66693904D02*
X141678333Y-66655809D01*
X141678333Y-66655809D02*
X141716428Y-66617714D01*
X141716428Y-66617714D02*
X141754523Y-66541523D01*
X141754523Y-66541523D02*
X141792619Y-66389142D01*
X141792619Y-66389142D02*
X141792619Y-66198666D01*
X141792619Y-66198666D02*
X141754523Y-66046285D01*
X141754523Y-66046285D02*
X141716428Y-65970095D01*
X141716428Y-65970095D02*
X141678333Y-65932000D01*
X141678333Y-65932000D02*
X141602142Y-65893904D01*
D11*
%TO.C,SW49*%
X161194523Y-92969761D02*
X161051666Y-93017380D01*
X161051666Y-93017380D02*
X160813571Y-93017380D01*
X160813571Y-93017380D02*
X160718333Y-92969761D01*
X160718333Y-92969761D02*
X160670714Y-92922142D01*
X160670714Y-92922142D02*
X160623095Y-92826904D01*
X160623095Y-92826904D02*
X160623095Y-92731666D01*
X160623095Y-92731666D02*
X160670714Y-92636428D01*
X160670714Y-92636428D02*
X160718333Y-92588809D01*
X160718333Y-92588809D02*
X160813571Y-92541190D01*
X160813571Y-92541190D02*
X161004047Y-92493571D01*
X161004047Y-92493571D02*
X161099285Y-92445952D01*
X161099285Y-92445952D02*
X161146904Y-92398333D01*
X161146904Y-92398333D02*
X161194523Y-92303095D01*
X161194523Y-92303095D02*
X161194523Y-92207857D01*
X161194523Y-92207857D02*
X161146904Y-92112619D01*
X161146904Y-92112619D02*
X161099285Y-92065000D01*
X161099285Y-92065000D02*
X161004047Y-92017380D01*
X161004047Y-92017380D02*
X160765952Y-92017380D01*
X160765952Y-92017380D02*
X160623095Y-92065000D01*
X160289761Y-92017380D02*
X160051666Y-93017380D01*
X160051666Y-93017380D02*
X159861190Y-92303095D01*
X159861190Y-92303095D02*
X159670714Y-93017380D01*
X159670714Y-93017380D02*
X159432619Y-92017380D01*
X158623095Y-92350714D02*
X158623095Y-93017380D01*
X158861190Y-91969761D02*
X159099285Y-92684047D01*
X159099285Y-92684047D02*
X158480238Y-92684047D01*
X158051666Y-93017380D02*
X157861190Y-93017380D01*
X157861190Y-93017380D02*
X157765952Y-92969761D01*
X157765952Y-92969761D02*
X157718333Y-92922142D01*
X157718333Y-92922142D02*
X157623095Y-92779285D01*
X157623095Y-92779285D02*
X157575476Y-92588809D01*
X157575476Y-92588809D02*
X157575476Y-92207857D01*
X157575476Y-92207857D02*
X157623095Y-92112619D01*
X157623095Y-92112619D02*
X157670714Y-92065000D01*
X157670714Y-92065000D02*
X157765952Y-92017380D01*
X157765952Y-92017380D02*
X157956428Y-92017380D01*
X157956428Y-92017380D02*
X158051666Y-92065000D01*
X158051666Y-92065000D02*
X158099285Y-92112619D01*
X158099285Y-92112619D02*
X158146904Y-92207857D01*
X158146904Y-92207857D02*
X158146904Y-92445952D01*
X158146904Y-92445952D02*
X158099285Y-92541190D01*
X158099285Y-92541190D02*
X158051666Y-92588809D01*
X158051666Y-92588809D02*
X157956428Y-92636428D01*
X157956428Y-92636428D02*
X157765952Y-92636428D01*
X157765952Y-92636428D02*
X157670714Y-92588809D01*
X157670714Y-92588809D02*
X157623095Y-92541190D01*
X157623095Y-92541190D02*
X157575476Y-92445952D01*
%TO.C,SW21*%
X161194523Y-54869761D02*
X161051666Y-54917380D01*
X161051666Y-54917380D02*
X160813571Y-54917380D01*
X160813571Y-54917380D02*
X160718333Y-54869761D01*
X160718333Y-54869761D02*
X160670714Y-54822142D01*
X160670714Y-54822142D02*
X160623095Y-54726904D01*
X160623095Y-54726904D02*
X160623095Y-54631666D01*
X160623095Y-54631666D02*
X160670714Y-54536428D01*
X160670714Y-54536428D02*
X160718333Y-54488809D01*
X160718333Y-54488809D02*
X160813571Y-54441190D01*
X160813571Y-54441190D02*
X161004047Y-54393571D01*
X161004047Y-54393571D02*
X161099285Y-54345952D01*
X161099285Y-54345952D02*
X161146904Y-54298333D01*
X161146904Y-54298333D02*
X161194523Y-54203095D01*
X161194523Y-54203095D02*
X161194523Y-54107857D01*
X161194523Y-54107857D02*
X161146904Y-54012619D01*
X161146904Y-54012619D02*
X161099285Y-53965000D01*
X161099285Y-53965000D02*
X161004047Y-53917380D01*
X161004047Y-53917380D02*
X160765952Y-53917380D01*
X160765952Y-53917380D02*
X160623095Y-53965000D01*
X160289761Y-53917380D02*
X160051666Y-54917380D01*
X160051666Y-54917380D02*
X159861190Y-54203095D01*
X159861190Y-54203095D02*
X159670714Y-54917380D01*
X159670714Y-54917380D02*
X159432619Y-53917380D01*
X159099285Y-54012619D02*
X159051666Y-53965000D01*
X159051666Y-53965000D02*
X158956428Y-53917380D01*
X158956428Y-53917380D02*
X158718333Y-53917380D01*
X158718333Y-53917380D02*
X158623095Y-53965000D01*
X158623095Y-53965000D02*
X158575476Y-54012619D01*
X158575476Y-54012619D02*
X158527857Y-54107857D01*
X158527857Y-54107857D02*
X158527857Y-54203095D01*
X158527857Y-54203095D02*
X158575476Y-54345952D01*
X158575476Y-54345952D02*
X159146904Y-54917380D01*
X159146904Y-54917380D02*
X158527857Y-54917380D01*
X157575476Y-54917380D02*
X158146904Y-54917380D01*
X157861190Y-54917380D02*
X157861190Y-53917380D01*
X157861190Y-53917380D02*
X157956428Y-54060238D01*
X157956428Y-54060238D02*
X158051666Y-54155476D01*
X158051666Y-54155476D02*
X158146904Y-54203095D01*
D12*
%TO.C,D30*%
X67106428Y-85823904D02*
X67106428Y-85023904D01*
X67106428Y-85023904D02*
X66915952Y-85023904D01*
X66915952Y-85023904D02*
X66801666Y-85062000D01*
X66801666Y-85062000D02*
X66725476Y-85138190D01*
X66725476Y-85138190D02*
X66687381Y-85214380D01*
X66687381Y-85214380D02*
X66649285Y-85366761D01*
X66649285Y-85366761D02*
X66649285Y-85481047D01*
X66649285Y-85481047D02*
X66687381Y-85633428D01*
X66687381Y-85633428D02*
X66725476Y-85709619D01*
X66725476Y-85709619D02*
X66801666Y-85785809D01*
X66801666Y-85785809D02*
X66915952Y-85823904D01*
X66915952Y-85823904D02*
X67106428Y-85823904D01*
X66382619Y-85023904D02*
X65887381Y-85023904D01*
X65887381Y-85023904D02*
X66154047Y-85328666D01*
X66154047Y-85328666D02*
X66039762Y-85328666D01*
X66039762Y-85328666D02*
X65963571Y-85366761D01*
X65963571Y-85366761D02*
X65925476Y-85404857D01*
X65925476Y-85404857D02*
X65887381Y-85481047D01*
X65887381Y-85481047D02*
X65887381Y-85671523D01*
X65887381Y-85671523D02*
X65925476Y-85747714D01*
X65925476Y-85747714D02*
X65963571Y-85785809D01*
X65963571Y-85785809D02*
X66039762Y-85823904D01*
X66039762Y-85823904D02*
X66268333Y-85823904D01*
X66268333Y-85823904D02*
X66344524Y-85785809D01*
X66344524Y-85785809D02*
X66382619Y-85747714D01*
X65392142Y-85023904D02*
X65315952Y-85023904D01*
X65315952Y-85023904D02*
X65239761Y-85062000D01*
X65239761Y-85062000D02*
X65201666Y-85100095D01*
X65201666Y-85100095D02*
X65163571Y-85176285D01*
X65163571Y-85176285D02*
X65125476Y-85328666D01*
X65125476Y-85328666D02*
X65125476Y-85519142D01*
X65125476Y-85519142D02*
X65163571Y-85671523D01*
X65163571Y-85671523D02*
X65201666Y-85747714D01*
X65201666Y-85747714D02*
X65239761Y-85785809D01*
X65239761Y-85785809D02*
X65315952Y-85823904D01*
X65315952Y-85823904D02*
X65392142Y-85823904D01*
X65392142Y-85823904D02*
X65468333Y-85785809D01*
X65468333Y-85785809D02*
X65506428Y-85747714D01*
X65506428Y-85747714D02*
X65544523Y-85671523D01*
X65544523Y-85671523D02*
X65582619Y-85519142D01*
X65582619Y-85519142D02*
X65582619Y-85328666D01*
X65582619Y-85328666D02*
X65544523Y-85176285D01*
X65544523Y-85176285D02*
X65506428Y-85100095D01*
X65506428Y-85100095D02*
X65468333Y-85062000D01*
X65468333Y-85062000D02*
X65392142Y-85023904D01*
%TO.C,D49*%
X162391428Y-104603904D02*
X162391428Y-103803904D01*
X162391428Y-103803904D02*
X162200952Y-103803904D01*
X162200952Y-103803904D02*
X162086666Y-103842000D01*
X162086666Y-103842000D02*
X162010476Y-103918190D01*
X162010476Y-103918190D02*
X161972381Y-103994380D01*
X161972381Y-103994380D02*
X161934285Y-104146761D01*
X161934285Y-104146761D02*
X161934285Y-104261047D01*
X161934285Y-104261047D02*
X161972381Y-104413428D01*
X161972381Y-104413428D02*
X162010476Y-104489619D01*
X162010476Y-104489619D02*
X162086666Y-104565809D01*
X162086666Y-104565809D02*
X162200952Y-104603904D01*
X162200952Y-104603904D02*
X162391428Y-104603904D01*
X161248571Y-104070571D02*
X161248571Y-104603904D01*
X161439047Y-103765809D02*
X161629524Y-104337238D01*
X161629524Y-104337238D02*
X161134285Y-104337238D01*
X160791428Y-104603904D02*
X160639047Y-104603904D01*
X160639047Y-104603904D02*
X160562857Y-104565809D01*
X160562857Y-104565809D02*
X160524761Y-104527714D01*
X160524761Y-104527714D02*
X160448571Y-104413428D01*
X160448571Y-104413428D02*
X160410476Y-104261047D01*
X160410476Y-104261047D02*
X160410476Y-103956285D01*
X160410476Y-103956285D02*
X160448571Y-103880095D01*
X160448571Y-103880095D02*
X160486666Y-103842000D01*
X160486666Y-103842000D02*
X160562857Y-103803904D01*
X160562857Y-103803904D02*
X160715238Y-103803904D01*
X160715238Y-103803904D02*
X160791428Y-103842000D01*
X160791428Y-103842000D02*
X160829523Y-103880095D01*
X160829523Y-103880095D02*
X160867619Y-103956285D01*
X160867619Y-103956285D02*
X160867619Y-104146761D01*
X160867619Y-104146761D02*
X160829523Y-104222952D01*
X160829523Y-104222952D02*
X160791428Y-104261047D01*
X160791428Y-104261047D02*
X160715238Y-104299142D01*
X160715238Y-104299142D02*
X160562857Y-104299142D01*
X160562857Y-104299142D02*
X160486666Y-104261047D01*
X160486666Y-104261047D02*
X160448571Y-104222952D01*
X160448571Y-104222952D02*
X160410476Y-104146761D01*
D11*
%TO.C,SW29*%
X46894523Y-73919761D02*
X46751666Y-73967380D01*
X46751666Y-73967380D02*
X46513571Y-73967380D01*
X46513571Y-73967380D02*
X46418333Y-73919761D01*
X46418333Y-73919761D02*
X46370714Y-73872142D01*
X46370714Y-73872142D02*
X46323095Y-73776904D01*
X46323095Y-73776904D02*
X46323095Y-73681666D01*
X46323095Y-73681666D02*
X46370714Y-73586428D01*
X46370714Y-73586428D02*
X46418333Y-73538809D01*
X46418333Y-73538809D02*
X46513571Y-73491190D01*
X46513571Y-73491190D02*
X46704047Y-73443571D01*
X46704047Y-73443571D02*
X46799285Y-73395952D01*
X46799285Y-73395952D02*
X46846904Y-73348333D01*
X46846904Y-73348333D02*
X46894523Y-73253095D01*
X46894523Y-73253095D02*
X46894523Y-73157857D01*
X46894523Y-73157857D02*
X46846904Y-73062619D01*
X46846904Y-73062619D02*
X46799285Y-73015000D01*
X46799285Y-73015000D02*
X46704047Y-72967380D01*
X46704047Y-72967380D02*
X46465952Y-72967380D01*
X46465952Y-72967380D02*
X46323095Y-73015000D01*
X45989761Y-72967380D02*
X45751666Y-73967380D01*
X45751666Y-73967380D02*
X45561190Y-73253095D01*
X45561190Y-73253095D02*
X45370714Y-73967380D01*
X45370714Y-73967380D02*
X45132619Y-72967380D01*
X44799285Y-73062619D02*
X44751666Y-73015000D01*
X44751666Y-73015000D02*
X44656428Y-72967380D01*
X44656428Y-72967380D02*
X44418333Y-72967380D01*
X44418333Y-72967380D02*
X44323095Y-73015000D01*
X44323095Y-73015000D02*
X44275476Y-73062619D01*
X44275476Y-73062619D02*
X44227857Y-73157857D01*
X44227857Y-73157857D02*
X44227857Y-73253095D01*
X44227857Y-73253095D02*
X44275476Y-73395952D01*
X44275476Y-73395952D02*
X44846904Y-73967380D01*
X44846904Y-73967380D02*
X44227857Y-73967380D01*
X43751666Y-73967380D02*
X43561190Y-73967380D01*
X43561190Y-73967380D02*
X43465952Y-73919761D01*
X43465952Y-73919761D02*
X43418333Y-73872142D01*
X43418333Y-73872142D02*
X43323095Y-73729285D01*
X43323095Y-73729285D02*
X43275476Y-73538809D01*
X43275476Y-73538809D02*
X43275476Y-73157857D01*
X43275476Y-73157857D02*
X43323095Y-73062619D01*
X43323095Y-73062619D02*
X43370714Y-73015000D01*
X43370714Y-73015000D02*
X43465952Y-72967380D01*
X43465952Y-72967380D02*
X43656428Y-72967380D01*
X43656428Y-72967380D02*
X43751666Y-73015000D01*
X43751666Y-73015000D02*
X43799285Y-73062619D01*
X43799285Y-73062619D02*
X43846904Y-73157857D01*
X43846904Y-73157857D02*
X43846904Y-73395952D01*
X43846904Y-73395952D02*
X43799285Y-73491190D01*
X43799285Y-73491190D02*
X43751666Y-73538809D01*
X43751666Y-73538809D02*
X43656428Y-73586428D01*
X43656428Y-73586428D02*
X43465952Y-73586428D01*
X43465952Y-73586428D02*
X43370714Y-73538809D01*
X43370714Y-73538809D02*
X43323095Y-73491190D01*
X43323095Y-73491190D02*
X43275476Y-73395952D01*
%TO.C,SW4*%
X103568332Y-35819761D02*
X103425475Y-35867380D01*
X103425475Y-35867380D02*
X103187380Y-35867380D01*
X103187380Y-35867380D02*
X103092142Y-35819761D01*
X103092142Y-35819761D02*
X103044523Y-35772142D01*
X103044523Y-35772142D02*
X102996904Y-35676904D01*
X102996904Y-35676904D02*
X102996904Y-35581666D01*
X102996904Y-35581666D02*
X103044523Y-35486428D01*
X103044523Y-35486428D02*
X103092142Y-35438809D01*
X103092142Y-35438809D02*
X103187380Y-35391190D01*
X103187380Y-35391190D02*
X103377856Y-35343571D01*
X103377856Y-35343571D02*
X103473094Y-35295952D01*
X103473094Y-35295952D02*
X103520713Y-35248333D01*
X103520713Y-35248333D02*
X103568332Y-35153095D01*
X103568332Y-35153095D02*
X103568332Y-35057857D01*
X103568332Y-35057857D02*
X103520713Y-34962619D01*
X103520713Y-34962619D02*
X103473094Y-34915000D01*
X103473094Y-34915000D02*
X103377856Y-34867380D01*
X103377856Y-34867380D02*
X103139761Y-34867380D01*
X103139761Y-34867380D02*
X102996904Y-34915000D01*
X102663570Y-34867380D02*
X102425475Y-35867380D01*
X102425475Y-35867380D02*
X102234999Y-35153095D01*
X102234999Y-35153095D02*
X102044523Y-35867380D01*
X102044523Y-35867380D02*
X101806428Y-34867380D01*
X100996904Y-35200714D02*
X100996904Y-35867380D01*
X101234999Y-34819761D02*
X101473094Y-35534047D01*
X101473094Y-35534047D02*
X100854047Y-35534047D01*
D12*
%TO.C,D45*%
X86256428Y-105003904D02*
X86256428Y-104203904D01*
X86256428Y-104203904D02*
X86065952Y-104203904D01*
X86065952Y-104203904D02*
X85951666Y-104242000D01*
X85951666Y-104242000D02*
X85875476Y-104318190D01*
X85875476Y-104318190D02*
X85837381Y-104394380D01*
X85837381Y-104394380D02*
X85799285Y-104546761D01*
X85799285Y-104546761D02*
X85799285Y-104661047D01*
X85799285Y-104661047D02*
X85837381Y-104813428D01*
X85837381Y-104813428D02*
X85875476Y-104889619D01*
X85875476Y-104889619D02*
X85951666Y-104965809D01*
X85951666Y-104965809D02*
X86065952Y-105003904D01*
X86065952Y-105003904D02*
X86256428Y-105003904D01*
X85113571Y-104470571D02*
X85113571Y-105003904D01*
X85304047Y-104165809D02*
X85494524Y-104737238D01*
X85494524Y-104737238D02*
X84999285Y-104737238D01*
X84313571Y-104203904D02*
X84694523Y-104203904D01*
X84694523Y-104203904D02*
X84732619Y-104584857D01*
X84732619Y-104584857D02*
X84694523Y-104546761D01*
X84694523Y-104546761D02*
X84618333Y-104508666D01*
X84618333Y-104508666D02*
X84427857Y-104508666D01*
X84427857Y-104508666D02*
X84351666Y-104546761D01*
X84351666Y-104546761D02*
X84313571Y-104584857D01*
X84313571Y-104584857D02*
X84275476Y-104661047D01*
X84275476Y-104661047D02*
X84275476Y-104851523D01*
X84275476Y-104851523D02*
X84313571Y-104927714D01*
X84313571Y-104927714D02*
X84351666Y-104965809D01*
X84351666Y-104965809D02*
X84427857Y-105003904D01*
X84427857Y-105003904D02*
X84618333Y-105003904D01*
X84618333Y-105003904D02*
X84694523Y-104965809D01*
X84694523Y-104965809D02*
X84732619Y-104927714D01*
%TO.C,D19*%
X124246428Y-66693904D02*
X124246428Y-65893904D01*
X124246428Y-65893904D02*
X124055952Y-65893904D01*
X124055952Y-65893904D02*
X123941666Y-65932000D01*
X123941666Y-65932000D02*
X123865476Y-66008190D01*
X123865476Y-66008190D02*
X123827381Y-66084380D01*
X123827381Y-66084380D02*
X123789285Y-66236761D01*
X123789285Y-66236761D02*
X123789285Y-66351047D01*
X123789285Y-66351047D02*
X123827381Y-66503428D01*
X123827381Y-66503428D02*
X123865476Y-66579619D01*
X123865476Y-66579619D02*
X123941666Y-66655809D01*
X123941666Y-66655809D02*
X124055952Y-66693904D01*
X124055952Y-66693904D02*
X124246428Y-66693904D01*
X123027381Y-66693904D02*
X123484524Y-66693904D01*
X123255952Y-66693904D02*
X123255952Y-65893904D01*
X123255952Y-65893904D02*
X123332143Y-66008190D01*
X123332143Y-66008190D02*
X123408333Y-66084380D01*
X123408333Y-66084380D02*
X123484524Y-66122476D01*
X122646428Y-66693904D02*
X122494047Y-66693904D01*
X122494047Y-66693904D02*
X122417857Y-66655809D01*
X122417857Y-66655809D02*
X122379761Y-66617714D01*
X122379761Y-66617714D02*
X122303571Y-66503428D01*
X122303571Y-66503428D02*
X122265476Y-66351047D01*
X122265476Y-66351047D02*
X122265476Y-66046285D01*
X122265476Y-66046285D02*
X122303571Y-65970095D01*
X122303571Y-65970095D02*
X122341666Y-65932000D01*
X122341666Y-65932000D02*
X122417857Y-65893904D01*
X122417857Y-65893904D02*
X122570238Y-65893904D01*
X122570238Y-65893904D02*
X122646428Y-65932000D01*
X122646428Y-65932000D02*
X122684523Y-65970095D01*
X122684523Y-65970095D02*
X122722619Y-66046285D01*
X122722619Y-66046285D02*
X122722619Y-66236761D01*
X122722619Y-66236761D02*
X122684523Y-66312952D01*
X122684523Y-66312952D02*
X122646428Y-66351047D01*
X122646428Y-66351047D02*
X122570238Y-66389142D01*
X122570238Y-66389142D02*
X122417857Y-66389142D01*
X122417857Y-66389142D02*
X122341666Y-66351047D01*
X122341666Y-66351047D02*
X122303571Y-66312952D01*
X122303571Y-66312952D02*
X122265476Y-66236761D01*
D11*
%TO.C,SW59*%
X142144523Y-112019761D02*
X142001666Y-112067380D01*
X142001666Y-112067380D02*
X141763571Y-112067380D01*
X141763571Y-112067380D02*
X141668333Y-112019761D01*
X141668333Y-112019761D02*
X141620714Y-111972142D01*
X141620714Y-111972142D02*
X141573095Y-111876904D01*
X141573095Y-111876904D02*
X141573095Y-111781666D01*
X141573095Y-111781666D02*
X141620714Y-111686428D01*
X141620714Y-111686428D02*
X141668333Y-111638809D01*
X141668333Y-111638809D02*
X141763571Y-111591190D01*
X141763571Y-111591190D02*
X141954047Y-111543571D01*
X141954047Y-111543571D02*
X142049285Y-111495952D01*
X142049285Y-111495952D02*
X142096904Y-111448333D01*
X142096904Y-111448333D02*
X142144523Y-111353095D01*
X142144523Y-111353095D02*
X142144523Y-111257857D01*
X142144523Y-111257857D02*
X142096904Y-111162619D01*
X142096904Y-111162619D02*
X142049285Y-111115000D01*
X142049285Y-111115000D02*
X141954047Y-111067380D01*
X141954047Y-111067380D02*
X141715952Y-111067380D01*
X141715952Y-111067380D02*
X141573095Y-111115000D01*
X141239761Y-111067380D02*
X141001666Y-112067380D01*
X141001666Y-112067380D02*
X140811190Y-111353095D01*
X140811190Y-111353095D02*
X140620714Y-112067380D01*
X140620714Y-112067380D02*
X140382619Y-111067380D01*
X139525476Y-111067380D02*
X140001666Y-111067380D01*
X140001666Y-111067380D02*
X140049285Y-111543571D01*
X140049285Y-111543571D02*
X140001666Y-111495952D01*
X140001666Y-111495952D02*
X139906428Y-111448333D01*
X139906428Y-111448333D02*
X139668333Y-111448333D01*
X139668333Y-111448333D02*
X139573095Y-111495952D01*
X139573095Y-111495952D02*
X139525476Y-111543571D01*
X139525476Y-111543571D02*
X139477857Y-111638809D01*
X139477857Y-111638809D02*
X139477857Y-111876904D01*
X139477857Y-111876904D02*
X139525476Y-111972142D01*
X139525476Y-111972142D02*
X139573095Y-112019761D01*
X139573095Y-112019761D02*
X139668333Y-112067380D01*
X139668333Y-112067380D02*
X139906428Y-112067380D01*
X139906428Y-112067380D02*
X140001666Y-112019761D01*
X140001666Y-112019761D02*
X140049285Y-111972142D01*
X139001666Y-112067380D02*
X138811190Y-112067380D01*
X138811190Y-112067380D02*
X138715952Y-112019761D01*
X138715952Y-112019761D02*
X138668333Y-111972142D01*
X138668333Y-111972142D02*
X138573095Y-111829285D01*
X138573095Y-111829285D02*
X138525476Y-111638809D01*
X138525476Y-111638809D02*
X138525476Y-111257857D01*
X138525476Y-111257857D02*
X138573095Y-111162619D01*
X138573095Y-111162619D02*
X138620714Y-111115000D01*
X138620714Y-111115000D02*
X138715952Y-111067380D01*
X138715952Y-111067380D02*
X138906428Y-111067380D01*
X138906428Y-111067380D02*
X139001666Y-111115000D01*
X139001666Y-111115000D02*
X139049285Y-111162619D01*
X139049285Y-111162619D02*
X139096904Y-111257857D01*
X139096904Y-111257857D02*
X139096904Y-111495952D01*
X139096904Y-111495952D02*
X139049285Y-111591190D01*
X139049285Y-111591190D02*
X139001666Y-111638809D01*
X139001666Y-111638809D02*
X138906428Y-111686428D01*
X138906428Y-111686428D02*
X138715952Y-111686428D01*
X138715952Y-111686428D02*
X138620714Y-111638809D01*
X138620714Y-111638809D02*
X138573095Y-111591190D01*
X138573095Y-111591190D02*
X138525476Y-111495952D01*
%TO.C,SW20*%
X142144523Y-54869761D02*
X142001666Y-54917380D01*
X142001666Y-54917380D02*
X141763571Y-54917380D01*
X141763571Y-54917380D02*
X141668333Y-54869761D01*
X141668333Y-54869761D02*
X141620714Y-54822142D01*
X141620714Y-54822142D02*
X141573095Y-54726904D01*
X141573095Y-54726904D02*
X141573095Y-54631666D01*
X141573095Y-54631666D02*
X141620714Y-54536428D01*
X141620714Y-54536428D02*
X141668333Y-54488809D01*
X141668333Y-54488809D02*
X141763571Y-54441190D01*
X141763571Y-54441190D02*
X141954047Y-54393571D01*
X141954047Y-54393571D02*
X142049285Y-54345952D01*
X142049285Y-54345952D02*
X142096904Y-54298333D01*
X142096904Y-54298333D02*
X142144523Y-54203095D01*
X142144523Y-54203095D02*
X142144523Y-54107857D01*
X142144523Y-54107857D02*
X142096904Y-54012619D01*
X142096904Y-54012619D02*
X142049285Y-53965000D01*
X142049285Y-53965000D02*
X141954047Y-53917380D01*
X141954047Y-53917380D02*
X141715952Y-53917380D01*
X141715952Y-53917380D02*
X141573095Y-53965000D01*
X141239761Y-53917380D02*
X141001666Y-54917380D01*
X141001666Y-54917380D02*
X140811190Y-54203095D01*
X140811190Y-54203095D02*
X140620714Y-54917380D01*
X140620714Y-54917380D02*
X140382619Y-53917380D01*
X140049285Y-54012619D02*
X140001666Y-53965000D01*
X140001666Y-53965000D02*
X139906428Y-53917380D01*
X139906428Y-53917380D02*
X139668333Y-53917380D01*
X139668333Y-53917380D02*
X139573095Y-53965000D01*
X139573095Y-53965000D02*
X139525476Y-54012619D01*
X139525476Y-54012619D02*
X139477857Y-54107857D01*
X139477857Y-54107857D02*
X139477857Y-54203095D01*
X139477857Y-54203095D02*
X139525476Y-54345952D01*
X139525476Y-54345952D02*
X140096904Y-54917380D01*
X140096904Y-54917380D02*
X139477857Y-54917380D01*
X138858809Y-53917380D02*
X138763571Y-53917380D01*
X138763571Y-53917380D02*
X138668333Y-53965000D01*
X138668333Y-53965000D02*
X138620714Y-54012619D01*
X138620714Y-54012619D02*
X138573095Y-54107857D01*
X138573095Y-54107857D02*
X138525476Y-54298333D01*
X138525476Y-54298333D02*
X138525476Y-54536428D01*
X138525476Y-54536428D02*
X138573095Y-54726904D01*
X138573095Y-54726904D02*
X138620714Y-54822142D01*
X138620714Y-54822142D02*
X138668333Y-54869761D01*
X138668333Y-54869761D02*
X138763571Y-54917380D01*
X138763571Y-54917380D02*
X138858809Y-54917380D01*
X138858809Y-54917380D02*
X138954047Y-54869761D01*
X138954047Y-54869761D02*
X139001666Y-54822142D01*
X139001666Y-54822142D02*
X139049285Y-54726904D01*
X139049285Y-54726904D02*
X139096904Y-54536428D01*
X139096904Y-54536428D02*
X139096904Y-54298333D01*
X139096904Y-54298333D02*
X139049285Y-54107857D01*
X139049285Y-54107857D02*
X139001666Y-54012619D01*
X139001666Y-54012619D02*
X138954047Y-53965000D01*
X138954047Y-53965000D02*
X138858809Y-53917380D01*
%TO.C,SW32*%
X104044523Y-73919761D02*
X103901666Y-73967380D01*
X103901666Y-73967380D02*
X103663571Y-73967380D01*
X103663571Y-73967380D02*
X103568333Y-73919761D01*
X103568333Y-73919761D02*
X103520714Y-73872142D01*
X103520714Y-73872142D02*
X103473095Y-73776904D01*
X103473095Y-73776904D02*
X103473095Y-73681666D01*
X103473095Y-73681666D02*
X103520714Y-73586428D01*
X103520714Y-73586428D02*
X103568333Y-73538809D01*
X103568333Y-73538809D02*
X103663571Y-73491190D01*
X103663571Y-73491190D02*
X103854047Y-73443571D01*
X103854047Y-73443571D02*
X103949285Y-73395952D01*
X103949285Y-73395952D02*
X103996904Y-73348333D01*
X103996904Y-73348333D02*
X104044523Y-73253095D01*
X104044523Y-73253095D02*
X104044523Y-73157857D01*
X104044523Y-73157857D02*
X103996904Y-73062619D01*
X103996904Y-73062619D02*
X103949285Y-73015000D01*
X103949285Y-73015000D02*
X103854047Y-72967380D01*
X103854047Y-72967380D02*
X103615952Y-72967380D01*
X103615952Y-72967380D02*
X103473095Y-73015000D01*
X103139761Y-72967380D02*
X102901666Y-73967380D01*
X102901666Y-73967380D02*
X102711190Y-73253095D01*
X102711190Y-73253095D02*
X102520714Y-73967380D01*
X102520714Y-73967380D02*
X102282619Y-72967380D01*
X101996904Y-72967380D02*
X101377857Y-72967380D01*
X101377857Y-72967380D02*
X101711190Y-73348333D01*
X101711190Y-73348333D02*
X101568333Y-73348333D01*
X101568333Y-73348333D02*
X101473095Y-73395952D01*
X101473095Y-73395952D02*
X101425476Y-73443571D01*
X101425476Y-73443571D02*
X101377857Y-73538809D01*
X101377857Y-73538809D02*
X101377857Y-73776904D01*
X101377857Y-73776904D02*
X101425476Y-73872142D01*
X101425476Y-73872142D02*
X101473095Y-73919761D01*
X101473095Y-73919761D02*
X101568333Y-73967380D01*
X101568333Y-73967380D02*
X101854047Y-73967380D01*
X101854047Y-73967380D02*
X101949285Y-73919761D01*
X101949285Y-73919761D02*
X101996904Y-73872142D01*
X100996904Y-73062619D02*
X100949285Y-73015000D01*
X100949285Y-73015000D02*
X100854047Y-72967380D01*
X100854047Y-72967380D02*
X100615952Y-72967380D01*
X100615952Y-72967380D02*
X100520714Y-73015000D01*
X100520714Y-73015000D02*
X100473095Y-73062619D01*
X100473095Y-73062619D02*
X100425476Y-73157857D01*
X100425476Y-73157857D02*
X100425476Y-73253095D01*
X100425476Y-73253095D02*
X100473095Y-73395952D01*
X100473095Y-73395952D02*
X101044523Y-73967380D01*
X101044523Y-73967380D02*
X100425476Y-73967380D01*
%TO.C,SW2*%
X65398332Y-35819761D02*
X65255475Y-35867380D01*
X65255475Y-35867380D02*
X65017380Y-35867380D01*
X65017380Y-35867380D02*
X64922142Y-35819761D01*
X64922142Y-35819761D02*
X64874523Y-35772142D01*
X64874523Y-35772142D02*
X64826904Y-35676904D01*
X64826904Y-35676904D02*
X64826904Y-35581666D01*
X64826904Y-35581666D02*
X64874523Y-35486428D01*
X64874523Y-35486428D02*
X64922142Y-35438809D01*
X64922142Y-35438809D02*
X65017380Y-35391190D01*
X65017380Y-35391190D02*
X65207856Y-35343571D01*
X65207856Y-35343571D02*
X65303094Y-35295952D01*
X65303094Y-35295952D02*
X65350713Y-35248333D01*
X65350713Y-35248333D02*
X65398332Y-35153095D01*
X65398332Y-35153095D02*
X65398332Y-35057857D01*
X65398332Y-35057857D02*
X65350713Y-34962619D01*
X65350713Y-34962619D02*
X65303094Y-34915000D01*
X65303094Y-34915000D02*
X65207856Y-34867380D01*
X65207856Y-34867380D02*
X64969761Y-34867380D01*
X64969761Y-34867380D02*
X64826904Y-34915000D01*
X64493570Y-34867380D02*
X64255475Y-35867380D01*
X64255475Y-35867380D02*
X64064999Y-35153095D01*
X64064999Y-35153095D02*
X63874523Y-35867380D01*
X63874523Y-35867380D02*
X63636428Y-34867380D01*
X63303094Y-34962619D02*
X63255475Y-34915000D01*
X63255475Y-34915000D02*
X63160237Y-34867380D01*
X63160237Y-34867380D02*
X62922142Y-34867380D01*
X62922142Y-34867380D02*
X62826904Y-34915000D01*
X62826904Y-34915000D02*
X62779285Y-34962619D01*
X62779285Y-34962619D02*
X62731666Y-35057857D01*
X62731666Y-35057857D02*
X62731666Y-35153095D01*
X62731666Y-35153095D02*
X62779285Y-35295952D01*
X62779285Y-35295952D02*
X63350713Y-35867380D01*
X63350713Y-35867380D02*
X62731666Y-35867380D01*
%TO.C,SW3*%
X84518332Y-35819761D02*
X84375475Y-35867380D01*
X84375475Y-35867380D02*
X84137380Y-35867380D01*
X84137380Y-35867380D02*
X84042142Y-35819761D01*
X84042142Y-35819761D02*
X83994523Y-35772142D01*
X83994523Y-35772142D02*
X83946904Y-35676904D01*
X83946904Y-35676904D02*
X83946904Y-35581666D01*
X83946904Y-35581666D02*
X83994523Y-35486428D01*
X83994523Y-35486428D02*
X84042142Y-35438809D01*
X84042142Y-35438809D02*
X84137380Y-35391190D01*
X84137380Y-35391190D02*
X84327856Y-35343571D01*
X84327856Y-35343571D02*
X84423094Y-35295952D01*
X84423094Y-35295952D02*
X84470713Y-35248333D01*
X84470713Y-35248333D02*
X84518332Y-35153095D01*
X84518332Y-35153095D02*
X84518332Y-35057857D01*
X84518332Y-35057857D02*
X84470713Y-34962619D01*
X84470713Y-34962619D02*
X84423094Y-34915000D01*
X84423094Y-34915000D02*
X84327856Y-34867380D01*
X84327856Y-34867380D02*
X84089761Y-34867380D01*
X84089761Y-34867380D02*
X83946904Y-34915000D01*
X83613570Y-34867380D02*
X83375475Y-35867380D01*
X83375475Y-35867380D02*
X83184999Y-35153095D01*
X83184999Y-35153095D02*
X82994523Y-35867380D01*
X82994523Y-35867380D02*
X82756428Y-34867380D01*
X82470713Y-34867380D02*
X81851666Y-34867380D01*
X81851666Y-34867380D02*
X82184999Y-35248333D01*
X82184999Y-35248333D02*
X82042142Y-35248333D01*
X82042142Y-35248333D02*
X81946904Y-35295952D01*
X81946904Y-35295952D02*
X81899285Y-35343571D01*
X81899285Y-35343571D02*
X81851666Y-35438809D01*
X81851666Y-35438809D02*
X81851666Y-35676904D01*
X81851666Y-35676904D02*
X81899285Y-35772142D01*
X81899285Y-35772142D02*
X81946904Y-35819761D01*
X81946904Y-35819761D02*
X82042142Y-35867380D01*
X82042142Y-35867380D02*
X82327856Y-35867380D01*
X82327856Y-35867380D02*
X82423094Y-35819761D01*
X82423094Y-35819761D02*
X82470713Y-35772142D01*
%TO.C,SW7*%
X160718332Y-35819761D02*
X160575475Y-35867380D01*
X160575475Y-35867380D02*
X160337380Y-35867380D01*
X160337380Y-35867380D02*
X160242142Y-35819761D01*
X160242142Y-35819761D02*
X160194523Y-35772142D01*
X160194523Y-35772142D02*
X160146904Y-35676904D01*
X160146904Y-35676904D02*
X160146904Y-35581666D01*
X160146904Y-35581666D02*
X160194523Y-35486428D01*
X160194523Y-35486428D02*
X160242142Y-35438809D01*
X160242142Y-35438809D02*
X160337380Y-35391190D01*
X160337380Y-35391190D02*
X160527856Y-35343571D01*
X160527856Y-35343571D02*
X160623094Y-35295952D01*
X160623094Y-35295952D02*
X160670713Y-35248333D01*
X160670713Y-35248333D02*
X160718332Y-35153095D01*
X160718332Y-35153095D02*
X160718332Y-35057857D01*
X160718332Y-35057857D02*
X160670713Y-34962619D01*
X160670713Y-34962619D02*
X160623094Y-34915000D01*
X160623094Y-34915000D02*
X160527856Y-34867380D01*
X160527856Y-34867380D02*
X160289761Y-34867380D01*
X160289761Y-34867380D02*
X160146904Y-34915000D01*
X159813570Y-34867380D02*
X159575475Y-35867380D01*
X159575475Y-35867380D02*
X159384999Y-35153095D01*
X159384999Y-35153095D02*
X159194523Y-35867380D01*
X159194523Y-35867380D02*
X158956428Y-34867380D01*
X158670713Y-34867380D02*
X158004047Y-34867380D01*
X158004047Y-34867380D02*
X158432618Y-35867380D01*
%TO.C,SW17*%
X84994523Y-54869761D02*
X84851666Y-54917380D01*
X84851666Y-54917380D02*
X84613571Y-54917380D01*
X84613571Y-54917380D02*
X84518333Y-54869761D01*
X84518333Y-54869761D02*
X84470714Y-54822142D01*
X84470714Y-54822142D02*
X84423095Y-54726904D01*
X84423095Y-54726904D02*
X84423095Y-54631666D01*
X84423095Y-54631666D02*
X84470714Y-54536428D01*
X84470714Y-54536428D02*
X84518333Y-54488809D01*
X84518333Y-54488809D02*
X84613571Y-54441190D01*
X84613571Y-54441190D02*
X84804047Y-54393571D01*
X84804047Y-54393571D02*
X84899285Y-54345952D01*
X84899285Y-54345952D02*
X84946904Y-54298333D01*
X84946904Y-54298333D02*
X84994523Y-54203095D01*
X84994523Y-54203095D02*
X84994523Y-54107857D01*
X84994523Y-54107857D02*
X84946904Y-54012619D01*
X84946904Y-54012619D02*
X84899285Y-53965000D01*
X84899285Y-53965000D02*
X84804047Y-53917380D01*
X84804047Y-53917380D02*
X84565952Y-53917380D01*
X84565952Y-53917380D02*
X84423095Y-53965000D01*
X84089761Y-53917380D02*
X83851666Y-54917380D01*
X83851666Y-54917380D02*
X83661190Y-54203095D01*
X83661190Y-54203095D02*
X83470714Y-54917380D01*
X83470714Y-54917380D02*
X83232619Y-53917380D01*
X82327857Y-54917380D02*
X82899285Y-54917380D01*
X82613571Y-54917380D02*
X82613571Y-53917380D01*
X82613571Y-53917380D02*
X82708809Y-54060238D01*
X82708809Y-54060238D02*
X82804047Y-54155476D01*
X82804047Y-54155476D02*
X82899285Y-54203095D01*
X81994523Y-53917380D02*
X81327857Y-53917380D01*
X81327857Y-53917380D02*
X81756428Y-54917380D01*
D12*
%TO.C,D3*%
X85875475Y-47373904D02*
X85875475Y-46573904D01*
X85875475Y-46573904D02*
X85684999Y-46573904D01*
X85684999Y-46573904D02*
X85570713Y-46612000D01*
X85570713Y-46612000D02*
X85494523Y-46688190D01*
X85494523Y-46688190D02*
X85456428Y-46764380D01*
X85456428Y-46764380D02*
X85418332Y-46916761D01*
X85418332Y-46916761D02*
X85418332Y-47031047D01*
X85418332Y-47031047D02*
X85456428Y-47183428D01*
X85456428Y-47183428D02*
X85494523Y-47259619D01*
X85494523Y-47259619D02*
X85570713Y-47335809D01*
X85570713Y-47335809D02*
X85684999Y-47373904D01*
X85684999Y-47373904D02*
X85875475Y-47373904D01*
X85151666Y-46573904D02*
X84656428Y-46573904D01*
X84656428Y-46573904D02*
X84923094Y-46878666D01*
X84923094Y-46878666D02*
X84808809Y-46878666D01*
X84808809Y-46878666D02*
X84732618Y-46916761D01*
X84732618Y-46916761D02*
X84694523Y-46954857D01*
X84694523Y-46954857D02*
X84656428Y-47031047D01*
X84656428Y-47031047D02*
X84656428Y-47221523D01*
X84656428Y-47221523D02*
X84694523Y-47297714D01*
X84694523Y-47297714D02*
X84732618Y-47335809D01*
X84732618Y-47335809D02*
X84808809Y-47373904D01*
X84808809Y-47373904D02*
X85037380Y-47373904D01*
X85037380Y-47373904D02*
X85113571Y-47335809D01*
X85113571Y-47335809D02*
X85151666Y-47297714D01*
D11*
%TO.C,SW48*%
X142144523Y-93089761D02*
X142001666Y-93137380D01*
X142001666Y-93137380D02*
X141763571Y-93137380D01*
X141763571Y-93137380D02*
X141668333Y-93089761D01*
X141668333Y-93089761D02*
X141620714Y-93042142D01*
X141620714Y-93042142D02*
X141573095Y-92946904D01*
X141573095Y-92946904D02*
X141573095Y-92851666D01*
X141573095Y-92851666D02*
X141620714Y-92756428D01*
X141620714Y-92756428D02*
X141668333Y-92708809D01*
X141668333Y-92708809D02*
X141763571Y-92661190D01*
X141763571Y-92661190D02*
X141954047Y-92613571D01*
X141954047Y-92613571D02*
X142049285Y-92565952D01*
X142049285Y-92565952D02*
X142096904Y-92518333D01*
X142096904Y-92518333D02*
X142144523Y-92423095D01*
X142144523Y-92423095D02*
X142144523Y-92327857D01*
X142144523Y-92327857D02*
X142096904Y-92232619D01*
X142096904Y-92232619D02*
X142049285Y-92185000D01*
X142049285Y-92185000D02*
X141954047Y-92137380D01*
X141954047Y-92137380D02*
X141715952Y-92137380D01*
X141715952Y-92137380D02*
X141573095Y-92185000D01*
X141239761Y-92137380D02*
X141001666Y-93137380D01*
X141001666Y-93137380D02*
X140811190Y-92423095D01*
X140811190Y-92423095D02*
X140620714Y-93137380D01*
X140620714Y-93137380D02*
X140382619Y-92137380D01*
X139573095Y-92470714D02*
X139573095Y-93137380D01*
X139811190Y-92089761D02*
X140049285Y-92804047D01*
X140049285Y-92804047D02*
X139430238Y-92804047D01*
X138906428Y-92565952D02*
X139001666Y-92518333D01*
X139001666Y-92518333D02*
X139049285Y-92470714D01*
X139049285Y-92470714D02*
X139096904Y-92375476D01*
X139096904Y-92375476D02*
X139096904Y-92327857D01*
X139096904Y-92327857D02*
X139049285Y-92232619D01*
X139049285Y-92232619D02*
X139001666Y-92185000D01*
X139001666Y-92185000D02*
X138906428Y-92137380D01*
X138906428Y-92137380D02*
X138715952Y-92137380D01*
X138715952Y-92137380D02*
X138620714Y-92185000D01*
X138620714Y-92185000D02*
X138573095Y-92232619D01*
X138573095Y-92232619D02*
X138525476Y-92327857D01*
X138525476Y-92327857D02*
X138525476Y-92375476D01*
X138525476Y-92375476D02*
X138573095Y-92470714D01*
X138573095Y-92470714D02*
X138620714Y-92518333D01*
X138620714Y-92518333D02*
X138715952Y-92565952D01*
X138715952Y-92565952D02*
X138906428Y-92565952D01*
X138906428Y-92565952D02*
X139001666Y-92613571D01*
X139001666Y-92613571D02*
X139049285Y-92661190D01*
X139049285Y-92661190D02*
X139096904Y-92756428D01*
X139096904Y-92756428D02*
X139096904Y-92946904D01*
X139096904Y-92946904D02*
X139049285Y-93042142D01*
X139049285Y-93042142D02*
X139001666Y-93089761D01*
X139001666Y-93089761D02*
X138906428Y-93137380D01*
X138906428Y-93137380D02*
X138715952Y-93137380D01*
X138715952Y-93137380D02*
X138620714Y-93089761D01*
X138620714Y-93089761D02*
X138573095Y-93042142D01*
X138573095Y-93042142D02*
X138525476Y-92946904D01*
X138525476Y-92946904D02*
X138525476Y-92756428D01*
X138525476Y-92756428D02*
X138573095Y-92661190D01*
X138573095Y-92661190D02*
X138620714Y-92613571D01*
X138620714Y-92613571D02*
X138715952Y-92565952D01*
D12*
%TO.C,D48*%
X143316428Y-104603904D02*
X143316428Y-103803904D01*
X143316428Y-103803904D02*
X143125952Y-103803904D01*
X143125952Y-103803904D02*
X143011666Y-103842000D01*
X143011666Y-103842000D02*
X142935476Y-103918190D01*
X142935476Y-103918190D02*
X142897381Y-103994380D01*
X142897381Y-103994380D02*
X142859285Y-104146761D01*
X142859285Y-104146761D02*
X142859285Y-104261047D01*
X142859285Y-104261047D02*
X142897381Y-104413428D01*
X142897381Y-104413428D02*
X142935476Y-104489619D01*
X142935476Y-104489619D02*
X143011666Y-104565809D01*
X143011666Y-104565809D02*
X143125952Y-104603904D01*
X143125952Y-104603904D02*
X143316428Y-104603904D01*
X142173571Y-104070571D02*
X142173571Y-104603904D01*
X142364047Y-103765809D02*
X142554524Y-104337238D01*
X142554524Y-104337238D02*
X142059285Y-104337238D01*
X141640238Y-104146761D02*
X141716428Y-104108666D01*
X141716428Y-104108666D02*
X141754523Y-104070571D01*
X141754523Y-104070571D02*
X141792619Y-103994380D01*
X141792619Y-103994380D02*
X141792619Y-103956285D01*
X141792619Y-103956285D02*
X141754523Y-103880095D01*
X141754523Y-103880095D02*
X141716428Y-103842000D01*
X141716428Y-103842000D02*
X141640238Y-103803904D01*
X141640238Y-103803904D02*
X141487857Y-103803904D01*
X141487857Y-103803904D02*
X141411666Y-103842000D01*
X141411666Y-103842000D02*
X141373571Y-103880095D01*
X141373571Y-103880095D02*
X141335476Y-103956285D01*
X141335476Y-103956285D02*
X141335476Y-103994380D01*
X141335476Y-103994380D02*
X141373571Y-104070571D01*
X141373571Y-104070571D02*
X141411666Y-104108666D01*
X141411666Y-104108666D02*
X141487857Y-104146761D01*
X141487857Y-104146761D02*
X141640238Y-104146761D01*
X141640238Y-104146761D02*
X141716428Y-104184857D01*
X141716428Y-104184857D02*
X141754523Y-104222952D01*
X141754523Y-104222952D02*
X141792619Y-104299142D01*
X141792619Y-104299142D02*
X141792619Y-104451523D01*
X141792619Y-104451523D02*
X141754523Y-104527714D01*
X141754523Y-104527714D02*
X141716428Y-104565809D01*
X141716428Y-104565809D02*
X141640238Y-104603904D01*
X141640238Y-104603904D02*
X141487857Y-104603904D01*
X141487857Y-104603904D02*
X141411666Y-104565809D01*
X141411666Y-104565809D02*
X141373571Y-104527714D01*
X141373571Y-104527714D02*
X141335476Y-104451523D01*
X141335476Y-104451523D02*
X141335476Y-104299142D01*
X141335476Y-104299142D02*
X141373571Y-104222952D01*
X141373571Y-104222952D02*
X141411666Y-104184857D01*
X141411666Y-104184857D02*
X141487857Y-104146761D01*
D11*
%TO.C,SW60*%
X161194523Y-112019761D02*
X161051666Y-112067380D01*
X161051666Y-112067380D02*
X160813571Y-112067380D01*
X160813571Y-112067380D02*
X160718333Y-112019761D01*
X160718333Y-112019761D02*
X160670714Y-111972142D01*
X160670714Y-111972142D02*
X160623095Y-111876904D01*
X160623095Y-111876904D02*
X160623095Y-111781666D01*
X160623095Y-111781666D02*
X160670714Y-111686428D01*
X160670714Y-111686428D02*
X160718333Y-111638809D01*
X160718333Y-111638809D02*
X160813571Y-111591190D01*
X160813571Y-111591190D02*
X161004047Y-111543571D01*
X161004047Y-111543571D02*
X161099285Y-111495952D01*
X161099285Y-111495952D02*
X161146904Y-111448333D01*
X161146904Y-111448333D02*
X161194523Y-111353095D01*
X161194523Y-111353095D02*
X161194523Y-111257857D01*
X161194523Y-111257857D02*
X161146904Y-111162619D01*
X161146904Y-111162619D02*
X161099285Y-111115000D01*
X161099285Y-111115000D02*
X161004047Y-111067380D01*
X161004047Y-111067380D02*
X160765952Y-111067380D01*
X160765952Y-111067380D02*
X160623095Y-111115000D01*
X160289761Y-111067380D02*
X160051666Y-112067380D01*
X160051666Y-112067380D02*
X159861190Y-111353095D01*
X159861190Y-111353095D02*
X159670714Y-112067380D01*
X159670714Y-112067380D02*
X159432619Y-111067380D01*
X158623095Y-111067380D02*
X158813571Y-111067380D01*
X158813571Y-111067380D02*
X158908809Y-111115000D01*
X158908809Y-111115000D02*
X158956428Y-111162619D01*
X158956428Y-111162619D02*
X159051666Y-111305476D01*
X159051666Y-111305476D02*
X159099285Y-111495952D01*
X159099285Y-111495952D02*
X159099285Y-111876904D01*
X159099285Y-111876904D02*
X159051666Y-111972142D01*
X159051666Y-111972142D02*
X159004047Y-112019761D01*
X159004047Y-112019761D02*
X158908809Y-112067380D01*
X158908809Y-112067380D02*
X158718333Y-112067380D01*
X158718333Y-112067380D02*
X158623095Y-112019761D01*
X158623095Y-112019761D02*
X158575476Y-111972142D01*
X158575476Y-111972142D02*
X158527857Y-111876904D01*
X158527857Y-111876904D02*
X158527857Y-111638809D01*
X158527857Y-111638809D02*
X158575476Y-111543571D01*
X158575476Y-111543571D02*
X158623095Y-111495952D01*
X158623095Y-111495952D02*
X158718333Y-111448333D01*
X158718333Y-111448333D02*
X158908809Y-111448333D01*
X158908809Y-111448333D02*
X159004047Y-111495952D01*
X159004047Y-111495952D02*
X159051666Y-111543571D01*
X159051666Y-111543571D02*
X159099285Y-111638809D01*
X157908809Y-111067380D02*
X157813571Y-111067380D01*
X157813571Y-111067380D02*
X157718333Y-111115000D01*
X157718333Y-111115000D02*
X157670714Y-111162619D01*
X157670714Y-111162619D02*
X157623095Y-111257857D01*
X157623095Y-111257857D02*
X157575476Y-111448333D01*
X157575476Y-111448333D02*
X157575476Y-111686428D01*
X157575476Y-111686428D02*
X157623095Y-111876904D01*
X157623095Y-111876904D02*
X157670714Y-111972142D01*
X157670714Y-111972142D02*
X157718333Y-112019761D01*
X157718333Y-112019761D02*
X157813571Y-112067380D01*
X157813571Y-112067380D02*
X157908809Y-112067380D01*
X157908809Y-112067380D02*
X158004047Y-112019761D01*
X158004047Y-112019761D02*
X158051666Y-111972142D01*
X158051666Y-111972142D02*
X158099285Y-111876904D01*
X158099285Y-111876904D02*
X158146904Y-111686428D01*
X158146904Y-111686428D02*
X158146904Y-111448333D01*
X158146904Y-111448333D02*
X158099285Y-111257857D01*
X158099285Y-111257857D02*
X158051666Y-111162619D01*
X158051666Y-111162619D02*
X158004047Y-111115000D01*
X158004047Y-111115000D02*
X157908809Y-111067380D01*
%TO.C,SW18*%
X104044523Y-54869761D02*
X103901666Y-54917380D01*
X103901666Y-54917380D02*
X103663571Y-54917380D01*
X103663571Y-54917380D02*
X103568333Y-54869761D01*
X103568333Y-54869761D02*
X103520714Y-54822142D01*
X103520714Y-54822142D02*
X103473095Y-54726904D01*
X103473095Y-54726904D02*
X103473095Y-54631666D01*
X103473095Y-54631666D02*
X103520714Y-54536428D01*
X103520714Y-54536428D02*
X103568333Y-54488809D01*
X103568333Y-54488809D02*
X103663571Y-54441190D01*
X103663571Y-54441190D02*
X103854047Y-54393571D01*
X103854047Y-54393571D02*
X103949285Y-54345952D01*
X103949285Y-54345952D02*
X103996904Y-54298333D01*
X103996904Y-54298333D02*
X104044523Y-54203095D01*
X104044523Y-54203095D02*
X104044523Y-54107857D01*
X104044523Y-54107857D02*
X103996904Y-54012619D01*
X103996904Y-54012619D02*
X103949285Y-53965000D01*
X103949285Y-53965000D02*
X103854047Y-53917380D01*
X103854047Y-53917380D02*
X103615952Y-53917380D01*
X103615952Y-53917380D02*
X103473095Y-53965000D01*
X103139761Y-53917380D02*
X102901666Y-54917380D01*
X102901666Y-54917380D02*
X102711190Y-54203095D01*
X102711190Y-54203095D02*
X102520714Y-54917380D01*
X102520714Y-54917380D02*
X102282619Y-53917380D01*
X101377857Y-54917380D02*
X101949285Y-54917380D01*
X101663571Y-54917380D02*
X101663571Y-53917380D01*
X101663571Y-53917380D02*
X101758809Y-54060238D01*
X101758809Y-54060238D02*
X101854047Y-54155476D01*
X101854047Y-54155476D02*
X101949285Y-54203095D01*
X100806428Y-54345952D02*
X100901666Y-54298333D01*
X100901666Y-54298333D02*
X100949285Y-54250714D01*
X100949285Y-54250714D02*
X100996904Y-54155476D01*
X100996904Y-54155476D02*
X100996904Y-54107857D01*
X100996904Y-54107857D02*
X100949285Y-54012619D01*
X100949285Y-54012619D02*
X100901666Y-53965000D01*
X100901666Y-53965000D02*
X100806428Y-53917380D01*
X100806428Y-53917380D02*
X100615952Y-53917380D01*
X100615952Y-53917380D02*
X100520714Y-53965000D01*
X100520714Y-53965000D02*
X100473095Y-54012619D01*
X100473095Y-54012619D02*
X100425476Y-54107857D01*
X100425476Y-54107857D02*
X100425476Y-54155476D01*
X100425476Y-54155476D02*
X100473095Y-54250714D01*
X100473095Y-54250714D02*
X100520714Y-54298333D01*
X100520714Y-54298333D02*
X100615952Y-54345952D01*
X100615952Y-54345952D02*
X100806428Y-54345952D01*
X100806428Y-54345952D02*
X100901666Y-54393571D01*
X100901666Y-54393571D02*
X100949285Y-54441190D01*
X100949285Y-54441190D02*
X100996904Y-54536428D01*
X100996904Y-54536428D02*
X100996904Y-54726904D01*
X100996904Y-54726904D02*
X100949285Y-54822142D01*
X100949285Y-54822142D02*
X100901666Y-54869761D01*
X100901666Y-54869761D02*
X100806428Y-54917380D01*
X100806428Y-54917380D02*
X100615952Y-54917380D01*
X100615952Y-54917380D02*
X100520714Y-54869761D01*
X100520714Y-54869761D02*
X100473095Y-54822142D01*
X100473095Y-54822142D02*
X100425476Y-54726904D01*
X100425476Y-54726904D02*
X100425476Y-54536428D01*
X100425476Y-54536428D02*
X100473095Y-54441190D01*
X100473095Y-54441190D02*
X100520714Y-54393571D01*
X100520714Y-54393571D02*
X100615952Y-54345952D01*
D12*
%TO.C,D47*%
X124246428Y-104353904D02*
X124246428Y-103553904D01*
X124246428Y-103553904D02*
X124055952Y-103553904D01*
X124055952Y-103553904D02*
X123941666Y-103592000D01*
X123941666Y-103592000D02*
X123865476Y-103668190D01*
X123865476Y-103668190D02*
X123827381Y-103744380D01*
X123827381Y-103744380D02*
X123789285Y-103896761D01*
X123789285Y-103896761D02*
X123789285Y-104011047D01*
X123789285Y-104011047D02*
X123827381Y-104163428D01*
X123827381Y-104163428D02*
X123865476Y-104239619D01*
X123865476Y-104239619D02*
X123941666Y-104315809D01*
X123941666Y-104315809D02*
X124055952Y-104353904D01*
X124055952Y-104353904D02*
X124246428Y-104353904D01*
X123103571Y-103820571D02*
X123103571Y-104353904D01*
X123294047Y-103515809D02*
X123484524Y-104087238D01*
X123484524Y-104087238D02*
X122989285Y-104087238D01*
X122760714Y-103553904D02*
X122227380Y-103553904D01*
X122227380Y-103553904D02*
X122570238Y-104353904D01*
%TO.C,D29*%
X48056428Y-85823904D02*
X48056428Y-85023904D01*
X48056428Y-85023904D02*
X47865952Y-85023904D01*
X47865952Y-85023904D02*
X47751666Y-85062000D01*
X47751666Y-85062000D02*
X47675476Y-85138190D01*
X47675476Y-85138190D02*
X47637381Y-85214380D01*
X47637381Y-85214380D02*
X47599285Y-85366761D01*
X47599285Y-85366761D02*
X47599285Y-85481047D01*
X47599285Y-85481047D02*
X47637381Y-85633428D01*
X47637381Y-85633428D02*
X47675476Y-85709619D01*
X47675476Y-85709619D02*
X47751666Y-85785809D01*
X47751666Y-85785809D02*
X47865952Y-85823904D01*
X47865952Y-85823904D02*
X48056428Y-85823904D01*
X47294524Y-85100095D02*
X47256428Y-85062000D01*
X47256428Y-85062000D02*
X47180238Y-85023904D01*
X47180238Y-85023904D02*
X46989762Y-85023904D01*
X46989762Y-85023904D02*
X46913571Y-85062000D01*
X46913571Y-85062000D02*
X46875476Y-85100095D01*
X46875476Y-85100095D02*
X46837381Y-85176285D01*
X46837381Y-85176285D02*
X46837381Y-85252476D01*
X46837381Y-85252476D02*
X46875476Y-85366761D01*
X46875476Y-85366761D02*
X47332619Y-85823904D01*
X47332619Y-85823904D02*
X46837381Y-85823904D01*
X46456428Y-85823904D02*
X46304047Y-85823904D01*
X46304047Y-85823904D02*
X46227857Y-85785809D01*
X46227857Y-85785809D02*
X46189761Y-85747714D01*
X46189761Y-85747714D02*
X46113571Y-85633428D01*
X46113571Y-85633428D02*
X46075476Y-85481047D01*
X46075476Y-85481047D02*
X46075476Y-85176285D01*
X46075476Y-85176285D02*
X46113571Y-85100095D01*
X46113571Y-85100095D02*
X46151666Y-85062000D01*
X46151666Y-85062000D02*
X46227857Y-85023904D01*
X46227857Y-85023904D02*
X46380238Y-85023904D01*
X46380238Y-85023904D02*
X46456428Y-85062000D01*
X46456428Y-85062000D02*
X46494523Y-85100095D01*
X46494523Y-85100095D02*
X46532619Y-85176285D01*
X46532619Y-85176285D02*
X46532619Y-85366761D01*
X46532619Y-85366761D02*
X46494523Y-85442952D01*
X46494523Y-85442952D02*
X46456428Y-85481047D01*
X46456428Y-85481047D02*
X46380238Y-85519142D01*
X46380238Y-85519142D02*
X46227857Y-85519142D01*
X46227857Y-85519142D02*
X46151666Y-85481047D01*
X46151666Y-85481047D02*
X46113571Y-85442952D01*
X46113571Y-85442952D02*
X46075476Y-85366761D01*
D11*
%TO.C,SW31*%
X84994523Y-73919761D02*
X84851666Y-73967380D01*
X84851666Y-73967380D02*
X84613571Y-73967380D01*
X84613571Y-73967380D02*
X84518333Y-73919761D01*
X84518333Y-73919761D02*
X84470714Y-73872142D01*
X84470714Y-73872142D02*
X84423095Y-73776904D01*
X84423095Y-73776904D02*
X84423095Y-73681666D01*
X84423095Y-73681666D02*
X84470714Y-73586428D01*
X84470714Y-73586428D02*
X84518333Y-73538809D01*
X84518333Y-73538809D02*
X84613571Y-73491190D01*
X84613571Y-73491190D02*
X84804047Y-73443571D01*
X84804047Y-73443571D02*
X84899285Y-73395952D01*
X84899285Y-73395952D02*
X84946904Y-73348333D01*
X84946904Y-73348333D02*
X84994523Y-73253095D01*
X84994523Y-73253095D02*
X84994523Y-73157857D01*
X84994523Y-73157857D02*
X84946904Y-73062619D01*
X84946904Y-73062619D02*
X84899285Y-73015000D01*
X84899285Y-73015000D02*
X84804047Y-72967380D01*
X84804047Y-72967380D02*
X84565952Y-72967380D01*
X84565952Y-72967380D02*
X84423095Y-73015000D01*
X84089761Y-72967380D02*
X83851666Y-73967380D01*
X83851666Y-73967380D02*
X83661190Y-73253095D01*
X83661190Y-73253095D02*
X83470714Y-73967380D01*
X83470714Y-73967380D02*
X83232619Y-72967380D01*
X82946904Y-72967380D02*
X82327857Y-72967380D01*
X82327857Y-72967380D02*
X82661190Y-73348333D01*
X82661190Y-73348333D02*
X82518333Y-73348333D01*
X82518333Y-73348333D02*
X82423095Y-73395952D01*
X82423095Y-73395952D02*
X82375476Y-73443571D01*
X82375476Y-73443571D02*
X82327857Y-73538809D01*
X82327857Y-73538809D02*
X82327857Y-73776904D01*
X82327857Y-73776904D02*
X82375476Y-73872142D01*
X82375476Y-73872142D02*
X82423095Y-73919761D01*
X82423095Y-73919761D02*
X82518333Y-73967380D01*
X82518333Y-73967380D02*
X82804047Y-73967380D01*
X82804047Y-73967380D02*
X82899285Y-73919761D01*
X82899285Y-73919761D02*
X82946904Y-73872142D01*
X81375476Y-73967380D02*
X81946904Y-73967380D01*
X81661190Y-73967380D02*
X81661190Y-72967380D01*
X81661190Y-72967380D02*
X81756428Y-73110238D01*
X81756428Y-73110238D02*
X81851666Y-73205476D01*
X81851666Y-73205476D02*
X81946904Y-73253095D01*
D12*
%TO.C,D15*%
X48056428Y-66693904D02*
X48056428Y-65893904D01*
X48056428Y-65893904D02*
X47865952Y-65893904D01*
X47865952Y-65893904D02*
X47751666Y-65932000D01*
X47751666Y-65932000D02*
X47675476Y-66008190D01*
X47675476Y-66008190D02*
X47637381Y-66084380D01*
X47637381Y-66084380D02*
X47599285Y-66236761D01*
X47599285Y-66236761D02*
X47599285Y-66351047D01*
X47599285Y-66351047D02*
X47637381Y-66503428D01*
X47637381Y-66503428D02*
X47675476Y-66579619D01*
X47675476Y-66579619D02*
X47751666Y-66655809D01*
X47751666Y-66655809D02*
X47865952Y-66693904D01*
X47865952Y-66693904D02*
X48056428Y-66693904D01*
X46837381Y-66693904D02*
X47294524Y-66693904D01*
X47065952Y-66693904D02*
X47065952Y-65893904D01*
X47065952Y-65893904D02*
X47142143Y-66008190D01*
X47142143Y-66008190D02*
X47218333Y-66084380D01*
X47218333Y-66084380D02*
X47294524Y-66122476D01*
X46113571Y-65893904D02*
X46494523Y-65893904D01*
X46494523Y-65893904D02*
X46532619Y-66274857D01*
X46532619Y-66274857D02*
X46494523Y-66236761D01*
X46494523Y-66236761D02*
X46418333Y-66198666D01*
X46418333Y-66198666D02*
X46227857Y-66198666D01*
X46227857Y-66198666D02*
X46151666Y-66236761D01*
X46151666Y-66236761D02*
X46113571Y-66274857D01*
X46113571Y-66274857D02*
X46075476Y-66351047D01*
X46075476Y-66351047D02*
X46075476Y-66541523D01*
X46075476Y-66541523D02*
X46113571Y-66617714D01*
X46113571Y-66617714D02*
X46151666Y-66655809D01*
X46151666Y-66655809D02*
X46227857Y-66693904D01*
X46227857Y-66693904D02*
X46418333Y-66693904D01*
X46418333Y-66693904D02*
X46494523Y-66655809D01*
X46494523Y-66655809D02*
X46532619Y-66617714D01*
%TO.C,D1*%
X47675475Y-47373904D02*
X47675475Y-46573904D01*
X47675475Y-46573904D02*
X47484999Y-46573904D01*
X47484999Y-46573904D02*
X47370713Y-46612000D01*
X47370713Y-46612000D02*
X47294523Y-46688190D01*
X47294523Y-46688190D02*
X47256428Y-46764380D01*
X47256428Y-46764380D02*
X47218332Y-46916761D01*
X47218332Y-46916761D02*
X47218332Y-47031047D01*
X47218332Y-47031047D02*
X47256428Y-47183428D01*
X47256428Y-47183428D02*
X47294523Y-47259619D01*
X47294523Y-47259619D02*
X47370713Y-47335809D01*
X47370713Y-47335809D02*
X47484999Y-47373904D01*
X47484999Y-47373904D02*
X47675475Y-47373904D01*
X46456428Y-47373904D02*
X46913571Y-47373904D01*
X46684999Y-47373904D02*
X46684999Y-46573904D01*
X46684999Y-46573904D02*
X46761190Y-46688190D01*
X46761190Y-46688190D02*
X46837380Y-46764380D01*
X46837380Y-46764380D02*
X46913571Y-46802476D01*
D11*
%TO.C,SW5*%
X122618332Y-35819761D02*
X122475475Y-35867380D01*
X122475475Y-35867380D02*
X122237380Y-35867380D01*
X122237380Y-35867380D02*
X122142142Y-35819761D01*
X122142142Y-35819761D02*
X122094523Y-35772142D01*
X122094523Y-35772142D02*
X122046904Y-35676904D01*
X122046904Y-35676904D02*
X122046904Y-35581666D01*
X122046904Y-35581666D02*
X122094523Y-35486428D01*
X122094523Y-35486428D02*
X122142142Y-35438809D01*
X122142142Y-35438809D02*
X122237380Y-35391190D01*
X122237380Y-35391190D02*
X122427856Y-35343571D01*
X122427856Y-35343571D02*
X122523094Y-35295952D01*
X122523094Y-35295952D02*
X122570713Y-35248333D01*
X122570713Y-35248333D02*
X122618332Y-35153095D01*
X122618332Y-35153095D02*
X122618332Y-35057857D01*
X122618332Y-35057857D02*
X122570713Y-34962619D01*
X122570713Y-34962619D02*
X122523094Y-34915000D01*
X122523094Y-34915000D02*
X122427856Y-34867380D01*
X122427856Y-34867380D02*
X122189761Y-34867380D01*
X122189761Y-34867380D02*
X122046904Y-34915000D01*
X121713570Y-34867380D02*
X121475475Y-35867380D01*
X121475475Y-35867380D02*
X121284999Y-35153095D01*
X121284999Y-35153095D02*
X121094523Y-35867380D01*
X121094523Y-35867380D02*
X120856428Y-34867380D01*
X119999285Y-34867380D02*
X120475475Y-34867380D01*
X120475475Y-34867380D02*
X120523094Y-35343571D01*
X120523094Y-35343571D02*
X120475475Y-35295952D01*
X120475475Y-35295952D02*
X120380237Y-35248333D01*
X120380237Y-35248333D02*
X120142142Y-35248333D01*
X120142142Y-35248333D02*
X120046904Y-35295952D01*
X120046904Y-35295952D02*
X119999285Y-35343571D01*
X119999285Y-35343571D02*
X119951666Y-35438809D01*
X119951666Y-35438809D02*
X119951666Y-35676904D01*
X119951666Y-35676904D02*
X119999285Y-35772142D01*
X119999285Y-35772142D02*
X120046904Y-35819761D01*
X120046904Y-35819761D02*
X120142142Y-35867380D01*
X120142142Y-35867380D02*
X120380237Y-35867380D01*
X120380237Y-35867380D02*
X120475475Y-35819761D01*
X120475475Y-35819761D02*
X120523094Y-35772142D01*
%TO.C,U1*%
X62167380Y-115853095D02*
X62976904Y-115853095D01*
X62976904Y-115853095D02*
X63072142Y-115900714D01*
X63072142Y-115900714D02*
X63119761Y-115948333D01*
X63119761Y-115948333D02*
X63167380Y-116043571D01*
X63167380Y-116043571D02*
X63167380Y-116234047D01*
X63167380Y-116234047D02*
X63119761Y-116329285D01*
X63119761Y-116329285D02*
X63072142Y-116376904D01*
X63072142Y-116376904D02*
X62976904Y-116424523D01*
X62976904Y-116424523D02*
X62167380Y-116424523D01*
X63167380Y-117424523D02*
X63167380Y-116853095D01*
X63167380Y-117138809D02*
X62167380Y-117138809D01*
X62167380Y-117138809D02*
X62310238Y-117043571D01*
X62310238Y-117043571D02*
X62405476Y-116948333D01*
X62405476Y-116948333D02*
X62453095Y-116853095D01*
X89255809Y-109105475D02*
X89293904Y-109219761D01*
X89293904Y-109219761D02*
X89293904Y-109410237D01*
X89293904Y-109410237D02*
X89255809Y-109486428D01*
X89255809Y-109486428D02*
X89217714Y-109524523D01*
X89217714Y-109524523D02*
X89141523Y-109562618D01*
X89141523Y-109562618D02*
X89065333Y-109562618D01*
X89065333Y-109562618D02*
X88989142Y-109524523D01*
X88989142Y-109524523D02*
X88951047Y-109486428D01*
X88951047Y-109486428D02*
X88912952Y-109410237D01*
X88912952Y-109410237D02*
X88874857Y-109257856D01*
X88874857Y-109257856D02*
X88836761Y-109181666D01*
X88836761Y-109181666D02*
X88798666Y-109143571D01*
X88798666Y-109143571D02*
X88722476Y-109105475D01*
X88722476Y-109105475D02*
X88646285Y-109105475D01*
X88646285Y-109105475D02*
X88570095Y-109143571D01*
X88570095Y-109143571D02*
X88532000Y-109181666D01*
X88532000Y-109181666D02*
X88493904Y-109257856D01*
X88493904Y-109257856D02*
X88493904Y-109448333D01*
X88493904Y-109448333D02*
X88532000Y-109562618D01*
X88493904Y-109829285D02*
X89293904Y-110019761D01*
X89293904Y-110019761D02*
X88722476Y-110172142D01*
X88722476Y-110172142D02*
X89293904Y-110324523D01*
X89293904Y-110324523D02*
X88493904Y-110515000D01*
X89217714Y-111276905D02*
X89255809Y-111238809D01*
X89255809Y-111238809D02*
X89293904Y-111124524D01*
X89293904Y-111124524D02*
X89293904Y-111048333D01*
X89293904Y-111048333D02*
X89255809Y-110934047D01*
X89255809Y-110934047D02*
X89179619Y-110857857D01*
X89179619Y-110857857D02*
X89103428Y-110819762D01*
X89103428Y-110819762D02*
X88951047Y-110781666D01*
X88951047Y-110781666D02*
X88836761Y-110781666D01*
X88836761Y-110781666D02*
X88684380Y-110819762D01*
X88684380Y-110819762D02*
X88608190Y-110857857D01*
X88608190Y-110857857D02*
X88532000Y-110934047D01*
X88532000Y-110934047D02*
X88493904Y-111048333D01*
X88493904Y-111048333D02*
X88493904Y-111124524D01*
X88493904Y-111124524D02*
X88532000Y-111238809D01*
X88532000Y-111238809D02*
X88570095Y-111276905D01*
X89293904Y-112000714D02*
X89293904Y-111619762D01*
X89293904Y-111619762D02*
X88493904Y-111619762D01*
X89293904Y-112267381D02*
X88493904Y-112267381D01*
X89293904Y-112724524D02*
X88836761Y-112381666D01*
X88493904Y-112724524D02*
X88951047Y-112267381D01*
X89255809Y-120519761D02*
X89293904Y-120634047D01*
X89293904Y-120634047D02*
X89293904Y-120824523D01*
X89293904Y-120824523D02*
X89255809Y-120900714D01*
X89255809Y-120900714D02*
X89217714Y-120938809D01*
X89217714Y-120938809D02*
X89141523Y-120976904D01*
X89141523Y-120976904D02*
X89065333Y-120976904D01*
X89065333Y-120976904D02*
X88989142Y-120938809D01*
X88989142Y-120938809D02*
X88951047Y-120900714D01*
X88951047Y-120900714D02*
X88912952Y-120824523D01*
X88912952Y-120824523D02*
X88874857Y-120672142D01*
X88874857Y-120672142D02*
X88836761Y-120595952D01*
X88836761Y-120595952D02*
X88798666Y-120557857D01*
X88798666Y-120557857D02*
X88722476Y-120519761D01*
X88722476Y-120519761D02*
X88646285Y-120519761D01*
X88646285Y-120519761D02*
X88570095Y-120557857D01*
X88570095Y-120557857D02*
X88532000Y-120595952D01*
X88532000Y-120595952D02*
X88493904Y-120672142D01*
X88493904Y-120672142D02*
X88493904Y-120862619D01*
X88493904Y-120862619D02*
X88532000Y-120976904D01*
X88493904Y-121243571D02*
X89293904Y-121434047D01*
X89293904Y-121434047D02*
X88722476Y-121586428D01*
X88722476Y-121586428D02*
X89293904Y-121738809D01*
X89293904Y-121738809D02*
X88493904Y-121929286D01*
X89293904Y-122234048D02*
X88493904Y-122234048D01*
X88493904Y-122234048D02*
X88493904Y-122424524D01*
X88493904Y-122424524D02*
X88532000Y-122538810D01*
X88532000Y-122538810D02*
X88608190Y-122615000D01*
X88608190Y-122615000D02*
X88684380Y-122653095D01*
X88684380Y-122653095D02*
X88836761Y-122691191D01*
X88836761Y-122691191D02*
X88951047Y-122691191D01*
X88951047Y-122691191D02*
X89103428Y-122653095D01*
X89103428Y-122653095D02*
X89179619Y-122615000D01*
X89179619Y-122615000D02*
X89255809Y-122538810D01*
X89255809Y-122538810D02*
X89293904Y-122424524D01*
X89293904Y-122424524D02*
X89293904Y-122234048D01*
X89293904Y-123034048D02*
X88493904Y-123034048D01*
X88493904Y-123567381D02*
X88493904Y-123719762D01*
X88493904Y-123719762D02*
X88532000Y-123795952D01*
X88532000Y-123795952D02*
X88608190Y-123872143D01*
X88608190Y-123872143D02*
X88760571Y-123910238D01*
X88760571Y-123910238D02*
X89027238Y-123910238D01*
X89027238Y-123910238D02*
X89179619Y-123872143D01*
X89179619Y-123872143D02*
X89255809Y-123795952D01*
X89255809Y-123795952D02*
X89293904Y-123719762D01*
X89293904Y-123719762D02*
X89293904Y-123567381D01*
X89293904Y-123567381D02*
X89255809Y-123491190D01*
X89255809Y-123491190D02*
X89179619Y-123415000D01*
X89179619Y-123415000D02*
X89027238Y-123376904D01*
X89027238Y-123376904D02*
X88760571Y-123376904D01*
X88760571Y-123376904D02*
X88608190Y-123415000D01*
X88608190Y-123415000D02*
X88532000Y-123491190D01*
X88532000Y-123491190D02*
X88493904Y-123567381D01*
%TO.C,D33*%
X120575000Y-83380000D02*
X120575000Y-84880000D01*
X120575000Y-84880000D02*
X125975000Y-84880000D01*
X122775000Y-83630000D02*
X122775000Y-84630000D01*
X122875000Y-84130000D02*
X123775000Y-83630000D01*
X123775000Y-83630000D02*
X123775000Y-84630000D01*
X123775000Y-84630000D02*
X122875000Y-84130000D01*
X125975000Y-83380000D02*
X120575000Y-83380000D01*
X125975000Y-84880000D02*
X125975000Y-83380000D01*
%TO.C,D43*%
X44385000Y-102060000D02*
X44385000Y-103560000D01*
X44385000Y-103560000D02*
X49785000Y-103560000D01*
X46585000Y-102310000D02*
X46585000Y-103310000D01*
X46685000Y-102810000D02*
X47585000Y-102310000D01*
X47585000Y-102310000D02*
X47585000Y-103310000D01*
X47585000Y-103310000D02*
X46685000Y-102810000D01*
X49785000Y-102060000D02*
X44385000Y-102060000D01*
X49785000Y-103560000D02*
X49785000Y-102060000D01*
%TO.C,D60*%
X158720000Y-121130000D02*
X158720000Y-122630000D01*
X158720000Y-122630000D02*
X164120000Y-122630000D01*
X160920000Y-121380000D02*
X160920000Y-122380000D01*
X161020000Y-121880000D02*
X161920000Y-121380000D01*
X161920000Y-121380000D02*
X161920000Y-122380000D01*
X161920000Y-122380000D02*
X161020000Y-121880000D01*
X164120000Y-121130000D02*
X158720000Y-121130000D01*
X164120000Y-122630000D02*
X164120000Y-121130000D01*
%TO.C,D18*%
X101635000Y-64250000D02*
X101635000Y-65750000D01*
X101635000Y-65750000D02*
X107035000Y-65750000D01*
X103835000Y-64500000D02*
X103835000Y-65500000D01*
X103935000Y-65000000D02*
X104835000Y-64500000D01*
X104835000Y-64500000D02*
X104835000Y-65500000D01*
X104835000Y-65500000D02*
X103935000Y-65000000D01*
X107035000Y-64250000D02*
X101635000Y-64250000D01*
X107035000Y-65750000D02*
X107035000Y-64250000D01*
%TO.C,D16*%
X63435000Y-64250000D02*
X63435000Y-65750000D01*
X63435000Y-65750000D02*
X68835000Y-65750000D01*
X65635000Y-64500000D02*
X65635000Y-65500000D01*
X65735000Y-65000000D02*
X66635000Y-64500000D01*
X66635000Y-64500000D02*
X66635000Y-65500000D01*
X66635000Y-65500000D02*
X65735000Y-65000000D01*
X68835000Y-64250000D02*
X63435000Y-64250000D01*
X68835000Y-65750000D02*
X68835000Y-64250000D01*
%TO.C,D6*%
X139645000Y-44930000D02*
X139645000Y-46430000D01*
X139645000Y-46430000D02*
X145045000Y-46430000D01*
X141845000Y-45180000D02*
X141845000Y-46180000D01*
X141945000Y-45680000D02*
X142845000Y-45180000D01*
X142845000Y-45180000D02*
X142845000Y-46180000D01*
X142845000Y-46180000D02*
X141945000Y-45680000D01*
X145045000Y-44930000D02*
X139645000Y-44930000D01*
X145045000Y-46430000D02*
X145045000Y-44930000D01*
%TO.C,D17*%
X82585000Y-64250000D02*
X82585000Y-65750000D01*
X82585000Y-65750000D02*
X87985000Y-65750000D01*
X84785000Y-64500000D02*
X84785000Y-65500000D01*
X84885000Y-65000000D02*
X85785000Y-64500000D01*
X85785000Y-64500000D02*
X85785000Y-65500000D01*
X85785000Y-65500000D02*
X84885000Y-65000000D01*
X87985000Y-64250000D02*
X82585000Y-64250000D01*
X87985000Y-65750000D02*
X87985000Y-64250000D01*
%TO.C,J1*%
X163886500Y-73598750D02*
X163886500Y-67598750D01*
X175886500Y-73598750D02*
X163886500Y-73598750D01*
X163886500Y-67598750D02*
X175886500Y-67598750D01*
X175886500Y-67598750D02*
X175886500Y-73598750D01*
%TO.C,D21*%
X158720000Y-64250000D02*
X158720000Y-65750000D01*
X158720000Y-65750000D02*
X164120000Y-65750000D01*
X160920000Y-64500000D02*
X160920000Y-65500000D01*
X161020000Y-65000000D02*
X161920000Y-64500000D01*
X161920000Y-64500000D02*
X161920000Y-65500000D01*
X161920000Y-65500000D02*
X161020000Y-65000000D01*
X164120000Y-64250000D02*
X158720000Y-64250000D01*
X164120000Y-65750000D02*
X164120000Y-64250000D01*
%TO.C,D58*%
X120575000Y-121130000D02*
X120575000Y-122630000D01*
X120575000Y-122630000D02*
X125975000Y-122630000D01*
X122775000Y-121380000D02*
X122775000Y-122380000D01*
X122875000Y-121880000D02*
X123775000Y-121380000D01*
X123775000Y-121380000D02*
X123775000Y-122380000D01*
X123775000Y-122380000D02*
X122875000Y-121880000D01*
X125975000Y-121130000D02*
X120575000Y-121130000D01*
X125975000Y-122630000D02*
X125975000Y-121130000D01*
%TO.C,D32*%
X101635000Y-83380000D02*
X101635000Y-84880000D01*
X101635000Y-84880000D02*
X107035000Y-84880000D01*
X103835000Y-83630000D02*
X103835000Y-84630000D01*
X103935000Y-84130000D02*
X104835000Y-83630000D01*
X104835000Y-83630000D02*
X104835000Y-84630000D01*
X104835000Y-84630000D02*
X103935000Y-84130000D01*
X107035000Y-83380000D02*
X101635000Y-83380000D01*
X107035000Y-84880000D02*
X107035000Y-83380000D01*
%TO.C,D35*%
X158720000Y-83380000D02*
X158720000Y-84880000D01*
X158720000Y-84880000D02*
X164120000Y-84880000D01*
X160920000Y-83630000D02*
X160920000Y-84630000D01*
X161020000Y-84130000D02*
X161920000Y-83630000D01*
X161920000Y-83630000D02*
X161920000Y-84630000D01*
X161920000Y-84630000D02*
X161020000Y-84130000D01*
X164120000Y-83380000D02*
X158720000Y-83380000D01*
X164120000Y-84880000D02*
X164120000Y-83380000D01*
%TO.C,D46*%
X101635000Y-102060000D02*
X101635000Y-103560000D01*
X101635000Y-103560000D02*
X107035000Y-103560000D01*
X103835000Y-102310000D02*
X103835000Y-103310000D01*
X103935000Y-102810000D02*
X104835000Y-102310000D01*
X104835000Y-102310000D02*
X104835000Y-103310000D01*
X104835000Y-103310000D02*
X103935000Y-102810000D01*
X107035000Y-102060000D02*
X101635000Y-102060000D01*
X107035000Y-103560000D02*
X107035000Y-102060000D01*
%TO.C,D34*%
X139645000Y-83380000D02*
X139645000Y-84880000D01*
X139645000Y-84880000D02*
X145045000Y-84880000D01*
X141845000Y-83630000D02*
X141845000Y-84630000D01*
X141945000Y-84130000D02*
X142845000Y-83630000D01*
X142845000Y-83630000D02*
X142845000Y-84630000D01*
X142845000Y-84630000D02*
X141945000Y-84130000D01*
X145045000Y-83380000D02*
X139645000Y-83380000D01*
X145045000Y-84880000D02*
X145045000Y-83380000D01*
%TO.C,D2*%
X63435000Y-44930000D02*
X63435000Y-46430000D01*
X63435000Y-46430000D02*
X68835000Y-46430000D01*
X65635000Y-45180000D02*
X65635000Y-46180000D01*
X65735000Y-45680000D02*
X66635000Y-45180000D01*
X66635000Y-45180000D02*
X66635000Y-46180000D01*
X66635000Y-46180000D02*
X65735000Y-45680000D01*
X68835000Y-44930000D02*
X63435000Y-44930000D01*
X68835000Y-46430000D02*
X68835000Y-44930000D01*
%TO.C,D31*%
X82585000Y-83380000D02*
X82585000Y-84880000D01*
X82585000Y-84880000D02*
X87985000Y-84880000D01*
X84785000Y-83630000D02*
X84785000Y-84630000D01*
X84885000Y-84130000D02*
X85785000Y-83630000D01*
X85785000Y-83630000D02*
X85785000Y-84630000D01*
X85785000Y-84630000D02*
X84885000Y-84130000D01*
X87985000Y-83380000D02*
X82585000Y-83380000D01*
X87985000Y-84880000D02*
X87985000Y-83380000D01*
%TO.C,D59*%
X139645000Y-121130000D02*
X139645000Y-122630000D01*
X139645000Y-122630000D02*
X145045000Y-122630000D01*
X141845000Y-121380000D02*
X141845000Y-122380000D01*
X141945000Y-121880000D02*
X142845000Y-121380000D01*
X142845000Y-121380000D02*
X142845000Y-122380000D01*
X142845000Y-122380000D02*
X141945000Y-121880000D01*
X145045000Y-121130000D02*
X139645000Y-121130000D01*
X145045000Y-122630000D02*
X145045000Y-121130000D01*
%TO.C,D5*%
X120575000Y-44930000D02*
X120575000Y-46430000D01*
X120575000Y-46430000D02*
X125975000Y-46430000D01*
X122775000Y-45180000D02*
X122775000Y-46180000D01*
X122875000Y-45680000D02*
X123775000Y-45180000D01*
X123775000Y-45180000D02*
X123775000Y-46180000D01*
X123775000Y-46180000D02*
X122875000Y-45680000D01*
X125975000Y-44930000D02*
X120575000Y-44930000D01*
X125975000Y-46430000D02*
X125975000Y-44930000D01*
%TO.C,D4*%
X101635000Y-44930000D02*
X101635000Y-46430000D01*
X101635000Y-46430000D02*
X107035000Y-46430000D01*
X103835000Y-45180000D02*
X103835000Y-46180000D01*
X103935000Y-45680000D02*
X104835000Y-45180000D01*
X104835000Y-45180000D02*
X104835000Y-46180000D01*
X104835000Y-46180000D02*
X103935000Y-45680000D01*
X107035000Y-44930000D02*
X101635000Y-44930000D01*
X107035000Y-46430000D02*
X107035000Y-44930000D01*
%TO.C,D7*%
X158720000Y-44930000D02*
X158720000Y-46430000D01*
X158720000Y-46430000D02*
X164120000Y-46430000D01*
X160920000Y-45180000D02*
X160920000Y-46180000D01*
X161020000Y-45680000D02*
X161920000Y-45180000D01*
X161920000Y-45180000D02*
X161920000Y-46180000D01*
X161920000Y-46180000D02*
X161020000Y-45680000D01*
X164120000Y-44930000D02*
X158720000Y-44930000D01*
X164120000Y-46430000D02*
X164120000Y-44930000D01*
%TO.C,D57*%
X101635000Y-121130000D02*
X101635000Y-122630000D01*
X101635000Y-122630000D02*
X107035000Y-122630000D01*
X103835000Y-121380000D02*
X103835000Y-122380000D01*
X103935000Y-121880000D02*
X104835000Y-121380000D01*
X104835000Y-121380000D02*
X104835000Y-122380000D01*
X104835000Y-122380000D02*
X103935000Y-121880000D01*
X107035000Y-121130000D02*
X101635000Y-121130000D01*
X107035000Y-122630000D02*
X107035000Y-121130000D01*
%TO.C,D44*%
X63435000Y-102460000D02*
X63435000Y-103960000D01*
X63435000Y-103960000D02*
X68835000Y-103960000D01*
X65635000Y-102710000D02*
X65635000Y-103710000D01*
X65735000Y-103210000D02*
X66635000Y-102710000D01*
X66635000Y-102710000D02*
X66635000Y-103710000D01*
X66635000Y-103710000D02*
X65735000Y-103210000D01*
X68835000Y-102460000D02*
X63435000Y-102460000D01*
X68835000Y-103960000D02*
X68835000Y-102460000D01*
%TO.C,D20*%
X139645000Y-64250000D02*
X139645000Y-65750000D01*
X139645000Y-65750000D02*
X145045000Y-65750000D01*
X141845000Y-64500000D02*
X141845000Y-65500000D01*
X141945000Y-65000000D02*
X142845000Y-64500000D01*
X142845000Y-64500000D02*
X142845000Y-65500000D01*
X142845000Y-65500000D02*
X141945000Y-65000000D01*
X145045000Y-64250000D02*
X139645000Y-64250000D01*
X145045000Y-65750000D02*
X145045000Y-64250000D01*
%TO.C,D30*%
X63435000Y-83380000D02*
X63435000Y-84880000D01*
X63435000Y-84880000D02*
X68835000Y-84880000D01*
X65635000Y-83630000D02*
X65635000Y-84630000D01*
X65735000Y-84130000D02*
X66635000Y-83630000D01*
X66635000Y-83630000D02*
X66635000Y-84630000D01*
X66635000Y-84630000D02*
X65735000Y-84130000D01*
X68835000Y-83380000D02*
X63435000Y-83380000D01*
X68835000Y-84880000D02*
X68835000Y-83380000D01*
%TO.C,D49*%
X158720000Y-102060000D02*
X158720000Y-103560000D01*
X158720000Y-103560000D02*
X164120000Y-103560000D01*
X160920000Y-102310000D02*
X160920000Y-103310000D01*
X161020000Y-102810000D02*
X161920000Y-102310000D01*
X161920000Y-102310000D02*
X161920000Y-103310000D01*
X161920000Y-103310000D02*
X161020000Y-102810000D01*
X164120000Y-102060000D02*
X158720000Y-102060000D01*
X164120000Y-103560000D02*
X164120000Y-102060000D01*
%TO.C,D45*%
X82585000Y-102460000D02*
X82585000Y-103960000D01*
X82585000Y-103960000D02*
X87985000Y-103960000D01*
X84785000Y-102710000D02*
X84785000Y-103710000D01*
X84885000Y-103210000D02*
X85785000Y-102710000D01*
X85785000Y-102710000D02*
X85785000Y-103710000D01*
X85785000Y-103710000D02*
X84885000Y-103210000D01*
X87985000Y-102460000D02*
X82585000Y-102460000D01*
X87985000Y-103960000D02*
X87985000Y-102460000D01*
%TO.C,D19*%
X120575000Y-64250000D02*
X120575000Y-65750000D01*
X120575000Y-65750000D02*
X125975000Y-65750000D01*
X122775000Y-64500000D02*
X122775000Y-65500000D01*
X122875000Y-65000000D02*
X123775000Y-64500000D01*
X123775000Y-64500000D02*
X123775000Y-65500000D01*
X123775000Y-65500000D02*
X122875000Y-65000000D01*
X125975000Y-64250000D02*
X120575000Y-64250000D01*
X125975000Y-65750000D02*
X125975000Y-64250000D01*
%TO.C,D3*%
X82585000Y-44930000D02*
X82585000Y-46430000D01*
X82585000Y-46430000D02*
X87985000Y-46430000D01*
X84785000Y-45180000D02*
X84785000Y-46180000D01*
X84885000Y-45680000D02*
X85785000Y-45180000D01*
X85785000Y-45180000D02*
X85785000Y-46180000D01*
X85785000Y-46180000D02*
X84885000Y-45680000D01*
X87985000Y-44930000D02*
X82585000Y-44930000D01*
X87985000Y-46430000D02*
X87985000Y-44930000D01*
%TO.C,D48*%
X139645000Y-102060000D02*
X139645000Y-103560000D01*
X139645000Y-103560000D02*
X145045000Y-103560000D01*
X141845000Y-102310000D02*
X141845000Y-103310000D01*
X141945000Y-102810000D02*
X142845000Y-102310000D01*
X142845000Y-102310000D02*
X142845000Y-103310000D01*
X142845000Y-103310000D02*
X141945000Y-102810000D01*
X145045000Y-102060000D02*
X139645000Y-102060000D01*
X145045000Y-103560000D02*
X145045000Y-102060000D01*
%TO.C,D47*%
X120575000Y-101810000D02*
X120575000Y-103310000D01*
X120575000Y-103310000D02*
X125975000Y-103310000D01*
X122775000Y-102060000D02*
X122775000Y-103060000D01*
X122875000Y-102560000D02*
X123775000Y-102060000D01*
X123775000Y-102060000D02*
X123775000Y-103060000D01*
X123775000Y-103060000D02*
X122875000Y-102560000D01*
X125975000Y-101810000D02*
X120575000Y-101810000D01*
X125975000Y-103310000D02*
X125975000Y-101810000D01*
%TO.C,D29*%
X44385000Y-83380000D02*
X44385000Y-84880000D01*
X44385000Y-84880000D02*
X49785000Y-84880000D01*
X46585000Y-83630000D02*
X46585000Y-84630000D01*
X46685000Y-84130000D02*
X47585000Y-83630000D01*
X47585000Y-83630000D02*
X47585000Y-84630000D01*
X47585000Y-84630000D02*
X46685000Y-84130000D01*
X49785000Y-83380000D02*
X44385000Y-83380000D01*
X49785000Y-84880000D02*
X49785000Y-83380000D01*
%TO.C,D15*%
X44385000Y-64250000D02*
X44385000Y-65750000D01*
X44385000Y-65750000D02*
X49785000Y-65750000D01*
X46585000Y-64500000D02*
X46585000Y-65500000D01*
X46685000Y-65000000D02*
X47585000Y-64500000D01*
X47585000Y-64500000D02*
X47585000Y-65500000D01*
X47585000Y-65500000D02*
X46685000Y-65000000D01*
X49785000Y-64250000D02*
X44385000Y-64250000D01*
X49785000Y-65750000D02*
X49785000Y-64250000D01*
%TO.C,D1*%
X44385000Y-44930000D02*
X44385000Y-46430000D01*
X44385000Y-46430000D02*
X49785000Y-46430000D01*
X46585000Y-45180000D02*
X46585000Y-46180000D01*
X46685000Y-45680000D02*
X47585000Y-45180000D01*
X47585000Y-45180000D02*
X47585000Y-46180000D01*
X47585000Y-46180000D02*
X46685000Y-45680000D01*
X49785000Y-44930000D02*
X44385000Y-44930000D01*
X49785000Y-46430000D02*
X49785000Y-44930000D01*
D13*
%TO.C,U1*%
X85500000Y-106115000D02*
X85900000Y-106115000D01*
X82900000Y-106115000D02*
X83300000Y-106115000D01*
X80400000Y-106115000D02*
X80800000Y-106115000D01*
X77900000Y-106115000D02*
X78300000Y-106115000D01*
X75300000Y-106115000D02*
X75700000Y-106115000D01*
X72800000Y-106115000D02*
X73200000Y-106115000D01*
X70200000Y-106115000D02*
X70600000Y-106115000D01*
X67700000Y-106115000D02*
X68100000Y-106115000D01*
X65100000Y-106115000D02*
X65500000Y-106115000D01*
X62600000Y-106115000D02*
X63000000Y-106115000D01*
X60100000Y-106115000D02*
X60500000Y-106115000D01*
X57500000Y-106115000D02*
X57900000Y-106115000D01*
X55000000Y-106115000D02*
X55400000Y-106115000D01*
X52400000Y-106115000D02*
X52800000Y-106115000D01*
X49900000Y-106115000D02*
X50300000Y-106115000D01*
X47400000Y-106115000D02*
X47800000Y-106115000D01*
X44800000Y-106115000D02*
X45200000Y-106115000D01*
X42300000Y-106115000D02*
X42700000Y-106115000D01*
X39967000Y-106115000D02*
X39967000Y-109122000D01*
X39700000Y-106115000D02*
X40100000Y-106115000D01*
X37300000Y-106115000D02*
X37600000Y-106115000D01*
X37300000Y-106115000D02*
X37300000Y-127115000D01*
X39967000Y-109122000D02*
X37300000Y-109122000D01*
X88300000Y-112915000D02*
X88300000Y-106115000D01*
X88300000Y-115115000D02*
X88300000Y-115515000D01*
X88300000Y-117715000D02*
X88300000Y-118115000D01*
X88300000Y-127115000D02*
X88300000Y-120315000D01*
X85500000Y-127115000D02*
X85900000Y-127115000D01*
X82900000Y-127115000D02*
X83300000Y-127115000D01*
X80400000Y-127115000D02*
X80800000Y-127115000D01*
X77900000Y-127115000D02*
X78300000Y-127115000D01*
X75300000Y-127115000D02*
X75700000Y-127115000D01*
X72800000Y-127115000D02*
X73200000Y-127115000D01*
X70200000Y-127115000D02*
X70600000Y-127115000D01*
X67700000Y-127115000D02*
X68100000Y-127115000D01*
X65100000Y-127115000D02*
X65500000Y-127115000D01*
X62600000Y-127115000D02*
X63000000Y-127115000D01*
X60100000Y-127115000D02*
X60500000Y-127115000D01*
X57500000Y-127115000D02*
X57900000Y-127115000D01*
X55000000Y-127115000D02*
X55400000Y-127115000D01*
X52400000Y-127115000D02*
X52800000Y-127115000D01*
X49900000Y-127115000D02*
X50300000Y-127115000D01*
X47400000Y-127115000D02*
X47800000Y-127115000D01*
X44800000Y-127115000D02*
X45200000Y-127115000D01*
X42300000Y-127115000D02*
X42700000Y-127115000D01*
X39700000Y-127115000D02*
X40100000Y-127115000D01*
X37300000Y-127115000D02*
X37600000Y-127115000D01*
%TD*%
M02*
