M48
; DRILL file {KiCad (7.0.0-0)} date Monday, March 06, 2023 01:51:56
; FORMAT={-:-/ absolute / inch / decimal}
; #@! TF.CreationDate,2023-03-06T01:51:56+09:00
; #@! TF.GenerationSoftware,Kicad,Pcbnew,(7.0.0-0)
; #@! TF.FileFunction,Plated,1,2,PTH
FMAT,2
INCH
; #@! TA.AperFunction,Plated,PTH,ViaDrill
T1C0.0157
; #@! TA.AperFunction,Plated,PTH,ComponentDrill
T2C0.0236
; #@! TA.AperFunction,Plated,PTH,ComponentDrill
T3C0.0300
; #@! TA.AperFunction,Plated,PTH,ComponentDrill
T4C0.0315
%
G90
G05
T1
X1.6236Y-3.2122
X1.6236Y-3.9476
X1.8Y-3.6378
X1.8Y-4.7841
X1.8258Y-4.2378
X2.2956Y-4.7044
X2.3Y-4.6
X2.3736Y-3.9634
X2.4071Y-4.2378
X2.4224Y-4.7606
X2.4291Y-4.6709
X2.6Y-2.7
X2.6224Y-3.9776
X2.6224Y-4.7
X2.7Y-1.8378
X2.7224Y-4.0
X2.7224Y-4.7
X2.8Y-2.5378
X2.8Y-4.4
X2.8Y-4.5
X2.8224Y-4.0
X2.8224Y-4.7
X2.89Y-4.6325
X2.9234Y-4.2
X2.9234Y-4.7
X2.9878Y-3.2122
X3.0224Y-4.7154
X3.1224Y-4.2
X3.1224Y-4.7776
X3.1276Y-3.9634
X3.2Y-4.3378
X3.2Y-4.4
X3.2Y-4.6
X3.2378Y-4.7378
X3.2524Y-3.6524
X3.4Y-4.3378
X3.6Y-4.7
X3.8776Y-4.6984
X4.0Y-4.6378
X4.2Y-4.4
X4.6232Y-4.6984
X4.9Y-4.5
X5.8283Y-4.8044
X6.2Y-4.1378
X6.2715Y-4.1663
X6.5Y-2.6
T3
X3.4764Y-0.9157
X3.4764Y-1.0157
X4.0764Y-0.9157
X4.0764Y-1.0157
T2
G00X6.2689Y-2.7575
M15
G01X6.3043Y-2.7575
M16
G05
G00X6.387Y-2.7575
M15
G01X6.4224Y-2.7575
M16
G05
G00X6.5445Y-2.7575
M15
G01X6.5799Y-2.7575
M16
G05
G00X6.6035Y-2.6
M15
G01X6.639Y-2.6
M16
G05
T4
G00X1.3671Y-1.3976
M15
G01X1.3829Y-1.3976
M16
G05
G00X1.3671Y-2.1476
M15
G01X1.3829Y-2.1476
M16
G05
G00X1.3671Y-2.8976
M15
G01X1.3829Y-2.8976
M16
G05
G00X1.3671Y-3.6524
M15
G01X1.3829Y-3.6524
M16
G05
G00X1.6171Y-1.2976
M15
G01X1.6329Y-1.2976
M16
G05
G00X1.6171Y-2.0476
M15
G01X1.6329Y-2.0476
M16
G05
G00X1.6171Y-2.7976
M15
G01X1.6329Y-2.7976
M16
G05
G00X1.6171Y-3.5524
M15
G01X1.6329Y-3.5524
M16
G05
G00X2.1144Y-1.3976
M15
G01X2.1301Y-1.3976
M16
G05
G00X2.1144Y-2.1476
M15
G01X2.1301Y-2.1476
M16
G05
G00X2.1144Y-2.8976
M15
G01X2.1301Y-2.8976
M16
G05
G00X2.1144Y-3.6524
M15
G01X2.1301Y-3.6524
M16
G05
G00X2.3644Y-1.2976
M15
G01X2.3801Y-1.2976
M16
G05
G00X2.3644Y-2.0476
M15
G01X2.3801Y-2.0476
M16
G05
G00X2.3644Y-2.7976
M15
G01X2.3801Y-2.7976
M16
G05
G00X2.3644Y-3.5524
M15
G01X2.3801Y-3.5524
M16
G05
G00X2.8671Y-1.3976
M15
G01X2.8829Y-1.3976
M16
G05
G00X2.8671Y-2.1476
M15
G01X2.8829Y-2.1476
M16
G05
G00X2.8671Y-2.8976
M15
G01X2.8829Y-2.8976
M16
G05
G00X2.8671Y-3.6524
M15
G01X2.8829Y-3.6524
M16
G05
G00X3.1171Y-1.2976
M15
G01X3.1329Y-1.2976
M16
G05
G00X3.1171Y-2.0476
M15
G01X3.1329Y-2.0476
M16
G05
G00X3.1171Y-2.7976
M15
G01X3.1329Y-2.7976
M16
G05
G00X3.1171Y-3.5524
M15
G01X3.1329Y-3.5524
M16
G05
G00X3.6171Y-1.3976
M15
G01X3.6329Y-1.3976
M16
G05
G00X3.6171Y-2.1476
M15
G01X3.6329Y-2.1476
M16
G05
G00X3.6171Y-2.8976
M15
G01X3.6329Y-2.8976
M16
G05
G00X3.6171Y-3.6524
M15
G01X3.6329Y-3.6524
M16
G05
G00X3.6195Y-4.3976
M15
G01X3.6352Y-4.3976
M16
G05
G00X3.8671Y-1.2976
M15
G01X3.8829Y-1.2976
M16
G05
G00X3.8671Y-2.0476
M15
G01X3.8829Y-2.0476
M16
G05
G00X3.8671Y-2.7976
M15
G01X3.8829Y-2.7976
M16
G05
G00X3.8671Y-3.5524
M15
G01X3.8829Y-3.5524
M16
G05
G00X3.8695Y-4.2976
M15
G01X3.8852Y-4.2976
M16
G05
G00X4.3671Y-1.3976
M15
G01X4.3829Y-1.3976
M16
G05
G00X4.3671Y-2.1476
M15
G01X4.3829Y-2.1476
M16
G05
G00X4.3671Y-2.8976
M15
G01X4.3829Y-2.8976
M16
G05
G00X4.3671Y-3.6524
M15
G01X4.3829Y-3.6524
M16
G05
G00X4.3671Y-4.3976
M15
G01X4.3829Y-4.3976
M16
G05
G00X4.6171Y-1.2976
M15
G01X4.6329Y-1.2976
M16
G05
G00X4.6171Y-2.0476
M15
G01X4.6329Y-2.0476
M16
G05
G00X4.6171Y-2.7976
M15
G01X4.6329Y-2.7976
M16
G05
G00X4.6171Y-3.5524
M15
G01X4.6329Y-3.5524
M16
G05
G00X4.6171Y-4.2976
M15
G01X4.6329Y-4.2976
M16
G05
G00X5.1171Y-1.3976
M15
G01X5.1329Y-1.3976
M16
G05
G00X5.1171Y-2.1476
M15
G01X5.1329Y-2.1476
M16
G05
G00X5.1171Y-2.8976
M15
G01X5.1329Y-2.8976
M16
G05
G00X5.1171Y-3.6524
M15
G01X5.1329Y-3.6524
M16
G05
G00X5.1171Y-4.3976
M15
G01X5.1329Y-4.3976
M16
G05
G00X5.3671Y-1.2976
M15
G01X5.3829Y-1.2976
M16
G05
G00X5.3671Y-2.0476
M15
G01X5.3829Y-2.0476
M16
G05
G00X5.3671Y-2.7976
M15
G01X5.3829Y-2.7976
M16
G05
G00X5.3671Y-3.5524
M15
G01X5.3829Y-3.5524
M16
G05
G00X5.3671Y-4.2976
M15
G01X5.3829Y-4.2976
M16
G05
G00X5.8671Y-1.3976
M15
G01X5.8829Y-1.3976
M16
G05
G00X5.8671Y-2.1476
M15
G01X5.8829Y-2.1476
M16
G05
G00X5.8671Y-2.8976
M15
G01X5.8829Y-2.8976
M16
G05
G00X5.8671Y-3.6476
M15
G01X5.8829Y-3.6476
M16
G05
G00X5.8671Y-4.3976
M15
G01X5.8829Y-4.3976
M16
G05
G00X6.1171Y-1.2976
M15
G01X6.1329Y-1.2976
M16
G05
G00X6.1171Y-2.0476
M15
G01X6.1329Y-2.0476
M16
G05
G00X6.1171Y-2.7976
M15
G01X6.1329Y-2.7976
M16
G05
G00X6.1171Y-3.5476
M15
G01X6.1329Y-3.5476
M16
G05
G00X6.1171Y-4.2976
M15
G01X6.1329Y-4.2976
M16
G05
T0
M30
