%TF.GenerationSoftware,KiCad,Pcbnew,(7.0.0-0)*%
%TF.CreationDate,2023-03-06T01:51:54+09:00*%
%TF.ProjectId,11111_pcb,31313131-315f-4706-9362-2e6b69636164,rev?*%
%TF.SameCoordinates,Original*%
%TF.FileFunction,Soldermask,Top*%
%TF.FilePolarity,Negative*%
%FSLAX46Y46*%
G04 Gerber Fmt 4.6, Leading zero omitted, Abs format (unit mm)*
G04 Created by KiCad (PCBNEW (7.0.0-0)) date 2023-03-06 01:51:54*
%MOMM*%
%LPD*%
G01*
G04 APERTURE LIST*
%ADD10C,1.900000*%
%ADD11C,4.000000*%
%ADD12C,1.210000*%
%ADD13O,2.200000X1.300000*%
%ADD14C,1.524000*%
%ADD15O,1.800000X1.800000*%
%ADD16O,1.500000X1.500000*%
G04 APERTURE END LIST*
D10*
%TO.C,SW46*%
X90805000Y-95310000D03*
D11*
X95885000Y-95310000D03*
D10*
X100965000Y-95310000D03*
%TD*%
D12*
%TO.C,J1*%
X157880000Y-68040000D03*
X164880000Y-68040000D03*
D13*
X168179999Y-66039999D03*
X159679999Y-70039999D03*
X162679999Y-70039999D03*
X166679999Y-70039999D03*
%TD*%
D14*
%TO.C,REF\u002A\u002A*%
X88300000Y-23260000D03*
X88300000Y-25800000D03*
X103540000Y-23260000D03*
X103540000Y-25800000D03*
%TD*%
D10*
%TO.C,SW34*%
X128905000Y-76140000D03*
D11*
X133985000Y-76140000D03*
D10*
X139065000Y-76140000D03*
%TD*%
%TO.C,SW15*%
X33655000Y-57090000D03*
D11*
X38735000Y-57090000D03*
D10*
X43815000Y-57090000D03*
%TD*%
%TO.C,SW45*%
X71755000Y-95310000D03*
D11*
X76835000Y-95310000D03*
D10*
X81915000Y-95310000D03*
%TD*%
%TO.C,SW57*%
X90865000Y-114240000D03*
D11*
X95945000Y-114240000D03*
D10*
X101025000Y-114240000D03*
%TD*%
%TO.C,SW1*%
X33655000Y-38040000D03*
D11*
X38735000Y-38040000D03*
D10*
X43815000Y-38040000D03*
%TD*%
%TO.C,SW58*%
X109855000Y-114240000D03*
D11*
X114935000Y-114240000D03*
D10*
X120015000Y-114240000D03*
%TD*%
%TO.C,SW16*%
X52635000Y-57090000D03*
D11*
X57715000Y-57090000D03*
D10*
X62795000Y-57090000D03*
%TD*%
%TO.C,SW19*%
X109855000Y-57090000D03*
D11*
X114935000Y-57090000D03*
D10*
X120015000Y-57090000D03*
%TD*%
%TO.C,SW43*%
X33655000Y-95310000D03*
D11*
X38735000Y-95310000D03*
D10*
X43815000Y-95310000D03*
%TD*%
%TO.C,SW47*%
X109855000Y-95310000D03*
D11*
X114935000Y-95310000D03*
D10*
X120015000Y-95310000D03*
%TD*%
%TO.C,SW35*%
X147955000Y-76140000D03*
D11*
X153035000Y-76140000D03*
D10*
X158115000Y-76140000D03*
%TD*%
%TO.C,SW30*%
X52635000Y-76140000D03*
D11*
X57715000Y-76140000D03*
D10*
X62795000Y-76140000D03*
%TD*%
%TO.C,SW33*%
X109855000Y-76140000D03*
D11*
X114935000Y-76140000D03*
D10*
X120015000Y-76140000D03*
%TD*%
%TO.C,SW6*%
X128905000Y-38040000D03*
D11*
X133985000Y-38040000D03*
D10*
X139065000Y-38040000D03*
%TD*%
%TO.C,SW44*%
X52635000Y-95310000D03*
D11*
X57715000Y-95310000D03*
D10*
X62795000Y-95310000D03*
%TD*%
%TO.C,SW49*%
X147955000Y-95190000D03*
D11*
X153035000Y-95190000D03*
D10*
X158115000Y-95190000D03*
%TD*%
%TO.C,SW21*%
X147955000Y-57090000D03*
D11*
X153035000Y-57090000D03*
D10*
X158115000Y-57090000D03*
%TD*%
%TO.C,SW29*%
X33655000Y-76140000D03*
D11*
X38735000Y-76140000D03*
D10*
X43815000Y-76140000D03*
%TD*%
%TO.C,SW4*%
X90805000Y-38040000D03*
D11*
X95885000Y-38040000D03*
D10*
X100965000Y-38040000D03*
%TD*%
%TO.C,SW59*%
X128905000Y-114240000D03*
D11*
X133985000Y-114240000D03*
D10*
X139065000Y-114240000D03*
%TD*%
%TO.C,SW20*%
X128905000Y-57090000D03*
D11*
X133985000Y-57090000D03*
D10*
X139065000Y-57090000D03*
%TD*%
%TO.C,SW32*%
X90805000Y-76140000D03*
D11*
X95885000Y-76140000D03*
D10*
X100965000Y-76140000D03*
%TD*%
%TO.C,SW2*%
X52635000Y-38040000D03*
D11*
X57715000Y-38040000D03*
D10*
X62795000Y-38040000D03*
%TD*%
%TO.C,SW3*%
X71755000Y-38040000D03*
D11*
X76835000Y-38040000D03*
D10*
X81915000Y-38040000D03*
%TD*%
%TO.C,SW7*%
X147955000Y-38040000D03*
D11*
X153035000Y-38040000D03*
D10*
X158115000Y-38040000D03*
%TD*%
%TO.C,SW17*%
X71755000Y-57090000D03*
D11*
X76835000Y-57090000D03*
D10*
X81915000Y-57090000D03*
%TD*%
%TO.C,SW48*%
X128905000Y-95310000D03*
D11*
X133985000Y-95310000D03*
D10*
X139065000Y-95310000D03*
%TD*%
%TO.C,SW60*%
X147955000Y-114240000D03*
D11*
X153035000Y-114240000D03*
D10*
X158115000Y-114240000D03*
%TD*%
%TO.C,SW18*%
X90805000Y-57090000D03*
D11*
X95885000Y-57090000D03*
D10*
X100965000Y-57090000D03*
%TD*%
%TO.C,SW31*%
X71755000Y-76140000D03*
D11*
X76835000Y-76140000D03*
D10*
X81915000Y-76140000D03*
%TD*%
%TO.C,SW5*%
X109855000Y-38040000D03*
D11*
X114935000Y-38040000D03*
D10*
X120015000Y-38040000D03*
%TD*%
D15*
%TO.C,U1*%
X31179999Y-111349999D03*
D16*
X34209999Y-111649999D03*
X34209999Y-116499999D03*
D15*
X31179999Y-116799999D03*
%TD*%
M02*
