M48
; DRILL file {KiCad (7.0.0-0)} date Monday, March 06, 2023 01:51:56
; FORMAT={-:-/ absolute / inch / decimal}
; #@! TF.CreationDate,2023-03-06T01:51:56+09:00
; #@! TF.GenerationSoftware,Kicad,Pcbnew,(7.0.0-0)
; #@! TF.FileFunction,NonPlated,1,2,NPTH
FMAT,2
INCH
; #@! TA.AperFunction,NonPlated,NPTH,ComponentDrill
T1C0.0472
; #@! TA.AperFunction,NonPlated,NPTH,ComponentDrill
T2C0.0591
; #@! TA.AperFunction,NonPlated,NPTH,ComponentDrill
T3C0.0709
; #@! TA.AperFunction,NonPlated,NPTH,ComponentDrill
T4C0.0748
; #@! TA.AperFunction,NonPlated,NPTH,ComponentDrill
T5C0.1575
%
G90
G05
T1
X6.2157Y-2.6787
X6.4913Y-2.6787
T2
X1.3469Y-4.3957
X1.3469Y-4.5866
T3
X1.2276Y-4.3839
X1.2276Y-4.5984
T4
X1.325Y-1.4976
X1.325Y-2.2476
X1.325Y-2.9976
X1.325Y-3.7524
X1.725Y-1.4976
X1.725Y-2.2476
X1.725Y-2.9976
X1.725Y-3.7524
X2.0722Y-1.4976
X2.0722Y-2.2476
X2.0722Y-2.9976
X2.0722Y-3.7524
X2.4722Y-1.4976
X2.4722Y-2.2476
X2.4722Y-2.9976
X2.4722Y-3.7524
X2.825Y-1.4976
X2.825Y-2.2476
X2.825Y-2.9976
X2.825Y-3.7524
X3.225Y-1.4976
X3.225Y-2.2476
X3.225Y-2.9976
X3.225Y-3.7524
X3.575Y-1.4976
X3.575Y-2.2476
X3.575Y-2.9976
X3.575Y-3.7524
X3.5774Y-4.4976
X3.975Y-1.4976
X3.975Y-2.2476
X3.975Y-2.9976
X3.975Y-3.7524
X3.9774Y-4.4976
X4.325Y-1.4976
X4.325Y-2.2476
X4.325Y-2.9976
X4.325Y-3.7524
X4.325Y-4.4976
X4.725Y-1.4976
X4.725Y-2.2476
X4.725Y-2.9976
X4.725Y-3.7524
X4.725Y-4.4976
X5.075Y-1.4976
X5.075Y-2.2476
X5.075Y-2.9976
X5.075Y-3.7524
X5.075Y-4.4976
X5.475Y-1.4976
X5.475Y-2.2476
X5.475Y-2.9976
X5.475Y-3.7524
X5.475Y-4.4976
X5.825Y-1.4976
X5.825Y-2.2476
X5.825Y-2.9976
X5.825Y-3.7476
X5.825Y-4.4976
X6.225Y-1.4976
X6.225Y-2.2476
X6.225Y-2.9976
X6.225Y-3.7476
X6.225Y-4.4976
T5
X1.525Y-1.4976
X1.525Y-2.2476
X1.525Y-2.9976
X1.525Y-3.7524
X2.2722Y-1.4976
X2.2722Y-2.2476
X2.2722Y-2.9976
X2.2722Y-3.7524
X3.025Y-1.4976
X3.025Y-2.2476
X3.025Y-2.9976
X3.025Y-3.7524
X3.775Y-1.4976
X3.775Y-2.2476
X3.775Y-2.9976
X3.775Y-3.7524
X3.7774Y-4.4976
X4.525Y-1.4976
X4.525Y-2.2476
X4.525Y-2.9976
X4.525Y-3.7524
X4.525Y-4.4976
X5.275Y-1.4976
X5.275Y-2.2476
X5.275Y-2.9976
X5.275Y-3.7524
X5.275Y-4.4976
X6.025Y-1.4976
X6.025Y-2.2476
X6.025Y-2.9976
X6.025Y-3.7476
X6.025Y-4.4976
T0
M30
