M48
; DRILL file {KiCad (7.0.0-0)} date Sunday, April 02, 2023 12:17:09
; FORMAT={-:-/ absolute / inch / decimal}
; #@! TF.CreationDate,2023-04-02T12:17:09+09:00
; #@! TF.GenerationSoftware,Kicad,Pcbnew,(7.0.0-0)
; #@! TF.FileFunction,NonPlated,1,2,NPTH
FMAT,2
INCH
; #@! TA.AperFunction,NonPlated,NPTH,ComponentDrill
T1C0.0472
; #@! TA.AperFunction,NonPlated,NPTH,ComponentDrill
T2C0.0748
; #@! TA.AperFunction,NonPlated,NPTH,ComponentDrill
T3C0.1575
%
G90
G05
T1
X8.1129Y-0.8709
X8.1129Y-1.1465
T2
X7.5841Y-1.4985
X7.5841Y-2.2485
X7.5841Y-2.9985
X7.5841Y-3.7485
X7.5841Y-4.4985
X7.9841Y-1.4985
X7.9841Y-2.2485
X7.9841Y-2.9985
X7.9841Y-3.7485
X7.9841Y-4.4985
X8.3321Y-1.4985
X8.3321Y-2.2485
X8.3321Y-2.9985
X8.3321Y-3.7485
X8.3321Y-4.4985
X8.7321Y-1.4985
X8.7321Y-2.2485
X8.7321Y-2.9985
X8.7321Y-3.7485
X8.7321Y-4.4985
X9.0841Y-1.4985
X9.0841Y-2.2485
X9.0841Y-2.9985
X9.0841Y-3.7485
X9.0841Y-4.4985
X9.4841Y-1.4985
X9.4841Y-2.2485
X9.4841Y-2.9985
X9.4841Y-3.7485
X9.4841Y-4.4985
X9.8361Y-1.4985
X9.8361Y-2.2485
X9.8361Y-2.9985
X9.8361Y-3.7485
X9.8361Y-4.4985
X10.2361Y-1.4985
X10.2361Y-2.2485
X10.2361Y-2.9985
X10.2361Y-3.7485
X10.2361Y-4.4985
X10.5841Y-1.4985
X10.5841Y-2.2485
X10.5841Y-2.9985
X10.5841Y-3.7485
X10.9841Y-1.4985
X10.9841Y-2.2485
X10.9841Y-2.9985
X10.9841Y-3.7485
X11.3321Y-1.4985
X11.3321Y-2.2485
X11.3321Y-2.9985
X11.3321Y-3.7485
X11.7321Y-1.4985
X11.7321Y-2.2485
X11.7321Y-2.9985
X11.7321Y-3.7485
X12.0841Y-1.4985
X12.0841Y-2.2485
X12.0841Y-2.9985
X12.0841Y-3.7485
X12.4841Y-1.4985
X12.4841Y-2.2485
X12.4841Y-2.9985
X12.4841Y-3.7485
T3
X7.7841Y-1.4985
X7.7841Y-2.2485
X7.7841Y-2.9985
X7.7841Y-3.7485
X7.7841Y-4.4985
X8.5321Y-1.4985
X8.5321Y-2.2485
X8.5321Y-2.9985
X8.5321Y-3.7485
X8.5321Y-4.4985
X9.2841Y-1.4985
X9.2841Y-2.2485
X9.2841Y-2.9985
X9.2841Y-3.7485
X9.2841Y-4.4985
X10.0361Y-1.4985
X10.0361Y-2.2485
X10.0361Y-2.9985
X10.0361Y-3.7485
X10.0361Y-4.4985
X10.7841Y-1.4985
X10.7841Y-2.2485
X10.7841Y-2.9985
X10.7841Y-3.7485
X11.5321Y-1.4985
X11.5321Y-2.2485
X11.5321Y-2.9985
X11.5321Y-3.7485
X12.2841Y-1.4985
X12.2841Y-2.2485
X12.2841Y-2.9985
X12.2841Y-3.7485
T0
M30
