%TF.GenerationSoftware,KiCad,Pcbnew,(7.0.0-0)*%
%TF.CreationDate,2023-04-02T12:17:20+09:00*%
%TF.ProjectId,11111_pcb,31313131-315f-4706-9362-2e6b69636164,rev?*%
%TF.SameCoordinates,Original*%
%TF.FileFunction,Legend,Top*%
%TF.FilePolarity,Positive*%
%FSLAX46Y46*%
G04 Gerber Fmt 4.6, Leading zero omitted, Abs format (unit mm)*
G04 Created by KiCad (PCBNEW (7.0.0-0)) date 2023-04-02 12:17:20*
%MOMM*%
%LPD*%
G01*
G04 APERTURE LIST*
%ADD10C,0.150000*%
%ADD11O,2.500000X2.000000*%
%ADD12C,1.210000*%
%ADD13O,1.300000X2.200000*%
G04 APERTURE END LIST*
D10*
X184576913Y-70425320D02*
X184577172Y-71044367D01*
X184577172Y-71044367D02*
X184196080Y-70711194D01*
X184196080Y-70711194D02*
X184196140Y-70854051D01*
X184196140Y-70854051D02*
X184148561Y-70949309D01*
X184148561Y-70949309D02*
X184100962Y-70996948D01*
X184100962Y-70996948D02*
X184005744Y-71044607D01*
X184005744Y-71044607D02*
X183767648Y-71044707D01*
X183767648Y-71044707D02*
X183672390Y-70997128D01*
X183672390Y-70997128D02*
X183624751Y-70949529D01*
X183624751Y-70949529D02*
X183577092Y-70854311D01*
X183577092Y-70854311D02*
X183576973Y-70568596D01*
X183576973Y-70568596D02*
X183624552Y-70473338D01*
X183624552Y-70473338D02*
X183672151Y-70425699D01*
X184577312Y-71377701D02*
X184577591Y-72044367D01*
X184577591Y-72044367D02*
X183577412Y-71616215D01*
X184577951Y-72901510D02*
X184577751Y-72425320D01*
X184577751Y-72425320D02*
X184101541Y-72377900D01*
X184101541Y-72377900D02*
X184149180Y-72425500D01*
X184149180Y-72425500D02*
X184196839Y-72520718D01*
X184196839Y-72520718D02*
X184196939Y-72758813D01*
X184196939Y-72758813D02*
X184149359Y-72854071D01*
X184149359Y-72854071D02*
X184101760Y-72901710D01*
X184101760Y-72901710D02*
X184006542Y-72949369D01*
X184006542Y-72949369D02*
X183768447Y-72949469D01*
X183768447Y-72949469D02*
X183673189Y-72901890D01*
X183673189Y-72901890D02*
X183625550Y-72854291D01*
X183625550Y-72854291D02*
X183577891Y-72759072D01*
X183577891Y-72759072D02*
X183577791Y-72520977D01*
X183577791Y-72520977D02*
X183625370Y-72425719D01*
X183625370Y-72425719D02*
X183672969Y-72378080D01*
X184578350Y-73853891D02*
X184578151Y-73377701D01*
X184578151Y-73377701D02*
X184101940Y-73330281D01*
X184101940Y-73330281D02*
X184149579Y-73377880D01*
X184149579Y-73377880D02*
X184197238Y-73473099D01*
X184197238Y-73473099D02*
X184197338Y-73711194D01*
X184197338Y-73711194D02*
X184149759Y-73806452D01*
X184149759Y-73806452D02*
X184102160Y-73854091D01*
X184102160Y-73854091D02*
X184006942Y-73901750D01*
X184006942Y-73901750D02*
X183768846Y-73901850D01*
X183768846Y-73901850D02*
X183673588Y-73854271D01*
X183673588Y-73854271D02*
X183625949Y-73806671D01*
X183625949Y-73806671D02*
X183578290Y-73711453D01*
X183578290Y-73711453D02*
X183578191Y-73473358D01*
X183578191Y-73473358D02*
X183625770Y-73378100D01*
X183625770Y-73378100D02*
X183673369Y-73330461D01*
X183673788Y-74330461D02*
X183626189Y-74378100D01*
X183626189Y-74378100D02*
X183578550Y-74330501D01*
X183578550Y-74330501D02*
X183626149Y-74282862D01*
X183626149Y-74282862D02*
X183673788Y-74330461D01*
X183673788Y-74330461D02*
X183578550Y-74330501D01*
X183578770Y-74854310D02*
X183578849Y-75044786D01*
X183578849Y-75044786D02*
X183626508Y-75140004D01*
X183626508Y-75140004D02*
X183674147Y-75187603D01*
X183674147Y-75187603D02*
X183817044Y-75282782D01*
X183817044Y-75282782D02*
X184007541Y-75330321D01*
X184007541Y-75330321D02*
X184388493Y-75330161D01*
X184388493Y-75330161D02*
X184483711Y-75282502D01*
X184483711Y-75282502D02*
X184531310Y-75234863D01*
X184531310Y-75234863D02*
X184578889Y-75139605D01*
X184578889Y-75139605D02*
X184578809Y-74949129D01*
X184578809Y-74949129D02*
X184531150Y-74853911D01*
X184531150Y-74853911D02*
X184483511Y-74806312D01*
X184483511Y-74806312D02*
X184388253Y-74758732D01*
X184388253Y-74758732D02*
X184150158Y-74758832D01*
X184150158Y-74758832D02*
X184054940Y-74806491D01*
X184054940Y-74806491D02*
X184007341Y-74854130D01*
X184007341Y-74854130D02*
X183959762Y-74949388D01*
X183959762Y-74949388D02*
X183959842Y-75139864D01*
X183959842Y-75139864D02*
X184007501Y-75235083D01*
X184007501Y-75235083D02*
X184055140Y-75282682D01*
X184055140Y-75282682D02*
X184150398Y-75330261D01*
X184579229Y-75949129D02*
X184579269Y-76044367D01*
X184579269Y-76044367D02*
X184531689Y-76139625D01*
X184531689Y-76139625D02*
X184484090Y-76187264D01*
X184484090Y-76187264D02*
X184388872Y-76234923D01*
X184388872Y-76234923D02*
X184198416Y-76282622D01*
X184198416Y-76282622D02*
X183960321Y-76282722D01*
X183960321Y-76282722D02*
X183769825Y-76235182D01*
X183769825Y-76235182D02*
X183674567Y-76187603D01*
X183674567Y-76187603D02*
X183626928Y-76140004D01*
X183626928Y-76140004D02*
X183579269Y-76044786D01*
X183579269Y-76044786D02*
X183579229Y-75949548D01*
X183579229Y-75949548D02*
X183626808Y-75854290D01*
X183626808Y-75854290D02*
X183674407Y-75806651D01*
X183674407Y-75806651D02*
X183769625Y-75758992D01*
X183769625Y-75758992D02*
X183960081Y-75711293D01*
X183960081Y-75711293D02*
X184198176Y-75711193D01*
X184198176Y-75711193D02*
X184388673Y-75758732D01*
X184388673Y-75758732D02*
X184483931Y-75806312D01*
X184483931Y-75806312D02*
X184531570Y-75853911D01*
X184531570Y-75853911D02*
X184579229Y-75949129D01*
X184579748Y-77187224D02*
X184579548Y-76711033D01*
X184579548Y-76711033D02*
X184103338Y-76663614D01*
X184103338Y-76663614D02*
X184150977Y-76711213D01*
X184150977Y-76711213D02*
X184198636Y-76806431D01*
X184198636Y-76806431D02*
X184198736Y-77044526D01*
X184198736Y-77044526D02*
X184151156Y-77139785D01*
X184151156Y-77139785D02*
X184103557Y-77187424D01*
X184103557Y-77187424D02*
X184008339Y-77235083D01*
X184008339Y-77235083D02*
X183770244Y-77235182D01*
X183770244Y-77235182D02*
X183674986Y-77187603D01*
X183674986Y-77187603D02*
X183627347Y-77140004D01*
X183627347Y-77140004D02*
X183579688Y-77044786D01*
X183579688Y-77044786D02*
X183579588Y-76806691D01*
X183579588Y-76806691D02*
X183627167Y-76711433D01*
X183627167Y-76711433D02*
X183674766Y-76663794D01*
X184151436Y-77806451D02*
X184199015Y-77711193D01*
X184199015Y-77711193D02*
X184246614Y-77663554D01*
X184246614Y-77663554D02*
X184341832Y-77615895D01*
X184341832Y-77615895D02*
X184389451Y-77615875D01*
X184389451Y-77615875D02*
X184484709Y-77663454D01*
X184484709Y-77663454D02*
X184532348Y-77711053D01*
X184532348Y-77711053D02*
X184580007Y-77806271D01*
X184580007Y-77806271D02*
X184580087Y-77996748D01*
X184580087Y-77996748D02*
X184532508Y-78092006D01*
X184532508Y-78092006D02*
X184484909Y-78139645D01*
X184484909Y-78139645D02*
X184389691Y-78187304D01*
X184389691Y-78187304D02*
X184342072Y-78187324D01*
X184342072Y-78187324D02*
X184246814Y-78139745D01*
X184246814Y-78139745D02*
X184199175Y-78092145D01*
X184199175Y-78092145D02*
X184151516Y-77996927D01*
X184151516Y-77996927D02*
X184151436Y-77806451D01*
X184151436Y-77806451D02*
X184103777Y-77711233D01*
X184103777Y-77711233D02*
X184056138Y-77663634D01*
X184056138Y-77663634D02*
X183960880Y-77616055D01*
X183960880Y-77616055D02*
X183770404Y-77616135D01*
X183770404Y-77616135D02*
X183675186Y-77663794D01*
X183675186Y-77663794D02*
X183627587Y-77711433D01*
X183627587Y-77711433D02*
X183580007Y-77806691D01*
X183580007Y-77806691D02*
X183580087Y-77997167D01*
X183580087Y-77997167D02*
X183627746Y-78092385D01*
X183627746Y-78092385D02*
X183675385Y-78139984D01*
X183675385Y-78139984D02*
X183770643Y-78187563D01*
X183770643Y-78187563D02*
X183961120Y-78187483D01*
X183961120Y-78187483D02*
X184056338Y-78139824D01*
X184056338Y-78139824D02*
X184103937Y-78092185D01*
X184103937Y-78092185D02*
X184151516Y-77996927D01*
X183580598Y-79216215D02*
X184247265Y-79215935D01*
X184152027Y-79215975D02*
X184199666Y-79263574D01*
X184199666Y-79263574D02*
X184247325Y-79358792D01*
X184247325Y-79358792D02*
X184247385Y-79501649D01*
X184247385Y-79501649D02*
X184199806Y-79596907D01*
X184199806Y-79596907D02*
X184104588Y-79644566D01*
X184104588Y-79644566D02*
X183580778Y-79644786D01*
X184104588Y-79644566D02*
X184199846Y-79692145D01*
X184199846Y-79692145D02*
X184247505Y-79787364D01*
X184247505Y-79787364D02*
X184247565Y-79930221D01*
X184247565Y-79930221D02*
X184199985Y-80025479D01*
X184199985Y-80025479D02*
X184104767Y-80073138D01*
X184104767Y-80073138D02*
X183580958Y-80073357D01*
X183581157Y-80549547D02*
X184247824Y-80549268D01*
X184581157Y-80549128D02*
X184533518Y-80501529D01*
X184533518Y-80501529D02*
X184485919Y-80549168D01*
X184485919Y-80549168D02*
X184533558Y-80596767D01*
X184533558Y-80596767D02*
X184581157Y-80549128D01*
X184581157Y-80549128D02*
X184485919Y-80549168D01*
X183581417Y-81168594D02*
X183628996Y-81073336D01*
X183628996Y-81073336D02*
X183724214Y-81025677D01*
X183724214Y-81025677D02*
X184581357Y-81025318D01*
X183629176Y-81501908D02*
X183581597Y-81597166D01*
X183581597Y-81597166D02*
X183581677Y-81787643D01*
X183581677Y-81787643D02*
X183629336Y-81882861D01*
X183629336Y-81882861D02*
X183724594Y-81930440D01*
X183724594Y-81930440D02*
X183772213Y-81930420D01*
X183772213Y-81930420D02*
X183867431Y-81882761D01*
X183867431Y-81882761D02*
X183915010Y-81787503D01*
X183915010Y-81787503D02*
X183914950Y-81644646D01*
X183914950Y-81644646D02*
X183962529Y-81549388D01*
X183962529Y-81549388D02*
X184057747Y-81501729D01*
X184057747Y-81501729D02*
X184105366Y-81501709D01*
X184105366Y-81501709D02*
X184200624Y-81549288D01*
X184200624Y-81549288D02*
X184248283Y-81644506D01*
X184248283Y-81644506D02*
X184248343Y-81787363D01*
X184248343Y-81787363D02*
X184200764Y-81882621D01*
X187660000Y-28500210D02*
X182190296Y-28502503D01*
X187700000Y-123900210D02*
X182230296Y-123902503D01*
X182776716Y-28502257D02*
X182816716Y-123902257D01*
X182776716Y-28502257D02*
X182816716Y-123902257D01*
X182776716Y-28502257D02*
X183363609Y-29628515D01*
X182776716Y-28502257D02*
X182190768Y-29629007D01*
X182816716Y-123902257D02*
X182229823Y-122775999D01*
X182816716Y-123902257D02*
X183402664Y-122775507D01*
X249715238Y-125217380D02*
X249239048Y-125217380D01*
X249239048Y-125217380D02*
X249191429Y-125693571D01*
X249191429Y-125693571D02*
X249239048Y-125645952D01*
X249239048Y-125645952D02*
X249334286Y-125598333D01*
X249334286Y-125598333D02*
X249572381Y-125598333D01*
X249572381Y-125598333D02*
X249667619Y-125645952D01*
X249667619Y-125645952D02*
X249715238Y-125693571D01*
X249715238Y-125693571D02*
X249762857Y-125788809D01*
X249762857Y-125788809D02*
X249762857Y-126026904D01*
X249762857Y-126026904D02*
X249715238Y-126122142D01*
X249715238Y-126122142D02*
X249667619Y-126169761D01*
X249667619Y-126169761D02*
X249572381Y-126217380D01*
X249572381Y-126217380D02*
X249334286Y-126217380D01*
X249334286Y-126217380D02*
X249239048Y-126169761D01*
X249239048Y-126169761D02*
X249191429Y-126122142D01*
X250143810Y-125312619D02*
X250191429Y-125265000D01*
X250191429Y-125265000D02*
X250286667Y-125217380D01*
X250286667Y-125217380D02*
X250524762Y-125217380D01*
X250524762Y-125217380D02*
X250620000Y-125265000D01*
X250620000Y-125265000D02*
X250667619Y-125312619D01*
X250667619Y-125312619D02*
X250715238Y-125407857D01*
X250715238Y-125407857D02*
X250715238Y-125503095D01*
X250715238Y-125503095D02*
X250667619Y-125645952D01*
X250667619Y-125645952D02*
X250096191Y-126217380D01*
X250096191Y-126217380D02*
X250715238Y-126217380D01*
X251620000Y-125217380D02*
X251143810Y-125217380D01*
X251143810Y-125217380D02*
X251096191Y-125693571D01*
X251096191Y-125693571D02*
X251143810Y-125645952D01*
X251143810Y-125645952D02*
X251239048Y-125598333D01*
X251239048Y-125598333D02*
X251477143Y-125598333D01*
X251477143Y-125598333D02*
X251572381Y-125645952D01*
X251572381Y-125645952D02*
X251620000Y-125693571D01*
X251620000Y-125693571D02*
X251667619Y-125788809D01*
X251667619Y-125788809D02*
X251667619Y-126026904D01*
X251667619Y-126026904D02*
X251620000Y-126122142D01*
X251620000Y-126122142D02*
X251572381Y-126169761D01*
X251572381Y-126169761D02*
X251477143Y-126217380D01*
X251477143Y-126217380D02*
X251239048Y-126217380D01*
X251239048Y-126217380D02*
X251143810Y-126169761D01*
X251143810Y-126169761D02*
X251096191Y-126122142D01*
X252000953Y-125217380D02*
X252620000Y-125217380D01*
X252620000Y-125217380D02*
X252286667Y-125598333D01*
X252286667Y-125598333D02*
X252429524Y-125598333D01*
X252429524Y-125598333D02*
X252524762Y-125645952D01*
X252524762Y-125645952D02*
X252572381Y-125693571D01*
X252572381Y-125693571D02*
X252620000Y-125788809D01*
X252620000Y-125788809D02*
X252620000Y-126026904D01*
X252620000Y-126026904D02*
X252572381Y-126122142D01*
X252572381Y-126122142D02*
X252524762Y-126169761D01*
X252524762Y-126169761D02*
X252429524Y-126217380D01*
X252429524Y-126217380D02*
X252143810Y-126217380D01*
X252143810Y-126217380D02*
X252048572Y-126169761D01*
X252048572Y-126169761D02*
X252000953Y-126122142D01*
X253048572Y-126122142D02*
X253096191Y-126169761D01*
X253096191Y-126169761D02*
X253048572Y-126217380D01*
X253048572Y-126217380D02*
X253000953Y-126169761D01*
X253000953Y-126169761D02*
X253048572Y-126122142D01*
X253048572Y-126122142D02*
X253048572Y-126217380D01*
X254000952Y-125217380D02*
X253524762Y-125217380D01*
X253524762Y-125217380D02*
X253477143Y-125693571D01*
X253477143Y-125693571D02*
X253524762Y-125645952D01*
X253524762Y-125645952D02*
X253620000Y-125598333D01*
X253620000Y-125598333D02*
X253858095Y-125598333D01*
X253858095Y-125598333D02*
X253953333Y-125645952D01*
X253953333Y-125645952D02*
X254000952Y-125693571D01*
X254000952Y-125693571D02*
X254048571Y-125788809D01*
X254048571Y-125788809D02*
X254048571Y-126026904D01*
X254048571Y-126026904D02*
X254000952Y-126122142D01*
X254000952Y-126122142D02*
X253953333Y-126169761D01*
X253953333Y-126169761D02*
X253858095Y-126217380D01*
X253858095Y-126217380D02*
X253620000Y-126217380D01*
X253620000Y-126217380D02*
X253524762Y-126169761D01*
X253524762Y-126169761D02*
X253477143Y-126122142D01*
X254905714Y-125550714D02*
X254905714Y-126217380D01*
X254667619Y-125169761D02*
X254429524Y-125884047D01*
X254429524Y-125884047D02*
X255048571Y-125884047D01*
X255334286Y-125217380D02*
X255953333Y-125217380D01*
X255953333Y-125217380D02*
X255620000Y-125598333D01*
X255620000Y-125598333D02*
X255762857Y-125598333D01*
X255762857Y-125598333D02*
X255858095Y-125645952D01*
X255858095Y-125645952D02*
X255905714Y-125693571D01*
X255905714Y-125693571D02*
X255953333Y-125788809D01*
X255953333Y-125788809D02*
X255953333Y-126026904D01*
X255953333Y-126026904D02*
X255905714Y-126122142D01*
X255905714Y-126122142D02*
X255858095Y-126169761D01*
X255858095Y-126169761D02*
X255762857Y-126217380D01*
X255762857Y-126217380D02*
X255477143Y-126217380D01*
X255477143Y-126217380D02*
X255381905Y-126169761D01*
X255381905Y-126169761D02*
X255334286Y-126122142D01*
X256286667Y-125217380D02*
X256905714Y-125217380D01*
X256905714Y-125217380D02*
X256572381Y-125598333D01*
X256572381Y-125598333D02*
X256715238Y-125598333D01*
X256715238Y-125598333D02*
X256810476Y-125645952D01*
X256810476Y-125645952D02*
X256858095Y-125693571D01*
X256858095Y-125693571D02*
X256905714Y-125788809D01*
X256905714Y-125788809D02*
X256905714Y-126026904D01*
X256905714Y-126026904D02*
X256858095Y-126122142D01*
X256858095Y-126122142D02*
X256810476Y-126169761D01*
X256810476Y-126169761D02*
X256715238Y-126217380D01*
X256715238Y-126217380D02*
X256429524Y-126217380D01*
X256429524Y-126217380D02*
X256334286Y-126169761D01*
X256334286Y-126169761D02*
X256286667Y-126122142D01*
X257934286Y-126217380D02*
X257934286Y-125550714D01*
X257934286Y-125645952D02*
X257981905Y-125598333D01*
X257981905Y-125598333D02*
X258077143Y-125550714D01*
X258077143Y-125550714D02*
X258220000Y-125550714D01*
X258220000Y-125550714D02*
X258315238Y-125598333D01*
X258315238Y-125598333D02*
X258362857Y-125693571D01*
X258362857Y-125693571D02*
X258362857Y-126217380D01*
X258362857Y-125693571D02*
X258410476Y-125598333D01*
X258410476Y-125598333D02*
X258505714Y-125550714D01*
X258505714Y-125550714D02*
X258648571Y-125550714D01*
X258648571Y-125550714D02*
X258743810Y-125598333D01*
X258743810Y-125598333D02*
X258791429Y-125693571D01*
X258791429Y-125693571D02*
X258791429Y-126217380D01*
X259267619Y-126217380D02*
X259267619Y-125550714D01*
X259267619Y-125217380D02*
X259220000Y-125265000D01*
X259220000Y-125265000D02*
X259267619Y-125312619D01*
X259267619Y-125312619D02*
X259315238Y-125265000D01*
X259315238Y-125265000D02*
X259267619Y-125217380D01*
X259267619Y-125217380D02*
X259267619Y-125312619D01*
X259886666Y-126217380D02*
X259791428Y-126169761D01*
X259791428Y-126169761D02*
X259743809Y-126074523D01*
X259743809Y-126074523D02*
X259743809Y-125217380D01*
X260220000Y-126169761D02*
X260315238Y-126217380D01*
X260315238Y-126217380D02*
X260505714Y-126217380D01*
X260505714Y-126217380D02*
X260600952Y-126169761D01*
X260600952Y-126169761D02*
X260648571Y-126074523D01*
X260648571Y-126074523D02*
X260648571Y-126026904D01*
X260648571Y-126026904D02*
X260600952Y-125931666D01*
X260600952Y-125931666D02*
X260505714Y-125884047D01*
X260505714Y-125884047D02*
X260362857Y-125884047D01*
X260362857Y-125884047D02*
X260267619Y-125836428D01*
X260267619Y-125836428D02*
X260220000Y-125741190D01*
X260220000Y-125741190D02*
X260220000Y-125693571D01*
X260220000Y-125693571D02*
X260267619Y-125598333D01*
X260267619Y-125598333D02*
X260362857Y-125550714D01*
X260362857Y-125550714D02*
X260505714Y-125550714D01*
X260505714Y-125550714D02*
X260600952Y-125598333D01*
X188200000Y-124400000D02*
X188200000Y-127586420D01*
X321640000Y-124400000D02*
X321640000Y-127586420D01*
X188200000Y-127000000D02*
X321640000Y-127000000D01*
X188200000Y-127000000D02*
X321640000Y-127000000D01*
X188200000Y-127000000D02*
X189326504Y-126413579D01*
X188200000Y-127000000D02*
X189326504Y-127586421D01*
X321640000Y-127000000D02*
X320513496Y-127586421D01*
X321640000Y-127000000D02*
X320513496Y-126413579D01*
%TO.C,A2*%
X217471714Y-30561666D02*
X217947904Y-30561666D01*
X217376476Y-30847380D02*
X217709809Y-29847380D01*
X217709809Y-29847380D02*
X218043142Y-30847380D01*
X218328857Y-29942619D02*
X218376476Y-29895000D01*
X218376476Y-29895000D02*
X218471714Y-29847380D01*
X218471714Y-29847380D02*
X218709809Y-29847380D01*
X218709809Y-29847380D02*
X218805047Y-29895000D01*
X218805047Y-29895000D02*
X218852666Y-29942619D01*
X218852666Y-29942619D02*
X218900285Y-30037857D01*
X218900285Y-30037857D02*
X218900285Y-30133095D01*
X218900285Y-30133095D02*
X218852666Y-30275952D01*
X218852666Y-30275952D02*
X218281238Y-30847380D01*
X218281238Y-30847380D02*
X218900285Y-30847380D01*
%TD*%
D11*
%TO.C,SW13*%
X289105986Y-35521999D03*
X295455986Y-32981999D03*
%TD*%
%TO.C,SW8*%
X193905986Y-35521999D03*
X200255986Y-32981999D03*
%TD*%
%TO.C,SW54*%
X270105986Y-92671999D03*
X276455986Y-90131999D03*
%TD*%
%TO.C,SW61*%
X193905986Y-111721999D03*
X200255986Y-109181999D03*
%TD*%
%TO.C,SW26*%
X270105986Y-54571999D03*
X276455986Y-52031999D03*
%TD*%
%TO.C,SW22*%
X193905986Y-54571999D03*
X200255986Y-52031999D03*
%TD*%
%TO.C,SW62*%
X212905986Y-111721999D03*
X219255986Y-109181999D03*
%TD*%
%TO.C,SW23*%
X212905986Y-54571999D03*
X219255986Y-52031999D03*
%TD*%
%TO.C,SW12*%
X270105986Y-35521999D03*
X276455986Y-32981999D03*
%TD*%
%TO.C,SW40*%
X270105986Y-73621999D03*
X276455986Y-71081999D03*
%TD*%
%TO.C,SW53*%
X251105986Y-92671999D03*
X257455986Y-90131999D03*
%TD*%
%TO.C,SW28*%
X308205986Y-54571999D03*
X314555986Y-52031999D03*
%TD*%
%TO.C,SW51*%
X212905986Y-92671999D03*
X219255986Y-90131999D03*
%TD*%
%TO.C,SW37*%
X212905986Y-73621999D03*
X219255986Y-71081999D03*
%TD*%
%TO.C,SW56*%
X308205986Y-92671999D03*
X314555986Y-90131999D03*
%TD*%
%TO.C,SW9*%
X212905986Y-35521999D03*
X219255986Y-32981999D03*
%TD*%
%TO.C,SW27*%
X289105986Y-54571999D03*
X295455986Y-52031999D03*
%TD*%
%TO.C,SW14*%
X308205986Y-35521999D03*
X314555986Y-32981999D03*
%TD*%
%TO.C,SW50*%
X193905986Y-92671999D03*
X200255986Y-90131999D03*
%TD*%
%TO.C,SW38*%
X232005986Y-73621999D03*
X238355986Y-71081999D03*
%TD*%
%TO.C,SW11*%
X251105986Y-35521999D03*
X257455986Y-32981999D03*
%TD*%
%TO.C,SW52*%
X232005986Y-92671999D03*
X238355986Y-90131999D03*
%TD*%
%TO.C,SW39*%
X251105986Y-73621999D03*
X257455986Y-71081999D03*
%TD*%
%TO.C,SW55*%
X289105986Y-92671999D03*
X295455986Y-90131999D03*
%TD*%
%TO.C,SW24*%
X232005986Y-54571999D03*
X238355986Y-52031999D03*
%TD*%
%TO.C,SW25*%
X251105986Y-54571999D03*
X257455986Y-52031999D03*
%TD*%
D12*
%TO.C,J2*%
X206068800Y-22120000D03*
X206068800Y-29120000D03*
D13*
X208068799Y-32419999D03*
X204068799Y-23919999D03*
X204068799Y-26919999D03*
X204068799Y-30919999D03*
%TD*%
D11*
%TO.C,SW10*%
X232005986Y-35521999D03*
X238355986Y-32981999D03*
%TD*%
%TO.C,SW64*%
X251105986Y-111721999D03*
X257455986Y-109181999D03*
%TD*%
%TO.C,SW41*%
X289105986Y-73621999D03*
X295455986Y-71081999D03*
%TD*%
%TO.C,SW42*%
X308205986Y-73621999D03*
X314555986Y-71081999D03*
%TD*%
%TO.C,SW36*%
X193905986Y-73621999D03*
X200255986Y-71081999D03*
%TD*%
%TO.C,SW63*%
X232005986Y-111721999D03*
X238355986Y-109181999D03*
%TD*%
M02*
