%TF.GenerationSoftware,KiCad,Pcbnew,(7.0.0-0)*%
%TF.CreationDate,2023-04-16T10:11:03+09:00*%
%TF.ProjectId,pcb,7063622e-6b69-4636-9164-5f7063625858,rev?*%
%TF.SameCoordinates,Original*%
%TF.FileFunction,Legend,Bot*%
%TF.FilePolarity,Positive*%
%FSLAX46Y46*%
G04 Gerber Fmt 4.6, Leading zero omitted, Abs format (unit mm)*
G04 Created by KiCad (PCBNEW (7.0.0-0)) date 2023-04-16 10:11:03*
%MOMM*%
%LPD*%
G01*
G04 APERTURE LIST*
%ADD10C,0.300000*%
%ADD11C,0.150000*%
%ADD12C,0.125000*%
%ADD13C,0.120000*%
G04 APERTURE END LIST*
D10*
X303800000Y-99883571D02*
X304085714Y-99883571D01*
X304085714Y-99883571D02*
X304228571Y-99955000D01*
X304228571Y-99955000D02*
X304300000Y-100026428D01*
X304300000Y-100026428D02*
X304442857Y-100240714D01*
X304442857Y-100240714D02*
X304514285Y-100526428D01*
X304514285Y-100526428D02*
X304514285Y-101097857D01*
X304514285Y-101097857D02*
X304442857Y-101240714D01*
X304442857Y-101240714D02*
X304371428Y-101312142D01*
X304371428Y-101312142D02*
X304228571Y-101383571D01*
X304228571Y-101383571D02*
X303942857Y-101383571D01*
X303942857Y-101383571D02*
X303800000Y-101312142D01*
X303800000Y-101312142D02*
X303728571Y-101240714D01*
X303728571Y-101240714D02*
X303657142Y-101097857D01*
X303657142Y-101097857D02*
X303657142Y-100740714D01*
X303657142Y-100740714D02*
X303728571Y-100597857D01*
X303728571Y-100597857D02*
X303800000Y-100526428D01*
X303800000Y-100526428D02*
X303942857Y-100455000D01*
X303942857Y-100455000D02*
X304228571Y-100455000D01*
X304228571Y-100455000D02*
X304371428Y-100526428D01*
X304371428Y-100526428D02*
X304442857Y-100597857D01*
X304442857Y-100597857D02*
X304514285Y-100740714D01*
X302371429Y-100383571D02*
X302371429Y-101383571D01*
X302728571Y-99812142D02*
X303085714Y-100883571D01*
X303085714Y-100883571D02*
X302157143Y-100883571D01*
X300828572Y-100383571D02*
X300471429Y-101383571D01*
X300471429Y-101383571D02*
X300114286Y-100383571D01*
X298971429Y-101312142D02*
X299114286Y-101383571D01*
X299114286Y-101383571D02*
X299400001Y-101383571D01*
X299400001Y-101383571D02*
X299542858Y-101312142D01*
X299542858Y-101312142D02*
X299614286Y-101169285D01*
X299614286Y-101169285D02*
X299614286Y-100597857D01*
X299614286Y-100597857D02*
X299542858Y-100455000D01*
X299542858Y-100455000D02*
X299400001Y-100383571D01*
X299400001Y-100383571D02*
X299114286Y-100383571D01*
X299114286Y-100383571D02*
X298971429Y-100455000D01*
X298971429Y-100455000D02*
X298900001Y-100597857D01*
X298900001Y-100597857D02*
X298900001Y-100740714D01*
X298900001Y-100740714D02*
X299614286Y-100883571D01*
X298257144Y-101383571D02*
X298257144Y-100383571D01*
X298257144Y-100669285D02*
X298185715Y-100526428D01*
X298185715Y-100526428D02*
X298114287Y-100455000D01*
X298114287Y-100455000D02*
X297971429Y-100383571D01*
X297971429Y-100383571D02*
X297828572Y-100383571D01*
X297328573Y-101240714D02*
X297257144Y-101312142D01*
X297257144Y-101312142D02*
X297328573Y-101383571D01*
X297328573Y-101383571D02*
X297400001Y-101312142D01*
X297400001Y-101312142D02*
X297328573Y-101240714D01*
X297328573Y-101240714D02*
X297328573Y-101383571D01*
X296757144Y-99883571D02*
X295828572Y-99883571D01*
X295828572Y-99883571D02*
X296328572Y-100455000D01*
X296328572Y-100455000D02*
X296114287Y-100455000D01*
X296114287Y-100455000D02*
X295971430Y-100526428D01*
X295971430Y-100526428D02*
X295900001Y-100597857D01*
X295900001Y-100597857D02*
X295828572Y-100740714D01*
X295828572Y-100740714D02*
X295828572Y-101097857D01*
X295828572Y-101097857D02*
X295900001Y-101240714D01*
X295900001Y-101240714D02*
X295971430Y-101312142D01*
X295971430Y-101312142D02*
X296114287Y-101383571D01*
X296114287Y-101383571D02*
X296542858Y-101383571D01*
X296542858Y-101383571D02*
X296685715Y-101312142D01*
X296685715Y-101312142D02*
X296757144Y-101240714D01*
X304442857Y-103813571D02*
X304442857Y-102813571D01*
X304442857Y-103099285D02*
X304371428Y-102956428D01*
X304371428Y-102956428D02*
X304300000Y-102885000D01*
X304300000Y-102885000D02*
X304157142Y-102813571D01*
X304157142Y-102813571D02*
X304014285Y-102813571D01*
X303514286Y-103813571D02*
X303514286Y-102813571D01*
X303514286Y-102313571D02*
X303585714Y-102385000D01*
X303585714Y-102385000D02*
X303514286Y-102456428D01*
X303514286Y-102456428D02*
X303442857Y-102385000D01*
X303442857Y-102385000D02*
X303514286Y-102313571D01*
X303514286Y-102313571D02*
X303514286Y-102456428D01*
X302157143Y-102813571D02*
X302157143Y-104027857D01*
X302157143Y-104027857D02*
X302228571Y-104170714D01*
X302228571Y-104170714D02*
X302300000Y-104242142D01*
X302300000Y-104242142D02*
X302442857Y-104313571D01*
X302442857Y-104313571D02*
X302657143Y-104313571D01*
X302657143Y-104313571D02*
X302800000Y-104242142D01*
X302157143Y-103742142D02*
X302300000Y-103813571D01*
X302300000Y-103813571D02*
X302585714Y-103813571D01*
X302585714Y-103813571D02*
X302728571Y-103742142D01*
X302728571Y-103742142D02*
X302800000Y-103670714D01*
X302800000Y-103670714D02*
X302871428Y-103527857D01*
X302871428Y-103527857D02*
X302871428Y-103099285D01*
X302871428Y-103099285D02*
X302800000Y-102956428D01*
X302800000Y-102956428D02*
X302728571Y-102885000D01*
X302728571Y-102885000D02*
X302585714Y-102813571D01*
X302585714Y-102813571D02*
X302300000Y-102813571D01*
X302300000Y-102813571D02*
X302157143Y-102885000D01*
X301442857Y-103813571D02*
X301442857Y-102313571D01*
X300800000Y-103813571D02*
X300800000Y-103027857D01*
X300800000Y-103027857D02*
X300871428Y-102885000D01*
X300871428Y-102885000D02*
X301014285Y-102813571D01*
X301014285Y-102813571D02*
X301228571Y-102813571D01*
X301228571Y-102813571D02*
X301371428Y-102885000D01*
X301371428Y-102885000D02*
X301442857Y-102956428D01*
X300299999Y-102813571D02*
X299728571Y-102813571D01*
X300085714Y-102313571D02*
X300085714Y-103599285D01*
X300085714Y-103599285D02*
X300014285Y-103742142D01*
X300014285Y-103742142D02*
X299871428Y-103813571D01*
X299871428Y-103813571D02*
X299728571Y-103813571D01*
X298328571Y-103813571D02*
X298328571Y-102313571D01*
X297685714Y-103813571D02*
X297685714Y-103027857D01*
X297685714Y-103027857D02*
X297757142Y-102885000D01*
X297757142Y-102885000D02*
X297899999Y-102813571D01*
X297899999Y-102813571D02*
X298114285Y-102813571D01*
X298114285Y-102813571D02*
X298257142Y-102885000D01*
X298257142Y-102885000D02*
X298328571Y-102956428D01*
X296328571Y-103813571D02*
X296328571Y-103027857D01*
X296328571Y-103027857D02*
X296399999Y-102885000D01*
X296399999Y-102885000D02*
X296542856Y-102813571D01*
X296542856Y-102813571D02*
X296828571Y-102813571D01*
X296828571Y-102813571D02*
X296971428Y-102885000D01*
X296328571Y-103742142D02*
X296471428Y-103813571D01*
X296471428Y-103813571D02*
X296828571Y-103813571D01*
X296828571Y-103813571D02*
X296971428Y-103742142D01*
X296971428Y-103742142D02*
X297042856Y-103599285D01*
X297042856Y-103599285D02*
X297042856Y-103456428D01*
X297042856Y-103456428D02*
X296971428Y-103313571D01*
X296971428Y-103313571D02*
X296828571Y-103242142D01*
X296828571Y-103242142D02*
X296471428Y-103242142D01*
X296471428Y-103242142D02*
X296328571Y-103170714D01*
X295614285Y-102813571D02*
X295614285Y-103813571D01*
X295614285Y-102956428D02*
X295542856Y-102885000D01*
X295542856Y-102885000D02*
X295399999Y-102813571D01*
X295399999Y-102813571D02*
X295185713Y-102813571D01*
X295185713Y-102813571D02*
X295042856Y-102885000D01*
X295042856Y-102885000D02*
X294971428Y-103027857D01*
X294971428Y-103027857D02*
X294971428Y-103813571D01*
X293614285Y-103813571D02*
X293614285Y-102313571D01*
X293614285Y-103742142D02*
X293757142Y-103813571D01*
X293757142Y-103813571D02*
X294042856Y-103813571D01*
X294042856Y-103813571D02*
X294185713Y-103742142D01*
X294185713Y-103742142D02*
X294257142Y-103670714D01*
X294257142Y-103670714D02*
X294328570Y-103527857D01*
X294328570Y-103527857D02*
X294328570Y-103099285D01*
X294328570Y-103099285D02*
X294257142Y-102956428D01*
X294257142Y-102956428D02*
X294185713Y-102885000D01*
X294185713Y-102885000D02*
X294042856Y-102813571D01*
X294042856Y-102813571D02*
X293757142Y-102813571D01*
X293757142Y-102813571D02*
X293614285Y-102885000D01*
D11*
%TO.C,SW54*%
X274455510Y-90451761D02*
X274312653Y-90499380D01*
X274312653Y-90499380D02*
X274074558Y-90499380D01*
X274074558Y-90499380D02*
X273979320Y-90451761D01*
X273979320Y-90451761D02*
X273931701Y-90404142D01*
X273931701Y-90404142D02*
X273884082Y-90308904D01*
X273884082Y-90308904D02*
X273884082Y-90213666D01*
X273884082Y-90213666D02*
X273931701Y-90118428D01*
X273931701Y-90118428D02*
X273979320Y-90070809D01*
X273979320Y-90070809D02*
X274074558Y-90023190D01*
X274074558Y-90023190D02*
X274265034Y-89975571D01*
X274265034Y-89975571D02*
X274360272Y-89927952D01*
X274360272Y-89927952D02*
X274407891Y-89880333D01*
X274407891Y-89880333D02*
X274455510Y-89785095D01*
X274455510Y-89785095D02*
X274455510Y-89689857D01*
X274455510Y-89689857D02*
X274407891Y-89594619D01*
X274407891Y-89594619D02*
X274360272Y-89547000D01*
X274360272Y-89547000D02*
X274265034Y-89499380D01*
X274265034Y-89499380D02*
X274026939Y-89499380D01*
X274026939Y-89499380D02*
X273884082Y-89547000D01*
X273550748Y-89499380D02*
X273312653Y-90499380D01*
X273312653Y-90499380D02*
X273122177Y-89785095D01*
X273122177Y-89785095D02*
X272931701Y-90499380D01*
X272931701Y-90499380D02*
X272693606Y-89499380D01*
X271836463Y-89499380D02*
X272312653Y-89499380D01*
X272312653Y-89499380D02*
X272360272Y-89975571D01*
X272360272Y-89975571D02*
X272312653Y-89927952D01*
X272312653Y-89927952D02*
X272217415Y-89880333D01*
X272217415Y-89880333D02*
X271979320Y-89880333D01*
X271979320Y-89880333D02*
X271884082Y-89927952D01*
X271884082Y-89927952D02*
X271836463Y-89975571D01*
X271836463Y-89975571D02*
X271788844Y-90070809D01*
X271788844Y-90070809D02*
X271788844Y-90308904D01*
X271788844Y-90308904D02*
X271836463Y-90404142D01*
X271836463Y-90404142D02*
X271884082Y-90451761D01*
X271884082Y-90451761D02*
X271979320Y-90499380D01*
X271979320Y-90499380D02*
X272217415Y-90499380D01*
X272217415Y-90499380D02*
X272312653Y-90451761D01*
X272312653Y-90451761D02*
X272360272Y-90404142D01*
X270931701Y-89832714D02*
X270931701Y-90499380D01*
X271169796Y-89451761D02*
X271407891Y-90166047D01*
X271407891Y-90166047D02*
X270788844Y-90166047D01*
D12*
%TO.C,D56*%
X304193904Y-93793571D02*
X303393904Y-93793571D01*
X303393904Y-93793571D02*
X303393904Y-93984047D01*
X303393904Y-93984047D02*
X303432000Y-94098333D01*
X303432000Y-94098333D02*
X303508190Y-94174523D01*
X303508190Y-94174523D02*
X303584380Y-94212618D01*
X303584380Y-94212618D02*
X303736761Y-94250714D01*
X303736761Y-94250714D02*
X303851047Y-94250714D01*
X303851047Y-94250714D02*
X304003428Y-94212618D01*
X304003428Y-94212618D02*
X304079619Y-94174523D01*
X304079619Y-94174523D02*
X304155809Y-94098333D01*
X304155809Y-94098333D02*
X304193904Y-93984047D01*
X304193904Y-93984047D02*
X304193904Y-93793571D01*
X303393904Y-94974523D02*
X303393904Y-94593571D01*
X303393904Y-94593571D02*
X303774857Y-94555475D01*
X303774857Y-94555475D02*
X303736761Y-94593571D01*
X303736761Y-94593571D02*
X303698666Y-94669761D01*
X303698666Y-94669761D02*
X303698666Y-94860237D01*
X303698666Y-94860237D02*
X303736761Y-94936428D01*
X303736761Y-94936428D02*
X303774857Y-94974523D01*
X303774857Y-94974523D02*
X303851047Y-95012618D01*
X303851047Y-95012618D02*
X304041523Y-95012618D01*
X304041523Y-95012618D02*
X304117714Y-94974523D01*
X304117714Y-94974523D02*
X304155809Y-94936428D01*
X304155809Y-94936428D02*
X304193904Y-94860237D01*
X304193904Y-94860237D02*
X304193904Y-94669761D01*
X304193904Y-94669761D02*
X304155809Y-94593571D01*
X304155809Y-94593571D02*
X304117714Y-94555475D01*
X303393904Y-95698333D02*
X303393904Y-95545952D01*
X303393904Y-95545952D02*
X303432000Y-95469761D01*
X303432000Y-95469761D02*
X303470095Y-95431666D01*
X303470095Y-95431666D02*
X303584380Y-95355476D01*
X303584380Y-95355476D02*
X303736761Y-95317380D01*
X303736761Y-95317380D02*
X304041523Y-95317380D01*
X304041523Y-95317380D02*
X304117714Y-95355476D01*
X304117714Y-95355476D02*
X304155809Y-95393571D01*
X304155809Y-95393571D02*
X304193904Y-95469761D01*
X304193904Y-95469761D02*
X304193904Y-95622142D01*
X304193904Y-95622142D02*
X304155809Y-95698333D01*
X304155809Y-95698333D02*
X304117714Y-95736428D01*
X304117714Y-95736428D02*
X304041523Y-95774523D01*
X304041523Y-95774523D02*
X303851047Y-95774523D01*
X303851047Y-95774523D02*
X303774857Y-95736428D01*
X303774857Y-95736428D02*
X303736761Y-95698333D01*
X303736761Y-95698333D02*
X303698666Y-95622142D01*
X303698666Y-95622142D02*
X303698666Y-95469761D01*
X303698666Y-95469761D02*
X303736761Y-95393571D01*
X303736761Y-95393571D02*
X303774857Y-95355476D01*
X303774857Y-95355476D02*
X303851047Y-95317380D01*
%TO.C,D38*%
X237557415Y-83305904D02*
X237557415Y-82505904D01*
X237557415Y-82505904D02*
X237366939Y-82505904D01*
X237366939Y-82505904D02*
X237252653Y-82544000D01*
X237252653Y-82544000D02*
X237176463Y-82620190D01*
X237176463Y-82620190D02*
X237138368Y-82696380D01*
X237138368Y-82696380D02*
X237100272Y-82848761D01*
X237100272Y-82848761D02*
X237100272Y-82963047D01*
X237100272Y-82963047D02*
X237138368Y-83115428D01*
X237138368Y-83115428D02*
X237176463Y-83191619D01*
X237176463Y-83191619D02*
X237252653Y-83267809D01*
X237252653Y-83267809D02*
X237366939Y-83305904D01*
X237366939Y-83305904D02*
X237557415Y-83305904D01*
X236833606Y-82505904D02*
X236338368Y-82505904D01*
X236338368Y-82505904D02*
X236605034Y-82810666D01*
X236605034Y-82810666D02*
X236490749Y-82810666D01*
X236490749Y-82810666D02*
X236414558Y-82848761D01*
X236414558Y-82848761D02*
X236376463Y-82886857D01*
X236376463Y-82886857D02*
X236338368Y-82963047D01*
X236338368Y-82963047D02*
X236338368Y-83153523D01*
X236338368Y-83153523D02*
X236376463Y-83229714D01*
X236376463Y-83229714D02*
X236414558Y-83267809D01*
X236414558Y-83267809D02*
X236490749Y-83305904D01*
X236490749Y-83305904D02*
X236719320Y-83305904D01*
X236719320Y-83305904D02*
X236795511Y-83267809D01*
X236795511Y-83267809D02*
X236833606Y-83229714D01*
X235881225Y-82848761D02*
X235957415Y-82810666D01*
X235957415Y-82810666D02*
X235995510Y-82772571D01*
X235995510Y-82772571D02*
X236033606Y-82696380D01*
X236033606Y-82696380D02*
X236033606Y-82658285D01*
X236033606Y-82658285D02*
X235995510Y-82582095D01*
X235995510Y-82582095D02*
X235957415Y-82544000D01*
X235957415Y-82544000D02*
X235881225Y-82505904D01*
X235881225Y-82505904D02*
X235728844Y-82505904D01*
X235728844Y-82505904D02*
X235652653Y-82544000D01*
X235652653Y-82544000D02*
X235614558Y-82582095D01*
X235614558Y-82582095D02*
X235576463Y-82658285D01*
X235576463Y-82658285D02*
X235576463Y-82696380D01*
X235576463Y-82696380D02*
X235614558Y-82772571D01*
X235614558Y-82772571D02*
X235652653Y-82810666D01*
X235652653Y-82810666D02*
X235728844Y-82848761D01*
X235728844Y-82848761D02*
X235881225Y-82848761D01*
X235881225Y-82848761D02*
X235957415Y-82886857D01*
X235957415Y-82886857D02*
X235995510Y-82924952D01*
X235995510Y-82924952D02*
X236033606Y-83001142D01*
X236033606Y-83001142D02*
X236033606Y-83153523D01*
X236033606Y-83153523D02*
X235995510Y-83229714D01*
X235995510Y-83229714D02*
X235957415Y-83267809D01*
X235957415Y-83267809D02*
X235881225Y-83305904D01*
X235881225Y-83305904D02*
X235728844Y-83305904D01*
X235728844Y-83305904D02*
X235652653Y-83267809D01*
X235652653Y-83267809D02*
X235614558Y-83229714D01*
X235614558Y-83229714D02*
X235576463Y-83153523D01*
X235576463Y-83153523D02*
X235576463Y-83001142D01*
X235576463Y-83001142D02*
X235614558Y-82924952D01*
X235614558Y-82924952D02*
X235652653Y-82886857D01*
X235652653Y-82886857D02*
X235728844Y-82848761D01*
D11*
%TO.C,SW62*%
X217255510Y-109501761D02*
X217112653Y-109549380D01*
X217112653Y-109549380D02*
X216874558Y-109549380D01*
X216874558Y-109549380D02*
X216779320Y-109501761D01*
X216779320Y-109501761D02*
X216731701Y-109454142D01*
X216731701Y-109454142D02*
X216684082Y-109358904D01*
X216684082Y-109358904D02*
X216684082Y-109263666D01*
X216684082Y-109263666D02*
X216731701Y-109168428D01*
X216731701Y-109168428D02*
X216779320Y-109120809D01*
X216779320Y-109120809D02*
X216874558Y-109073190D01*
X216874558Y-109073190D02*
X217065034Y-109025571D01*
X217065034Y-109025571D02*
X217160272Y-108977952D01*
X217160272Y-108977952D02*
X217207891Y-108930333D01*
X217207891Y-108930333D02*
X217255510Y-108835095D01*
X217255510Y-108835095D02*
X217255510Y-108739857D01*
X217255510Y-108739857D02*
X217207891Y-108644619D01*
X217207891Y-108644619D02*
X217160272Y-108597000D01*
X217160272Y-108597000D02*
X217065034Y-108549380D01*
X217065034Y-108549380D02*
X216826939Y-108549380D01*
X216826939Y-108549380D02*
X216684082Y-108597000D01*
X216350748Y-108549380D02*
X216112653Y-109549380D01*
X216112653Y-109549380D02*
X215922177Y-108835095D01*
X215922177Y-108835095D02*
X215731701Y-109549380D01*
X215731701Y-109549380D02*
X215493606Y-108549380D01*
X214684082Y-108549380D02*
X214874558Y-108549380D01*
X214874558Y-108549380D02*
X214969796Y-108597000D01*
X214969796Y-108597000D02*
X215017415Y-108644619D01*
X215017415Y-108644619D02*
X215112653Y-108787476D01*
X215112653Y-108787476D02*
X215160272Y-108977952D01*
X215160272Y-108977952D02*
X215160272Y-109358904D01*
X215160272Y-109358904D02*
X215112653Y-109454142D01*
X215112653Y-109454142D02*
X215065034Y-109501761D01*
X215065034Y-109501761D02*
X214969796Y-109549380D01*
X214969796Y-109549380D02*
X214779320Y-109549380D01*
X214779320Y-109549380D02*
X214684082Y-109501761D01*
X214684082Y-109501761D02*
X214636463Y-109454142D01*
X214636463Y-109454142D02*
X214588844Y-109358904D01*
X214588844Y-109358904D02*
X214588844Y-109120809D01*
X214588844Y-109120809D02*
X214636463Y-109025571D01*
X214636463Y-109025571D02*
X214684082Y-108977952D01*
X214684082Y-108977952D02*
X214779320Y-108930333D01*
X214779320Y-108930333D02*
X214969796Y-108930333D01*
X214969796Y-108930333D02*
X215065034Y-108977952D01*
X215065034Y-108977952D02*
X215112653Y-109025571D01*
X215112653Y-109025571D02*
X215160272Y-109120809D01*
X214207891Y-108644619D02*
X214160272Y-108597000D01*
X214160272Y-108597000D02*
X214065034Y-108549380D01*
X214065034Y-108549380D02*
X213826939Y-108549380D01*
X213826939Y-108549380D02*
X213731701Y-108597000D01*
X213731701Y-108597000D02*
X213684082Y-108644619D01*
X213684082Y-108644619D02*
X213636463Y-108739857D01*
X213636463Y-108739857D02*
X213636463Y-108835095D01*
X213636463Y-108835095D02*
X213684082Y-108977952D01*
X213684082Y-108977952D02*
X214255510Y-109549380D01*
X214255510Y-109549380D02*
X213636463Y-109549380D01*
%TO.C,SW23*%
X217255510Y-52351761D02*
X217112653Y-52399380D01*
X217112653Y-52399380D02*
X216874558Y-52399380D01*
X216874558Y-52399380D02*
X216779320Y-52351761D01*
X216779320Y-52351761D02*
X216731701Y-52304142D01*
X216731701Y-52304142D02*
X216684082Y-52208904D01*
X216684082Y-52208904D02*
X216684082Y-52113666D01*
X216684082Y-52113666D02*
X216731701Y-52018428D01*
X216731701Y-52018428D02*
X216779320Y-51970809D01*
X216779320Y-51970809D02*
X216874558Y-51923190D01*
X216874558Y-51923190D02*
X217065034Y-51875571D01*
X217065034Y-51875571D02*
X217160272Y-51827952D01*
X217160272Y-51827952D02*
X217207891Y-51780333D01*
X217207891Y-51780333D02*
X217255510Y-51685095D01*
X217255510Y-51685095D02*
X217255510Y-51589857D01*
X217255510Y-51589857D02*
X217207891Y-51494619D01*
X217207891Y-51494619D02*
X217160272Y-51447000D01*
X217160272Y-51447000D02*
X217065034Y-51399380D01*
X217065034Y-51399380D02*
X216826939Y-51399380D01*
X216826939Y-51399380D02*
X216684082Y-51447000D01*
X216350748Y-51399380D02*
X216112653Y-52399380D01*
X216112653Y-52399380D02*
X215922177Y-51685095D01*
X215922177Y-51685095D02*
X215731701Y-52399380D01*
X215731701Y-52399380D02*
X215493606Y-51399380D01*
X215160272Y-51494619D02*
X215112653Y-51447000D01*
X215112653Y-51447000D02*
X215017415Y-51399380D01*
X215017415Y-51399380D02*
X214779320Y-51399380D01*
X214779320Y-51399380D02*
X214684082Y-51447000D01*
X214684082Y-51447000D02*
X214636463Y-51494619D01*
X214636463Y-51494619D02*
X214588844Y-51589857D01*
X214588844Y-51589857D02*
X214588844Y-51685095D01*
X214588844Y-51685095D02*
X214636463Y-51827952D01*
X214636463Y-51827952D02*
X215207891Y-52399380D01*
X215207891Y-52399380D02*
X214588844Y-52399380D01*
X214255510Y-51399380D02*
X213636463Y-51399380D01*
X213636463Y-51399380D02*
X213969796Y-51780333D01*
X213969796Y-51780333D02*
X213826939Y-51780333D01*
X213826939Y-51780333D02*
X213731701Y-51827952D01*
X213731701Y-51827952D02*
X213684082Y-51875571D01*
X213684082Y-51875571D02*
X213636463Y-51970809D01*
X213636463Y-51970809D02*
X213636463Y-52208904D01*
X213636463Y-52208904D02*
X213684082Y-52304142D01*
X213684082Y-52304142D02*
X213731701Y-52351761D01*
X213731701Y-52351761D02*
X213826939Y-52399380D01*
X213826939Y-52399380D02*
X214112653Y-52399380D01*
X214112653Y-52399380D02*
X214207891Y-52351761D01*
X214207891Y-52351761D02*
X214255510Y-52304142D01*
D12*
%TO.C,D53*%
X256672415Y-101985904D02*
X256672415Y-101185904D01*
X256672415Y-101185904D02*
X256481939Y-101185904D01*
X256481939Y-101185904D02*
X256367653Y-101224000D01*
X256367653Y-101224000D02*
X256291463Y-101300190D01*
X256291463Y-101300190D02*
X256253368Y-101376380D01*
X256253368Y-101376380D02*
X256215272Y-101528761D01*
X256215272Y-101528761D02*
X256215272Y-101643047D01*
X256215272Y-101643047D02*
X256253368Y-101795428D01*
X256253368Y-101795428D02*
X256291463Y-101871619D01*
X256291463Y-101871619D02*
X256367653Y-101947809D01*
X256367653Y-101947809D02*
X256481939Y-101985904D01*
X256481939Y-101985904D02*
X256672415Y-101985904D01*
X255491463Y-101185904D02*
X255872415Y-101185904D01*
X255872415Y-101185904D02*
X255910511Y-101566857D01*
X255910511Y-101566857D02*
X255872415Y-101528761D01*
X255872415Y-101528761D02*
X255796225Y-101490666D01*
X255796225Y-101490666D02*
X255605749Y-101490666D01*
X255605749Y-101490666D02*
X255529558Y-101528761D01*
X255529558Y-101528761D02*
X255491463Y-101566857D01*
X255491463Y-101566857D02*
X255453368Y-101643047D01*
X255453368Y-101643047D02*
X255453368Y-101833523D01*
X255453368Y-101833523D02*
X255491463Y-101909714D01*
X255491463Y-101909714D02*
X255529558Y-101947809D01*
X255529558Y-101947809D02*
X255605749Y-101985904D01*
X255605749Y-101985904D02*
X255796225Y-101985904D01*
X255796225Y-101985904D02*
X255872415Y-101947809D01*
X255872415Y-101947809D02*
X255910511Y-101909714D01*
X255186701Y-101185904D02*
X254691463Y-101185904D01*
X254691463Y-101185904D02*
X254958129Y-101490666D01*
X254958129Y-101490666D02*
X254843844Y-101490666D01*
X254843844Y-101490666D02*
X254767653Y-101528761D01*
X254767653Y-101528761D02*
X254729558Y-101566857D01*
X254729558Y-101566857D02*
X254691463Y-101643047D01*
X254691463Y-101643047D02*
X254691463Y-101833523D01*
X254691463Y-101833523D02*
X254729558Y-101909714D01*
X254729558Y-101909714D02*
X254767653Y-101947809D01*
X254767653Y-101947809D02*
X254843844Y-101985904D01*
X254843844Y-101985904D02*
X255072415Y-101985904D01*
X255072415Y-101985904D02*
X255148606Y-101947809D01*
X255148606Y-101947809D02*
X255186701Y-101909714D01*
%TO.C,D9*%
X208910104Y-41062524D02*
X208110104Y-41062524D01*
X208110104Y-41062524D02*
X208110104Y-41253000D01*
X208110104Y-41253000D02*
X208148200Y-41367286D01*
X208148200Y-41367286D02*
X208224390Y-41443476D01*
X208224390Y-41443476D02*
X208300580Y-41481571D01*
X208300580Y-41481571D02*
X208452961Y-41519667D01*
X208452961Y-41519667D02*
X208567247Y-41519667D01*
X208567247Y-41519667D02*
X208719628Y-41481571D01*
X208719628Y-41481571D02*
X208795819Y-41443476D01*
X208795819Y-41443476D02*
X208872009Y-41367286D01*
X208872009Y-41367286D02*
X208910104Y-41253000D01*
X208910104Y-41253000D02*
X208910104Y-41062524D01*
X208910104Y-41900619D02*
X208910104Y-42053000D01*
X208910104Y-42053000D02*
X208872009Y-42129190D01*
X208872009Y-42129190D02*
X208833914Y-42167286D01*
X208833914Y-42167286D02*
X208719628Y-42243476D01*
X208719628Y-42243476D02*
X208567247Y-42281571D01*
X208567247Y-42281571D02*
X208262485Y-42281571D01*
X208262485Y-42281571D02*
X208186295Y-42243476D01*
X208186295Y-42243476D02*
X208148200Y-42205381D01*
X208148200Y-42205381D02*
X208110104Y-42129190D01*
X208110104Y-42129190D02*
X208110104Y-41976809D01*
X208110104Y-41976809D02*
X208148200Y-41900619D01*
X208148200Y-41900619D02*
X208186295Y-41862524D01*
X208186295Y-41862524D02*
X208262485Y-41824428D01*
X208262485Y-41824428D02*
X208452961Y-41824428D01*
X208452961Y-41824428D02*
X208529152Y-41862524D01*
X208529152Y-41862524D02*
X208567247Y-41900619D01*
X208567247Y-41900619D02*
X208605342Y-41976809D01*
X208605342Y-41976809D02*
X208605342Y-42129190D01*
X208605342Y-42129190D02*
X208567247Y-42205381D01*
X208567247Y-42205381D02*
X208529152Y-42243476D01*
X208529152Y-42243476D02*
X208452961Y-42281571D01*
D11*
%TO.C,SW12*%
X274455510Y-33301761D02*
X274312653Y-33349380D01*
X274312653Y-33349380D02*
X274074558Y-33349380D01*
X274074558Y-33349380D02*
X273979320Y-33301761D01*
X273979320Y-33301761D02*
X273931701Y-33254142D01*
X273931701Y-33254142D02*
X273884082Y-33158904D01*
X273884082Y-33158904D02*
X273884082Y-33063666D01*
X273884082Y-33063666D02*
X273931701Y-32968428D01*
X273931701Y-32968428D02*
X273979320Y-32920809D01*
X273979320Y-32920809D02*
X274074558Y-32873190D01*
X274074558Y-32873190D02*
X274265034Y-32825571D01*
X274265034Y-32825571D02*
X274360272Y-32777952D01*
X274360272Y-32777952D02*
X274407891Y-32730333D01*
X274407891Y-32730333D02*
X274455510Y-32635095D01*
X274455510Y-32635095D02*
X274455510Y-32539857D01*
X274455510Y-32539857D02*
X274407891Y-32444619D01*
X274407891Y-32444619D02*
X274360272Y-32397000D01*
X274360272Y-32397000D02*
X274265034Y-32349380D01*
X274265034Y-32349380D02*
X274026939Y-32349380D01*
X274026939Y-32349380D02*
X273884082Y-32397000D01*
X273550748Y-32349380D02*
X273312653Y-33349380D01*
X273312653Y-33349380D02*
X273122177Y-32635095D01*
X273122177Y-32635095D02*
X272931701Y-33349380D01*
X272931701Y-33349380D02*
X272693606Y-32349380D01*
X271788844Y-33349380D02*
X272360272Y-33349380D01*
X272074558Y-33349380D02*
X272074558Y-32349380D01*
X272074558Y-32349380D02*
X272169796Y-32492238D01*
X272169796Y-32492238D02*
X272265034Y-32587476D01*
X272265034Y-32587476D02*
X272360272Y-32635095D01*
X271407891Y-32444619D02*
X271360272Y-32397000D01*
X271360272Y-32397000D02*
X271265034Y-32349380D01*
X271265034Y-32349380D02*
X271026939Y-32349380D01*
X271026939Y-32349380D02*
X270931701Y-32397000D01*
X270931701Y-32397000D02*
X270884082Y-32444619D01*
X270884082Y-32444619D02*
X270836463Y-32539857D01*
X270836463Y-32539857D02*
X270836463Y-32635095D01*
X270836463Y-32635095D02*
X270884082Y-32777952D01*
X270884082Y-32777952D02*
X271455510Y-33349380D01*
X271455510Y-33349380D02*
X270836463Y-33349380D01*
%TO.C,SW40*%
X274455510Y-71401761D02*
X274312653Y-71449380D01*
X274312653Y-71449380D02*
X274074558Y-71449380D01*
X274074558Y-71449380D02*
X273979320Y-71401761D01*
X273979320Y-71401761D02*
X273931701Y-71354142D01*
X273931701Y-71354142D02*
X273884082Y-71258904D01*
X273884082Y-71258904D02*
X273884082Y-71163666D01*
X273884082Y-71163666D02*
X273931701Y-71068428D01*
X273931701Y-71068428D02*
X273979320Y-71020809D01*
X273979320Y-71020809D02*
X274074558Y-70973190D01*
X274074558Y-70973190D02*
X274265034Y-70925571D01*
X274265034Y-70925571D02*
X274360272Y-70877952D01*
X274360272Y-70877952D02*
X274407891Y-70830333D01*
X274407891Y-70830333D02*
X274455510Y-70735095D01*
X274455510Y-70735095D02*
X274455510Y-70639857D01*
X274455510Y-70639857D02*
X274407891Y-70544619D01*
X274407891Y-70544619D02*
X274360272Y-70497000D01*
X274360272Y-70497000D02*
X274265034Y-70449380D01*
X274265034Y-70449380D02*
X274026939Y-70449380D01*
X274026939Y-70449380D02*
X273884082Y-70497000D01*
X273550748Y-70449380D02*
X273312653Y-71449380D01*
X273312653Y-71449380D02*
X273122177Y-70735095D01*
X273122177Y-70735095D02*
X272931701Y-71449380D01*
X272931701Y-71449380D02*
X272693606Y-70449380D01*
X271884082Y-70782714D02*
X271884082Y-71449380D01*
X272122177Y-70401761D02*
X272360272Y-71116047D01*
X272360272Y-71116047D02*
X271741225Y-71116047D01*
X271169796Y-70449380D02*
X271074558Y-70449380D01*
X271074558Y-70449380D02*
X270979320Y-70497000D01*
X270979320Y-70497000D02*
X270931701Y-70544619D01*
X270931701Y-70544619D02*
X270884082Y-70639857D01*
X270884082Y-70639857D02*
X270836463Y-70830333D01*
X270836463Y-70830333D02*
X270836463Y-71068428D01*
X270836463Y-71068428D02*
X270884082Y-71258904D01*
X270884082Y-71258904D02*
X270931701Y-71354142D01*
X270931701Y-71354142D02*
X270979320Y-71401761D01*
X270979320Y-71401761D02*
X271074558Y-71449380D01*
X271074558Y-71449380D02*
X271169796Y-71449380D01*
X271169796Y-71449380D02*
X271265034Y-71401761D01*
X271265034Y-71401761D02*
X271312653Y-71354142D01*
X271312653Y-71354142D02*
X271360272Y-71258904D01*
X271360272Y-71258904D02*
X271407891Y-71068428D01*
X271407891Y-71068428D02*
X271407891Y-70830333D01*
X271407891Y-70830333D02*
X271360272Y-70639857D01*
X271360272Y-70639857D02*
X271312653Y-70544619D01*
X271312653Y-70544619D02*
X271265034Y-70497000D01*
X271265034Y-70497000D02*
X271169796Y-70449380D01*
D12*
%TO.C,D55*%
X285073904Y-93893571D02*
X284273904Y-93893571D01*
X284273904Y-93893571D02*
X284273904Y-94084047D01*
X284273904Y-94084047D02*
X284312000Y-94198333D01*
X284312000Y-94198333D02*
X284388190Y-94274523D01*
X284388190Y-94274523D02*
X284464380Y-94312618D01*
X284464380Y-94312618D02*
X284616761Y-94350714D01*
X284616761Y-94350714D02*
X284731047Y-94350714D01*
X284731047Y-94350714D02*
X284883428Y-94312618D01*
X284883428Y-94312618D02*
X284959619Y-94274523D01*
X284959619Y-94274523D02*
X285035809Y-94198333D01*
X285035809Y-94198333D02*
X285073904Y-94084047D01*
X285073904Y-94084047D02*
X285073904Y-93893571D01*
X284273904Y-95074523D02*
X284273904Y-94693571D01*
X284273904Y-94693571D02*
X284654857Y-94655475D01*
X284654857Y-94655475D02*
X284616761Y-94693571D01*
X284616761Y-94693571D02*
X284578666Y-94769761D01*
X284578666Y-94769761D02*
X284578666Y-94960237D01*
X284578666Y-94960237D02*
X284616761Y-95036428D01*
X284616761Y-95036428D02*
X284654857Y-95074523D01*
X284654857Y-95074523D02*
X284731047Y-95112618D01*
X284731047Y-95112618D02*
X284921523Y-95112618D01*
X284921523Y-95112618D02*
X284997714Y-95074523D01*
X284997714Y-95074523D02*
X285035809Y-95036428D01*
X285035809Y-95036428D02*
X285073904Y-94960237D01*
X285073904Y-94960237D02*
X285073904Y-94769761D01*
X285073904Y-94769761D02*
X285035809Y-94693571D01*
X285035809Y-94693571D02*
X284997714Y-94655475D01*
X284273904Y-95836428D02*
X284273904Y-95455476D01*
X284273904Y-95455476D02*
X284654857Y-95417380D01*
X284654857Y-95417380D02*
X284616761Y-95455476D01*
X284616761Y-95455476D02*
X284578666Y-95531666D01*
X284578666Y-95531666D02*
X284578666Y-95722142D01*
X284578666Y-95722142D02*
X284616761Y-95798333D01*
X284616761Y-95798333D02*
X284654857Y-95836428D01*
X284654857Y-95836428D02*
X284731047Y-95874523D01*
X284731047Y-95874523D02*
X284921523Y-95874523D01*
X284921523Y-95874523D02*
X284997714Y-95836428D01*
X284997714Y-95836428D02*
X285035809Y-95798333D01*
X285035809Y-95798333D02*
X285073904Y-95722142D01*
X285073904Y-95722142D02*
X285073904Y-95531666D01*
X285073904Y-95531666D02*
X285035809Y-95455476D01*
X285035809Y-95455476D02*
X284997714Y-95417380D01*
%TO.C,D36*%
X199422415Y-83305904D02*
X199422415Y-82505904D01*
X199422415Y-82505904D02*
X199231939Y-82505904D01*
X199231939Y-82505904D02*
X199117653Y-82544000D01*
X199117653Y-82544000D02*
X199041463Y-82620190D01*
X199041463Y-82620190D02*
X199003368Y-82696380D01*
X199003368Y-82696380D02*
X198965272Y-82848761D01*
X198965272Y-82848761D02*
X198965272Y-82963047D01*
X198965272Y-82963047D02*
X199003368Y-83115428D01*
X199003368Y-83115428D02*
X199041463Y-83191619D01*
X199041463Y-83191619D02*
X199117653Y-83267809D01*
X199117653Y-83267809D02*
X199231939Y-83305904D01*
X199231939Y-83305904D02*
X199422415Y-83305904D01*
X198698606Y-82505904D02*
X198203368Y-82505904D01*
X198203368Y-82505904D02*
X198470034Y-82810666D01*
X198470034Y-82810666D02*
X198355749Y-82810666D01*
X198355749Y-82810666D02*
X198279558Y-82848761D01*
X198279558Y-82848761D02*
X198241463Y-82886857D01*
X198241463Y-82886857D02*
X198203368Y-82963047D01*
X198203368Y-82963047D02*
X198203368Y-83153523D01*
X198203368Y-83153523D02*
X198241463Y-83229714D01*
X198241463Y-83229714D02*
X198279558Y-83267809D01*
X198279558Y-83267809D02*
X198355749Y-83305904D01*
X198355749Y-83305904D02*
X198584320Y-83305904D01*
X198584320Y-83305904D02*
X198660511Y-83267809D01*
X198660511Y-83267809D02*
X198698606Y-83229714D01*
X197517653Y-82505904D02*
X197670034Y-82505904D01*
X197670034Y-82505904D02*
X197746225Y-82544000D01*
X197746225Y-82544000D02*
X197784320Y-82582095D01*
X197784320Y-82582095D02*
X197860510Y-82696380D01*
X197860510Y-82696380D02*
X197898606Y-82848761D01*
X197898606Y-82848761D02*
X197898606Y-83153523D01*
X197898606Y-83153523D02*
X197860510Y-83229714D01*
X197860510Y-83229714D02*
X197822415Y-83267809D01*
X197822415Y-83267809D02*
X197746225Y-83305904D01*
X197746225Y-83305904D02*
X197593844Y-83305904D01*
X197593844Y-83305904D02*
X197517653Y-83267809D01*
X197517653Y-83267809D02*
X197479558Y-83229714D01*
X197479558Y-83229714D02*
X197441463Y-83153523D01*
X197441463Y-83153523D02*
X197441463Y-82963047D01*
X197441463Y-82963047D02*
X197479558Y-82886857D01*
X197479558Y-82886857D02*
X197517653Y-82848761D01*
X197517653Y-82848761D02*
X197593844Y-82810666D01*
X197593844Y-82810666D02*
X197746225Y-82810666D01*
X197746225Y-82810666D02*
X197822415Y-82848761D01*
X197822415Y-82848761D02*
X197860510Y-82886857D01*
X197860510Y-82886857D02*
X197898606Y-82963047D01*
%TO.C,D62*%
X218472415Y-121055904D02*
X218472415Y-120255904D01*
X218472415Y-120255904D02*
X218281939Y-120255904D01*
X218281939Y-120255904D02*
X218167653Y-120294000D01*
X218167653Y-120294000D02*
X218091463Y-120370190D01*
X218091463Y-120370190D02*
X218053368Y-120446380D01*
X218053368Y-120446380D02*
X218015272Y-120598761D01*
X218015272Y-120598761D02*
X218015272Y-120713047D01*
X218015272Y-120713047D02*
X218053368Y-120865428D01*
X218053368Y-120865428D02*
X218091463Y-120941619D01*
X218091463Y-120941619D02*
X218167653Y-121017809D01*
X218167653Y-121017809D02*
X218281939Y-121055904D01*
X218281939Y-121055904D02*
X218472415Y-121055904D01*
X217329558Y-120255904D02*
X217481939Y-120255904D01*
X217481939Y-120255904D02*
X217558130Y-120294000D01*
X217558130Y-120294000D02*
X217596225Y-120332095D01*
X217596225Y-120332095D02*
X217672415Y-120446380D01*
X217672415Y-120446380D02*
X217710511Y-120598761D01*
X217710511Y-120598761D02*
X217710511Y-120903523D01*
X217710511Y-120903523D02*
X217672415Y-120979714D01*
X217672415Y-120979714D02*
X217634320Y-121017809D01*
X217634320Y-121017809D02*
X217558130Y-121055904D01*
X217558130Y-121055904D02*
X217405749Y-121055904D01*
X217405749Y-121055904D02*
X217329558Y-121017809D01*
X217329558Y-121017809D02*
X217291463Y-120979714D01*
X217291463Y-120979714D02*
X217253368Y-120903523D01*
X217253368Y-120903523D02*
X217253368Y-120713047D01*
X217253368Y-120713047D02*
X217291463Y-120636857D01*
X217291463Y-120636857D02*
X217329558Y-120598761D01*
X217329558Y-120598761D02*
X217405749Y-120560666D01*
X217405749Y-120560666D02*
X217558130Y-120560666D01*
X217558130Y-120560666D02*
X217634320Y-120598761D01*
X217634320Y-120598761D02*
X217672415Y-120636857D01*
X217672415Y-120636857D02*
X217710511Y-120713047D01*
X216948606Y-120332095D02*
X216910510Y-120294000D01*
X216910510Y-120294000D02*
X216834320Y-120255904D01*
X216834320Y-120255904D02*
X216643844Y-120255904D01*
X216643844Y-120255904D02*
X216567653Y-120294000D01*
X216567653Y-120294000D02*
X216529558Y-120332095D01*
X216529558Y-120332095D02*
X216491463Y-120408285D01*
X216491463Y-120408285D02*
X216491463Y-120484476D01*
X216491463Y-120484476D02*
X216529558Y-120598761D01*
X216529558Y-120598761D02*
X216986701Y-121055904D01*
X216986701Y-121055904D02*
X216491463Y-121055904D01*
%TO.C,D13*%
X294652415Y-44855904D02*
X294652415Y-44055904D01*
X294652415Y-44055904D02*
X294461939Y-44055904D01*
X294461939Y-44055904D02*
X294347653Y-44094000D01*
X294347653Y-44094000D02*
X294271463Y-44170190D01*
X294271463Y-44170190D02*
X294233368Y-44246380D01*
X294233368Y-44246380D02*
X294195272Y-44398761D01*
X294195272Y-44398761D02*
X294195272Y-44513047D01*
X294195272Y-44513047D02*
X294233368Y-44665428D01*
X294233368Y-44665428D02*
X294271463Y-44741619D01*
X294271463Y-44741619D02*
X294347653Y-44817809D01*
X294347653Y-44817809D02*
X294461939Y-44855904D01*
X294461939Y-44855904D02*
X294652415Y-44855904D01*
X293433368Y-44855904D02*
X293890511Y-44855904D01*
X293661939Y-44855904D02*
X293661939Y-44055904D01*
X293661939Y-44055904D02*
X293738130Y-44170190D01*
X293738130Y-44170190D02*
X293814320Y-44246380D01*
X293814320Y-44246380D02*
X293890511Y-44284476D01*
X293166701Y-44055904D02*
X292671463Y-44055904D01*
X292671463Y-44055904D02*
X292938129Y-44360666D01*
X292938129Y-44360666D02*
X292823844Y-44360666D01*
X292823844Y-44360666D02*
X292747653Y-44398761D01*
X292747653Y-44398761D02*
X292709558Y-44436857D01*
X292709558Y-44436857D02*
X292671463Y-44513047D01*
X292671463Y-44513047D02*
X292671463Y-44703523D01*
X292671463Y-44703523D02*
X292709558Y-44779714D01*
X292709558Y-44779714D02*
X292747653Y-44817809D01*
X292747653Y-44817809D02*
X292823844Y-44855904D01*
X292823844Y-44855904D02*
X293052415Y-44855904D01*
X293052415Y-44855904D02*
X293128606Y-44817809D01*
X293128606Y-44817809D02*
X293166701Y-44779714D01*
D11*
%TO.C,SW53*%
X255455510Y-90451761D02*
X255312653Y-90499380D01*
X255312653Y-90499380D02*
X255074558Y-90499380D01*
X255074558Y-90499380D02*
X254979320Y-90451761D01*
X254979320Y-90451761D02*
X254931701Y-90404142D01*
X254931701Y-90404142D02*
X254884082Y-90308904D01*
X254884082Y-90308904D02*
X254884082Y-90213666D01*
X254884082Y-90213666D02*
X254931701Y-90118428D01*
X254931701Y-90118428D02*
X254979320Y-90070809D01*
X254979320Y-90070809D02*
X255074558Y-90023190D01*
X255074558Y-90023190D02*
X255265034Y-89975571D01*
X255265034Y-89975571D02*
X255360272Y-89927952D01*
X255360272Y-89927952D02*
X255407891Y-89880333D01*
X255407891Y-89880333D02*
X255455510Y-89785095D01*
X255455510Y-89785095D02*
X255455510Y-89689857D01*
X255455510Y-89689857D02*
X255407891Y-89594619D01*
X255407891Y-89594619D02*
X255360272Y-89547000D01*
X255360272Y-89547000D02*
X255265034Y-89499380D01*
X255265034Y-89499380D02*
X255026939Y-89499380D01*
X255026939Y-89499380D02*
X254884082Y-89547000D01*
X254550748Y-89499380D02*
X254312653Y-90499380D01*
X254312653Y-90499380D02*
X254122177Y-89785095D01*
X254122177Y-89785095D02*
X253931701Y-90499380D01*
X253931701Y-90499380D02*
X253693606Y-89499380D01*
X252836463Y-89499380D02*
X253312653Y-89499380D01*
X253312653Y-89499380D02*
X253360272Y-89975571D01*
X253360272Y-89975571D02*
X253312653Y-89927952D01*
X253312653Y-89927952D02*
X253217415Y-89880333D01*
X253217415Y-89880333D02*
X252979320Y-89880333D01*
X252979320Y-89880333D02*
X252884082Y-89927952D01*
X252884082Y-89927952D02*
X252836463Y-89975571D01*
X252836463Y-89975571D02*
X252788844Y-90070809D01*
X252788844Y-90070809D02*
X252788844Y-90308904D01*
X252788844Y-90308904D02*
X252836463Y-90404142D01*
X252836463Y-90404142D02*
X252884082Y-90451761D01*
X252884082Y-90451761D02*
X252979320Y-90499380D01*
X252979320Y-90499380D02*
X253217415Y-90499380D01*
X253217415Y-90499380D02*
X253312653Y-90451761D01*
X253312653Y-90451761D02*
X253360272Y-90404142D01*
X252455510Y-89499380D02*
X251836463Y-89499380D01*
X251836463Y-89499380D02*
X252169796Y-89880333D01*
X252169796Y-89880333D02*
X252026939Y-89880333D01*
X252026939Y-89880333D02*
X251931701Y-89927952D01*
X251931701Y-89927952D02*
X251884082Y-89975571D01*
X251884082Y-89975571D02*
X251836463Y-90070809D01*
X251836463Y-90070809D02*
X251836463Y-90308904D01*
X251836463Y-90308904D02*
X251884082Y-90404142D01*
X251884082Y-90404142D02*
X251931701Y-90451761D01*
X251931701Y-90451761D02*
X252026939Y-90499380D01*
X252026939Y-90499380D02*
X252312653Y-90499380D01*
X252312653Y-90499380D02*
X252407891Y-90451761D01*
X252407891Y-90451761D02*
X252455510Y-90404142D01*
D12*
%TO.C,D54*%
X265953904Y-93793571D02*
X265153904Y-93793571D01*
X265153904Y-93793571D02*
X265153904Y-93984047D01*
X265153904Y-93984047D02*
X265192000Y-94098333D01*
X265192000Y-94098333D02*
X265268190Y-94174523D01*
X265268190Y-94174523D02*
X265344380Y-94212618D01*
X265344380Y-94212618D02*
X265496761Y-94250714D01*
X265496761Y-94250714D02*
X265611047Y-94250714D01*
X265611047Y-94250714D02*
X265763428Y-94212618D01*
X265763428Y-94212618D02*
X265839619Y-94174523D01*
X265839619Y-94174523D02*
X265915809Y-94098333D01*
X265915809Y-94098333D02*
X265953904Y-93984047D01*
X265953904Y-93984047D02*
X265953904Y-93793571D01*
X265153904Y-94974523D02*
X265153904Y-94593571D01*
X265153904Y-94593571D02*
X265534857Y-94555475D01*
X265534857Y-94555475D02*
X265496761Y-94593571D01*
X265496761Y-94593571D02*
X265458666Y-94669761D01*
X265458666Y-94669761D02*
X265458666Y-94860237D01*
X265458666Y-94860237D02*
X265496761Y-94936428D01*
X265496761Y-94936428D02*
X265534857Y-94974523D01*
X265534857Y-94974523D02*
X265611047Y-95012618D01*
X265611047Y-95012618D02*
X265801523Y-95012618D01*
X265801523Y-95012618D02*
X265877714Y-94974523D01*
X265877714Y-94974523D02*
X265915809Y-94936428D01*
X265915809Y-94936428D02*
X265953904Y-94860237D01*
X265953904Y-94860237D02*
X265953904Y-94669761D01*
X265953904Y-94669761D02*
X265915809Y-94593571D01*
X265915809Y-94593571D02*
X265877714Y-94555475D01*
X265420571Y-95698333D02*
X265953904Y-95698333D01*
X265115809Y-95507857D02*
X265687238Y-95317380D01*
X265687238Y-95317380D02*
X265687238Y-95812619D01*
%TO.C,D64*%
X256672415Y-121155904D02*
X256672415Y-120355904D01*
X256672415Y-120355904D02*
X256481939Y-120355904D01*
X256481939Y-120355904D02*
X256367653Y-120394000D01*
X256367653Y-120394000D02*
X256291463Y-120470190D01*
X256291463Y-120470190D02*
X256253368Y-120546380D01*
X256253368Y-120546380D02*
X256215272Y-120698761D01*
X256215272Y-120698761D02*
X256215272Y-120813047D01*
X256215272Y-120813047D02*
X256253368Y-120965428D01*
X256253368Y-120965428D02*
X256291463Y-121041619D01*
X256291463Y-121041619D02*
X256367653Y-121117809D01*
X256367653Y-121117809D02*
X256481939Y-121155904D01*
X256481939Y-121155904D02*
X256672415Y-121155904D01*
X255529558Y-120355904D02*
X255681939Y-120355904D01*
X255681939Y-120355904D02*
X255758130Y-120394000D01*
X255758130Y-120394000D02*
X255796225Y-120432095D01*
X255796225Y-120432095D02*
X255872415Y-120546380D01*
X255872415Y-120546380D02*
X255910511Y-120698761D01*
X255910511Y-120698761D02*
X255910511Y-121003523D01*
X255910511Y-121003523D02*
X255872415Y-121079714D01*
X255872415Y-121079714D02*
X255834320Y-121117809D01*
X255834320Y-121117809D02*
X255758130Y-121155904D01*
X255758130Y-121155904D02*
X255605749Y-121155904D01*
X255605749Y-121155904D02*
X255529558Y-121117809D01*
X255529558Y-121117809D02*
X255491463Y-121079714D01*
X255491463Y-121079714D02*
X255453368Y-121003523D01*
X255453368Y-121003523D02*
X255453368Y-120813047D01*
X255453368Y-120813047D02*
X255491463Y-120736857D01*
X255491463Y-120736857D02*
X255529558Y-120698761D01*
X255529558Y-120698761D02*
X255605749Y-120660666D01*
X255605749Y-120660666D02*
X255758130Y-120660666D01*
X255758130Y-120660666D02*
X255834320Y-120698761D01*
X255834320Y-120698761D02*
X255872415Y-120736857D01*
X255872415Y-120736857D02*
X255910511Y-120813047D01*
X254767653Y-120622571D02*
X254767653Y-121155904D01*
X254958129Y-120317809D02*
X255148606Y-120889238D01*
X255148606Y-120889238D02*
X254653367Y-120889238D01*
D11*
%TO.C,SW28*%
X312555510Y-52351761D02*
X312412653Y-52399380D01*
X312412653Y-52399380D02*
X312174558Y-52399380D01*
X312174558Y-52399380D02*
X312079320Y-52351761D01*
X312079320Y-52351761D02*
X312031701Y-52304142D01*
X312031701Y-52304142D02*
X311984082Y-52208904D01*
X311984082Y-52208904D02*
X311984082Y-52113666D01*
X311984082Y-52113666D02*
X312031701Y-52018428D01*
X312031701Y-52018428D02*
X312079320Y-51970809D01*
X312079320Y-51970809D02*
X312174558Y-51923190D01*
X312174558Y-51923190D02*
X312365034Y-51875571D01*
X312365034Y-51875571D02*
X312460272Y-51827952D01*
X312460272Y-51827952D02*
X312507891Y-51780333D01*
X312507891Y-51780333D02*
X312555510Y-51685095D01*
X312555510Y-51685095D02*
X312555510Y-51589857D01*
X312555510Y-51589857D02*
X312507891Y-51494619D01*
X312507891Y-51494619D02*
X312460272Y-51447000D01*
X312460272Y-51447000D02*
X312365034Y-51399380D01*
X312365034Y-51399380D02*
X312126939Y-51399380D01*
X312126939Y-51399380D02*
X311984082Y-51447000D01*
X311650748Y-51399380D02*
X311412653Y-52399380D01*
X311412653Y-52399380D02*
X311222177Y-51685095D01*
X311222177Y-51685095D02*
X311031701Y-52399380D01*
X311031701Y-52399380D02*
X310793606Y-51399380D01*
X310460272Y-51494619D02*
X310412653Y-51447000D01*
X310412653Y-51447000D02*
X310317415Y-51399380D01*
X310317415Y-51399380D02*
X310079320Y-51399380D01*
X310079320Y-51399380D02*
X309984082Y-51447000D01*
X309984082Y-51447000D02*
X309936463Y-51494619D01*
X309936463Y-51494619D02*
X309888844Y-51589857D01*
X309888844Y-51589857D02*
X309888844Y-51685095D01*
X309888844Y-51685095D02*
X309936463Y-51827952D01*
X309936463Y-51827952D02*
X310507891Y-52399380D01*
X310507891Y-52399380D02*
X309888844Y-52399380D01*
X309317415Y-51827952D02*
X309412653Y-51780333D01*
X309412653Y-51780333D02*
X309460272Y-51732714D01*
X309460272Y-51732714D02*
X309507891Y-51637476D01*
X309507891Y-51637476D02*
X309507891Y-51589857D01*
X309507891Y-51589857D02*
X309460272Y-51494619D01*
X309460272Y-51494619D02*
X309412653Y-51447000D01*
X309412653Y-51447000D02*
X309317415Y-51399380D01*
X309317415Y-51399380D02*
X309126939Y-51399380D01*
X309126939Y-51399380D02*
X309031701Y-51447000D01*
X309031701Y-51447000D02*
X308984082Y-51494619D01*
X308984082Y-51494619D02*
X308936463Y-51589857D01*
X308936463Y-51589857D02*
X308936463Y-51637476D01*
X308936463Y-51637476D02*
X308984082Y-51732714D01*
X308984082Y-51732714D02*
X309031701Y-51780333D01*
X309031701Y-51780333D02*
X309126939Y-51827952D01*
X309126939Y-51827952D02*
X309317415Y-51827952D01*
X309317415Y-51827952D02*
X309412653Y-51875571D01*
X309412653Y-51875571D02*
X309460272Y-51923190D01*
X309460272Y-51923190D02*
X309507891Y-52018428D01*
X309507891Y-52018428D02*
X309507891Y-52208904D01*
X309507891Y-52208904D02*
X309460272Y-52304142D01*
X309460272Y-52304142D02*
X309412653Y-52351761D01*
X309412653Y-52351761D02*
X309317415Y-52399380D01*
X309317415Y-52399380D02*
X309126939Y-52399380D01*
X309126939Y-52399380D02*
X309031701Y-52351761D01*
X309031701Y-52351761D02*
X308984082Y-52304142D01*
X308984082Y-52304142D02*
X308936463Y-52208904D01*
X308936463Y-52208904D02*
X308936463Y-52018428D01*
X308936463Y-52018428D02*
X308984082Y-51923190D01*
X308984082Y-51923190D02*
X309031701Y-51875571D01*
X309031701Y-51875571D02*
X309126939Y-51827952D01*
%TO.C,SW51*%
X217255510Y-90451761D02*
X217112653Y-90499380D01*
X217112653Y-90499380D02*
X216874558Y-90499380D01*
X216874558Y-90499380D02*
X216779320Y-90451761D01*
X216779320Y-90451761D02*
X216731701Y-90404142D01*
X216731701Y-90404142D02*
X216684082Y-90308904D01*
X216684082Y-90308904D02*
X216684082Y-90213666D01*
X216684082Y-90213666D02*
X216731701Y-90118428D01*
X216731701Y-90118428D02*
X216779320Y-90070809D01*
X216779320Y-90070809D02*
X216874558Y-90023190D01*
X216874558Y-90023190D02*
X217065034Y-89975571D01*
X217065034Y-89975571D02*
X217160272Y-89927952D01*
X217160272Y-89927952D02*
X217207891Y-89880333D01*
X217207891Y-89880333D02*
X217255510Y-89785095D01*
X217255510Y-89785095D02*
X217255510Y-89689857D01*
X217255510Y-89689857D02*
X217207891Y-89594619D01*
X217207891Y-89594619D02*
X217160272Y-89547000D01*
X217160272Y-89547000D02*
X217065034Y-89499380D01*
X217065034Y-89499380D02*
X216826939Y-89499380D01*
X216826939Y-89499380D02*
X216684082Y-89547000D01*
X216350748Y-89499380D02*
X216112653Y-90499380D01*
X216112653Y-90499380D02*
X215922177Y-89785095D01*
X215922177Y-89785095D02*
X215731701Y-90499380D01*
X215731701Y-90499380D02*
X215493606Y-89499380D01*
X214636463Y-89499380D02*
X215112653Y-89499380D01*
X215112653Y-89499380D02*
X215160272Y-89975571D01*
X215160272Y-89975571D02*
X215112653Y-89927952D01*
X215112653Y-89927952D02*
X215017415Y-89880333D01*
X215017415Y-89880333D02*
X214779320Y-89880333D01*
X214779320Y-89880333D02*
X214684082Y-89927952D01*
X214684082Y-89927952D02*
X214636463Y-89975571D01*
X214636463Y-89975571D02*
X214588844Y-90070809D01*
X214588844Y-90070809D02*
X214588844Y-90308904D01*
X214588844Y-90308904D02*
X214636463Y-90404142D01*
X214636463Y-90404142D02*
X214684082Y-90451761D01*
X214684082Y-90451761D02*
X214779320Y-90499380D01*
X214779320Y-90499380D02*
X215017415Y-90499380D01*
X215017415Y-90499380D02*
X215112653Y-90451761D01*
X215112653Y-90451761D02*
X215160272Y-90404142D01*
X213636463Y-90499380D02*
X214207891Y-90499380D01*
X213922177Y-90499380D02*
X213922177Y-89499380D01*
X213922177Y-89499380D02*
X214017415Y-89642238D01*
X214017415Y-89642238D02*
X214112653Y-89737476D01*
X214112653Y-89737476D02*
X214207891Y-89785095D01*
D12*
%TO.C,D23*%
X218472415Y-64175904D02*
X218472415Y-63375904D01*
X218472415Y-63375904D02*
X218281939Y-63375904D01*
X218281939Y-63375904D02*
X218167653Y-63414000D01*
X218167653Y-63414000D02*
X218091463Y-63490190D01*
X218091463Y-63490190D02*
X218053368Y-63566380D01*
X218053368Y-63566380D02*
X218015272Y-63718761D01*
X218015272Y-63718761D02*
X218015272Y-63833047D01*
X218015272Y-63833047D02*
X218053368Y-63985428D01*
X218053368Y-63985428D02*
X218091463Y-64061619D01*
X218091463Y-64061619D02*
X218167653Y-64137809D01*
X218167653Y-64137809D02*
X218281939Y-64175904D01*
X218281939Y-64175904D02*
X218472415Y-64175904D01*
X217710511Y-63452095D02*
X217672415Y-63414000D01*
X217672415Y-63414000D02*
X217596225Y-63375904D01*
X217596225Y-63375904D02*
X217405749Y-63375904D01*
X217405749Y-63375904D02*
X217329558Y-63414000D01*
X217329558Y-63414000D02*
X217291463Y-63452095D01*
X217291463Y-63452095D02*
X217253368Y-63528285D01*
X217253368Y-63528285D02*
X217253368Y-63604476D01*
X217253368Y-63604476D02*
X217291463Y-63718761D01*
X217291463Y-63718761D02*
X217748606Y-64175904D01*
X217748606Y-64175904D02*
X217253368Y-64175904D01*
X216986701Y-63375904D02*
X216491463Y-63375904D01*
X216491463Y-63375904D02*
X216758129Y-63680666D01*
X216758129Y-63680666D02*
X216643844Y-63680666D01*
X216643844Y-63680666D02*
X216567653Y-63718761D01*
X216567653Y-63718761D02*
X216529558Y-63756857D01*
X216529558Y-63756857D02*
X216491463Y-63833047D01*
X216491463Y-63833047D02*
X216491463Y-64023523D01*
X216491463Y-64023523D02*
X216529558Y-64099714D01*
X216529558Y-64099714D02*
X216567653Y-64137809D01*
X216567653Y-64137809D02*
X216643844Y-64175904D01*
X216643844Y-64175904D02*
X216872415Y-64175904D01*
X216872415Y-64175904D02*
X216948606Y-64137809D01*
X216948606Y-64137809D02*
X216986701Y-64099714D01*
D11*
%TO.C,SW37*%
X217255510Y-71401761D02*
X217112653Y-71449380D01*
X217112653Y-71449380D02*
X216874558Y-71449380D01*
X216874558Y-71449380D02*
X216779320Y-71401761D01*
X216779320Y-71401761D02*
X216731701Y-71354142D01*
X216731701Y-71354142D02*
X216684082Y-71258904D01*
X216684082Y-71258904D02*
X216684082Y-71163666D01*
X216684082Y-71163666D02*
X216731701Y-71068428D01*
X216731701Y-71068428D02*
X216779320Y-71020809D01*
X216779320Y-71020809D02*
X216874558Y-70973190D01*
X216874558Y-70973190D02*
X217065034Y-70925571D01*
X217065034Y-70925571D02*
X217160272Y-70877952D01*
X217160272Y-70877952D02*
X217207891Y-70830333D01*
X217207891Y-70830333D02*
X217255510Y-70735095D01*
X217255510Y-70735095D02*
X217255510Y-70639857D01*
X217255510Y-70639857D02*
X217207891Y-70544619D01*
X217207891Y-70544619D02*
X217160272Y-70497000D01*
X217160272Y-70497000D02*
X217065034Y-70449380D01*
X217065034Y-70449380D02*
X216826939Y-70449380D01*
X216826939Y-70449380D02*
X216684082Y-70497000D01*
X216350748Y-70449380D02*
X216112653Y-71449380D01*
X216112653Y-71449380D02*
X215922177Y-70735095D01*
X215922177Y-70735095D02*
X215731701Y-71449380D01*
X215731701Y-71449380D02*
X215493606Y-70449380D01*
X215207891Y-70449380D02*
X214588844Y-70449380D01*
X214588844Y-70449380D02*
X214922177Y-70830333D01*
X214922177Y-70830333D02*
X214779320Y-70830333D01*
X214779320Y-70830333D02*
X214684082Y-70877952D01*
X214684082Y-70877952D02*
X214636463Y-70925571D01*
X214636463Y-70925571D02*
X214588844Y-71020809D01*
X214588844Y-71020809D02*
X214588844Y-71258904D01*
X214588844Y-71258904D02*
X214636463Y-71354142D01*
X214636463Y-71354142D02*
X214684082Y-71401761D01*
X214684082Y-71401761D02*
X214779320Y-71449380D01*
X214779320Y-71449380D02*
X215065034Y-71449380D01*
X215065034Y-71449380D02*
X215160272Y-71401761D01*
X215160272Y-71401761D02*
X215207891Y-71354142D01*
X214255510Y-70449380D02*
X213588844Y-70449380D01*
X213588844Y-70449380D02*
X214017415Y-71449380D01*
%TO.C,SW56*%
X312555510Y-90451761D02*
X312412653Y-90499380D01*
X312412653Y-90499380D02*
X312174558Y-90499380D01*
X312174558Y-90499380D02*
X312079320Y-90451761D01*
X312079320Y-90451761D02*
X312031701Y-90404142D01*
X312031701Y-90404142D02*
X311984082Y-90308904D01*
X311984082Y-90308904D02*
X311984082Y-90213666D01*
X311984082Y-90213666D02*
X312031701Y-90118428D01*
X312031701Y-90118428D02*
X312079320Y-90070809D01*
X312079320Y-90070809D02*
X312174558Y-90023190D01*
X312174558Y-90023190D02*
X312365034Y-89975571D01*
X312365034Y-89975571D02*
X312460272Y-89927952D01*
X312460272Y-89927952D02*
X312507891Y-89880333D01*
X312507891Y-89880333D02*
X312555510Y-89785095D01*
X312555510Y-89785095D02*
X312555510Y-89689857D01*
X312555510Y-89689857D02*
X312507891Y-89594619D01*
X312507891Y-89594619D02*
X312460272Y-89547000D01*
X312460272Y-89547000D02*
X312365034Y-89499380D01*
X312365034Y-89499380D02*
X312126939Y-89499380D01*
X312126939Y-89499380D02*
X311984082Y-89547000D01*
X311650748Y-89499380D02*
X311412653Y-90499380D01*
X311412653Y-90499380D02*
X311222177Y-89785095D01*
X311222177Y-89785095D02*
X311031701Y-90499380D01*
X311031701Y-90499380D02*
X310793606Y-89499380D01*
X309936463Y-89499380D02*
X310412653Y-89499380D01*
X310412653Y-89499380D02*
X310460272Y-89975571D01*
X310460272Y-89975571D02*
X310412653Y-89927952D01*
X310412653Y-89927952D02*
X310317415Y-89880333D01*
X310317415Y-89880333D02*
X310079320Y-89880333D01*
X310079320Y-89880333D02*
X309984082Y-89927952D01*
X309984082Y-89927952D02*
X309936463Y-89975571D01*
X309936463Y-89975571D02*
X309888844Y-90070809D01*
X309888844Y-90070809D02*
X309888844Y-90308904D01*
X309888844Y-90308904D02*
X309936463Y-90404142D01*
X309936463Y-90404142D02*
X309984082Y-90451761D01*
X309984082Y-90451761D02*
X310079320Y-90499380D01*
X310079320Y-90499380D02*
X310317415Y-90499380D01*
X310317415Y-90499380D02*
X310412653Y-90451761D01*
X310412653Y-90451761D02*
X310460272Y-90404142D01*
X309031701Y-89499380D02*
X309222177Y-89499380D01*
X309222177Y-89499380D02*
X309317415Y-89547000D01*
X309317415Y-89547000D02*
X309365034Y-89594619D01*
X309365034Y-89594619D02*
X309460272Y-89737476D01*
X309460272Y-89737476D02*
X309507891Y-89927952D01*
X309507891Y-89927952D02*
X309507891Y-90308904D01*
X309507891Y-90308904D02*
X309460272Y-90404142D01*
X309460272Y-90404142D02*
X309412653Y-90451761D01*
X309412653Y-90451761D02*
X309317415Y-90499380D01*
X309317415Y-90499380D02*
X309126939Y-90499380D01*
X309126939Y-90499380D02*
X309031701Y-90451761D01*
X309031701Y-90451761D02*
X308984082Y-90404142D01*
X308984082Y-90404142D02*
X308936463Y-90308904D01*
X308936463Y-90308904D02*
X308936463Y-90070809D01*
X308936463Y-90070809D02*
X308984082Y-89975571D01*
X308984082Y-89975571D02*
X309031701Y-89927952D01*
X309031701Y-89927952D02*
X309126939Y-89880333D01*
X309126939Y-89880333D02*
X309317415Y-89880333D01*
X309317415Y-89880333D02*
X309412653Y-89927952D01*
X309412653Y-89927952D02*
X309460272Y-89975571D01*
X309460272Y-89975571D02*
X309507891Y-90070809D01*
D12*
%TO.C,D63*%
X237557415Y-121055904D02*
X237557415Y-120255904D01*
X237557415Y-120255904D02*
X237366939Y-120255904D01*
X237366939Y-120255904D02*
X237252653Y-120294000D01*
X237252653Y-120294000D02*
X237176463Y-120370190D01*
X237176463Y-120370190D02*
X237138368Y-120446380D01*
X237138368Y-120446380D02*
X237100272Y-120598761D01*
X237100272Y-120598761D02*
X237100272Y-120713047D01*
X237100272Y-120713047D02*
X237138368Y-120865428D01*
X237138368Y-120865428D02*
X237176463Y-120941619D01*
X237176463Y-120941619D02*
X237252653Y-121017809D01*
X237252653Y-121017809D02*
X237366939Y-121055904D01*
X237366939Y-121055904D02*
X237557415Y-121055904D01*
X236414558Y-120255904D02*
X236566939Y-120255904D01*
X236566939Y-120255904D02*
X236643130Y-120294000D01*
X236643130Y-120294000D02*
X236681225Y-120332095D01*
X236681225Y-120332095D02*
X236757415Y-120446380D01*
X236757415Y-120446380D02*
X236795511Y-120598761D01*
X236795511Y-120598761D02*
X236795511Y-120903523D01*
X236795511Y-120903523D02*
X236757415Y-120979714D01*
X236757415Y-120979714D02*
X236719320Y-121017809D01*
X236719320Y-121017809D02*
X236643130Y-121055904D01*
X236643130Y-121055904D02*
X236490749Y-121055904D01*
X236490749Y-121055904D02*
X236414558Y-121017809D01*
X236414558Y-121017809D02*
X236376463Y-120979714D01*
X236376463Y-120979714D02*
X236338368Y-120903523D01*
X236338368Y-120903523D02*
X236338368Y-120713047D01*
X236338368Y-120713047D02*
X236376463Y-120636857D01*
X236376463Y-120636857D02*
X236414558Y-120598761D01*
X236414558Y-120598761D02*
X236490749Y-120560666D01*
X236490749Y-120560666D02*
X236643130Y-120560666D01*
X236643130Y-120560666D02*
X236719320Y-120598761D01*
X236719320Y-120598761D02*
X236757415Y-120636857D01*
X236757415Y-120636857D02*
X236795511Y-120713047D01*
X236071701Y-120255904D02*
X235576463Y-120255904D01*
X235576463Y-120255904D02*
X235843129Y-120560666D01*
X235843129Y-120560666D02*
X235728844Y-120560666D01*
X235728844Y-120560666D02*
X235652653Y-120598761D01*
X235652653Y-120598761D02*
X235614558Y-120636857D01*
X235614558Y-120636857D02*
X235576463Y-120713047D01*
X235576463Y-120713047D02*
X235576463Y-120903523D01*
X235576463Y-120903523D02*
X235614558Y-120979714D01*
X235614558Y-120979714D02*
X235652653Y-121017809D01*
X235652653Y-121017809D02*
X235728844Y-121055904D01*
X235728844Y-121055904D02*
X235957415Y-121055904D01*
X235957415Y-121055904D02*
X236033606Y-121017809D01*
X236033606Y-121017809D02*
X236071701Y-120979714D01*
D11*
%TO.C,SW9*%
X216779319Y-30799761D02*
X216636462Y-30847380D01*
X216636462Y-30847380D02*
X216398367Y-30847380D01*
X216398367Y-30847380D02*
X216303129Y-30799761D01*
X216303129Y-30799761D02*
X216255510Y-30752142D01*
X216255510Y-30752142D02*
X216207891Y-30656904D01*
X216207891Y-30656904D02*
X216207891Y-30561666D01*
X216207891Y-30561666D02*
X216255510Y-30466428D01*
X216255510Y-30466428D02*
X216303129Y-30418809D01*
X216303129Y-30418809D02*
X216398367Y-30371190D01*
X216398367Y-30371190D02*
X216588843Y-30323571D01*
X216588843Y-30323571D02*
X216684081Y-30275952D01*
X216684081Y-30275952D02*
X216731700Y-30228333D01*
X216731700Y-30228333D02*
X216779319Y-30133095D01*
X216779319Y-30133095D02*
X216779319Y-30037857D01*
X216779319Y-30037857D02*
X216731700Y-29942619D01*
X216731700Y-29942619D02*
X216684081Y-29895000D01*
X216684081Y-29895000D02*
X216588843Y-29847380D01*
X216588843Y-29847380D02*
X216350748Y-29847380D01*
X216350748Y-29847380D02*
X216207891Y-29895000D01*
X215874557Y-29847380D02*
X215636462Y-30847380D01*
X215636462Y-30847380D02*
X215445986Y-30133095D01*
X215445986Y-30133095D02*
X215255510Y-30847380D01*
X215255510Y-30847380D02*
X215017415Y-29847380D01*
X214588843Y-30847380D02*
X214398367Y-30847380D01*
X214398367Y-30847380D02*
X214303129Y-30799761D01*
X214303129Y-30799761D02*
X214255510Y-30752142D01*
X214255510Y-30752142D02*
X214160272Y-30609285D01*
X214160272Y-30609285D02*
X214112653Y-30418809D01*
X214112653Y-30418809D02*
X214112653Y-30037857D01*
X214112653Y-30037857D02*
X214160272Y-29942619D01*
X214160272Y-29942619D02*
X214207891Y-29895000D01*
X214207891Y-29895000D02*
X214303129Y-29847380D01*
X214303129Y-29847380D02*
X214493605Y-29847380D01*
X214493605Y-29847380D02*
X214588843Y-29895000D01*
X214588843Y-29895000D02*
X214636462Y-29942619D01*
X214636462Y-29942619D02*
X214684081Y-30037857D01*
X214684081Y-30037857D02*
X214684081Y-30275952D01*
X214684081Y-30275952D02*
X214636462Y-30371190D01*
X214636462Y-30371190D02*
X214588843Y-30418809D01*
X214588843Y-30418809D02*
X214493605Y-30466428D01*
X214493605Y-30466428D02*
X214303129Y-30466428D01*
X214303129Y-30466428D02*
X214207891Y-30418809D01*
X214207891Y-30418809D02*
X214160272Y-30371190D01*
X214160272Y-30371190D02*
X214112653Y-30275952D01*
%TO.C,SW27*%
X293455510Y-52351761D02*
X293312653Y-52399380D01*
X293312653Y-52399380D02*
X293074558Y-52399380D01*
X293074558Y-52399380D02*
X292979320Y-52351761D01*
X292979320Y-52351761D02*
X292931701Y-52304142D01*
X292931701Y-52304142D02*
X292884082Y-52208904D01*
X292884082Y-52208904D02*
X292884082Y-52113666D01*
X292884082Y-52113666D02*
X292931701Y-52018428D01*
X292931701Y-52018428D02*
X292979320Y-51970809D01*
X292979320Y-51970809D02*
X293074558Y-51923190D01*
X293074558Y-51923190D02*
X293265034Y-51875571D01*
X293265034Y-51875571D02*
X293360272Y-51827952D01*
X293360272Y-51827952D02*
X293407891Y-51780333D01*
X293407891Y-51780333D02*
X293455510Y-51685095D01*
X293455510Y-51685095D02*
X293455510Y-51589857D01*
X293455510Y-51589857D02*
X293407891Y-51494619D01*
X293407891Y-51494619D02*
X293360272Y-51447000D01*
X293360272Y-51447000D02*
X293265034Y-51399380D01*
X293265034Y-51399380D02*
X293026939Y-51399380D01*
X293026939Y-51399380D02*
X292884082Y-51447000D01*
X292550748Y-51399380D02*
X292312653Y-52399380D01*
X292312653Y-52399380D02*
X292122177Y-51685095D01*
X292122177Y-51685095D02*
X291931701Y-52399380D01*
X291931701Y-52399380D02*
X291693606Y-51399380D01*
X291360272Y-51494619D02*
X291312653Y-51447000D01*
X291312653Y-51447000D02*
X291217415Y-51399380D01*
X291217415Y-51399380D02*
X290979320Y-51399380D01*
X290979320Y-51399380D02*
X290884082Y-51447000D01*
X290884082Y-51447000D02*
X290836463Y-51494619D01*
X290836463Y-51494619D02*
X290788844Y-51589857D01*
X290788844Y-51589857D02*
X290788844Y-51685095D01*
X290788844Y-51685095D02*
X290836463Y-51827952D01*
X290836463Y-51827952D02*
X291407891Y-52399380D01*
X291407891Y-52399380D02*
X290788844Y-52399380D01*
X290455510Y-51399380D02*
X289788844Y-51399380D01*
X289788844Y-51399380D02*
X290217415Y-52399380D01*
%TO.C,SW14*%
X312555510Y-33301761D02*
X312412653Y-33349380D01*
X312412653Y-33349380D02*
X312174558Y-33349380D01*
X312174558Y-33349380D02*
X312079320Y-33301761D01*
X312079320Y-33301761D02*
X312031701Y-33254142D01*
X312031701Y-33254142D02*
X311984082Y-33158904D01*
X311984082Y-33158904D02*
X311984082Y-33063666D01*
X311984082Y-33063666D02*
X312031701Y-32968428D01*
X312031701Y-32968428D02*
X312079320Y-32920809D01*
X312079320Y-32920809D02*
X312174558Y-32873190D01*
X312174558Y-32873190D02*
X312365034Y-32825571D01*
X312365034Y-32825571D02*
X312460272Y-32777952D01*
X312460272Y-32777952D02*
X312507891Y-32730333D01*
X312507891Y-32730333D02*
X312555510Y-32635095D01*
X312555510Y-32635095D02*
X312555510Y-32539857D01*
X312555510Y-32539857D02*
X312507891Y-32444619D01*
X312507891Y-32444619D02*
X312460272Y-32397000D01*
X312460272Y-32397000D02*
X312365034Y-32349380D01*
X312365034Y-32349380D02*
X312126939Y-32349380D01*
X312126939Y-32349380D02*
X311984082Y-32397000D01*
X311650748Y-32349380D02*
X311412653Y-33349380D01*
X311412653Y-33349380D02*
X311222177Y-32635095D01*
X311222177Y-32635095D02*
X311031701Y-33349380D01*
X311031701Y-33349380D02*
X310793606Y-32349380D01*
X309888844Y-33349380D02*
X310460272Y-33349380D01*
X310174558Y-33349380D02*
X310174558Y-32349380D01*
X310174558Y-32349380D02*
X310269796Y-32492238D01*
X310269796Y-32492238D02*
X310365034Y-32587476D01*
X310365034Y-32587476D02*
X310460272Y-32635095D01*
X309031701Y-32682714D02*
X309031701Y-33349380D01*
X309269796Y-32301761D02*
X309507891Y-33016047D01*
X309507891Y-33016047D02*
X308888844Y-33016047D01*
%TO.C,SW50*%
X198255510Y-90451761D02*
X198112653Y-90499380D01*
X198112653Y-90499380D02*
X197874558Y-90499380D01*
X197874558Y-90499380D02*
X197779320Y-90451761D01*
X197779320Y-90451761D02*
X197731701Y-90404142D01*
X197731701Y-90404142D02*
X197684082Y-90308904D01*
X197684082Y-90308904D02*
X197684082Y-90213666D01*
X197684082Y-90213666D02*
X197731701Y-90118428D01*
X197731701Y-90118428D02*
X197779320Y-90070809D01*
X197779320Y-90070809D02*
X197874558Y-90023190D01*
X197874558Y-90023190D02*
X198065034Y-89975571D01*
X198065034Y-89975571D02*
X198160272Y-89927952D01*
X198160272Y-89927952D02*
X198207891Y-89880333D01*
X198207891Y-89880333D02*
X198255510Y-89785095D01*
X198255510Y-89785095D02*
X198255510Y-89689857D01*
X198255510Y-89689857D02*
X198207891Y-89594619D01*
X198207891Y-89594619D02*
X198160272Y-89547000D01*
X198160272Y-89547000D02*
X198065034Y-89499380D01*
X198065034Y-89499380D02*
X197826939Y-89499380D01*
X197826939Y-89499380D02*
X197684082Y-89547000D01*
X197350748Y-89499380D02*
X197112653Y-90499380D01*
X197112653Y-90499380D02*
X196922177Y-89785095D01*
X196922177Y-89785095D02*
X196731701Y-90499380D01*
X196731701Y-90499380D02*
X196493606Y-89499380D01*
X195636463Y-89499380D02*
X196112653Y-89499380D01*
X196112653Y-89499380D02*
X196160272Y-89975571D01*
X196160272Y-89975571D02*
X196112653Y-89927952D01*
X196112653Y-89927952D02*
X196017415Y-89880333D01*
X196017415Y-89880333D02*
X195779320Y-89880333D01*
X195779320Y-89880333D02*
X195684082Y-89927952D01*
X195684082Y-89927952D02*
X195636463Y-89975571D01*
X195636463Y-89975571D02*
X195588844Y-90070809D01*
X195588844Y-90070809D02*
X195588844Y-90308904D01*
X195588844Y-90308904D02*
X195636463Y-90404142D01*
X195636463Y-90404142D02*
X195684082Y-90451761D01*
X195684082Y-90451761D02*
X195779320Y-90499380D01*
X195779320Y-90499380D02*
X196017415Y-90499380D01*
X196017415Y-90499380D02*
X196112653Y-90451761D01*
X196112653Y-90451761D02*
X196160272Y-90404142D01*
X194969796Y-89499380D02*
X194874558Y-89499380D01*
X194874558Y-89499380D02*
X194779320Y-89547000D01*
X194779320Y-89547000D02*
X194731701Y-89594619D01*
X194731701Y-89594619D02*
X194684082Y-89689857D01*
X194684082Y-89689857D02*
X194636463Y-89880333D01*
X194636463Y-89880333D02*
X194636463Y-90118428D01*
X194636463Y-90118428D02*
X194684082Y-90308904D01*
X194684082Y-90308904D02*
X194731701Y-90404142D01*
X194731701Y-90404142D02*
X194779320Y-90451761D01*
X194779320Y-90451761D02*
X194874558Y-90499380D01*
X194874558Y-90499380D02*
X194969796Y-90499380D01*
X194969796Y-90499380D02*
X195065034Y-90451761D01*
X195065034Y-90451761D02*
X195112653Y-90404142D01*
X195112653Y-90404142D02*
X195160272Y-90308904D01*
X195160272Y-90308904D02*
X195207891Y-90118428D01*
X195207891Y-90118428D02*
X195207891Y-89880333D01*
X195207891Y-89880333D02*
X195160272Y-89689857D01*
X195160272Y-89689857D02*
X195112653Y-89594619D01*
X195112653Y-89594619D02*
X195065034Y-89547000D01*
X195065034Y-89547000D02*
X194969796Y-89499380D01*
%TO.C,SW38*%
X236355510Y-71401761D02*
X236212653Y-71449380D01*
X236212653Y-71449380D02*
X235974558Y-71449380D01*
X235974558Y-71449380D02*
X235879320Y-71401761D01*
X235879320Y-71401761D02*
X235831701Y-71354142D01*
X235831701Y-71354142D02*
X235784082Y-71258904D01*
X235784082Y-71258904D02*
X235784082Y-71163666D01*
X235784082Y-71163666D02*
X235831701Y-71068428D01*
X235831701Y-71068428D02*
X235879320Y-71020809D01*
X235879320Y-71020809D02*
X235974558Y-70973190D01*
X235974558Y-70973190D02*
X236165034Y-70925571D01*
X236165034Y-70925571D02*
X236260272Y-70877952D01*
X236260272Y-70877952D02*
X236307891Y-70830333D01*
X236307891Y-70830333D02*
X236355510Y-70735095D01*
X236355510Y-70735095D02*
X236355510Y-70639857D01*
X236355510Y-70639857D02*
X236307891Y-70544619D01*
X236307891Y-70544619D02*
X236260272Y-70497000D01*
X236260272Y-70497000D02*
X236165034Y-70449380D01*
X236165034Y-70449380D02*
X235926939Y-70449380D01*
X235926939Y-70449380D02*
X235784082Y-70497000D01*
X235450748Y-70449380D02*
X235212653Y-71449380D01*
X235212653Y-71449380D02*
X235022177Y-70735095D01*
X235022177Y-70735095D02*
X234831701Y-71449380D01*
X234831701Y-71449380D02*
X234593606Y-70449380D01*
X234307891Y-70449380D02*
X233688844Y-70449380D01*
X233688844Y-70449380D02*
X234022177Y-70830333D01*
X234022177Y-70830333D02*
X233879320Y-70830333D01*
X233879320Y-70830333D02*
X233784082Y-70877952D01*
X233784082Y-70877952D02*
X233736463Y-70925571D01*
X233736463Y-70925571D02*
X233688844Y-71020809D01*
X233688844Y-71020809D02*
X233688844Y-71258904D01*
X233688844Y-71258904D02*
X233736463Y-71354142D01*
X233736463Y-71354142D02*
X233784082Y-71401761D01*
X233784082Y-71401761D02*
X233879320Y-71449380D01*
X233879320Y-71449380D02*
X234165034Y-71449380D01*
X234165034Y-71449380D02*
X234260272Y-71401761D01*
X234260272Y-71401761D02*
X234307891Y-71354142D01*
X233117415Y-70877952D02*
X233212653Y-70830333D01*
X233212653Y-70830333D02*
X233260272Y-70782714D01*
X233260272Y-70782714D02*
X233307891Y-70687476D01*
X233307891Y-70687476D02*
X233307891Y-70639857D01*
X233307891Y-70639857D02*
X233260272Y-70544619D01*
X233260272Y-70544619D02*
X233212653Y-70497000D01*
X233212653Y-70497000D02*
X233117415Y-70449380D01*
X233117415Y-70449380D02*
X232926939Y-70449380D01*
X232926939Y-70449380D02*
X232831701Y-70497000D01*
X232831701Y-70497000D02*
X232784082Y-70544619D01*
X232784082Y-70544619D02*
X232736463Y-70639857D01*
X232736463Y-70639857D02*
X232736463Y-70687476D01*
X232736463Y-70687476D02*
X232784082Y-70782714D01*
X232784082Y-70782714D02*
X232831701Y-70830333D01*
X232831701Y-70830333D02*
X232926939Y-70877952D01*
X232926939Y-70877952D02*
X233117415Y-70877952D01*
X233117415Y-70877952D02*
X233212653Y-70925571D01*
X233212653Y-70925571D02*
X233260272Y-70973190D01*
X233260272Y-70973190D02*
X233307891Y-71068428D01*
X233307891Y-71068428D02*
X233307891Y-71258904D01*
X233307891Y-71258904D02*
X233260272Y-71354142D01*
X233260272Y-71354142D02*
X233212653Y-71401761D01*
X233212653Y-71401761D02*
X233117415Y-71449380D01*
X233117415Y-71449380D02*
X232926939Y-71449380D01*
X232926939Y-71449380D02*
X232831701Y-71401761D01*
X232831701Y-71401761D02*
X232784082Y-71354142D01*
X232784082Y-71354142D02*
X232736463Y-71258904D01*
X232736463Y-71258904D02*
X232736463Y-71068428D01*
X232736463Y-71068428D02*
X232784082Y-70973190D01*
X232784082Y-70973190D02*
X232831701Y-70925571D01*
X232831701Y-70925571D02*
X232926939Y-70877952D01*
%TO.C,SW11*%
X255455510Y-33301761D02*
X255312653Y-33349380D01*
X255312653Y-33349380D02*
X255074558Y-33349380D01*
X255074558Y-33349380D02*
X254979320Y-33301761D01*
X254979320Y-33301761D02*
X254931701Y-33254142D01*
X254931701Y-33254142D02*
X254884082Y-33158904D01*
X254884082Y-33158904D02*
X254884082Y-33063666D01*
X254884082Y-33063666D02*
X254931701Y-32968428D01*
X254931701Y-32968428D02*
X254979320Y-32920809D01*
X254979320Y-32920809D02*
X255074558Y-32873190D01*
X255074558Y-32873190D02*
X255265034Y-32825571D01*
X255265034Y-32825571D02*
X255360272Y-32777952D01*
X255360272Y-32777952D02*
X255407891Y-32730333D01*
X255407891Y-32730333D02*
X255455510Y-32635095D01*
X255455510Y-32635095D02*
X255455510Y-32539857D01*
X255455510Y-32539857D02*
X255407891Y-32444619D01*
X255407891Y-32444619D02*
X255360272Y-32397000D01*
X255360272Y-32397000D02*
X255265034Y-32349380D01*
X255265034Y-32349380D02*
X255026939Y-32349380D01*
X255026939Y-32349380D02*
X254884082Y-32397000D01*
X254550748Y-32349380D02*
X254312653Y-33349380D01*
X254312653Y-33349380D02*
X254122177Y-32635095D01*
X254122177Y-32635095D02*
X253931701Y-33349380D01*
X253931701Y-33349380D02*
X253693606Y-32349380D01*
X252788844Y-33349380D02*
X253360272Y-33349380D01*
X253074558Y-33349380D02*
X253074558Y-32349380D01*
X253074558Y-32349380D02*
X253169796Y-32492238D01*
X253169796Y-32492238D02*
X253265034Y-32587476D01*
X253265034Y-32587476D02*
X253360272Y-32635095D01*
X251836463Y-33349380D02*
X252407891Y-33349380D01*
X252122177Y-33349380D02*
X252122177Y-32349380D01*
X252122177Y-32349380D02*
X252217415Y-32492238D01*
X252217415Y-32492238D02*
X252312653Y-32587476D01*
X252312653Y-32587476D02*
X252407891Y-32635095D01*
D12*
%TO.C,D50*%
X199422415Y-101985904D02*
X199422415Y-101185904D01*
X199422415Y-101185904D02*
X199231939Y-101185904D01*
X199231939Y-101185904D02*
X199117653Y-101224000D01*
X199117653Y-101224000D02*
X199041463Y-101300190D01*
X199041463Y-101300190D02*
X199003368Y-101376380D01*
X199003368Y-101376380D02*
X198965272Y-101528761D01*
X198965272Y-101528761D02*
X198965272Y-101643047D01*
X198965272Y-101643047D02*
X199003368Y-101795428D01*
X199003368Y-101795428D02*
X199041463Y-101871619D01*
X199041463Y-101871619D02*
X199117653Y-101947809D01*
X199117653Y-101947809D02*
X199231939Y-101985904D01*
X199231939Y-101985904D02*
X199422415Y-101985904D01*
X198241463Y-101185904D02*
X198622415Y-101185904D01*
X198622415Y-101185904D02*
X198660511Y-101566857D01*
X198660511Y-101566857D02*
X198622415Y-101528761D01*
X198622415Y-101528761D02*
X198546225Y-101490666D01*
X198546225Y-101490666D02*
X198355749Y-101490666D01*
X198355749Y-101490666D02*
X198279558Y-101528761D01*
X198279558Y-101528761D02*
X198241463Y-101566857D01*
X198241463Y-101566857D02*
X198203368Y-101643047D01*
X198203368Y-101643047D02*
X198203368Y-101833523D01*
X198203368Y-101833523D02*
X198241463Y-101909714D01*
X198241463Y-101909714D02*
X198279558Y-101947809D01*
X198279558Y-101947809D02*
X198355749Y-101985904D01*
X198355749Y-101985904D02*
X198546225Y-101985904D01*
X198546225Y-101985904D02*
X198622415Y-101947809D01*
X198622415Y-101947809D02*
X198660511Y-101909714D01*
X197708129Y-101185904D02*
X197631939Y-101185904D01*
X197631939Y-101185904D02*
X197555748Y-101224000D01*
X197555748Y-101224000D02*
X197517653Y-101262095D01*
X197517653Y-101262095D02*
X197479558Y-101338285D01*
X197479558Y-101338285D02*
X197441463Y-101490666D01*
X197441463Y-101490666D02*
X197441463Y-101681142D01*
X197441463Y-101681142D02*
X197479558Y-101833523D01*
X197479558Y-101833523D02*
X197517653Y-101909714D01*
X197517653Y-101909714D02*
X197555748Y-101947809D01*
X197555748Y-101947809D02*
X197631939Y-101985904D01*
X197631939Y-101985904D02*
X197708129Y-101985904D01*
X197708129Y-101985904D02*
X197784320Y-101947809D01*
X197784320Y-101947809D02*
X197822415Y-101909714D01*
X197822415Y-101909714D02*
X197860510Y-101833523D01*
X197860510Y-101833523D02*
X197898606Y-101681142D01*
X197898606Y-101681142D02*
X197898606Y-101490666D01*
X197898606Y-101490666D02*
X197860510Y-101338285D01*
X197860510Y-101338285D02*
X197822415Y-101262095D01*
X197822415Y-101262095D02*
X197784320Y-101224000D01*
X197784320Y-101224000D02*
X197708129Y-101185904D01*
D11*
%TO.C,SW52*%
X236355510Y-90451761D02*
X236212653Y-90499380D01*
X236212653Y-90499380D02*
X235974558Y-90499380D01*
X235974558Y-90499380D02*
X235879320Y-90451761D01*
X235879320Y-90451761D02*
X235831701Y-90404142D01*
X235831701Y-90404142D02*
X235784082Y-90308904D01*
X235784082Y-90308904D02*
X235784082Y-90213666D01*
X235784082Y-90213666D02*
X235831701Y-90118428D01*
X235831701Y-90118428D02*
X235879320Y-90070809D01*
X235879320Y-90070809D02*
X235974558Y-90023190D01*
X235974558Y-90023190D02*
X236165034Y-89975571D01*
X236165034Y-89975571D02*
X236260272Y-89927952D01*
X236260272Y-89927952D02*
X236307891Y-89880333D01*
X236307891Y-89880333D02*
X236355510Y-89785095D01*
X236355510Y-89785095D02*
X236355510Y-89689857D01*
X236355510Y-89689857D02*
X236307891Y-89594619D01*
X236307891Y-89594619D02*
X236260272Y-89547000D01*
X236260272Y-89547000D02*
X236165034Y-89499380D01*
X236165034Y-89499380D02*
X235926939Y-89499380D01*
X235926939Y-89499380D02*
X235784082Y-89547000D01*
X235450748Y-89499380D02*
X235212653Y-90499380D01*
X235212653Y-90499380D02*
X235022177Y-89785095D01*
X235022177Y-89785095D02*
X234831701Y-90499380D01*
X234831701Y-90499380D02*
X234593606Y-89499380D01*
X233736463Y-89499380D02*
X234212653Y-89499380D01*
X234212653Y-89499380D02*
X234260272Y-89975571D01*
X234260272Y-89975571D02*
X234212653Y-89927952D01*
X234212653Y-89927952D02*
X234117415Y-89880333D01*
X234117415Y-89880333D02*
X233879320Y-89880333D01*
X233879320Y-89880333D02*
X233784082Y-89927952D01*
X233784082Y-89927952D02*
X233736463Y-89975571D01*
X233736463Y-89975571D02*
X233688844Y-90070809D01*
X233688844Y-90070809D02*
X233688844Y-90308904D01*
X233688844Y-90308904D02*
X233736463Y-90404142D01*
X233736463Y-90404142D02*
X233784082Y-90451761D01*
X233784082Y-90451761D02*
X233879320Y-90499380D01*
X233879320Y-90499380D02*
X234117415Y-90499380D01*
X234117415Y-90499380D02*
X234212653Y-90451761D01*
X234212653Y-90451761D02*
X234260272Y-90404142D01*
X233307891Y-89594619D02*
X233260272Y-89547000D01*
X233260272Y-89547000D02*
X233165034Y-89499380D01*
X233165034Y-89499380D02*
X232926939Y-89499380D01*
X232926939Y-89499380D02*
X232831701Y-89547000D01*
X232831701Y-89547000D02*
X232784082Y-89594619D01*
X232784082Y-89594619D02*
X232736463Y-89689857D01*
X232736463Y-89689857D02*
X232736463Y-89785095D01*
X232736463Y-89785095D02*
X232784082Y-89927952D01*
X232784082Y-89927952D02*
X233355510Y-90499380D01*
X233355510Y-90499380D02*
X232736463Y-90499380D01*
D12*
%TO.C,D10*%
X237557415Y-44855904D02*
X237557415Y-44055904D01*
X237557415Y-44055904D02*
X237366939Y-44055904D01*
X237366939Y-44055904D02*
X237252653Y-44094000D01*
X237252653Y-44094000D02*
X237176463Y-44170190D01*
X237176463Y-44170190D02*
X237138368Y-44246380D01*
X237138368Y-44246380D02*
X237100272Y-44398761D01*
X237100272Y-44398761D02*
X237100272Y-44513047D01*
X237100272Y-44513047D02*
X237138368Y-44665428D01*
X237138368Y-44665428D02*
X237176463Y-44741619D01*
X237176463Y-44741619D02*
X237252653Y-44817809D01*
X237252653Y-44817809D02*
X237366939Y-44855904D01*
X237366939Y-44855904D02*
X237557415Y-44855904D01*
X236338368Y-44855904D02*
X236795511Y-44855904D01*
X236566939Y-44855904D02*
X236566939Y-44055904D01*
X236566939Y-44055904D02*
X236643130Y-44170190D01*
X236643130Y-44170190D02*
X236719320Y-44246380D01*
X236719320Y-44246380D02*
X236795511Y-44284476D01*
X235843129Y-44055904D02*
X235766939Y-44055904D01*
X235766939Y-44055904D02*
X235690748Y-44094000D01*
X235690748Y-44094000D02*
X235652653Y-44132095D01*
X235652653Y-44132095D02*
X235614558Y-44208285D01*
X235614558Y-44208285D02*
X235576463Y-44360666D01*
X235576463Y-44360666D02*
X235576463Y-44551142D01*
X235576463Y-44551142D02*
X235614558Y-44703523D01*
X235614558Y-44703523D02*
X235652653Y-44779714D01*
X235652653Y-44779714D02*
X235690748Y-44817809D01*
X235690748Y-44817809D02*
X235766939Y-44855904D01*
X235766939Y-44855904D02*
X235843129Y-44855904D01*
X235843129Y-44855904D02*
X235919320Y-44817809D01*
X235919320Y-44817809D02*
X235957415Y-44779714D01*
X235957415Y-44779714D02*
X235995510Y-44703523D01*
X235995510Y-44703523D02*
X236033606Y-44551142D01*
X236033606Y-44551142D02*
X236033606Y-44360666D01*
X236033606Y-44360666D02*
X235995510Y-44208285D01*
X235995510Y-44208285D02*
X235957415Y-44132095D01*
X235957415Y-44132095D02*
X235919320Y-44094000D01*
X235919320Y-44094000D02*
X235843129Y-44055904D01*
D11*
%TO.C,SW39*%
X255455510Y-71401761D02*
X255312653Y-71449380D01*
X255312653Y-71449380D02*
X255074558Y-71449380D01*
X255074558Y-71449380D02*
X254979320Y-71401761D01*
X254979320Y-71401761D02*
X254931701Y-71354142D01*
X254931701Y-71354142D02*
X254884082Y-71258904D01*
X254884082Y-71258904D02*
X254884082Y-71163666D01*
X254884082Y-71163666D02*
X254931701Y-71068428D01*
X254931701Y-71068428D02*
X254979320Y-71020809D01*
X254979320Y-71020809D02*
X255074558Y-70973190D01*
X255074558Y-70973190D02*
X255265034Y-70925571D01*
X255265034Y-70925571D02*
X255360272Y-70877952D01*
X255360272Y-70877952D02*
X255407891Y-70830333D01*
X255407891Y-70830333D02*
X255455510Y-70735095D01*
X255455510Y-70735095D02*
X255455510Y-70639857D01*
X255455510Y-70639857D02*
X255407891Y-70544619D01*
X255407891Y-70544619D02*
X255360272Y-70497000D01*
X255360272Y-70497000D02*
X255265034Y-70449380D01*
X255265034Y-70449380D02*
X255026939Y-70449380D01*
X255026939Y-70449380D02*
X254884082Y-70497000D01*
X254550748Y-70449380D02*
X254312653Y-71449380D01*
X254312653Y-71449380D02*
X254122177Y-70735095D01*
X254122177Y-70735095D02*
X253931701Y-71449380D01*
X253931701Y-71449380D02*
X253693606Y-70449380D01*
X253407891Y-70449380D02*
X252788844Y-70449380D01*
X252788844Y-70449380D02*
X253122177Y-70830333D01*
X253122177Y-70830333D02*
X252979320Y-70830333D01*
X252979320Y-70830333D02*
X252884082Y-70877952D01*
X252884082Y-70877952D02*
X252836463Y-70925571D01*
X252836463Y-70925571D02*
X252788844Y-71020809D01*
X252788844Y-71020809D02*
X252788844Y-71258904D01*
X252788844Y-71258904D02*
X252836463Y-71354142D01*
X252836463Y-71354142D02*
X252884082Y-71401761D01*
X252884082Y-71401761D02*
X252979320Y-71449380D01*
X252979320Y-71449380D02*
X253265034Y-71449380D01*
X253265034Y-71449380D02*
X253360272Y-71401761D01*
X253360272Y-71401761D02*
X253407891Y-71354142D01*
X252312653Y-71449380D02*
X252122177Y-71449380D01*
X252122177Y-71449380D02*
X252026939Y-71401761D01*
X252026939Y-71401761D02*
X251979320Y-71354142D01*
X251979320Y-71354142D02*
X251884082Y-71211285D01*
X251884082Y-71211285D02*
X251836463Y-71020809D01*
X251836463Y-71020809D02*
X251836463Y-70639857D01*
X251836463Y-70639857D02*
X251884082Y-70544619D01*
X251884082Y-70544619D02*
X251931701Y-70497000D01*
X251931701Y-70497000D02*
X252026939Y-70449380D01*
X252026939Y-70449380D02*
X252217415Y-70449380D01*
X252217415Y-70449380D02*
X252312653Y-70497000D01*
X252312653Y-70497000D02*
X252360272Y-70544619D01*
X252360272Y-70544619D02*
X252407891Y-70639857D01*
X252407891Y-70639857D02*
X252407891Y-70877952D01*
X252407891Y-70877952D02*
X252360272Y-70973190D01*
X252360272Y-70973190D02*
X252312653Y-71020809D01*
X252312653Y-71020809D02*
X252217415Y-71068428D01*
X252217415Y-71068428D02*
X252026939Y-71068428D01*
X252026939Y-71068428D02*
X251931701Y-71020809D01*
X251931701Y-71020809D02*
X251884082Y-70973190D01*
X251884082Y-70973190D02*
X251836463Y-70877952D01*
D12*
%TO.C,D61*%
X199422415Y-121055904D02*
X199422415Y-120255904D01*
X199422415Y-120255904D02*
X199231939Y-120255904D01*
X199231939Y-120255904D02*
X199117653Y-120294000D01*
X199117653Y-120294000D02*
X199041463Y-120370190D01*
X199041463Y-120370190D02*
X199003368Y-120446380D01*
X199003368Y-120446380D02*
X198965272Y-120598761D01*
X198965272Y-120598761D02*
X198965272Y-120713047D01*
X198965272Y-120713047D02*
X199003368Y-120865428D01*
X199003368Y-120865428D02*
X199041463Y-120941619D01*
X199041463Y-120941619D02*
X199117653Y-121017809D01*
X199117653Y-121017809D02*
X199231939Y-121055904D01*
X199231939Y-121055904D02*
X199422415Y-121055904D01*
X198279558Y-120255904D02*
X198431939Y-120255904D01*
X198431939Y-120255904D02*
X198508130Y-120294000D01*
X198508130Y-120294000D02*
X198546225Y-120332095D01*
X198546225Y-120332095D02*
X198622415Y-120446380D01*
X198622415Y-120446380D02*
X198660511Y-120598761D01*
X198660511Y-120598761D02*
X198660511Y-120903523D01*
X198660511Y-120903523D02*
X198622415Y-120979714D01*
X198622415Y-120979714D02*
X198584320Y-121017809D01*
X198584320Y-121017809D02*
X198508130Y-121055904D01*
X198508130Y-121055904D02*
X198355749Y-121055904D01*
X198355749Y-121055904D02*
X198279558Y-121017809D01*
X198279558Y-121017809D02*
X198241463Y-120979714D01*
X198241463Y-120979714D02*
X198203368Y-120903523D01*
X198203368Y-120903523D02*
X198203368Y-120713047D01*
X198203368Y-120713047D02*
X198241463Y-120636857D01*
X198241463Y-120636857D02*
X198279558Y-120598761D01*
X198279558Y-120598761D02*
X198355749Y-120560666D01*
X198355749Y-120560666D02*
X198508130Y-120560666D01*
X198508130Y-120560666D02*
X198584320Y-120598761D01*
X198584320Y-120598761D02*
X198622415Y-120636857D01*
X198622415Y-120636857D02*
X198660511Y-120713047D01*
X197441463Y-121055904D02*
X197898606Y-121055904D01*
X197670034Y-121055904D02*
X197670034Y-120255904D01*
X197670034Y-120255904D02*
X197746225Y-120370190D01*
X197746225Y-120370190D02*
X197822415Y-120446380D01*
X197822415Y-120446380D02*
X197898606Y-120484476D01*
D11*
%TO.C,SW55*%
X293455510Y-90451761D02*
X293312653Y-90499380D01*
X293312653Y-90499380D02*
X293074558Y-90499380D01*
X293074558Y-90499380D02*
X292979320Y-90451761D01*
X292979320Y-90451761D02*
X292931701Y-90404142D01*
X292931701Y-90404142D02*
X292884082Y-90308904D01*
X292884082Y-90308904D02*
X292884082Y-90213666D01*
X292884082Y-90213666D02*
X292931701Y-90118428D01*
X292931701Y-90118428D02*
X292979320Y-90070809D01*
X292979320Y-90070809D02*
X293074558Y-90023190D01*
X293074558Y-90023190D02*
X293265034Y-89975571D01*
X293265034Y-89975571D02*
X293360272Y-89927952D01*
X293360272Y-89927952D02*
X293407891Y-89880333D01*
X293407891Y-89880333D02*
X293455510Y-89785095D01*
X293455510Y-89785095D02*
X293455510Y-89689857D01*
X293455510Y-89689857D02*
X293407891Y-89594619D01*
X293407891Y-89594619D02*
X293360272Y-89547000D01*
X293360272Y-89547000D02*
X293265034Y-89499380D01*
X293265034Y-89499380D02*
X293026939Y-89499380D01*
X293026939Y-89499380D02*
X292884082Y-89547000D01*
X292550748Y-89499380D02*
X292312653Y-90499380D01*
X292312653Y-90499380D02*
X292122177Y-89785095D01*
X292122177Y-89785095D02*
X291931701Y-90499380D01*
X291931701Y-90499380D02*
X291693606Y-89499380D01*
X290836463Y-89499380D02*
X291312653Y-89499380D01*
X291312653Y-89499380D02*
X291360272Y-89975571D01*
X291360272Y-89975571D02*
X291312653Y-89927952D01*
X291312653Y-89927952D02*
X291217415Y-89880333D01*
X291217415Y-89880333D02*
X290979320Y-89880333D01*
X290979320Y-89880333D02*
X290884082Y-89927952D01*
X290884082Y-89927952D02*
X290836463Y-89975571D01*
X290836463Y-89975571D02*
X290788844Y-90070809D01*
X290788844Y-90070809D02*
X290788844Y-90308904D01*
X290788844Y-90308904D02*
X290836463Y-90404142D01*
X290836463Y-90404142D02*
X290884082Y-90451761D01*
X290884082Y-90451761D02*
X290979320Y-90499380D01*
X290979320Y-90499380D02*
X291217415Y-90499380D01*
X291217415Y-90499380D02*
X291312653Y-90451761D01*
X291312653Y-90451761D02*
X291360272Y-90404142D01*
X289884082Y-89499380D02*
X290360272Y-89499380D01*
X290360272Y-89499380D02*
X290407891Y-89975571D01*
X290407891Y-89975571D02*
X290360272Y-89927952D01*
X290360272Y-89927952D02*
X290265034Y-89880333D01*
X290265034Y-89880333D02*
X290026939Y-89880333D01*
X290026939Y-89880333D02*
X289931701Y-89927952D01*
X289931701Y-89927952D02*
X289884082Y-89975571D01*
X289884082Y-89975571D02*
X289836463Y-90070809D01*
X289836463Y-90070809D02*
X289836463Y-90308904D01*
X289836463Y-90308904D02*
X289884082Y-90404142D01*
X289884082Y-90404142D02*
X289931701Y-90451761D01*
X289931701Y-90451761D02*
X290026939Y-90499380D01*
X290026939Y-90499380D02*
X290265034Y-90499380D01*
X290265034Y-90499380D02*
X290360272Y-90451761D01*
X290360272Y-90451761D02*
X290407891Y-90404142D01*
%TO.C,SW24*%
X236355510Y-52351761D02*
X236212653Y-52399380D01*
X236212653Y-52399380D02*
X235974558Y-52399380D01*
X235974558Y-52399380D02*
X235879320Y-52351761D01*
X235879320Y-52351761D02*
X235831701Y-52304142D01*
X235831701Y-52304142D02*
X235784082Y-52208904D01*
X235784082Y-52208904D02*
X235784082Y-52113666D01*
X235784082Y-52113666D02*
X235831701Y-52018428D01*
X235831701Y-52018428D02*
X235879320Y-51970809D01*
X235879320Y-51970809D02*
X235974558Y-51923190D01*
X235974558Y-51923190D02*
X236165034Y-51875571D01*
X236165034Y-51875571D02*
X236260272Y-51827952D01*
X236260272Y-51827952D02*
X236307891Y-51780333D01*
X236307891Y-51780333D02*
X236355510Y-51685095D01*
X236355510Y-51685095D02*
X236355510Y-51589857D01*
X236355510Y-51589857D02*
X236307891Y-51494619D01*
X236307891Y-51494619D02*
X236260272Y-51447000D01*
X236260272Y-51447000D02*
X236165034Y-51399380D01*
X236165034Y-51399380D02*
X235926939Y-51399380D01*
X235926939Y-51399380D02*
X235784082Y-51447000D01*
X235450748Y-51399380D02*
X235212653Y-52399380D01*
X235212653Y-52399380D02*
X235022177Y-51685095D01*
X235022177Y-51685095D02*
X234831701Y-52399380D01*
X234831701Y-52399380D02*
X234593606Y-51399380D01*
X234260272Y-51494619D02*
X234212653Y-51447000D01*
X234212653Y-51447000D02*
X234117415Y-51399380D01*
X234117415Y-51399380D02*
X233879320Y-51399380D01*
X233879320Y-51399380D02*
X233784082Y-51447000D01*
X233784082Y-51447000D02*
X233736463Y-51494619D01*
X233736463Y-51494619D02*
X233688844Y-51589857D01*
X233688844Y-51589857D02*
X233688844Y-51685095D01*
X233688844Y-51685095D02*
X233736463Y-51827952D01*
X233736463Y-51827952D02*
X234307891Y-52399380D01*
X234307891Y-52399380D02*
X233688844Y-52399380D01*
X232831701Y-51732714D02*
X232831701Y-52399380D01*
X233069796Y-51351761D02*
X233307891Y-52066047D01*
X233307891Y-52066047D02*
X232688844Y-52066047D01*
D12*
%TO.C,D51*%
X218472415Y-101985904D02*
X218472415Y-101185904D01*
X218472415Y-101185904D02*
X218281939Y-101185904D01*
X218281939Y-101185904D02*
X218167653Y-101224000D01*
X218167653Y-101224000D02*
X218091463Y-101300190D01*
X218091463Y-101300190D02*
X218053368Y-101376380D01*
X218053368Y-101376380D02*
X218015272Y-101528761D01*
X218015272Y-101528761D02*
X218015272Y-101643047D01*
X218015272Y-101643047D02*
X218053368Y-101795428D01*
X218053368Y-101795428D02*
X218091463Y-101871619D01*
X218091463Y-101871619D02*
X218167653Y-101947809D01*
X218167653Y-101947809D02*
X218281939Y-101985904D01*
X218281939Y-101985904D02*
X218472415Y-101985904D01*
X217291463Y-101185904D02*
X217672415Y-101185904D01*
X217672415Y-101185904D02*
X217710511Y-101566857D01*
X217710511Y-101566857D02*
X217672415Y-101528761D01*
X217672415Y-101528761D02*
X217596225Y-101490666D01*
X217596225Y-101490666D02*
X217405749Y-101490666D01*
X217405749Y-101490666D02*
X217329558Y-101528761D01*
X217329558Y-101528761D02*
X217291463Y-101566857D01*
X217291463Y-101566857D02*
X217253368Y-101643047D01*
X217253368Y-101643047D02*
X217253368Y-101833523D01*
X217253368Y-101833523D02*
X217291463Y-101909714D01*
X217291463Y-101909714D02*
X217329558Y-101947809D01*
X217329558Y-101947809D02*
X217405749Y-101985904D01*
X217405749Y-101985904D02*
X217596225Y-101985904D01*
X217596225Y-101985904D02*
X217672415Y-101947809D01*
X217672415Y-101947809D02*
X217710511Y-101909714D01*
X216491463Y-101985904D02*
X216948606Y-101985904D01*
X216720034Y-101985904D02*
X216720034Y-101185904D01*
X216720034Y-101185904D02*
X216796225Y-101300190D01*
X216796225Y-101300190D02*
X216872415Y-101376380D01*
X216872415Y-101376380D02*
X216948606Y-101414476D01*
D11*
%TO.C,SW25*%
X255455510Y-52351761D02*
X255312653Y-52399380D01*
X255312653Y-52399380D02*
X255074558Y-52399380D01*
X255074558Y-52399380D02*
X254979320Y-52351761D01*
X254979320Y-52351761D02*
X254931701Y-52304142D01*
X254931701Y-52304142D02*
X254884082Y-52208904D01*
X254884082Y-52208904D02*
X254884082Y-52113666D01*
X254884082Y-52113666D02*
X254931701Y-52018428D01*
X254931701Y-52018428D02*
X254979320Y-51970809D01*
X254979320Y-51970809D02*
X255074558Y-51923190D01*
X255074558Y-51923190D02*
X255265034Y-51875571D01*
X255265034Y-51875571D02*
X255360272Y-51827952D01*
X255360272Y-51827952D02*
X255407891Y-51780333D01*
X255407891Y-51780333D02*
X255455510Y-51685095D01*
X255455510Y-51685095D02*
X255455510Y-51589857D01*
X255455510Y-51589857D02*
X255407891Y-51494619D01*
X255407891Y-51494619D02*
X255360272Y-51447000D01*
X255360272Y-51447000D02*
X255265034Y-51399380D01*
X255265034Y-51399380D02*
X255026939Y-51399380D01*
X255026939Y-51399380D02*
X254884082Y-51447000D01*
X254550748Y-51399380D02*
X254312653Y-52399380D01*
X254312653Y-52399380D02*
X254122177Y-51685095D01*
X254122177Y-51685095D02*
X253931701Y-52399380D01*
X253931701Y-52399380D02*
X253693606Y-51399380D01*
X253360272Y-51494619D02*
X253312653Y-51447000D01*
X253312653Y-51447000D02*
X253217415Y-51399380D01*
X253217415Y-51399380D02*
X252979320Y-51399380D01*
X252979320Y-51399380D02*
X252884082Y-51447000D01*
X252884082Y-51447000D02*
X252836463Y-51494619D01*
X252836463Y-51494619D02*
X252788844Y-51589857D01*
X252788844Y-51589857D02*
X252788844Y-51685095D01*
X252788844Y-51685095D02*
X252836463Y-51827952D01*
X252836463Y-51827952D02*
X253407891Y-52399380D01*
X253407891Y-52399380D02*
X252788844Y-52399380D01*
X251884082Y-51399380D02*
X252360272Y-51399380D01*
X252360272Y-51399380D02*
X252407891Y-51875571D01*
X252407891Y-51875571D02*
X252360272Y-51827952D01*
X252360272Y-51827952D02*
X252265034Y-51780333D01*
X252265034Y-51780333D02*
X252026939Y-51780333D01*
X252026939Y-51780333D02*
X251931701Y-51827952D01*
X251931701Y-51827952D02*
X251884082Y-51875571D01*
X251884082Y-51875571D02*
X251836463Y-51970809D01*
X251836463Y-51970809D02*
X251836463Y-52208904D01*
X251836463Y-52208904D02*
X251884082Y-52304142D01*
X251884082Y-52304142D02*
X251931701Y-52351761D01*
X251931701Y-52351761D02*
X252026939Y-52399380D01*
X252026939Y-52399380D02*
X252265034Y-52399380D01*
X252265034Y-52399380D02*
X252360272Y-52351761D01*
X252360272Y-52351761D02*
X252407891Y-52304142D01*
%TO.C,J2*%
X208736454Y-26287380D02*
X208165026Y-26287380D01*
X208450740Y-27287380D02*
X208450740Y-26287380D01*
X207260264Y-27287380D02*
X207593597Y-26811190D01*
X207831692Y-27287380D02*
X207831692Y-26287380D01*
X207831692Y-26287380D02*
X207450740Y-26287380D01*
X207450740Y-26287380D02*
X207355502Y-26335000D01*
X207355502Y-26335000D02*
X207307883Y-26382619D01*
X207307883Y-26382619D02*
X207260264Y-26477857D01*
X207260264Y-26477857D02*
X207260264Y-26620714D01*
X207260264Y-26620714D02*
X207307883Y-26715952D01*
X207307883Y-26715952D02*
X207355502Y-26763571D01*
X207355502Y-26763571D02*
X207450740Y-26811190D01*
X207450740Y-26811190D02*
X207831692Y-26811190D01*
X206260264Y-27287380D02*
X206593597Y-26811190D01*
X206831692Y-27287380D02*
X206831692Y-26287380D01*
X206831692Y-26287380D02*
X206450740Y-26287380D01*
X206450740Y-26287380D02*
X206355502Y-26335000D01*
X206355502Y-26335000D02*
X206307883Y-26382619D01*
X206307883Y-26382619D02*
X206260264Y-26477857D01*
X206260264Y-26477857D02*
X206260264Y-26620714D01*
X206260264Y-26620714D02*
X206307883Y-26715952D01*
X206307883Y-26715952D02*
X206355502Y-26763571D01*
X206355502Y-26763571D02*
X206450740Y-26811190D01*
X206450740Y-26811190D02*
X206831692Y-26811190D01*
X205879311Y-27239761D02*
X205736454Y-27287380D01*
X205736454Y-27287380D02*
X205498359Y-27287380D01*
X205498359Y-27287380D02*
X205403121Y-27239761D01*
X205403121Y-27239761D02*
X205355502Y-27192142D01*
X205355502Y-27192142D02*
X205307883Y-27096904D01*
X205307883Y-27096904D02*
X205307883Y-27001666D01*
X205307883Y-27001666D02*
X205355502Y-26906428D01*
X205355502Y-26906428D02*
X205403121Y-26858809D01*
X205403121Y-26858809D02*
X205498359Y-26811190D01*
X205498359Y-26811190D02*
X205688835Y-26763571D01*
X205688835Y-26763571D02*
X205784073Y-26715952D01*
X205784073Y-26715952D02*
X205831692Y-26668333D01*
X205831692Y-26668333D02*
X205879311Y-26573095D01*
X205879311Y-26573095D02*
X205879311Y-26477857D01*
X205879311Y-26477857D02*
X205831692Y-26382619D01*
X205831692Y-26382619D02*
X205784073Y-26335000D01*
X205784073Y-26335000D02*
X205688835Y-26287380D01*
X205688835Y-26287380D02*
X205450740Y-26287380D01*
X205450740Y-26287380D02*
X205307883Y-26335000D01*
D12*
%TO.C,D24*%
X237557415Y-64275904D02*
X237557415Y-63475904D01*
X237557415Y-63475904D02*
X237366939Y-63475904D01*
X237366939Y-63475904D02*
X237252653Y-63514000D01*
X237252653Y-63514000D02*
X237176463Y-63590190D01*
X237176463Y-63590190D02*
X237138368Y-63666380D01*
X237138368Y-63666380D02*
X237100272Y-63818761D01*
X237100272Y-63818761D02*
X237100272Y-63933047D01*
X237100272Y-63933047D02*
X237138368Y-64085428D01*
X237138368Y-64085428D02*
X237176463Y-64161619D01*
X237176463Y-64161619D02*
X237252653Y-64237809D01*
X237252653Y-64237809D02*
X237366939Y-64275904D01*
X237366939Y-64275904D02*
X237557415Y-64275904D01*
X236795511Y-63552095D02*
X236757415Y-63514000D01*
X236757415Y-63514000D02*
X236681225Y-63475904D01*
X236681225Y-63475904D02*
X236490749Y-63475904D01*
X236490749Y-63475904D02*
X236414558Y-63514000D01*
X236414558Y-63514000D02*
X236376463Y-63552095D01*
X236376463Y-63552095D02*
X236338368Y-63628285D01*
X236338368Y-63628285D02*
X236338368Y-63704476D01*
X236338368Y-63704476D02*
X236376463Y-63818761D01*
X236376463Y-63818761D02*
X236833606Y-64275904D01*
X236833606Y-64275904D02*
X236338368Y-64275904D01*
X235652653Y-63742571D02*
X235652653Y-64275904D01*
X235843129Y-63437809D02*
X236033606Y-64009238D01*
X236033606Y-64009238D02*
X235538367Y-64009238D01*
%TO.C,D25*%
X256672415Y-64175904D02*
X256672415Y-63375904D01*
X256672415Y-63375904D02*
X256481939Y-63375904D01*
X256481939Y-63375904D02*
X256367653Y-63414000D01*
X256367653Y-63414000D02*
X256291463Y-63490190D01*
X256291463Y-63490190D02*
X256253368Y-63566380D01*
X256253368Y-63566380D02*
X256215272Y-63718761D01*
X256215272Y-63718761D02*
X256215272Y-63833047D01*
X256215272Y-63833047D02*
X256253368Y-63985428D01*
X256253368Y-63985428D02*
X256291463Y-64061619D01*
X256291463Y-64061619D02*
X256367653Y-64137809D01*
X256367653Y-64137809D02*
X256481939Y-64175904D01*
X256481939Y-64175904D02*
X256672415Y-64175904D01*
X255910511Y-63452095D02*
X255872415Y-63414000D01*
X255872415Y-63414000D02*
X255796225Y-63375904D01*
X255796225Y-63375904D02*
X255605749Y-63375904D01*
X255605749Y-63375904D02*
X255529558Y-63414000D01*
X255529558Y-63414000D02*
X255491463Y-63452095D01*
X255491463Y-63452095D02*
X255453368Y-63528285D01*
X255453368Y-63528285D02*
X255453368Y-63604476D01*
X255453368Y-63604476D02*
X255491463Y-63718761D01*
X255491463Y-63718761D02*
X255948606Y-64175904D01*
X255948606Y-64175904D02*
X255453368Y-64175904D01*
X254729558Y-63375904D02*
X255110510Y-63375904D01*
X255110510Y-63375904D02*
X255148606Y-63756857D01*
X255148606Y-63756857D02*
X255110510Y-63718761D01*
X255110510Y-63718761D02*
X255034320Y-63680666D01*
X255034320Y-63680666D02*
X254843844Y-63680666D01*
X254843844Y-63680666D02*
X254767653Y-63718761D01*
X254767653Y-63718761D02*
X254729558Y-63756857D01*
X254729558Y-63756857D02*
X254691463Y-63833047D01*
X254691463Y-63833047D02*
X254691463Y-64023523D01*
X254691463Y-64023523D02*
X254729558Y-64099714D01*
X254729558Y-64099714D02*
X254767653Y-64137809D01*
X254767653Y-64137809D02*
X254843844Y-64175904D01*
X254843844Y-64175904D02*
X255034320Y-64175904D01*
X255034320Y-64175904D02*
X255110510Y-64137809D01*
X255110510Y-64137809D02*
X255148606Y-64099714D01*
D11*
%TO.C,SW10*%
X236355510Y-33301761D02*
X236212653Y-33349380D01*
X236212653Y-33349380D02*
X235974558Y-33349380D01*
X235974558Y-33349380D02*
X235879320Y-33301761D01*
X235879320Y-33301761D02*
X235831701Y-33254142D01*
X235831701Y-33254142D02*
X235784082Y-33158904D01*
X235784082Y-33158904D02*
X235784082Y-33063666D01*
X235784082Y-33063666D02*
X235831701Y-32968428D01*
X235831701Y-32968428D02*
X235879320Y-32920809D01*
X235879320Y-32920809D02*
X235974558Y-32873190D01*
X235974558Y-32873190D02*
X236165034Y-32825571D01*
X236165034Y-32825571D02*
X236260272Y-32777952D01*
X236260272Y-32777952D02*
X236307891Y-32730333D01*
X236307891Y-32730333D02*
X236355510Y-32635095D01*
X236355510Y-32635095D02*
X236355510Y-32539857D01*
X236355510Y-32539857D02*
X236307891Y-32444619D01*
X236307891Y-32444619D02*
X236260272Y-32397000D01*
X236260272Y-32397000D02*
X236165034Y-32349380D01*
X236165034Y-32349380D02*
X235926939Y-32349380D01*
X235926939Y-32349380D02*
X235784082Y-32397000D01*
X235450748Y-32349380D02*
X235212653Y-33349380D01*
X235212653Y-33349380D02*
X235022177Y-32635095D01*
X235022177Y-32635095D02*
X234831701Y-33349380D01*
X234831701Y-33349380D02*
X234593606Y-32349380D01*
X233688844Y-33349380D02*
X234260272Y-33349380D01*
X233974558Y-33349380D02*
X233974558Y-32349380D01*
X233974558Y-32349380D02*
X234069796Y-32492238D01*
X234069796Y-32492238D02*
X234165034Y-32587476D01*
X234165034Y-32587476D02*
X234260272Y-32635095D01*
X233069796Y-32349380D02*
X232974558Y-32349380D01*
X232974558Y-32349380D02*
X232879320Y-32397000D01*
X232879320Y-32397000D02*
X232831701Y-32444619D01*
X232831701Y-32444619D02*
X232784082Y-32539857D01*
X232784082Y-32539857D02*
X232736463Y-32730333D01*
X232736463Y-32730333D02*
X232736463Y-32968428D01*
X232736463Y-32968428D02*
X232784082Y-33158904D01*
X232784082Y-33158904D02*
X232831701Y-33254142D01*
X232831701Y-33254142D02*
X232879320Y-33301761D01*
X232879320Y-33301761D02*
X232974558Y-33349380D01*
X232974558Y-33349380D02*
X233069796Y-33349380D01*
X233069796Y-33349380D02*
X233165034Y-33301761D01*
X233165034Y-33301761D02*
X233212653Y-33254142D01*
X233212653Y-33254142D02*
X233260272Y-33158904D01*
X233260272Y-33158904D02*
X233307891Y-32968428D01*
X233307891Y-32968428D02*
X233307891Y-32730333D01*
X233307891Y-32730333D02*
X233260272Y-32539857D01*
X233260272Y-32539857D02*
X233212653Y-32444619D01*
X233212653Y-32444619D02*
X233165034Y-32397000D01*
X233165034Y-32397000D02*
X233069796Y-32349380D01*
D12*
%TO.C,D8*%
X199041462Y-44855904D02*
X199041462Y-44055904D01*
X199041462Y-44055904D02*
X198850986Y-44055904D01*
X198850986Y-44055904D02*
X198736700Y-44094000D01*
X198736700Y-44094000D02*
X198660510Y-44170190D01*
X198660510Y-44170190D02*
X198622415Y-44246380D01*
X198622415Y-44246380D02*
X198584319Y-44398761D01*
X198584319Y-44398761D02*
X198584319Y-44513047D01*
X198584319Y-44513047D02*
X198622415Y-44665428D01*
X198622415Y-44665428D02*
X198660510Y-44741619D01*
X198660510Y-44741619D02*
X198736700Y-44817809D01*
X198736700Y-44817809D02*
X198850986Y-44855904D01*
X198850986Y-44855904D02*
X199041462Y-44855904D01*
X198127177Y-44398761D02*
X198203367Y-44360666D01*
X198203367Y-44360666D02*
X198241462Y-44322571D01*
X198241462Y-44322571D02*
X198279558Y-44246380D01*
X198279558Y-44246380D02*
X198279558Y-44208285D01*
X198279558Y-44208285D02*
X198241462Y-44132095D01*
X198241462Y-44132095D02*
X198203367Y-44094000D01*
X198203367Y-44094000D02*
X198127177Y-44055904D01*
X198127177Y-44055904D02*
X197974796Y-44055904D01*
X197974796Y-44055904D02*
X197898605Y-44094000D01*
X197898605Y-44094000D02*
X197860510Y-44132095D01*
X197860510Y-44132095D02*
X197822415Y-44208285D01*
X197822415Y-44208285D02*
X197822415Y-44246380D01*
X197822415Y-44246380D02*
X197860510Y-44322571D01*
X197860510Y-44322571D02*
X197898605Y-44360666D01*
X197898605Y-44360666D02*
X197974796Y-44398761D01*
X197974796Y-44398761D02*
X198127177Y-44398761D01*
X198127177Y-44398761D02*
X198203367Y-44436857D01*
X198203367Y-44436857D02*
X198241462Y-44474952D01*
X198241462Y-44474952D02*
X198279558Y-44551142D01*
X198279558Y-44551142D02*
X198279558Y-44703523D01*
X198279558Y-44703523D02*
X198241462Y-44779714D01*
X198241462Y-44779714D02*
X198203367Y-44817809D01*
X198203367Y-44817809D02*
X198127177Y-44855904D01*
X198127177Y-44855904D02*
X197974796Y-44855904D01*
X197974796Y-44855904D02*
X197898605Y-44817809D01*
X197898605Y-44817809D02*
X197860510Y-44779714D01*
X197860510Y-44779714D02*
X197822415Y-44703523D01*
X197822415Y-44703523D02*
X197822415Y-44551142D01*
X197822415Y-44551142D02*
X197860510Y-44474952D01*
X197860510Y-44474952D02*
X197898605Y-44436857D01*
X197898605Y-44436857D02*
X197974796Y-44398761D01*
D11*
%TO.C,SW64*%
X255455510Y-109501761D02*
X255312653Y-109549380D01*
X255312653Y-109549380D02*
X255074558Y-109549380D01*
X255074558Y-109549380D02*
X254979320Y-109501761D01*
X254979320Y-109501761D02*
X254931701Y-109454142D01*
X254931701Y-109454142D02*
X254884082Y-109358904D01*
X254884082Y-109358904D02*
X254884082Y-109263666D01*
X254884082Y-109263666D02*
X254931701Y-109168428D01*
X254931701Y-109168428D02*
X254979320Y-109120809D01*
X254979320Y-109120809D02*
X255074558Y-109073190D01*
X255074558Y-109073190D02*
X255265034Y-109025571D01*
X255265034Y-109025571D02*
X255360272Y-108977952D01*
X255360272Y-108977952D02*
X255407891Y-108930333D01*
X255407891Y-108930333D02*
X255455510Y-108835095D01*
X255455510Y-108835095D02*
X255455510Y-108739857D01*
X255455510Y-108739857D02*
X255407891Y-108644619D01*
X255407891Y-108644619D02*
X255360272Y-108597000D01*
X255360272Y-108597000D02*
X255265034Y-108549380D01*
X255265034Y-108549380D02*
X255026939Y-108549380D01*
X255026939Y-108549380D02*
X254884082Y-108597000D01*
X254550748Y-108549380D02*
X254312653Y-109549380D01*
X254312653Y-109549380D02*
X254122177Y-108835095D01*
X254122177Y-108835095D02*
X253931701Y-109549380D01*
X253931701Y-109549380D02*
X253693606Y-108549380D01*
X252884082Y-108549380D02*
X253074558Y-108549380D01*
X253074558Y-108549380D02*
X253169796Y-108597000D01*
X253169796Y-108597000D02*
X253217415Y-108644619D01*
X253217415Y-108644619D02*
X253312653Y-108787476D01*
X253312653Y-108787476D02*
X253360272Y-108977952D01*
X253360272Y-108977952D02*
X253360272Y-109358904D01*
X253360272Y-109358904D02*
X253312653Y-109454142D01*
X253312653Y-109454142D02*
X253265034Y-109501761D01*
X253265034Y-109501761D02*
X253169796Y-109549380D01*
X253169796Y-109549380D02*
X252979320Y-109549380D01*
X252979320Y-109549380D02*
X252884082Y-109501761D01*
X252884082Y-109501761D02*
X252836463Y-109454142D01*
X252836463Y-109454142D02*
X252788844Y-109358904D01*
X252788844Y-109358904D02*
X252788844Y-109120809D01*
X252788844Y-109120809D02*
X252836463Y-109025571D01*
X252836463Y-109025571D02*
X252884082Y-108977952D01*
X252884082Y-108977952D02*
X252979320Y-108930333D01*
X252979320Y-108930333D02*
X253169796Y-108930333D01*
X253169796Y-108930333D02*
X253265034Y-108977952D01*
X253265034Y-108977952D02*
X253312653Y-109025571D01*
X253312653Y-109025571D02*
X253360272Y-109120809D01*
X251931701Y-108882714D02*
X251931701Y-109549380D01*
X252169796Y-108501761D02*
X252407891Y-109216047D01*
X252407891Y-109216047D02*
X251788844Y-109216047D01*
D12*
%TO.C,D37*%
X218472415Y-83305904D02*
X218472415Y-82505904D01*
X218472415Y-82505904D02*
X218281939Y-82505904D01*
X218281939Y-82505904D02*
X218167653Y-82544000D01*
X218167653Y-82544000D02*
X218091463Y-82620190D01*
X218091463Y-82620190D02*
X218053368Y-82696380D01*
X218053368Y-82696380D02*
X218015272Y-82848761D01*
X218015272Y-82848761D02*
X218015272Y-82963047D01*
X218015272Y-82963047D02*
X218053368Y-83115428D01*
X218053368Y-83115428D02*
X218091463Y-83191619D01*
X218091463Y-83191619D02*
X218167653Y-83267809D01*
X218167653Y-83267809D02*
X218281939Y-83305904D01*
X218281939Y-83305904D02*
X218472415Y-83305904D01*
X217748606Y-82505904D02*
X217253368Y-82505904D01*
X217253368Y-82505904D02*
X217520034Y-82810666D01*
X217520034Y-82810666D02*
X217405749Y-82810666D01*
X217405749Y-82810666D02*
X217329558Y-82848761D01*
X217329558Y-82848761D02*
X217291463Y-82886857D01*
X217291463Y-82886857D02*
X217253368Y-82963047D01*
X217253368Y-82963047D02*
X217253368Y-83153523D01*
X217253368Y-83153523D02*
X217291463Y-83229714D01*
X217291463Y-83229714D02*
X217329558Y-83267809D01*
X217329558Y-83267809D02*
X217405749Y-83305904D01*
X217405749Y-83305904D02*
X217634320Y-83305904D01*
X217634320Y-83305904D02*
X217710511Y-83267809D01*
X217710511Y-83267809D02*
X217748606Y-83229714D01*
X216986701Y-82505904D02*
X216453367Y-82505904D01*
X216453367Y-82505904D02*
X216796225Y-83305904D01*
%TO.C,D12*%
X275697415Y-44855904D02*
X275697415Y-44055904D01*
X275697415Y-44055904D02*
X275506939Y-44055904D01*
X275506939Y-44055904D02*
X275392653Y-44094000D01*
X275392653Y-44094000D02*
X275316463Y-44170190D01*
X275316463Y-44170190D02*
X275278368Y-44246380D01*
X275278368Y-44246380D02*
X275240272Y-44398761D01*
X275240272Y-44398761D02*
X275240272Y-44513047D01*
X275240272Y-44513047D02*
X275278368Y-44665428D01*
X275278368Y-44665428D02*
X275316463Y-44741619D01*
X275316463Y-44741619D02*
X275392653Y-44817809D01*
X275392653Y-44817809D02*
X275506939Y-44855904D01*
X275506939Y-44855904D02*
X275697415Y-44855904D01*
X274478368Y-44855904D02*
X274935511Y-44855904D01*
X274706939Y-44855904D02*
X274706939Y-44055904D01*
X274706939Y-44055904D02*
X274783130Y-44170190D01*
X274783130Y-44170190D02*
X274859320Y-44246380D01*
X274859320Y-44246380D02*
X274935511Y-44284476D01*
X274173606Y-44132095D02*
X274135510Y-44094000D01*
X274135510Y-44094000D02*
X274059320Y-44055904D01*
X274059320Y-44055904D02*
X273868844Y-44055904D01*
X273868844Y-44055904D02*
X273792653Y-44094000D01*
X273792653Y-44094000D02*
X273754558Y-44132095D01*
X273754558Y-44132095D02*
X273716463Y-44208285D01*
X273716463Y-44208285D02*
X273716463Y-44284476D01*
X273716463Y-44284476D02*
X273754558Y-44398761D01*
X273754558Y-44398761D02*
X274211701Y-44855904D01*
X274211701Y-44855904D02*
X273716463Y-44855904D01*
D11*
%TO.C,SW41*%
X293455510Y-71401761D02*
X293312653Y-71449380D01*
X293312653Y-71449380D02*
X293074558Y-71449380D01*
X293074558Y-71449380D02*
X292979320Y-71401761D01*
X292979320Y-71401761D02*
X292931701Y-71354142D01*
X292931701Y-71354142D02*
X292884082Y-71258904D01*
X292884082Y-71258904D02*
X292884082Y-71163666D01*
X292884082Y-71163666D02*
X292931701Y-71068428D01*
X292931701Y-71068428D02*
X292979320Y-71020809D01*
X292979320Y-71020809D02*
X293074558Y-70973190D01*
X293074558Y-70973190D02*
X293265034Y-70925571D01*
X293265034Y-70925571D02*
X293360272Y-70877952D01*
X293360272Y-70877952D02*
X293407891Y-70830333D01*
X293407891Y-70830333D02*
X293455510Y-70735095D01*
X293455510Y-70735095D02*
X293455510Y-70639857D01*
X293455510Y-70639857D02*
X293407891Y-70544619D01*
X293407891Y-70544619D02*
X293360272Y-70497000D01*
X293360272Y-70497000D02*
X293265034Y-70449380D01*
X293265034Y-70449380D02*
X293026939Y-70449380D01*
X293026939Y-70449380D02*
X292884082Y-70497000D01*
X292550748Y-70449380D02*
X292312653Y-71449380D01*
X292312653Y-71449380D02*
X292122177Y-70735095D01*
X292122177Y-70735095D02*
X291931701Y-71449380D01*
X291931701Y-71449380D02*
X291693606Y-70449380D01*
X290884082Y-70782714D02*
X290884082Y-71449380D01*
X291122177Y-70401761D02*
X291360272Y-71116047D01*
X291360272Y-71116047D02*
X290741225Y-71116047D01*
X289836463Y-71449380D02*
X290407891Y-71449380D01*
X290122177Y-71449380D02*
X290122177Y-70449380D01*
X290122177Y-70449380D02*
X290217415Y-70592238D01*
X290217415Y-70592238D02*
X290312653Y-70687476D01*
X290312653Y-70687476D02*
X290407891Y-70735095D01*
%TO.C,SW42*%
X312555510Y-71401761D02*
X312412653Y-71449380D01*
X312412653Y-71449380D02*
X312174558Y-71449380D01*
X312174558Y-71449380D02*
X312079320Y-71401761D01*
X312079320Y-71401761D02*
X312031701Y-71354142D01*
X312031701Y-71354142D02*
X311984082Y-71258904D01*
X311984082Y-71258904D02*
X311984082Y-71163666D01*
X311984082Y-71163666D02*
X312031701Y-71068428D01*
X312031701Y-71068428D02*
X312079320Y-71020809D01*
X312079320Y-71020809D02*
X312174558Y-70973190D01*
X312174558Y-70973190D02*
X312365034Y-70925571D01*
X312365034Y-70925571D02*
X312460272Y-70877952D01*
X312460272Y-70877952D02*
X312507891Y-70830333D01*
X312507891Y-70830333D02*
X312555510Y-70735095D01*
X312555510Y-70735095D02*
X312555510Y-70639857D01*
X312555510Y-70639857D02*
X312507891Y-70544619D01*
X312507891Y-70544619D02*
X312460272Y-70497000D01*
X312460272Y-70497000D02*
X312365034Y-70449380D01*
X312365034Y-70449380D02*
X312126939Y-70449380D01*
X312126939Y-70449380D02*
X311984082Y-70497000D01*
X311650748Y-70449380D02*
X311412653Y-71449380D01*
X311412653Y-71449380D02*
X311222177Y-70735095D01*
X311222177Y-70735095D02*
X311031701Y-71449380D01*
X311031701Y-71449380D02*
X310793606Y-70449380D01*
X309984082Y-70782714D02*
X309984082Y-71449380D01*
X310222177Y-70401761D02*
X310460272Y-71116047D01*
X310460272Y-71116047D02*
X309841225Y-71116047D01*
X309507891Y-70544619D02*
X309460272Y-70497000D01*
X309460272Y-70497000D02*
X309365034Y-70449380D01*
X309365034Y-70449380D02*
X309126939Y-70449380D01*
X309126939Y-70449380D02*
X309031701Y-70497000D01*
X309031701Y-70497000D02*
X308984082Y-70544619D01*
X308984082Y-70544619D02*
X308936463Y-70639857D01*
X308936463Y-70639857D02*
X308936463Y-70735095D01*
X308936463Y-70735095D02*
X308984082Y-70877952D01*
X308984082Y-70877952D02*
X309555510Y-71449380D01*
X309555510Y-71449380D02*
X308936463Y-71449380D01*
D12*
%TO.C,D11*%
X256672415Y-44855904D02*
X256672415Y-44055904D01*
X256672415Y-44055904D02*
X256481939Y-44055904D01*
X256481939Y-44055904D02*
X256367653Y-44094000D01*
X256367653Y-44094000D02*
X256291463Y-44170190D01*
X256291463Y-44170190D02*
X256253368Y-44246380D01*
X256253368Y-44246380D02*
X256215272Y-44398761D01*
X256215272Y-44398761D02*
X256215272Y-44513047D01*
X256215272Y-44513047D02*
X256253368Y-44665428D01*
X256253368Y-44665428D02*
X256291463Y-44741619D01*
X256291463Y-44741619D02*
X256367653Y-44817809D01*
X256367653Y-44817809D02*
X256481939Y-44855904D01*
X256481939Y-44855904D02*
X256672415Y-44855904D01*
X255453368Y-44855904D02*
X255910511Y-44855904D01*
X255681939Y-44855904D02*
X255681939Y-44055904D01*
X255681939Y-44055904D02*
X255758130Y-44170190D01*
X255758130Y-44170190D02*
X255834320Y-44246380D01*
X255834320Y-44246380D02*
X255910511Y-44284476D01*
X254691463Y-44855904D02*
X255148606Y-44855904D01*
X254920034Y-44855904D02*
X254920034Y-44055904D01*
X254920034Y-44055904D02*
X254996225Y-44170190D01*
X254996225Y-44170190D02*
X255072415Y-44246380D01*
X255072415Y-44246380D02*
X255148606Y-44284476D01*
D11*
%TO.C,SW36*%
X198255510Y-71401761D02*
X198112653Y-71449380D01*
X198112653Y-71449380D02*
X197874558Y-71449380D01*
X197874558Y-71449380D02*
X197779320Y-71401761D01*
X197779320Y-71401761D02*
X197731701Y-71354142D01*
X197731701Y-71354142D02*
X197684082Y-71258904D01*
X197684082Y-71258904D02*
X197684082Y-71163666D01*
X197684082Y-71163666D02*
X197731701Y-71068428D01*
X197731701Y-71068428D02*
X197779320Y-71020809D01*
X197779320Y-71020809D02*
X197874558Y-70973190D01*
X197874558Y-70973190D02*
X198065034Y-70925571D01*
X198065034Y-70925571D02*
X198160272Y-70877952D01*
X198160272Y-70877952D02*
X198207891Y-70830333D01*
X198207891Y-70830333D02*
X198255510Y-70735095D01*
X198255510Y-70735095D02*
X198255510Y-70639857D01*
X198255510Y-70639857D02*
X198207891Y-70544619D01*
X198207891Y-70544619D02*
X198160272Y-70497000D01*
X198160272Y-70497000D02*
X198065034Y-70449380D01*
X198065034Y-70449380D02*
X197826939Y-70449380D01*
X197826939Y-70449380D02*
X197684082Y-70497000D01*
X197350748Y-70449380D02*
X197112653Y-71449380D01*
X197112653Y-71449380D02*
X196922177Y-70735095D01*
X196922177Y-70735095D02*
X196731701Y-71449380D01*
X196731701Y-71449380D02*
X196493606Y-70449380D01*
X196207891Y-70449380D02*
X195588844Y-70449380D01*
X195588844Y-70449380D02*
X195922177Y-70830333D01*
X195922177Y-70830333D02*
X195779320Y-70830333D01*
X195779320Y-70830333D02*
X195684082Y-70877952D01*
X195684082Y-70877952D02*
X195636463Y-70925571D01*
X195636463Y-70925571D02*
X195588844Y-71020809D01*
X195588844Y-71020809D02*
X195588844Y-71258904D01*
X195588844Y-71258904D02*
X195636463Y-71354142D01*
X195636463Y-71354142D02*
X195684082Y-71401761D01*
X195684082Y-71401761D02*
X195779320Y-71449380D01*
X195779320Y-71449380D02*
X196065034Y-71449380D01*
X196065034Y-71449380D02*
X196160272Y-71401761D01*
X196160272Y-71401761D02*
X196207891Y-71354142D01*
X194731701Y-70449380D02*
X194922177Y-70449380D01*
X194922177Y-70449380D02*
X195017415Y-70497000D01*
X195017415Y-70497000D02*
X195065034Y-70544619D01*
X195065034Y-70544619D02*
X195160272Y-70687476D01*
X195160272Y-70687476D02*
X195207891Y-70877952D01*
X195207891Y-70877952D02*
X195207891Y-71258904D01*
X195207891Y-71258904D02*
X195160272Y-71354142D01*
X195160272Y-71354142D02*
X195112653Y-71401761D01*
X195112653Y-71401761D02*
X195017415Y-71449380D01*
X195017415Y-71449380D02*
X194826939Y-71449380D01*
X194826939Y-71449380D02*
X194731701Y-71401761D01*
X194731701Y-71401761D02*
X194684082Y-71354142D01*
X194684082Y-71354142D02*
X194636463Y-71258904D01*
X194636463Y-71258904D02*
X194636463Y-71020809D01*
X194636463Y-71020809D02*
X194684082Y-70925571D01*
X194684082Y-70925571D02*
X194731701Y-70877952D01*
X194731701Y-70877952D02*
X194826939Y-70830333D01*
X194826939Y-70830333D02*
X195017415Y-70830333D01*
X195017415Y-70830333D02*
X195112653Y-70877952D01*
X195112653Y-70877952D02*
X195160272Y-70925571D01*
X195160272Y-70925571D02*
X195207891Y-71020809D01*
%TO.C,SW63*%
X236355510Y-109501761D02*
X236212653Y-109549380D01*
X236212653Y-109549380D02*
X235974558Y-109549380D01*
X235974558Y-109549380D02*
X235879320Y-109501761D01*
X235879320Y-109501761D02*
X235831701Y-109454142D01*
X235831701Y-109454142D02*
X235784082Y-109358904D01*
X235784082Y-109358904D02*
X235784082Y-109263666D01*
X235784082Y-109263666D02*
X235831701Y-109168428D01*
X235831701Y-109168428D02*
X235879320Y-109120809D01*
X235879320Y-109120809D02*
X235974558Y-109073190D01*
X235974558Y-109073190D02*
X236165034Y-109025571D01*
X236165034Y-109025571D02*
X236260272Y-108977952D01*
X236260272Y-108977952D02*
X236307891Y-108930333D01*
X236307891Y-108930333D02*
X236355510Y-108835095D01*
X236355510Y-108835095D02*
X236355510Y-108739857D01*
X236355510Y-108739857D02*
X236307891Y-108644619D01*
X236307891Y-108644619D02*
X236260272Y-108597000D01*
X236260272Y-108597000D02*
X236165034Y-108549380D01*
X236165034Y-108549380D02*
X235926939Y-108549380D01*
X235926939Y-108549380D02*
X235784082Y-108597000D01*
X235450748Y-108549380D02*
X235212653Y-109549380D01*
X235212653Y-109549380D02*
X235022177Y-108835095D01*
X235022177Y-108835095D02*
X234831701Y-109549380D01*
X234831701Y-109549380D02*
X234593606Y-108549380D01*
X233784082Y-108549380D02*
X233974558Y-108549380D01*
X233974558Y-108549380D02*
X234069796Y-108597000D01*
X234069796Y-108597000D02*
X234117415Y-108644619D01*
X234117415Y-108644619D02*
X234212653Y-108787476D01*
X234212653Y-108787476D02*
X234260272Y-108977952D01*
X234260272Y-108977952D02*
X234260272Y-109358904D01*
X234260272Y-109358904D02*
X234212653Y-109454142D01*
X234212653Y-109454142D02*
X234165034Y-109501761D01*
X234165034Y-109501761D02*
X234069796Y-109549380D01*
X234069796Y-109549380D02*
X233879320Y-109549380D01*
X233879320Y-109549380D02*
X233784082Y-109501761D01*
X233784082Y-109501761D02*
X233736463Y-109454142D01*
X233736463Y-109454142D02*
X233688844Y-109358904D01*
X233688844Y-109358904D02*
X233688844Y-109120809D01*
X233688844Y-109120809D02*
X233736463Y-109025571D01*
X233736463Y-109025571D02*
X233784082Y-108977952D01*
X233784082Y-108977952D02*
X233879320Y-108930333D01*
X233879320Y-108930333D02*
X234069796Y-108930333D01*
X234069796Y-108930333D02*
X234165034Y-108977952D01*
X234165034Y-108977952D02*
X234212653Y-109025571D01*
X234212653Y-109025571D02*
X234260272Y-109120809D01*
X233355510Y-108549380D02*
X232736463Y-108549380D01*
X232736463Y-108549380D02*
X233069796Y-108930333D01*
X233069796Y-108930333D02*
X232926939Y-108930333D01*
X232926939Y-108930333D02*
X232831701Y-108977952D01*
X232831701Y-108977952D02*
X232784082Y-109025571D01*
X232784082Y-109025571D02*
X232736463Y-109120809D01*
X232736463Y-109120809D02*
X232736463Y-109358904D01*
X232736463Y-109358904D02*
X232784082Y-109454142D01*
X232784082Y-109454142D02*
X232831701Y-109501761D01*
X232831701Y-109501761D02*
X232926939Y-109549380D01*
X232926939Y-109549380D02*
X233212653Y-109549380D01*
X233212653Y-109549380D02*
X233307891Y-109501761D01*
X233307891Y-109501761D02*
X233355510Y-109454142D01*
%TO.C,A2*%
X218900285Y-25481666D02*
X218424095Y-25481666D01*
X218995523Y-25767380D02*
X218662190Y-24767380D01*
X218662190Y-24767380D02*
X218328857Y-25767380D01*
X218043142Y-24862619D02*
X217995523Y-24815000D01*
X217995523Y-24815000D02*
X217900285Y-24767380D01*
X217900285Y-24767380D02*
X217662190Y-24767380D01*
X217662190Y-24767380D02*
X217566952Y-24815000D01*
X217566952Y-24815000D02*
X217519333Y-24862619D01*
X217519333Y-24862619D02*
X217471714Y-24957857D01*
X217471714Y-24957857D02*
X217471714Y-25053095D01*
X217471714Y-25053095D02*
X217519333Y-25195952D01*
X217519333Y-25195952D02*
X218090761Y-25767380D01*
X218090761Y-25767380D02*
X217471714Y-25767380D01*
D12*
%TO.C,D39*%
X256672415Y-83305904D02*
X256672415Y-82505904D01*
X256672415Y-82505904D02*
X256481939Y-82505904D01*
X256481939Y-82505904D02*
X256367653Y-82544000D01*
X256367653Y-82544000D02*
X256291463Y-82620190D01*
X256291463Y-82620190D02*
X256253368Y-82696380D01*
X256253368Y-82696380D02*
X256215272Y-82848761D01*
X256215272Y-82848761D02*
X256215272Y-82963047D01*
X256215272Y-82963047D02*
X256253368Y-83115428D01*
X256253368Y-83115428D02*
X256291463Y-83191619D01*
X256291463Y-83191619D02*
X256367653Y-83267809D01*
X256367653Y-83267809D02*
X256481939Y-83305904D01*
X256481939Y-83305904D02*
X256672415Y-83305904D01*
X255948606Y-82505904D02*
X255453368Y-82505904D01*
X255453368Y-82505904D02*
X255720034Y-82810666D01*
X255720034Y-82810666D02*
X255605749Y-82810666D01*
X255605749Y-82810666D02*
X255529558Y-82848761D01*
X255529558Y-82848761D02*
X255491463Y-82886857D01*
X255491463Y-82886857D02*
X255453368Y-82963047D01*
X255453368Y-82963047D02*
X255453368Y-83153523D01*
X255453368Y-83153523D02*
X255491463Y-83229714D01*
X255491463Y-83229714D02*
X255529558Y-83267809D01*
X255529558Y-83267809D02*
X255605749Y-83305904D01*
X255605749Y-83305904D02*
X255834320Y-83305904D01*
X255834320Y-83305904D02*
X255910511Y-83267809D01*
X255910511Y-83267809D02*
X255948606Y-83229714D01*
X255072415Y-83305904D02*
X254920034Y-83305904D01*
X254920034Y-83305904D02*
X254843844Y-83267809D01*
X254843844Y-83267809D02*
X254805748Y-83229714D01*
X254805748Y-83229714D02*
X254729558Y-83115428D01*
X254729558Y-83115428D02*
X254691463Y-82963047D01*
X254691463Y-82963047D02*
X254691463Y-82658285D01*
X254691463Y-82658285D02*
X254729558Y-82582095D01*
X254729558Y-82582095D02*
X254767653Y-82544000D01*
X254767653Y-82544000D02*
X254843844Y-82505904D01*
X254843844Y-82505904D02*
X254996225Y-82505904D01*
X254996225Y-82505904D02*
X255072415Y-82544000D01*
X255072415Y-82544000D02*
X255110510Y-82582095D01*
X255110510Y-82582095D02*
X255148606Y-82658285D01*
X255148606Y-82658285D02*
X255148606Y-82848761D01*
X255148606Y-82848761D02*
X255110510Y-82924952D01*
X255110510Y-82924952D02*
X255072415Y-82963047D01*
X255072415Y-82963047D02*
X254996225Y-83001142D01*
X254996225Y-83001142D02*
X254843844Y-83001142D01*
X254843844Y-83001142D02*
X254767653Y-82963047D01*
X254767653Y-82963047D02*
X254729558Y-82924952D01*
X254729558Y-82924952D02*
X254691463Y-82848761D01*
D11*
%TO.C,SW13*%
X293455510Y-33301761D02*
X293312653Y-33349380D01*
X293312653Y-33349380D02*
X293074558Y-33349380D01*
X293074558Y-33349380D02*
X292979320Y-33301761D01*
X292979320Y-33301761D02*
X292931701Y-33254142D01*
X292931701Y-33254142D02*
X292884082Y-33158904D01*
X292884082Y-33158904D02*
X292884082Y-33063666D01*
X292884082Y-33063666D02*
X292931701Y-32968428D01*
X292931701Y-32968428D02*
X292979320Y-32920809D01*
X292979320Y-32920809D02*
X293074558Y-32873190D01*
X293074558Y-32873190D02*
X293265034Y-32825571D01*
X293265034Y-32825571D02*
X293360272Y-32777952D01*
X293360272Y-32777952D02*
X293407891Y-32730333D01*
X293407891Y-32730333D02*
X293455510Y-32635095D01*
X293455510Y-32635095D02*
X293455510Y-32539857D01*
X293455510Y-32539857D02*
X293407891Y-32444619D01*
X293407891Y-32444619D02*
X293360272Y-32397000D01*
X293360272Y-32397000D02*
X293265034Y-32349380D01*
X293265034Y-32349380D02*
X293026939Y-32349380D01*
X293026939Y-32349380D02*
X292884082Y-32397000D01*
X292550748Y-32349380D02*
X292312653Y-33349380D01*
X292312653Y-33349380D02*
X292122177Y-32635095D01*
X292122177Y-32635095D02*
X291931701Y-33349380D01*
X291931701Y-33349380D02*
X291693606Y-32349380D01*
X290788844Y-33349380D02*
X291360272Y-33349380D01*
X291074558Y-33349380D02*
X291074558Y-32349380D01*
X291074558Y-32349380D02*
X291169796Y-32492238D01*
X291169796Y-32492238D02*
X291265034Y-32587476D01*
X291265034Y-32587476D02*
X291360272Y-32635095D01*
X290455510Y-32349380D02*
X289836463Y-32349380D01*
X289836463Y-32349380D02*
X290169796Y-32730333D01*
X290169796Y-32730333D02*
X290026939Y-32730333D01*
X290026939Y-32730333D02*
X289931701Y-32777952D01*
X289931701Y-32777952D02*
X289884082Y-32825571D01*
X289884082Y-32825571D02*
X289836463Y-32920809D01*
X289836463Y-32920809D02*
X289836463Y-33158904D01*
X289836463Y-33158904D02*
X289884082Y-33254142D01*
X289884082Y-33254142D02*
X289931701Y-33301761D01*
X289931701Y-33301761D02*
X290026939Y-33349380D01*
X290026939Y-33349380D02*
X290312653Y-33349380D01*
X290312653Y-33349380D02*
X290407891Y-33301761D01*
X290407891Y-33301761D02*
X290455510Y-33254142D01*
D12*
%TO.C,D22*%
X199422415Y-64175904D02*
X199422415Y-63375904D01*
X199422415Y-63375904D02*
X199231939Y-63375904D01*
X199231939Y-63375904D02*
X199117653Y-63414000D01*
X199117653Y-63414000D02*
X199041463Y-63490190D01*
X199041463Y-63490190D02*
X199003368Y-63566380D01*
X199003368Y-63566380D02*
X198965272Y-63718761D01*
X198965272Y-63718761D02*
X198965272Y-63833047D01*
X198965272Y-63833047D02*
X199003368Y-63985428D01*
X199003368Y-63985428D02*
X199041463Y-64061619D01*
X199041463Y-64061619D02*
X199117653Y-64137809D01*
X199117653Y-64137809D02*
X199231939Y-64175904D01*
X199231939Y-64175904D02*
X199422415Y-64175904D01*
X198660511Y-63452095D02*
X198622415Y-63414000D01*
X198622415Y-63414000D02*
X198546225Y-63375904D01*
X198546225Y-63375904D02*
X198355749Y-63375904D01*
X198355749Y-63375904D02*
X198279558Y-63414000D01*
X198279558Y-63414000D02*
X198241463Y-63452095D01*
X198241463Y-63452095D02*
X198203368Y-63528285D01*
X198203368Y-63528285D02*
X198203368Y-63604476D01*
X198203368Y-63604476D02*
X198241463Y-63718761D01*
X198241463Y-63718761D02*
X198698606Y-64175904D01*
X198698606Y-64175904D02*
X198203368Y-64175904D01*
X197898606Y-63452095D02*
X197860510Y-63414000D01*
X197860510Y-63414000D02*
X197784320Y-63375904D01*
X197784320Y-63375904D02*
X197593844Y-63375904D01*
X197593844Y-63375904D02*
X197517653Y-63414000D01*
X197517653Y-63414000D02*
X197479558Y-63452095D01*
X197479558Y-63452095D02*
X197441463Y-63528285D01*
X197441463Y-63528285D02*
X197441463Y-63604476D01*
X197441463Y-63604476D02*
X197479558Y-63718761D01*
X197479558Y-63718761D02*
X197936701Y-64175904D01*
X197936701Y-64175904D02*
X197441463Y-64175904D01*
D11*
%TO.C,SW8*%
X197779319Y-33301761D02*
X197636462Y-33349380D01*
X197636462Y-33349380D02*
X197398367Y-33349380D01*
X197398367Y-33349380D02*
X197303129Y-33301761D01*
X197303129Y-33301761D02*
X197255510Y-33254142D01*
X197255510Y-33254142D02*
X197207891Y-33158904D01*
X197207891Y-33158904D02*
X197207891Y-33063666D01*
X197207891Y-33063666D02*
X197255510Y-32968428D01*
X197255510Y-32968428D02*
X197303129Y-32920809D01*
X197303129Y-32920809D02*
X197398367Y-32873190D01*
X197398367Y-32873190D02*
X197588843Y-32825571D01*
X197588843Y-32825571D02*
X197684081Y-32777952D01*
X197684081Y-32777952D02*
X197731700Y-32730333D01*
X197731700Y-32730333D02*
X197779319Y-32635095D01*
X197779319Y-32635095D02*
X197779319Y-32539857D01*
X197779319Y-32539857D02*
X197731700Y-32444619D01*
X197731700Y-32444619D02*
X197684081Y-32397000D01*
X197684081Y-32397000D02*
X197588843Y-32349380D01*
X197588843Y-32349380D02*
X197350748Y-32349380D01*
X197350748Y-32349380D02*
X197207891Y-32397000D01*
X196874557Y-32349380D02*
X196636462Y-33349380D01*
X196636462Y-33349380D02*
X196445986Y-32635095D01*
X196445986Y-32635095D02*
X196255510Y-33349380D01*
X196255510Y-33349380D02*
X196017415Y-32349380D01*
X195493605Y-32777952D02*
X195588843Y-32730333D01*
X195588843Y-32730333D02*
X195636462Y-32682714D01*
X195636462Y-32682714D02*
X195684081Y-32587476D01*
X195684081Y-32587476D02*
X195684081Y-32539857D01*
X195684081Y-32539857D02*
X195636462Y-32444619D01*
X195636462Y-32444619D02*
X195588843Y-32397000D01*
X195588843Y-32397000D02*
X195493605Y-32349380D01*
X195493605Y-32349380D02*
X195303129Y-32349380D01*
X195303129Y-32349380D02*
X195207891Y-32397000D01*
X195207891Y-32397000D02*
X195160272Y-32444619D01*
X195160272Y-32444619D02*
X195112653Y-32539857D01*
X195112653Y-32539857D02*
X195112653Y-32587476D01*
X195112653Y-32587476D02*
X195160272Y-32682714D01*
X195160272Y-32682714D02*
X195207891Y-32730333D01*
X195207891Y-32730333D02*
X195303129Y-32777952D01*
X195303129Y-32777952D02*
X195493605Y-32777952D01*
X195493605Y-32777952D02*
X195588843Y-32825571D01*
X195588843Y-32825571D02*
X195636462Y-32873190D01*
X195636462Y-32873190D02*
X195684081Y-32968428D01*
X195684081Y-32968428D02*
X195684081Y-33158904D01*
X195684081Y-33158904D02*
X195636462Y-33254142D01*
X195636462Y-33254142D02*
X195588843Y-33301761D01*
X195588843Y-33301761D02*
X195493605Y-33349380D01*
X195493605Y-33349380D02*
X195303129Y-33349380D01*
X195303129Y-33349380D02*
X195207891Y-33301761D01*
X195207891Y-33301761D02*
X195160272Y-33254142D01*
X195160272Y-33254142D02*
X195112653Y-33158904D01*
X195112653Y-33158904D02*
X195112653Y-32968428D01*
X195112653Y-32968428D02*
X195160272Y-32873190D01*
X195160272Y-32873190D02*
X195207891Y-32825571D01*
X195207891Y-32825571D02*
X195303129Y-32777952D01*
D12*
%TO.C,D28*%
X313737415Y-64175904D02*
X313737415Y-63375904D01*
X313737415Y-63375904D02*
X313546939Y-63375904D01*
X313546939Y-63375904D02*
X313432653Y-63414000D01*
X313432653Y-63414000D02*
X313356463Y-63490190D01*
X313356463Y-63490190D02*
X313318368Y-63566380D01*
X313318368Y-63566380D02*
X313280272Y-63718761D01*
X313280272Y-63718761D02*
X313280272Y-63833047D01*
X313280272Y-63833047D02*
X313318368Y-63985428D01*
X313318368Y-63985428D02*
X313356463Y-64061619D01*
X313356463Y-64061619D02*
X313432653Y-64137809D01*
X313432653Y-64137809D02*
X313546939Y-64175904D01*
X313546939Y-64175904D02*
X313737415Y-64175904D01*
X312975511Y-63452095D02*
X312937415Y-63414000D01*
X312937415Y-63414000D02*
X312861225Y-63375904D01*
X312861225Y-63375904D02*
X312670749Y-63375904D01*
X312670749Y-63375904D02*
X312594558Y-63414000D01*
X312594558Y-63414000D02*
X312556463Y-63452095D01*
X312556463Y-63452095D02*
X312518368Y-63528285D01*
X312518368Y-63528285D02*
X312518368Y-63604476D01*
X312518368Y-63604476D02*
X312556463Y-63718761D01*
X312556463Y-63718761D02*
X313013606Y-64175904D01*
X313013606Y-64175904D02*
X312518368Y-64175904D01*
X312061225Y-63718761D02*
X312137415Y-63680666D01*
X312137415Y-63680666D02*
X312175510Y-63642571D01*
X312175510Y-63642571D02*
X312213606Y-63566380D01*
X312213606Y-63566380D02*
X312213606Y-63528285D01*
X312213606Y-63528285D02*
X312175510Y-63452095D01*
X312175510Y-63452095D02*
X312137415Y-63414000D01*
X312137415Y-63414000D02*
X312061225Y-63375904D01*
X312061225Y-63375904D02*
X311908844Y-63375904D01*
X311908844Y-63375904D02*
X311832653Y-63414000D01*
X311832653Y-63414000D02*
X311794558Y-63452095D01*
X311794558Y-63452095D02*
X311756463Y-63528285D01*
X311756463Y-63528285D02*
X311756463Y-63566380D01*
X311756463Y-63566380D02*
X311794558Y-63642571D01*
X311794558Y-63642571D02*
X311832653Y-63680666D01*
X311832653Y-63680666D02*
X311908844Y-63718761D01*
X311908844Y-63718761D02*
X312061225Y-63718761D01*
X312061225Y-63718761D02*
X312137415Y-63756857D01*
X312137415Y-63756857D02*
X312175510Y-63794952D01*
X312175510Y-63794952D02*
X312213606Y-63871142D01*
X312213606Y-63871142D02*
X312213606Y-64023523D01*
X312213606Y-64023523D02*
X312175510Y-64099714D01*
X312175510Y-64099714D02*
X312137415Y-64137809D01*
X312137415Y-64137809D02*
X312061225Y-64175904D01*
X312061225Y-64175904D02*
X311908844Y-64175904D01*
X311908844Y-64175904D02*
X311832653Y-64137809D01*
X311832653Y-64137809D02*
X311794558Y-64099714D01*
X311794558Y-64099714D02*
X311756463Y-64023523D01*
X311756463Y-64023523D02*
X311756463Y-63871142D01*
X311756463Y-63871142D02*
X311794558Y-63794952D01*
X311794558Y-63794952D02*
X311832653Y-63756857D01*
X311832653Y-63756857D02*
X311908844Y-63718761D01*
%TO.C,D52*%
X237557415Y-101985904D02*
X237557415Y-101185904D01*
X237557415Y-101185904D02*
X237366939Y-101185904D01*
X237366939Y-101185904D02*
X237252653Y-101224000D01*
X237252653Y-101224000D02*
X237176463Y-101300190D01*
X237176463Y-101300190D02*
X237138368Y-101376380D01*
X237138368Y-101376380D02*
X237100272Y-101528761D01*
X237100272Y-101528761D02*
X237100272Y-101643047D01*
X237100272Y-101643047D02*
X237138368Y-101795428D01*
X237138368Y-101795428D02*
X237176463Y-101871619D01*
X237176463Y-101871619D02*
X237252653Y-101947809D01*
X237252653Y-101947809D02*
X237366939Y-101985904D01*
X237366939Y-101985904D02*
X237557415Y-101985904D01*
X236376463Y-101185904D02*
X236757415Y-101185904D01*
X236757415Y-101185904D02*
X236795511Y-101566857D01*
X236795511Y-101566857D02*
X236757415Y-101528761D01*
X236757415Y-101528761D02*
X236681225Y-101490666D01*
X236681225Y-101490666D02*
X236490749Y-101490666D01*
X236490749Y-101490666D02*
X236414558Y-101528761D01*
X236414558Y-101528761D02*
X236376463Y-101566857D01*
X236376463Y-101566857D02*
X236338368Y-101643047D01*
X236338368Y-101643047D02*
X236338368Y-101833523D01*
X236338368Y-101833523D02*
X236376463Y-101909714D01*
X236376463Y-101909714D02*
X236414558Y-101947809D01*
X236414558Y-101947809D02*
X236490749Y-101985904D01*
X236490749Y-101985904D02*
X236681225Y-101985904D01*
X236681225Y-101985904D02*
X236757415Y-101947809D01*
X236757415Y-101947809D02*
X236795511Y-101909714D01*
X236033606Y-101262095D02*
X235995510Y-101224000D01*
X235995510Y-101224000D02*
X235919320Y-101185904D01*
X235919320Y-101185904D02*
X235728844Y-101185904D01*
X235728844Y-101185904D02*
X235652653Y-101224000D01*
X235652653Y-101224000D02*
X235614558Y-101262095D01*
X235614558Y-101262095D02*
X235576463Y-101338285D01*
X235576463Y-101338285D02*
X235576463Y-101414476D01*
X235576463Y-101414476D02*
X235614558Y-101528761D01*
X235614558Y-101528761D02*
X236071701Y-101985904D01*
X236071701Y-101985904D02*
X235576463Y-101985904D01*
%TO.C,D42*%
X313737415Y-83405904D02*
X313737415Y-82605904D01*
X313737415Y-82605904D02*
X313546939Y-82605904D01*
X313546939Y-82605904D02*
X313432653Y-82644000D01*
X313432653Y-82644000D02*
X313356463Y-82720190D01*
X313356463Y-82720190D02*
X313318368Y-82796380D01*
X313318368Y-82796380D02*
X313280272Y-82948761D01*
X313280272Y-82948761D02*
X313280272Y-83063047D01*
X313280272Y-83063047D02*
X313318368Y-83215428D01*
X313318368Y-83215428D02*
X313356463Y-83291619D01*
X313356463Y-83291619D02*
X313432653Y-83367809D01*
X313432653Y-83367809D02*
X313546939Y-83405904D01*
X313546939Y-83405904D02*
X313737415Y-83405904D01*
X312594558Y-82872571D02*
X312594558Y-83405904D01*
X312785034Y-82567809D02*
X312975511Y-83139238D01*
X312975511Y-83139238D02*
X312480272Y-83139238D01*
X312213606Y-82682095D02*
X312175510Y-82644000D01*
X312175510Y-82644000D02*
X312099320Y-82605904D01*
X312099320Y-82605904D02*
X311908844Y-82605904D01*
X311908844Y-82605904D02*
X311832653Y-82644000D01*
X311832653Y-82644000D02*
X311794558Y-82682095D01*
X311794558Y-82682095D02*
X311756463Y-82758285D01*
X311756463Y-82758285D02*
X311756463Y-82834476D01*
X311756463Y-82834476D02*
X311794558Y-82948761D01*
X311794558Y-82948761D02*
X312251701Y-83405904D01*
X312251701Y-83405904D02*
X311756463Y-83405904D01*
%TO.C,D26*%
X275697415Y-64175904D02*
X275697415Y-63375904D01*
X275697415Y-63375904D02*
X275506939Y-63375904D01*
X275506939Y-63375904D02*
X275392653Y-63414000D01*
X275392653Y-63414000D02*
X275316463Y-63490190D01*
X275316463Y-63490190D02*
X275278368Y-63566380D01*
X275278368Y-63566380D02*
X275240272Y-63718761D01*
X275240272Y-63718761D02*
X275240272Y-63833047D01*
X275240272Y-63833047D02*
X275278368Y-63985428D01*
X275278368Y-63985428D02*
X275316463Y-64061619D01*
X275316463Y-64061619D02*
X275392653Y-64137809D01*
X275392653Y-64137809D02*
X275506939Y-64175904D01*
X275506939Y-64175904D02*
X275697415Y-64175904D01*
X274935511Y-63452095D02*
X274897415Y-63414000D01*
X274897415Y-63414000D02*
X274821225Y-63375904D01*
X274821225Y-63375904D02*
X274630749Y-63375904D01*
X274630749Y-63375904D02*
X274554558Y-63414000D01*
X274554558Y-63414000D02*
X274516463Y-63452095D01*
X274516463Y-63452095D02*
X274478368Y-63528285D01*
X274478368Y-63528285D02*
X274478368Y-63604476D01*
X274478368Y-63604476D02*
X274516463Y-63718761D01*
X274516463Y-63718761D02*
X274973606Y-64175904D01*
X274973606Y-64175904D02*
X274478368Y-64175904D01*
X273792653Y-63375904D02*
X273945034Y-63375904D01*
X273945034Y-63375904D02*
X274021225Y-63414000D01*
X274021225Y-63414000D02*
X274059320Y-63452095D01*
X274059320Y-63452095D02*
X274135510Y-63566380D01*
X274135510Y-63566380D02*
X274173606Y-63718761D01*
X274173606Y-63718761D02*
X274173606Y-64023523D01*
X274173606Y-64023523D02*
X274135510Y-64099714D01*
X274135510Y-64099714D02*
X274097415Y-64137809D01*
X274097415Y-64137809D02*
X274021225Y-64175904D01*
X274021225Y-64175904D02*
X273868844Y-64175904D01*
X273868844Y-64175904D02*
X273792653Y-64137809D01*
X273792653Y-64137809D02*
X273754558Y-64099714D01*
X273754558Y-64099714D02*
X273716463Y-64023523D01*
X273716463Y-64023523D02*
X273716463Y-63833047D01*
X273716463Y-63833047D02*
X273754558Y-63756857D01*
X273754558Y-63756857D02*
X273792653Y-63718761D01*
X273792653Y-63718761D02*
X273868844Y-63680666D01*
X273868844Y-63680666D02*
X274021225Y-63680666D01*
X274021225Y-63680666D02*
X274097415Y-63718761D01*
X274097415Y-63718761D02*
X274135510Y-63756857D01*
X274135510Y-63756857D02*
X274173606Y-63833047D01*
%TO.C,D14*%
X313737415Y-44955904D02*
X313737415Y-44155904D01*
X313737415Y-44155904D02*
X313546939Y-44155904D01*
X313546939Y-44155904D02*
X313432653Y-44194000D01*
X313432653Y-44194000D02*
X313356463Y-44270190D01*
X313356463Y-44270190D02*
X313318368Y-44346380D01*
X313318368Y-44346380D02*
X313280272Y-44498761D01*
X313280272Y-44498761D02*
X313280272Y-44613047D01*
X313280272Y-44613047D02*
X313318368Y-44765428D01*
X313318368Y-44765428D02*
X313356463Y-44841619D01*
X313356463Y-44841619D02*
X313432653Y-44917809D01*
X313432653Y-44917809D02*
X313546939Y-44955904D01*
X313546939Y-44955904D02*
X313737415Y-44955904D01*
X312518368Y-44955904D02*
X312975511Y-44955904D01*
X312746939Y-44955904D02*
X312746939Y-44155904D01*
X312746939Y-44155904D02*
X312823130Y-44270190D01*
X312823130Y-44270190D02*
X312899320Y-44346380D01*
X312899320Y-44346380D02*
X312975511Y-44384476D01*
X311832653Y-44422571D02*
X311832653Y-44955904D01*
X312023129Y-44117809D02*
X312213606Y-44689238D01*
X312213606Y-44689238D02*
X311718367Y-44689238D01*
D11*
%TO.C,SW61*%
X198255510Y-109501761D02*
X198112653Y-109549380D01*
X198112653Y-109549380D02*
X197874558Y-109549380D01*
X197874558Y-109549380D02*
X197779320Y-109501761D01*
X197779320Y-109501761D02*
X197731701Y-109454142D01*
X197731701Y-109454142D02*
X197684082Y-109358904D01*
X197684082Y-109358904D02*
X197684082Y-109263666D01*
X197684082Y-109263666D02*
X197731701Y-109168428D01*
X197731701Y-109168428D02*
X197779320Y-109120809D01*
X197779320Y-109120809D02*
X197874558Y-109073190D01*
X197874558Y-109073190D02*
X198065034Y-109025571D01*
X198065034Y-109025571D02*
X198160272Y-108977952D01*
X198160272Y-108977952D02*
X198207891Y-108930333D01*
X198207891Y-108930333D02*
X198255510Y-108835095D01*
X198255510Y-108835095D02*
X198255510Y-108739857D01*
X198255510Y-108739857D02*
X198207891Y-108644619D01*
X198207891Y-108644619D02*
X198160272Y-108597000D01*
X198160272Y-108597000D02*
X198065034Y-108549380D01*
X198065034Y-108549380D02*
X197826939Y-108549380D01*
X197826939Y-108549380D02*
X197684082Y-108597000D01*
X197350748Y-108549380D02*
X197112653Y-109549380D01*
X197112653Y-109549380D02*
X196922177Y-108835095D01*
X196922177Y-108835095D02*
X196731701Y-109549380D01*
X196731701Y-109549380D02*
X196493606Y-108549380D01*
X195684082Y-108549380D02*
X195874558Y-108549380D01*
X195874558Y-108549380D02*
X195969796Y-108597000D01*
X195969796Y-108597000D02*
X196017415Y-108644619D01*
X196017415Y-108644619D02*
X196112653Y-108787476D01*
X196112653Y-108787476D02*
X196160272Y-108977952D01*
X196160272Y-108977952D02*
X196160272Y-109358904D01*
X196160272Y-109358904D02*
X196112653Y-109454142D01*
X196112653Y-109454142D02*
X196065034Y-109501761D01*
X196065034Y-109501761D02*
X195969796Y-109549380D01*
X195969796Y-109549380D02*
X195779320Y-109549380D01*
X195779320Y-109549380D02*
X195684082Y-109501761D01*
X195684082Y-109501761D02*
X195636463Y-109454142D01*
X195636463Y-109454142D02*
X195588844Y-109358904D01*
X195588844Y-109358904D02*
X195588844Y-109120809D01*
X195588844Y-109120809D02*
X195636463Y-109025571D01*
X195636463Y-109025571D02*
X195684082Y-108977952D01*
X195684082Y-108977952D02*
X195779320Y-108930333D01*
X195779320Y-108930333D02*
X195969796Y-108930333D01*
X195969796Y-108930333D02*
X196065034Y-108977952D01*
X196065034Y-108977952D02*
X196112653Y-109025571D01*
X196112653Y-109025571D02*
X196160272Y-109120809D01*
X194636463Y-109549380D02*
X195207891Y-109549380D01*
X194922177Y-109549380D02*
X194922177Y-108549380D01*
X194922177Y-108549380D02*
X195017415Y-108692238D01*
X195017415Y-108692238D02*
X195112653Y-108787476D01*
X195112653Y-108787476D02*
X195207891Y-108835095D01*
%TO.C,SW26*%
X274455510Y-52351761D02*
X274312653Y-52399380D01*
X274312653Y-52399380D02*
X274074558Y-52399380D01*
X274074558Y-52399380D02*
X273979320Y-52351761D01*
X273979320Y-52351761D02*
X273931701Y-52304142D01*
X273931701Y-52304142D02*
X273884082Y-52208904D01*
X273884082Y-52208904D02*
X273884082Y-52113666D01*
X273884082Y-52113666D02*
X273931701Y-52018428D01*
X273931701Y-52018428D02*
X273979320Y-51970809D01*
X273979320Y-51970809D02*
X274074558Y-51923190D01*
X274074558Y-51923190D02*
X274265034Y-51875571D01*
X274265034Y-51875571D02*
X274360272Y-51827952D01*
X274360272Y-51827952D02*
X274407891Y-51780333D01*
X274407891Y-51780333D02*
X274455510Y-51685095D01*
X274455510Y-51685095D02*
X274455510Y-51589857D01*
X274455510Y-51589857D02*
X274407891Y-51494619D01*
X274407891Y-51494619D02*
X274360272Y-51447000D01*
X274360272Y-51447000D02*
X274265034Y-51399380D01*
X274265034Y-51399380D02*
X274026939Y-51399380D01*
X274026939Y-51399380D02*
X273884082Y-51447000D01*
X273550748Y-51399380D02*
X273312653Y-52399380D01*
X273312653Y-52399380D02*
X273122177Y-51685095D01*
X273122177Y-51685095D02*
X272931701Y-52399380D01*
X272931701Y-52399380D02*
X272693606Y-51399380D01*
X272360272Y-51494619D02*
X272312653Y-51447000D01*
X272312653Y-51447000D02*
X272217415Y-51399380D01*
X272217415Y-51399380D02*
X271979320Y-51399380D01*
X271979320Y-51399380D02*
X271884082Y-51447000D01*
X271884082Y-51447000D02*
X271836463Y-51494619D01*
X271836463Y-51494619D02*
X271788844Y-51589857D01*
X271788844Y-51589857D02*
X271788844Y-51685095D01*
X271788844Y-51685095D02*
X271836463Y-51827952D01*
X271836463Y-51827952D02*
X272407891Y-52399380D01*
X272407891Y-52399380D02*
X271788844Y-52399380D01*
X270931701Y-51399380D02*
X271122177Y-51399380D01*
X271122177Y-51399380D02*
X271217415Y-51447000D01*
X271217415Y-51447000D02*
X271265034Y-51494619D01*
X271265034Y-51494619D02*
X271360272Y-51637476D01*
X271360272Y-51637476D02*
X271407891Y-51827952D01*
X271407891Y-51827952D02*
X271407891Y-52208904D01*
X271407891Y-52208904D02*
X271360272Y-52304142D01*
X271360272Y-52304142D02*
X271312653Y-52351761D01*
X271312653Y-52351761D02*
X271217415Y-52399380D01*
X271217415Y-52399380D02*
X271026939Y-52399380D01*
X271026939Y-52399380D02*
X270931701Y-52351761D01*
X270931701Y-52351761D02*
X270884082Y-52304142D01*
X270884082Y-52304142D02*
X270836463Y-52208904D01*
X270836463Y-52208904D02*
X270836463Y-51970809D01*
X270836463Y-51970809D02*
X270884082Y-51875571D01*
X270884082Y-51875571D02*
X270931701Y-51827952D01*
X270931701Y-51827952D02*
X271026939Y-51780333D01*
X271026939Y-51780333D02*
X271217415Y-51780333D01*
X271217415Y-51780333D02*
X271312653Y-51827952D01*
X271312653Y-51827952D02*
X271360272Y-51875571D01*
X271360272Y-51875571D02*
X271407891Y-51970809D01*
%TO.C,SW22*%
X198255510Y-52351761D02*
X198112653Y-52399380D01*
X198112653Y-52399380D02*
X197874558Y-52399380D01*
X197874558Y-52399380D02*
X197779320Y-52351761D01*
X197779320Y-52351761D02*
X197731701Y-52304142D01*
X197731701Y-52304142D02*
X197684082Y-52208904D01*
X197684082Y-52208904D02*
X197684082Y-52113666D01*
X197684082Y-52113666D02*
X197731701Y-52018428D01*
X197731701Y-52018428D02*
X197779320Y-51970809D01*
X197779320Y-51970809D02*
X197874558Y-51923190D01*
X197874558Y-51923190D02*
X198065034Y-51875571D01*
X198065034Y-51875571D02*
X198160272Y-51827952D01*
X198160272Y-51827952D02*
X198207891Y-51780333D01*
X198207891Y-51780333D02*
X198255510Y-51685095D01*
X198255510Y-51685095D02*
X198255510Y-51589857D01*
X198255510Y-51589857D02*
X198207891Y-51494619D01*
X198207891Y-51494619D02*
X198160272Y-51447000D01*
X198160272Y-51447000D02*
X198065034Y-51399380D01*
X198065034Y-51399380D02*
X197826939Y-51399380D01*
X197826939Y-51399380D02*
X197684082Y-51447000D01*
X197350748Y-51399380D02*
X197112653Y-52399380D01*
X197112653Y-52399380D02*
X196922177Y-51685095D01*
X196922177Y-51685095D02*
X196731701Y-52399380D01*
X196731701Y-52399380D02*
X196493606Y-51399380D01*
X196160272Y-51494619D02*
X196112653Y-51447000D01*
X196112653Y-51447000D02*
X196017415Y-51399380D01*
X196017415Y-51399380D02*
X195779320Y-51399380D01*
X195779320Y-51399380D02*
X195684082Y-51447000D01*
X195684082Y-51447000D02*
X195636463Y-51494619D01*
X195636463Y-51494619D02*
X195588844Y-51589857D01*
X195588844Y-51589857D02*
X195588844Y-51685095D01*
X195588844Y-51685095D02*
X195636463Y-51827952D01*
X195636463Y-51827952D02*
X196207891Y-52399380D01*
X196207891Y-52399380D02*
X195588844Y-52399380D01*
X195207891Y-51494619D02*
X195160272Y-51447000D01*
X195160272Y-51447000D02*
X195065034Y-51399380D01*
X195065034Y-51399380D02*
X194826939Y-51399380D01*
X194826939Y-51399380D02*
X194731701Y-51447000D01*
X194731701Y-51447000D02*
X194684082Y-51494619D01*
X194684082Y-51494619D02*
X194636463Y-51589857D01*
X194636463Y-51589857D02*
X194636463Y-51685095D01*
X194636463Y-51685095D02*
X194684082Y-51827952D01*
X194684082Y-51827952D02*
X195255510Y-52399380D01*
X195255510Y-52399380D02*
X194636463Y-52399380D01*
D12*
%TO.C,D40*%
X275697415Y-83405904D02*
X275697415Y-82605904D01*
X275697415Y-82605904D02*
X275506939Y-82605904D01*
X275506939Y-82605904D02*
X275392653Y-82644000D01*
X275392653Y-82644000D02*
X275316463Y-82720190D01*
X275316463Y-82720190D02*
X275278368Y-82796380D01*
X275278368Y-82796380D02*
X275240272Y-82948761D01*
X275240272Y-82948761D02*
X275240272Y-83063047D01*
X275240272Y-83063047D02*
X275278368Y-83215428D01*
X275278368Y-83215428D02*
X275316463Y-83291619D01*
X275316463Y-83291619D02*
X275392653Y-83367809D01*
X275392653Y-83367809D02*
X275506939Y-83405904D01*
X275506939Y-83405904D02*
X275697415Y-83405904D01*
X274554558Y-82872571D02*
X274554558Y-83405904D01*
X274745034Y-82567809D02*
X274935511Y-83139238D01*
X274935511Y-83139238D02*
X274440272Y-83139238D01*
X273983129Y-82605904D02*
X273906939Y-82605904D01*
X273906939Y-82605904D02*
X273830748Y-82644000D01*
X273830748Y-82644000D02*
X273792653Y-82682095D01*
X273792653Y-82682095D02*
X273754558Y-82758285D01*
X273754558Y-82758285D02*
X273716463Y-82910666D01*
X273716463Y-82910666D02*
X273716463Y-83101142D01*
X273716463Y-83101142D02*
X273754558Y-83253523D01*
X273754558Y-83253523D02*
X273792653Y-83329714D01*
X273792653Y-83329714D02*
X273830748Y-83367809D01*
X273830748Y-83367809D02*
X273906939Y-83405904D01*
X273906939Y-83405904D02*
X273983129Y-83405904D01*
X273983129Y-83405904D02*
X274059320Y-83367809D01*
X274059320Y-83367809D02*
X274097415Y-83329714D01*
X274097415Y-83329714D02*
X274135510Y-83253523D01*
X274135510Y-83253523D02*
X274173606Y-83101142D01*
X274173606Y-83101142D02*
X274173606Y-82910666D01*
X274173606Y-82910666D02*
X274135510Y-82758285D01*
X274135510Y-82758285D02*
X274097415Y-82682095D01*
X274097415Y-82682095D02*
X274059320Y-82644000D01*
X274059320Y-82644000D02*
X273983129Y-82605904D01*
%TO.C,D41*%
X294652415Y-83405904D02*
X294652415Y-82605904D01*
X294652415Y-82605904D02*
X294461939Y-82605904D01*
X294461939Y-82605904D02*
X294347653Y-82644000D01*
X294347653Y-82644000D02*
X294271463Y-82720190D01*
X294271463Y-82720190D02*
X294233368Y-82796380D01*
X294233368Y-82796380D02*
X294195272Y-82948761D01*
X294195272Y-82948761D02*
X294195272Y-83063047D01*
X294195272Y-83063047D02*
X294233368Y-83215428D01*
X294233368Y-83215428D02*
X294271463Y-83291619D01*
X294271463Y-83291619D02*
X294347653Y-83367809D01*
X294347653Y-83367809D02*
X294461939Y-83405904D01*
X294461939Y-83405904D02*
X294652415Y-83405904D01*
X293509558Y-82872571D02*
X293509558Y-83405904D01*
X293700034Y-82567809D02*
X293890511Y-83139238D01*
X293890511Y-83139238D02*
X293395272Y-83139238D01*
X292671463Y-83405904D02*
X293128606Y-83405904D01*
X292900034Y-83405904D02*
X292900034Y-82605904D01*
X292900034Y-82605904D02*
X292976225Y-82720190D01*
X292976225Y-82720190D02*
X293052415Y-82796380D01*
X293052415Y-82796380D02*
X293128606Y-82834476D01*
%TO.C,D27*%
X294652415Y-64175904D02*
X294652415Y-63375904D01*
X294652415Y-63375904D02*
X294461939Y-63375904D01*
X294461939Y-63375904D02*
X294347653Y-63414000D01*
X294347653Y-63414000D02*
X294271463Y-63490190D01*
X294271463Y-63490190D02*
X294233368Y-63566380D01*
X294233368Y-63566380D02*
X294195272Y-63718761D01*
X294195272Y-63718761D02*
X294195272Y-63833047D01*
X294195272Y-63833047D02*
X294233368Y-63985428D01*
X294233368Y-63985428D02*
X294271463Y-64061619D01*
X294271463Y-64061619D02*
X294347653Y-64137809D01*
X294347653Y-64137809D02*
X294461939Y-64175904D01*
X294461939Y-64175904D02*
X294652415Y-64175904D01*
X293890511Y-63452095D02*
X293852415Y-63414000D01*
X293852415Y-63414000D02*
X293776225Y-63375904D01*
X293776225Y-63375904D02*
X293585749Y-63375904D01*
X293585749Y-63375904D02*
X293509558Y-63414000D01*
X293509558Y-63414000D02*
X293471463Y-63452095D01*
X293471463Y-63452095D02*
X293433368Y-63528285D01*
X293433368Y-63528285D02*
X293433368Y-63604476D01*
X293433368Y-63604476D02*
X293471463Y-63718761D01*
X293471463Y-63718761D02*
X293928606Y-64175904D01*
X293928606Y-64175904D02*
X293433368Y-64175904D01*
X293166701Y-63375904D02*
X292633367Y-63375904D01*
X292633367Y-63375904D02*
X292976225Y-64175904D01*
D11*
%TO.C,D56*%
X301750000Y-97465000D02*
X303250000Y-97465000D01*
X303250000Y-97465000D02*
X303250000Y-92065000D01*
X302000000Y-95265000D02*
X303000000Y-95265000D01*
X302500000Y-95165000D02*
X302000000Y-94265000D01*
X302000000Y-94265000D02*
X303000000Y-94265000D01*
X303000000Y-94265000D02*
X302500000Y-95165000D01*
X301750000Y-92065000D02*
X301750000Y-97465000D01*
X303250000Y-92065000D02*
X301750000Y-92065000D01*
%TO.C,D38*%
X233885987Y-80862000D02*
X233885987Y-82362000D01*
X233885987Y-82362000D02*
X239285987Y-82362000D01*
X236085987Y-81112000D02*
X236085987Y-82112000D01*
X236185987Y-81612000D02*
X237085987Y-81112000D01*
X237085987Y-81112000D02*
X237085987Y-82112000D01*
X237085987Y-82112000D02*
X236185987Y-81612000D01*
X239285987Y-80862000D02*
X233885987Y-80862000D01*
X239285987Y-82362000D02*
X239285987Y-80862000D01*
%TO.C,D53*%
X253000987Y-99542000D02*
X253000987Y-101042000D01*
X253000987Y-101042000D02*
X258400987Y-101042000D01*
X255200987Y-99792000D02*
X255200987Y-100792000D01*
X255300987Y-100292000D02*
X256200987Y-99792000D01*
X256200987Y-99792000D02*
X256200987Y-100792000D01*
X256200987Y-100792000D02*
X255300987Y-100292000D01*
X258400987Y-99542000D02*
X253000987Y-99542000D01*
X258400987Y-101042000D02*
X258400987Y-99542000D01*
%TO.C,D9*%
X206466200Y-44353000D02*
X207966200Y-44353000D01*
X207966200Y-44353000D02*
X207966200Y-38953000D01*
X206716200Y-42153000D02*
X207716200Y-42153000D01*
X207216200Y-42053000D02*
X206716200Y-41153000D01*
X206716200Y-41153000D02*
X207716200Y-41153000D01*
X207716200Y-41153000D02*
X207216200Y-42053000D01*
X206466200Y-38953000D02*
X206466200Y-44353000D01*
X207966200Y-38953000D02*
X206466200Y-38953000D01*
%TO.C,D55*%
X282630000Y-97565000D02*
X284130000Y-97565000D01*
X284130000Y-97565000D02*
X284130000Y-92165000D01*
X282880000Y-95365000D02*
X283880000Y-95365000D01*
X283380000Y-95265000D02*
X282880000Y-94365000D01*
X282880000Y-94365000D02*
X283880000Y-94365000D01*
X283880000Y-94365000D02*
X283380000Y-95265000D01*
X282630000Y-92165000D02*
X282630000Y-97565000D01*
X284130000Y-92165000D02*
X282630000Y-92165000D01*
%TO.C,D36*%
X195750987Y-80862000D02*
X195750987Y-82362000D01*
X195750987Y-82362000D02*
X201150987Y-82362000D01*
X197950987Y-81112000D02*
X197950987Y-82112000D01*
X198050987Y-81612000D02*
X198950987Y-81112000D01*
X198950987Y-81112000D02*
X198950987Y-82112000D01*
X198950987Y-82112000D02*
X198050987Y-81612000D01*
X201150987Y-80862000D02*
X195750987Y-80862000D01*
X201150987Y-82362000D02*
X201150987Y-80862000D01*
%TO.C,D62*%
X214800987Y-118612000D02*
X214800987Y-120112000D01*
X214800987Y-120112000D02*
X220200987Y-120112000D01*
X217000987Y-118862000D02*
X217000987Y-119862000D01*
X217100987Y-119362000D02*
X218000987Y-118862000D01*
X218000987Y-118862000D02*
X218000987Y-119862000D01*
X218000987Y-119862000D02*
X217100987Y-119362000D01*
X220200987Y-118612000D02*
X214800987Y-118612000D01*
X220200987Y-120112000D02*
X220200987Y-118612000D01*
%TO.C,D13*%
X290980987Y-42412000D02*
X290980987Y-43912000D01*
X290980987Y-43912000D02*
X296380987Y-43912000D01*
X293180987Y-42662000D02*
X293180987Y-43662000D01*
X293280987Y-43162000D02*
X294180987Y-42662000D01*
X294180987Y-42662000D02*
X294180987Y-43662000D01*
X294180987Y-43662000D02*
X293280987Y-43162000D01*
X296380987Y-42412000D02*
X290980987Y-42412000D01*
X296380987Y-43912000D02*
X296380987Y-42412000D01*
%TO.C,D54*%
X263410000Y-97465000D02*
X264910000Y-97465000D01*
X264910000Y-97465000D02*
X264910000Y-92065000D01*
X263660000Y-95265000D02*
X264660000Y-95265000D01*
X264160000Y-95165000D02*
X263660000Y-94265000D01*
X263660000Y-94265000D02*
X264660000Y-94265000D01*
X264660000Y-94265000D02*
X264160000Y-95165000D01*
X263410000Y-92065000D02*
X263410000Y-97465000D01*
X264910000Y-92065000D02*
X263410000Y-92065000D01*
%TO.C,D64*%
X253000987Y-118612000D02*
X253000987Y-120112000D01*
X253000987Y-120112000D02*
X258400987Y-120112000D01*
X255200987Y-118862000D02*
X255200987Y-119862000D01*
X255300987Y-119362000D02*
X256200987Y-118862000D01*
X256200987Y-118862000D02*
X256200987Y-119862000D01*
X256200987Y-119862000D02*
X255300987Y-119362000D01*
X258400987Y-118612000D02*
X253000987Y-118612000D01*
X258400987Y-120112000D02*
X258400987Y-118612000D01*
%TO.C,D23*%
X214800987Y-61732000D02*
X214800987Y-63232000D01*
X214800987Y-63232000D02*
X220200987Y-63232000D01*
X217000987Y-61982000D02*
X217000987Y-62982000D01*
X217100987Y-62482000D02*
X218000987Y-61982000D01*
X218000987Y-61982000D02*
X218000987Y-62982000D01*
X218000987Y-62982000D02*
X217100987Y-62482000D01*
X220200987Y-61732000D02*
X214800987Y-61732000D01*
X220200987Y-63232000D02*
X220200987Y-61732000D01*
%TO.C,D63*%
X233885987Y-118612000D02*
X233885987Y-120112000D01*
X233885987Y-120112000D02*
X239285987Y-120112000D01*
X236085987Y-118862000D02*
X236085987Y-119862000D01*
X236185987Y-119362000D02*
X237085987Y-118862000D01*
X237085987Y-118862000D02*
X237085987Y-119862000D01*
X237085987Y-119862000D02*
X236185987Y-119362000D01*
X239285987Y-118612000D02*
X233885987Y-118612000D01*
X239285987Y-120112000D02*
X239285987Y-118612000D01*
%TO.C,D50*%
X195750987Y-99542000D02*
X195750987Y-101042000D01*
X195750987Y-101042000D02*
X201150987Y-101042000D01*
X197950987Y-99792000D02*
X197950987Y-100792000D01*
X198050987Y-100292000D02*
X198950987Y-99792000D01*
X198950987Y-99792000D02*
X198950987Y-100792000D01*
X198950987Y-100792000D02*
X198050987Y-100292000D01*
X201150987Y-99542000D02*
X195750987Y-99542000D01*
X201150987Y-101042000D02*
X201150987Y-99542000D01*
%TO.C,D10*%
X233885987Y-42412000D02*
X233885987Y-43912000D01*
X233885987Y-43912000D02*
X239285987Y-43912000D01*
X236085987Y-42662000D02*
X236085987Y-43662000D01*
X236185987Y-43162000D02*
X237085987Y-42662000D01*
X237085987Y-42662000D02*
X237085987Y-43662000D01*
X237085987Y-43662000D02*
X236185987Y-43162000D01*
X239285987Y-42412000D02*
X233885987Y-42412000D01*
X239285987Y-43912000D02*
X239285987Y-42412000D01*
%TO.C,D61*%
X195750987Y-118612000D02*
X195750987Y-120112000D01*
X195750987Y-120112000D02*
X201150987Y-120112000D01*
X197950987Y-118862000D02*
X197950987Y-119862000D01*
X198050987Y-119362000D02*
X198950987Y-118862000D01*
X198950987Y-118862000D02*
X198950987Y-119862000D01*
X198950987Y-119862000D02*
X198050987Y-119362000D01*
X201150987Y-118612000D02*
X195750987Y-118612000D01*
X201150987Y-120112000D02*
X201150987Y-118612000D01*
%TO.C,D51*%
X214800987Y-99542000D02*
X214800987Y-101042000D01*
X214800987Y-101042000D02*
X220200987Y-101042000D01*
X217000987Y-99792000D02*
X217000987Y-100792000D01*
X217100987Y-100292000D02*
X218000987Y-99792000D01*
X218000987Y-99792000D02*
X218000987Y-100792000D01*
X218000987Y-100792000D02*
X217100987Y-100292000D01*
X220200987Y-99542000D02*
X214800987Y-99542000D01*
X220200987Y-101042000D02*
X220200987Y-99542000D01*
%TO.C,J2*%
X203050050Y-20506500D02*
X209050050Y-20506500D01*
X203050050Y-32506500D02*
X203050050Y-20506500D01*
X209050050Y-20506500D02*
X209050050Y-32506500D01*
X209050050Y-32506500D02*
X203050050Y-32506500D01*
%TO.C,D24*%
X233885987Y-61732000D02*
X233885987Y-63232000D01*
X233885987Y-63232000D02*
X239285987Y-63232000D01*
X236085987Y-61982000D02*
X236085987Y-62982000D01*
X236185987Y-62482000D02*
X237085987Y-61982000D01*
X237085987Y-61982000D02*
X237085987Y-62982000D01*
X237085987Y-62982000D02*
X236185987Y-62482000D01*
X239285987Y-61732000D02*
X233885987Y-61732000D01*
X239285987Y-63232000D02*
X239285987Y-61732000D01*
%TO.C,D25*%
X253000987Y-61732000D02*
X253000987Y-63232000D01*
X253000987Y-63232000D02*
X258400987Y-63232000D01*
X255200987Y-61982000D02*
X255200987Y-62982000D01*
X255300987Y-62482000D02*
X256200987Y-61982000D01*
X256200987Y-61982000D02*
X256200987Y-62982000D01*
X256200987Y-62982000D02*
X255300987Y-62482000D01*
X258400987Y-61732000D02*
X253000987Y-61732000D01*
X258400987Y-63232000D02*
X258400987Y-61732000D01*
%TO.C,D8*%
X195750987Y-42412000D02*
X195750987Y-43912000D01*
X195750987Y-43912000D02*
X201150987Y-43912000D01*
X197950987Y-42662000D02*
X197950987Y-43662000D01*
X198050987Y-43162000D02*
X198950987Y-42662000D01*
X198950987Y-42662000D02*
X198950987Y-43662000D01*
X198950987Y-43662000D02*
X198050987Y-43162000D01*
X201150987Y-42412000D02*
X195750987Y-42412000D01*
X201150987Y-43912000D02*
X201150987Y-42412000D01*
%TO.C,D37*%
X214800987Y-80862000D02*
X214800987Y-82362000D01*
X214800987Y-82362000D02*
X220200987Y-82362000D01*
X217000987Y-81112000D02*
X217000987Y-82112000D01*
X217100987Y-81612000D02*
X218000987Y-81112000D01*
X218000987Y-81112000D02*
X218000987Y-82112000D01*
X218000987Y-82112000D02*
X217100987Y-81612000D01*
X220200987Y-80862000D02*
X214800987Y-80862000D01*
X220200987Y-82362000D02*
X220200987Y-80862000D01*
%TO.C,D12*%
X272025987Y-42412000D02*
X272025987Y-43912000D01*
X272025987Y-43912000D02*
X277425987Y-43912000D01*
X274225987Y-42662000D02*
X274225987Y-43662000D01*
X274325987Y-43162000D02*
X275225987Y-42662000D01*
X275225987Y-42662000D02*
X275225987Y-43662000D01*
X275225987Y-43662000D02*
X274325987Y-43162000D01*
X277425987Y-42412000D02*
X272025987Y-42412000D01*
X277425987Y-43912000D02*
X277425987Y-42412000D01*
%TO.C,D11*%
X253000987Y-42412000D02*
X253000987Y-43912000D01*
X253000987Y-43912000D02*
X258400987Y-43912000D01*
X255200987Y-42662000D02*
X255200987Y-43662000D01*
X255300987Y-43162000D02*
X256200987Y-42662000D01*
X256200987Y-42662000D02*
X256200987Y-43662000D01*
X256200987Y-43662000D02*
X255300987Y-43162000D01*
X258400987Y-42412000D02*
X253000987Y-42412000D01*
X258400987Y-43912000D02*
X258400987Y-42412000D01*
D13*
%TO.C,A2*%
X227186000Y-44465200D02*
X209186000Y-44465200D01*
X227186000Y-20965200D02*
X227186000Y-44465200D01*
X227186000Y-20965200D02*
X209186000Y-20965200D01*
X209186000Y-20965200D02*
X209186000Y-44465200D01*
D11*
%TO.C,D39*%
X253000987Y-80862000D02*
X253000987Y-82362000D01*
X253000987Y-82362000D02*
X258400987Y-82362000D01*
X255200987Y-81112000D02*
X255200987Y-82112000D01*
X255300987Y-81612000D02*
X256200987Y-81112000D01*
X256200987Y-81112000D02*
X256200987Y-82112000D01*
X256200987Y-82112000D02*
X255300987Y-81612000D01*
X258400987Y-80862000D02*
X253000987Y-80862000D01*
X258400987Y-82362000D02*
X258400987Y-80862000D01*
%TO.C,D22*%
X195750987Y-61732000D02*
X195750987Y-63232000D01*
X195750987Y-63232000D02*
X201150987Y-63232000D01*
X197950987Y-61982000D02*
X197950987Y-62982000D01*
X198050987Y-62482000D02*
X198950987Y-61982000D01*
X198950987Y-61982000D02*
X198950987Y-62982000D01*
X198950987Y-62982000D02*
X198050987Y-62482000D01*
X201150987Y-61732000D02*
X195750987Y-61732000D01*
X201150987Y-63232000D02*
X201150987Y-61732000D01*
%TO.C,D28*%
X310065987Y-61732000D02*
X310065987Y-63232000D01*
X310065987Y-63232000D02*
X315465987Y-63232000D01*
X312265987Y-61982000D02*
X312265987Y-62982000D01*
X312365987Y-62482000D02*
X313265987Y-61982000D01*
X313265987Y-61982000D02*
X313265987Y-62982000D01*
X313265987Y-62982000D02*
X312365987Y-62482000D01*
X315465987Y-61732000D02*
X310065987Y-61732000D01*
X315465987Y-63232000D02*
X315465987Y-61732000D01*
%TO.C,D52*%
X233885987Y-99542000D02*
X233885987Y-101042000D01*
X233885987Y-101042000D02*
X239285987Y-101042000D01*
X236085987Y-99792000D02*
X236085987Y-100792000D01*
X236185987Y-100292000D02*
X237085987Y-99792000D01*
X237085987Y-99792000D02*
X237085987Y-100792000D01*
X237085987Y-100792000D02*
X236185987Y-100292000D01*
X239285987Y-99542000D02*
X233885987Y-99542000D01*
X239285987Y-101042000D02*
X239285987Y-99542000D01*
%TO.C,D42*%
X310065987Y-80862000D02*
X310065987Y-82362000D01*
X310065987Y-82362000D02*
X315465987Y-82362000D01*
X312265987Y-81112000D02*
X312265987Y-82112000D01*
X312365987Y-81612000D02*
X313265987Y-81112000D01*
X313265987Y-81112000D02*
X313265987Y-82112000D01*
X313265987Y-82112000D02*
X312365987Y-81612000D01*
X315465987Y-80862000D02*
X310065987Y-80862000D01*
X315465987Y-82362000D02*
X315465987Y-80862000D01*
%TO.C,D26*%
X272025987Y-61732000D02*
X272025987Y-63232000D01*
X272025987Y-63232000D02*
X277425987Y-63232000D01*
X274225987Y-61982000D02*
X274225987Y-62982000D01*
X274325987Y-62482000D02*
X275225987Y-61982000D01*
X275225987Y-61982000D02*
X275225987Y-62982000D01*
X275225987Y-62982000D02*
X274325987Y-62482000D01*
X277425987Y-61732000D02*
X272025987Y-61732000D01*
X277425987Y-63232000D02*
X277425987Y-61732000D01*
%TO.C,D14*%
X310065987Y-42412000D02*
X310065987Y-43912000D01*
X310065987Y-43912000D02*
X315465987Y-43912000D01*
X312265987Y-42662000D02*
X312265987Y-43662000D01*
X312365987Y-43162000D02*
X313265987Y-42662000D01*
X313265987Y-42662000D02*
X313265987Y-43662000D01*
X313265987Y-43662000D02*
X312365987Y-43162000D01*
X315465987Y-42412000D02*
X310065987Y-42412000D01*
X315465987Y-43912000D02*
X315465987Y-42412000D01*
%TO.C,D40*%
X272025987Y-80862000D02*
X272025987Y-82362000D01*
X272025987Y-82362000D02*
X277425987Y-82362000D01*
X274225987Y-81112000D02*
X274225987Y-82112000D01*
X274325987Y-81612000D02*
X275225987Y-81112000D01*
X275225987Y-81112000D02*
X275225987Y-82112000D01*
X275225987Y-82112000D02*
X274325987Y-81612000D01*
X277425987Y-80862000D02*
X272025987Y-80862000D01*
X277425987Y-82362000D02*
X277425987Y-80862000D01*
%TO.C,D41*%
X290980987Y-80862000D02*
X290980987Y-82362000D01*
X290980987Y-82362000D02*
X296380987Y-82362000D01*
X293180987Y-81112000D02*
X293180987Y-82112000D01*
X293280987Y-81612000D02*
X294180987Y-81112000D01*
X294180987Y-81112000D02*
X294180987Y-82112000D01*
X294180987Y-82112000D02*
X293280987Y-81612000D01*
X296380987Y-80862000D02*
X290980987Y-80862000D01*
X296380987Y-82362000D02*
X296380987Y-80862000D01*
%TO.C,D27*%
X290980987Y-61732000D02*
X290980987Y-63232000D01*
X290980987Y-63232000D02*
X296380987Y-63232000D01*
X293180987Y-61982000D02*
X293180987Y-62982000D01*
X293280987Y-62482000D02*
X294180987Y-61982000D01*
X294180987Y-61982000D02*
X294180987Y-62982000D01*
X294180987Y-62982000D02*
X293280987Y-62482000D01*
X296380987Y-61732000D02*
X290980987Y-61732000D01*
X296380987Y-63232000D02*
X296380987Y-61732000D01*
%TD*%
M02*
