%TF.GenerationSoftware,KiCad,Pcbnew,(7.0.0-0)*%
%TF.CreationDate,2023-04-16T10:11:04+09:00*%
%TF.ProjectId,pcb,7063622e-6b69-4636-9164-5f7063625858,rev?*%
%TF.SameCoordinates,Original*%
%TF.FileFunction,Soldermask,Bot*%
%TF.FilePolarity,Negative*%
%FSLAX46Y46*%
G04 Gerber Fmt 4.6, Leading zero omitted, Abs format (unit mm)*
G04 Created by KiCad (PCBNEW (7.0.0-0)) date 2023-04-16 10:11:04*
%MOMM*%
%LPD*%
G01*
G04 APERTURE LIST*
G04 Aperture macros list*
%AMRoundRect*
0 Rectangle with rounded corners*
0 $1 Rounding radius*
0 $2 $3 $4 $5 $6 $7 $8 $9 X,Y pos of 4 corners*
0 Add a 4 corners polygon primitive as box body*
4,1,4,$2,$3,$4,$5,$6,$7,$8,$9,$2,$3,0*
0 Add four circle primitives for the rounded corners*
1,1,$1+$1,$2,$3*
1,1,$1+$1,$4,$5*
1,1,$1+$1,$6,$7*
1,1,$1+$1,$8,$9*
0 Add four rect primitives between the rounded corners*
20,1,$1+$1,$2,$3,$4,$5,0*
20,1,$1+$1,$4,$5,$6,$7,0*
20,1,$1+$1,$6,$7,$8,$9,0*
20,1,$1+$1,$8,$9,$2,$3,0*%
G04 Aperture macros list end*
%ADD10C,1.900000*%
%ADD11C,4.000000*%
%ADD12O,2.500000X2.000000*%
%ADD13R,0.950000X1.300000*%
%ADD14R,1.300000X0.950000*%
%ADD15C,1.210000*%
%ADD16O,1.300000X2.200000*%
%ADD17RoundRect,0.756000X0.000000X-0.006000X0.000000X-0.006000X0.000000X0.006000X0.000000X0.006000X0*%
%ADD18RoundRect,0.756000X0.006000X0.000000X0.006000X0.000000X-0.006000X0.000000X-0.006000X0.000000X0*%
%ADD19RoundRect,0.756000X0.000000X0.006000X0.000000X0.006000X0.000000X-0.006000X0.000000X-0.006000X0*%
G04 APERTURE END LIST*
D10*
%TO.C,SW54*%
X268835987Y-95212000D03*
D11*
X273915987Y-95212000D03*
D10*
X278995987Y-95212000D03*
D12*
X270105986Y-92671999D03*
X276455986Y-90131999D03*
%TD*%
D13*
%TO.C,D56*%
X302499999Y-96539999D03*
X302499999Y-92989999D03*
%TD*%
D14*
%TO.C,D38*%
X234810986Y-81611999D03*
X238360986Y-81611999D03*
%TD*%
D10*
%TO.C,SW62*%
X211635987Y-114262000D03*
D11*
X216715987Y-114262000D03*
D10*
X221795987Y-114262000D03*
D12*
X212905986Y-111721999D03*
X219255986Y-109181999D03*
%TD*%
D10*
%TO.C,SW23*%
X211635987Y-57112000D03*
D11*
X216715987Y-57112000D03*
D10*
X221795987Y-57112000D03*
D12*
X212905986Y-54571999D03*
X219255986Y-52031999D03*
%TD*%
D14*
%TO.C,D53*%
X253925986Y-100291999D03*
X257475986Y-100291999D03*
%TD*%
D13*
%TO.C,D9*%
X207216199Y-43427999D03*
X207216199Y-39877999D03*
%TD*%
D10*
%TO.C,SW12*%
X268835987Y-38062000D03*
D11*
X273915987Y-38062000D03*
D10*
X278995987Y-38062000D03*
D12*
X270105986Y-35521999D03*
X276455986Y-32981999D03*
%TD*%
D10*
%TO.C,SW40*%
X268835987Y-76162000D03*
D11*
X273915987Y-76162000D03*
D10*
X278995987Y-76162000D03*
D12*
X270105986Y-73621999D03*
X276455986Y-71081999D03*
%TD*%
D13*
%TO.C,D55*%
X283379999Y-96639999D03*
X283379999Y-93089999D03*
%TD*%
D14*
%TO.C,D36*%
X196675986Y-81611999D03*
X200225986Y-81611999D03*
%TD*%
%TO.C,D62*%
X215725986Y-119361999D03*
X219275986Y-119361999D03*
%TD*%
%TO.C,D13*%
X291905986Y-43161999D03*
X295455986Y-43161999D03*
%TD*%
D10*
%TO.C,SW53*%
X249835987Y-95212000D03*
D11*
X254915987Y-95212000D03*
D10*
X259995987Y-95212000D03*
D12*
X251105986Y-92671999D03*
X257455986Y-90131999D03*
%TD*%
D13*
%TO.C,D54*%
X264159999Y-96539999D03*
X264159999Y-92989999D03*
%TD*%
D14*
%TO.C,D64*%
X253925986Y-119361999D03*
X257475986Y-119361999D03*
%TD*%
D10*
%TO.C,SW28*%
X306935987Y-57112000D03*
D11*
X312015987Y-57112000D03*
D10*
X317095987Y-57112000D03*
D12*
X308205986Y-54571999D03*
X314555986Y-52031999D03*
%TD*%
D10*
%TO.C,SW51*%
X211635987Y-95212000D03*
D11*
X216715987Y-95212000D03*
D10*
X221795987Y-95212000D03*
D12*
X212905986Y-92671999D03*
X219255986Y-90131999D03*
%TD*%
D14*
%TO.C,D23*%
X215725986Y-62481999D03*
X219275986Y-62481999D03*
%TD*%
D10*
%TO.C,SW37*%
X211635987Y-76162000D03*
D11*
X216715987Y-76162000D03*
D10*
X221795987Y-76162000D03*
D12*
X212905986Y-73621999D03*
X219255986Y-71081999D03*
%TD*%
D10*
%TO.C,SW56*%
X306935987Y-95212000D03*
D11*
X312015987Y-95212000D03*
D10*
X317095987Y-95212000D03*
D12*
X308205986Y-92671999D03*
X314555986Y-90131999D03*
%TD*%
D14*
%TO.C,D63*%
X234810986Y-119361999D03*
X238360986Y-119361999D03*
%TD*%
D10*
%TO.C,SW9*%
X211635987Y-38062000D03*
D11*
X216715987Y-38062000D03*
D10*
X221795987Y-38062000D03*
D12*
X212905986Y-35521999D03*
X219255986Y-32981999D03*
%TD*%
D10*
%TO.C,SW27*%
X287835987Y-57112000D03*
D11*
X292915987Y-57112000D03*
D10*
X297995987Y-57112000D03*
D12*
X289105986Y-54571999D03*
X295455986Y-52031999D03*
%TD*%
D10*
%TO.C,SW14*%
X306935987Y-38062000D03*
D11*
X312015987Y-38062000D03*
D10*
X317095987Y-38062000D03*
D12*
X308205986Y-35521999D03*
X314555986Y-32981999D03*
%TD*%
D10*
%TO.C,SW50*%
X192635987Y-95212000D03*
D11*
X197715987Y-95212000D03*
D10*
X202795987Y-95212000D03*
D12*
X193905986Y-92671999D03*
X200255986Y-90131999D03*
%TD*%
D10*
%TO.C,SW38*%
X230735987Y-76162000D03*
D11*
X235815987Y-76162000D03*
D10*
X240895987Y-76162000D03*
D12*
X232005986Y-73621999D03*
X238355986Y-71081999D03*
%TD*%
D10*
%TO.C,SW11*%
X249835987Y-38062000D03*
D11*
X254915987Y-38062000D03*
D10*
X259995987Y-38062000D03*
D12*
X251105986Y-35521999D03*
X257455986Y-32981999D03*
%TD*%
D14*
%TO.C,D50*%
X196675986Y-100291999D03*
X200225986Y-100291999D03*
%TD*%
D10*
%TO.C,SW52*%
X230735987Y-95212000D03*
D11*
X235815987Y-95212000D03*
D10*
X240895987Y-95212000D03*
D12*
X232005986Y-92671999D03*
X238355986Y-90131999D03*
%TD*%
D14*
%TO.C,D10*%
X234810986Y-43161999D03*
X238360986Y-43161999D03*
%TD*%
D10*
%TO.C,SW39*%
X249835987Y-76162000D03*
D11*
X254915987Y-76162000D03*
D10*
X259995987Y-76162000D03*
D12*
X251105986Y-73621999D03*
X257455986Y-71081999D03*
%TD*%
D14*
%TO.C,D61*%
X196675986Y-119361999D03*
X200225986Y-119361999D03*
%TD*%
D10*
%TO.C,SW55*%
X287835987Y-95212000D03*
D11*
X292915987Y-95212000D03*
D10*
X297995987Y-95212000D03*
D12*
X289105986Y-92671999D03*
X295455986Y-90131999D03*
%TD*%
D10*
%TO.C,SW24*%
X230735987Y-57112000D03*
D11*
X235815987Y-57112000D03*
D10*
X240895987Y-57112000D03*
D12*
X232005986Y-54571999D03*
X238355986Y-52031999D03*
%TD*%
D14*
%TO.C,D51*%
X215725986Y-100291999D03*
X219275986Y-100291999D03*
%TD*%
D10*
%TO.C,SW25*%
X249835987Y-57112000D03*
D11*
X254915987Y-57112000D03*
D10*
X259995987Y-57112000D03*
D12*
X251105986Y-54571999D03*
X257455986Y-52031999D03*
%TD*%
D15*
%TO.C,J2*%
X206068800Y-22120000D03*
X206068800Y-29120000D03*
D16*
X208068799Y-32419999D03*
X204068799Y-23919999D03*
X204068799Y-26919999D03*
X204068799Y-30919999D03*
%TD*%
D14*
%TO.C,D24*%
X234810986Y-62481999D03*
X238360986Y-62481999D03*
%TD*%
%TO.C,D25*%
X253925986Y-62481999D03*
X257475986Y-62481999D03*
%TD*%
D10*
%TO.C,SW10*%
X230735987Y-38062000D03*
D11*
X235815987Y-38062000D03*
D10*
X240895987Y-38062000D03*
D12*
X232005986Y-35521999D03*
X238355986Y-32981999D03*
%TD*%
D14*
%TO.C,D8*%
X196675986Y-43161999D03*
X200225986Y-43161999D03*
%TD*%
D10*
%TO.C,SW64*%
X249835987Y-114262000D03*
D11*
X254915987Y-114262000D03*
D10*
X259995987Y-114262000D03*
D12*
X251105986Y-111721999D03*
X257455986Y-109181999D03*
%TD*%
D14*
%TO.C,D37*%
X215725986Y-81611999D03*
X219275986Y-81611999D03*
%TD*%
%TO.C,D12*%
X272950986Y-43161999D03*
X276500986Y-43161999D03*
%TD*%
D10*
%TO.C,SW41*%
X287835987Y-76162000D03*
D11*
X292915987Y-76162000D03*
D10*
X297995987Y-76162000D03*
D12*
X289105986Y-73621999D03*
X295455986Y-71081999D03*
%TD*%
D10*
%TO.C,SW42*%
X306935987Y-76162000D03*
D11*
X312015987Y-76162000D03*
D10*
X317095987Y-76162000D03*
D12*
X308205986Y-73621999D03*
X314555986Y-71081999D03*
%TD*%
D14*
%TO.C,D11*%
X253925986Y-43161999D03*
X257475986Y-43161999D03*
%TD*%
D10*
%TO.C,SW36*%
X192635987Y-76162000D03*
D11*
X197715987Y-76162000D03*
D10*
X202795987Y-76162000D03*
D12*
X193905986Y-73621999D03*
X200255986Y-71081999D03*
%TD*%
D10*
%TO.C,SW63*%
X230735987Y-114262000D03*
D11*
X235815987Y-114262000D03*
D10*
X240895987Y-114262000D03*
D12*
X232005986Y-111721999D03*
X238355986Y-109181999D03*
%TD*%
D17*
%TO.C,A2*%
X210560000Y-22555200D03*
X210560000Y-25095200D03*
X210560000Y-27635200D03*
X210560000Y-30175200D03*
X210560000Y-40335200D03*
X210560000Y-42875200D03*
D18*
X213106000Y-42881200D03*
X215646000Y-42881200D03*
X218186000Y-42881200D03*
X220726000Y-42881200D03*
X223266000Y-42881200D03*
D19*
X225812000Y-42875200D03*
X225812000Y-40335200D03*
X225812000Y-30175200D03*
X225812000Y-27635200D03*
X225812000Y-22555200D03*
X225812000Y-25095200D03*
%TD*%
D14*
%TO.C,D39*%
X253925986Y-81611999D03*
X257475986Y-81611999D03*
%TD*%
D10*
%TO.C,SW13*%
X287835987Y-38062000D03*
D11*
X292915987Y-38062000D03*
D10*
X297995987Y-38062000D03*
D12*
X289105986Y-35521999D03*
X295455986Y-32981999D03*
%TD*%
D14*
%TO.C,D22*%
X196675986Y-62481999D03*
X200225986Y-62481999D03*
%TD*%
D10*
%TO.C,SW8*%
X192635987Y-38062000D03*
D11*
X197715987Y-38062000D03*
D10*
X202795987Y-38062000D03*
D12*
X193905986Y-35521999D03*
X200255986Y-32981999D03*
%TD*%
D14*
%TO.C,D28*%
X310990986Y-62481999D03*
X314540986Y-62481999D03*
%TD*%
%TO.C,D52*%
X234810986Y-100291999D03*
X238360986Y-100291999D03*
%TD*%
%TO.C,D42*%
X310990986Y-81611999D03*
X314540986Y-81611999D03*
%TD*%
%TO.C,D26*%
X272950986Y-62481999D03*
X276500986Y-62481999D03*
%TD*%
%TO.C,D14*%
X310990986Y-43161999D03*
X314540986Y-43161999D03*
%TD*%
D10*
%TO.C,SW61*%
X192635987Y-114262000D03*
D11*
X197715987Y-114262000D03*
D10*
X202795987Y-114262000D03*
D12*
X193905986Y-111721999D03*
X200255986Y-109181999D03*
%TD*%
D10*
%TO.C,SW26*%
X268835987Y-57112000D03*
D11*
X273915987Y-57112000D03*
D10*
X278995987Y-57112000D03*
D12*
X270105986Y-54571999D03*
X276455986Y-52031999D03*
%TD*%
D10*
%TO.C,SW22*%
X192635987Y-57112000D03*
D11*
X197715987Y-57112000D03*
D10*
X202795987Y-57112000D03*
D12*
X193905986Y-54571999D03*
X200255986Y-52031999D03*
%TD*%
D14*
%TO.C,D40*%
X272950986Y-81611999D03*
X276500986Y-81611999D03*
%TD*%
%TO.C,D41*%
X291905986Y-81611999D03*
X295455986Y-81611999D03*
%TD*%
%TO.C,D27*%
X291905986Y-62481999D03*
X295455986Y-62481999D03*
%TD*%
M02*
