M48
; DRILL file {KiCad (7.0.0-0)} date Sunday, April 16, 2023 10:11:01
; FORMAT={-:-/ absolute / inch / decimal}
; #@! TF.CreationDate,2023-04-16T10:11:01+09:00
; #@! TF.GenerationSoftware,Kicad,Pcbnew,(7.0.0-0)
; #@! TF.FileFunction,Plated,1,2,PTH
FMAT,2
INCH
; #@! TA.AperFunction,Plated,PTH,ViaDrill
T1C0.0157
; #@! TA.AperFunction,Plated,PTH,ComponentDrill
T2C0.0236
; #@! TA.AperFunction,Plated,PTH,ComponentDrill
T3C0.0315
; #@! TA.AperFunction,Plated,PTH,ComponentDrill
T4C0.0394
%
G90
G05
T1
X7.8829Y-1.6993
X7.8829Y-2.4599
X7.8829Y-3.2131
X7.8829Y-3.9485
X7.8829Y-4.6993
X8.0Y-1.4
X8.0586Y-1.3414
X8.1581Y-1.57
X8.2Y-1.822
X8.2Y-4.6008
X8.2463Y-1.2985
X8.378Y-1.8
X8.4Y-1.8909
X8.472Y-1.8624
X8.6Y-1.8
X8.6329Y-2.4599
X8.6329Y-3.2131
X8.6329Y-3.9485
X8.6329Y-4.6993
X8.6386Y-1.1849
X8.7724Y-1.2
X8.8Y-1.3463
X8.8184Y-3.1816
X8.8426Y-1.2426
X9.0Y-1.4
X9.0Y-2.4
X9.2192Y-1.8
X9.3843Y-1.6993
X9.3843Y-2.4599
X9.3843Y-3.2131
X9.3843Y-3.9485
X9.3843Y-4.6993
X9.8Y-3.9009
X10.1368Y-1.6993
X10.1368Y-2.4599
X10.1368Y-3.2131
X10.1368Y-3.9485
X10.1368Y-4.6993
X10.4Y-1.6
X10.8859Y-1.6993
X10.8859Y-2.4599
X10.8859Y-3.2131
X11.1236Y-1.8909
X11.6321Y-1.6993
X11.6321Y-2.4599
X11.6321Y-3.2131
X12.3835Y-1.6993
X12.3835Y-2.4599
X12.3835Y-3.2131
T4
X8.29Y-0.888
X8.29Y-0.988
X8.29Y-1.088
X8.29Y-1.188
X8.29Y-1.588
X8.29Y-1.688
X8.39Y-1.688
X8.49Y-1.688
X8.59Y-1.688
X8.69Y-1.688
X8.79Y-1.688
X8.89Y-0.888
X8.89Y-0.988
X8.89Y-1.088
X8.89Y-1.188
X8.89Y-1.588
X8.89Y-1.688
T2
G00X8.0342Y-0.924
M15
G01X8.0342Y-0.9594
M16
G05
G00X8.0342Y-1.0421
M15
G01X8.0342Y-1.0776
M16
G05
G00X8.0342Y-1.1996
M15
G01X8.0342Y-1.235
M16
G05
G00X8.1917Y-1.2587
M15
G01X8.1917Y-1.2941
M16
G05
T3
G00X7.6262Y-1.3985
M15
G01X7.642Y-1.3985
M16
G05
G00X7.6262Y-2.1485
M15
G01X7.642Y-2.1485
M16
G05
G00X7.6262Y-2.8985
M15
G01X7.642Y-2.8985
M16
G05
G00X7.6262Y-3.6485
M15
G01X7.642Y-3.6485
M16
G05
G00X7.6262Y-4.3985
M15
G01X7.642Y-4.3985
M16
G05
G00X7.8762Y-1.2985
M15
G01X7.892Y-1.2985
M16
G05
G00X7.8762Y-2.0485
M15
G01X7.892Y-2.0485
M16
G05
G00X7.8762Y-2.7985
M15
G01X7.892Y-2.7985
M16
G05
G00X7.8762Y-3.5485
M15
G01X7.892Y-3.5485
M16
G05
G00X7.8762Y-4.2985
M15
G01X7.892Y-4.2985
M16
G05
G00X8.3743Y-1.3985
M15
G01X8.39Y-1.3985
M16
G05
G00X8.3743Y-2.1485
M15
G01X8.39Y-2.1485
M16
G05
G00X8.3743Y-2.8985
M15
G01X8.39Y-2.8985
M16
G05
G00X8.3743Y-3.6485
M15
G01X8.39Y-3.6485
M16
G05
G00X8.3743Y-4.3985
M15
G01X8.39Y-4.3985
M16
G05
G00X8.6243Y-1.2985
M15
G01X8.64Y-1.2985
M16
G05
G00X8.6243Y-2.0485
M15
G01X8.64Y-2.0485
M16
G05
G00X8.6243Y-2.7985
M15
G01X8.64Y-2.7985
M16
G05
G00X8.6243Y-3.5485
M15
G01X8.64Y-3.5485
M16
G05
G00X8.6243Y-4.2985
M15
G01X8.64Y-4.2985
M16
G05
G00X9.1262Y-1.3985
M15
G01X9.142Y-1.3985
M16
G05
G00X9.1262Y-2.1485
M15
G01X9.142Y-2.1485
M16
G05
G00X9.1262Y-2.8985
M15
G01X9.142Y-2.8985
M16
G05
G00X9.1262Y-3.6485
M15
G01X9.142Y-3.6485
M16
G05
G00X9.1262Y-4.3985
M15
G01X9.142Y-4.3985
M16
G05
G00X9.3762Y-1.2985
M15
G01X9.392Y-1.2985
M16
G05
G00X9.3762Y-2.0485
M15
G01X9.392Y-2.0485
M16
G05
G00X9.3762Y-2.7985
M15
G01X9.392Y-2.7985
M16
G05
G00X9.3762Y-3.5485
M15
G01X9.392Y-3.5485
M16
G05
G00X9.3762Y-4.2985
M15
G01X9.392Y-4.2985
M16
G05
G00X9.8782Y-1.3985
M15
G01X9.8939Y-1.3985
M16
G05
G00X9.8782Y-2.1485
M15
G01X9.8939Y-2.1485
M16
G05
G00X9.8782Y-2.8985
M15
G01X9.8939Y-2.8985
M16
G05
G00X9.8782Y-3.6485
M15
G01X9.8939Y-3.6485
M16
G05
G00X9.8782Y-4.3985
M15
G01X9.8939Y-4.3985
M16
G05
G00X10.1282Y-1.2985
M15
G01X10.1439Y-1.2985
M16
G05
G00X10.1282Y-2.0485
M15
G01X10.1439Y-2.0485
M16
G05
G00X10.1282Y-2.7985
M15
G01X10.1439Y-2.7985
M16
G05
G00X10.1282Y-3.5485
M15
G01X10.1439Y-3.5485
M16
G05
G00X10.1282Y-4.2985
M15
G01X10.1439Y-4.2985
M16
G05
G00X10.6262Y-1.3985
M15
G01X10.642Y-1.3985
M16
G05
G00X10.6262Y-2.1485
M15
G01X10.642Y-2.1485
M16
G05
G00X10.6262Y-2.8985
M15
G01X10.642Y-2.8985
M16
G05
G00X10.6262Y-3.6485
M15
G01X10.642Y-3.6485
M16
G05
G00X10.8762Y-1.2985
M15
G01X10.892Y-1.2985
M16
G05
G00X10.8762Y-2.0485
M15
G01X10.892Y-2.0485
M16
G05
G00X10.8762Y-2.7985
M15
G01X10.892Y-2.7985
M16
G05
G00X10.8762Y-3.5485
M15
G01X10.892Y-3.5485
M16
G05
G00X11.3743Y-1.3985
M15
G01X11.39Y-1.3985
M16
G05
G00X11.3743Y-2.1485
M15
G01X11.39Y-2.1485
M16
G05
G00X11.3743Y-2.8985
M15
G01X11.39Y-2.8985
M16
G05
G00X11.3743Y-3.6485
M15
G01X11.39Y-3.6485
M16
G05
G00X11.6243Y-1.2985
M15
G01X11.64Y-1.2985
M16
G05
G00X11.6243Y-2.0485
M15
G01X11.64Y-2.0485
M16
G05
G00X11.6243Y-2.7985
M15
G01X11.64Y-2.7985
M16
G05
G00X11.6243Y-3.5485
M15
G01X11.64Y-3.5485
M16
G05
G00X12.1262Y-1.3985
M15
G01X12.142Y-1.3985
M16
G05
G00X12.1262Y-2.1485
M15
G01X12.142Y-2.1485
M16
G05
G00X12.1262Y-2.8985
M15
G01X12.142Y-2.8985
M16
G05
G00X12.1262Y-3.6485
M15
G01X12.142Y-3.6485
M16
G05
G00X12.3762Y-1.2985
M15
G01X12.392Y-1.2985
M16
G05
G00X12.3762Y-2.0485
M15
G01X12.392Y-2.0485
M16
G05
G00X12.3762Y-2.7985
M15
G01X12.392Y-2.7985
M16
G05
G00X12.3762Y-3.5485
M15
G01X12.392Y-3.5485
M16
G05
T0
M30
