%TF.GenerationSoftware,KiCad,Pcbnew,(7.0.0-0)*%
%TF.CreationDate,2023-03-06T01:51:54+09:00*%
%TF.ProjectId,11111_pcb,31313131-315f-4706-9362-2e6b69636164,rev?*%
%TF.SameCoordinates,Original*%
%TF.FileFunction,Legend,Bot*%
%TF.FilePolarity,Positive*%
%FSLAX46Y46*%
G04 Gerber Fmt 4.6, Leading zero omitted, Abs format (unit mm)*
G04 Created by KiCad (PCBNEW (7.0.0-0)) date 2023-03-06 01:51:54*
%MOMM*%
%LPD*%
G01*
G04 APERTURE LIST*
%ADD10C,0.300000*%
%ADD11C,0.150000*%
%ADD12C,0.125000*%
%ADD13C,0.120000*%
G04 APERTURE END LIST*
D10*
X158877142Y-24983571D02*
X159734285Y-24983571D01*
X159305714Y-24983571D02*
X159305714Y-23483571D01*
X159305714Y-23483571D02*
X159448571Y-23697857D01*
X159448571Y-23697857D02*
X159591428Y-23840714D01*
X159591428Y-23840714D02*
X159734285Y-23912142D01*
X157448571Y-24983571D02*
X158305714Y-24983571D01*
X157877143Y-24983571D02*
X157877143Y-23483571D01*
X157877143Y-23483571D02*
X158020000Y-23697857D01*
X158020000Y-23697857D02*
X158162857Y-23840714D01*
X158162857Y-23840714D02*
X158305714Y-23912142D01*
X156020000Y-24983571D02*
X156877143Y-24983571D01*
X156448572Y-24983571D02*
X156448572Y-23483571D01*
X156448572Y-23483571D02*
X156591429Y-23697857D01*
X156591429Y-23697857D02*
X156734286Y-23840714D01*
X156734286Y-23840714D02*
X156877143Y-23912142D01*
X154591429Y-24983571D02*
X155448572Y-24983571D01*
X155020001Y-24983571D02*
X155020001Y-23483571D01*
X155020001Y-23483571D02*
X155162858Y-23697857D01*
X155162858Y-23697857D02*
X155305715Y-23840714D01*
X155305715Y-23840714D02*
X155448572Y-23912142D01*
X153162858Y-24983571D02*
X154020001Y-24983571D01*
X153591430Y-24983571D02*
X153591430Y-23483571D01*
X153591430Y-23483571D02*
X153734287Y-23697857D01*
X153734287Y-23697857D02*
X153877144Y-23840714D01*
X153877144Y-23840714D02*
X154020001Y-23912142D01*
X151762859Y-23983571D02*
X151405716Y-24983571D01*
X151405716Y-24983571D02*
X151048573Y-23983571D01*
X149905716Y-24912142D02*
X150048573Y-24983571D01*
X150048573Y-24983571D02*
X150334288Y-24983571D01*
X150334288Y-24983571D02*
X150477145Y-24912142D01*
X150477145Y-24912142D02*
X150548573Y-24769285D01*
X150548573Y-24769285D02*
X150548573Y-24197857D01*
X150548573Y-24197857D02*
X150477145Y-24055000D01*
X150477145Y-24055000D02*
X150334288Y-23983571D01*
X150334288Y-23983571D02*
X150048573Y-23983571D01*
X150048573Y-23983571D02*
X149905716Y-24055000D01*
X149905716Y-24055000D02*
X149834288Y-24197857D01*
X149834288Y-24197857D02*
X149834288Y-24340714D01*
X149834288Y-24340714D02*
X150548573Y-24483571D01*
X149191431Y-24983571D02*
X149191431Y-23983571D01*
X149191431Y-24269285D02*
X149120002Y-24126428D01*
X149120002Y-24126428D02*
X149048574Y-24055000D01*
X149048574Y-24055000D02*
X148905716Y-23983571D01*
X148905716Y-23983571D02*
X148762859Y-23983571D01*
X148262860Y-24840714D02*
X148191431Y-24912142D01*
X148191431Y-24912142D02*
X148262860Y-24983571D01*
X148262860Y-24983571D02*
X148334288Y-24912142D01*
X148334288Y-24912142D02*
X148262860Y-24840714D01*
X148262860Y-24840714D02*
X148262860Y-24983571D01*
X146762859Y-24983571D02*
X147620002Y-24983571D01*
X147191431Y-24983571D02*
X147191431Y-23483571D01*
X147191431Y-23483571D02*
X147334288Y-23697857D01*
X147334288Y-23697857D02*
X147477145Y-23840714D01*
X147477145Y-23840714D02*
X147620002Y-23912142D01*
X159448571Y-27413571D02*
X159591428Y-27342142D01*
X159591428Y-27342142D02*
X159662857Y-27199285D01*
X159662857Y-27199285D02*
X159662857Y-25913571D01*
X158305714Y-27342142D02*
X158448571Y-27413571D01*
X158448571Y-27413571D02*
X158734286Y-27413571D01*
X158734286Y-27413571D02*
X158877143Y-27342142D01*
X158877143Y-27342142D02*
X158948571Y-27199285D01*
X158948571Y-27199285D02*
X158948571Y-26627857D01*
X158948571Y-26627857D02*
X158877143Y-26485000D01*
X158877143Y-26485000D02*
X158734286Y-26413571D01*
X158734286Y-26413571D02*
X158448571Y-26413571D01*
X158448571Y-26413571D02*
X158305714Y-26485000D01*
X158305714Y-26485000D02*
X158234286Y-26627857D01*
X158234286Y-26627857D02*
X158234286Y-26770714D01*
X158234286Y-26770714D02*
X158948571Y-26913571D01*
X157805714Y-26413571D02*
X157234286Y-26413571D01*
X157591429Y-27413571D02*
X157591429Y-26127857D01*
X157591429Y-26127857D02*
X157520000Y-25985000D01*
X157520000Y-25985000D02*
X157377143Y-25913571D01*
X157377143Y-25913571D02*
X157234286Y-25913571D01*
X156948571Y-26413571D02*
X156377143Y-26413571D01*
X156734286Y-25913571D02*
X156734286Y-27199285D01*
X156734286Y-27199285D02*
X156662857Y-27342142D01*
X156662857Y-27342142D02*
X156520000Y-27413571D01*
X156520000Y-27413571D02*
X156377143Y-27413571D01*
X154977143Y-27413571D02*
X154977143Y-25913571D01*
X154334286Y-27413571D02*
X154334286Y-26627857D01*
X154334286Y-26627857D02*
X154405714Y-26485000D01*
X154405714Y-26485000D02*
X154548571Y-26413571D01*
X154548571Y-26413571D02*
X154762857Y-26413571D01*
X154762857Y-26413571D02*
X154905714Y-26485000D01*
X154905714Y-26485000D02*
X154977143Y-26556428D01*
X152977143Y-27413571D02*
X152977143Y-26627857D01*
X152977143Y-26627857D02*
X153048571Y-26485000D01*
X153048571Y-26485000D02*
X153191428Y-26413571D01*
X153191428Y-26413571D02*
X153477143Y-26413571D01*
X153477143Y-26413571D02*
X153620000Y-26485000D01*
X152977143Y-27342142D02*
X153120000Y-27413571D01*
X153120000Y-27413571D02*
X153477143Y-27413571D01*
X153477143Y-27413571D02*
X153620000Y-27342142D01*
X153620000Y-27342142D02*
X153691428Y-27199285D01*
X153691428Y-27199285D02*
X153691428Y-27056428D01*
X153691428Y-27056428D02*
X153620000Y-26913571D01*
X153620000Y-26913571D02*
X153477143Y-26842142D01*
X153477143Y-26842142D02*
X153120000Y-26842142D01*
X153120000Y-26842142D02*
X152977143Y-26770714D01*
X152262857Y-26413571D02*
X152262857Y-27413571D01*
X152262857Y-26556428D02*
X152191428Y-26485000D01*
X152191428Y-26485000D02*
X152048571Y-26413571D01*
X152048571Y-26413571D02*
X151834285Y-26413571D01*
X151834285Y-26413571D02*
X151691428Y-26485000D01*
X151691428Y-26485000D02*
X151620000Y-26627857D01*
X151620000Y-26627857D02*
X151620000Y-27413571D01*
X150262857Y-27413571D02*
X150262857Y-25913571D01*
X150262857Y-27342142D02*
X150405714Y-27413571D01*
X150405714Y-27413571D02*
X150691428Y-27413571D01*
X150691428Y-27413571D02*
X150834285Y-27342142D01*
X150834285Y-27342142D02*
X150905714Y-27270714D01*
X150905714Y-27270714D02*
X150977142Y-27127857D01*
X150977142Y-27127857D02*
X150977142Y-26699285D01*
X150977142Y-26699285D02*
X150905714Y-26556428D01*
X150905714Y-26556428D02*
X150834285Y-26485000D01*
X150834285Y-26485000D02*
X150691428Y-26413571D01*
X150691428Y-26413571D02*
X150405714Y-26413571D01*
X150405714Y-26413571D02*
X150262857Y-26485000D01*
D11*
%TO.C,SW46*%
X96424523Y-90549761D02*
X96281666Y-90597380D01*
X96281666Y-90597380D02*
X96043571Y-90597380D01*
X96043571Y-90597380D02*
X95948333Y-90549761D01*
X95948333Y-90549761D02*
X95900714Y-90502142D01*
X95900714Y-90502142D02*
X95853095Y-90406904D01*
X95853095Y-90406904D02*
X95853095Y-90311666D01*
X95853095Y-90311666D02*
X95900714Y-90216428D01*
X95900714Y-90216428D02*
X95948333Y-90168809D01*
X95948333Y-90168809D02*
X96043571Y-90121190D01*
X96043571Y-90121190D02*
X96234047Y-90073571D01*
X96234047Y-90073571D02*
X96329285Y-90025952D01*
X96329285Y-90025952D02*
X96376904Y-89978333D01*
X96376904Y-89978333D02*
X96424523Y-89883095D01*
X96424523Y-89883095D02*
X96424523Y-89787857D01*
X96424523Y-89787857D02*
X96376904Y-89692619D01*
X96376904Y-89692619D02*
X96329285Y-89645000D01*
X96329285Y-89645000D02*
X96234047Y-89597380D01*
X96234047Y-89597380D02*
X95995952Y-89597380D01*
X95995952Y-89597380D02*
X95853095Y-89645000D01*
X95519761Y-89597380D02*
X95281666Y-90597380D01*
X95281666Y-90597380D02*
X95091190Y-89883095D01*
X95091190Y-89883095D02*
X94900714Y-90597380D01*
X94900714Y-90597380D02*
X94662619Y-89597380D01*
X93853095Y-89930714D02*
X93853095Y-90597380D01*
X94091190Y-89549761D02*
X94329285Y-90264047D01*
X94329285Y-90264047D02*
X93710238Y-90264047D01*
X92900714Y-89597380D02*
X93091190Y-89597380D01*
X93091190Y-89597380D02*
X93186428Y-89645000D01*
X93186428Y-89645000D02*
X93234047Y-89692619D01*
X93234047Y-89692619D02*
X93329285Y-89835476D01*
X93329285Y-89835476D02*
X93376904Y-90025952D01*
X93376904Y-90025952D02*
X93376904Y-90406904D01*
X93376904Y-90406904D02*
X93329285Y-90502142D01*
X93329285Y-90502142D02*
X93281666Y-90549761D01*
X93281666Y-90549761D02*
X93186428Y-90597380D01*
X93186428Y-90597380D02*
X92995952Y-90597380D01*
X92995952Y-90597380D02*
X92900714Y-90549761D01*
X92900714Y-90549761D02*
X92853095Y-90502142D01*
X92853095Y-90502142D02*
X92805476Y-90406904D01*
X92805476Y-90406904D02*
X92805476Y-90168809D01*
X92805476Y-90168809D02*
X92853095Y-90073571D01*
X92853095Y-90073571D02*
X92900714Y-90025952D01*
X92900714Y-90025952D02*
X92995952Y-89978333D01*
X92995952Y-89978333D02*
X93186428Y-89978333D01*
X93186428Y-89978333D02*
X93281666Y-90025952D01*
X93281666Y-90025952D02*
X93329285Y-90073571D01*
X93329285Y-90073571D02*
X93376904Y-90168809D01*
D12*
%TO.C,D33*%
X116626428Y-83283904D02*
X116626428Y-82483904D01*
X116626428Y-82483904D02*
X116435952Y-82483904D01*
X116435952Y-82483904D02*
X116321666Y-82522000D01*
X116321666Y-82522000D02*
X116245476Y-82598190D01*
X116245476Y-82598190D02*
X116207381Y-82674380D01*
X116207381Y-82674380D02*
X116169285Y-82826761D01*
X116169285Y-82826761D02*
X116169285Y-82941047D01*
X116169285Y-82941047D02*
X116207381Y-83093428D01*
X116207381Y-83093428D02*
X116245476Y-83169619D01*
X116245476Y-83169619D02*
X116321666Y-83245809D01*
X116321666Y-83245809D02*
X116435952Y-83283904D01*
X116435952Y-83283904D02*
X116626428Y-83283904D01*
X115902619Y-82483904D02*
X115407381Y-82483904D01*
X115407381Y-82483904D02*
X115674047Y-82788666D01*
X115674047Y-82788666D02*
X115559762Y-82788666D01*
X115559762Y-82788666D02*
X115483571Y-82826761D01*
X115483571Y-82826761D02*
X115445476Y-82864857D01*
X115445476Y-82864857D02*
X115407381Y-82941047D01*
X115407381Y-82941047D02*
X115407381Y-83131523D01*
X115407381Y-83131523D02*
X115445476Y-83207714D01*
X115445476Y-83207714D02*
X115483571Y-83245809D01*
X115483571Y-83245809D02*
X115559762Y-83283904D01*
X115559762Y-83283904D02*
X115788333Y-83283904D01*
X115788333Y-83283904D02*
X115864524Y-83245809D01*
X115864524Y-83245809D02*
X115902619Y-83207714D01*
X115140714Y-82483904D02*
X114645476Y-82483904D01*
X114645476Y-82483904D02*
X114912142Y-82788666D01*
X114912142Y-82788666D02*
X114797857Y-82788666D01*
X114797857Y-82788666D02*
X114721666Y-82826761D01*
X114721666Y-82826761D02*
X114683571Y-82864857D01*
X114683571Y-82864857D02*
X114645476Y-82941047D01*
X114645476Y-82941047D02*
X114645476Y-83131523D01*
X114645476Y-83131523D02*
X114683571Y-83207714D01*
X114683571Y-83207714D02*
X114721666Y-83245809D01*
X114721666Y-83245809D02*
X114797857Y-83283904D01*
X114797857Y-83283904D02*
X115026428Y-83283904D01*
X115026428Y-83283904D02*
X115102619Y-83245809D01*
X115102619Y-83245809D02*
X115140714Y-83207714D01*
%TO.C,D43*%
X40436428Y-102063904D02*
X40436428Y-101263904D01*
X40436428Y-101263904D02*
X40245952Y-101263904D01*
X40245952Y-101263904D02*
X40131666Y-101302000D01*
X40131666Y-101302000D02*
X40055476Y-101378190D01*
X40055476Y-101378190D02*
X40017381Y-101454380D01*
X40017381Y-101454380D02*
X39979285Y-101606761D01*
X39979285Y-101606761D02*
X39979285Y-101721047D01*
X39979285Y-101721047D02*
X40017381Y-101873428D01*
X40017381Y-101873428D02*
X40055476Y-101949619D01*
X40055476Y-101949619D02*
X40131666Y-102025809D01*
X40131666Y-102025809D02*
X40245952Y-102063904D01*
X40245952Y-102063904D02*
X40436428Y-102063904D01*
X39293571Y-101530571D02*
X39293571Y-102063904D01*
X39484047Y-101225809D02*
X39674524Y-101797238D01*
X39674524Y-101797238D02*
X39179285Y-101797238D01*
X38950714Y-101263904D02*
X38455476Y-101263904D01*
X38455476Y-101263904D02*
X38722142Y-101568666D01*
X38722142Y-101568666D02*
X38607857Y-101568666D01*
X38607857Y-101568666D02*
X38531666Y-101606761D01*
X38531666Y-101606761D02*
X38493571Y-101644857D01*
X38493571Y-101644857D02*
X38455476Y-101721047D01*
X38455476Y-101721047D02*
X38455476Y-101911523D01*
X38455476Y-101911523D02*
X38493571Y-101987714D01*
X38493571Y-101987714D02*
X38531666Y-102025809D01*
X38531666Y-102025809D02*
X38607857Y-102063904D01*
X38607857Y-102063904D02*
X38836428Y-102063904D01*
X38836428Y-102063904D02*
X38912619Y-102025809D01*
X38912619Y-102025809D02*
X38950714Y-101987714D01*
%TO.C,D60*%
X154771428Y-121033904D02*
X154771428Y-120233904D01*
X154771428Y-120233904D02*
X154580952Y-120233904D01*
X154580952Y-120233904D02*
X154466666Y-120272000D01*
X154466666Y-120272000D02*
X154390476Y-120348190D01*
X154390476Y-120348190D02*
X154352381Y-120424380D01*
X154352381Y-120424380D02*
X154314285Y-120576761D01*
X154314285Y-120576761D02*
X154314285Y-120691047D01*
X154314285Y-120691047D02*
X154352381Y-120843428D01*
X154352381Y-120843428D02*
X154390476Y-120919619D01*
X154390476Y-120919619D02*
X154466666Y-120995809D01*
X154466666Y-120995809D02*
X154580952Y-121033904D01*
X154580952Y-121033904D02*
X154771428Y-121033904D01*
X153628571Y-120233904D02*
X153780952Y-120233904D01*
X153780952Y-120233904D02*
X153857143Y-120272000D01*
X153857143Y-120272000D02*
X153895238Y-120310095D01*
X153895238Y-120310095D02*
X153971428Y-120424380D01*
X153971428Y-120424380D02*
X154009524Y-120576761D01*
X154009524Y-120576761D02*
X154009524Y-120881523D01*
X154009524Y-120881523D02*
X153971428Y-120957714D01*
X153971428Y-120957714D02*
X153933333Y-120995809D01*
X153933333Y-120995809D02*
X153857143Y-121033904D01*
X153857143Y-121033904D02*
X153704762Y-121033904D01*
X153704762Y-121033904D02*
X153628571Y-120995809D01*
X153628571Y-120995809D02*
X153590476Y-120957714D01*
X153590476Y-120957714D02*
X153552381Y-120881523D01*
X153552381Y-120881523D02*
X153552381Y-120691047D01*
X153552381Y-120691047D02*
X153590476Y-120614857D01*
X153590476Y-120614857D02*
X153628571Y-120576761D01*
X153628571Y-120576761D02*
X153704762Y-120538666D01*
X153704762Y-120538666D02*
X153857143Y-120538666D01*
X153857143Y-120538666D02*
X153933333Y-120576761D01*
X153933333Y-120576761D02*
X153971428Y-120614857D01*
X153971428Y-120614857D02*
X154009524Y-120691047D01*
X153057142Y-120233904D02*
X152980952Y-120233904D01*
X152980952Y-120233904D02*
X152904761Y-120272000D01*
X152904761Y-120272000D02*
X152866666Y-120310095D01*
X152866666Y-120310095D02*
X152828571Y-120386285D01*
X152828571Y-120386285D02*
X152790476Y-120538666D01*
X152790476Y-120538666D02*
X152790476Y-120729142D01*
X152790476Y-120729142D02*
X152828571Y-120881523D01*
X152828571Y-120881523D02*
X152866666Y-120957714D01*
X152866666Y-120957714D02*
X152904761Y-120995809D01*
X152904761Y-120995809D02*
X152980952Y-121033904D01*
X152980952Y-121033904D02*
X153057142Y-121033904D01*
X153057142Y-121033904D02*
X153133333Y-120995809D01*
X153133333Y-120995809D02*
X153171428Y-120957714D01*
X153171428Y-120957714D02*
X153209523Y-120881523D01*
X153209523Y-120881523D02*
X153247619Y-120729142D01*
X153247619Y-120729142D02*
X153247619Y-120538666D01*
X153247619Y-120538666D02*
X153209523Y-120386285D01*
X153209523Y-120386285D02*
X153171428Y-120310095D01*
X153171428Y-120310095D02*
X153133333Y-120272000D01*
X153133333Y-120272000D02*
X153057142Y-120233904D01*
%TO.C,D18*%
X97686428Y-64153904D02*
X97686428Y-63353904D01*
X97686428Y-63353904D02*
X97495952Y-63353904D01*
X97495952Y-63353904D02*
X97381666Y-63392000D01*
X97381666Y-63392000D02*
X97305476Y-63468190D01*
X97305476Y-63468190D02*
X97267381Y-63544380D01*
X97267381Y-63544380D02*
X97229285Y-63696761D01*
X97229285Y-63696761D02*
X97229285Y-63811047D01*
X97229285Y-63811047D02*
X97267381Y-63963428D01*
X97267381Y-63963428D02*
X97305476Y-64039619D01*
X97305476Y-64039619D02*
X97381666Y-64115809D01*
X97381666Y-64115809D02*
X97495952Y-64153904D01*
X97495952Y-64153904D02*
X97686428Y-64153904D01*
X96467381Y-64153904D02*
X96924524Y-64153904D01*
X96695952Y-64153904D02*
X96695952Y-63353904D01*
X96695952Y-63353904D02*
X96772143Y-63468190D01*
X96772143Y-63468190D02*
X96848333Y-63544380D01*
X96848333Y-63544380D02*
X96924524Y-63582476D01*
X96010238Y-63696761D02*
X96086428Y-63658666D01*
X96086428Y-63658666D02*
X96124523Y-63620571D01*
X96124523Y-63620571D02*
X96162619Y-63544380D01*
X96162619Y-63544380D02*
X96162619Y-63506285D01*
X96162619Y-63506285D02*
X96124523Y-63430095D01*
X96124523Y-63430095D02*
X96086428Y-63392000D01*
X96086428Y-63392000D02*
X96010238Y-63353904D01*
X96010238Y-63353904D02*
X95857857Y-63353904D01*
X95857857Y-63353904D02*
X95781666Y-63392000D01*
X95781666Y-63392000D02*
X95743571Y-63430095D01*
X95743571Y-63430095D02*
X95705476Y-63506285D01*
X95705476Y-63506285D02*
X95705476Y-63544380D01*
X95705476Y-63544380D02*
X95743571Y-63620571D01*
X95743571Y-63620571D02*
X95781666Y-63658666D01*
X95781666Y-63658666D02*
X95857857Y-63696761D01*
X95857857Y-63696761D02*
X96010238Y-63696761D01*
X96010238Y-63696761D02*
X96086428Y-63734857D01*
X96086428Y-63734857D02*
X96124523Y-63772952D01*
X96124523Y-63772952D02*
X96162619Y-63849142D01*
X96162619Y-63849142D02*
X96162619Y-64001523D01*
X96162619Y-64001523D02*
X96124523Y-64077714D01*
X96124523Y-64077714D02*
X96086428Y-64115809D01*
X96086428Y-64115809D02*
X96010238Y-64153904D01*
X96010238Y-64153904D02*
X95857857Y-64153904D01*
X95857857Y-64153904D02*
X95781666Y-64115809D01*
X95781666Y-64115809D02*
X95743571Y-64077714D01*
X95743571Y-64077714D02*
X95705476Y-64001523D01*
X95705476Y-64001523D02*
X95705476Y-63849142D01*
X95705476Y-63849142D02*
X95743571Y-63772952D01*
X95743571Y-63772952D02*
X95781666Y-63734857D01*
X95781666Y-63734857D02*
X95857857Y-63696761D01*
%TO.C,D16*%
X59486428Y-64153904D02*
X59486428Y-63353904D01*
X59486428Y-63353904D02*
X59295952Y-63353904D01*
X59295952Y-63353904D02*
X59181666Y-63392000D01*
X59181666Y-63392000D02*
X59105476Y-63468190D01*
X59105476Y-63468190D02*
X59067381Y-63544380D01*
X59067381Y-63544380D02*
X59029285Y-63696761D01*
X59029285Y-63696761D02*
X59029285Y-63811047D01*
X59029285Y-63811047D02*
X59067381Y-63963428D01*
X59067381Y-63963428D02*
X59105476Y-64039619D01*
X59105476Y-64039619D02*
X59181666Y-64115809D01*
X59181666Y-64115809D02*
X59295952Y-64153904D01*
X59295952Y-64153904D02*
X59486428Y-64153904D01*
X58267381Y-64153904D02*
X58724524Y-64153904D01*
X58495952Y-64153904D02*
X58495952Y-63353904D01*
X58495952Y-63353904D02*
X58572143Y-63468190D01*
X58572143Y-63468190D02*
X58648333Y-63544380D01*
X58648333Y-63544380D02*
X58724524Y-63582476D01*
X57581666Y-63353904D02*
X57734047Y-63353904D01*
X57734047Y-63353904D02*
X57810238Y-63392000D01*
X57810238Y-63392000D02*
X57848333Y-63430095D01*
X57848333Y-63430095D02*
X57924523Y-63544380D01*
X57924523Y-63544380D02*
X57962619Y-63696761D01*
X57962619Y-63696761D02*
X57962619Y-64001523D01*
X57962619Y-64001523D02*
X57924523Y-64077714D01*
X57924523Y-64077714D02*
X57886428Y-64115809D01*
X57886428Y-64115809D02*
X57810238Y-64153904D01*
X57810238Y-64153904D02*
X57657857Y-64153904D01*
X57657857Y-64153904D02*
X57581666Y-64115809D01*
X57581666Y-64115809D02*
X57543571Y-64077714D01*
X57543571Y-64077714D02*
X57505476Y-64001523D01*
X57505476Y-64001523D02*
X57505476Y-63811047D01*
X57505476Y-63811047D02*
X57543571Y-63734857D01*
X57543571Y-63734857D02*
X57581666Y-63696761D01*
X57581666Y-63696761D02*
X57657857Y-63658666D01*
X57657857Y-63658666D02*
X57810238Y-63658666D01*
X57810238Y-63658666D02*
X57886428Y-63696761D01*
X57886428Y-63696761D02*
X57924523Y-63734857D01*
X57924523Y-63734857D02*
X57962619Y-63811047D01*
%TO.C,D6*%
X135315475Y-44833904D02*
X135315475Y-44033904D01*
X135315475Y-44033904D02*
X135124999Y-44033904D01*
X135124999Y-44033904D02*
X135010713Y-44072000D01*
X135010713Y-44072000D02*
X134934523Y-44148190D01*
X134934523Y-44148190D02*
X134896428Y-44224380D01*
X134896428Y-44224380D02*
X134858332Y-44376761D01*
X134858332Y-44376761D02*
X134858332Y-44491047D01*
X134858332Y-44491047D02*
X134896428Y-44643428D01*
X134896428Y-44643428D02*
X134934523Y-44719619D01*
X134934523Y-44719619D02*
X135010713Y-44795809D01*
X135010713Y-44795809D02*
X135124999Y-44833904D01*
X135124999Y-44833904D02*
X135315475Y-44833904D01*
X134172618Y-44033904D02*
X134324999Y-44033904D01*
X134324999Y-44033904D02*
X134401190Y-44072000D01*
X134401190Y-44072000D02*
X134439285Y-44110095D01*
X134439285Y-44110095D02*
X134515475Y-44224380D01*
X134515475Y-44224380D02*
X134553571Y-44376761D01*
X134553571Y-44376761D02*
X134553571Y-44681523D01*
X134553571Y-44681523D02*
X134515475Y-44757714D01*
X134515475Y-44757714D02*
X134477380Y-44795809D01*
X134477380Y-44795809D02*
X134401190Y-44833904D01*
X134401190Y-44833904D02*
X134248809Y-44833904D01*
X134248809Y-44833904D02*
X134172618Y-44795809D01*
X134172618Y-44795809D02*
X134134523Y-44757714D01*
X134134523Y-44757714D02*
X134096428Y-44681523D01*
X134096428Y-44681523D02*
X134096428Y-44491047D01*
X134096428Y-44491047D02*
X134134523Y-44414857D01*
X134134523Y-44414857D02*
X134172618Y-44376761D01*
X134172618Y-44376761D02*
X134248809Y-44338666D01*
X134248809Y-44338666D02*
X134401190Y-44338666D01*
X134401190Y-44338666D02*
X134477380Y-44376761D01*
X134477380Y-44376761D02*
X134515475Y-44414857D01*
X134515475Y-44414857D02*
X134553571Y-44491047D01*
%TO.C,D17*%
X78636428Y-64153904D02*
X78636428Y-63353904D01*
X78636428Y-63353904D02*
X78445952Y-63353904D01*
X78445952Y-63353904D02*
X78331666Y-63392000D01*
X78331666Y-63392000D02*
X78255476Y-63468190D01*
X78255476Y-63468190D02*
X78217381Y-63544380D01*
X78217381Y-63544380D02*
X78179285Y-63696761D01*
X78179285Y-63696761D02*
X78179285Y-63811047D01*
X78179285Y-63811047D02*
X78217381Y-63963428D01*
X78217381Y-63963428D02*
X78255476Y-64039619D01*
X78255476Y-64039619D02*
X78331666Y-64115809D01*
X78331666Y-64115809D02*
X78445952Y-64153904D01*
X78445952Y-64153904D02*
X78636428Y-64153904D01*
X77417381Y-64153904D02*
X77874524Y-64153904D01*
X77645952Y-64153904D02*
X77645952Y-63353904D01*
X77645952Y-63353904D02*
X77722143Y-63468190D01*
X77722143Y-63468190D02*
X77798333Y-63544380D01*
X77798333Y-63544380D02*
X77874524Y-63582476D01*
X77150714Y-63353904D02*
X76617380Y-63353904D01*
X76617380Y-63353904D02*
X76960238Y-64153904D01*
D11*
%TO.C,J1*%
X162047380Y-65372345D02*
X162047380Y-65943773D01*
X163047380Y-65658059D02*
X162047380Y-65658059D01*
X163047380Y-66848535D02*
X162571190Y-66515202D01*
X163047380Y-66277107D02*
X162047380Y-66277107D01*
X162047380Y-66277107D02*
X162047380Y-66658059D01*
X162047380Y-66658059D02*
X162095000Y-66753297D01*
X162095000Y-66753297D02*
X162142619Y-66800916D01*
X162142619Y-66800916D02*
X162237857Y-66848535D01*
X162237857Y-66848535D02*
X162380714Y-66848535D01*
X162380714Y-66848535D02*
X162475952Y-66800916D01*
X162475952Y-66800916D02*
X162523571Y-66753297D01*
X162523571Y-66753297D02*
X162571190Y-66658059D01*
X162571190Y-66658059D02*
X162571190Y-66277107D01*
X163047380Y-67848535D02*
X162571190Y-67515202D01*
X163047380Y-67277107D02*
X162047380Y-67277107D01*
X162047380Y-67277107D02*
X162047380Y-67658059D01*
X162047380Y-67658059D02*
X162095000Y-67753297D01*
X162095000Y-67753297D02*
X162142619Y-67800916D01*
X162142619Y-67800916D02*
X162237857Y-67848535D01*
X162237857Y-67848535D02*
X162380714Y-67848535D01*
X162380714Y-67848535D02*
X162475952Y-67800916D01*
X162475952Y-67800916D02*
X162523571Y-67753297D01*
X162523571Y-67753297D02*
X162571190Y-67658059D01*
X162571190Y-67658059D02*
X162571190Y-67277107D01*
X162999761Y-68229488D02*
X163047380Y-68372345D01*
X163047380Y-68372345D02*
X163047380Y-68610440D01*
X163047380Y-68610440D02*
X162999761Y-68705678D01*
X162999761Y-68705678D02*
X162952142Y-68753297D01*
X162952142Y-68753297D02*
X162856904Y-68800916D01*
X162856904Y-68800916D02*
X162761666Y-68800916D01*
X162761666Y-68800916D02*
X162666428Y-68753297D01*
X162666428Y-68753297D02*
X162618809Y-68705678D01*
X162618809Y-68705678D02*
X162571190Y-68610440D01*
X162571190Y-68610440D02*
X162523571Y-68419964D01*
X162523571Y-68419964D02*
X162475952Y-68324726D01*
X162475952Y-68324726D02*
X162428333Y-68277107D01*
X162428333Y-68277107D02*
X162333095Y-68229488D01*
X162333095Y-68229488D02*
X162237857Y-68229488D01*
X162237857Y-68229488D02*
X162142619Y-68277107D01*
X162142619Y-68277107D02*
X162095000Y-68324726D01*
X162095000Y-68324726D02*
X162047380Y-68419964D01*
X162047380Y-68419964D02*
X162047380Y-68658059D01*
X162047380Y-68658059D02*
X162095000Y-68800916D01*
D12*
%TO.C,D21*%
X154771428Y-64153904D02*
X154771428Y-63353904D01*
X154771428Y-63353904D02*
X154580952Y-63353904D01*
X154580952Y-63353904D02*
X154466666Y-63392000D01*
X154466666Y-63392000D02*
X154390476Y-63468190D01*
X154390476Y-63468190D02*
X154352381Y-63544380D01*
X154352381Y-63544380D02*
X154314285Y-63696761D01*
X154314285Y-63696761D02*
X154314285Y-63811047D01*
X154314285Y-63811047D02*
X154352381Y-63963428D01*
X154352381Y-63963428D02*
X154390476Y-64039619D01*
X154390476Y-64039619D02*
X154466666Y-64115809D01*
X154466666Y-64115809D02*
X154580952Y-64153904D01*
X154580952Y-64153904D02*
X154771428Y-64153904D01*
X154009524Y-63430095D02*
X153971428Y-63392000D01*
X153971428Y-63392000D02*
X153895238Y-63353904D01*
X153895238Y-63353904D02*
X153704762Y-63353904D01*
X153704762Y-63353904D02*
X153628571Y-63392000D01*
X153628571Y-63392000D02*
X153590476Y-63430095D01*
X153590476Y-63430095D02*
X153552381Y-63506285D01*
X153552381Y-63506285D02*
X153552381Y-63582476D01*
X153552381Y-63582476D02*
X153590476Y-63696761D01*
X153590476Y-63696761D02*
X154047619Y-64153904D01*
X154047619Y-64153904D02*
X153552381Y-64153904D01*
X152790476Y-64153904D02*
X153247619Y-64153904D01*
X153019047Y-64153904D02*
X153019047Y-63353904D01*
X153019047Y-63353904D02*
X153095238Y-63468190D01*
X153095238Y-63468190D02*
X153171428Y-63544380D01*
X153171428Y-63544380D02*
X153247619Y-63582476D01*
D11*
%TO.C,SW34*%
X134524523Y-71379761D02*
X134381666Y-71427380D01*
X134381666Y-71427380D02*
X134143571Y-71427380D01*
X134143571Y-71427380D02*
X134048333Y-71379761D01*
X134048333Y-71379761D02*
X134000714Y-71332142D01*
X134000714Y-71332142D02*
X133953095Y-71236904D01*
X133953095Y-71236904D02*
X133953095Y-71141666D01*
X133953095Y-71141666D02*
X134000714Y-71046428D01*
X134000714Y-71046428D02*
X134048333Y-70998809D01*
X134048333Y-70998809D02*
X134143571Y-70951190D01*
X134143571Y-70951190D02*
X134334047Y-70903571D01*
X134334047Y-70903571D02*
X134429285Y-70855952D01*
X134429285Y-70855952D02*
X134476904Y-70808333D01*
X134476904Y-70808333D02*
X134524523Y-70713095D01*
X134524523Y-70713095D02*
X134524523Y-70617857D01*
X134524523Y-70617857D02*
X134476904Y-70522619D01*
X134476904Y-70522619D02*
X134429285Y-70475000D01*
X134429285Y-70475000D02*
X134334047Y-70427380D01*
X134334047Y-70427380D02*
X134095952Y-70427380D01*
X134095952Y-70427380D02*
X133953095Y-70475000D01*
X133619761Y-70427380D02*
X133381666Y-71427380D01*
X133381666Y-71427380D02*
X133191190Y-70713095D01*
X133191190Y-70713095D02*
X133000714Y-71427380D01*
X133000714Y-71427380D02*
X132762619Y-70427380D01*
X132476904Y-70427380D02*
X131857857Y-70427380D01*
X131857857Y-70427380D02*
X132191190Y-70808333D01*
X132191190Y-70808333D02*
X132048333Y-70808333D01*
X132048333Y-70808333D02*
X131953095Y-70855952D01*
X131953095Y-70855952D02*
X131905476Y-70903571D01*
X131905476Y-70903571D02*
X131857857Y-70998809D01*
X131857857Y-70998809D02*
X131857857Y-71236904D01*
X131857857Y-71236904D02*
X131905476Y-71332142D01*
X131905476Y-71332142D02*
X131953095Y-71379761D01*
X131953095Y-71379761D02*
X132048333Y-71427380D01*
X132048333Y-71427380D02*
X132334047Y-71427380D01*
X132334047Y-71427380D02*
X132429285Y-71379761D01*
X132429285Y-71379761D02*
X132476904Y-71332142D01*
X131000714Y-70760714D02*
X131000714Y-71427380D01*
X131238809Y-70379761D02*
X131476904Y-71094047D01*
X131476904Y-71094047D02*
X130857857Y-71094047D01*
%TO.C,SW15*%
X39274523Y-52329761D02*
X39131666Y-52377380D01*
X39131666Y-52377380D02*
X38893571Y-52377380D01*
X38893571Y-52377380D02*
X38798333Y-52329761D01*
X38798333Y-52329761D02*
X38750714Y-52282142D01*
X38750714Y-52282142D02*
X38703095Y-52186904D01*
X38703095Y-52186904D02*
X38703095Y-52091666D01*
X38703095Y-52091666D02*
X38750714Y-51996428D01*
X38750714Y-51996428D02*
X38798333Y-51948809D01*
X38798333Y-51948809D02*
X38893571Y-51901190D01*
X38893571Y-51901190D02*
X39084047Y-51853571D01*
X39084047Y-51853571D02*
X39179285Y-51805952D01*
X39179285Y-51805952D02*
X39226904Y-51758333D01*
X39226904Y-51758333D02*
X39274523Y-51663095D01*
X39274523Y-51663095D02*
X39274523Y-51567857D01*
X39274523Y-51567857D02*
X39226904Y-51472619D01*
X39226904Y-51472619D02*
X39179285Y-51425000D01*
X39179285Y-51425000D02*
X39084047Y-51377380D01*
X39084047Y-51377380D02*
X38845952Y-51377380D01*
X38845952Y-51377380D02*
X38703095Y-51425000D01*
X38369761Y-51377380D02*
X38131666Y-52377380D01*
X38131666Y-52377380D02*
X37941190Y-51663095D01*
X37941190Y-51663095D02*
X37750714Y-52377380D01*
X37750714Y-52377380D02*
X37512619Y-51377380D01*
X36607857Y-52377380D02*
X37179285Y-52377380D01*
X36893571Y-52377380D02*
X36893571Y-51377380D01*
X36893571Y-51377380D02*
X36988809Y-51520238D01*
X36988809Y-51520238D02*
X37084047Y-51615476D01*
X37084047Y-51615476D02*
X37179285Y-51663095D01*
X35703095Y-51377380D02*
X36179285Y-51377380D01*
X36179285Y-51377380D02*
X36226904Y-51853571D01*
X36226904Y-51853571D02*
X36179285Y-51805952D01*
X36179285Y-51805952D02*
X36084047Y-51758333D01*
X36084047Y-51758333D02*
X35845952Y-51758333D01*
X35845952Y-51758333D02*
X35750714Y-51805952D01*
X35750714Y-51805952D02*
X35703095Y-51853571D01*
X35703095Y-51853571D02*
X35655476Y-51948809D01*
X35655476Y-51948809D02*
X35655476Y-52186904D01*
X35655476Y-52186904D02*
X35703095Y-52282142D01*
X35703095Y-52282142D02*
X35750714Y-52329761D01*
X35750714Y-52329761D02*
X35845952Y-52377380D01*
X35845952Y-52377380D02*
X36084047Y-52377380D01*
X36084047Y-52377380D02*
X36179285Y-52329761D01*
X36179285Y-52329761D02*
X36226904Y-52282142D01*
%TO.C,SW45*%
X77374523Y-90549761D02*
X77231666Y-90597380D01*
X77231666Y-90597380D02*
X76993571Y-90597380D01*
X76993571Y-90597380D02*
X76898333Y-90549761D01*
X76898333Y-90549761D02*
X76850714Y-90502142D01*
X76850714Y-90502142D02*
X76803095Y-90406904D01*
X76803095Y-90406904D02*
X76803095Y-90311666D01*
X76803095Y-90311666D02*
X76850714Y-90216428D01*
X76850714Y-90216428D02*
X76898333Y-90168809D01*
X76898333Y-90168809D02*
X76993571Y-90121190D01*
X76993571Y-90121190D02*
X77184047Y-90073571D01*
X77184047Y-90073571D02*
X77279285Y-90025952D01*
X77279285Y-90025952D02*
X77326904Y-89978333D01*
X77326904Y-89978333D02*
X77374523Y-89883095D01*
X77374523Y-89883095D02*
X77374523Y-89787857D01*
X77374523Y-89787857D02*
X77326904Y-89692619D01*
X77326904Y-89692619D02*
X77279285Y-89645000D01*
X77279285Y-89645000D02*
X77184047Y-89597380D01*
X77184047Y-89597380D02*
X76945952Y-89597380D01*
X76945952Y-89597380D02*
X76803095Y-89645000D01*
X76469761Y-89597380D02*
X76231666Y-90597380D01*
X76231666Y-90597380D02*
X76041190Y-89883095D01*
X76041190Y-89883095D02*
X75850714Y-90597380D01*
X75850714Y-90597380D02*
X75612619Y-89597380D01*
X74803095Y-89930714D02*
X74803095Y-90597380D01*
X75041190Y-89549761D02*
X75279285Y-90264047D01*
X75279285Y-90264047D02*
X74660238Y-90264047D01*
X73803095Y-89597380D02*
X74279285Y-89597380D01*
X74279285Y-89597380D02*
X74326904Y-90073571D01*
X74326904Y-90073571D02*
X74279285Y-90025952D01*
X74279285Y-90025952D02*
X74184047Y-89978333D01*
X74184047Y-89978333D02*
X73945952Y-89978333D01*
X73945952Y-89978333D02*
X73850714Y-90025952D01*
X73850714Y-90025952D02*
X73803095Y-90073571D01*
X73803095Y-90073571D02*
X73755476Y-90168809D01*
X73755476Y-90168809D02*
X73755476Y-90406904D01*
X73755476Y-90406904D02*
X73803095Y-90502142D01*
X73803095Y-90502142D02*
X73850714Y-90549761D01*
X73850714Y-90549761D02*
X73945952Y-90597380D01*
X73945952Y-90597380D02*
X74184047Y-90597380D01*
X74184047Y-90597380D02*
X74279285Y-90549761D01*
X74279285Y-90549761D02*
X74326904Y-90502142D01*
%TO.C,SW57*%
X96484523Y-109479761D02*
X96341666Y-109527380D01*
X96341666Y-109527380D02*
X96103571Y-109527380D01*
X96103571Y-109527380D02*
X96008333Y-109479761D01*
X96008333Y-109479761D02*
X95960714Y-109432142D01*
X95960714Y-109432142D02*
X95913095Y-109336904D01*
X95913095Y-109336904D02*
X95913095Y-109241666D01*
X95913095Y-109241666D02*
X95960714Y-109146428D01*
X95960714Y-109146428D02*
X96008333Y-109098809D01*
X96008333Y-109098809D02*
X96103571Y-109051190D01*
X96103571Y-109051190D02*
X96294047Y-109003571D01*
X96294047Y-109003571D02*
X96389285Y-108955952D01*
X96389285Y-108955952D02*
X96436904Y-108908333D01*
X96436904Y-108908333D02*
X96484523Y-108813095D01*
X96484523Y-108813095D02*
X96484523Y-108717857D01*
X96484523Y-108717857D02*
X96436904Y-108622619D01*
X96436904Y-108622619D02*
X96389285Y-108575000D01*
X96389285Y-108575000D02*
X96294047Y-108527380D01*
X96294047Y-108527380D02*
X96055952Y-108527380D01*
X96055952Y-108527380D02*
X95913095Y-108575000D01*
X95579761Y-108527380D02*
X95341666Y-109527380D01*
X95341666Y-109527380D02*
X95151190Y-108813095D01*
X95151190Y-108813095D02*
X94960714Y-109527380D01*
X94960714Y-109527380D02*
X94722619Y-108527380D01*
X93865476Y-108527380D02*
X94341666Y-108527380D01*
X94341666Y-108527380D02*
X94389285Y-109003571D01*
X94389285Y-109003571D02*
X94341666Y-108955952D01*
X94341666Y-108955952D02*
X94246428Y-108908333D01*
X94246428Y-108908333D02*
X94008333Y-108908333D01*
X94008333Y-108908333D02*
X93913095Y-108955952D01*
X93913095Y-108955952D02*
X93865476Y-109003571D01*
X93865476Y-109003571D02*
X93817857Y-109098809D01*
X93817857Y-109098809D02*
X93817857Y-109336904D01*
X93817857Y-109336904D02*
X93865476Y-109432142D01*
X93865476Y-109432142D02*
X93913095Y-109479761D01*
X93913095Y-109479761D02*
X94008333Y-109527380D01*
X94008333Y-109527380D02*
X94246428Y-109527380D01*
X94246428Y-109527380D02*
X94341666Y-109479761D01*
X94341666Y-109479761D02*
X94389285Y-109432142D01*
X93484523Y-108527380D02*
X92817857Y-108527380D01*
X92817857Y-108527380D02*
X93246428Y-109527380D01*
%TO.C,SW1*%
X38798332Y-33279761D02*
X38655475Y-33327380D01*
X38655475Y-33327380D02*
X38417380Y-33327380D01*
X38417380Y-33327380D02*
X38322142Y-33279761D01*
X38322142Y-33279761D02*
X38274523Y-33232142D01*
X38274523Y-33232142D02*
X38226904Y-33136904D01*
X38226904Y-33136904D02*
X38226904Y-33041666D01*
X38226904Y-33041666D02*
X38274523Y-32946428D01*
X38274523Y-32946428D02*
X38322142Y-32898809D01*
X38322142Y-32898809D02*
X38417380Y-32851190D01*
X38417380Y-32851190D02*
X38607856Y-32803571D01*
X38607856Y-32803571D02*
X38703094Y-32755952D01*
X38703094Y-32755952D02*
X38750713Y-32708333D01*
X38750713Y-32708333D02*
X38798332Y-32613095D01*
X38798332Y-32613095D02*
X38798332Y-32517857D01*
X38798332Y-32517857D02*
X38750713Y-32422619D01*
X38750713Y-32422619D02*
X38703094Y-32375000D01*
X38703094Y-32375000D02*
X38607856Y-32327380D01*
X38607856Y-32327380D02*
X38369761Y-32327380D01*
X38369761Y-32327380D02*
X38226904Y-32375000D01*
X37893570Y-32327380D02*
X37655475Y-33327380D01*
X37655475Y-33327380D02*
X37464999Y-32613095D01*
X37464999Y-32613095D02*
X37274523Y-33327380D01*
X37274523Y-33327380D02*
X37036428Y-32327380D01*
X36131666Y-33327380D02*
X36703094Y-33327380D01*
X36417380Y-33327380D02*
X36417380Y-32327380D01*
X36417380Y-32327380D02*
X36512618Y-32470238D01*
X36512618Y-32470238D02*
X36607856Y-32565476D01*
X36607856Y-32565476D02*
X36703094Y-32613095D01*
%TO.C,SW58*%
X115474523Y-109479761D02*
X115331666Y-109527380D01*
X115331666Y-109527380D02*
X115093571Y-109527380D01*
X115093571Y-109527380D02*
X114998333Y-109479761D01*
X114998333Y-109479761D02*
X114950714Y-109432142D01*
X114950714Y-109432142D02*
X114903095Y-109336904D01*
X114903095Y-109336904D02*
X114903095Y-109241666D01*
X114903095Y-109241666D02*
X114950714Y-109146428D01*
X114950714Y-109146428D02*
X114998333Y-109098809D01*
X114998333Y-109098809D02*
X115093571Y-109051190D01*
X115093571Y-109051190D02*
X115284047Y-109003571D01*
X115284047Y-109003571D02*
X115379285Y-108955952D01*
X115379285Y-108955952D02*
X115426904Y-108908333D01*
X115426904Y-108908333D02*
X115474523Y-108813095D01*
X115474523Y-108813095D02*
X115474523Y-108717857D01*
X115474523Y-108717857D02*
X115426904Y-108622619D01*
X115426904Y-108622619D02*
X115379285Y-108575000D01*
X115379285Y-108575000D02*
X115284047Y-108527380D01*
X115284047Y-108527380D02*
X115045952Y-108527380D01*
X115045952Y-108527380D02*
X114903095Y-108575000D01*
X114569761Y-108527380D02*
X114331666Y-109527380D01*
X114331666Y-109527380D02*
X114141190Y-108813095D01*
X114141190Y-108813095D02*
X113950714Y-109527380D01*
X113950714Y-109527380D02*
X113712619Y-108527380D01*
X112855476Y-108527380D02*
X113331666Y-108527380D01*
X113331666Y-108527380D02*
X113379285Y-109003571D01*
X113379285Y-109003571D02*
X113331666Y-108955952D01*
X113331666Y-108955952D02*
X113236428Y-108908333D01*
X113236428Y-108908333D02*
X112998333Y-108908333D01*
X112998333Y-108908333D02*
X112903095Y-108955952D01*
X112903095Y-108955952D02*
X112855476Y-109003571D01*
X112855476Y-109003571D02*
X112807857Y-109098809D01*
X112807857Y-109098809D02*
X112807857Y-109336904D01*
X112807857Y-109336904D02*
X112855476Y-109432142D01*
X112855476Y-109432142D02*
X112903095Y-109479761D01*
X112903095Y-109479761D02*
X112998333Y-109527380D01*
X112998333Y-109527380D02*
X113236428Y-109527380D01*
X113236428Y-109527380D02*
X113331666Y-109479761D01*
X113331666Y-109479761D02*
X113379285Y-109432142D01*
X112236428Y-108955952D02*
X112331666Y-108908333D01*
X112331666Y-108908333D02*
X112379285Y-108860714D01*
X112379285Y-108860714D02*
X112426904Y-108765476D01*
X112426904Y-108765476D02*
X112426904Y-108717857D01*
X112426904Y-108717857D02*
X112379285Y-108622619D01*
X112379285Y-108622619D02*
X112331666Y-108575000D01*
X112331666Y-108575000D02*
X112236428Y-108527380D01*
X112236428Y-108527380D02*
X112045952Y-108527380D01*
X112045952Y-108527380D02*
X111950714Y-108575000D01*
X111950714Y-108575000D02*
X111903095Y-108622619D01*
X111903095Y-108622619D02*
X111855476Y-108717857D01*
X111855476Y-108717857D02*
X111855476Y-108765476D01*
X111855476Y-108765476D02*
X111903095Y-108860714D01*
X111903095Y-108860714D02*
X111950714Y-108908333D01*
X111950714Y-108908333D02*
X112045952Y-108955952D01*
X112045952Y-108955952D02*
X112236428Y-108955952D01*
X112236428Y-108955952D02*
X112331666Y-109003571D01*
X112331666Y-109003571D02*
X112379285Y-109051190D01*
X112379285Y-109051190D02*
X112426904Y-109146428D01*
X112426904Y-109146428D02*
X112426904Y-109336904D01*
X112426904Y-109336904D02*
X112379285Y-109432142D01*
X112379285Y-109432142D02*
X112331666Y-109479761D01*
X112331666Y-109479761D02*
X112236428Y-109527380D01*
X112236428Y-109527380D02*
X112045952Y-109527380D01*
X112045952Y-109527380D02*
X111950714Y-109479761D01*
X111950714Y-109479761D02*
X111903095Y-109432142D01*
X111903095Y-109432142D02*
X111855476Y-109336904D01*
X111855476Y-109336904D02*
X111855476Y-109146428D01*
X111855476Y-109146428D02*
X111903095Y-109051190D01*
X111903095Y-109051190D02*
X111950714Y-109003571D01*
X111950714Y-109003571D02*
X112045952Y-108955952D01*
%TO.C,SW16*%
X58254523Y-52329761D02*
X58111666Y-52377380D01*
X58111666Y-52377380D02*
X57873571Y-52377380D01*
X57873571Y-52377380D02*
X57778333Y-52329761D01*
X57778333Y-52329761D02*
X57730714Y-52282142D01*
X57730714Y-52282142D02*
X57683095Y-52186904D01*
X57683095Y-52186904D02*
X57683095Y-52091666D01*
X57683095Y-52091666D02*
X57730714Y-51996428D01*
X57730714Y-51996428D02*
X57778333Y-51948809D01*
X57778333Y-51948809D02*
X57873571Y-51901190D01*
X57873571Y-51901190D02*
X58064047Y-51853571D01*
X58064047Y-51853571D02*
X58159285Y-51805952D01*
X58159285Y-51805952D02*
X58206904Y-51758333D01*
X58206904Y-51758333D02*
X58254523Y-51663095D01*
X58254523Y-51663095D02*
X58254523Y-51567857D01*
X58254523Y-51567857D02*
X58206904Y-51472619D01*
X58206904Y-51472619D02*
X58159285Y-51425000D01*
X58159285Y-51425000D02*
X58064047Y-51377380D01*
X58064047Y-51377380D02*
X57825952Y-51377380D01*
X57825952Y-51377380D02*
X57683095Y-51425000D01*
X57349761Y-51377380D02*
X57111666Y-52377380D01*
X57111666Y-52377380D02*
X56921190Y-51663095D01*
X56921190Y-51663095D02*
X56730714Y-52377380D01*
X56730714Y-52377380D02*
X56492619Y-51377380D01*
X55587857Y-52377380D02*
X56159285Y-52377380D01*
X55873571Y-52377380D02*
X55873571Y-51377380D01*
X55873571Y-51377380D02*
X55968809Y-51520238D01*
X55968809Y-51520238D02*
X56064047Y-51615476D01*
X56064047Y-51615476D02*
X56159285Y-51663095D01*
X54730714Y-51377380D02*
X54921190Y-51377380D01*
X54921190Y-51377380D02*
X55016428Y-51425000D01*
X55016428Y-51425000D02*
X55064047Y-51472619D01*
X55064047Y-51472619D02*
X55159285Y-51615476D01*
X55159285Y-51615476D02*
X55206904Y-51805952D01*
X55206904Y-51805952D02*
X55206904Y-52186904D01*
X55206904Y-52186904D02*
X55159285Y-52282142D01*
X55159285Y-52282142D02*
X55111666Y-52329761D01*
X55111666Y-52329761D02*
X55016428Y-52377380D01*
X55016428Y-52377380D02*
X54825952Y-52377380D01*
X54825952Y-52377380D02*
X54730714Y-52329761D01*
X54730714Y-52329761D02*
X54683095Y-52282142D01*
X54683095Y-52282142D02*
X54635476Y-52186904D01*
X54635476Y-52186904D02*
X54635476Y-51948809D01*
X54635476Y-51948809D02*
X54683095Y-51853571D01*
X54683095Y-51853571D02*
X54730714Y-51805952D01*
X54730714Y-51805952D02*
X54825952Y-51758333D01*
X54825952Y-51758333D02*
X55016428Y-51758333D01*
X55016428Y-51758333D02*
X55111666Y-51805952D01*
X55111666Y-51805952D02*
X55159285Y-51853571D01*
X55159285Y-51853571D02*
X55206904Y-51948809D01*
D12*
%TO.C,D58*%
X116626428Y-121033904D02*
X116626428Y-120233904D01*
X116626428Y-120233904D02*
X116435952Y-120233904D01*
X116435952Y-120233904D02*
X116321666Y-120272000D01*
X116321666Y-120272000D02*
X116245476Y-120348190D01*
X116245476Y-120348190D02*
X116207381Y-120424380D01*
X116207381Y-120424380D02*
X116169285Y-120576761D01*
X116169285Y-120576761D02*
X116169285Y-120691047D01*
X116169285Y-120691047D02*
X116207381Y-120843428D01*
X116207381Y-120843428D02*
X116245476Y-120919619D01*
X116245476Y-120919619D02*
X116321666Y-120995809D01*
X116321666Y-120995809D02*
X116435952Y-121033904D01*
X116435952Y-121033904D02*
X116626428Y-121033904D01*
X115445476Y-120233904D02*
X115826428Y-120233904D01*
X115826428Y-120233904D02*
X115864524Y-120614857D01*
X115864524Y-120614857D02*
X115826428Y-120576761D01*
X115826428Y-120576761D02*
X115750238Y-120538666D01*
X115750238Y-120538666D02*
X115559762Y-120538666D01*
X115559762Y-120538666D02*
X115483571Y-120576761D01*
X115483571Y-120576761D02*
X115445476Y-120614857D01*
X115445476Y-120614857D02*
X115407381Y-120691047D01*
X115407381Y-120691047D02*
X115407381Y-120881523D01*
X115407381Y-120881523D02*
X115445476Y-120957714D01*
X115445476Y-120957714D02*
X115483571Y-120995809D01*
X115483571Y-120995809D02*
X115559762Y-121033904D01*
X115559762Y-121033904D02*
X115750238Y-121033904D01*
X115750238Y-121033904D02*
X115826428Y-120995809D01*
X115826428Y-120995809D02*
X115864524Y-120957714D01*
X114950238Y-120576761D02*
X115026428Y-120538666D01*
X115026428Y-120538666D02*
X115064523Y-120500571D01*
X115064523Y-120500571D02*
X115102619Y-120424380D01*
X115102619Y-120424380D02*
X115102619Y-120386285D01*
X115102619Y-120386285D02*
X115064523Y-120310095D01*
X115064523Y-120310095D02*
X115026428Y-120272000D01*
X115026428Y-120272000D02*
X114950238Y-120233904D01*
X114950238Y-120233904D02*
X114797857Y-120233904D01*
X114797857Y-120233904D02*
X114721666Y-120272000D01*
X114721666Y-120272000D02*
X114683571Y-120310095D01*
X114683571Y-120310095D02*
X114645476Y-120386285D01*
X114645476Y-120386285D02*
X114645476Y-120424380D01*
X114645476Y-120424380D02*
X114683571Y-120500571D01*
X114683571Y-120500571D02*
X114721666Y-120538666D01*
X114721666Y-120538666D02*
X114797857Y-120576761D01*
X114797857Y-120576761D02*
X114950238Y-120576761D01*
X114950238Y-120576761D02*
X115026428Y-120614857D01*
X115026428Y-120614857D02*
X115064523Y-120652952D01*
X115064523Y-120652952D02*
X115102619Y-120729142D01*
X115102619Y-120729142D02*
X115102619Y-120881523D01*
X115102619Y-120881523D02*
X115064523Y-120957714D01*
X115064523Y-120957714D02*
X115026428Y-120995809D01*
X115026428Y-120995809D02*
X114950238Y-121033904D01*
X114950238Y-121033904D02*
X114797857Y-121033904D01*
X114797857Y-121033904D02*
X114721666Y-120995809D01*
X114721666Y-120995809D02*
X114683571Y-120957714D01*
X114683571Y-120957714D02*
X114645476Y-120881523D01*
X114645476Y-120881523D02*
X114645476Y-120729142D01*
X114645476Y-120729142D02*
X114683571Y-120652952D01*
X114683571Y-120652952D02*
X114721666Y-120614857D01*
X114721666Y-120614857D02*
X114797857Y-120576761D01*
%TO.C,D32*%
X97686428Y-83283904D02*
X97686428Y-82483904D01*
X97686428Y-82483904D02*
X97495952Y-82483904D01*
X97495952Y-82483904D02*
X97381666Y-82522000D01*
X97381666Y-82522000D02*
X97305476Y-82598190D01*
X97305476Y-82598190D02*
X97267381Y-82674380D01*
X97267381Y-82674380D02*
X97229285Y-82826761D01*
X97229285Y-82826761D02*
X97229285Y-82941047D01*
X97229285Y-82941047D02*
X97267381Y-83093428D01*
X97267381Y-83093428D02*
X97305476Y-83169619D01*
X97305476Y-83169619D02*
X97381666Y-83245809D01*
X97381666Y-83245809D02*
X97495952Y-83283904D01*
X97495952Y-83283904D02*
X97686428Y-83283904D01*
X96962619Y-82483904D02*
X96467381Y-82483904D01*
X96467381Y-82483904D02*
X96734047Y-82788666D01*
X96734047Y-82788666D02*
X96619762Y-82788666D01*
X96619762Y-82788666D02*
X96543571Y-82826761D01*
X96543571Y-82826761D02*
X96505476Y-82864857D01*
X96505476Y-82864857D02*
X96467381Y-82941047D01*
X96467381Y-82941047D02*
X96467381Y-83131523D01*
X96467381Y-83131523D02*
X96505476Y-83207714D01*
X96505476Y-83207714D02*
X96543571Y-83245809D01*
X96543571Y-83245809D02*
X96619762Y-83283904D01*
X96619762Y-83283904D02*
X96848333Y-83283904D01*
X96848333Y-83283904D02*
X96924524Y-83245809D01*
X96924524Y-83245809D02*
X96962619Y-83207714D01*
X96162619Y-82560095D02*
X96124523Y-82522000D01*
X96124523Y-82522000D02*
X96048333Y-82483904D01*
X96048333Y-82483904D02*
X95857857Y-82483904D01*
X95857857Y-82483904D02*
X95781666Y-82522000D01*
X95781666Y-82522000D02*
X95743571Y-82560095D01*
X95743571Y-82560095D02*
X95705476Y-82636285D01*
X95705476Y-82636285D02*
X95705476Y-82712476D01*
X95705476Y-82712476D02*
X95743571Y-82826761D01*
X95743571Y-82826761D02*
X96200714Y-83283904D01*
X96200714Y-83283904D02*
X95705476Y-83283904D01*
D11*
%TO.C,SW19*%
X115474523Y-52329761D02*
X115331666Y-52377380D01*
X115331666Y-52377380D02*
X115093571Y-52377380D01*
X115093571Y-52377380D02*
X114998333Y-52329761D01*
X114998333Y-52329761D02*
X114950714Y-52282142D01*
X114950714Y-52282142D02*
X114903095Y-52186904D01*
X114903095Y-52186904D02*
X114903095Y-52091666D01*
X114903095Y-52091666D02*
X114950714Y-51996428D01*
X114950714Y-51996428D02*
X114998333Y-51948809D01*
X114998333Y-51948809D02*
X115093571Y-51901190D01*
X115093571Y-51901190D02*
X115284047Y-51853571D01*
X115284047Y-51853571D02*
X115379285Y-51805952D01*
X115379285Y-51805952D02*
X115426904Y-51758333D01*
X115426904Y-51758333D02*
X115474523Y-51663095D01*
X115474523Y-51663095D02*
X115474523Y-51567857D01*
X115474523Y-51567857D02*
X115426904Y-51472619D01*
X115426904Y-51472619D02*
X115379285Y-51425000D01*
X115379285Y-51425000D02*
X115284047Y-51377380D01*
X115284047Y-51377380D02*
X115045952Y-51377380D01*
X115045952Y-51377380D02*
X114903095Y-51425000D01*
X114569761Y-51377380D02*
X114331666Y-52377380D01*
X114331666Y-52377380D02*
X114141190Y-51663095D01*
X114141190Y-51663095D02*
X113950714Y-52377380D01*
X113950714Y-52377380D02*
X113712619Y-51377380D01*
X112807857Y-52377380D02*
X113379285Y-52377380D01*
X113093571Y-52377380D02*
X113093571Y-51377380D01*
X113093571Y-51377380D02*
X113188809Y-51520238D01*
X113188809Y-51520238D02*
X113284047Y-51615476D01*
X113284047Y-51615476D02*
X113379285Y-51663095D01*
X112331666Y-52377380D02*
X112141190Y-52377380D01*
X112141190Y-52377380D02*
X112045952Y-52329761D01*
X112045952Y-52329761D02*
X111998333Y-52282142D01*
X111998333Y-52282142D02*
X111903095Y-52139285D01*
X111903095Y-52139285D02*
X111855476Y-51948809D01*
X111855476Y-51948809D02*
X111855476Y-51567857D01*
X111855476Y-51567857D02*
X111903095Y-51472619D01*
X111903095Y-51472619D02*
X111950714Y-51425000D01*
X111950714Y-51425000D02*
X112045952Y-51377380D01*
X112045952Y-51377380D02*
X112236428Y-51377380D01*
X112236428Y-51377380D02*
X112331666Y-51425000D01*
X112331666Y-51425000D02*
X112379285Y-51472619D01*
X112379285Y-51472619D02*
X112426904Y-51567857D01*
X112426904Y-51567857D02*
X112426904Y-51805952D01*
X112426904Y-51805952D02*
X112379285Y-51901190D01*
X112379285Y-51901190D02*
X112331666Y-51948809D01*
X112331666Y-51948809D02*
X112236428Y-51996428D01*
X112236428Y-51996428D02*
X112045952Y-51996428D01*
X112045952Y-51996428D02*
X111950714Y-51948809D01*
X111950714Y-51948809D02*
X111903095Y-51901190D01*
X111903095Y-51901190D02*
X111855476Y-51805952D01*
D12*
%TO.C,D35*%
X154771428Y-83283904D02*
X154771428Y-82483904D01*
X154771428Y-82483904D02*
X154580952Y-82483904D01*
X154580952Y-82483904D02*
X154466666Y-82522000D01*
X154466666Y-82522000D02*
X154390476Y-82598190D01*
X154390476Y-82598190D02*
X154352381Y-82674380D01*
X154352381Y-82674380D02*
X154314285Y-82826761D01*
X154314285Y-82826761D02*
X154314285Y-82941047D01*
X154314285Y-82941047D02*
X154352381Y-83093428D01*
X154352381Y-83093428D02*
X154390476Y-83169619D01*
X154390476Y-83169619D02*
X154466666Y-83245809D01*
X154466666Y-83245809D02*
X154580952Y-83283904D01*
X154580952Y-83283904D02*
X154771428Y-83283904D01*
X154047619Y-82483904D02*
X153552381Y-82483904D01*
X153552381Y-82483904D02*
X153819047Y-82788666D01*
X153819047Y-82788666D02*
X153704762Y-82788666D01*
X153704762Y-82788666D02*
X153628571Y-82826761D01*
X153628571Y-82826761D02*
X153590476Y-82864857D01*
X153590476Y-82864857D02*
X153552381Y-82941047D01*
X153552381Y-82941047D02*
X153552381Y-83131523D01*
X153552381Y-83131523D02*
X153590476Y-83207714D01*
X153590476Y-83207714D02*
X153628571Y-83245809D01*
X153628571Y-83245809D02*
X153704762Y-83283904D01*
X153704762Y-83283904D02*
X153933333Y-83283904D01*
X153933333Y-83283904D02*
X154009524Y-83245809D01*
X154009524Y-83245809D02*
X154047619Y-83207714D01*
X152828571Y-82483904D02*
X153209523Y-82483904D01*
X153209523Y-82483904D02*
X153247619Y-82864857D01*
X153247619Y-82864857D02*
X153209523Y-82826761D01*
X153209523Y-82826761D02*
X153133333Y-82788666D01*
X153133333Y-82788666D02*
X152942857Y-82788666D01*
X152942857Y-82788666D02*
X152866666Y-82826761D01*
X152866666Y-82826761D02*
X152828571Y-82864857D01*
X152828571Y-82864857D02*
X152790476Y-82941047D01*
X152790476Y-82941047D02*
X152790476Y-83131523D01*
X152790476Y-83131523D02*
X152828571Y-83207714D01*
X152828571Y-83207714D02*
X152866666Y-83245809D01*
X152866666Y-83245809D02*
X152942857Y-83283904D01*
X152942857Y-83283904D02*
X153133333Y-83283904D01*
X153133333Y-83283904D02*
X153209523Y-83245809D01*
X153209523Y-83245809D02*
X153247619Y-83207714D01*
%TO.C,D46*%
X97686428Y-102063904D02*
X97686428Y-101263904D01*
X97686428Y-101263904D02*
X97495952Y-101263904D01*
X97495952Y-101263904D02*
X97381666Y-101302000D01*
X97381666Y-101302000D02*
X97305476Y-101378190D01*
X97305476Y-101378190D02*
X97267381Y-101454380D01*
X97267381Y-101454380D02*
X97229285Y-101606761D01*
X97229285Y-101606761D02*
X97229285Y-101721047D01*
X97229285Y-101721047D02*
X97267381Y-101873428D01*
X97267381Y-101873428D02*
X97305476Y-101949619D01*
X97305476Y-101949619D02*
X97381666Y-102025809D01*
X97381666Y-102025809D02*
X97495952Y-102063904D01*
X97495952Y-102063904D02*
X97686428Y-102063904D01*
X96543571Y-101530571D02*
X96543571Y-102063904D01*
X96734047Y-101225809D02*
X96924524Y-101797238D01*
X96924524Y-101797238D02*
X96429285Y-101797238D01*
X95781666Y-101263904D02*
X95934047Y-101263904D01*
X95934047Y-101263904D02*
X96010238Y-101302000D01*
X96010238Y-101302000D02*
X96048333Y-101340095D01*
X96048333Y-101340095D02*
X96124523Y-101454380D01*
X96124523Y-101454380D02*
X96162619Y-101606761D01*
X96162619Y-101606761D02*
X96162619Y-101911523D01*
X96162619Y-101911523D02*
X96124523Y-101987714D01*
X96124523Y-101987714D02*
X96086428Y-102025809D01*
X96086428Y-102025809D02*
X96010238Y-102063904D01*
X96010238Y-102063904D02*
X95857857Y-102063904D01*
X95857857Y-102063904D02*
X95781666Y-102025809D01*
X95781666Y-102025809D02*
X95743571Y-101987714D01*
X95743571Y-101987714D02*
X95705476Y-101911523D01*
X95705476Y-101911523D02*
X95705476Y-101721047D01*
X95705476Y-101721047D02*
X95743571Y-101644857D01*
X95743571Y-101644857D02*
X95781666Y-101606761D01*
X95781666Y-101606761D02*
X95857857Y-101568666D01*
X95857857Y-101568666D02*
X96010238Y-101568666D01*
X96010238Y-101568666D02*
X96086428Y-101606761D01*
X96086428Y-101606761D02*
X96124523Y-101644857D01*
X96124523Y-101644857D02*
X96162619Y-101721047D01*
%TO.C,D34*%
X135696428Y-83383904D02*
X135696428Y-82583904D01*
X135696428Y-82583904D02*
X135505952Y-82583904D01*
X135505952Y-82583904D02*
X135391666Y-82622000D01*
X135391666Y-82622000D02*
X135315476Y-82698190D01*
X135315476Y-82698190D02*
X135277381Y-82774380D01*
X135277381Y-82774380D02*
X135239285Y-82926761D01*
X135239285Y-82926761D02*
X135239285Y-83041047D01*
X135239285Y-83041047D02*
X135277381Y-83193428D01*
X135277381Y-83193428D02*
X135315476Y-83269619D01*
X135315476Y-83269619D02*
X135391666Y-83345809D01*
X135391666Y-83345809D02*
X135505952Y-83383904D01*
X135505952Y-83383904D02*
X135696428Y-83383904D01*
X134972619Y-82583904D02*
X134477381Y-82583904D01*
X134477381Y-82583904D02*
X134744047Y-82888666D01*
X134744047Y-82888666D02*
X134629762Y-82888666D01*
X134629762Y-82888666D02*
X134553571Y-82926761D01*
X134553571Y-82926761D02*
X134515476Y-82964857D01*
X134515476Y-82964857D02*
X134477381Y-83041047D01*
X134477381Y-83041047D02*
X134477381Y-83231523D01*
X134477381Y-83231523D02*
X134515476Y-83307714D01*
X134515476Y-83307714D02*
X134553571Y-83345809D01*
X134553571Y-83345809D02*
X134629762Y-83383904D01*
X134629762Y-83383904D02*
X134858333Y-83383904D01*
X134858333Y-83383904D02*
X134934524Y-83345809D01*
X134934524Y-83345809D02*
X134972619Y-83307714D01*
X133791666Y-82850571D02*
X133791666Y-83383904D01*
X133982142Y-82545809D02*
X134172619Y-83117238D01*
X134172619Y-83117238D02*
X133677380Y-83117238D01*
D11*
%TO.C,SW43*%
X39274523Y-90549761D02*
X39131666Y-90597380D01*
X39131666Y-90597380D02*
X38893571Y-90597380D01*
X38893571Y-90597380D02*
X38798333Y-90549761D01*
X38798333Y-90549761D02*
X38750714Y-90502142D01*
X38750714Y-90502142D02*
X38703095Y-90406904D01*
X38703095Y-90406904D02*
X38703095Y-90311666D01*
X38703095Y-90311666D02*
X38750714Y-90216428D01*
X38750714Y-90216428D02*
X38798333Y-90168809D01*
X38798333Y-90168809D02*
X38893571Y-90121190D01*
X38893571Y-90121190D02*
X39084047Y-90073571D01*
X39084047Y-90073571D02*
X39179285Y-90025952D01*
X39179285Y-90025952D02*
X39226904Y-89978333D01*
X39226904Y-89978333D02*
X39274523Y-89883095D01*
X39274523Y-89883095D02*
X39274523Y-89787857D01*
X39274523Y-89787857D02*
X39226904Y-89692619D01*
X39226904Y-89692619D02*
X39179285Y-89645000D01*
X39179285Y-89645000D02*
X39084047Y-89597380D01*
X39084047Y-89597380D02*
X38845952Y-89597380D01*
X38845952Y-89597380D02*
X38703095Y-89645000D01*
X38369761Y-89597380D02*
X38131666Y-90597380D01*
X38131666Y-90597380D02*
X37941190Y-89883095D01*
X37941190Y-89883095D02*
X37750714Y-90597380D01*
X37750714Y-90597380D02*
X37512619Y-89597380D01*
X36703095Y-89930714D02*
X36703095Y-90597380D01*
X36941190Y-89549761D02*
X37179285Y-90264047D01*
X37179285Y-90264047D02*
X36560238Y-90264047D01*
X36274523Y-89597380D02*
X35655476Y-89597380D01*
X35655476Y-89597380D02*
X35988809Y-89978333D01*
X35988809Y-89978333D02*
X35845952Y-89978333D01*
X35845952Y-89978333D02*
X35750714Y-90025952D01*
X35750714Y-90025952D02*
X35703095Y-90073571D01*
X35703095Y-90073571D02*
X35655476Y-90168809D01*
X35655476Y-90168809D02*
X35655476Y-90406904D01*
X35655476Y-90406904D02*
X35703095Y-90502142D01*
X35703095Y-90502142D02*
X35750714Y-90549761D01*
X35750714Y-90549761D02*
X35845952Y-90597380D01*
X35845952Y-90597380D02*
X36131666Y-90597380D01*
X36131666Y-90597380D02*
X36226904Y-90549761D01*
X36226904Y-90549761D02*
X36274523Y-90502142D01*
%TO.C,SW47*%
X115474523Y-90549761D02*
X115331666Y-90597380D01*
X115331666Y-90597380D02*
X115093571Y-90597380D01*
X115093571Y-90597380D02*
X114998333Y-90549761D01*
X114998333Y-90549761D02*
X114950714Y-90502142D01*
X114950714Y-90502142D02*
X114903095Y-90406904D01*
X114903095Y-90406904D02*
X114903095Y-90311666D01*
X114903095Y-90311666D02*
X114950714Y-90216428D01*
X114950714Y-90216428D02*
X114998333Y-90168809D01*
X114998333Y-90168809D02*
X115093571Y-90121190D01*
X115093571Y-90121190D02*
X115284047Y-90073571D01*
X115284047Y-90073571D02*
X115379285Y-90025952D01*
X115379285Y-90025952D02*
X115426904Y-89978333D01*
X115426904Y-89978333D02*
X115474523Y-89883095D01*
X115474523Y-89883095D02*
X115474523Y-89787857D01*
X115474523Y-89787857D02*
X115426904Y-89692619D01*
X115426904Y-89692619D02*
X115379285Y-89645000D01*
X115379285Y-89645000D02*
X115284047Y-89597380D01*
X115284047Y-89597380D02*
X115045952Y-89597380D01*
X115045952Y-89597380D02*
X114903095Y-89645000D01*
X114569761Y-89597380D02*
X114331666Y-90597380D01*
X114331666Y-90597380D02*
X114141190Y-89883095D01*
X114141190Y-89883095D02*
X113950714Y-90597380D01*
X113950714Y-90597380D02*
X113712619Y-89597380D01*
X112903095Y-89930714D02*
X112903095Y-90597380D01*
X113141190Y-89549761D02*
X113379285Y-90264047D01*
X113379285Y-90264047D02*
X112760238Y-90264047D01*
X112474523Y-89597380D02*
X111807857Y-89597380D01*
X111807857Y-89597380D02*
X112236428Y-90597380D01*
D12*
%TO.C,D2*%
X59105475Y-44833904D02*
X59105475Y-44033904D01*
X59105475Y-44033904D02*
X58914999Y-44033904D01*
X58914999Y-44033904D02*
X58800713Y-44072000D01*
X58800713Y-44072000D02*
X58724523Y-44148190D01*
X58724523Y-44148190D02*
X58686428Y-44224380D01*
X58686428Y-44224380D02*
X58648332Y-44376761D01*
X58648332Y-44376761D02*
X58648332Y-44491047D01*
X58648332Y-44491047D02*
X58686428Y-44643428D01*
X58686428Y-44643428D02*
X58724523Y-44719619D01*
X58724523Y-44719619D02*
X58800713Y-44795809D01*
X58800713Y-44795809D02*
X58914999Y-44833904D01*
X58914999Y-44833904D02*
X59105475Y-44833904D01*
X58343571Y-44110095D02*
X58305475Y-44072000D01*
X58305475Y-44072000D02*
X58229285Y-44033904D01*
X58229285Y-44033904D02*
X58038809Y-44033904D01*
X58038809Y-44033904D02*
X57962618Y-44072000D01*
X57962618Y-44072000D02*
X57924523Y-44110095D01*
X57924523Y-44110095D02*
X57886428Y-44186285D01*
X57886428Y-44186285D02*
X57886428Y-44262476D01*
X57886428Y-44262476D02*
X57924523Y-44376761D01*
X57924523Y-44376761D02*
X58381666Y-44833904D01*
X58381666Y-44833904D02*
X57886428Y-44833904D01*
D11*
%TO.C,SW35*%
X153574523Y-71379761D02*
X153431666Y-71427380D01*
X153431666Y-71427380D02*
X153193571Y-71427380D01*
X153193571Y-71427380D02*
X153098333Y-71379761D01*
X153098333Y-71379761D02*
X153050714Y-71332142D01*
X153050714Y-71332142D02*
X153003095Y-71236904D01*
X153003095Y-71236904D02*
X153003095Y-71141666D01*
X153003095Y-71141666D02*
X153050714Y-71046428D01*
X153050714Y-71046428D02*
X153098333Y-70998809D01*
X153098333Y-70998809D02*
X153193571Y-70951190D01*
X153193571Y-70951190D02*
X153384047Y-70903571D01*
X153384047Y-70903571D02*
X153479285Y-70855952D01*
X153479285Y-70855952D02*
X153526904Y-70808333D01*
X153526904Y-70808333D02*
X153574523Y-70713095D01*
X153574523Y-70713095D02*
X153574523Y-70617857D01*
X153574523Y-70617857D02*
X153526904Y-70522619D01*
X153526904Y-70522619D02*
X153479285Y-70475000D01*
X153479285Y-70475000D02*
X153384047Y-70427380D01*
X153384047Y-70427380D02*
X153145952Y-70427380D01*
X153145952Y-70427380D02*
X153003095Y-70475000D01*
X152669761Y-70427380D02*
X152431666Y-71427380D01*
X152431666Y-71427380D02*
X152241190Y-70713095D01*
X152241190Y-70713095D02*
X152050714Y-71427380D01*
X152050714Y-71427380D02*
X151812619Y-70427380D01*
X151526904Y-70427380D02*
X150907857Y-70427380D01*
X150907857Y-70427380D02*
X151241190Y-70808333D01*
X151241190Y-70808333D02*
X151098333Y-70808333D01*
X151098333Y-70808333D02*
X151003095Y-70855952D01*
X151003095Y-70855952D02*
X150955476Y-70903571D01*
X150955476Y-70903571D02*
X150907857Y-70998809D01*
X150907857Y-70998809D02*
X150907857Y-71236904D01*
X150907857Y-71236904D02*
X150955476Y-71332142D01*
X150955476Y-71332142D02*
X151003095Y-71379761D01*
X151003095Y-71379761D02*
X151098333Y-71427380D01*
X151098333Y-71427380D02*
X151384047Y-71427380D01*
X151384047Y-71427380D02*
X151479285Y-71379761D01*
X151479285Y-71379761D02*
X151526904Y-71332142D01*
X150003095Y-70427380D02*
X150479285Y-70427380D01*
X150479285Y-70427380D02*
X150526904Y-70903571D01*
X150526904Y-70903571D02*
X150479285Y-70855952D01*
X150479285Y-70855952D02*
X150384047Y-70808333D01*
X150384047Y-70808333D02*
X150145952Y-70808333D01*
X150145952Y-70808333D02*
X150050714Y-70855952D01*
X150050714Y-70855952D02*
X150003095Y-70903571D01*
X150003095Y-70903571D02*
X149955476Y-70998809D01*
X149955476Y-70998809D02*
X149955476Y-71236904D01*
X149955476Y-71236904D02*
X150003095Y-71332142D01*
X150003095Y-71332142D02*
X150050714Y-71379761D01*
X150050714Y-71379761D02*
X150145952Y-71427380D01*
X150145952Y-71427380D02*
X150384047Y-71427380D01*
X150384047Y-71427380D02*
X150479285Y-71379761D01*
X150479285Y-71379761D02*
X150526904Y-71332142D01*
D12*
%TO.C,D31*%
X78636428Y-83283904D02*
X78636428Y-82483904D01*
X78636428Y-82483904D02*
X78445952Y-82483904D01*
X78445952Y-82483904D02*
X78331666Y-82522000D01*
X78331666Y-82522000D02*
X78255476Y-82598190D01*
X78255476Y-82598190D02*
X78217381Y-82674380D01*
X78217381Y-82674380D02*
X78179285Y-82826761D01*
X78179285Y-82826761D02*
X78179285Y-82941047D01*
X78179285Y-82941047D02*
X78217381Y-83093428D01*
X78217381Y-83093428D02*
X78255476Y-83169619D01*
X78255476Y-83169619D02*
X78331666Y-83245809D01*
X78331666Y-83245809D02*
X78445952Y-83283904D01*
X78445952Y-83283904D02*
X78636428Y-83283904D01*
X77912619Y-82483904D02*
X77417381Y-82483904D01*
X77417381Y-82483904D02*
X77684047Y-82788666D01*
X77684047Y-82788666D02*
X77569762Y-82788666D01*
X77569762Y-82788666D02*
X77493571Y-82826761D01*
X77493571Y-82826761D02*
X77455476Y-82864857D01*
X77455476Y-82864857D02*
X77417381Y-82941047D01*
X77417381Y-82941047D02*
X77417381Y-83131523D01*
X77417381Y-83131523D02*
X77455476Y-83207714D01*
X77455476Y-83207714D02*
X77493571Y-83245809D01*
X77493571Y-83245809D02*
X77569762Y-83283904D01*
X77569762Y-83283904D02*
X77798333Y-83283904D01*
X77798333Y-83283904D02*
X77874524Y-83245809D01*
X77874524Y-83245809D02*
X77912619Y-83207714D01*
X76655476Y-83283904D02*
X77112619Y-83283904D01*
X76884047Y-83283904D02*
X76884047Y-82483904D01*
X76884047Y-82483904D02*
X76960238Y-82598190D01*
X76960238Y-82598190D02*
X77036428Y-82674380D01*
X77036428Y-82674380D02*
X77112619Y-82712476D01*
D11*
%TO.C,SW30*%
X58254523Y-71379761D02*
X58111666Y-71427380D01*
X58111666Y-71427380D02*
X57873571Y-71427380D01*
X57873571Y-71427380D02*
X57778333Y-71379761D01*
X57778333Y-71379761D02*
X57730714Y-71332142D01*
X57730714Y-71332142D02*
X57683095Y-71236904D01*
X57683095Y-71236904D02*
X57683095Y-71141666D01*
X57683095Y-71141666D02*
X57730714Y-71046428D01*
X57730714Y-71046428D02*
X57778333Y-70998809D01*
X57778333Y-70998809D02*
X57873571Y-70951190D01*
X57873571Y-70951190D02*
X58064047Y-70903571D01*
X58064047Y-70903571D02*
X58159285Y-70855952D01*
X58159285Y-70855952D02*
X58206904Y-70808333D01*
X58206904Y-70808333D02*
X58254523Y-70713095D01*
X58254523Y-70713095D02*
X58254523Y-70617857D01*
X58254523Y-70617857D02*
X58206904Y-70522619D01*
X58206904Y-70522619D02*
X58159285Y-70475000D01*
X58159285Y-70475000D02*
X58064047Y-70427380D01*
X58064047Y-70427380D02*
X57825952Y-70427380D01*
X57825952Y-70427380D02*
X57683095Y-70475000D01*
X57349761Y-70427380D02*
X57111666Y-71427380D01*
X57111666Y-71427380D02*
X56921190Y-70713095D01*
X56921190Y-70713095D02*
X56730714Y-71427380D01*
X56730714Y-71427380D02*
X56492619Y-70427380D01*
X56206904Y-70427380D02*
X55587857Y-70427380D01*
X55587857Y-70427380D02*
X55921190Y-70808333D01*
X55921190Y-70808333D02*
X55778333Y-70808333D01*
X55778333Y-70808333D02*
X55683095Y-70855952D01*
X55683095Y-70855952D02*
X55635476Y-70903571D01*
X55635476Y-70903571D02*
X55587857Y-70998809D01*
X55587857Y-70998809D02*
X55587857Y-71236904D01*
X55587857Y-71236904D02*
X55635476Y-71332142D01*
X55635476Y-71332142D02*
X55683095Y-71379761D01*
X55683095Y-71379761D02*
X55778333Y-71427380D01*
X55778333Y-71427380D02*
X56064047Y-71427380D01*
X56064047Y-71427380D02*
X56159285Y-71379761D01*
X56159285Y-71379761D02*
X56206904Y-71332142D01*
X54968809Y-70427380D02*
X54873571Y-70427380D01*
X54873571Y-70427380D02*
X54778333Y-70475000D01*
X54778333Y-70475000D02*
X54730714Y-70522619D01*
X54730714Y-70522619D02*
X54683095Y-70617857D01*
X54683095Y-70617857D02*
X54635476Y-70808333D01*
X54635476Y-70808333D02*
X54635476Y-71046428D01*
X54635476Y-71046428D02*
X54683095Y-71236904D01*
X54683095Y-71236904D02*
X54730714Y-71332142D01*
X54730714Y-71332142D02*
X54778333Y-71379761D01*
X54778333Y-71379761D02*
X54873571Y-71427380D01*
X54873571Y-71427380D02*
X54968809Y-71427380D01*
X54968809Y-71427380D02*
X55064047Y-71379761D01*
X55064047Y-71379761D02*
X55111666Y-71332142D01*
X55111666Y-71332142D02*
X55159285Y-71236904D01*
X55159285Y-71236904D02*
X55206904Y-71046428D01*
X55206904Y-71046428D02*
X55206904Y-70808333D01*
X55206904Y-70808333D02*
X55159285Y-70617857D01*
X55159285Y-70617857D02*
X55111666Y-70522619D01*
X55111666Y-70522619D02*
X55064047Y-70475000D01*
X55064047Y-70475000D02*
X54968809Y-70427380D01*
D12*
%TO.C,D59*%
X135696428Y-121033904D02*
X135696428Y-120233904D01*
X135696428Y-120233904D02*
X135505952Y-120233904D01*
X135505952Y-120233904D02*
X135391666Y-120272000D01*
X135391666Y-120272000D02*
X135315476Y-120348190D01*
X135315476Y-120348190D02*
X135277381Y-120424380D01*
X135277381Y-120424380D02*
X135239285Y-120576761D01*
X135239285Y-120576761D02*
X135239285Y-120691047D01*
X135239285Y-120691047D02*
X135277381Y-120843428D01*
X135277381Y-120843428D02*
X135315476Y-120919619D01*
X135315476Y-120919619D02*
X135391666Y-120995809D01*
X135391666Y-120995809D02*
X135505952Y-121033904D01*
X135505952Y-121033904D02*
X135696428Y-121033904D01*
X134515476Y-120233904D02*
X134896428Y-120233904D01*
X134896428Y-120233904D02*
X134934524Y-120614857D01*
X134934524Y-120614857D02*
X134896428Y-120576761D01*
X134896428Y-120576761D02*
X134820238Y-120538666D01*
X134820238Y-120538666D02*
X134629762Y-120538666D01*
X134629762Y-120538666D02*
X134553571Y-120576761D01*
X134553571Y-120576761D02*
X134515476Y-120614857D01*
X134515476Y-120614857D02*
X134477381Y-120691047D01*
X134477381Y-120691047D02*
X134477381Y-120881523D01*
X134477381Y-120881523D02*
X134515476Y-120957714D01*
X134515476Y-120957714D02*
X134553571Y-120995809D01*
X134553571Y-120995809D02*
X134629762Y-121033904D01*
X134629762Y-121033904D02*
X134820238Y-121033904D01*
X134820238Y-121033904D02*
X134896428Y-120995809D01*
X134896428Y-120995809D02*
X134934524Y-120957714D01*
X134096428Y-121033904D02*
X133944047Y-121033904D01*
X133944047Y-121033904D02*
X133867857Y-120995809D01*
X133867857Y-120995809D02*
X133829761Y-120957714D01*
X133829761Y-120957714D02*
X133753571Y-120843428D01*
X133753571Y-120843428D02*
X133715476Y-120691047D01*
X133715476Y-120691047D02*
X133715476Y-120386285D01*
X133715476Y-120386285D02*
X133753571Y-120310095D01*
X133753571Y-120310095D02*
X133791666Y-120272000D01*
X133791666Y-120272000D02*
X133867857Y-120233904D01*
X133867857Y-120233904D02*
X134020238Y-120233904D01*
X134020238Y-120233904D02*
X134096428Y-120272000D01*
X134096428Y-120272000D02*
X134134523Y-120310095D01*
X134134523Y-120310095D02*
X134172619Y-120386285D01*
X134172619Y-120386285D02*
X134172619Y-120576761D01*
X134172619Y-120576761D02*
X134134523Y-120652952D01*
X134134523Y-120652952D02*
X134096428Y-120691047D01*
X134096428Y-120691047D02*
X134020238Y-120729142D01*
X134020238Y-120729142D02*
X133867857Y-120729142D01*
X133867857Y-120729142D02*
X133791666Y-120691047D01*
X133791666Y-120691047D02*
X133753571Y-120652952D01*
X133753571Y-120652952D02*
X133715476Y-120576761D01*
D11*
%TO.C,SW33*%
X115474523Y-71379761D02*
X115331666Y-71427380D01*
X115331666Y-71427380D02*
X115093571Y-71427380D01*
X115093571Y-71427380D02*
X114998333Y-71379761D01*
X114998333Y-71379761D02*
X114950714Y-71332142D01*
X114950714Y-71332142D02*
X114903095Y-71236904D01*
X114903095Y-71236904D02*
X114903095Y-71141666D01*
X114903095Y-71141666D02*
X114950714Y-71046428D01*
X114950714Y-71046428D02*
X114998333Y-70998809D01*
X114998333Y-70998809D02*
X115093571Y-70951190D01*
X115093571Y-70951190D02*
X115284047Y-70903571D01*
X115284047Y-70903571D02*
X115379285Y-70855952D01*
X115379285Y-70855952D02*
X115426904Y-70808333D01*
X115426904Y-70808333D02*
X115474523Y-70713095D01*
X115474523Y-70713095D02*
X115474523Y-70617857D01*
X115474523Y-70617857D02*
X115426904Y-70522619D01*
X115426904Y-70522619D02*
X115379285Y-70475000D01*
X115379285Y-70475000D02*
X115284047Y-70427380D01*
X115284047Y-70427380D02*
X115045952Y-70427380D01*
X115045952Y-70427380D02*
X114903095Y-70475000D01*
X114569761Y-70427380D02*
X114331666Y-71427380D01*
X114331666Y-71427380D02*
X114141190Y-70713095D01*
X114141190Y-70713095D02*
X113950714Y-71427380D01*
X113950714Y-71427380D02*
X113712619Y-70427380D01*
X113426904Y-70427380D02*
X112807857Y-70427380D01*
X112807857Y-70427380D02*
X113141190Y-70808333D01*
X113141190Y-70808333D02*
X112998333Y-70808333D01*
X112998333Y-70808333D02*
X112903095Y-70855952D01*
X112903095Y-70855952D02*
X112855476Y-70903571D01*
X112855476Y-70903571D02*
X112807857Y-70998809D01*
X112807857Y-70998809D02*
X112807857Y-71236904D01*
X112807857Y-71236904D02*
X112855476Y-71332142D01*
X112855476Y-71332142D02*
X112903095Y-71379761D01*
X112903095Y-71379761D02*
X112998333Y-71427380D01*
X112998333Y-71427380D02*
X113284047Y-71427380D01*
X113284047Y-71427380D02*
X113379285Y-71379761D01*
X113379285Y-71379761D02*
X113426904Y-71332142D01*
X112474523Y-70427380D02*
X111855476Y-70427380D01*
X111855476Y-70427380D02*
X112188809Y-70808333D01*
X112188809Y-70808333D02*
X112045952Y-70808333D01*
X112045952Y-70808333D02*
X111950714Y-70855952D01*
X111950714Y-70855952D02*
X111903095Y-70903571D01*
X111903095Y-70903571D02*
X111855476Y-70998809D01*
X111855476Y-70998809D02*
X111855476Y-71236904D01*
X111855476Y-71236904D02*
X111903095Y-71332142D01*
X111903095Y-71332142D02*
X111950714Y-71379761D01*
X111950714Y-71379761D02*
X112045952Y-71427380D01*
X112045952Y-71427380D02*
X112331666Y-71427380D01*
X112331666Y-71427380D02*
X112426904Y-71379761D01*
X112426904Y-71379761D02*
X112474523Y-71332142D01*
D12*
%TO.C,D5*%
X116245475Y-44933904D02*
X116245475Y-44133904D01*
X116245475Y-44133904D02*
X116054999Y-44133904D01*
X116054999Y-44133904D02*
X115940713Y-44172000D01*
X115940713Y-44172000D02*
X115864523Y-44248190D01*
X115864523Y-44248190D02*
X115826428Y-44324380D01*
X115826428Y-44324380D02*
X115788332Y-44476761D01*
X115788332Y-44476761D02*
X115788332Y-44591047D01*
X115788332Y-44591047D02*
X115826428Y-44743428D01*
X115826428Y-44743428D02*
X115864523Y-44819619D01*
X115864523Y-44819619D02*
X115940713Y-44895809D01*
X115940713Y-44895809D02*
X116054999Y-44933904D01*
X116054999Y-44933904D02*
X116245475Y-44933904D01*
X115064523Y-44133904D02*
X115445475Y-44133904D01*
X115445475Y-44133904D02*
X115483571Y-44514857D01*
X115483571Y-44514857D02*
X115445475Y-44476761D01*
X115445475Y-44476761D02*
X115369285Y-44438666D01*
X115369285Y-44438666D02*
X115178809Y-44438666D01*
X115178809Y-44438666D02*
X115102618Y-44476761D01*
X115102618Y-44476761D02*
X115064523Y-44514857D01*
X115064523Y-44514857D02*
X115026428Y-44591047D01*
X115026428Y-44591047D02*
X115026428Y-44781523D01*
X115026428Y-44781523D02*
X115064523Y-44857714D01*
X115064523Y-44857714D02*
X115102618Y-44895809D01*
X115102618Y-44895809D02*
X115178809Y-44933904D01*
X115178809Y-44933904D02*
X115369285Y-44933904D01*
X115369285Y-44933904D02*
X115445475Y-44895809D01*
X115445475Y-44895809D02*
X115483571Y-44857714D01*
%TO.C,D4*%
X97305475Y-44933904D02*
X97305475Y-44133904D01*
X97305475Y-44133904D02*
X97114999Y-44133904D01*
X97114999Y-44133904D02*
X97000713Y-44172000D01*
X97000713Y-44172000D02*
X96924523Y-44248190D01*
X96924523Y-44248190D02*
X96886428Y-44324380D01*
X96886428Y-44324380D02*
X96848332Y-44476761D01*
X96848332Y-44476761D02*
X96848332Y-44591047D01*
X96848332Y-44591047D02*
X96886428Y-44743428D01*
X96886428Y-44743428D02*
X96924523Y-44819619D01*
X96924523Y-44819619D02*
X97000713Y-44895809D01*
X97000713Y-44895809D02*
X97114999Y-44933904D01*
X97114999Y-44933904D02*
X97305475Y-44933904D01*
X96162618Y-44400571D02*
X96162618Y-44933904D01*
X96353094Y-44095809D02*
X96543571Y-44667238D01*
X96543571Y-44667238D02*
X96048332Y-44667238D01*
%TO.C,D7*%
X154390475Y-44833904D02*
X154390475Y-44033904D01*
X154390475Y-44033904D02*
X154199999Y-44033904D01*
X154199999Y-44033904D02*
X154085713Y-44072000D01*
X154085713Y-44072000D02*
X154009523Y-44148190D01*
X154009523Y-44148190D02*
X153971428Y-44224380D01*
X153971428Y-44224380D02*
X153933332Y-44376761D01*
X153933332Y-44376761D02*
X153933332Y-44491047D01*
X153933332Y-44491047D02*
X153971428Y-44643428D01*
X153971428Y-44643428D02*
X154009523Y-44719619D01*
X154009523Y-44719619D02*
X154085713Y-44795809D01*
X154085713Y-44795809D02*
X154199999Y-44833904D01*
X154199999Y-44833904D02*
X154390475Y-44833904D01*
X153666666Y-44033904D02*
X153133332Y-44033904D01*
X153133332Y-44033904D02*
X153476190Y-44833904D01*
D11*
%TO.C,SW6*%
X134048332Y-33279761D02*
X133905475Y-33327380D01*
X133905475Y-33327380D02*
X133667380Y-33327380D01*
X133667380Y-33327380D02*
X133572142Y-33279761D01*
X133572142Y-33279761D02*
X133524523Y-33232142D01*
X133524523Y-33232142D02*
X133476904Y-33136904D01*
X133476904Y-33136904D02*
X133476904Y-33041666D01*
X133476904Y-33041666D02*
X133524523Y-32946428D01*
X133524523Y-32946428D02*
X133572142Y-32898809D01*
X133572142Y-32898809D02*
X133667380Y-32851190D01*
X133667380Y-32851190D02*
X133857856Y-32803571D01*
X133857856Y-32803571D02*
X133953094Y-32755952D01*
X133953094Y-32755952D02*
X134000713Y-32708333D01*
X134000713Y-32708333D02*
X134048332Y-32613095D01*
X134048332Y-32613095D02*
X134048332Y-32517857D01*
X134048332Y-32517857D02*
X134000713Y-32422619D01*
X134000713Y-32422619D02*
X133953094Y-32375000D01*
X133953094Y-32375000D02*
X133857856Y-32327380D01*
X133857856Y-32327380D02*
X133619761Y-32327380D01*
X133619761Y-32327380D02*
X133476904Y-32375000D01*
X133143570Y-32327380D02*
X132905475Y-33327380D01*
X132905475Y-33327380D02*
X132714999Y-32613095D01*
X132714999Y-32613095D02*
X132524523Y-33327380D01*
X132524523Y-33327380D02*
X132286428Y-32327380D01*
X131476904Y-32327380D02*
X131667380Y-32327380D01*
X131667380Y-32327380D02*
X131762618Y-32375000D01*
X131762618Y-32375000D02*
X131810237Y-32422619D01*
X131810237Y-32422619D02*
X131905475Y-32565476D01*
X131905475Y-32565476D02*
X131953094Y-32755952D01*
X131953094Y-32755952D02*
X131953094Y-33136904D01*
X131953094Y-33136904D02*
X131905475Y-33232142D01*
X131905475Y-33232142D02*
X131857856Y-33279761D01*
X131857856Y-33279761D02*
X131762618Y-33327380D01*
X131762618Y-33327380D02*
X131572142Y-33327380D01*
X131572142Y-33327380D02*
X131476904Y-33279761D01*
X131476904Y-33279761D02*
X131429285Y-33232142D01*
X131429285Y-33232142D02*
X131381666Y-33136904D01*
X131381666Y-33136904D02*
X131381666Y-32898809D01*
X131381666Y-32898809D02*
X131429285Y-32803571D01*
X131429285Y-32803571D02*
X131476904Y-32755952D01*
X131476904Y-32755952D02*
X131572142Y-32708333D01*
X131572142Y-32708333D02*
X131762618Y-32708333D01*
X131762618Y-32708333D02*
X131857856Y-32755952D01*
X131857856Y-32755952D02*
X131905475Y-32803571D01*
X131905475Y-32803571D02*
X131953094Y-32898809D01*
%TO.C,SW44*%
X58254523Y-90549761D02*
X58111666Y-90597380D01*
X58111666Y-90597380D02*
X57873571Y-90597380D01*
X57873571Y-90597380D02*
X57778333Y-90549761D01*
X57778333Y-90549761D02*
X57730714Y-90502142D01*
X57730714Y-90502142D02*
X57683095Y-90406904D01*
X57683095Y-90406904D02*
X57683095Y-90311666D01*
X57683095Y-90311666D02*
X57730714Y-90216428D01*
X57730714Y-90216428D02*
X57778333Y-90168809D01*
X57778333Y-90168809D02*
X57873571Y-90121190D01*
X57873571Y-90121190D02*
X58064047Y-90073571D01*
X58064047Y-90073571D02*
X58159285Y-90025952D01*
X58159285Y-90025952D02*
X58206904Y-89978333D01*
X58206904Y-89978333D02*
X58254523Y-89883095D01*
X58254523Y-89883095D02*
X58254523Y-89787857D01*
X58254523Y-89787857D02*
X58206904Y-89692619D01*
X58206904Y-89692619D02*
X58159285Y-89645000D01*
X58159285Y-89645000D02*
X58064047Y-89597380D01*
X58064047Y-89597380D02*
X57825952Y-89597380D01*
X57825952Y-89597380D02*
X57683095Y-89645000D01*
X57349761Y-89597380D02*
X57111666Y-90597380D01*
X57111666Y-90597380D02*
X56921190Y-89883095D01*
X56921190Y-89883095D02*
X56730714Y-90597380D01*
X56730714Y-90597380D02*
X56492619Y-89597380D01*
X55683095Y-89930714D02*
X55683095Y-90597380D01*
X55921190Y-89549761D02*
X56159285Y-90264047D01*
X56159285Y-90264047D02*
X55540238Y-90264047D01*
X54730714Y-89930714D02*
X54730714Y-90597380D01*
X54968809Y-89549761D02*
X55206904Y-90264047D01*
X55206904Y-90264047D02*
X54587857Y-90264047D01*
D12*
%TO.C,D57*%
X97686428Y-121033904D02*
X97686428Y-120233904D01*
X97686428Y-120233904D02*
X97495952Y-120233904D01*
X97495952Y-120233904D02*
X97381666Y-120272000D01*
X97381666Y-120272000D02*
X97305476Y-120348190D01*
X97305476Y-120348190D02*
X97267381Y-120424380D01*
X97267381Y-120424380D02*
X97229285Y-120576761D01*
X97229285Y-120576761D02*
X97229285Y-120691047D01*
X97229285Y-120691047D02*
X97267381Y-120843428D01*
X97267381Y-120843428D02*
X97305476Y-120919619D01*
X97305476Y-120919619D02*
X97381666Y-120995809D01*
X97381666Y-120995809D02*
X97495952Y-121033904D01*
X97495952Y-121033904D02*
X97686428Y-121033904D01*
X96505476Y-120233904D02*
X96886428Y-120233904D01*
X96886428Y-120233904D02*
X96924524Y-120614857D01*
X96924524Y-120614857D02*
X96886428Y-120576761D01*
X96886428Y-120576761D02*
X96810238Y-120538666D01*
X96810238Y-120538666D02*
X96619762Y-120538666D01*
X96619762Y-120538666D02*
X96543571Y-120576761D01*
X96543571Y-120576761D02*
X96505476Y-120614857D01*
X96505476Y-120614857D02*
X96467381Y-120691047D01*
X96467381Y-120691047D02*
X96467381Y-120881523D01*
X96467381Y-120881523D02*
X96505476Y-120957714D01*
X96505476Y-120957714D02*
X96543571Y-120995809D01*
X96543571Y-120995809D02*
X96619762Y-121033904D01*
X96619762Y-121033904D02*
X96810238Y-121033904D01*
X96810238Y-121033904D02*
X96886428Y-120995809D01*
X96886428Y-120995809D02*
X96924524Y-120957714D01*
X96200714Y-120233904D02*
X95667380Y-120233904D01*
X95667380Y-120233904D02*
X96010238Y-121033904D01*
%TO.C,D44*%
X59486428Y-102463904D02*
X59486428Y-101663904D01*
X59486428Y-101663904D02*
X59295952Y-101663904D01*
X59295952Y-101663904D02*
X59181666Y-101702000D01*
X59181666Y-101702000D02*
X59105476Y-101778190D01*
X59105476Y-101778190D02*
X59067381Y-101854380D01*
X59067381Y-101854380D02*
X59029285Y-102006761D01*
X59029285Y-102006761D02*
X59029285Y-102121047D01*
X59029285Y-102121047D02*
X59067381Y-102273428D01*
X59067381Y-102273428D02*
X59105476Y-102349619D01*
X59105476Y-102349619D02*
X59181666Y-102425809D01*
X59181666Y-102425809D02*
X59295952Y-102463904D01*
X59295952Y-102463904D02*
X59486428Y-102463904D01*
X58343571Y-101930571D02*
X58343571Y-102463904D01*
X58534047Y-101625809D02*
X58724524Y-102197238D01*
X58724524Y-102197238D02*
X58229285Y-102197238D01*
X57581666Y-101930571D02*
X57581666Y-102463904D01*
X57772142Y-101625809D02*
X57962619Y-102197238D01*
X57962619Y-102197238D02*
X57467380Y-102197238D01*
%TO.C,D20*%
X135696428Y-64153904D02*
X135696428Y-63353904D01*
X135696428Y-63353904D02*
X135505952Y-63353904D01*
X135505952Y-63353904D02*
X135391666Y-63392000D01*
X135391666Y-63392000D02*
X135315476Y-63468190D01*
X135315476Y-63468190D02*
X135277381Y-63544380D01*
X135277381Y-63544380D02*
X135239285Y-63696761D01*
X135239285Y-63696761D02*
X135239285Y-63811047D01*
X135239285Y-63811047D02*
X135277381Y-63963428D01*
X135277381Y-63963428D02*
X135315476Y-64039619D01*
X135315476Y-64039619D02*
X135391666Y-64115809D01*
X135391666Y-64115809D02*
X135505952Y-64153904D01*
X135505952Y-64153904D02*
X135696428Y-64153904D01*
X134934524Y-63430095D02*
X134896428Y-63392000D01*
X134896428Y-63392000D02*
X134820238Y-63353904D01*
X134820238Y-63353904D02*
X134629762Y-63353904D01*
X134629762Y-63353904D02*
X134553571Y-63392000D01*
X134553571Y-63392000D02*
X134515476Y-63430095D01*
X134515476Y-63430095D02*
X134477381Y-63506285D01*
X134477381Y-63506285D02*
X134477381Y-63582476D01*
X134477381Y-63582476D02*
X134515476Y-63696761D01*
X134515476Y-63696761D02*
X134972619Y-64153904D01*
X134972619Y-64153904D02*
X134477381Y-64153904D01*
X133982142Y-63353904D02*
X133905952Y-63353904D01*
X133905952Y-63353904D02*
X133829761Y-63392000D01*
X133829761Y-63392000D02*
X133791666Y-63430095D01*
X133791666Y-63430095D02*
X133753571Y-63506285D01*
X133753571Y-63506285D02*
X133715476Y-63658666D01*
X133715476Y-63658666D02*
X133715476Y-63849142D01*
X133715476Y-63849142D02*
X133753571Y-64001523D01*
X133753571Y-64001523D02*
X133791666Y-64077714D01*
X133791666Y-64077714D02*
X133829761Y-64115809D01*
X133829761Y-64115809D02*
X133905952Y-64153904D01*
X133905952Y-64153904D02*
X133982142Y-64153904D01*
X133982142Y-64153904D02*
X134058333Y-64115809D01*
X134058333Y-64115809D02*
X134096428Y-64077714D01*
X134096428Y-64077714D02*
X134134523Y-64001523D01*
X134134523Y-64001523D02*
X134172619Y-63849142D01*
X134172619Y-63849142D02*
X134172619Y-63658666D01*
X134172619Y-63658666D02*
X134134523Y-63506285D01*
X134134523Y-63506285D02*
X134096428Y-63430095D01*
X134096428Y-63430095D02*
X134058333Y-63392000D01*
X134058333Y-63392000D02*
X133982142Y-63353904D01*
D11*
%TO.C,SW49*%
X153574523Y-90429761D02*
X153431666Y-90477380D01*
X153431666Y-90477380D02*
X153193571Y-90477380D01*
X153193571Y-90477380D02*
X153098333Y-90429761D01*
X153098333Y-90429761D02*
X153050714Y-90382142D01*
X153050714Y-90382142D02*
X153003095Y-90286904D01*
X153003095Y-90286904D02*
X153003095Y-90191666D01*
X153003095Y-90191666D02*
X153050714Y-90096428D01*
X153050714Y-90096428D02*
X153098333Y-90048809D01*
X153098333Y-90048809D02*
X153193571Y-90001190D01*
X153193571Y-90001190D02*
X153384047Y-89953571D01*
X153384047Y-89953571D02*
X153479285Y-89905952D01*
X153479285Y-89905952D02*
X153526904Y-89858333D01*
X153526904Y-89858333D02*
X153574523Y-89763095D01*
X153574523Y-89763095D02*
X153574523Y-89667857D01*
X153574523Y-89667857D02*
X153526904Y-89572619D01*
X153526904Y-89572619D02*
X153479285Y-89525000D01*
X153479285Y-89525000D02*
X153384047Y-89477380D01*
X153384047Y-89477380D02*
X153145952Y-89477380D01*
X153145952Y-89477380D02*
X153003095Y-89525000D01*
X152669761Y-89477380D02*
X152431666Y-90477380D01*
X152431666Y-90477380D02*
X152241190Y-89763095D01*
X152241190Y-89763095D02*
X152050714Y-90477380D01*
X152050714Y-90477380D02*
X151812619Y-89477380D01*
X151003095Y-89810714D02*
X151003095Y-90477380D01*
X151241190Y-89429761D02*
X151479285Y-90144047D01*
X151479285Y-90144047D02*
X150860238Y-90144047D01*
X150431666Y-90477380D02*
X150241190Y-90477380D01*
X150241190Y-90477380D02*
X150145952Y-90429761D01*
X150145952Y-90429761D02*
X150098333Y-90382142D01*
X150098333Y-90382142D02*
X150003095Y-90239285D01*
X150003095Y-90239285D02*
X149955476Y-90048809D01*
X149955476Y-90048809D02*
X149955476Y-89667857D01*
X149955476Y-89667857D02*
X150003095Y-89572619D01*
X150003095Y-89572619D02*
X150050714Y-89525000D01*
X150050714Y-89525000D02*
X150145952Y-89477380D01*
X150145952Y-89477380D02*
X150336428Y-89477380D01*
X150336428Y-89477380D02*
X150431666Y-89525000D01*
X150431666Y-89525000D02*
X150479285Y-89572619D01*
X150479285Y-89572619D02*
X150526904Y-89667857D01*
X150526904Y-89667857D02*
X150526904Y-89905952D01*
X150526904Y-89905952D02*
X150479285Y-90001190D01*
X150479285Y-90001190D02*
X150431666Y-90048809D01*
X150431666Y-90048809D02*
X150336428Y-90096428D01*
X150336428Y-90096428D02*
X150145952Y-90096428D01*
X150145952Y-90096428D02*
X150050714Y-90048809D01*
X150050714Y-90048809D02*
X150003095Y-90001190D01*
X150003095Y-90001190D02*
X149955476Y-89905952D01*
%TO.C,SW21*%
X153574523Y-52329761D02*
X153431666Y-52377380D01*
X153431666Y-52377380D02*
X153193571Y-52377380D01*
X153193571Y-52377380D02*
X153098333Y-52329761D01*
X153098333Y-52329761D02*
X153050714Y-52282142D01*
X153050714Y-52282142D02*
X153003095Y-52186904D01*
X153003095Y-52186904D02*
X153003095Y-52091666D01*
X153003095Y-52091666D02*
X153050714Y-51996428D01*
X153050714Y-51996428D02*
X153098333Y-51948809D01*
X153098333Y-51948809D02*
X153193571Y-51901190D01*
X153193571Y-51901190D02*
X153384047Y-51853571D01*
X153384047Y-51853571D02*
X153479285Y-51805952D01*
X153479285Y-51805952D02*
X153526904Y-51758333D01*
X153526904Y-51758333D02*
X153574523Y-51663095D01*
X153574523Y-51663095D02*
X153574523Y-51567857D01*
X153574523Y-51567857D02*
X153526904Y-51472619D01*
X153526904Y-51472619D02*
X153479285Y-51425000D01*
X153479285Y-51425000D02*
X153384047Y-51377380D01*
X153384047Y-51377380D02*
X153145952Y-51377380D01*
X153145952Y-51377380D02*
X153003095Y-51425000D01*
X152669761Y-51377380D02*
X152431666Y-52377380D01*
X152431666Y-52377380D02*
X152241190Y-51663095D01*
X152241190Y-51663095D02*
X152050714Y-52377380D01*
X152050714Y-52377380D02*
X151812619Y-51377380D01*
X151479285Y-51472619D02*
X151431666Y-51425000D01*
X151431666Y-51425000D02*
X151336428Y-51377380D01*
X151336428Y-51377380D02*
X151098333Y-51377380D01*
X151098333Y-51377380D02*
X151003095Y-51425000D01*
X151003095Y-51425000D02*
X150955476Y-51472619D01*
X150955476Y-51472619D02*
X150907857Y-51567857D01*
X150907857Y-51567857D02*
X150907857Y-51663095D01*
X150907857Y-51663095D02*
X150955476Y-51805952D01*
X150955476Y-51805952D02*
X151526904Y-52377380D01*
X151526904Y-52377380D02*
X150907857Y-52377380D01*
X149955476Y-52377380D02*
X150526904Y-52377380D01*
X150241190Y-52377380D02*
X150241190Y-51377380D01*
X150241190Y-51377380D02*
X150336428Y-51520238D01*
X150336428Y-51520238D02*
X150431666Y-51615476D01*
X150431666Y-51615476D02*
X150526904Y-51663095D01*
D12*
%TO.C,D30*%
X59486428Y-83283904D02*
X59486428Y-82483904D01*
X59486428Y-82483904D02*
X59295952Y-82483904D01*
X59295952Y-82483904D02*
X59181666Y-82522000D01*
X59181666Y-82522000D02*
X59105476Y-82598190D01*
X59105476Y-82598190D02*
X59067381Y-82674380D01*
X59067381Y-82674380D02*
X59029285Y-82826761D01*
X59029285Y-82826761D02*
X59029285Y-82941047D01*
X59029285Y-82941047D02*
X59067381Y-83093428D01*
X59067381Y-83093428D02*
X59105476Y-83169619D01*
X59105476Y-83169619D02*
X59181666Y-83245809D01*
X59181666Y-83245809D02*
X59295952Y-83283904D01*
X59295952Y-83283904D02*
X59486428Y-83283904D01*
X58762619Y-82483904D02*
X58267381Y-82483904D01*
X58267381Y-82483904D02*
X58534047Y-82788666D01*
X58534047Y-82788666D02*
X58419762Y-82788666D01*
X58419762Y-82788666D02*
X58343571Y-82826761D01*
X58343571Y-82826761D02*
X58305476Y-82864857D01*
X58305476Y-82864857D02*
X58267381Y-82941047D01*
X58267381Y-82941047D02*
X58267381Y-83131523D01*
X58267381Y-83131523D02*
X58305476Y-83207714D01*
X58305476Y-83207714D02*
X58343571Y-83245809D01*
X58343571Y-83245809D02*
X58419762Y-83283904D01*
X58419762Y-83283904D02*
X58648333Y-83283904D01*
X58648333Y-83283904D02*
X58724524Y-83245809D01*
X58724524Y-83245809D02*
X58762619Y-83207714D01*
X57772142Y-82483904D02*
X57695952Y-82483904D01*
X57695952Y-82483904D02*
X57619761Y-82522000D01*
X57619761Y-82522000D02*
X57581666Y-82560095D01*
X57581666Y-82560095D02*
X57543571Y-82636285D01*
X57543571Y-82636285D02*
X57505476Y-82788666D01*
X57505476Y-82788666D02*
X57505476Y-82979142D01*
X57505476Y-82979142D02*
X57543571Y-83131523D01*
X57543571Y-83131523D02*
X57581666Y-83207714D01*
X57581666Y-83207714D02*
X57619761Y-83245809D01*
X57619761Y-83245809D02*
X57695952Y-83283904D01*
X57695952Y-83283904D02*
X57772142Y-83283904D01*
X57772142Y-83283904D02*
X57848333Y-83245809D01*
X57848333Y-83245809D02*
X57886428Y-83207714D01*
X57886428Y-83207714D02*
X57924523Y-83131523D01*
X57924523Y-83131523D02*
X57962619Y-82979142D01*
X57962619Y-82979142D02*
X57962619Y-82788666D01*
X57962619Y-82788666D02*
X57924523Y-82636285D01*
X57924523Y-82636285D02*
X57886428Y-82560095D01*
X57886428Y-82560095D02*
X57848333Y-82522000D01*
X57848333Y-82522000D02*
X57772142Y-82483904D01*
%TO.C,D49*%
X154771428Y-102063904D02*
X154771428Y-101263904D01*
X154771428Y-101263904D02*
X154580952Y-101263904D01*
X154580952Y-101263904D02*
X154466666Y-101302000D01*
X154466666Y-101302000D02*
X154390476Y-101378190D01*
X154390476Y-101378190D02*
X154352381Y-101454380D01*
X154352381Y-101454380D02*
X154314285Y-101606761D01*
X154314285Y-101606761D02*
X154314285Y-101721047D01*
X154314285Y-101721047D02*
X154352381Y-101873428D01*
X154352381Y-101873428D02*
X154390476Y-101949619D01*
X154390476Y-101949619D02*
X154466666Y-102025809D01*
X154466666Y-102025809D02*
X154580952Y-102063904D01*
X154580952Y-102063904D02*
X154771428Y-102063904D01*
X153628571Y-101530571D02*
X153628571Y-102063904D01*
X153819047Y-101225809D02*
X154009524Y-101797238D01*
X154009524Y-101797238D02*
X153514285Y-101797238D01*
X153171428Y-102063904D02*
X153019047Y-102063904D01*
X153019047Y-102063904D02*
X152942857Y-102025809D01*
X152942857Y-102025809D02*
X152904761Y-101987714D01*
X152904761Y-101987714D02*
X152828571Y-101873428D01*
X152828571Y-101873428D02*
X152790476Y-101721047D01*
X152790476Y-101721047D02*
X152790476Y-101416285D01*
X152790476Y-101416285D02*
X152828571Y-101340095D01*
X152828571Y-101340095D02*
X152866666Y-101302000D01*
X152866666Y-101302000D02*
X152942857Y-101263904D01*
X152942857Y-101263904D02*
X153095238Y-101263904D01*
X153095238Y-101263904D02*
X153171428Y-101302000D01*
X153171428Y-101302000D02*
X153209523Y-101340095D01*
X153209523Y-101340095D02*
X153247619Y-101416285D01*
X153247619Y-101416285D02*
X153247619Y-101606761D01*
X153247619Y-101606761D02*
X153209523Y-101682952D01*
X153209523Y-101682952D02*
X153171428Y-101721047D01*
X153171428Y-101721047D02*
X153095238Y-101759142D01*
X153095238Y-101759142D02*
X152942857Y-101759142D01*
X152942857Y-101759142D02*
X152866666Y-101721047D01*
X152866666Y-101721047D02*
X152828571Y-101682952D01*
X152828571Y-101682952D02*
X152790476Y-101606761D01*
D11*
%TO.C,SW29*%
X39274523Y-71379761D02*
X39131666Y-71427380D01*
X39131666Y-71427380D02*
X38893571Y-71427380D01*
X38893571Y-71427380D02*
X38798333Y-71379761D01*
X38798333Y-71379761D02*
X38750714Y-71332142D01*
X38750714Y-71332142D02*
X38703095Y-71236904D01*
X38703095Y-71236904D02*
X38703095Y-71141666D01*
X38703095Y-71141666D02*
X38750714Y-71046428D01*
X38750714Y-71046428D02*
X38798333Y-70998809D01*
X38798333Y-70998809D02*
X38893571Y-70951190D01*
X38893571Y-70951190D02*
X39084047Y-70903571D01*
X39084047Y-70903571D02*
X39179285Y-70855952D01*
X39179285Y-70855952D02*
X39226904Y-70808333D01*
X39226904Y-70808333D02*
X39274523Y-70713095D01*
X39274523Y-70713095D02*
X39274523Y-70617857D01*
X39274523Y-70617857D02*
X39226904Y-70522619D01*
X39226904Y-70522619D02*
X39179285Y-70475000D01*
X39179285Y-70475000D02*
X39084047Y-70427380D01*
X39084047Y-70427380D02*
X38845952Y-70427380D01*
X38845952Y-70427380D02*
X38703095Y-70475000D01*
X38369761Y-70427380D02*
X38131666Y-71427380D01*
X38131666Y-71427380D02*
X37941190Y-70713095D01*
X37941190Y-70713095D02*
X37750714Y-71427380D01*
X37750714Y-71427380D02*
X37512619Y-70427380D01*
X37179285Y-70522619D02*
X37131666Y-70475000D01*
X37131666Y-70475000D02*
X37036428Y-70427380D01*
X37036428Y-70427380D02*
X36798333Y-70427380D01*
X36798333Y-70427380D02*
X36703095Y-70475000D01*
X36703095Y-70475000D02*
X36655476Y-70522619D01*
X36655476Y-70522619D02*
X36607857Y-70617857D01*
X36607857Y-70617857D02*
X36607857Y-70713095D01*
X36607857Y-70713095D02*
X36655476Y-70855952D01*
X36655476Y-70855952D02*
X37226904Y-71427380D01*
X37226904Y-71427380D02*
X36607857Y-71427380D01*
X36131666Y-71427380D02*
X35941190Y-71427380D01*
X35941190Y-71427380D02*
X35845952Y-71379761D01*
X35845952Y-71379761D02*
X35798333Y-71332142D01*
X35798333Y-71332142D02*
X35703095Y-71189285D01*
X35703095Y-71189285D02*
X35655476Y-70998809D01*
X35655476Y-70998809D02*
X35655476Y-70617857D01*
X35655476Y-70617857D02*
X35703095Y-70522619D01*
X35703095Y-70522619D02*
X35750714Y-70475000D01*
X35750714Y-70475000D02*
X35845952Y-70427380D01*
X35845952Y-70427380D02*
X36036428Y-70427380D01*
X36036428Y-70427380D02*
X36131666Y-70475000D01*
X36131666Y-70475000D02*
X36179285Y-70522619D01*
X36179285Y-70522619D02*
X36226904Y-70617857D01*
X36226904Y-70617857D02*
X36226904Y-70855952D01*
X36226904Y-70855952D02*
X36179285Y-70951190D01*
X36179285Y-70951190D02*
X36131666Y-70998809D01*
X36131666Y-70998809D02*
X36036428Y-71046428D01*
X36036428Y-71046428D02*
X35845952Y-71046428D01*
X35845952Y-71046428D02*
X35750714Y-70998809D01*
X35750714Y-70998809D02*
X35703095Y-70951190D01*
X35703095Y-70951190D02*
X35655476Y-70855952D01*
%TO.C,SW4*%
X95948332Y-33279761D02*
X95805475Y-33327380D01*
X95805475Y-33327380D02*
X95567380Y-33327380D01*
X95567380Y-33327380D02*
X95472142Y-33279761D01*
X95472142Y-33279761D02*
X95424523Y-33232142D01*
X95424523Y-33232142D02*
X95376904Y-33136904D01*
X95376904Y-33136904D02*
X95376904Y-33041666D01*
X95376904Y-33041666D02*
X95424523Y-32946428D01*
X95424523Y-32946428D02*
X95472142Y-32898809D01*
X95472142Y-32898809D02*
X95567380Y-32851190D01*
X95567380Y-32851190D02*
X95757856Y-32803571D01*
X95757856Y-32803571D02*
X95853094Y-32755952D01*
X95853094Y-32755952D02*
X95900713Y-32708333D01*
X95900713Y-32708333D02*
X95948332Y-32613095D01*
X95948332Y-32613095D02*
X95948332Y-32517857D01*
X95948332Y-32517857D02*
X95900713Y-32422619D01*
X95900713Y-32422619D02*
X95853094Y-32375000D01*
X95853094Y-32375000D02*
X95757856Y-32327380D01*
X95757856Y-32327380D02*
X95519761Y-32327380D01*
X95519761Y-32327380D02*
X95376904Y-32375000D01*
X95043570Y-32327380D02*
X94805475Y-33327380D01*
X94805475Y-33327380D02*
X94614999Y-32613095D01*
X94614999Y-32613095D02*
X94424523Y-33327380D01*
X94424523Y-33327380D02*
X94186428Y-32327380D01*
X93376904Y-32660714D02*
X93376904Y-33327380D01*
X93614999Y-32279761D02*
X93853094Y-32994047D01*
X93853094Y-32994047D02*
X93234047Y-32994047D01*
D12*
%TO.C,D45*%
X78636428Y-102463904D02*
X78636428Y-101663904D01*
X78636428Y-101663904D02*
X78445952Y-101663904D01*
X78445952Y-101663904D02*
X78331666Y-101702000D01*
X78331666Y-101702000D02*
X78255476Y-101778190D01*
X78255476Y-101778190D02*
X78217381Y-101854380D01*
X78217381Y-101854380D02*
X78179285Y-102006761D01*
X78179285Y-102006761D02*
X78179285Y-102121047D01*
X78179285Y-102121047D02*
X78217381Y-102273428D01*
X78217381Y-102273428D02*
X78255476Y-102349619D01*
X78255476Y-102349619D02*
X78331666Y-102425809D01*
X78331666Y-102425809D02*
X78445952Y-102463904D01*
X78445952Y-102463904D02*
X78636428Y-102463904D01*
X77493571Y-101930571D02*
X77493571Y-102463904D01*
X77684047Y-101625809D02*
X77874524Y-102197238D01*
X77874524Y-102197238D02*
X77379285Y-102197238D01*
X76693571Y-101663904D02*
X77074523Y-101663904D01*
X77074523Y-101663904D02*
X77112619Y-102044857D01*
X77112619Y-102044857D02*
X77074523Y-102006761D01*
X77074523Y-102006761D02*
X76998333Y-101968666D01*
X76998333Y-101968666D02*
X76807857Y-101968666D01*
X76807857Y-101968666D02*
X76731666Y-102006761D01*
X76731666Y-102006761D02*
X76693571Y-102044857D01*
X76693571Y-102044857D02*
X76655476Y-102121047D01*
X76655476Y-102121047D02*
X76655476Y-102311523D01*
X76655476Y-102311523D02*
X76693571Y-102387714D01*
X76693571Y-102387714D02*
X76731666Y-102425809D01*
X76731666Y-102425809D02*
X76807857Y-102463904D01*
X76807857Y-102463904D02*
X76998333Y-102463904D01*
X76998333Y-102463904D02*
X77074523Y-102425809D01*
X77074523Y-102425809D02*
X77112619Y-102387714D01*
%TO.C,D19*%
X116626428Y-64153904D02*
X116626428Y-63353904D01*
X116626428Y-63353904D02*
X116435952Y-63353904D01*
X116435952Y-63353904D02*
X116321666Y-63392000D01*
X116321666Y-63392000D02*
X116245476Y-63468190D01*
X116245476Y-63468190D02*
X116207381Y-63544380D01*
X116207381Y-63544380D02*
X116169285Y-63696761D01*
X116169285Y-63696761D02*
X116169285Y-63811047D01*
X116169285Y-63811047D02*
X116207381Y-63963428D01*
X116207381Y-63963428D02*
X116245476Y-64039619D01*
X116245476Y-64039619D02*
X116321666Y-64115809D01*
X116321666Y-64115809D02*
X116435952Y-64153904D01*
X116435952Y-64153904D02*
X116626428Y-64153904D01*
X115407381Y-64153904D02*
X115864524Y-64153904D01*
X115635952Y-64153904D02*
X115635952Y-63353904D01*
X115635952Y-63353904D02*
X115712143Y-63468190D01*
X115712143Y-63468190D02*
X115788333Y-63544380D01*
X115788333Y-63544380D02*
X115864524Y-63582476D01*
X115026428Y-64153904D02*
X114874047Y-64153904D01*
X114874047Y-64153904D02*
X114797857Y-64115809D01*
X114797857Y-64115809D02*
X114759761Y-64077714D01*
X114759761Y-64077714D02*
X114683571Y-63963428D01*
X114683571Y-63963428D02*
X114645476Y-63811047D01*
X114645476Y-63811047D02*
X114645476Y-63506285D01*
X114645476Y-63506285D02*
X114683571Y-63430095D01*
X114683571Y-63430095D02*
X114721666Y-63392000D01*
X114721666Y-63392000D02*
X114797857Y-63353904D01*
X114797857Y-63353904D02*
X114950238Y-63353904D01*
X114950238Y-63353904D02*
X115026428Y-63392000D01*
X115026428Y-63392000D02*
X115064523Y-63430095D01*
X115064523Y-63430095D02*
X115102619Y-63506285D01*
X115102619Y-63506285D02*
X115102619Y-63696761D01*
X115102619Y-63696761D02*
X115064523Y-63772952D01*
X115064523Y-63772952D02*
X115026428Y-63811047D01*
X115026428Y-63811047D02*
X114950238Y-63849142D01*
X114950238Y-63849142D02*
X114797857Y-63849142D01*
X114797857Y-63849142D02*
X114721666Y-63811047D01*
X114721666Y-63811047D02*
X114683571Y-63772952D01*
X114683571Y-63772952D02*
X114645476Y-63696761D01*
D11*
%TO.C,SW59*%
X134524523Y-109479761D02*
X134381666Y-109527380D01*
X134381666Y-109527380D02*
X134143571Y-109527380D01*
X134143571Y-109527380D02*
X134048333Y-109479761D01*
X134048333Y-109479761D02*
X134000714Y-109432142D01*
X134000714Y-109432142D02*
X133953095Y-109336904D01*
X133953095Y-109336904D02*
X133953095Y-109241666D01*
X133953095Y-109241666D02*
X134000714Y-109146428D01*
X134000714Y-109146428D02*
X134048333Y-109098809D01*
X134048333Y-109098809D02*
X134143571Y-109051190D01*
X134143571Y-109051190D02*
X134334047Y-109003571D01*
X134334047Y-109003571D02*
X134429285Y-108955952D01*
X134429285Y-108955952D02*
X134476904Y-108908333D01*
X134476904Y-108908333D02*
X134524523Y-108813095D01*
X134524523Y-108813095D02*
X134524523Y-108717857D01*
X134524523Y-108717857D02*
X134476904Y-108622619D01*
X134476904Y-108622619D02*
X134429285Y-108575000D01*
X134429285Y-108575000D02*
X134334047Y-108527380D01*
X134334047Y-108527380D02*
X134095952Y-108527380D01*
X134095952Y-108527380D02*
X133953095Y-108575000D01*
X133619761Y-108527380D02*
X133381666Y-109527380D01*
X133381666Y-109527380D02*
X133191190Y-108813095D01*
X133191190Y-108813095D02*
X133000714Y-109527380D01*
X133000714Y-109527380D02*
X132762619Y-108527380D01*
X131905476Y-108527380D02*
X132381666Y-108527380D01*
X132381666Y-108527380D02*
X132429285Y-109003571D01*
X132429285Y-109003571D02*
X132381666Y-108955952D01*
X132381666Y-108955952D02*
X132286428Y-108908333D01*
X132286428Y-108908333D02*
X132048333Y-108908333D01*
X132048333Y-108908333D02*
X131953095Y-108955952D01*
X131953095Y-108955952D02*
X131905476Y-109003571D01*
X131905476Y-109003571D02*
X131857857Y-109098809D01*
X131857857Y-109098809D02*
X131857857Y-109336904D01*
X131857857Y-109336904D02*
X131905476Y-109432142D01*
X131905476Y-109432142D02*
X131953095Y-109479761D01*
X131953095Y-109479761D02*
X132048333Y-109527380D01*
X132048333Y-109527380D02*
X132286428Y-109527380D01*
X132286428Y-109527380D02*
X132381666Y-109479761D01*
X132381666Y-109479761D02*
X132429285Y-109432142D01*
X131381666Y-109527380D02*
X131191190Y-109527380D01*
X131191190Y-109527380D02*
X131095952Y-109479761D01*
X131095952Y-109479761D02*
X131048333Y-109432142D01*
X131048333Y-109432142D02*
X130953095Y-109289285D01*
X130953095Y-109289285D02*
X130905476Y-109098809D01*
X130905476Y-109098809D02*
X130905476Y-108717857D01*
X130905476Y-108717857D02*
X130953095Y-108622619D01*
X130953095Y-108622619D02*
X131000714Y-108575000D01*
X131000714Y-108575000D02*
X131095952Y-108527380D01*
X131095952Y-108527380D02*
X131286428Y-108527380D01*
X131286428Y-108527380D02*
X131381666Y-108575000D01*
X131381666Y-108575000D02*
X131429285Y-108622619D01*
X131429285Y-108622619D02*
X131476904Y-108717857D01*
X131476904Y-108717857D02*
X131476904Y-108955952D01*
X131476904Y-108955952D02*
X131429285Y-109051190D01*
X131429285Y-109051190D02*
X131381666Y-109098809D01*
X131381666Y-109098809D02*
X131286428Y-109146428D01*
X131286428Y-109146428D02*
X131095952Y-109146428D01*
X131095952Y-109146428D02*
X131000714Y-109098809D01*
X131000714Y-109098809D02*
X130953095Y-109051190D01*
X130953095Y-109051190D02*
X130905476Y-108955952D01*
%TO.C,SW20*%
X134524523Y-52329761D02*
X134381666Y-52377380D01*
X134381666Y-52377380D02*
X134143571Y-52377380D01*
X134143571Y-52377380D02*
X134048333Y-52329761D01*
X134048333Y-52329761D02*
X134000714Y-52282142D01*
X134000714Y-52282142D02*
X133953095Y-52186904D01*
X133953095Y-52186904D02*
X133953095Y-52091666D01*
X133953095Y-52091666D02*
X134000714Y-51996428D01*
X134000714Y-51996428D02*
X134048333Y-51948809D01*
X134048333Y-51948809D02*
X134143571Y-51901190D01*
X134143571Y-51901190D02*
X134334047Y-51853571D01*
X134334047Y-51853571D02*
X134429285Y-51805952D01*
X134429285Y-51805952D02*
X134476904Y-51758333D01*
X134476904Y-51758333D02*
X134524523Y-51663095D01*
X134524523Y-51663095D02*
X134524523Y-51567857D01*
X134524523Y-51567857D02*
X134476904Y-51472619D01*
X134476904Y-51472619D02*
X134429285Y-51425000D01*
X134429285Y-51425000D02*
X134334047Y-51377380D01*
X134334047Y-51377380D02*
X134095952Y-51377380D01*
X134095952Y-51377380D02*
X133953095Y-51425000D01*
X133619761Y-51377380D02*
X133381666Y-52377380D01*
X133381666Y-52377380D02*
X133191190Y-51663095D01*
X133191190Y-51663095D02*
X133000714Y-52377380D01*
X133000714Y-52377380D02*
X132762619Y-51377380D01*
X132429285Y-51472619D02*
X132381666Y-51425000D01*
X132381666Y-51425000D02*
X132286428Y-51377380D01*
X132286428Y-51377380D02*
X132048333Y-51377380D01*
X132048333Y-51377380D02*
X131953095Y-51425000D01*
X131953095Y-51425000D02*
X131905476Y-51472619D01*
X131905476Y-51472619D02*
X131857857Y-51567857D01*
X131857857Y-51567857D02*
X131857857Y-51663095D01*
X131857857Y-51663095D02*
X131905476Y-51805952D01*
X131905476Y-51805952D02*
X132476904Y-52377380D01*
X132476904Y-52377380D02*
X131857857Y-52377380D01*
X131238809Y-51377380D02*
X131143571Y-51377380D01*
X131143571Y-51377380D02*
X131048333Y-51425000D01*
X131048333Y-51425000D02*
X131000714Y-51472619D01*
X131000714Y-51472619D02*
X130953095Y-51567857D01*
X130953095Y-51567857D02*
X130905476Y-51758333D01*
X130905476Y-51758333D02*
X130905476Y-51996428D01*
X130905476Y-51996428D02*
X130953095Y-52186904D01*
X130953095Y-52186904D02*
X131000714Y-52282142D01*
X131000714Y-52282142D02*
X131048333Y-52329761D01*
X131048333Y-52329761D02*
X131143571Y-52377380D01*
X131143571Y-52377380D02*
X131238809Y-52377380D01*
X131238809Y-52377380D02*
X131334047Y-52329761D01*
X131334047Y-52329761D02*
X131381666Y-52282142D01*
X131381666Y-52282142D02*
X131429285Y-52186904D01*
X131429285Y-52186904D02*
X131476904Y-51996428D01*
X131476904Y-51996428D02*
X131476904Y-51758333D01*
X131476904Y-51758333D02*
X131429285Y-51567857D01*
X131429285Y-51567857D02*
X131381666Y-51472619D01*
X131381666Y-51472619D02*
X131334047Y-51425000D01*
X131334047Y-51425000D02*
X131238809Y-51377380D01*
%TO.C,SW32*%
X96424523Y-71379761D02*
X96281666Y-71427380D01*
X96281666Y-71427380D02*
X96043571Y-71427380D01*
X96043571Y-71427380D02*
X95948333Y-71379761D01*
X95948333Y-71379761D02*
X95900714Y-71332142D01*
X95900714Y-71332142D02*
X95853095Y-71236904D01*
X95853095Y-71236904D02*
X95853095Y-71141666D01*
X95853095Y-71141666D02*
X95900714Y-71046428D01*
X95900714Y-71046428D02*
X95948333Y-70998809D01*
X95948333Y-70998809D02*
X96043571Y-70951190D01*
X96043571Y-70951190D02*
X96234047Y-70903571D01*
X96234047Y-70903571D02*
X96329285Y-70855952D01*
X96329285Y-70855952D02*
X96376904Y-70808333D01*
X96376904Y-70808333D02*
X96424523Y-70713095D01*
X96424523Y-70713095D02*
X96424523Y-70617857D01*
X96424523Y-70617857D02*
X96376904Y-70522619D01*
X96376904Y-70522619D02*
X96329285Y-70475000D01*
X96329285Y-70475000D02*
X96234047Y-70427380D01*
X96234047Y-70427380D02*
X95995952Y-70427380D01*
X95995952Y-70427380D02*
X95853095Y-70475000D01*
X95519761Y-70427380D02*
X95281666Y-71427380D01*
X95281666Y-71427380D02*
X95091190Y-70713095D01*
X95091190Y-70713095D02*
X94900714Y-71427380D01*
X94900714Y-71427380D02*
X94662619Y-70427380D01*
X94376904Y-70427380D02*
X93757857Y-70427380D01*
X93757857Y-70427380D02*
X94091190Y-70808333D01*
X94091190Y-70808333D02*
X93948333Y-70808333D01*
X93948333Y-70808333D02*
X93853095Y-70855952D01*
X93853095Y-70855952D02*
X93805476Y-70903571D01*
X93805476Y-70903571D02*
X93757857Y-70998809D01*
X93757857Y-70998809D02*
X93757857Y-71236904D01*
X93757857Y-71236904D02*
X93805476Y-71332142D01*
X93805476Y-71332142D02*
X93853095Y-71379761D01*
X93853095Y-71379761D02*
X93948333Y-71427380D01*
X93948333Y-71427380D02*
X94234047Y-71427380D01*
X94234047Y-71427380D02*
X94329285Y-71379761D01*
X94329285Y-71379761D02*
X94376904Y-71332142D01*
X93376904Y-70522619D02*
X93329285Y-70475000D01*
X93329285Y-70475000D02*
X93234047Y-70427380D01*
X93234047Y-70427380D02*
X92995952Y-70427380D01*
X92995952Y-70427380D02*
X92900714Y-70475000D01*
X92900714Y-70475000D02*
X92853095Y-70522619D01*
X92853095Y-70522619D02*
X92805476Y-70617857D01*
X92805476Y-70617857D02*
X92805476Y-70713095D01*
X92805476Y-70713095D02*
X92853095Y-70855952D01*
X92853095Y-70855952D02*
X93424523Y-71427380D01*
X93424523Y-71427380D02*
X92805476Y-71427380D01*
%TO.C,SW2*%
X57778332Y-33279761D02*
X57635475Y-33327380D01*
X57635475Y-33327380D02*
X57397380Y-33327380D01*
X57397380Y-33327380D02*
X57302142Y-33279761D01*
X57302142Y-33279761D02*
X57254523Y-33232142D01*
X57254523Y-33232142D02*
X57206904Y-33136904D01*
X57206904Y-33136904D02*
X57206904Y-33041666D01*
X57206904Y-33041666D02*
X57254523Y-32946428D01*
X57254523Y-32946428D02*
X57302142Y-32898809D01*
X57302142Y-32898809D02*
X57397380Y-32851190D01*
X57397380Y-32851190D02*
X57587856Y-32803571D01*
X57587856Y-32803571D02*
X57683094Y-32755952D01*
X57683094Y-32755952D02*
X57730713Y-32708333D01*
X57730713Y-32708333D02*
X57778332Y-32613095D01*
X57778332Y-32613095D02*
X57778332Y-32517857D01*
X57778332Y-32517857D02*
X57730713Y-32422619D01*
X57730713Y-32422619D02*
X57683094Y-32375000D01*
X57683094Y-32375000D02*
X57587856Y-32327380D01*
X57587856Y-32327380D02*
X57349761Y-32327380D01*
X57349761Y-32327380D02*
X57206904Y-32375000D01*
X56873570Y-32327380D02*
X56635475Y-33327380D01*
X56635475Y-33327380D02*
X56444999Y-32613095D01*
X56444999Y-32613095D02*
X56254523Y-33327380D01*
X56254523Y-33327380D02*
X56016428Y-32327380D01*
X55683094Y-32422619D02*
X55635475Y-32375000D01*
X55635475Y-32375000D02*
X55540237Y-32327380D01*
X55540237Y-32327380D02*
X55302142Y-32327380D01*
X55302142Y-32327380D02*
X55206904Y-32375000D01*
X55206904Y-32375000D02*
X55159285Y-32422619D01*
X55159285Y-32422619D02*
X55111666Y-32517857D01*
X55111666Y-32517857D02*
X55111666Y-32613095D01*
X55111666Y-32613095D02*
X55159285Y-32755952D01*
X55159285Y-32755952D02*
X55730713Y-33327380D01*
X55730713Y-33327380D02*
X55111666Y-33327380D01*
%TO.C,SW3*%
X76898332Y-33279761D02*
X76755475Y-33327380D01*
X76755475Y-33327380D02*
X76517380Y-33327380D01*
X76517380Y-33327380D02*
X76422142Y-33279761D01*
X76422142Y-33279761D02*
X76374523Y-33232142D01*
X76374523Y-33232142D02*
X76326904Y-33136904D01*
X76326904Y-33136904D02*
X76326904Y-33041666D01*
X76326904Y-33041666D02*
X76374523Y-32946428D01*
X76374523Y-32946428D02*
X76422142Y-32898809D01*
X76422142Y-32898809D02*
X76517380Y-32851190D01*
X76517380Y-32851190D02*
X76707856Y-32803571D01*
X76707856Y-32803571D02*
X76803094Y-32755952D01*
X76803094Y-32755952D02*
X76850713Y-32708333D01*
X76850713Y-32708333D02*
X76898332Y-32613095D01*
X76898332Y-32613095D02*
X76898332Y-32517857D01*
X76898332Y-32517857D02*
X76850713Y-32422619D01*
X76850713Y-32422619D02*
X76803094Y-32375000D01*
X76803094Y-32375000D02*
X76707856Y-32327380D01*
X76707856Y-32327380D02*
X76469761Y-32327380D01*
X76469761Y-32327380D02*
X76326904Y-32375000D01*
X75993570Y-32327380D02*
X75755475Y-33327380D01*
X75755475Y-33327380D02*
X75564999Y-32613095D01*
X75564999Y-32613095D02*
X75374523Y-33327380D01*
X75374523Y-33327380D02*
X75136428Y-32327380D01*
X74850713Y-32327380D02*
X74231666Y-32327380D01*
X74231666Y-32327380D02*
X74564999Y-32708333D01*
X74564999Y-32708333D02*
X74422142Y-32708333D01*
X74422142Y-32708333D02*
X74326904Y-32755952D01*
X74326904Y-32755952D02*
X74279285Y-32803571D01*
X74279285Y-32803571D02*
X74231666Y-32898809D01*
X74231666Y-32898809D02*
X74231666Y-33136904D01*
X74231666Y-33136904D02*
X74279285Y-33232142D01*
X74279285Y-33232142D02*
X74326904Y-33279761D01*
X74326904Y-33279761D02*
X74422142Y-33327380D01*
X74422142Y-33327380D02*
X74707856Y-33327380D01*
X74707856Y-33327380D02*
X74803094Y-33279761D01*
X74803094Y-33279761D02*
X74850713Y-33232142D01*
%TO.C,SW7*%
X153098332Y-33279761D02*
X152955475Y-33327380D01*
X152955475Y-33327380D02*
X152717380Y-33327380D01*
X152717380Y-33327380D02*
X152622142Y-33279761D01*
X152622142Y-33279761D02*
X152574523Y-33232142D01*
X152574523Y-33232142D02*
X152526904Y-33136904D01*
X152526904Y-33136904D02*
X152526904Y-33041666D01*
X152526904Y-33041666D02*
X152574523Y-32946428D01*
X152574523Y-32946428D02*
X152622142Y-32898809D01*
X152622142Y-32898809D02*
X152717380Y-32851190D01*
X152717380Y-32851190D02*
X152907856Y-32803571D01*
X152907856Y-32803571D02*
X153003094Y-32755952D01*
X153003094Y-32755952D02*
X153050713Y-32708333D01*
X153050713Y-32708333D02*
X153098332Y-32613095D01*
X153098332Y-32613095D02*
X153098332Y-32517857D01*
X153098332Y-32517857D02*
X153050713Y-32422619D01*
X153050713Y-32422619D02*
X153003094Y-32375000D01*
X153003094Y-32375000D02*
X152907856Y-32327380D01*
X152907856Y-32327380D02*
X152669761Y-32327380D01*
X152669761Y-32327380D02*
X152526904Y-32375000D01*
X152193570Y-32327380D02*
X151955475Y-33327380D01*
X151955475Y-33327380D02*
X151764999Y-32613095D01*
X151764999Y-32613095D02*
X151574523Y-33327380D01*
X151574523Y-33327380D02*
X151336428Y-32327380D01*
X151050713Y-32327380D02*
X150384047Y-32327380D01*
X150384047Y-32327380D02*
X150812618Y-33327380D01*
%TO.C,SW17*%
X77374523Y-52329761D02*
X77231666Y-52377380D01*
X77231666Y-52377380D02*
X76993571Y-52377380D01*
X76993571Y-52377380D02*
X76898333Y-52329761D01*
X76898333Y-52329761D02*
X76850714Y-52282142D01*
X76850714Y-52282142D02*
X76803095Y-52186904D01*
X76803095Y-52186904D02*
X76803095Y-52091666D01*
X76803095Y-52091666D02*
X76850714Y-51996428D01*
X76850714Y-51996428D02*
X76898333Y-51948809D01*
X76898333Y-51948809D02*
X76993571Y-51901190D01*
X76993571Y-51901190D02*
X77184047Y-51853571D01*
X77184047Y-51853571D02*
X77279285Y-51805952D01*
X77279285Y-51805952D02*
X77326904Y-51758333D01*
X77326904Y-51758333D02*
X77374523Y-51663095D01*
X77374523Y-51663095D02*
X77374523Y-51567857D01*
X77374523Y-51567857D02*
X77326904Y-51472619D01*
X77326904Y-51472619D02*
X77279285Y-51425000D01*
X77279285Y-51425000D02*
X77184047Y-51377380D01*
X77184047Y-51377380D02*
X76945952Y-51377380D01*
X76945952Y-51377380D02*
X76803095Y-51425000D01*
X76469761Y-51377380D02*
X76231666Y-52377380D01*
X76231666Y-52377380D02*
X76041190Y-51663095D01*
X76041190Y-51663095D02*
X75850714Y-52377380D01*
X75850714Y-52377380D02*
X75612619Y-51377380D01*
X74707857Y-52377380D02*
X75279285Y-52377380D01*
X74993571Y-52377380D02*
X74993571Y-51377380D01*
X74993571Y-51377380D02*
X75088809Y-51520238D01*
X75088809Y-51520238D02*
X75184047Y-51615476D01*
X75184047Y-51615476D02*
X75279285Y-51663095D01*
X74374523Y-51377380D02*
X73707857Y-51377380D01*
X73707857Y-51377380D02*
X74136428Y-52377380D01*
D12*
%TO.C,D3*%
X78255475Y-44833904D02*
X78255475Y-44033904D01*
X78255475Y-44033904D02*
X78064999Y-44033904D01*
X78064999Y-44033904D02*
X77950713Y-44072000D01*
X77950713Y-44072000D02*
X77874523Y-44148190D01*
X77874523Y-44148190D02*
X77836428Y-44224380D01*
X77836428Y-44224380D02*
X77798332Y-44376761D01*
X77798332Y-44376761D02*
X77798332Y-44491047D01*
X77798332Y-44491047D02*
X77836428Y-44643428D01*
X77836428Y-44643428D02*
X77874523Y-44719619D01*
X77874523Y-44719619D02*
X77950713Y-44795809D01*
X77950713Y-44795809D02*
X78064999Y-44833904D01*
X78064999Y-44833904D02*
X78255475Y-44833904D01*
X77531666Y-44033904D02*
X77036428Y-44033904D01*
X77036428Y-44033904D02*
X77303094Y-44338666D01*
X77303094Y-44338666D02*
X77188809Y-44338666D01*
X77188809Y-44338666D02*
X77112618Y-44376761D01*
X77112618Y-44376761D02*
X77074523Y-44414857D01*
X77074523Y-44414857D02*
X77036428Y-44491047D01*
X77036428Y-44491047D02*
X77036428Y-44681523D01*
X77036428Y-44681523D02*
X77074523Y-44757714D01*
X77074523Y-44757714D02*
X77112618Y-44795809D01*
X77112618Y-44795809D02*
X77188809Y-44833904D01*
X77188809Y-44833904D02*
X77417380Y-44833904D01*
X77417380Y-44833904D02*
X77493571Y-44795809D01*
X77493571Y-44795809D02*
X77531666Y-44757714D01*
D11*
%TO.C,SW48*%
X134524523Y-90549761D02*
X134381666Y-90597380D01*
X134381666Y-90597380D02*
X134143571Y-90597380D01*
X134143571Y-90597380D02*
X134048333Y-90549761D01*
X134048333Y-90549761D02*
X134000714Y-90502142D01*
X134000714Y-90502142D02*
X133953095Y-90406904D01*
X133953095Y-90406904D02*
X133953095Y-90311666D01*
X133953095Y-90311666D02*
X134000714Y-90216428D01*
X134000714Y-90216428D02*
X134048333Y-90168809D01*
X134048333Y-90168809D02*
X134143571Y-90121190D01*
X134143571Y-90121190D02*
X134334047Y-90073571D01*
X134334047Y-90073571D02*
X134429285Y-90025952D01*
X134429285Y-90025952D02*
X134476904Y-89978333D01*
X134476904Y-89978333D02*
X134524523Y-89883095D01*
X134524523Y-89883095D02*
X134524523Y-89787857D01*
X134524523Y-89787857D02*
X134476904Y-89692619D01*
X134476904Y-89692619D02*
X134429285Y-89645000D01*
X134429285Y-89645000D02*
X134334047Y-89597380D01*
X134334047Y-89597380D02*
X134095952Y-89597380D01*
X134095952Y-89597380D02*
X133953095Y-89645000D01*
X133619761Y-89597380D02*
X133381666Y-90597380D01*
X133381666Y-90597380D02*
X133191190Y-89883095D01*
X133191190Y-89883095D02*
X133000714Y-90597380D01*
X133000714Y-90597380D02*
X132762619Y-89597380D01*
X131953095Y-89930714D02*
X131953095Y-90597380D01*
X132191190Y-89549761D02*
X132429285Y-90264047D01*
X132429285Y-90264047D02*
X131810238Y-90264047D01*
X131286428Y-90025952D02*
X131381666Y-89978333D01*
X131381666Y-89978333D02*
X131429285Y-89930714D01*
X131429285Y-89930714D02*
X131476904Y-89835476D01*
X131476904Y-89835476D02*
X131476904Y-89787857D01*
X131476904Y-89787857D02*
X131429285Y-89692619D01*
X131429285Y-89692619D02*
X131381666Y-89645000D01*
X131381666Y-89645000D02*
X131286428Y-89597380D01*
X131286428Y-89597380D02*
X131095952Y-89597380D01*
X131095952Y-89597380D02*
X131000714Y-89645000D01*
X131000714Y-89645000D02*
X130953095Y-89692619D01*
X130953095Y-89692619D02*
X130905476Y-89787857D01*
X130905476Y-89787857D02*
X130905476Y-89835476D01*
X130905476Y-89835476D02*
X130953095Y-89930714D01*
X130953095Y-89930714D02*
X131000714Y-89978333D01*
X131000714Y-89978333D02*
X131095952Y-90025952D01*
X131095952Y-90025952D02*
X131286428Y-90025952D01*
X131286428Y-90025952D02*
X131381666Y-90073571D01*
X131381666Y-90073571D02*
X131429285Y-90121190D01*
X131429285Y-90121190D02*
X131476904Y-90216428D01*
X131476904Y-90216428D02*
X131476904Y-90406904D01*
X131476904Y-90406904D02*
X131429285Y-90502142D01*
X131429285Y-90502142D02*
X131381666Y-90549761D01*
X131381666Y-90549761D02*
X131286428Y-90597380D01*
X131286428Y-90597380D02*
X131095952Y-90597380D01*
X131095952Y-90597380D02*
X131000714Y-90549761D01*
X131000714Y-90549761D02*
X130953095Y-90502142D01*
X130953095Y-90502142D02*
X130905476Y-90406904D01*
X130905476Y-90406904D02*
X130905476Y-90216428D01*
X130905476Y-90216428D02*
X130953095Y-90121190D01*
X130953095Y-90121190D02*
X131000714Y-90073571D01*
X131000714Y-90073571D02*
X131095952Y-90025952D01*
D12*
%TO.C,D48*%
X135696428Y-102063904D02*
X135696428Y-101263904D01*
X135696428Y-101263904D02*
X135505952Y-101263904D01*
X135505952Y-101263904D02*
X135391666Y-101302000D01*
X135391666Y-101302000D02*
X135315476Y-101378190D01*
X135315476Y-101378190D02*
X135277381Y-101454380D01*
X135277381Y-101454380D02*
X135239285Y-101606761D01*
X135239285Y-101606761D02*
X135239285Y-101721047D01*
X135239285Y-101721047D02*
X135277381Y-101873428D01*
X135277381Y-101873428D02*
X135315476Y-101949619D01*
X135315476Y-101949619D02*
X135391666Y-102025809D01*
X135391666Y-102025809D02*
X135505952Y-102063904D01*
X135505952Y-102063904D02*
X135696428Y-102063904D01*
X134553571Y-101530571D02*
X134553571Y-102063904D01*
X134744047Y-101225809D02*
X134934524Y-101797238D01*
X134934524Y-101797238D02*
X134439285Y-101797238D01*
X134020238Y-101606761D02*
X134096428Y-101568666D01*
X134096428Y-101568666D02*
X134134523Y-101530571D01*
X134134523Y-101530571D02*
X134172619Y-101454380D01*
X134172619Y-101454380D02*
X134172619Y-101416285D01*
X134172619Y-101416285D02*
X134134523Y-101340095D01*
X134134523Y-101340095D02*
X134096428Y-101302000D01*
X134096428Y-101302000D02*
X134020238Y-101263904D01*
X134020238Y-101263904D02*
X133867857Y-101263904D01*
X133867857Y-101263904D02*
X133791666Y-101302000D01*
X133791666Y-101302000D02*
X133753571Y-101340095D01*
X133753571Y-101340095D02*
X133715476Y-101416285D01*
X133715476Y-101416285D02*
X133715476Y-101454380D01*
X133715476Y-101454380D02*
X133753571Y-101530571D01*
X133753571Y-101530571D02*
X133791666Y-101568666D01*
X133791666Y-101568666D02*
X133867857Y-101606761D01*
X133867857Y-101606761D02*
X134020238Y-101606761D01*
X134020238Y-101606761D02*
X134096428Y-101644857D01*
X134096428Y-101644857D02*
X134134523Y-101682952D01*
X134134523Y-101682952D02*
X134172619Y-101759142D01*
X134172619Y-101759142D02*
X134172619Y-101911523D01*
X134172619Y-101911523D02*
X134134523Y-101987714D01*
X134134523Y-101987714D02*
X134096428Y-102025809D01*
X134096428Y-102025809D02*
X134020238Y-102063904D01*
X134020238Y-102063904D02*
X133867857Y-102063904D01*
X133867857Y-102063904D02*
X133791666Y-102025809D01*
X133791666Y-102025809D02*
X133753571Y-101987714D01*
X133753571Y-101987714D02*
X133715476Y-101911523D01*
X133715476Y-101911523D02*
X133715476Y-101759142D01*
X133715476Y-101759142D02*
X133753571Y-101682952D01*
X133753571Y-101682952D02*
X133791666Y-101644857D01*
X133791666Y-101644857D02*
X133867857Y-101606761D01*
D11*
%TO.C,SW60*%
X153574523Y-109479761D02*
X153431666Y-109527380D01*
X153431666Y-109527380D02*
X153193571Y-109527380D01*
X153193571Y-109527380D02*
X153098333Y-109479761D01*
X153098333Y-109479761D02*
X153050714Y-109432142D01*
X153050714Y-109432142D02*
X153003095Y-109336904D01*
X153003095Y-109336904D02*
X153003095Y-109241666D01*
X153003095Y-109241666D02*
X153050714Y-109146428D01*
X153050714Y-109146428D02*
X153098333Y-109098809D01*
X153098333Y-109098809D02*
X153193571Y-109051190D01*
X153193571Y-109051190D02*
X153384047Y-109003571D01*
X153384047Y-109003571D02*
X153479285Y-108955952D01*
X153479285Y-108955952D02*
X153526904Y-108908333D01*
X153526904Y-108908333D02*
X153574523Y-108813095D01*
X153574523Y-108813095D02*
X153574523Y-108717857D01*
X153574523Y-108717857D02*
X153526904Y-108622619D01*
X153526904Y-108622619D02*
X153479285Y-108575000D01*
X153479285Y-108575000D02*
X153384047Y-108527380D01*
X153384047Y-108527380D02*
X153145952Y-108527380D01*
X153145952Y-108527380D02*
X153003095Y-108575000D01*
X152669761Y-108527380D02*
X152431666Y-109527380D01*
X152431666Y-109527380D02*
X152241190Y-108813095D01*
X152241190Y-108813095D02*
X152050714Y-109527380D01*
X152050714Y-109527380D02*
X151812619Y-108527380D01*
X151003095Y-108527380D02*
X151193571Y-108527380D01*
X151193571Y-108527380D02*
X151288809Y-108575000D01*
X151288809Y-108575000D02*
X151336428Y-108622619D01*
X151336428Y-108622619D02*
X151431666Y-108765476D01*
X151431666Y-108765476D02*
X151479285Y-108955952D01*
X151479285Y-108955952D02*
X151479285Y-109336904D01*
X151479285Y-109336904D02*
X151431666Y-109432142D01*
X151431666Y-109432142D02*
X151384047Y-109479761D01*
X151384047Y-109479761D02*
X151288809Y-109527380D01*
X151288809Y-109527380D02*
X151098333Y-109527380D01*
X151098333Y-109527380D02*
X151003095Y-109479761D01*
X151003095Y-109479761D02*
X150955476Y-109432142D01*
X150955476Y-109432142D02*
X150907857Y-109336904D01*
X150907857Y-109336904D02*
X150907857Y-109098809D01*
X150907857Y-109098809D02*
X150955476Y-109003571D01*
X150955476Y-109003571D02*
X151003095Y-108955952D01*
X151003095Y-108955952D02*
X151098333Y-108908333D01*
X151098333Y-108908333D02*
X151288809Y-108908333D01*
X151288809Y-108908333D02*
X151384047Y-108955952D01*
X151384047Y-108955952D02*
X151431666Y-109003571D01*
X151431666Y-109003571D02*
X151479285Y-109098809D01*
X150288809Y-108527380D02*
X150193571Y-108527380D01*
X150193571Y-108527380D02*
X150098333Y-108575000D01*
X150098333Y-108575000D02*
X150050714Y-108622619D01*
X150050714Y-108622619D02*
X150003095Y-108717857D01*
X150003095Y-108717857D02*
X149955476Y-108908333D01*
X149955476Y-108908333D02*
X149955476Y-109146428D01*
X149955476Y-109146428D02*
X150003095Y-109336904D01*
X150003095Y-109336904D02*
X150050714Y-109432142D01*
X150050714Y-109432142D02*
X150098333Y-109479761D01*
X150098333Y-109479761D02*
X150193571Y-109527380D01*
X150193571Y-109527380D02*
X150288809Y-109527380D01*
X150288809Y-109527380D02*
X150384047Y-109479761D01*
X150384047Y-109479761D02*
X150431666Y-109432142D01*
X150431666Y-109432142D02*
X150479285Y-109336904D01*
X150479285Y-109336904D02*
X150526904Y-109146428D01*
X150526904Y-109146428D02*
X150526904Y-108908333D01*
X150526904Y-108908333D02*
X150479285Y-108717857D01*
X150479285Y-108717857D02*
X150431666Y-108622619D01*
X150431666Y-108622619D02*
X150384047Y-108575000D01*
X150384047Y-108575000D02*
X150288809Y-108527380D01*
%TO.C,SW18*%
X96424523Y-52329761D02*
X96281666Y-52377380D01*
X96281666Y-52377380D02*
X96043571Y-52377380D01*
X96043571Y-52377380D02*
X95948333Y-52329761D01*
X95948333Y-52329761D02*
X95900714Y-52282142D01*
X95900714Y-52282142D02*
X95853095Y-52186904D01*
X95853095Y-52186904D02*
X95853095Y-52091666D01*
X95853095Y-52091666D02*
X95900714Y-51996428D01*
X95900714Y-51996428D02*
X95948333Y-51948809D01*
X95948333Y-51948809D02*
X96043571Y-51901190D01*
X96043571Y-51901190D02*
X96234047Y-51853571D01*
X96234047Y-51853571D02*
X96329285Y-51805952D01*
X96329285Y-51805952D02*
X96376904Y-51758333D01*
X96376904Y-51758333D02*
X96424523Y-51663095D01*
X96424523Y-51663095D02*
X96424523Y-51567857D01*
X96424523Y-51567857D02*
X96376904Y-51472619D01*
X96376904Y-51472619D02*
X96329285Y-51425000D01*
X96329285Y-51425000D02*
X96234047Y-51377380D01*
X96234047Y-51377380D02*
X95995952Y-51377380D01*
X95995952Y-51377380D02*
X95853095Y-51425000D01*
X95519761Y-51377380D02*
X95281666Y-52377380D01*
X95281666Y-52377380D02*
X95091190Y-51663095D01*
X95091190Y-51663095D02*
X94900714Y-52377380D01*
X94900714Y-52377380D02*
X94662619Y-51377380D01*
X93757857Y-52377380D02*
X94329285Y-52377380D01*
X94043571Y-52377380D02*
X94043571Y-51377380D01*
X94043571Y-51377380D02*
X94138809Y-51520238D01*
X94138809Y-51520238D02*
X94234047Y-51615476D01*
X94234047Y-51615476D02*
X94329285Y-51663095D01*
X93186428Y-51805952D02*
X93281666Y-51758333D01*
X93281666Y-51758333D02*
X93329285Y-51710714D01*
X93329285Y-51710714D02*
X93376904Y-51615476D01*
X93376904Y-51615476D02*
X93376904Y-51567857D01*
X93376904Y-51567857D02*
X93329285Y-51472619D01*
X93329285Y-51472619D02*
X93281666Y-51425000D01*
X93281666Y-51425000D02*
X93186428Y-51377380D01*
X93186428Y-51377380D02*
X92995952Y-51377380D01*
X92995952Y-51377380D02*
X92900714Y-51425000D01*
X92900714Y-51425000D02*
X92853095Y-51472619D01*
X92853095Y-51472619D02*
X92805476Y-51567857D01*
X92805476Y-51567857D02*
X92805476Y-51615476D01*
X92805476Y-51615476D02*
X92853095Y-51710714D01*
X92853095Y-51710714D02*
X92900714Y-51758333D01*
X92900714Y-51758333D02*
X92995952Y-51805952D01*
X92995952Y-51805952D02*
X93186428Y-51805952D01*
X93186428Y-51805952D02*
X93281666Y-51853571D01*
X93281666Y-51853571D02*
X93329285Y-51901190D01*
X93329285Y-51901190D02*
X93376904Y-51996428D01*
X93376904Y-51996428D02*
X93376904Y-52186904D01*
X93376904Y-52186904D02*
X93329285Y-52282142D01*
X93329285Y-52282142D02*
X93281666Y-52329761D01*
X93281666Y-52329761D02*
X93186428Y-52377380D01*
X93186428Y-52377380D02*
X92995952Y-52377380D01*
X92995952Y-52377380D02*
X92900714Y-52329761D01*
X92900714Y-52329761D02*
X92853095Y-52282142D01*
X92853095Y-52282142D02*
X92805476Y-52186904D01*
X92805476Y-52186904D02*
X92805476Y-51996428D01*
X92805476Y-51996428D02*
X92853095Y-51901190D01*
X92853095Y-51901190D02*
X92900714Y-51853571D01*
X92900714Y-51853571D02*
X92995952Y-51805952D01*
D12*
%TO.C,D47*%
X116626428Y-101813904D02*
X116626428Y-101013904D01*
X116626428Y-101013904D02*
X116435952Y-101013904D01*
X116435952Y-101013904D02*
X116321666Y-101052000D01*
X116321666Y-101052000D02*
X116245476Y-101128190D01*
X116245476Y-101128190D02*
X116207381Y-101204380D01*
X116207381Y-101204380D02*
X116169285Y-101356761D01*
X116169285Y-101356761D02*
X116169285Y-101471047D01*
X116169285Y-101471047D02*
X116207381Y-101623428D01*
X116207381Y-101623428D02*
X116245476Y-101699619D01*
X116245476Y-101699619D02*
X116321666Y-101775809D01*
X116321666Y-101775809D02*
X116435952Y-101813904D01*
X116435952Y-101813904D02*
X116626428Y-101813904D01*
X115483571Y-101280571D02*
X115483571Y-101813904D01*
X115674047Y-100975809D02*
X115864524Y-101547238D01*
X115864524Y-101547238D02*
X115369285Y-101547238D01*
X115140714Y-101013904D02*
X114607380Y-101013904D01*
X114607380Y-101013904D02*
X114950238Y-101813904D01*
%TO.C,D29*%
X40436428Y-83283904D02*
X40436428Y-82483904D01*
X40436428Y-82483904D02*
X40245952Y-82483904D01*
X40245952Y-82483904D02*
X40131666Y-82522000D01*
X40131666Y-82522000D02*
X40055476Y-82598190D01*
X40055476Y-82598190D02*
X40017381Y-82674380D01*
X40017381Y-82674380D02*
X39979285Y-82826761D01*
X39979285Y-82826761D02*
X39979285Y-82941047D01*
X39979285Y-82941047D02*
X40017381Y-83093428D01*
X40017381Y-83093428D02*
X40055476Y-83169619D01*
X40055476Y-83169619D02*
X40131666Y-83245809D01*
X40131666Y-83245809D02*
X40245952Y-83283904D01*
X40245952Y-83283904D02*
X40436428Y-83283904D01*
X39674524Y-82560095D02*
X39636428Y-82522000D01*
X39636428Y-82522000D02*
X39560238Y-82483904D01*
X39560238Y-82483904D02*
X39369762Y-82483904D01*
X39369762Y-82483904D02*
X39293571Y-82522000D01*
X39293571Y-82522000D02*
X39255476Y-82560095D01*
X39255476Y-82560095D02*
X39217381Y-82636285D01*
X39217381Y-82636285D02*
X39217381Y-82712476D01*
X39217381Y-82712476D02*
X39255476Y-82826761D01*
X39255476Y-82826761D02*
X39712619Y-83283904D01*
X39712619Y-83283904D02*
X39217381Y-83283904D01*
X38836428Y-83283904D02*
X38684047Y-83283904D01*
X38684047Y-83283904D02*
X38607857Y-83245809D01*
X38607857Y-83245809D02*
X38569761Y-83207714D01*
X38569761Y-83207714D02*
X38493571Y-83093428D01*
X38493571Y-83093428D02*
X38455476Y-82941047D01*
X38455476Y-82941047D02*
X38455476Y-82636285D01*
X38455476Y-82636285D02*
X38493571Y-82560095D01*
X38493571Y-82560095D02*
X38531666Y-82522000D01*
X38531666Y-82522000D02*
X38607857Y-82483904D01*
X38607857Y-82483904D02*
X38760238Y-82483904D01*
X38760238Y-82483904D02*
X38836428Y-82522000D01*
X38836428Y-82522000D02*
X38874523Y-82560095D01*
X38874523Y-82560095D02*
X38912619Y-82636285D01*
X38912619Y-82636285D02*
X38912619Y-82826761D01*
X38912619Y-82826761D02*
X38874523Y-82902952D01*
X38874523Y-82902952D02*
X38836428Y-82941047D01*
X38836428Y-82941047D02*
X38760238Y-82979142D01*
X38760238Y-82979142D02*
X38607857Y-82979142D01*
X38607857Y-82979142D02*
X38531666Y-82941047D01*
X38531666Y-82941047D02*
X38493571Y-82902952D01*
X38493571Y-82902952D02*
X38455476Y-82826761D01*
D11*
%TO.C,SW31*%
X77374523Y-71379761D02*
X77231666Y-71427380D01*
X77231666Y-71427380D02*
X76993571Y-71427380D01*
X76993571Y-71427380D02*
X76898333Y-71379761D01*
X76898333Y-71379761D02*
X76850714Y-71332142D01*
X76850714Y-71332142D02*
X76803095Y-71236904D01*
X76803095Y-71236904D02*
X76803095Y-71141666D01*
X76803095Y-71141666D02*
X76850714Y-71046428D01*
X76850714Y-71046428D02*
X76898333Y-70998809D01*
X76898333Y-70998809D02*
X76993571Y-70951190D01*
X76993571Y-70951190D02*
X77184047Y-70903571D01*
X77184047Y-70903571D02*
X77279285Y-70855952D01*
X77279285Y-70855952D02*
X77326904Y-70808333D01*
X77326904Y-70808333D02*
X77374523Y-70713095D01*
X77374523Y-70713095D02*
X77374523Y-70617857D01*
X77374523Y-70617857D02*
X77326904Y-70522619D01*
X77326904Y-70522619D02*
X77279285Y-70475000D01*
X77279285Y-70475000D02*
X77184047Y-70427380D01*
X77184047Y-70427380D02*
X76945952Y-70427380D01*
X76945952Y-70427380D02*
X76803095Y-70475000D01*
X76469761Y-70427380D02*
X76231666Y-71427380D01*
X76231666Y-71427380D02*
X76041190Y-70713095D01*
X76041190Y-70713095D02*
X75850714Y-71427380D01*
X75850714Y-71427380D02*
X75612619Y-70427380D01*
X75326904Y-70427380D02*
X74707857Y-70427380D01*
X74707857Y-70427380D02*
X75041190Y-70808333D01*
X75041190Y-70808333D02*
X74898333Y-70808333D01*
X74898333Y-70808333D02*
X74803095Y-70855952D01*
X74803095Y-70855952D02*
X74755476Y-70903571D01*
X74755476Y-70903571D02*
X74707857Y-70998809D01*
X74707857Y-70998809D02*
X74707857Y-71236904D01*
X74707857Y-71236904D02*
X74755476Y-71332142D01*
X74755476Y-71332142D02*
X74803095Y-71379761D01*
X74803095Y-71379761D02*
X74898333Y-71427380D01*
X74898333Y-71427380D02*
X75184047Y-71427380D01*
X75184047Y-71427380D02*
X75279285Y-71379761D01*
X75279285Y-71379761D02*
X75326904Y-71332142D01*
X73755476Y-71427380D02*
X74326904Y-71427380D01*
X74041190Y-71427380D02*
X74041190Y-70427380D01*
X74041190Y-70427380D02*
X74136428Y-70570238D01*
X74136428Y-70570238D02*
X74231666Y-70665476D01*
X74231666Y-70665476D02*
X74326904Y-70713095D01*
D12*
%TO.C,D15*%
X40436428Y-64153904D02*
X40436428Y-63353904D01*
X40436428Y-63353904D02*
X40245952Y-63353904D01*
X40245952Y-63353904D02*
X40131666Y-63392000D01*
X40131666Y-63392000D02*
X40055476Y-63468190D01*
X40055476Y-63468190D02*
X40017381Y-63544380D01*
X40017381Y-63544380D02*
X39979285Y-63696761D01*
X39979285Y-63696761D02*
X39979285Y-63811047D01*
X39979285Y-63811047D02*
X40017381Y-63963428D01*
X40017381Y-63963428D02*
X40055476Y-64039619D01*
X40055476Y-64039619D02*
X40131666Y-64115809D01*
X40131666Y-64115809D02*
X40245952Y-64153904D01*
X40245952Y-64153904D02*
X40436428Y-64153904D01*
X39217381Y-64153904D02*
X39674524Y-64153904D01*
X39445952Y-64153904D02*
X39445952Y-63353904D01*
X39445952Y-63353904D02*
X39522143Y-63468190D01*
X39522143Y-63468190D02*
X39598333Y-63544380D01*
X39598333Y-63544380D02*
X39674524Y-63582476D01*
X38493571Y-63353904D02*
X38874523Y-63353904D01*
X38874523Y-63353904D02*
X38912619Y-63734857D01*
X38912619Y-63734857D02*
X38874523Y-63696761D01*
X38874523Y-63696761D02*
X38798333Y-63658666D01*
X38798333Y-63658666D02*
X38607857Y-63658666D01*
X38607857Y-63658666D02*
X38531666Y-63696761D01*
X38531666Y-63696761D02*
X38493571Y-63734857D01*
X38493571Y-63734857D02*
X38455476Y-63811047D01*
X38455476Y-63811047D02*
X38455476Y-64001523D01*
X38455476Y-64001523D02*
X38493571Y-64077714D01*
X38493571Y-64077714D02*
X38531666Y-64115809D01*
X38531666Y-64115809D02*
X38607857Y-64153904D01*
X38607857Y-64153904D02*
X38798333Y-64153904D01*
X38798333Y-64153904D02*
X38874523Y-64115809D01*
X38874523Y-64115809D02*
X38912619Y-64077714D01*
%TO.C,D1*%
X40055475Y-44833904D02*
X40055475Y-44033904D01*
X40055475Y-44033904D02*
X39864999Y-44033904D01*
X39864999Y-44033904D02*
X39750713Y-44072000D01*
X39750713Y-44072000D02*
X39674523Y-44148190D01*
X39674523Y-44148190D02*
X39636428Y-44224380D01*
X39636428Y-44224380D02*
X39598332Y-44376761D01*
X39598332Y-44376761D02*
X39598332Y-44491047D01*
X39598332Y-44491047D02*
X39636428Y-44643428D01*
X39636428Y-44643428D02*
X39674523Y-44719619D01*
X39674523Y-44719619D02*
X39750713Y-44795809D01*
X39750713Y-44795809D02*
X39864999Y-44833904D01*
X39864999Y-44833904D02*
X40055475Y-44833904D01*
X38836428Y-44833904D02*
X39293571Y-44833904D01*
X39064999Y-44833904D02*
X39064999Y-44033904D01*
X39064999Y-44033904D02*
X39141190Y-44148190D01*
X39141190Y-44148190D02*
X39217380Y-44224380D01*
X39217380Y-44224380D02*
X39293571Y-44262476D01*
D11*
%TO.C,SW5*%
X114998332Y-33279761D02*
X114855475Y-33327380D01*
X114855475Y-33327380D02*
X114617380Y-33327380D01*
X114617380Y-33327380D02*
X114522142Y-33279761D01*
X114522142Y-33279761D02*
X114474523Y-33232142D01*
X114474523Y-33232142D02*
X114426904Y-33136904D01*
X114426904Y-33136904D02*
X114426904Y-33041666D01*
X114426904Y-33041666D02*
X114474523Y-32946428D01*
X114474523Y-32946428D02*
X114522142Y-32898809D01*
X114522142Y-32898809D02*
X114617380Y-32851190D01*
X114617380Y-32851190D02*
X114807856Y-32803571D01*
X114807856Y-32803571D02*
X114903094Y-32755952D01*
X114903094Y-32755952D02*
X114950713Y-32708333D01*
X114950713Y-32708333D02*
X114998332Y-32613095D01*
X114998332Y-32613095D02*
X114998332Y-32517857D01*
X114998332Y-32517857D02*
X114950713Y-32422619D01*
X114950713Y-32422619D02*
X114903094Y-32375000D01*
X114903094Y-32375000D02*
X114807856Y-32327380D01*
X114807856Y-32327380D02*
X114569761Y-32327380D01*
X114569761Y-32327380D02*
X114426904Y-32375000D01*
X114093570Y-32327380D02*
X113855475Y-33327380D01*
X113855475Y-33327380D02*
X113664999Y-32613095D01*
X113664999Y-32613095D02*
X113474523Y-33327380D01*
X113474523Y-33327380D02*
X113236428Y-32327380D01*
X112379285Y-32327380D02*
X112855475Y-32327380D01*
X112855475Y-32327380D02*
X112903094Y-32803571D01*
X112903094Y-32803571D02*
X112855475Y-32755952D01*
X112855475Y-32755952D02*
X112760237Y-32708333D01*
X112760237Y-32708333D02*
X112522142Y-32708333D01*
X112522142Y-32708333D02*
X112426904Y-32755952D01*
X112426904Y-32755952D02*
X112379285Y-32803571D01*
X112379285Y-32803571D02*
X112331666Y-32898809D01*
X112331666Y-32898809D02*
X112331666Y-33136904D01*
X112331666Y-33136904D02*
X112379285Y-33232142D01*
X112379285Y-33232142D02*
X112426904Y-33279761D01*
X112426904Y-33279761D02*
X112522142Y-33327380D01*
X112522142Y-33327380D02*
X112760237Y-33327380D01*
X112760237Y-33327380D02*
X112855475Y-33279761D01*
X112855475Y-33279761D02*
X112903094Y-33232142D01*
%TO.C,U1*%
X54547380Y-113313095D02*
X55356904Y-113313095D01*
X55356904Y-113313095D02*
X55452142Y-113360714D01*
X55452142Y-113360714D02*
X55499761Y-113408333D01*
X55499761Y-113408333D02*
X55547380Y-113503571D01*
X55547380Y-113503571D02*
X55547380Y-113694047D01*
X55547380Y-113694047D02*
X55499761Y-113789285D01*
X55499761Y-113789285D02*
X55452142Y-113836904D01*
X55452142Y-113836904D02*
X55356904Y-113884523D01*
X55356904Y-113884523D02*
X54547380Y-113884523D01*
X55547380Y-114884523D02*
X55547380Y-114313095D01*
X55547380Y-114598809D02*
X54547380Y-114598809D01*
X54547380Y-114598809D02*
X54690238Y-114503571D01*
X54690238Y-114503571D02*
X54785476Y-114408333D01*
X54785476Y-114408333D02*
X54833095Y-114313095D01*
X81635809Y-106565475D02*
X81673904Y-106679761D01*
X81673904Y-106679761D02*
X81673904Y-106870237D01*
X81673904Y-106870237D02*
X81635809Y-106946428D01*
X81635809Y-106946428D02*
X81597714Y-106984523D01*
X81597714Y-106984523D02*
X81521523Y-107022618D01*
X81521523Y-107022618D02*
X81445333Y-107022618D01*
X81445333Y-107022618D02*
X81369142Y-106984523D01*
X81369142Y-106984523D02*
X81331047Y-106946428D01*
X81331047Y-106946428D02*
X81292952Y-106870237D01*
X81292952Y-106870237D02*
X81254857Y-106717856D01*
X81254857Y-106717856D02*
X81216761Y-106641666D01*
X81216761Y-106641666D02*
X81178666Y-106603571D01*
X81178666Y-106603571D02*
X81102476Y-106565475D01*
X81102476Y-106565475D02*
X81026285Y-106565475D01*
X81026285Y-106565475D02*
X80950095Y-106603571D01*
X80950095Y-106603571D02*
X80912000Y-106641666D01*
X80912000Y-106641666D02*
X80873904Y-106717856D01*
X80873904Y-106717856D02*
X80873904Y-106908333D01*
X80873904Y-106908333D02*
X80912000Y-107022618D01*
X80873904Y-107289285D02*
X81673904Y-107479761D01*
X81673904Y-107479761D02*
X81102476Y-107632142D01*
X81102476Y-107632142D02*
X81673904Y-107784523D01*
X81673904Y-107784523D02*
X80873904Y-107975000D01*
X81597714Y-108736905D02*
X81635809Y-108698809D01*
X81635809Y-108698809D02*
X81673904Y-108584524D01*
X81673904Y-108584524D02*
X81673904Y-108508333D01*
X81673904Y-108508333D02*
X81635809Y-108394047D01*
X81635809Y-108394047D02*
X81559619Y-108317857D01*
X81559619Y-108317857D02*
X81483428Y-108279762D01*
X81483428Y-108279762D02*
X81331047Y-108241666D01*
X81331047Y-108241666D02*
X81216761Y-108241666D01*
X81216761Y-108241666D02*
X81064380Y-108279762D01*
X81064380Y-108279762D02*
X80988190Y-108317857D01*
X80988190Y-108317857D02*
X80912000Y-108394047D01*
X80912000Y-108394047D02*
X80873904Y-108508333D01*
X80873904Y-108508333D02*
X80873904Y-108584524D01*
X80873904Y-108584524D02*
X80912000Y-108698809D01*
X80912000Y-108698809D02*
X80950095Y-108736905D01*
X81673904Y-109460714D02*
X81673904Y-109079762D01*
X81673904Y-109079762D02*
X80873904Y-109079762D01*
X81673904Y-109727381D02*
X80873904Y-109727381D01*
X81673904Y-110184524D02*
X81216761Y-109841666D01*
X80873904Y-110184524D02*
X81331047Y-109727381D01*
X81635809Y-117979761D02*
X81673904Y-118094047D01*
X81673904Y-118094047D02*
X81673904Y-118284523D01*
X81673904Y-118284523D02*
X81635809Y-118360714D01*
X81635809Y-118360714D02*
X81597714Y-118398809D01*
X81597714Y-118398809D02*
X81521523Y-118436904D01*
X81521523Y-118436904D02*
X81445333Y-118436904D01*
X81445333Y-118436904D02*
X81369142Y-118398809D01*
X81369142Y-118398809D02*
X81331047Y-118360714D01*
X81331047Y-118360714D02*
X81292952Y-118284523D01*
X81292952Y-118284523D02*
X81254857Y-118132142D01*
X81254857Y-118132142D02*
X81216761Y-118055952D01*
X81216761Y-118055952D02*
X81178666Y-118017857D01*
X81178666Y-118017857D02*
X81102476Y-117979761D01*
X81102476Y-117979761D02*
X81026285Y-117979761D01*
X81026285Y-117979761D02*
X80950095Y-118017857D01*
X80950095Y-118017857D02*
X80912000Y-118055952D01*
X80912000Y-118055952D02*
X80873904Y-118132142D01*
X80873904Y-118132142D02*
X80873904Y-118322619D01*
X80873904Y-118322619D02*
X80912000Y-118436904D01*
X80873904Y-118703571D02*
X81673904Y-118894047D01*
X81673904Y-118894047D02*
X81102476Y-119046428D01*
X81102476Y-119046428D02*
X81673904Y-119198809D01*
X81673904Y-119198809D02*
X80873904Y-119389286D01*
X81673904Y-119694048D02*
X80873904Y-119694048D01*
X80873904Y-119694048D02*
X80873904Y-119884524D01*
X80873904Y-119884524D02*
X80912000Y-119998810D01*
X80912000Y-119998810D02*
X80988190Y-120075000D01*
X80988190Y-120075000D02*
X81064380Y-120113095D01*
X81064380Y-120113095D02*
X81216761Y-120151191D01*
X81216761Y-120151191D02*
X81331047Y-120151191D01*
X81331047Y-120151191D02*
X81483428Y-120113095D01*
X81483428Y-120113095D02*
X81559619Y-120075000D01*
X81559619Y-120075000D02*
X81635809Y-119998810D01*
X81635809Y-119998810D02*
X81673904Y-119884524D01*
X81673904Y-119884524D02*
X81673904Y-119694048D01*
X81673904Y-120494048D02*
X80873904Y-120494048D01*
X80873904Y-121027381D02*
X80873904Y-121179762D01*
X80873904Y-121179762D02*
X80912000Y-121255952D01*
X80912000Y-121255952D02*
X80988190Y-121332143D01*
X80988190Y-121332143D02*
X81140571Y-121370238D01*
X81140571Y-121370238D02*
X81407238Y-121370238D01*
X81407238Y-121370238D02*
X81559619Y-121332143D01*
X81559619Y-121332143D02*
X81635809Y-121255952D01*
X81635809Y-121255952D02*
X81673904Y-121179762D01*
X81673904Y-121179762D02*
X81673904Y-121027381D01*
X81673904Y-121027381D02*
X81635809Y-120951190D01*
X81635809Y-120951190D02*
X81559619Y-120875000D01*
X81559619Y-120875000D02*
X81407238Y-120836904D01*
X81407238Y-120836904D02*
X81140571Y-120836904D01*
X81140571Y-120836904D02*
X80988190Y-120875000D01*
X80988190Y-120875000D02*
X80912000Y-120951190D01*
X80912000Y-120951190D02*
X80873904Y-121027381D01*
%TO.C,D33*%
X112955000Y-80840000D02*
X112955000Y-82340000D01*
X112955000Y-82340000D02*
X118355000Y-82340000D01*
X115155000Y-81090000D02*
X115155000Y-82090000D01*
X115255000Y-81590000D02*
X116155000Y-81090000D01*
X116155000Y-81090000D02*
X116155000Y-82090000D01*
X116155000Y-82090000D02*
X115255000Y-81590000D01*
X118355000Y-80840000D02*
X112955000Y-80840000D01*
X118355000Y-82340000D02*
X118355000Y-80840000D01*
%TO.C,D43*%
X36765000Y-99520000D02*
X36765000Y-101020000D01*
X36765000Y-101020000D02*
X42165000Y-101020000D01*
X38965000Y-99770000D02*
X38965000Y-100770000D01*
X39065000Y-100270000D02*
X39965000Y-99770000D01*
X39965000Y-99770000D02*
X39965000Y-100770000D01*
X39965000Y-100770000D02*
X39065000Y-100270000D01*
X42165000Y-99520000D02*
X36765000Y-99520000D01*
X42165000Y-101020000D02*
X42165000Y-99520000D01*
%TO.C,D60*%
X151100000Y-118590000D02*
X151100000Y-120090000D01*
X151100000Y-120090000D02*
X156500000Y-120090000D01*
X153300000Y-118840000D02*
X153300000Y-119840000D01*
X153400000Y-119340000D02*
X154300000Y-118840000D01*
X154300000Y-118840000D02*
X154300000Y-119840000D01*
X154300000Y-119840000D02*
X153400000Y-119340000D01*
X156500000Y-118590000D02*
X151100000Y-118590000D01*
X156500000Y-120090000D02*
X156500000Y-118590000D01*
%TO.C,D18*%
X94015000Y-61710000D02*
X94015000Y-63210000D01*
X94015000Y-63210000D02*
X99415000Y-63210000D01*
X96215000Y-61960000D02*
X96215000Y-62960000D01*
X96315000Y-62460000D02*
X97215000Y-61960000D01*
X97215000Y-61960000D02*
X97215000Y-62960000D01*
X97215000Y-62960000D02*
X96315000Y-62460000D01*
X99415000Y-61710000D02*
X94015000Y-61710000D01*
X99415000Y-63210000D02*
X99415000Y-61710000D01*
%TO.C,D16*%
X55815000Y-61710000D02*
X55815000Y-63210000D01*
X55815000Y-63210000D02*
X61215000Y-63210000D01*
X58015000Y-61960000D02*
X58015000Y-62960000D01*
X58115000Y-62460000D02*
X59015000Y-61960000D01*
X59015000Y-61960000D02*
X59015000Y-62960000D01*
X59015000Y-62960000D02*
X58115000Y-62460000D01*
X61215000Y-61710000D02*
X55815000Y-61710000D01*
X61215000Y-63210000D02*
X61215000Y-61710000D01*
%TO.C,D6*%
X132025000Y-42390000D02*
X132025000Y-43890000D01*
X132025000Y-43890000D02*
X137425000Y-43890000D01*
X134225000Y-42640000D02*
X134225000Y-43640000D01*
X134325000Y-43140000D02*
X135225000Y-42640000D01*
X135225000Y-42640000D02*
X135225000Y-43640000D01*
X135225000Y-43640000D02*
X134325000Y-43140000D01*
X137425000Y-42390000D02*
X132025000Y-42390000D01*
X137425000Y-43890000D02*
X137425000Y-42390000D01*
%TO.C,D17*%
X74965000Y-61710000D02*
X74965000Y-63210000D01*
X74965000Y-63210000D02*
X80365000Y-63210000D01*
X77165000Y-61960000D02*
X77165000Y-62960000D01*
X77265000Y-62460000D02*
X78165000Y-61960000D01*
X78165000Y-61960000D02*
X78165000Y-62960000D01*
X78165000Y-62960000D02*
X77265000Y-62460000D01*
X80365000Y-61710000D02*
X74965000Y-61710000D01*
X80365000Y-63210000D02*
X80365000Y-61710000D01*
%TO.C,J1*%
X156266500Y-71058750D02*
X156266500Y-65058750D01*
X168266500Y-71058750D02*
X156266500Y-71058750D01*
X156266500Y-65058750D02*
X168266500Y-65058750D01*
X168266500Y-65058750D02*
X168266500Y-71058750D01*
%TO.C,D21*%
X151100000Y-61710000D02*
X151100000Y-63210000D01*
X151100000Y-63210000D02*
X156500000Y-63210000D01*
X153300000Y-61960000D02*
X153300000Y-62960000D01*
X153400000Y-62460000D02*
X154300000Y-61960000D01*
X154300000Y-61960000D02*
X154300000Y-62960000D01*
X154300000Y-62960000D02*
X153400000Y-62460000D01*
X156500000Y-61710000D02*
X151100000Y-61710000D01*
X156500000Y-63210000D02*
X156500000Y-61710000D01*
%TO.C,D58*%
X112955000Y-118590000D02*
X112955000Y-120090000D01*
X112955000Y-120090000D02*
X118355000Y-120090000D01*
X115155000Y-118840000D02*
X115155000Y-119840000D01*
X115255000Y-119340000D02*
X116155000Y-118840000D01*
X116155000Y-118840000D02*
X116155000Y-119840000D01*
X116155000Y-119840000D02*
X115255000Y-119340000D01*
X118355000Y-118590000D02*
X112955000Y-118590000D01*
X118355000Y-120090000D02*
X118355000Y-118590000D01*
%TO.C,D32*%
X94015000Y-80840000D02*
X94015000Y-82340000D01*
X94015000Y-82340000D02*
X99415000Y-82340000D01*
X96215000Y-81090000D02*
X96215000Y-82090000D01*
X96315000Y-81590000D02*
X97215000Y-81090000D01*
X97215000Y-81090000D02*
X97215000Y-82090000D01*
X97215000Y-82090000D02*
X96315000Y-81590000D01*
X99415000Y-80840000D02*
X94015000Y-80840000D01*
X99415000Y-82340000D02*
X99415000Y-80840000D01*
%TO.C,D35*%
X151100000Y-80840000D02*
X151100000Y-82340000D01*
X151100000Y-82340000D02*
X156500000Y-82340000D01*
X153300000Y-81090000D02*
X153300000Y-82090000D01*
X153400000Y-81590000D02*
X154300000Y-81090000D01*
X154300000Y-81090000D02*
X154300000Y-82090000D01*
X154300000Y-82090000D02*
X153400000Y-81590000D01*
X156500000Y-80840000D02*
X151100000Y-80840000D01*
X156500000Y-82340000D02*
X156500000Y-80840000D01*
%TO.C,D46*%
X94015000Y-99520000D02*
X94015000Y-101020000D01*
X94015000Y-101020000D02*
X99415000Y-101020000D01*
X96215000Y-99770000D02*
X96215000Y-100770000D01*
X96315000Y-100270000D02*
X97215000Y-99770000D01*
X97215000Y-99770000D02*
X97215000Y-100770000D01*
X97215000Y-100770000D02*
X96315000Y-100270000D01*
X99415000Y-99520000D02*
X94015000Y-99520000D01*
X99415000Y-101020000D02*
X99415000Y-99520000D01*
%TO.C,D34*%
X132025000Y-80840000D02*
X132025000Y-82340000D01*
X132025000Y-82340000D02*
X137425000Y-82340000D01*
X134225000Y-81090000D02*
X134225000Y-82090000D01*
X134325000Y-81590000D02*
X135225000Y-81090000D01*
X135225000Y-81090000D02*
X135225000Y-82090000D01*
X135225000Y-82090000D02*
X134325000Y-81590000D01*
X137425000Y-80840000D02*
X132025000Y-80840000D01*
X137425000Y-82340000D02*
X137425000Y-80840000D01*
%TO.C,D2*%
X55815000Y-42390000D02*
X55815000Y-43890000D01*
X55815000Y-43890000D02*
X61215000Y-43890000D01*
X58015000Y-42640000D02*
X58015000Y-43640000D01*
X58115000Y-43140000D02*
X59015000Y-42640000D01*
X59015000Y-42640000D02*
X59015000Y-43640000D01*
X59015000Y-43640000D02*
X58115000Y-43140000D01*
X61215000Y-42390000D02*
X55815000Y-42390000D01*
X61215000Y-43890000D02*
X61215000Y-42390000D01*
%TO.C,D31*%
X74965000Y-80840000D02*
X74965000Y-82340000D01*
X74965000Y-82340000D02*
X80365000Y-82340000D01*
X77165000Y-81090000D02*
X77165000Y-82090000D01*
X77265000Y-81590000D02*
X78165000Y-81090000D01*
X78165000Y-81090000D02*
X78165000Y-82090000D01*
X78165000Y-82090000D02*
X77265000Y-81590000D01*
X80365000Y-80840000D02*
X74965000Y-80840000D01*
X80365000Y-82340000D02*
X80365000Y-80840000D01*
%TO.C,D59*%
X132025000Y-118590000D02*
X132025000Y-120090000D01*
X132025000Y-120090000D02*
X137425000Y-120090000D01*
X134225000Y-118840000D02*
X134225000Y-119840000D01*
X134325000Y-119340000D02*
X135225000Y-118840000D01*
X135225000Y-118840000D02*
X135225000Y-119840000D01*
X135225000Y-119840000D02*
X134325000Y-119340000D01*
X137425000Y-118590000D02*
X132025000Y-118590000D01*
X137425000Y-120090000D02*
X137425000Y-118590000D01*
%TO.C,D5*%
X112955000Y-42390000D02*
X112955000Y-43890000D01*
X112955000Y-43890000D02*
X118355000Y-43890000D01*
X115155000Y-42640000D02*
X115155000Y-43640000D01*
X115255000Y-43140000D02*
X116155000Y-42640000D01*
X116155000Y-42640000D02*
X116155000Y-43640000D01*
X116155000Y-43640000D02*
X115255000Y-43140000D01*
X118355000Y-42390000D02*
X112955000Y-42390000D01*
X118355000Y-43890000D02*
X118355000Y-42390000D01*
%TO.C,D4*%
X94015000Y-42390000D02*
X94015000Y-43890000D01*
X94015000Y-43890000D02*
X99415000Y-43890000D01*
X96215000Y-42640000D02*
X96215000Y-43640000D01*
X96315000Y-43140000D02*
X97215000Y-42640000D01*
X97215000Y-42640000D02*
X97215000Y-43640000D01*
X97215000Y-43640000D02*
X96315000Y-43140000D01*
X99415000Y-42390000D02*
X94015000Y-42390000D01*
X99415000Y-43890000D02*
X99415000Y-42390000D01*
%TO.C,D7*%
X151100000Y-42390000D02*
X151100000Y-43890000D01*
X151100000Y-43890000D02*
X156500000Y-43890000D01*
X153300000Y-42640000D02*
X153300000Y-43640000D01*
X153400000Y-43140000D02*
X154300000Y-42640000D01*
X154300000Y-42640000D02*
X154300000Y-43640000D01*
X154300000Y-43640000D02*
X153400000Y-43140000D01*
X156500000Y-42390000D02*
X151100000Y-42390000D01*
X156500000Y-43890000D02*
X156500000Y-42390000D01*
%TO.C,D57*%
X94015000Y-118590000D02*
X94015000Y-120090000D01*
X94015000Y-120090000D02*
X99415000Y-120090000D01*
X96215000Y-118840000D02*
X96215000Y-119840000D01*
X96315000Y-119340000D02*
X97215000Y-118840000D01*
X97215000Y-118840000D02*
X97215000Y-119840000D01*
X97215000Y-119840000D02*
X96315000Y-119340000D01*
X99415000Y-118590000D02*
X94015000Y-118590000D01*
X99415000Y-120090000D02*
X99415000Y-118590000D01*
%TO.C,D44*%
X55815000Y-99920000D02*
X55815000Y-101420000D01*
X55815000Y-101420000D02*
X61215000Y-101420000D01*
X58015000Y-100170000D02*
X58015000Y-101170000D01*
X58115000Y-100670000D02*
X59015000Y-100170000D01*
X59015000Y-100170000D02*
X59015000Y-101170000D01*
X59015000Y-101170000D02*
X58115000Y-100670000D01*
X61215000Y-99920000D02*
X55815000Y-99920000D01*
X61215000Y-101420000D02*
X61215000Y-99920000D01*
%TO.C,D20*%
X132025000Y-61710000D02*
X132025000Y-63210000D01*
X132025000Y-63210000D02*
X137425000Y-63210000D01*
X134225000Y-61960000D02*
X134225000Y-62960000D01*
X134325000Y-62460000D02*
X135225000Y-61960000D01*
X135225000Y-61960000D02*
X135225000Y-62960000D01*
X135225000Y-62960000D02*
X134325000Y-62460000D01*
X137425000Y-61710000D02*
X132025000Y-61710000D01*
X137425000Y-63210000D02*
X137425000Y-61710000D01*
%TO.C,D30*%
X55815000Y-80840000D02*
X55815000Y-82340000D01*
X55815000Y-82340000D02*
X61215000Y-82340000D01*
X58015000Y-81090000D02*
X58015000Y-82090000D01*
X58115000Y-81590000D02*
X59015000Y-81090000D01*
X59015000Y-81090000D02*
X59015000Y-82090000D01*
X59015000Y-82090000D02*
X58115000Y-81590000D01*
X61215000Y-80840000D02*
X55815000Y-80840000D01*
X61215000Y-82340000D02*
X61215000Y-80840000D01*
%TO.C,D49*%
X151100000Y-99520000D02*
X151100000Y-101020000D01*
X151100000Y-101020000D02*
X156500000Y-101020000D01*
X153300000Y-99770000D02*
X153300000Y-100770000D01*
X153400000Y-100270000D02*
X154300000Y-99770000D01*
X154300000Y-99770000D02*
X154300000Y-100770000D01*
X154300000Y-100770000D02*
X153400000Y-100270000D01*
X156500000Y-99520000D02*
X151100000Y-99520000D01*
X156500000Y-101020000D02*
X156500000Y-99520000D01*
%TO.C,D45*%
X74965000Y-99920000D02*
X74965000Y-101420000D01*
X74965000Y-101420000D02*
X80365000Y-101420000D01*
X77165000Y-100170000D02*
X77165000Y-101170000D01*
X77265000Y-100670000D02*
X78165000Y-100170000D01*
X78165000Y-100170000D02*
X78165000Y-101170000D01*
X78165000Y-101170000D02*
X77265000Y-100670000D01*
X80365000Y-99920000D02*
X74965000Y-99920000D01*
X80365000Y-101420000D02*
X80365000Y-99920000D01*
%TO.C,D19*%
X112955000Y-61710000D02*
X112955000Y-63210000D01*
X112955000Y-63210000D02*
X118355000Y-63210000D01*
X115155000Y-61960000D02*
X115155000Y-62960000D01*
X115255000Y-62460000D02*
X116155000Y-61960000D01*
X116155000Y-61960000D02*
X116155000Y-62960000D01*
X116155000Y-62960000D02*
X115255000Y-62460000D01*
X118355000Y-61710000D02*
X112955000Y-61710000D01*
X118355000Y-63210000D02*
X118355000Y-61710000D01*
%TO.C,D3*%
X74965000Y-42390000D02*
X74965000Y-43890000D01*
X74965000Y-43890000D02*
X80365000Y-43890000D01*
X77165000Y-42640000D02*
X77165000Y-43640000D01*
X77265000Y-43140000D02*
X78165000Y-42640000D01*
X78165000Y-42640000D02*
X78165000Y-43640000D01*
X78165000Y-43640000D02*
X77265000Y-43140000D01*
X80365000Y-42390000D02*
X74965000Y-42390000D01*
X80365000Y-43890000D02*
X80365000Y-42390000D01*
%TO.C,D48*%
X132025000Y-99520000D02*
X132025000Y-101020000D01*
X132025000Y-101020000D02*
X137425000Y-101020000D01*
X134225000Y-99770000D02*
X134225000Y-100770000D01*
X134325000Y-100270000D02*
X135225000Y-99770000D01*
X135225000Y-99770000D02*
X135225000Y-100770000D01*
X135225000Y-100770000D02*
X134325000Y-100270000D01*
X137425000Y-99520000D02*
X132025000Y-99520000D01*
X137425000Y-101020000D02*
X137425000Y-99520000D01*
%TO.C,D47*%
X112955000Y-99270000D02*
X112955000Y-100770000D01*
X112955000Y-100770000D02*
X118355000Y-100770000D01*
X115155000Y-99520000D02*
X115155000Y-100520000D01*
X115255000Y-100020000D02*
X116155000Y-99520000D01*
X116155000Y-99520000D02*
X116155000Y-100520000D01*
X116155000Y-100520000D02*
X115255000Y-100020000D01*
X118355000Y-99270000D02*
X112955000Y-99270000D01*
X118355000Y-100770000D02*
X118355000Y-99270000D01*
%TO.C,D29*%
X36765000Y-80840000D02*
X36765000Y-82340000D01*
X36765000Y-82340000D02*
X42165000Y-82340000D01*
X38965000Y-81090000D02*
X38965000Y-82090000D01*
X39065000Y-81590000D02*
X39965000Y-81090000D01*
X39965000Y-81090000D02*
X39965000Y-82090000D01*
X39965000Y-82090000D02*
X39065000Y-81590000D01*
X42165000Y-80840000D02*
X36765000Y-80840000D01*
X42165000Y-82340000D02*
X42165000Y-80840000D01*
%TO.C,D15*%
X36765000Y-61710000D02*
X36765000Y-63210000D01*
X36765000Y-63210000D02*
X42165000Y-63210000D01*
X38965000Y-61960000D02*
X38965000Y-62960000D01*
X39065000Y-62460000D02*
X39965000Y-61960000D01*
X39965000Y-61960000D02*
X39965000Y-62960000D01*
X39965000Y-62960000D02*
X39065000Y-62460000D01*
X42165000Y-61710000D02*
X36765000Y-61710000D01*
X42165000Y-63210000D02*
X42165000Y-61710000D01*
%TO.C,D1*%
X36765000Y-42390000D02*
X36765000Y-43890000D01*
X36765000Y-43890000D02*
X42165000Y-43890000D01*
X38965000Y-42640000D02*
X38965000Y-43640000D01*
X39065000Y-43140000D02*
X39965000Y-42640000D01*
X39965000Y-42640000D02*
X39965000Y-43640000D01*
X39965000Y-43640000D02*
X39065000Y-43140000D01*
X42165000Y-42390000D02*
X36765000Y-42390000D01*
X42165000Y-43890000D02*
X42165000Y-42390000D01*
D13*
%TO.C,U1*%
X77880000Y-103575000D02*
X78280000Y-103575000D01*
X75280000Y-103575000D02*
X75680000Y-103575000D01*
X72780000Y-103575000D02*
X73180000Y-103575000D01*
X70280000Y-103575000D02*
X70680000Y-103575000D01*
X67680000Y-103575000D02*
X68080000Y-103575000D01*
X65180000Y-103575000D02*
X65580000Y-103575000D01*
X62580000Y-103575000D02*
X62980000Y-103575000D01*
X60080000Y-103575000D02*
X60480000Y-103575000D01*
X57480000Y-103575000D02*
X57880000Y-103575000D01*
X54980000Y-103575000D02*
X55380000Y-103575000D01*
X52480000Y-103575000D02*
X52880000Y-103575000D01*
X49880000Y-103575000D02*
X50280000Y-103575000D01*
X47380000Y-103575000D02*
X47780000Y-103575000D01*
X44780000Y-103575000D02*
X45180000Y-103575000D01*
X42280000Y-103575000D02*
X42680000Y-103575000D01*
X39780000Y-103575000D02*
X40180000Y-103575000D01*
X37180000Y-103575000D02*
X37580000Y-103575000D01*
X34680000Y-103575000D02*
X35080000Y-103575000D01*
X32347000Y-103575000D02*
X32347000Y-106582000D01*
X32080000Y-103575000D02*
X32480000Y-103575000D01*
X29680000Y-103575000D02*
X29980000Y-103575000D01*
X29680000Y-103575000D02*
X29680000Y-124575000D01*
X32347000Y-106582000D02*
X29680000Y-106582000D01*
X80680000Y-110375000D02*
X80680000Y-103575000D01*
X80680000Y-112575000D02*
X80680000Y-112975000D01*
X80680000Y-115175000D02*
X80680000Y-115575000D01*
X80680000Y-124575000D02*
X80680000Y-117775000D01*
X77880000Y-124575000D02*
X78280000Y-124575000D01*
X75280000Y-124575000D02*
X75680000Y-124575000D01*
X72780000Y-124575000D02*
X73180000Y-124575000D01*
X70280000Y-124575000D02*
X70680000Y-124575000D01*
X67680000Y-124575000D02*
X68080000Y-124575000D01*
X65180000Y-124575000D02*
X65580000Y-124575000D01*
X62580000Y-124575000D02*
X62980000Y-124575000D01*
X60080000Y-124575000D02*
X60480000Y-124575000D01*
X57480000Y-124575000D02*
X57880000Y-124575000D01*
X54980000Y-124575000D02*
X55380000Y-124575000D01*
X52480000Y-124575000D02*
X52880000Y-124575000D01*
X49880000Y-124575000D02*
X50280000Y-124575000D01*
X47380000Y-124575000D02*
X47780000Y-124575000D01*
X44780000Y-124575000D02*
X45180000Y-124575000D01*
X42280000Y-124575000D02*
X42680000Y-124575000D01*
X39780000Y-124575000D02*
X40180000Y-124575000D01*
X37180000Y-124575000D02*
X37580000Y-124575000D01*
X34680000Y-124575000D02*
X35080000Y-124575000D01*
X32080000Y-124575000D02*
X32480000Y-124575000D01*
X29680000Y-124575000D02*
X29980000Y-124575000D01*
%TD*%
M02*
