%TF.GenerationSoftware,KiCad,Pcbnew,(7.0.0-0)*%
%TF.CreationDate,2023-03-06T01:51:54+09:00*%
%TF.ProjectId,11111_pcb,31313131-315f-4706-9362-2e6b69636164,rev?*%
%TF.SameCoordinates,Original*%
%TF.FileFunction,Soldermask,Bot*%
%TF.FilePolarity,Negative*%
%FSLAX46Y46*%
G04 Gerber Fmt 4.6, Leading zero omitted, Abs format (unit mm)*
G04 Created by KiCad (PCBNEW (7.0.0-0)) date 2023-03-06 01:51:54*
%MOMM*%
%LPD*%
G01*
G04 APERTURE LIST*
%ADD10C,1.900000*%
%ADD11C,4.000000*%
%ADD12O,2.500000X2.000000*%
%ADD13R,1.300000X0.950000*%
%ADD14C,1.210000*%
%ADD15O,2.200000X1.300000*%
%ADD16C,1.524000*%
%ADD17O,1.800000X1.800000*%
%ADD18O,1.500000X1.500000*%
%ADD19R,1.700000X3.500000*%
G04 APERTURE END LIST*
D10*
%TO.C,SW46*%
X90805000Y-95310000D03*
D11*
X95885000Y-95310000D03*
D10*
X100965000Y-95310000D03*
D12*
X92074999Y-92769999D03*
X98424999Y-90229999D03*
%TD*%
D13*
%TO.C,D33*%
X113879999Y-81589999D03*
X117429999Y-81589999D03*
%TD*%
%TO.C,D43*%
X37689999Y-100269999D03*
X41239999Y-100269999D03*
%TD*%
%TO.C,D60*%
X152024999Y-119339999D03*
X155574999Y-119339999D03*
%TD*%
%TO.C,D18*%
X94939999Y-62459999D03*
X98489999Y-62459999D03*
%TD*%
%TO.C,D16*%
X56739999Y-62459999D03*
X60289999Y-62459999D03*
%TD*%
%TO.C,D6*%
X132949999Y-43139999D03*
X136499999Y-43139999D03*
%TD*%
%TO.C,D17*%
X75889999Y-62459999D03*
X79439999Y-62459999D03*
%TD*%
D14*
%TO.C,J1*%
X157880000Y-68040000D03*
X164880000Y-68040000D03*
D15*
X168179999Y-66039999D03*
X159679999Y-70039999D03*
X162679999Y-70039999D03*
X166679999Y-70039999D03*
%TD*%
D13*
%TO.C,D21*%
X152024999Y-62459999D03*
X155574999Y-62459999D03*
%TD*%
D16*
%TO.C,REF\u002A\u002A*%
X88300000Y-23260000D03*
X88300000Y-25800000D03*
X103540000Y-23260000D03*
X103540000Y-25800000D03*
%TD*%
D10*
%TO.C,SW34*%
X128905000Y-76140000D03*
D11*
X133985000Y-76140000D03*
D10*
X139065000Y-76140000D03*
D12*
X130174999Y-73599999D03*
X136524999Y-71059999D03*
%TD*%
D10*
%TO.C,SW15*%
X33655000Y-57090000D03*
D11*
X38735000Y-57090000D03*
D10*
X43815000Y-57090000D03*
D12*
X34924999Y-54549999D03*
X41274999Y-52009999D03*
%TD*%
D10*
%TO.C,SW45*%
X71755000Y-95310000D03*
D11*
X76835000Y-95310000D03*
D10*
X81915000Y-95310000D03*
D12*
X73024999Y-92769999D03*
X79374999Y-90229999D03*
%TD*%
D10*
%TO.C,SW57*%
X90865000Y-114240000D03*
D11*
X95945000Y-114240000D03*
D10*
X101025000Y-114240000D03*
D12*
X92134999Y-111699999D03*
X98484999Y-109159999D03*
%TD*%
D10*
%TO.C,SW1*%
X33655000Y-38040000D03*
D11*
X38735000Y-38040000D03*
D10*
X43815000Y-38040000D03*
D12*
X34924999Y-35499999D03*
X41274999Y-32959999D03*
%TD*%
D10*
%TO.C,SW58*%
X109855000Y-114240000D03*
D11*
X114935000Y-114240000D03*
D10*
X120015000Y-114240000D03*
D12*
X111124999Y-111699999D03*
X117474999Y-109159999D03*
%TD*%
D10*
%TO.C,SW16*%
X52635000Y-57090000D03*
D11*
X57715000Y-57090000D03*
D10*
X62795000Y-57090000D03*
D12*
X53904999Y-54549999D03*
X60254999Y-52009999D03*
%TD*%
D13*
%TO.C,D58*%
X113879999Y-119339999D03*
X117429999Y-119339999D03*
%TD*%
%TO.C,D32*%
X94939999Y-81589999D03*
X98489999Y-81589999D03*
%TD*%
D10*
%TO.C,SW19*%
X109855000Y-57090000D03*
D11*
X114935000Y-57090000D03*
D10*
X120015000Y-57090000D03*
D12*
X111124999Y-54549999D03*
X117474999Y-52009999D03*
%TD*%
D13*
%TO.C,D35*%
X152024999Y-81589999D03*
X155574999Y-81589999D03*
%TD*%
%TO.C,D46*%
X94939999Y-100269999D03*
X98489999Y-100269999D03*
%TD*%
%TO.C,D34*%
X132949999Y-81589999D03*
X136499999Y-81589999D03*
%TD*%
D10*
%TO.C,SW43*%
X33655000Y-95310000D03*
D11*
X38735000Y-95310000D03*
D10*
X43815000Y-95310000D03*
D12*
X34924999Y-92769999D03*
X41274999Y-90229999D03*
%TD*%
D10*
%TO.C,SW47*%
X109855000Y-95310000D03*
D11*
X114935000Y-95310000D03*
D10*
X120015000Y-95310000D03*
D12*
X111124999Y-92769999D03*
X117474999Y-90229999D03*
%TD*%
D13*
%TO.C,D2*%
X56739999Y-43139999D03*
X60289999Y-43139999D03*
%TD*%
D10*
%TO.C,SW35*%
X147955000Y-76140000D03*
D11*
X153035000Y-76140000D03*
D10*
X158115000Y-76140000D03*
D12*
X149224999Y-73599999D03*
X155574999Y-71059999D03*
%TD*%
D13*
%TO.C,D31*%
X75889999Y-81589999D03*
X79439999Y-81589999D03*
%TD*%
D10*
%TO.C,SW30*%
X52635000Y-76140000D03*
D11*
X57715000Y-76140000D03*
D10*
X62795000Y-76140000D03*
D12*
X53904999Y-73599999D03*
X60254999Y-71059999D03*
%TD*%
D13*
%TO.C,D59*%
X132949999Y-119339999D03*
X136499999Y-119339999D03*
%TD*%
D10*
%TO.C,SW33*%
X109855000Y-76140000D03*
D11*
X114935000Y-76140000D03*
D10*
X120015000Y-76140000D03*
D12*
X111124999Y-73599999D03*
X117474999Y-71059999D03*
%TD*%
D13*
%TO.C,D5*%
X113879999Y-43139999D03*
X117429999Y-43139999D03*
%TD*%
%TO.C,D4*%
X94939999Y-43139999D03*
X98489999Y-43139999D03*
%TD*%
%TO.C,D7*%
X152024999Y-43139999D03*
X155574999Y-43139999D03*
%TD*%
D10*
%TO.C,SW6*%
X128905000Y-38040000D03*
D11*
X133985000Y-38040000D03*
D10*
X139065000Y-38040000D03*
D12*
X130174999Y-35499999D03*
X136524999Y-32959999D03*
%TD*%
D10*
%TO.C,SW44*%
X52635000Y-95310000D03*
D11*
X57715000Y-95310000D03*
D10*
X62795000Y-95310000D03*
D12*
X53904999Y-92769999D03*
X60254999Y-90229999D03*
%TD*%
D13*
%TO.C,D57*%
X94939999Y-119339999D03*
X98489999Y-119339999D03*
%TD*%
%TO.C,D44*%
X56739999Y-100669999D03*
X60289999Y-100669999D03*
%TD*%
%TO.C,D20*%
X132949999Y-62459999D03*
X136499999Y-62459999D03*
%TD*%
D10*
%TO.C,SW49*%
X147955000Y-95190000D03*
D11*
X153035000Y-95190000D03*
D10*
X158115000Y-95190000D03*
D12*
X149224999Y-92649999D03*
X155574999Y-90109999D03*
%TD*%
D10*
%TO.C,SW21*%
X147955000Y-57090000D03*
D11*
X153035000Y-57090000D03*
D10*
X158115000Y-57090000D03*
D12*
X149224999Y-54549999D03*
X155574999Y-52009999D03*
%TD*%
D13*
%TO.C,D30*%
X56739999Y-81589999D03*
X60289999Y-81589999D03*
%TD*%
%TO.C,D49*%
X152024999Y-100269999D03*
X155574999Y-100269999D03*
%TD*%
D10*
%TO.C,SW29*%
X33655000Y-76140000D03*
D11*
X38735000Y-76140000D03*
D10*
X43815000Y-76140000D03*
D12*
X34924999Y-73599999D03*
X41274999Y-71059999D03*
%TD*%
D10*
%TO.C,SW4*%
X90805000Y-38040000D03*
D11*
X95885000Y-38040000D03*
D10*
X100965000Y-38040000D03*
D12*
X92074999Y-35499999D03*
X98424999Y-32959999D03*
%TD*%
D13*
%TO.C,D45*%
X75889999Y-100669999D03*
X79439999Y-100669999D03*
%TD*%
%TO.C,D19*%
X113879999Y-62459999D03*
X117429999Y-62459999D03*
%TD*%
D10*
%TO.C,SW59*%
X128905000Y-114240000D03*
D11*
X133985000Y-114240000D03*
D10*
X139065000Y-114240000D03*
D12*
X130174999Y-111699999D03*
X136524999Y-109159999D03*
%TD*%
D10*
%TO.C,SW20*%
X128905000Y-57090000D03*
D11*
X133985000Y-57090000D03*
D10*
X139065000Y-57090000D03*
D12*
X130174999Y-54549999D03*
X136524999Y-52009999D03*
%TD*%
D10*
%TO.C,SW32*%
X90805000Y-76140000D03*
D11*
X95885000Y-76140000D03*
D10*
X100965000Y-76140000D03*
D12*
X92074999Y-73599999D03*
X98424999Y-71059999D03*
%TD*%
D10*
%TO.C,SW2*%
X52635000Y-38040000D03*
D11*
X57715000Y-38040000D03*
D10*
X62795000Y-38040000D03*
D12*
X53904999Y-35499999D03*
X60254999Y-32959999D03*
%TD*%
D10*
%TO.C,SW3*%
X71755000Y-38040000D03*
D11*
X76835000Y-38040000D03*
D10*
X81915000Y-38040000D03*
D12*
X73024999Y-35499999D03*
X79374999Y-32959999D03*
%TD*%
D10*
%TO.C,SW7*%
X147955000Y-38040000D03*
D11*
X153035000Y-38040000D03*
D10*
X158115000Y-38040000D03*
D12*
X149224999Y-35499999D03*
X155574999Y-32959999D03*
%TD*%
D10*
%TO.C,SW17*%
X71755000Y-57090000D03*
D11*
X76835000Y-57090000D03*
D10*
X81915000Y-57090000D03*
D12*
X73024999Y-54549999D03*
X79374999Y-52009999D03*
%TD*%
D13*
%TO.C,D3*%
X75889999Y-43139999D03*
X79439999Y-43139999D03*
%TD*%
D10*
%TO.C,SW48*%
X128905000Y-95310000D03*
D11*
X133985000Y-95310000D03*
D10*
X139065000Y-95310000D03*
D12*
X130174999Y-92769999D03*
X136524999Y-90229999D03*
%TD*%
D13*
%TO.C,D48*%
X132949999Y-100269999D03*
X136499999Y-100269999D03*
%TD*%
D10*
%TO.C,SW60*%
X147955000Y-114240000D03*
D11*
X153035000Y-114240000D03*
D10*
X158115000Y-114240000D03*
D12*
X149224999Y-111699999D03*
X155574999Y-109159999D03*
%TD*%
D10*
%TO.C,SW18*%
X90805000Y-57090000D03*
D11*
X95885000Y-57090000D03*
D10*
X100965000Y-57090000D03*
D12*
X92074999Y-54549999D03*
X98424999Y-52009999D03*
%TD*%
D13*
%TO.C,D47*%
X113879999Y-100019999D03*
X117429999Y-100019999D03*
%TD*%
%TO.C,D29*%
X37689999Y-81589999D03*
X41239999Y-81589999D03*
%TD*%
D10*
%TO.C,SW31*%
X71755000Y-76140000D03*
D11*
X76835000Y-76140000D03*
D10*
X81915000Y-76140000D03*
D12*
X73024999Y-73599999D03*
X79374999Y-71059999D03*
%TD*%
D13*
%TO.C,D15*%
X37689999Y-62459999D03*
X41239999Y-62459999D03*
%TD*%
%TO.C,D1*%
X37689999Y-43139999D03*
X41239999Y-43139999D03*
%TD*%
D10*
%TO.C,SW5*%
X109855000Y-38040000D03*
D11*
X114935000Y-38040000D03*
D10*
X120015000Y-38040000D03*
D12*
X111124999Y-35499999D03*
X117474999Y-32959999D03*
%TD*%
D17*
%TO.C,U1*%
X31179999Y-111349999D03*
D18*
X34209999Y-111649999D03*
X34209999Y-116499999D03*
D17*
X31179999Y-116799999D03*
D19*
X31049999Y-104284999D03*
X33589999Y-104284999D03*
X36129999Y-104284999D03*
X38669999Y-104284999D03*
X41209999Y-104284999D03*
X43749999Y-104284999D03*
X46289999Y-104284999D03*
X48829999Y-104284999D03*
X51369999Y-104284999D03*
X53909999Y-104284999D03*
X56449999Y-104284999D03*
X58989999Y-104284999D03*
X61529999Y-104284999D03*
X64069999Y-104284999D03*
X66609999Y-104284999D03*
X69149999Y-104284999D03*
X71689999Y-104284999D03*
X74229999Y-104284999D03*
X76769999Y-104284999D03*
X79309999Y-104284999D03*
X79309999Y-123864999D03*
X76769999Y-123864999D03*
X74229999Y-123864999D03*
X71689999Y-123864999D03*
X69149999Y-123864999D03*
X66609999Y-123864999D03*
X64069999Y-123864999D03*
X61529999Y-123864999D03*
X58989999Y-123864999D03*
X56449999Y-123864999D03*
X53909999Y-123864999D03*
X51369999Y-123864999D03*
X48829999Y-123864999D03*
X46289999Y-123864999D03*
X43749999Y-123864999D03*
X41209999Y-123864999D03*
X38669999Y-123864999D03*
X36129999Y-123864999D03*
X33589999Y-123864999D03*
X31049999Y-123864999D03*
%TD*%
M02*
