%TF.GenerationSoftware,KiCad,Pcbnew,(7.0.0-0)*%
%TF.CreationDate,2023-03-05T21:50:49+09:00*%
%TF.ProjectId,11111,31313131-312e-46b6-9963-61645f706362,rev?*%
%TF.SameCoordinates,Original*%
%TF.FileFunction,Profile,NP*%
%FSLAX46Y46*%
G04 Gerber Fmt 4.6, Leading zero omitted, Abs format (unit mm)*
G04 Created by KiCad (PCBNEW (7.0.0-0)) date 2023-03-05 21:50:49*
%MOMM*%
%LPD*%
G01*
G04 APERTURE LIST*
%TA.AperFunction,Profile*%
%ADD10C,0.100000*%
%TD*%
G04 APERTURE END LIST*
D10*
X175303949Y-133920049D02*
G75*
G03*
X177843949Y-131380000I-49J2540049D01*
G01*
X33020000Y-133920000D02*
X175303949Y-133920000D01*
X195380000Y-134020000D02*
X337663949Y-133720000D01*
X53340000Y-121920000D02*
X30500000Y-121920000D01*
X340242000Y-25400000D02*
G75*
G03*
X337701974Y-22860000I-2540000J0D01*
G01*
X30500000Y-121920000D02*
X30480000Y-131380000D01*
X340241974Y-25400000D02*
X340203949Y-131180000D01*
X33020000Y-22860000D02*
G75*
G03*
X30480000Y-25400000I0J-2540000D01*
G01*
X192840000Y-131480000D02*
G75*
G03*
X195380000Y-134020000I2540000J0D01*
G01*
X30480000Y-131380000D02*
G75*
G03*
X33020000Y-133920000I2540000J0D01*
G01*
X337663949Y-133720049D02*
G75*
G03*
X340203949Y-131180000I-49J2540049D01*
G01*
X195418025Y-22856000D02*
X337701974Y-22860000D01*
X192840000Y-131480000D02*
X192878025Y-25396000D01*
X177843949Y-25396051D02*
X177843949Y-131380000D01*
X30500000Y-111760000D02*
X53360000Y-111760000D01*
X177843949Y-25396051D02*
G75*
G03*
X175303949Y-22856051I-2540049J-49D01*
G01*
X53360000Y-111760000D02*
X53340000Y-121920000D01*
X30480000Y-25400000D02*
X30500000Y-111760000D01*
X195418025Y-22856025D02*
G75*
G03*
X192878025Y-25396000I-25J-2539975D01*
G01*
X33020000Y-22860000D02*
X175303949Y-22856051D01*
M02*
