%TF.GenerationSoftware,KiCad,Pcbnew,(7.0.0-0)*%
%TF.CreationDate,2023-03-06T01:52:27+09:00*%
%TF.ProjectId,11111_pcb,31313131-315f-4706-9362-2e6b69636164,rev?*%
%TF.SameCoordinates,Original*%
%TF.FileFunction,Profile,NP*%
%FSLAX46Y46*%
G04 Gerber Fmt 4.6, Leading zero omitted, Abs format (unit mm)*
G04 Created by KiCad (PCBNEW (7.0.0-0)) date 2023-03-06 01:52:27*
%MOMM*%
%LPD*%
G01*
G04 APERTURE LIST*
%TA.AperFunction,Profile*%
%ADD10C,0.100000*%
%TD*%
%TA.AperFunction,Profile*%
%ADD11C,0.050000*%
%TD*%
G04 APERTURE END LIST*
D10*
X182860987Y-131482000D02*
X325144936Y-131182000D01*
X327723000Y-22862000D02*
G75*
G03*
X325182961Y-20322000I-2540000J0D01*
G01*
X327722961Y-22862000D02*
X327684936Y-128642000D01*
X180321000Y-128942000D02*
G75*
G03*
X182860987Y-131482000I2540000J0D01*
G01*
X325144936Y-131181936D02*
G75*
G03*
X327684936Y-128642000I64J2539936D01*
G01*
X182899012Y-20318000D02*
X325182961Y-20322000D01*
X180320987Y-128942000D02*
X180359012Y-22858000D01*
X182899012Y-20318012D02*
G75*
G03*
X180359012Y-22858000I-12J-2539988D01*
G01*
D11*
%TO.C,REF\u002A\u002A*%
X183103400Y-126700000D02*
X184761700Y-129450000D01*
X184761700Y-123950000D02*
X183103400Y-126700000D01*
X188078300Y-123950000D02*
X184761700Y-123950000D01*
X188078300Y-123950000D02*
X189736600Y-126700000D01*
X188078300Y-129450000D02*
X184761700Y-129450000D01*
X189736600Y-126700000D02*
X188078300Y-129450000D01*
X299143400Y-85750000D02*
X300801700Y-88500000D01*
X300801700Y-83000000D02*
X299143400Y-85750000D01*
X304118300Y-83000000D02*
X300801700Y-83000000D01*
X304118300Y-83000000D02*
X305776600Y-85750000D01*
X304118300Y-88500000D02*
X300801700Y-88500000D01*
X305776600Y-85750000D02*
X304118300Y-88500000D01*
X183103400Y-25700000D02*
X184761700Y-28450000D01*
X184761700Y-22950000D02*
X183103400Y-25700000D01*
X188078300Y-22950000D02*
X184761700Y-22950000D01*
X188078300Y-22950000D02*
X189736600Y-25700000D01*
X188078300Y-28450000D02*
X184761700Y-28450000D01*
X189736600Y-25700000D02*
X188078300Y-28450000D01*
X318723400Y-25700000D02*
X320381700Y-28450000D01*
X320381700Y-22950000D02*
X318723400Y-25700000D01*
X323698300Y-22950000D02*
X320381700Y-22950000D01*
X323698300Y-22950000D02*
X325356600Y-25700000D01*
X323698300Y-28450000D02*
X320381700Y-28450000D01*
X325356600Y-25700000D02*
X323698300Y-28450000D01*
X262143400Y-126700000D02*
X263801700Y-129450000D01*
X263801700Y-123950000D02*
X262143400Y-126700000D01*
X267118300Y-123950000D02*
X263801700Y-123950000D01*
X267118300Y-123950000D02*
X268776600Y-126700000D01*
X267118300Y-129450000D02*
X263801700Y-129450000D01*
X268776600Y-126700000D02*
X267118300Y-129450000D01*
%TD*%
M02*
