M48
; DRILL file {KiCad (7.0.0-0)} date Monday, March 06, 2023 01:52:29
; FORMAT={-:-/ absolute / inch / decimal}
; #@! TF.CreationDate,2023-03-06T01:52:29+09:00
; #@! TF.GenerationSoftware,Kicad,Pcbnew,(7.0.0-0)
; #@! TF.FileFunction,Plated,1,2,PTH
FMAT,2
INCH
; #@! TA.AperFunction,Plated,PTH,ViaDrill
T1C0.0157
; #@! TA.AperFunction,Plated,PTH,ComponentDrill
T2C0.0236
; #@! TA.AperFunction,Plated,PTH,ComponentDrill
T3C0.0315
%
G90
G05
T1
X7.3071Y-2.5001
X7.4359Y-3.3001
X7.5071Y-3.8379
X7.8829Y-3.2123
X7.8829Y-3.9477
X7.8939Y-4.1379
X8.6329Y-3.2123
X8.6329Y-3.9477
X9.3843Y-3.2123
X9.3843Y-3.9477
X9.3843Y-4.6985
X9.5248Y-4.1664
X9.7071Y-4.6001
X9.9481Y-4.2286
X9.9971Y-3.9477
X10.1071Y-4.1379
X10.1368Y-3.2123
X10.1368Y-3.9477
X10.1368Y-4.6985
X10.3071Y-2.6001
X10.3071Y-3.2379
X10.3071Y-4.6379
X10.4449Y-4.6379
X10.5071Y-1.8379
X10.5646Y-4.1001
X10.6Y-3.5
X10.6071Y-4.6094
X10.637Y-4.2702
X10.7071Y-4.7501
X10.7845Y-4.1412
X10.8859Y-3.2123
X10.8859Y-3.9477
X10.9071Y-4.0001
X10.9587Y-4.2808
X11.0071Y-3.6379
X11.0071Y-4.0001
X11.0071Y-4.5379
X11.0845Y-4.1412
X11.0849Y-4.3778
X11.1071Y-3.9001
X11.1845Y-4.1412
X11.2845Y-4.1412
X11.4179Y-4.3168
X11.5071Y-4.2276
X11.6071Y-3.3001
X11.6321Y-3.2123
X11.6321Y-3.9477
X11.9071Y-4.6715
X12.3835Y-3.2123
X12.4071Y-4.3001
X12.4071Y-4.7001
X12.4406Y-2.6335
X12.4845Y-3.9001
T2
G00X7.2038Y-2.7576
M15
G01X7.1683Y-2.7576
M16
G05
G00X7.2628Y-2.6001
M15
G01X7.2274Y-2.6001
M16
G05
G00X7.4203Y-2.6001
M15
G01X7.3849Y-2.6001
M16
G05
G00X7.5384Y-2.6001
M15
G01X7.503Y-2.6001
M16
G05
T3
G00X7.6262Y-1.3977
M15
G01X7.642Y-1.3977
M16
G05
G00X7.6262Y-2.1477
M15
G01X7.642Y-2.1477
M16
G05
G00X7.6262Y-2.8977
M15
G01X7.642Y-2.8977
M16
G05
G00X7.6262Y-3.6477
M15
G01X7.642Y-3.6477
M16
G05
G00X7.6262Y-4.3977
M15
G01X7.642Y-4.3977
M16
G05
G00X7.8762Y-1.2977
M15
G01X7.892Y-1.2977
M16
G05
G00X7.8762Y-2.0477
M15
G01X7.892Y-2.0477
M16
G05
G00X7.8762Y-2.7977
M15
G01X7.892Y-2.7977
M16
G05
G00X7.8762Y-3.5477
M15
G01X7.892Y-3.5477
M16
G05
G00X7.8762Y-4.2977
M15
G01X7.892Y-4.2977
M16
G05
G00X8.3743Y-1.3977
M15
G01X8.39Y-1.3977
M16
G05
G00X8.3743Y-2.1477
M15
G01X8.39Y-2.1477
M16
G05
G00X8.3743Y-2.8977
M15
G01X8.39Y-2.8977
M16
G05
G00X8.3743Y-3.6477
M15
G01X8.39Y-3.6477
M16
G05
G00X8.3743Y-4.3977
M15
G01X8.39Y-4.3977
M16
G05
G00X8.6243Y-1.2977
M15
G01X8.64Y-1.2977
M16
G05
G00X8.6243Y-2.0477
M15
G01X8.64Y-2.0477
M16
G05
G00X8.6243Y-2.7977
M15
G01X8.64Y-2.7977
M16
G05
G00X8.6243Y-3.5477
M15
G01X8.64Y-3.5477
M16
G05
G00X8.6243Y-4.2977
M15
G01X8.64Y-4.2977
M16
G05
G00X9.1262Y-1.3977
M15
G01X9.142Y-1.3977
M16
G05
G00X9.1262Y-2.1477
M15
G01X9.142Y-2.1477
M16
G05
G00X9.1262Y-2.8977
M15
G01X9.142Y-2.8977
M16
G05
G00X9.1262Y-3.6477
M15
G01X9.142Y-3.6477
M16
G05
G00X9.1262Y-4.3977
M15
G01X9.142Y-4.3977
M16
G05
G00X9.3762Y-1.2977
M15
G01X9.392Y-1.2977
M16
G05
G00X9.3762Y-2.0477
M15
G01X9.392Y-2.0477
M16
G05
G00X9.3762Y-2.7977
M15
G01X9.392Y-2.7977
M16
G05
G00X9.3762Y-3.5477
M15
G01X9.392Y-3.5477
M16
G05
G00X9.3762Y-4.2977
M15
G01X9.392Y-4.2977
M16
G05
G00X9.8782Y-1.3977
M15
G01X9.8939Y-1.3977
M16
G05
G00X9.8782Y-2.1477
M15
G01X9.8939Y-2.1477
M16
G05
G00X9.8782Y-2.8977
M15
G01X9.8939Y-2.8977
M16
G05
G00X9.8782Y-3.6477
M15
G01X9.8939Y-3.6477
M16
G05
G00X9.8782Y-4.3977
M15
G01X9.8939Y-4.3977
M16
G05
G00X10.1282Y-1.2977
M15
G01X10.1439Y-1.2977
M16
G05
G00X10.1282Y-2.0477
M15
G01X10.1439Y-2.0477
M16
G05
G00X10.1282Y-2.7977
M15
G01X10.1439Y-2.7977
M16
G05
G00X10.1282Y-3.5477
M15
G01X10.1439Y-3.5477
M16
G05
G00X10.1282Y-4.2977
M15
G01X10.1439Y-4.2977
M16
G05
G00X10.6262Y-1.3977
M15
G01X10.642Y-1.3977
M16
G05
G00X10.6262Y-2.1477
M15
G01X10.642Y-2.1477
M16
G05
G00X10.6262Y-2.8977
M15
G01X10.642Y-2.8977
M16
G05
G00X10.6262Y-3.6477
M15
G01X10.642Y-3.6477
M16
G05
G00X10.8762Y-1.2977
M15
G01X10.892Y-1.2977
M16
G05
G00X10.8762Y-2.0477
M15
G01X10.892Y-2.0477
M16
G05
G00X10.8762Y-2.7977
M15
G01X10.892Y-2.7977
M16
G05
G00X10.8762Y-3.5477
M15
G01X10.892Y-3.5477
M16
G05
G00X11.3743Y-1.3977
M15
G01X11.39Y-1.3977
M16
G05
G00X11.3743Y-2.1477
M15
G01X11.39Y-2.1477
M16
G05
G00X11.3743Y-2.8977
M15
G01X11.39Y-2.8977
M16
G05
G00X11.3743Y-3.6477
M15
G01X11.39Y-3.6477
M16
G05
G00X11.6243Y-1.2977
M15
G01X11.64Y-1.2977
M16
G05
G00X11.6243Y-2.0477
M15
G01X11.64Y-2.0477
M16
G05
G00X11.6243Y-2.7977
M15
G01X11.64Y-2.7977
M16
G05
G00X11.6243Y-3.5477
M15
G01X11.64Y-3.5477
M16
G05
G00X12.1262Y-1.3977
M15
G01X12.142Y-1.3977
M16
G05
G00X12.1262Y-2.1477
M15
G01X12.142Y-2.1477
M16
G05
G00X12.1262Y-2.8977
M15
G01X12.142Y-2.8977
M16
G05
G00X12.1262Y-3.6477
M15
G01X12.142Y-3.6477
M16
G05
G00X12.3762Y-1.2977
M15
G01X12.392Y-1.2977
M16
G05
G00X12.3762Y-2.0477
M15
G01X12.392Y-2.0477
M16
G05
G00X12.3762Y-2.7977
M15
G01X12.392Y-2.7977
M16
G05
G00X12.3762Y-3.5477
M15
G01X12.392Y-3.5477
M16
G05
T0
M30
