M48
; DRILL file {KiCad (7.0.0-0)} date Tuesday, March 07, 2023 00:12:58
; FORMAT={-:-/ absolute / inch / decimal}
; #@! TF.CreationDate,2023-03-07T00:12:58+09:00
; #@! TF.GenerationSoftware,Kicad,Pcbnew,(7.0.0-0)
; #@! TF.FileFunction,Plated,1,2,PTH
FMAT,2
INCH
; #@! TA.AperFunction,Plated,PTH,ComponentDrill
T1C0.0118
%
G90
G05
T1
G00X1.2514Y-1.2239
M15
G01X1.2514Y-1.7711
M16
G05
G00X1.2514Y-1.9739
M15
G01X1.2514Y-2.5211
M16
G05
G00X1.2514Y-2.7239
M15
G01X1.2514Y-3.2711
M16
G05
G00X1.2514Y-3.4786
M15
G01X1.2514Y-4.0258
M16
G05
G00X1.2514Y-1.2239
M15
G01X1.7986Y-1.2239
M16
G05
G00X1.2514Y-1.7711
M15
G01X1.7986Y-1.7711
M16
G05
G00X1.2514Y-1.9739
M15
G01X1.7986Y-1.9739
M16
G05
G00X1.2514Y-2.5211
M15
G01X1.7986Y-2.5211
M16
G05
G00X1.2514Y-2.7239
M15
G01X1.7986Y-2.7239
M16
G05
G00X1.2514Y-3.2711
M15
G01X1.7986Y-3.2711
M16
G05
G00X1.2514Y-3.4786
M15
G01X1.7986Y-3.4786
M16
G05
G00X1.2514Y-4.0258
M15
G01X1.7986Y-4.0258
M16
G05
G00X1.7986Y-1.2239
M15
G01X1.7986Y-1.7711
M16
G05
G00X1.7986Y-1.9739
M15
G01X1.7986Y-2.5211
M16
G05
G00X1.7986Y-2.7239
M15
G01X1.7986Y-3.2711
M16
G05
G00X1.7986Y-3.4786
M15
G01X1.7986Y-4.0258
M16
G05
G00X1.9986Y-1.2239
M15
G01X1.9986Y-1.7711
M16
G05
G00X1.9986Y-1.9739
M15
G01X1.9986Y-2.5211
M16
G05
G00X1.9986Y-2.7239
M15
G01X1.9986Y-3.2711
M16
G05
G00X1.9986Y-3.4786
M15
G01X1.9986Y-4.0258
M16
G05
G00X1.9986Y-1.2239
M15
G01X2.5459Y-1.2239
M16
G05
G00X1.9986Y-1.7711
M15
G01X2.5459Y-1.7711
M16
G05
G00X1.9986Y-1.9739
M15
G01X2.5459Y-1.9739
M16
G05
G00X1.9986Y-2.5211
M15
G01X2.5459Y-2.5211
M16
G05
G00X1.9986Y-2.7239
M15
G01X2.5459Y-2.7239
M16
G05
G00X1.9986Y-3.2711
M15
G01X2.5459Y-3.2711
M16
G05
G00X1.9986Y-3.4786
M15
G01X2.5459Y-3.4786
M16
G05
G00X1.9986Y-4.0258
M15
G01X2.5459Y-4.0258
M16
G05
G00X2.5459Y-1.2239
M15
G01X2.5459Y-1.7711
M16
G05
G00X2.5459Y-1.9739
M15
G01X2.5459Y-2.5211
M16
G05
G00X2.5459Y-2.7239
M15
G01X2.5459Y-3.2711
M16
G05
G00X2.5459Y-3.4786
M15
G01X2.5459Y-4.0258
M16
G05
G00X2.7514Y-1.2239
M15
G01X2.7514Y-1.7711
M16
G05
G00X2.7514Y-1.9739
M15
G01X2.7514Y-2.5211
M16
G05
G00X2.7514Y-2.7239
M15
G01X2.7514Y-3.2711
M16
G05
G00X2.7514Y-3.4786
M15
G01X2.7514Y-4.0258
M16
G05
G00X2.7514Y-1.2239
M15
G01X3.2986Y-1.2239
M16
G05
G00X2.7514Y-1.7711
M15
G01X3.2986Y-1.7711
M16
G05
G00X2.7514Y-1.9739
M15
G01X3.2986Y-1.9739
M16
G05
G00X2.7514Y-2.5211
M15
G01X3.2986Y-2.5211
M16
G05
G00X2.7514Y-2.7239
M15
G01X3.2986Y-2.7239
M16
G05
G00X2.7514Y-3.2711
M15
G01X3.2986Y-3.2711
M16
G05
G00X2.7514Y-3.4786
M15
G01X3.2986Y-3.4786
M16
G05
G00X2.7514Y-4.0258
M15
G01X3.2986Y-4.0258
M16
G05
G00X3.2986Y-1.2239
M15
G01X3.2986Y-1.7711
M16
G05
G00X3.2986Y-1.9739
M15
G01X3.2986Y-2.5211
M16
G05
G00X3.2986Y-2.7239
M15
G01X3.2986Y-3.2711
M16
G05
G00X3.2986Y-3.4786
M15
G01X3.2986Y-4.0258
M16
G05
G00X3.5014Y-1.2239
M15
G01X3.5014Y-1.7711
M16
G05
G00X3.5014Y-1.9739
M15
G01X3.5014Y-2.5211
M16
G05
G00X3.5014Y-2.7239
M15
G01X3.5014Y-3.2711
M16
G05
G00X3.5014Y-3.4786
M15
G01X3.5014Y-4.0258
M16
G05
G00X3.5037Y-4.2239
M15
G01X3.5037Y-4.7711
M16
G05
G00X3.5014Y-1.2239
M15
G01X4.0486Y-1.2239
M16
G05
G00X3.5014Y-1.7711
M15
G01X4.0486Y-1.7711
M16
G05
G00X3.5014Y-1.9739
M15
G01X4.0486Y-1.9739
M16
G05
G00X3.5014Y-2.5211
M15
G01X4.0486Y-2.5211
M16
G05
G00X3.5014Y-2.7239
M15
G01X4.0486Y-2.7239
M16
G05
G00X3.5014Y-3.2711
M15
G01X4.0486Y-3.2711
M16
G05
G00X3.5014Y-3.4786
M15
G01X4.0486Y-3.4786
M16
G05
G00X3.5014Y-4.0258
M15
G01X4.0486Y-4.0258
M16
G05
G00X3.5037Y-4.2239
M15
G01X4.051Y-4.2239
M16
G05
G00X3.5037Y-4.7711
M15
G01X4.051Y-4.7711
M16
G05
G00X4.0486Y-1.2239
M15
G01X4.0486Y-1.7711
M16
G05
G00X4.0486Y-1.9739
M15
G01X4.0486Y-2.5211
M16
G05
G00X4.0486Y-2.7239
M15
G01X4.0486Y-3.2711
M16
G05
G00X4.0486Y-3.4786
M15
G01X4.0486Y-4.0258
M16
G05
G00X4.051Y-4.2239
M15
G01X4.051Y-4.7711
M16
G05
G00X4.2514Y-1.2239
M15
G01X4.2514Y-1.7711
M16
G05
G00X4.2514Y-1.9739
M15
G01X4.2514Y-2.5211
M16
G05
G00X4.2514Y-2.7239
M15
G01X4.2514Y-3.2711
M16
G05
G00X4.2514Y-3.4786
M15
G01X4.2514Y-4.0258
M16
G05
G00X4.2514Y-4.2239
M15
G01X4.2514Y-4.7711
M16
G05
G00X4.2514Y-1.2239
M15
G01X4.7986Y-1.2239
M16
G05
G00X4.2514Y-1.7711
M15
G01X4.7986Y-1.7711
M16
G05
G00X4.2514Y-1.9739
M15
G01X4.7986Y-1.9739
M16
G05
G00X4.2514Y-2.5211
M15
G01X4.7986Y-2.5211
M16
G05
G00X4.2514Y-2.7239
M15
G01X4.7986Y-2.7239
M16
G05
G00X4.2514Y-3.2711
M15
G01X4.7986Y-3.2711
M16
G05
G00X4.2514Y-3.4786
M15
G01X4.7986Y-3.4786
M16
G05
G00X4.2514Y-4.0258
M15
G01X4.7986Y-4.0258
M16
G05
G00X4.2514Y-4.2239
M15
G01X4.7986Y-4.2239
M16
G05
G00X4.2514Y-4.7711
M15
G01X4.7986Y-4.7711
M16
G05
G00X4.7986Y-1.2239
M15
G01X4.7986Y-1.7711
M16
G05
G00X4.7986Y-1.9739
M15
G01X4.7986Y-2.5211
M16
G05
G00X4.7986Y-2.7239
M15
G01X4.7986Y-3.2711
M16
G05
G00X4.7986Y-3.4786
M15
G01X4.7986Y-4.0258
M16
G05
G00X4.7986Y-4.2239
M15
G01X4.7986Y-4.7711
M16
G05
G00X5.0014Y-1.2239
M15
G01X5.0014Y-1.7711
M16
G05
G00X5.0014Y-1.9739
M15
G01X5.0014Y-2.5211
M16
G05
G00X5.0014Y-2.7239
M15
G01X5.0014Y-3.2711
M16
G05
G00X5.0014Y-3.4786
M15
G01X5.0014Y-4.0258
M16
G05
G00X5.0014Y-4.2239
M15
G01X5.0014Y-4.7711
M16
G05
G00X5.0014Y-1.2239
M15
G01X5.5486Y-1.2239
M16
G05
G00X5.0014Y-1.7711
M15
G01X5.5486Y-1.7711
M16
G05
G00X5.0014Y-1.9739
M15
G01X5.5486Y-1.9739
M16
G05
G00X5.0014Y-2.5211
M15
G01X5.5486Y-2.5211
M16
G05
G00X5.0014Y-2.7239
M15
G01X5.5486Y-2.7239
M16
G05
G00X5.0014Y-3.2711
M15
G01X5.5486Y-3.2711
M16
G05
G00X5.0014Y-3.4786
M15
G01X5.5486Y-3.4786
M16
G05
G00X5.0014Y-4.0258
M15
G01X5.5486Y-4.0258
M16
G05
G00X5.0014Y-4.2239
M15
G01X5.5486Y-4.2239
M16
G05
G00X5.0014Y-4.7711
M15
G01X5.5486Y-4.7711
M16
G05
G00X5.5486Y-1.2239
M15
G01X5.5486Y-1.7711
M16
G05
G00X5.5486Y-1.9739
M15
G01X5.5486Y-2.5211
M16
G05
G00X5.5486Y-2.7239
M15
G01X5.5486Y-3.2711
M16
G05
G00X5.5486Y-3.4786
M15
G01X5.5486Y-4.0258
M16
G05
G00X5.5486Y-4.2239
M15
G01X5.5486Y-4.7711
M16
G05
G00X5.7514Y-1.2239
M15
G01X5.7514Y-1.7711
M16
G05
G00X5.7514Y-1.9739
M15
G01X5.7514Y-2.5211
M16
G05
G00X5.7514Y-2.7239
M15
G01X5.7514Y-3.2711
M16
G05
G00X5.7514Y-3.4739
M15
G01X5.7514Y-4.0211
M16
G05
G00X5.7514Y-4.2239
M15
G01X5.7514Y-4.7711
M16
G05
G00X5.7514Y-1.2239
M15
G01X6.2986Y-1.2239
M16
G05
G00X5.7514Y-1.7711
M15
G01X6.2986Y-1.7711
M16
G05
G00X5.7514Y-1.9739
M15
G01X6.2986Y-1.9739
M16
G05
G00X5.7514Y-2.5211
M15
G01X6.2986Y-2.5211
M16
G05
G00X5.7514Y-2.7239
M15
G01X6.2986Y-2.7239
M16
G05
G00X5.7514Y-3.2711
M15
G01X6.2986Y-3.2711
M16
G05
G00X5.7514Y-3.4739
M15
G01X6.2986Y-3.4739
M16
G05
G00X5.7514Y-4.0211
M15
G01X6.2986Y-4.0211
M16
G05
G00X5.7514Y-4.2239
M15
G01X6.2986Y-4.2239
M16
G05
G00X5.7514Y-4.7711
M15
G01X6.2986Y-4.7711
M16
G05
G00X6.2986Y-1.2239
M15
G01X6.2986Y-1.7711
M16
G05
G00X6.2986Y-1.9739
M15
G01X6.2986Y-2.5211
M16
G05
G00X6.2986Y-2.7239
M15
G01X6.2986Y-3.2711
M16
G05
G00X6.2986Y-3.4739
M15
G01X6.2986Y-4.0211
M16
G05
G00X6.2986Y-4.2239
M15
G01X6.2986Y-4.7711
M16
G05
T0
M30
