%TF.GenerationSoftware,KiCad,Pcbnew,(7.0.0-0)*%
%TF.CreationDate,2023-03-07T00:12:56+09:00*%
%TF.ProjectId,11111_plates,31313131-315f-4706-9c61-7465732e6b69,rev?*%
%TF.SameCoordinates,Original*%
%TF.FileFunction,Soldermask,Top*%
%TF.FilePolarity,Negative*%
%FSLAX46Y46*%
G04 Gerber Fmt 4.6, Leading zero omitted, Abs format (unit mm)*
G04 Created by KiCad (PCBNEW (7.0.0-0)) date 2023-03-07 00:12:56*
%MOMM*%
%LPD*%
G01*
G04 APERTURE LIST*
%ADD10O,15.900000X2.000000*%
%ADD11O,2.000000X15.900000*%
%ADD12C,3.600000*%
G04 APERTURE END LIST*
D10*
%TO.C,SW46*%
X95884999Y-88356050D03*
X95884999Y-102256050D03*
D11*
X88934999Y-95306050D03*
X102834999Y-95306050D03*
%TD*%
D10*
%TO.C,SW34*%
X133984999Y-69186050D03*
X133984999Y-83086050D03*
D11*
X127034999Y-76136050D03*
X140934999Y-76136050D03*
%TD*%
D10*
%TO.C,SW15*%
X38734999Y-50136050D03*
X38734999Y-64036050D03*
D11*
X31784999Y-57086050D03*
X45684999Y-57086050D03*
%TD*%
D10*
%TO.C,SW45*%
X76834999Y-88356050D03*
X76834999Y-102256050D03*
D11*
X69884999Y-95306050D03*
X83784999Y-95306050D03*
%TD*%
D10*
%TO.C,SW57*%
X95944999Y-107286050D03*
X95944999Y-121186050D03*
D11*
X88994999Y-114236050D03*
X102894999Y-114236050D03*
%TD*%
D10*
%TO.C,SW1*%
X38734999Y-31086050D03*
X38734999Y-44986050D03*
D11*
X31784999Y-38036050D03*
X45684999Y-38036050D03*
%TD*%
D10*
%TO.C,SW58*%
X114934999Y-107286050D03*
X114934999Y-121186050D03*
D11*
X107984999Y-114236050D03*
X121884999Y-114236050D03*
%TD*%
D10*
%TO.C,SW16*%
X57714999Y-50136050D03*
X57714999Y-64036050D03*
D11*
X50764999Y-57086050D03*
X64664999Y-57086050D03*
%TD*%
D10*
%TO.C,SW19*%
X114934999Y-50136050D03*
X114934999Y-64036050D03*
D11*
X107984999Y-57086050D03*
X121884999Y-57086050D03*
%TD*%
D10*
%TO.C,SW43*%
X38734999Y-88356050D03*
X38734999Y-102256050D03*
D11*
X31784999Y-95306050D03*
X45684999Y-95306050D03*
%TD*%
D10*
%TO.C,SW47*%
X114934999Y-88356050D03*
X114934999Y-102256050D03*
D11*
X107984999Y-95306050D03*
X121884999Y-95306050D03*
%TD*%
D10*
%TO.C,SW35*%
X153034999Y-69186050D03*
X153034999Y-83086050D03*
D11*
X146084999Y-76136050D03*
X159984999Y-76136050D03*
%TD*%
D10*
%TO.C,SW30*%
X57714999Y-69186050D03*
X57714999Y-83086050D03*
D11*
X50764999Y-76136050D03*
X64664999Y-76136050D03*
%TD*%
D10*
%TO.C,SW33*%
X114934999Y-69186050D03*
X114934999Y-83086050D03*
D11*
X107984999Y-76136050D03*
X121884999Y-76136050D03*
%TD*%
D10*
%TO.C,SW6*%
X133984999Y-31086050D03*
X133984999Y-44986050D03*
D11*
X127034999Y-38036050D03*
X140934999Y-38036050D03*
%TD*%
D10*
%TO.C,SW44*%
X57714999Y-88356050D03*
X57714999Y-102256050D03*
D11*
X50764999Y-95306050D03*
X64664999Y-95306050D03*
%TD*%
D10*
%TO.C,SW49*%
X153034999Y-88236050D03*
X153034999Y-102136050D03*
D11*
X146084999Y-95186050D03*
X159984999Y-95186050D03*
%TD*%
D10*
%TO.C,SW21*%
X153034999Y-50136050D03*
X153034999Y-64036050D03*
D11*
X146084999Y-57086050D03*
X159984999Y-57086050D03*
%TD*%
D10*
%TO.C,SW29*%
X38734999Y-69186050D03*
X38734999Y-83086050D03*
D11*
X31784999Y-76136050D03*
X45684999Y-76136050D03*
%TD*%
D10*
%TO.C,SW4*%
X95884999Y-31086050D03*
X95884999Y-44986050D03*
D11*
X88934999Y-38036050D03*
X102834999Y-38036050D03*
%TD*%
D10*
%TO.C,SW59*%
X133984999Y-107286050D03*
X133984999Y-121186050D03*
D11*
X127034999Y-114236050D03*
X140934999Y-114236050D03*
%TD*%
D10*
%TO.C,SW20*%
X133984999Y-50136050D03*
X133984999Y-64036050D03*
D11*
X127034999Y-57086050D03*
X140934999Y-57086050D03*
%TD*%
D10*
%TO.C,SW32*%
X95884999Y-69186050D03*
X95884999Y-83086050D03*
D11*
X88934999Y-76136050D03*
X102834999Y-76136050D03*
%TD*%
D10*
%TO.C,SW2*%
X57714999Y-31086050D03*
X57714999Y-44986050D03*
D11*
X50764999Y-38036050D03*
X64664999Y-38036050D03*
%TD*%
D10*
%TO.C,SW3*%
X76834999Y-31086050D03*
X76834999Y-44986050D03*
D11*
X69884999Y-38036050D03*
X83784999Y-38036050D03*
%TD*%
D10*
%TO.C,SW7*%
X153034999Y-31086050D03*
X153034999Y-44986050D03*
D11*
X146084999Y-38036050D03*
X159984999Y-38036050D03*
%TD*%
D10*
%TO.C,SW17*%
X76834999Y-50136050D03*
X76834999Y-64036050D03*
D11*
X69884999Y-57086050D03*
X83784999Y-57086050D03*
%TD*%
D10*
%TO.C,SW48*%
X133984999Y-88356050D03*
X133984999Y-102256050D03*
D11*
X127034999Y-95306050D03*
X140934999Y-95306050D03*
%TD*%
D10*
%TO.C,SW60*%
X153034999Y-107286050D03*
X153034999Y-121186050D03*
D11*
X146084999Y-114236050D03*
X159984999Y-114236050D03*
%TD*%
D10*
%TO.C,SW18*%
X95884999Y-50136050D03*
X95884999Y-64036050D03*
D11*
X88934999Y-57086050D03*
X102834999Y-57086050D03*
%TD*%
D10*
%TO.C,SW31*%
X76834999Y-69186050D03*
X76834999Y-83086050D03*
D11*
X69884999Y-76136050D03*
X83784999Y-76136050D03*
%TD*%
D10*
%TO.C,SW5*%
X114934999Y-31086050D03*
X114934999Y-44986050D03*
D11*
X107984999Y-38036050D03*
X121884999Y-38036050D03*
%TD*%
D12*
%TO.C,REF\u002A\u002A*%
X28780000Y-25696051D03*
%TD*%
%TO.C,REF\u002A\u002A*%
X48260000Y-85756051D03*
%TD*%
%TO.C,REF\u002A\u002A*%
X85360000Y-126596051D03*
%TD*%
%TO.C,REF\u002A\u002A*%
X164400000Y-126596051D03*
%TD*%
%TO.C,REF\u002A\u002A*%
X164400000Y-25696051D03*
%TD*%
M02*
